<?xml version="1.0" encoding="UTF-8"?>
<svg xmlns="http://www.w3.org/2000/svg" xmlns:xlink="http://www.w3.org/1999/xlink" width="35px" height="35px" viewBox="0 0 35 30" version="1.1">
<g id="surface1">
<path style=" stroke:none;fill-rule:nonzero;fill:rgb(100%,80%,0%);fill-opacity:1;" d="M 18.746094 0.324219 C 17.558594 -0.339844 16.039062 0.0546875 15.351562 1.203125 L 0.332031 26.402344 C -0.351562 27.554688 0.0546875 29.023438 1.242188 29.691406 C 1.621094 29.902344 2.046875 30.011719 2.484375 30.011719 L 32.523438 30.011719 C 32.957031 30.011719 33.386719 29.902344 33.765625 29.691406 C 34.953125 29.023438 35.359375 27.554688 34.675781 26.402344 L 19.65625 1.203125 C 19.4375 0.839844 19.125 0.535156 18.746094 0.324219 Z M 18.746094 0.324219 "/>
<path style=" stroke:none;fill-rule:nonzero;fill:rgb(0%,0%,0%);fill-opacity:1;" d="M 19.886719 20.191406 L 18.222656 20.941406 C 18.035156 21.027344 17.890625 21.171875 17.8125 21.355469 C 17.632812 21.757812 17.828125 22.226562 18.246094 22.398438 L 22.574219 24.152344 C 23.191406 24.402344 23.476562 25.09375 23.214844 25.6875 C 23.105469 25.9375 22.914062 26.136719 22.675781 26.261719 L 27.1875 26.261719 C 26.898438 24.859375 25.859375 23.679688 24.425781 23.199219 L 19.863281 21.679688 C 19.535156 21.570312 19.359375 21.222656 19.472656 20.902344 C 19.488281 20.867188 19.503906 20.832031 19.523438 20.796875 Z M 19.886719 20.191406 "/>
<path style=" stroke:none;fill-rule:nonzero;fill:rgb(0%,0%,0%);fill-opacity:1;" d="M 16.789062 23.101562 C 17.589844 23.546875 17.863281 24.539062 17.402344 25.3125 C 17.328125 25.433594 17.238281 25.546875 17.136719 25.644531 L 16.5 26.261719 L 12.152344 26.261719 L 13.980469 25.070312 C 14.078125 25.003906 14.164062 24.921875 14.230469 24.828125 C 14.535156 24.40625 14.429688 23.820312 13.992188 23.523438 L 10.875 21.363281 C 10.460938 21.082031 10.359375 20.527344 10.652344 20.121094 C 10.773438 19.949219 10.957031 19.828125 11.164062 19.773438 L 13.125 19.265625 L 12.378906 20.128906 C 12.359375 20.148438 12.347656 20.167969 12.332031 20.1875 C 12.214844 20.390625 12.285156 20.648438 12.492188 20.765625 Z M 16.789062 23.101562 "/>
<path style=" stroke:none;fill-rule:nonzero;fill:rgb(0%,0%,0%);fill-opacity:1;" d="M 15.609375 10.980469 C 15.40625 10.957031 15.207031 11.0625 15.117188 11.246094 L 13.929688 13.664062 C 13.664062 13.632812 13.421875 13.8125 13.390625 14.070312 L 13.117188 16.210938 C 13.085938 16.46875 13.273438 16.703125 13.539062 16.734375 L 21.609375 17.695312 C 21.878906 17.726562 22.117188 17.542969 22.152344 17.285156 L 22.421875 15.144531 C 22.453125 14.886719 22.265625 14.65625 22 14.621094 L 21.453125 12 C 21.410156 11.800781 21.246094 11.652344 21.039062 11.625 Z M 15.679688 11.554688 L 20.828125 12.167969 C 20.867188 12.171875 20.902344 12.203125 20.910156 12.242188 L 21.394531 14.550781 L 14.535156 13.734375 L 15.582031 11.609375 C 15.597656 11.574219 15.636719 11.550781 15.679688 11.554688 Z M 15.679688 11.554688 "/>
<path style=" stroke:none;fill-rule:nonzero;fill:rgb(0%,0%,0%);fill-opacity:1;" d="M 13.546875 17.042969 L 13.417969 18.066406 C 13.363281 18.492188 13.675781 18.878906 14.113281 18.929688 C 14.550781 18.980469 14.949219 18.679688 15.003906 18.253906 L 15.132812 17.230469 Z M 13.546875 17.042969 "/>
<path style=" stroke:none;fill-rule:nonzero;fill:rgb(0%,0%,0%);fill-opacity:1;" d="M 19.9375 17.804688 L 19.808594 18.828125 C 19.753906 19.25 20.066406 19.636719 20.503906 19.6875 C 20.941406 19.742188 21.339844 19.441406 21.394531 19.015625 L 21.523438 17.992188 Z M 19.9375 17.804688 "/>
<path style="fill:none;stroke-width:2;stroke-linecap:butt;stroke-linejoin:miter;stroke:rgb(0%,0%,0%);stroke-opacity:1;stroke-miterlimit:4;" d="M 0.990625 1007.354406 C 0.990625 999.611437 3.042634 992.014562 6.934375 985.367296 L 278.931696 514.141906 C 291.102232 493.104406 317.990625 485.872765 339.076786 498.071593 C 345.728125 501.870031 351.31808 507.421593 355.139062 514.141906 L 627.207143 985.367296 C 631.098884 992.014562 633.150893 999.611437 633.150893 1007.354406 C 633.150893 1031.679015 613.409152 1051.328624 589.138839 1051.328624 L 45.002679 1051.328624 C 20.732366 1051.328624 0.990625 1031.679015 0.990625 1007.354406 Z M 0.990625 1007.354406 " transform="matrix(0.055205,0,0,0.0534759,0,-26.263751)"/>
<path style=" stroke:none;fill-rule:nonzero;fill:rgb(100%,0%,0%);fill-opacity:1;" d="M 17.460938 0.535156 C 16.808594 0.550781 16.179688 0.882812 15.828125 1.46875 L 0.8125 26.667969 C 0.277344 27.566406 0.59375 28.710938 1.519531 29.226562 C 1.8125 29.390625 2.144531 29.476562 2.484375 29.476562 L 32.523438 29.476562 C 32.863281 29.476562 33.195312 29.390625 33.488281 29.226562 C 34.414062 28.710938 34.730469 27.566406 34.195312 26.667969 L 19.175781 1.46875 C 19.007812 1.1875 18.761719 0.949219 18.46875 0.785156 C 18.152344 0.609375 17.804688 0.527344 17.460938 0.535156 Z M 17.464844 3.757812 C 17.570312 3.75 17.679688 3.773438 17.78125 3.828125 C 17.863281 3.875 17.933594 3.941406 17.980469 4.023438 L 31.316406 26.398438 C 31.46875 26.652344 31.378906 26.980469 31.113281 27.128906 C 31.03125 27.175781 30.9375 27.199219 30.839844 27.199219 L 4.167969 27.199219 C 3.863281 27.199219 3.617188 26.960938 3.617188 26.664062 C 3.617188 26.570312 3.640625 26.476562 3.691406 26.398438 L 17.027344 4.023438 C 17.121094 3.863281 17.289062 3.769531 17.464844 3.757812 Z M 17.464844 3.757812 "/>
</g>
</svg>
