<?xml version="1.0" encoding="UTF-8"?>
<svg xmlns="http://www.w3.org/2000/svg" xmlns:xlink="http://www.w3.org/1999/xlink" width="35px" height="35px" viewBox="0 0 35 30" version="1.1">
<g id="surface1">
<path style=" stroke:none;fill-rule:nonzero;fill:rgb(100%,80%,0%);fill-opacity:1;" d="M 18.746094 0.324219 C 17.558594 -0.339844 16.039062 0.0546875 15.351562 1.203125 L 0.332031 26.402344 C -0.351562 27.554688 0.0546875 29.023438 1.242188 29.691406 C 1.621094 29.902344 2.046875 30.011719 2.484375 30.011719 L 32.523438 30.011719 C 32.957031 30.011719 33.386719 29.902344 33.765625 29.691406 C 34.953125 29.023438 35.359375 27.554688 34.675781 26.402344 L 19.65625 1.203125 C 19.4375 0.839844 19.125 0.535156 18.746094 0.324219 Z M 18.746094 0.324219 "/>
<path style=" stroke:none;fill-rule:nonzero;fill:rgb(0%,0%,0%);fill-opacity:1;" d="M 20.410156 17.820312 C 20.410156 18.207031 20.082031 18.523438 19.683594 18.523438 C 19.28125 18.523438 18.957031 18.207031 18.957031 17.820312 C 18.957031 17.429688 19.28125 17.117188 19.683594 17.117188 C 20.082031 17.117188 20.410156 17.429688 20.410156 17.820312 Z M 20.410156 17.820312 "/>
<path style=" stroke:none;fill-rule:nonzero;fill:rgb(0%,0%,0%);fill-opacity:1;" d="M 20.941406 20.210938 C 20.941406 20.730469 20.507812 21.148438 19.972656 21.148438 C 19.4375 21.148438 19.003906 20.730469 19.003906 20.210938 C 19.003906 19.695312 19.4375 19.273438 19.972656 19.273438 C 20.507812 19.273438 20.941406 19.695312 20.941406 20.210938 Z M 20.941406 20.210938 "/>
<path style=" stroke:none;fill-rule:nonzero;fill:rgb(0%,0%,0%);fill-opacity:1;" d="M 25.492188 23.730469 C 25.492188 24.246094 25.058594 24.667969 24.523438 24.667969 C 23.988281 24.667969 23.554688 24.246094 23.554688 23.730469 C 23.554688 23.210938 23.988281 22.789062 24.523438 22.789062 C 25.058594 22.789062 25.492188 23.210938 25.492188 23.730469 Z M 25.492188 23.730469 "/>
<path style=" stroke:none;fill-rule:nonzero;fill:rgb(0%,0%,0%);fill-opacity:1;" d="M 26.363281 19.789062 C 26.363281 20.386719 25.863281 20.867188 25.25 20.867188 C 24.632812 20.867188 24.136719 20.386719 24.136719 19.789062 C 24.136719 19.195312 24.632812 18.710938 25.25 18.710938 C 25.863281 18.710938 26.363281 19.195312 26.363281 19.789062 Z M 26.363281 19.789062 "/>
<path style=" stroke:none;fill-rule:nonzero;fill:rgb(0%,0%,0%);fill-opacity:1;" d="M 27.332031 22.71875 C 27.332031 23.148438 26.972656 23.492188 26.53125 23.492188 C 26.089844 23.492188 25.734375 23.148438 25.734375 22.71875 C 25.734375 22.292969 26.089844 21.945312 26.53125 21.945312 C 26.972656 21.945312 27.332031 22.292969 27.332031 22.71875 Z M 27.332031 22.71875 "/>
<path style=" stroke:none;fill-rule:nonzero;fill:rgb(0%,0%,0%);fill-opacity:1;" d="M 11.039062 14.070312 L 10.605469 14.792969 L 12.582031 14.792969 C 12.726562 14.792969 12.878906 14.902344 12.925781 15.035156 L 14.007812 18.0625 L 8.65625 18.0625 L 6.0625 22.417969 L 14.753906 22.417969 C 15.171875 22.417969 15.503906 22.09375 15.503906 21.691406 L 15.503906 18.789062 C 15.503906 18.386719 15.171875 18.0625 14.753906 18.0625 L 14.585938 17.585938 C 14.585938 17.585938 14.585938 17.582031 14.582031 17.582031 L 13.855469 15.535156 L 13.503906 14.550781 C 13.410156 14.28125 13.101562 14.070312 12.808594 14.070312 Z M 13.628906 18.75 C 14.25 18.75 14.753906 19.238281 14.753906 19.839844 C 14.753906 20.441406 14.25 20.929688 13.628906 20.929688 C 13.011719 20.929688 12.507812 20.441406 12.507812 19.839844 C 12.507812 19.238281 13.011719 18.75 13.628906 18.75 Z M 13.628906 18.75 "/>
<path style=" stroke:none;fill-rule:nonzero;fill:rgb(0%,0%,0%);fill-opacity:1;" d="M 12.507812 22.78125 L 12.507812 24.234375 C 12.507812 24.835938 13.011719 25.324219 13.628906 25.324219 C 14.25 25.324219 14.753906 24.835938 14.753906 24.234375 L 14.753906 22.78125 Z M 12.507812 22.78125 "/>
<path style=" stroke:none;fill-rule:nonzero;fill:rgb(0%,0%,0%);fill-opacity:1;" d="M 16.457031 25.125 L 16.613281 25.363281 L 24.125 20.804688 L 23.808594 20.332031 Z M 16.457031 25.125 "/>
<path style=" stroke:none;fill-rule:nonzero;fill:rgb(0%,0%,0%);fill-opacity:1;" d="M 15.257812 25.1875 L 15.484375 25.363281 L 18.941406 21.453125 L 18.492188 21.097656 Z M 15.257812 25.1875 "/>
<path style=" stroke:none;fill-rule:nonzero;fill:rgb(0%,0%,0%);fill-opacity:1;" d="M 19.605469 25.070312 L 19.695312 25.339844 L 23.375 24.398438 L 23.195312 23.863281 Z M 19.605469 25.070312 "/>
<path style="fill:none;stroke-width:2;stroke-linecap:butt;stroke-linejoin:miter;stroke:rgb(0%,0%,0%);stroke-opacity:1;stroke-miterlimit:4;" d="M 0.990625 1007.354406 C 0.990625 999.611437 3.042634 992.014562 6.934375 985.367296 L 278.931696 514.141906 C 291.102232 493.104406 317.990625 485.872765 339.076786 498.071593 C 345.728125 501.870031 351.31808 507.421593 355.139062 514.141906 L 627.207143 985.367296 C 631.098884 992.014562 633.150893 999.611437 633.150893 1007.354406 C 633.150893 1031.679015 613.409152 1051.328624 589.138839 1051.328624 L 45.002679 1051.328624 C 20.732366 1051.328624 0.990625 1031.679015 0.990625 1007.354406 Z M 0.990625 1007.354406 " transform="matrix(0.055205,0,0,0.0534759,0,-26.263751)"/>
<path style=" stroke:none;fill-rule:nonzero;fill:rgb(100%,0%,0%);fill-opacity:1;" d="M 17.460938 0.535156 C 16.808594 0.550781 16.179688 0.882812 15.828125 1.46875 L 0.8125 26.667969 C 0.277344 27.566406 0.59375 28.710938 1.519531 29.226562 C 1.8125 29.390625 2.144531 29.476562 2.484375 29.476562 L 32.523438 29.476562 C 32.863281 29.476562 33.195312 29.390625 33.488281 29.226562 C 34.414062 28.710938 34.730469 27.566406 34.195312 26.667969 L 19.175781 1.46875 C 19.007812 1.1875 18.761719 0.949219 18.46875 0.785156 C 18.152344 0.609375 17.804688 0.527344 17.460938 0.535156 Z M 17.464844 3.757812 C 17.570312 3.75 17.679688 3.773438 17.78125 3.828125 C 17.863281 3.875 17.933594 3.941406 17.980469 4.023438 L 31.316406 26.398438 C 31.46875 26.652344 31.378906 26.980469 31.113281 27.128906 C 31.03125 27.175781 30.9375 27.199219 30.839844 27.199219 L 4.167969 27.199219 C 3.863281 27.199219 3.617188 26.960938 3.617188 26.664062 C 3.617188 26.570312 3.640625 26.476562 3.691406 26.398438 L 17.027344 4.023438 C 17.121094 3.863281 17.289062 3.769531 17.464844 3.757812 Z M 17.464844 3.757812 "/>
</g>
</svg>
