<?xml version="1.0" encoding="UTF-8"?>
<svg xmlns="http://www.w3.org/2000/svg" xmlns:xlink="http://www.w3.org/1999/xlink" width="35px" height="35px" viewBox="0 0 35 30" version="1.1">
<g id="surface1">
<path style=" stroke:none;fill-rule:nonzero;fill:rgb(100%,100%,100%);fill-opacity:1;" d="M 18.746094 0.324219 C 17.558594 -0.339844 16.039062 0.0546875 15.351562 1.203125 L 0.332031 26.402344 C -0.351562 27.554688 0.0546875 29.023438 1.242188 29.691406 C 1.621094 29.902344 2.046875 30.011719 2.484375 30.011719 L 32.523438 30.011719 C 32.957031 30.011719 33.386719 29.902344 33.765625 29.691406 C 34.953125 29.023438 35.359375 27.554688 34.675781 26.402344 L 19.65625 1.203125 C 19.4375 0.839844 19.125 0.535156 18.746094 0.324219 Z M 18.746094 0.324219 "/>
<path style=" stroke:none;fill-rule:nonzero;fill:rgb(0%,0%,0%);fill-opacity:1;" d="M 16.480469 23.097656 C 16.574219 23.34375 16.445312 23.613281 16.191406 23.699219 C 15.941406 23.789062 15.664062 23.664062 15.570312 23.421875 L 14.457031 20.445312 L 15.171875 18.539062 L 16.082031 18.859375 L 15.484375 20.445312 Z M 16.480469 23.097656 "/>
<path style=" stroke:none;fill-rule:nonzero;fill:rgb(0%,0%,0%);fill-opacity:1;" d="M 22.394531 23.410156 L 22.394531 25.792969 C 22.394531 26.050781 22.175781 26.261719 21.910156 26.261719 C 21.640625 26.261719 21.425781 26.050781 21.425781 25.792969 L 21.425781 22.828125 L 21.664062 22.890625 C 21.730469 22.910156 21.789062 22.9375 21.84375 22.980469 Z M 22.394531 23.410156 "/>
<path style=" stroke:none;fill-rule:nonzero;fill:rgb(0%,0%,0%);fill-opacity:1;" d="M 22.847656 23.347656 L 22 22.679688 C 21.949219 22.640625 21.886719 22.609375 21.820312 22.59375 L 21.605469 22.535156 C 21.449219 22.496094 21.324219 22.382812 21.273438 22.234375 L 20.742188 20.738281 C 20.707031 20.640625 20.640625 20.558594 20.554688 20.503906 L 16.671875 17.964844 C 16.394531 18.226562 15.96875 18.300781 15.609375 18.121094 L 13.289062 16.976562 L 12.691406 20.261719 C 12.644531 20.519531 12.394531 20.6875 12.132812 20.644531 C 11.867188 20.597656 11.691406 20.355469 11.738281 20.101562 L 12.449219 16.203125 C 12.496094 15.945312 12.746094 15.777344 13.007812 15.820312 C 13.058594 15.828125 13.109375 15.847656 13.152344 15.867188 L 15.101562 16.871094 L 15.785156 13.125 L 14 11.914062 C 13.78125 11.765625 13.730469 11.472656 13.882812 11.261719 C 13.984375 11.117188 14.160156 11.042969 14.335938 11.0625 L 16.445312 11.316406 L 16.480469 10.941406 L 15.128906 9.957031 C 15.035156 9.886719 14.992188 9.765625 15.023438 9.652344 L 15.328125 8.636719 C 15.371094 8.484375 15.53125 8.398438 15.6875 8.441406 C 15.839844 8.484375 15.929688 8.640625 15.886719 8.789062 L 15.652344 9.574219 L 16.546875 10.226562 L 16.609375 9.53125 C 16.628906 9.296875 16.84375 9.125 17.082031 9.144531 C 17.320312 9.167969 17.5 9.371094 17.476562 9.601562 L 17.425781 10.183594 L 18.640625 8.78125 L 18.691406 8.226562 C 18.707031 8.058594 18.859375 7.933594 19.03125 7.949219 C 19.203125 7.964844 19.332031 8.113281 19.316406 8.28125 L 19.257812 8.9375 C 19.253906 8.992188 19.230469 9.046875 19.191406 9.09375 L 17.328125 11.242188 L 17.320312 11.347656 L 18.109375 11.347656 C 18.324219 11.347656 18.496094 11.515625 18.496094 11.722656 C 18.496094 11.929688 18.324219 12.097656 18.109375 12.097656 L 17.554688 12.097656 L 18.355469 14.992188 L 23.71875 18.5 C 23.925781 18.632812 23.992188 18.894531 23.875 19.109375 L 22.71875 21.21875 C 22.617188 21.398438 22.652344 21.625 22.804688 21.769531 L 23.601562 22.542969 C 23.652344 22.59375 23.691406 22.652344 23.714844 22.714844 L 24.941406 25.976562 C 25.03125 26.21875 24.902344 26.488281 24.652344 26.578125 C 24.402344 26.664062 24.121094 26.539062 24.03125 26.296875 L 23.179688 24.027344 L 23 23.550781 C 22.96875 23.46875 22.917969 23.398438 22.847656 23.347656 Z M 22.847656 23.347656 "/>
<path style="fill:none;stroke-width:2;stroke-linecap:butt;stroke-linejoin:miter;stroke:rgb(0%,0%,0%);stroke-opacity:1;stroke-miterlimit:4;" d="M 0.990625 1007.354406 C 0.990625 999.611437 3.042634 992.014562 6.934375 985.367296 L 278.931696 514.141906 C 291.102232 493.104406 317.990625 485.872765 339.076786 498.071593 C 345.728125 501.870031 351.31808 507.421593 355.139062 514.141906 L 627.207143 985.367296 C 631.098884 992.014562 633.150893 999.611437 633.150893 1007.354406 C 633.150893 1031.679015 613.409152 1051.328624 589.138839 1051.328624 L 45.002679 1051.328624 C 20.732366 1051.328624 0.990625 1031.679015 0.990625 1007.354406 Z M 0.990625 1007.354406 " transform="matrix(0.055205,0,0,0.0534759,0,-26.263751)"/>
<path style=" stroke:none;fill-rule:nonzero;fill:rgb(100%,0%,0%);fill-opacity:1;" d="M 17.460938 0.535156 C 16.808594 0.550781 16.179688 0.882812 15.828125 1.46875 L 0.8125 26.667969 C 0.277344 27.566406 0.59375 28.710938 1.519531 29.226562 C 1.8125 29.390625 2.144531 29.476562 2.484375 29.476562 L 32.523438 29.476562 C 32.863281 29.476562 33.195312 29.390625 33.488281 29.226562 C 34.414062 28.710938 34.730469 27.566406 34.195312 26.667969 L 19.175781 1.46875 C 19.007812 1.1875 18.761719 0.949219 18.46875 0.785156 C 18.152344 0.609375 17.804688 0.527344 17.460938 0.535156 Z M 17.464844 3.757812 C 17.570312 3.75 17.679688 3.773438 17.78125 3.828125 C 17.863281 3.875 17.933594 3.941406 17.980469 4.023438 L 31.316406 26.398438 C 31.46875 26.652344 31.378906 26.980469 31.113281 27.128906 C 31.03125 27.175781 30.9375 27.199219 30.839844 27.199219 L 4.167969 27.199219 C 3.863281 27.199219 3.617188 26.960938 3.617188 26.664062 C 3.617188 26.570312 3.640625 26.476562 3.691406 26.398438 L 17.027344 4.023438 C 17.121094 3.863281 17.289062 3.769531 17.464844 3.757812 Z M 17.464844 3.757812 "/>
</g>
</svg>
