<?xml version="1.0" encoding="UTF-8"?>
<svg xmlns="http://www.w3.org/2000/svg" xmlns:xlink="http://www.w3.org/1999/xlink" width="35px" height="35px" viewBox="0 0 35 30" version="1.1">
<g id="surface1">
<path style=" stroke:none;fill-rule:nonzero;fill:rgb(100%,100%,100%);fill-opacity:1;" d="M 18.746094 0.324219 C 17.558594 -0.339844 16.039062 0.0546875 15.351562 1.203125 L 0.332031 26.402344 C -0.351562 27.554688 0.0546875 29.023438 1.242188 29.691406 C 1.621094 29.902344 2.046875 30.011719 2.484375 30.011719 L 32.523438 30.011719 C 32.957031 30.011719 33.386719 29.902344 33.765625 29.691406 C 34.953125 29.023438 35.359375 27.554688 34.675781 26.402344 L 19.65625 1.203125 C 19.4375 0.839844 19.125 0.535156 18.746094 0.324219 Z M 18.746094 0.324219 "/>
<path style=" stroke:none;fill-rule:nonzero;fill:rgb(0%,0%,0%);fill-opacity:1;" d="M 19.246094 18.960938 C 19.246094 18.183594 19.761719 17.523438 20.476562 17.277344 L 22.328125 17.894531 C 21.746094 18.089844 21.328125 18.621094 21.328125 19.25 C 21.328125 19.75 21.59375 20.191406 21.996094 20.445312 L 20.070312 20.445312 C 19.574219 20.128906 19.246094 19.582031 19.246094 18.960938 Z M 16.363281 20.445312 C 15.550781 20.082031 14.984375 19.285156 14.984375 18.359375 C 14.984375 17.230469 15.828125 16.289062 16.9375 16.097656 L 18.316406 16.558594 C 17.332031 16.738281 16.582031 17.578125 16.582031 18.585938 C 16.582031 19.40625 17.078125 20.113281 17.796875 20.445312 Z M 11.066406 17.820312 C 11.066406 16.445312 12.214844 15.335938 13.628906 15.335938 C 13.914062 15.335938 14.199219 15.378906 14.464844 15.46875 L 14.960938 15.636719 C 13.621094 15.789062 12.578125 16.894531 12.578125 18.234375 C 12.578125 19.074219 12.992188 19.828125 13.628906 20.304688 C 12.214844 20.304688 11.066406 19.191406 11.066406 17.820312 Z M 25.050781 18.804688 C 25.503906 18.953125 25.746094 19.4375 25.589844 19.878906 C 25.46875 20.21875 25.136719 20.445312 24.765625 20.445312 C 24.285156 20.445312 23.894531 20.066406 23.894531 19.601562 C 23.894531 19.136719 24.285156 18.757812 24.765625 18.757812 C 24.863281 18.757812 24.957031 18.773438 25.050781 18.804688 M 14.210938 20.632812 L 24.765625 20.632812 C 25.21875 20.632812 25.625 20.355469 25.773438 19.9375 C 25.964844 19.398438 25.667969 18.8125 25.113281 18.625 L 14.210938 14.992188 L 14.210938 14.070312 C 14.210938 13.757812 13.953125 13.503906 13.628906 13.503906 C 13.308594 13.503906 13.050781 13.757812 13.050781 14.070312 L 13.050781 14.992188 C 11.683594 15.253906 10.652344 16.417969 10.652344 17.820312 C 10.652344 19.21875 11.683594 20.386719 13.050781 20.648438 L 13.050781 26.261719 L 14.210938 26.261719 Z M 14.210938 20.632812 "/>
<path style="fill:none;stroke-width:2;stroke-linecap:butt;stroke-linejoin:miter;stroke:rgb(0%,0%,0%);stroke-opacity:1;stroke-miterlimit:4;" d="M 0.990625 1007.354406 C 0.990625 999.611437 3.042634 992.014562 6.934375 985.367296 L 278.931696 514.141906 C 291.102232 493.104406 317.990625 485.872765 339.076786 498.071593 C 345.728125 501.870031 351.31808 507.421593 355.139062 514.141906 L 627.207143 985.367296 C 631.098884 992.014562 633.150893 999.611437 633.150893 1007.354406 C 633.150893 1031.679015 613.409152 1051.328624 589.138839 1051.328624 L 45.002679 1051.328624 C 20.732366 1051.328624 0.990625 1031.679015 0.990625 1007.354406 Z M 0.990625 1007.354406 " transform="matrix(0.055205,0,0,0.0534759,0,-26.263751)"/>
<path style=" stroke:none;fill-rule:nonzero;fill:rgb(100%,0%,0%);fill-opacity:1;" d="M 17.460938 0.535156 C 16.808594 0.550781 16.179688 0.882812 15.828125 1.46875 L 0.8125 26.667969 C 0.277344 27.566406 0.59375 28.710938 1.519531 29.226562 C 1.8125 29.390625 2.144531 29.476562 2.484375 29.476562 L 32.523438 29.476562 C 32.863281 29.476562 33.195312 29.390625 33.488281 29.226562 C 34.414062 28.710938 34.730469 27.566406 34.195312 26.667969 L 19.175781 1.46875 C 19.007812 1.1875 18.761719 0.949219 18.46875 0.785156 C 18.152344 0.609375 17.804688 0.527344 17.460938 0.535156 Z M 17.464844 3.757812 C 17.570312 3.75 17.679688 3.773438 17.78125 3.828125 C 17.863281 3.875 17.933594 3.941406 17.980469 4.023438 L 31.316406 26.398438 C 31.46875 26.652344 31.378906 26.980469 31.113281 27.128906 C 31.03125 27.175781 30.9375 27.199219 30.839844 27.199219 L 4.167969 27.199219 C 3.863281 27.199219 3.617188 26.960938 3.617188 26.664062 C 3.617188 26.570312 3.640625 26.476562 3.691406 26.398438 L 17.027344 4.023438 C 17.121094 3.863281 17.289062 3.769531 17.464844 3.757812 Z M 17.464844 3.757812 "/>
</g>
</svg>
