<?xml version="1.0" encoding="UTF-8"?>
<svg xmlns="http://www.w3.org/2000/svg" xmlns:xlink="http://www.w3.org/1999/xlink" width="35px" height="35px" viewBox="0 0 35 22" version="1.1">
<g id="surface1">
<path style=" stroke:none;fill-rule:nonzero;fill:rgb(100%,100%,100%);fill-opacity:1;" d="M 0 20.851562 L 4.414062 22.007812 L 17.492188 14.644531 L 30.570312 22.007812 L 34.984375 20.851562 L 33.800781 16.546875 L 23.957031 11.003906 L 33.800781 5.460938 L 34.984375 1.152344 L 30.570312 0 L 17.492188 7.363281 L 4.414062 0 L 0 1.152344 L 1.183594 5.460938 L 11.027344 11.003906 L 1.183594 16.546875 Z M 0 20.851562 "/>
<path style="fill:none;stroke-width:2;stroke-linecap:butt;stroke-linejoin:miter;stroke:rgb(0%,0%,0%);stroke-opacity:1;stroke-miterlimit:4;" d="M 1.208705 660.943537 L 136.462835 697.132457 L 541.258259 463.39169 L 946.053683 697.132457 L 1081.307813 660.943537 L 1045.046652 525.606889 L 739.244196 349.123935 L 1045.046652 172.517045 L 1081.307813 37.304332 L 946.053683 1.115412 L 541.258259 234.732244 L 136.462835 1.115412 L 1.208705 37.304332 L 37.469866 172.517045 L 343.272321 349.123935 L 37.469866 525.606889 Z M 1.208705 660.943537 " transform="matrix(0.0323176,0,0,0.0315186,0,0)"/>
<path style=" stroke:none;fill-rule:nonzero;fill:rgb(100%,0%,0%);fill-opacity:1;" d="M 0.394531 20.628906 L 4.367188 21.667969 L 17.492188 14.277344 L 30.617188 21.667969 L 34.589844 20.628906 L 33.523438 16.753906 L 23.308594 11.003906 L 33.523438 5.25 L 34.589844 1.375 L 30.617188 0.339844 L 17.492188 7.726562 L 4.367188 0.339844 L 0.394531 1.375 L 1.460938 5.25 L 11.675781 11.003906 L 1.460938 16.753906 Z M 1.980469 19.738281 L 2.570312 17.585938 L 14.261719 11.003906 L 2.570312 4.421875 L 1.980469 2.269531 L 4.1875 1.691406 L 17.492188 9.183594 L 30.796875 1.691406 L 33.003906 2.269531 L 32.414062 4.421875 L 20.722656 11.003906 L 32.414062 17.585938 L 33.003906 19.738281 L 30.796875 20.316406 L 17.492188 12.824219 L 4.1875 20.316406 Z M 1.980469 19.738281 "/>
</g>
</svg>
