<?xml version="1.0" encoding="UTF-8"?>
<svg xmlns="http://www.w3.org/2000/svg" xmlns:xlink="http://www.w3.org/1999/xlink" width="35px" height="35px" viewBox="0 0 35 37" version="1.1">
<g id="surface1">
<path style=" stroke:none;fill-rule:nonzero;fill:rgb(100%,100%,100%);fill-opacity:1;" d="M 0 21.101562 L 4.414062 22.269531 L 17.492188 14.816406 L 30.570312 22.269531 L 34.984375 21.101562 L 33.800781 16.746094 L 23.957031 11.136719 L 33.800781 5.523438 L 34.984375 1.167969 L 30.570312 0 L 17.492188 7.453125 L 4.414062 0 L 0 1.167969 L 1.183594 5.523438 L 11.027344 11.136719 L 1.183594 16.746094 Z M 0 21.101562 "/>
<path style="fill:none;stroke-width:2;stroke-linecap:butt;stroke-linejoin:miter;stroke:rgb(0%,0%,0%);stroke-opacity:1;stroke-miterlimit:4;" d="M 1.208705 660.950169 L 136.462835 697.077703 L 541.258259 463.412162 L 946.053683 697.077703 L 1081.307813 660.950169 L 1045.046652 525.625 L 739.244196 349.151182 L 1045.046652 172.554899 L 1081.307813 37.352196 L 946.053683 1.102196 L 541.258259 234.767736 L 136.462835 1.102196 L 1.208705 37.352196 L 37.469866 172.554899 L 343.272321 349.151182 L 37.469866 525.625 Z M 1.208705 660.950169 " transform="matrix(0.0323176,0,0,0.0318966,0,0)"/>
<path style=" stroke:none;fill-rule:nonzero;fill:rgb(100%,0%,0%);fill-opacity:1;" d="M 0.394531 20.878906 L 4.367188 21.929688 L 17.492188 14.449219 L 30.617188 21.929688 L 34.589844 20.878906 L 33.523438 16.957031 L 23.308594 11.136719 L 33.523438 5.316406 L 34.589844 1.394531 L 30.617188 0.34375 L 17.492188 7.820312 L 4.367188 0.34375 L 0.394531 1.394531 L 1.460938 5.316406 L 11.675781 11.136719 L 1.460938 16.957031 Z M 1.980469 19.976562 L 2.570312 17.796875 L 14.261719 11.136719 L 2.570312 4.472656 L 1.980469 2.296875 L 4.1875 1.710938 L 17.492188 9.292969 L 30.796875 1.710938 L 33.003906 2.296875 L 32.414062 4.472656 L 20.722656 11.136719 L 32.414062 17.796875 L 33.003906 19.976562 L 30.796875 20.558594 L 17.492188 12.976562 L 4.1875 20.558594 Z M 1.980469 19.976562 "/>
<path style=" stroke:none;fill-rule:nonzero;fill:rgb(100%,100%,100%);fill-opacity:1;" d="M 0 35.835938 L 4.414062 37.003906 L 17.492188 29.550781 L 30.570312 37.003906 L 34.984375 35.835938 L 33.800781 31.476562 L 17.492188 22.183594 L 1.183594 31.476562 Z M 0 35.835938 "/>
<path style="fill:none;stroke-width:2;stroke-linecap:butt;stroke-linejoin:miter;stroke:rgb(0%,0%,0%);stroke-opacity:1;stroke-miterlimit:4;" d="M 1.208705 1122.77027 L 136.462835 1159.02027 L 541.258259 925.35473 L 946.053683 1159.02027 L 1081.307813 1122.77027 L 1045.046652 987.567568 L 541.258259 696.710304 L 37.469866 987.567568 Z M 1.208705 1122.77027 " transform="matrix(0.0323176,0,0,0.0318966,0,0)"/>
<path style=" stroke:none;fill-rule:nonzero;fill:rgb(100%,0%,0%);fill-opacity:1;" d="M 0.394531 35.609375 L 4.367188 36.660156 L 17.492188 29.183594 L 30.617188 36.660156 L 34.589844 35.609375 L 33.523438 31.6875 L 17.492188 22.554688 L 1.460938 31.6875 Z M 1.980469 34.707031 L 2.570312 32.527344 L 17.492188 24.027344 L 32.414062 32.527344 L 33.003906 34.707031 L 30.796875 35.292969 L 17.492188 27.710938 L 4.1875 35.292969 Z M 1.980469 34.707031 "/>
</g>
</svg>
