<?xml version="1.0" encoding="UTF-8"?>
<svg xmlns="http://www.w3.org/2000/svg" xmlns:xlink="http://www.w3.org/1999/xlink" width="35px" height="35px" viewBox="0 0 35 7" version="1.1">
<g id="surface1">
<rect x="0" y="0" width="35" height="7" style="fill:rgb(100%,100%,100%);fill-opacity:1;stroke:none;"/>
<path style="fill:none;stroke-width:3;stroke-linecap:butt;stroke-linejoin:miter;stroke:rgb(0%,0%,0%);stroke-opacity:1;stroke-miterlimit:4;" d="M 0 0 L 900 0 L 900 200 L 0 200 Z M 0 0 " transform="matrix(0.0388889,0,0,0.035,0,0)"/>
<path style=" stroke:none;fill-rule:nonzero;fill:rgb(100%,0%,0%);fill-opacity:1;" d="M 0.542969 3.5 L 3.382812 0.59375 L 0.542969 0.59375 L 0.542969 6.40625 L 3.382812 6.40625 M 6.183594 6.40625 L 3.34375 3.5 L 6.183594 0.59375 L 11.859375 0.59375 L 9.023438 3.5 L 11.859375 6.40625 M 14.660156 6.40625 L 11.820312 3.5 L 14.660156 0.59375 L 20.339844 0.59375 L 23.179688 3.5 L 20.339844 6.40625 M 23.140625 6.40625 L 25.976562 3.5 L 23.140625 0.59375 L 28.816406 0.59375 L 31.65625 3.5 L 28.816406 6.40625 M 31.617188 6.40625 L 34.457031 3.5 L 31.617188 0.59375 L 34.417969 0.59375 L 34.417969 6.40625 "/>
</g>
</svg>
