<?xml version="1.0" encoding="UTF-8"?>
<svg xmlns="http://www.w3.org/2000/svg" xmlns:xlink="http://www.w3.org/1999/xlink" width="35px" height="35px" viewBox="0 0 35 30" version="1.1">
<g id="surface1">
<path style=" stroke:none;fill-rule:nonzero;fill:rgb(100%,80%,0%);fill-opacity:1;" d="M 18.746094 0.324219 C 17.558594 -0.339844 16.039062 0.0546875 15.351562 1.203125 L 0.332031 26.402344 C -0.351562 27.554688 0.0546875 29.023438 1.242188 29.691406 C 1.621094 29.902344 2.046875 30.011719 2.484375 30.011719 L 32.523438 30.011719 C 32.957031 30.011719 33.386719 29.902344 33.765625 29.691406 C 34.953125 29.023438 35.359375 27.554688 34.675781 26.402344 L 19.65625 1.203125 C 19.4375 0.839844 19.125 0.535156 18.746094 0.324219 Z M 18.746094 0.324219 "/>
<path style="fill:none;stroke-width:2;stroke-linecap:butt;stroke-linejoin:miter;stroke:rgb(0%,0%,0%);stroke-opacity:1;stroke-miterlimit:4;" d="M 0.990625 1007.354406 C 0.990625 999.611437 3.042634 992.014562 6.934375 985.367296 L 278.931696 514.141906 C 291.102232 493.104406 317.990625 485.872765 339.076786 498.071593 C 345.728125 501.870031 351.31808 507.421593 355.139062 514.141906 L 627.207143 985.367296 C 631.098884 992.014562 633.150893 999.611437 633.150893 1007.354406 C 633.150893 1031.679015 613.409152 1051.328624 589.138839 1051.328624 L 45.002679 1051.328624 C 20.732366 1051.328624 0.990625 1031.679015 0.990625 1007.354406 Z M 0.990625 1007.354406 " transform="matrix(0.055205,0,0,0.0534759,0,-26.263751)"/>
<path style=" stroke:none;fill-rule:nonzero;fill:rgb(100%,0%,0%);fill-opacity:1;" d="M 17.460938 0.535156 C 16.808594 0.550781 16.179688 0.882812 15.828125 1.46875 L 0.8125 26.667969 C 0.277344 27.566406 0.59375 28.710938 1.519531 29.226562 C 1.8125 29.390625 2.144531 29.476562 2.484375 29.476562 L 32.523438 29.476562 C 32.863281 29.476562 33.195312 29.390625 33.488281 29.226562 C 34.414062 28.710938 34.730469 27.566406 34.195312 26.667969 L 19.175781 1.46875 C 19.007812 1.1875 18.761719 0.949219 18.46875 0.785156 C 18.152344 0.609375 17.804688 0.527344 17.460938 0.535156 Z M 17.464844 3.757812 C 17.570312 3.75 17.679688 3.773438 17.78125 3.828125 C 17.863281 3.875 17.933594 3.941406 17.980469 4.023438 L 31.316406 26.398438 C 31.46875 26.652344 31.378906 26.980469 31.113281 27.128906 C 31.03125 27.175781 30.9375 27.199219 30.839844 27.199219 L 4.167969 27.199219 C 3.863281 27.199219 3.617188 26.960938 3.617188 26.664062 C 3.617188 26.570312 3.640625 26.476562 3.691406 26.398438 L 17.027344 4.023438 C 17.121094 3.863281 17.289062 3.769531 17.464844 3.757812 Z M 17.464844 3.757812 "/>
<path style=" stroke:none;fill-rule:evenodd;fill:rgb(0%,0%,0%);fill-opacity:1;" d="M 29.355469 25.109375 C 28.992188 24.730469 28.628906 24.386719 28.25 24.386719 C 27.824219 24.386719 26.519531 24.832031 25.636719 25.324219 L 23.53125 23.5625 C 23.449219 23.492188 23.335938 23.445312 23.214844 23.445312 C 23.09375 23.445312 22.984375 23.492188 22.898438 23.5625 L 20.796875 25.324219 L 17.0625 23.144531 C 16.878906 23.039062 16.667969 22.976562 16.4375 22.976562 C 16.09375 22.976562 15.78125 23.117188 15.558594 23.34375 L 13.628906 25.324219 L 13.628906 22.507812 L 6.851562 22.507812 L 4.6875 25.945312 C 4.636719 26.023438 4.609375 26.117188 4.609375 26.214844 C 4.609375 26.5 4.847656 26.730469 5.140625 26.730469 L 30.023438 26.730469 C 30.238281 26.730469 30.410156 26.5625 30.410156 26.355469 C 30.410156 26.257812 30.375 26.167969 30.308594 26.097656 Z M 29.355469 25.109375 "/>
<path style=" stroke:none;fill-rule:nonzero;fill:rgb(0%,0%,0%);fill-opacity:1;" d="M 13.941406 14.410156 C 13.75 14.40625 13.539062 14.511719 13.445312 14.671875 L 13.035156 15.335938 L 12.195312 16.722656 C 12.195312 16.722656 12.195312 16.722656 12.191406 16.726562 L 11.996094 17.046875 C 11.695312 16.988281 11.402344 17.175781 11.339844 17.46875 L 10.894531 19.582031 C 10.835938 19.875 11.027344 20.15625 11.332031 20.21875 L 19.515625 21.832031 C 19.816406 21.890625 20.109375 21.703125 20.171875 21.410156 L 20.613281 19.296875 C 20.675781 19.003906 20.480469 18.71875 20.179688 18.660156 L 20.128906 18.289062 C 20.128906 18.289062 20.128906 18.285156 20.128906 18.285156 L 19.910156 16.691406 L 19.808594 15.925781 C 19.777344 15.714844 19.585938 15.515625 19.375 15.472656 L 14.023438 14.417969 C 13.996094 14.414062 13.96875 14.410156 13.941406 14.410156 Z M 14.039062 14.976562 C 14.050781 14.976562 14.066406 14.976562 14.078125 14.980469 L 16.589844 15.476562 L 19.097656 15.96875 C 19.203125 15.992188 19.296875 16.089844 19.3125 16.195312 L 19.632812 18.550781 L 16.089844 17.851562 L 12.542969 17.152344 L 13.789062 15.105469 C 13.835938 15.027344 13.941406 14.972656 14.039062 14.976562 Z M 11.273438 20.480469 L 11.054688 21.539062 C 10.960938 21.976562 11.253906 22.402344 11.703125 22.492188 C 12.15625 22.582031 12.597656 22.300781 12.691406 21.863281 L 12.910156 20.804688 Z M 17.820312 21.773438 L 17.597656 22.828125 C 17.507812 23.265625 17.800781 23.695312 18.25 23.78125 C 18.703125 23.871094 19.144531 23.589844 19.234375 23.152344 L 19.457031 22.09375 Z M 17.820312 21.773438 "/>
</g>
</svg>
