<?xml version="1.0" encoding="UTF-8"?>
<svg xmlns="http://www.w3.org/2000/svg" xmlns:xlink="http://www.w3.org/1999/xlink" width="35px" height="35px" viewBox="0 0 35 30" version="1.1">
<g id="surface1">
<path style=" stroke:none;fill-rule:nonzero;fill:rgb(100%,80%,0%);fill-opacity:1;" d="M 18.746094 0.324219 C 17.558594 -0.339844 16.039062 0.0546875 15.351562 1.203125 L 0.332031 26.402344 C -0.351562 27.554688 0.0546875 29.023438 1.242188 29.691406 C 1.621094 29.902344 2.046875 30.011719 2.484375 30.011719 L 32.523438 30.011719 C 32.957031 30.011719 33.386719 29.902344 33.765625 29.691406 C 34.953125 29.023438 35.359375 27.554688 34.675781 26.402344 L 19.65625 1.203125 C 19.4375 0.839844 19.125 0.535156 18.746094 0.324219 Z M 18.746094 0.324219 "/>
<path style="fill:none;stroke-width:2;stroke-linecap:butt;stroke-linejoin:miter;stroke:rgb(0%,0%,0%);stroke-opacity:1;stroke-miterlimit:4;" d="M 0.990625 1007.354406 C 0.990625 999.611437 3.042634 992.014562 6.934375 985.367296 L 278.931696 514.141906 C 291.102232 493.104406 317.990625 485.872765 339.076786 498.071593 C 345.728125 501.870031 351.31808 507.421593 355.139062 514.141906 L 627.207143 985.367296 C 631.098884 992.014562 633.150893 999.611437 633.150893 1007.354406 C 633.150893 1031.679015 613.409152 1051.328624 589.138839 1051.328624 L 45.002679 1051.328624 C 20.732366 1051.328624 0.990625 1031.679015 0.990625 1007.354406 Z M 0.990625 1007.354406 " transform="matrix(0.055205,0,0,0.0534759,0,-26.263751)"/>
<path style=" stroke:none;fill-rule:nonzero;fill:rgb(100%,0%,0%);fill-opacity:1;" d="M 17.460938 0.535156 C 16.808594 0.550781 16.179688 0.882812 15.828125 1.46875 L 0.8125 26.667969 C 0.277344 27.566406 0.59375 28.710938 1.519531 29.226562 C 1.8125 29.390625 2.144531 29.476562 2.484375 29.476562 L 32.523438 29.476562 C 32.863281 29.476562 33.195312 29.390625 33.488281 29.226562 C 34.414062 28.710938 34.730469 27.566406 34.195312 26.667969 L 19.175781 1.46875 C 19.007812 1.1875 18.761719 0.949219 18.46875 0.785156 C 18.152344 0.609375 17.804688 0.527344 17.460938 0.535156 Z M 17.464844 3.757812 C 17.570312 3.75 17.679688 3.773438 17.78125 3.828125 C 17.863281 3.875 17.933594 3.941406 17.980469 4.023438 L 31.316406 26.398438 C 31.46875 26.652344 31.378906 26.980469 31.113281 27.128906 C 31.03125 27.175781 30.9375 27.199219 30.839844 27.199219 L 4.167969 27.199219 C 3.863281 27.199219 3.617188 26.960938 3.617188 26.664062 C 3.617188 26.570312 3.640625 26.476562 3.691406 26.398438 L 17.027344 4.023438 C 17.121094 3.863281 17.289062 3.769531 17.464844 3.757812 Z M 17.464844 3.757812 "/>
<path style=" stroke:none;fill-rule:evenodd;fill:rgb(0%,0%,0%);fill-opacity:1;" d="M 16.058594 22.890625 C 15.824219 23.019531 15.53125 22.945312 15.394531 22.71875 C 15.261719 22.496094 15.339844 22.207031 15.574219 22.078125 L 16.875 21.351562 L 16.875 18.828125 L 14.617188 20.089844 L 14.617188 21.546875 C 14.617188 21.804688 14.402344 22.015625 14.136719 22.015625 C 13.867188 22.015625 13.652344 21.804688 13.652344 21.546875 L 13.652344 20.632812 L 13.082031 20.949219 C 12.78125 21.117188 12.394531 21.019531 12.222656 20.726562 C 12.046875 20.4375 12.152344 20.0625 12.453125 19.894531 L 13.019531 19.574219 L 12.203125 19.117188 C 11.972656 18.988281 11.894531 18.703125 12.027344 18.476562 C 12.160156 18.253906 12.457031 18.175781 12.6875 18.304688 L 13.988281 19.035156 L 16.246094 17.773438 L 13.988281 16.511719 L 12.6875 17.238281 C 12.457031 17.367188 12.160156 17.292969 12.027344 17.066406 C 11.894531 16.84375 11.972656 16.558594 12.203125 16.425781 L 13.019531 15.96875 L 12.453125 15.652344 C 12.152344 15.484375 12.046875 15.109375 12.222656 14.820312 C 12.394531 14.527344 12.78125 14.425781 13.082031 14.59375 L 13.652344 14.914062 L 13.652344 14 C 13.652344 13.742188 13.867188 13.53125 14.136719 13.53125 C 14.402344 13.53125 14.617188 13.742188 14.617188 14 L 14.617188 15.457031 L 16.875 16.71875 L 16.875 14.195312 L 15.574219 13.464844 C 15.339844 13.335938 15.261719 13.050781 15.394531 12.824219 C 15.53125 12.601562 15.824219 12.523438 16.058594 12.65625 L 16.875 13.113281 L 16.875 12.472656 C 16.875 12.136719 17.15625 11.863281 17.503906 11.863281 C 17.851562 11.863281 18.132812 12.136719 18.132812 12.472656 L 18.132812 13.113281 L 18.949219 12.65625 C 19.183594 12.523438 19.476562 12.601562 19.613281 12.824219 C 19.746094 13.050781 19.664062 13.335938 19.433594 13.464844 L 18.132812 14.195312 L 18.132812 16.71875 L 20.386719 15.457031 L 20.386719 14 C 20.386719 13.742188 20.605469 13.53125 20.871094 13.53125 C 21.140625 13.53125 21.355469 13.742188 21.355469 14 L 21.355469 14.914062 L 21.925781 14.59375 C 22.226562 14.425781 22.613281 14.527344 22.785156 14.820312 C 22.960938 15.109375 22.855469 15.484375 22.554688 15.652344 L 21.984375 15.96875 L 22.804688 16.425781 C 23.035156 16.558594 23.113281 16.84375 22.980469 17.066406 C 22.847656 17.292969 22.550781 17.367188 22.320312 17.238281 L 21.019531 16.511719 L 18.761719 17.773438 L 21.019531 19.035156 L 22.320312 18.304688 C 22.550781 18.175781 22.847656 18.253906 22.980469 18.476562 C 23.113281 18.703125 23.035156 18.988281 22.804688 19.117188 L 21.984375 19.574219 L 22.554688 19.894531 C 22.855469 20.0625 22.960938 20.4375 22.785156 20.726562 C 22.613281 21.019531 22.226562 21.117188 21.925781 20.949219 L 21.355469 20.632812 L 21.355469 21.546875 C 21.355469 21.804688 21.140625 22.015625 20.871094 22.015625 C 20.605469 22.015625 20.386719 21.804688 20.386719 21.546875 L 20.386719 20.089844 L 18.132812 18.828125 L 18.132812 21.351562 L 19.433594 22.078125 C 19.664062 22.207031 19.746094 22.496094 19.613281 22.71875 C 19.476562 22.945312 19.183594 23.019531 18.949219 22.890625 L 18.132812 22.433594 L 18.132812 23.070312 C 18.132812 23.410156 17.851562 23.679688 17.503906 23.679688 C 17.15625 23.679688 16.875 23.410156 16.875 23.070312 L 16.875 22.433594 Z M 16.058594 22.890625 "/>
</g>
</svg>
