<?xml version="1.0" encoding="UTF-8"?>
<svg xmlns="http://www.w3.org/2000/svg" xmlns:xlink="http://www.w3.org/1999/xlink" width="35px" height="35px" viewBox="0 0 35 30" version="1.1">
<g id="surface1">
<path style=" stroke:none;fill-rule:nonzero;fill:rgb(100%,80%,0%);fill-opacity:1;" d="M 18.746094 0.324219 C 17.558594 -0.339844 16.039062 0.0546875 15.351562 1.203125 L 0.332031 26.402344 C -0.351562 27.554688 0.0546875 29.023438 1.242188 29.691406 C 1.621094 29.902344 2.046875 30.011719 2.484375 30.011719 L 32.523438 30.011719 C 32.957031 30.011719 33.386719 29.902344 33.765625 29.691406 C 34.953125 29.023438 35.359375 27.554688 34.675781 26.402344 L 19.65625 1.203125 C 19.4375 0.839844 19.125 0.535156 18.746094 0.324219 Z M 18.746094 0.324219 "/>
<path style="fill:none;stroke-width:2;stroke-linecap:butt;stroke-linejoin:miter;stroke:rgb(0%,0%,0%);stroke-opacity:1;stroke-miterlimit:4;" d="M 0.990625 1007.354406 C 0.990625 999.611437 3.042634 992.014562 6.934375 985.367296 L 278.931696 514.141906 C 291.102232 493.104406 317.990625 485.872765 339.076786 498.071593 C 345.728125 501.870031 351.31808 507.421593 355.139062 514.141906 L 627.207143 985.367296 C 631.098884 992.014562 633.150893 999.611437 633.150893 1007.354406 C 633.150893 1031.679015 613.409152 1051.328624 589.138839 1051.328624 L 45.002679 1051.328624 C 20.732366 1051.328624 0.990625 1031.679015 0.990625 1007.354406 Z M 0.990625 1007.354406 " transform="matrix(0.055205,0,0,0.0534759,0,-26.263751)"/>
<path style=" stroke:none;fill-rule:nonzero;fill:rgb(100%,0%,0%);fill-opacity:1;" d="M 17.460938 0.535156 C 16.808594 0.550781 16.179688 0.882812 15.828125 1.46875 L 0.8125 26.667969 C 0.277344 27.566406 0.59375 28.710938 1.519531 29.226562 C 1.8125 29.390625 2.144531 29.476562 2.484375 29.476562 L 32.523438 29.476562 C 32.863281 29.476562 33.195312 29.390625 33.488281 29.226562 C 34.414062 28.710938 34.730469 27.566406 34.195312 26.667969 L 19.175781 1.46875 C 19.007812 1.1875 18.761719 0.949219 18.46875 0.785156 C 18.152344 0.609375 17.804688 0.527344 17.460938 0.535156 Z M 17.464844 3.757812 C 17.570312 3.75 17.679688 3.773438 17.78125 3.828125 C 17.863281 3.875 17.933594 3.941406 17.980469 4.023438 L 31.316406 26.398438 C 31.46875 26.652344 31.378906 26.980469 31.113281 27.128906 C 31.03125 27.175781 30.9375 27.199219 30.839844 27.199219 L 4.167969 27.199219 C 3.863281 27.199219 3.617188 26.960938 3.617188 26.664062 C 3.617188 26.570312 3.640625 26.476562 3.691406 26.398438 L 17.027344 4.023438 C 17.121094 3.863281 17.289062 3.769531 17.464844 3.757812 Z M 17.464844 3.757812 "/>
<path style=" stroke:none;fill-rule:nonzero;fill:rgb(0%,0%,0%);fill-opacity:1;" d="M 19.828125 14.773438 C 20.277344 14.773438 20.492188 15.152344 20.648438 15.195312 C 21.316406 15.367188 22.730469 15.230469 22.730469 16.039062 C 22.730469 16.589844 21.792969 17.839844 21.375 18.242188 C 20.710938 18.886719 20.261719 19.347656 20.261719 20.070312 C 20.261719 20.449219 20.324219 21.253906 20.503906 21.429688 C 20.601562 21.527344 21.617188 21.570312 22.101562 21.570312 C 22.050781 21.519531 21.8125 21.246094 21.8125 21.054688 C 21.8125 20.949219 21.84375 20.914062 21.910156 20.914062 C 22.058594 20.914062 22.214844 21.382812 22.539062 21.382812 C 22.722656 21.382812 22.773438 20.964844 22.851562 20.679688 C 22.96875 20.257812 23.058594 19.976562 23.3125 19.976562 C 23.371094 19.984375 23.40625 20.03125 23.410156 20.09375 C 23.410156 20.195312 23.273438 20.246094 23.191406 20.539062 C 23.125 20.789062 23.101562 21.148438 23.167969 21.148438 C 23.367188 21.148438 23.40625 20.445312 23.894531 20.445312 C 24.003906 20.445312 24.085938 20.488281 24.085938 20.5625 C 24.085938 20.6875 23.945312 20.617188 23.734375 20.820312 C 23.46875 21.078125 23.589844 21.660156 23.046875 22.183594 C 22.59375 22.625 20.300781 22.742188 20.261719 22.742188 C 19.550781 22.742188 19.40625 22.242188 19.078125 21.054688 C 18.589844 21.527344 18.042969 21.875 17.40625 22.039062 C 18.609375 22.710938 18.59375 23.019531 18.59375 23.6875 C 19.226562 23.6875 19.464844 23.664062 19.464844 23.847656 C 19.464844 24.089844 18.691406 23.839844 18.691406 24.152344 C 18.691406 24.253906 19.316406 24.152344 20.214844 24.386719 C 20.617188 24.488281 21.8125 24.886719 21.8125 25.113281 C 21.8125 25.1875 21.777344 25.230469 21.667969 25.230469 C 21.503906 25.230469 20.394531 24.574219 19.054688 24.574219 C 18.617188 24.574219 18.542969 24.609375 18.542969 24.761719 C 18.542969 24.988281 19.125 25.226562 19.125 25.417969 C 19.125 25.492188 19.082031 25.535156 19.003906 25.535156 C 18.929688 25.535156 18.960938 25.488281 18.328125 25.136719 C 17.953125 24.925781 17.089844 24.597656 16.535156 24.597656 L 14.09375 24.597656 C 13.441406 24.597656 12.820312 24.089844 12.664062 23.964844 L 11.695312 23.1875 C 11.363281 22.925781 11.203125 22.789062 11.210938 22.507812 C 11.210938 21.804688 11.695312 22.019531 11.695312 21.617188 C 11.691406 21.3125 10.824219 21.902344 10.824219 20.820312 C 10.824219 20.191406 12.339844 19.117188 12.664062 18.804688 C 12.730469 18.738281 13.125 17.761719 13.65625 17.46875 C 14.507812 16.988281 14.882812 17.335938 15.542969 17.164062 C 15.796875 17.097656 16.554688 16.585938 17.503906 16.109375 C 18.226562 15.746094 19.039062 15.441406 19.101562 15.382812 C 19.171875 15.3125 19.214844 14.773438 19.828125 14.773438 Z M 19.828125 14.773438 "/>
</g>
</svg>
