<?xml version="1.0" encoding="UTF-8"?>
<svg xmlns="http://www.w3.org/2000/svg" xmlns:xlink="http://www.w3.org/1999/xlink" width="35px" height="35px" viewBox="0 0 35 52" version="1.1">
<g id="surface1">
<path style=" stroke:none;fill-rule:nonzero;fill:rgb(100%,100%,100%);fill-opacity:1;" d="M 1.75 0 L 33.25 0 C 34.214844 0 35 0.777344 35 1.734375 L 35 50.265625 C 35 51.222656 34.214844 52 33.25 52 L 1.75 52 C 0.785156 52 0 51.222656 0 50.265625 L 0 1.734375 C 0 0.777344 0.785156 0 1.75 0 Z M 1.75 0 "/>
<path style="fill-rule:nonzero;fill:rgb(100%,80%,0%);fill-opacity:1;stroke-width:8;stroke-linecap:butt;stroke-linejoin:miter;stroke:rgb(0%,0%,0%);stroke-opacity:1;stroke-miterlimit:4;" d="M 45 19.978215 C 31.138393 19.978215 19.988839 31.133564 19.988839 45.027043 L 19.988839 1304.972957 C 19.988839 1318.866436 31.138393 1330.021785 45 1330.021785 L 855 1330.021785 C 868.861607 1330.021785 880.011161 1318.866436 880.011161 1304.972957 L 880.011161 45.027043 C 880.011161 31.133564 868.861607 19.978215 855 19.978215 Z M 45 19.978215 " transform="matrix(0.0388889,0,0,0.0385185,0,0)"/>
<path style="fill:none;stroke-width:2;stroke-linecap:butt;stroke-linejoin:miter;stroke:rgb(0%,0%,0%);stroke-opacity:1;stroke-miterlimit:4;" d="M 45 -296.623697 L 855 -296.623697 C 879.308036 -296.623697 898.995536 -276.949719 898.995536 -252.610777 L 898.995536 1007.335137 C 898.995536 1031.674079 879.308036 1051.348057 855 1051.348057 L 45 1051.348057 C 20.691964 1051.348057 1.004464 1031.674079 1.004464 1007.335137 L 1.004464 -252.610777 C 1.004464 -276.949719 20.691964 -296.623697 45 -296.623697 Z M 45 -296.623697 " transform="matrix(0.0388889,0,0,0.0385185,0,11.464568)"/>
<path style=" stroke:none;fill-rule:nonzero;fill:rgb(0%,0%,0%);fill-opacity:1;" d="M 5.851562 3.886719 L 7.386719 3.886719 C 7.652344 3.886719 7.878906 3.929688 8.074219 4.015625 C 8.277344 4.09375 8.425781 4.203125 8.523438 4.335938 C 8.625 4.46875 8.699219 4.605469 8.742188 4.738281 C 8.785156 4.867188 8.804688 4.996094 8.804688 5.125 C 8.804688 5.414062 8.726562 5.660156 8.5625 5.863281 C 8.40625 6.066406 8.203125 6.214844 7.953125 6.304688 C 8.121094 6.34375 8.277344 6.464844 8.425781 6.675781 C 8.570312 6.878906 8.6875 7.097656 8.773438 7.328125 C 8.867188 7.558594 8.96875 7.78125 9.082031 7.992188 C 9.199219 8.207031 9.316406 8.339844 9.429688 8.386719 L 8.464844 8.386719 C 8.398438 8.300781 8.308594 8.121094 8.1875 7.839844 C 8.070312 7.5625 7.984375 7.371094 7.929688 7.269531 C 7.917969 7.253906 7.90625 7.226562 7.886719 7.191406 C 7.835938 7.082031 7.789062 7.003906 7.75 6.949219 C 7.71875 6.894531 7.671875 6.835938 7.613281 6.773438 C 7.554688 6.703125 7.480469 6.652344 7.394531 6.628906 C 7.3125 6.601562 7.214844 6.585938 7.101562 6.585938 L 6.648438 6.585938 L 6.648438 8.386719 L 5.851562 8.386719 Z M 6.648438 4.5625 L 6.648438 5.910156 L 7.15625 5.910156 C 7.40625 5.910156 7.609375 5.855469 7.765625 5.742188 C 7.929688 5.628906 8.011719 5.460938 8.011719 5.234375 C 8.011719 5.011719 7.929688 4.84375 7.765625 4.730469 C 7.609375 4.617188 7.40625 4.5625 7.15625 4.5625 Z M 6.648438 4.5625 "/>
<path style=" stroke:none;fill-rule:nonzero;fill:rgb(0%,0%,0%);fill-opacity:1;" d="M 11.980469 6.8125 L 13.117188 6.8125 L 12.550781 4.898438 Z M 12.09375 3.886719 L 13.003906 3.886719 L 14.480469 8.386719 L 13.628906 8.386719 L 13.34375 7.488281 L 11.753906 7.488281 L 11.46875 8.386719 L 10.617188 8.386719 Z M 12.09375 3.886719 "/>
<path style=" stroke:none;fill-rule:nonzero;fill:rgb(0%,0%,0%);fill-opacity:1;" d="M 17.316406 3.886719 C 17.929688 3.886719 18.40625 4.09375 18.753906 4.511719 C 19.105469 4.929688 19.28125 5.472656 19.28125 6.136719 C 19.28125 6.800781 19.105469 7.34375 18.753906 7.761719 C 18.40625 8.179688 17.929688 8.386719 17.316406 8.386719 L 15.78125 8.386719 L 15.78125 3.886719 Z M 17.257812 4.5625 L 16.578125 4.5625 L 16.578125 7.710938 L 17.257812 7.710938 C 17.59375 7.710938 17.875 7.578125 18.105469 7.308594 C 18.335938 7.035156 18.453125 6.644531 18.453125 6.136719 C 18.453125 5.628906 18.335938 5.238281 18.105469 4.972656 C 17.875 4.699219 17.59375 4.5625 17.257812 4.5625 Z M 17.257812 4.5625 "/>
<path style=" stroke:none;fill-rule:nonzero;fill:rgb(0%,0%,0%);fill-opacity:1;" d="M 21.746094 6.8125 L 22.882812 6.8125 L 22.316406 4.898438 Z M 21.859375 3.886719 L 22.769531 3.886719 L 24.246094 8.386719 L 23.394531 8.386719 L 23.109375 7.488281 L 21.519531 7.488281 L 21.234375 8.386719 L 20.382812 8.386719 Z M 21.859375 3.886719 "/>
<path style=" stroke:none;fill-rule:nonzero;fill:rgb(0%,0%,0%);fill-opacity:1;" d="M 25.605469 3.886719 L 27.140625 3.886719 C 27.402344 3.886719 27.632812 3.929688 27.828125 4.015625 C 28.027344 4.09375 28.179688 4.203125 28.277344 4.335938 C 28.378906 4.46875 28.453125 4.605469 28.496094 4.738281 C 28.539062 4.867188 28.558594 4.996094 28.558594 5.125 C 28.558594 5.414062 28.476562 5.660156 28.316406 5.863281 C 28.160156 6.066406 27.957031 6.214844 27.707031 6.304688 C 27.875 6.34375 28.03125 6.464844 28.179688 6.675781 C 28.324219 6.878906 28.441406 7.097656 28.527344 7.328125 C 28.617188 7.558594 28.722656 7.78125 28.835938 7.992188 C 28.953125 8.207031 29.070312 8.339844 29.183594 8.386719 L 28.21875 8.386719 C 28.152344 8.300781 28.0625 8.121094 27.941406 7.839844 C 27.824219 7.5625 27.738281 7.371094 27.683594 7.269531 C 27.671875 7.253906 27.660156 7.226562 27.640625 7.191406 C 27.589844 7.082031 27.542969 7.003906 27.503906 6.949219 C 27.472656 6.894531 27.425781 6.835938 27.367188 6.773438 C 27.308594 6.703125 27.234375 6.652344 27.148438 6.628906 C 27.066406 6.601562 26.96875 6.585938 26.855469 6.585938 L 26.402344 6.585938 L 26.402344 8.386719 L 25.605469 8.386719 Z M 26.402344 4.5625 L 26.402344 5.910156 L 26.910156 5.910156 C 27.160156 5.910156 27.363281 5.855469 27.519531 5.742188 C 27.683594 5.628906 27.765625 5.460938 27.765625 5.234375 C 27.765625 5.011719 27.683594 4.84375 27.519531 4.730469 C 27.363281 4.617188 27.160156 4.5625 26.910156 4.5625 Z M 26.402344 4.5625 "/>
<path style=" stroke:none;fill-rule:nonzero;fill:rgb(0%,0%,0%);fill-opacity:1;" d="M 5.414062 45.515625 C 4.84375 45.566406 4.496094 46.082031 4.214844 46.511719 C 4.066406 46.703125 3.898438 46.945312 3.632812 46.964844 C 3.632812 46.511719 3.632812 46.058594 3.632812 45.605469 C 3.367188 45.605469 3.101562 45.605469 2.839844 45.605469 C 2.839844 46.859375 2.839844 48.113281 2.839844 49.371094 C 3.101562 49.371094 3.367188 49.371094 3.632812 49.371094 C 3.632812 48.816406 3.632812 48.265625 3.632812 47.714844 C 3.902344 47.632812 4.167969 47.773438 4.289062 48.007812 C 4.546875 48.464844 4.828125 48.910156 5.082031 49.371094 C 5.4375 49.371094 5.792969 49.371094 6.148438 49.371094 C 5.476562 48.917969 5.308594 48.058594 4.796875 47.46875 C 4.710938 47.390625 4.613281 47.316406 4.511719 47.273438 C 4.824219 47.011719 4.992188 46.613281 5.304688 46.359375 C 5.40625 46.292969 5.539062 46.300781 5.65625 46.296875 C 5.597656 46.035156 5.542969 45.769531 5.484375 45.503906 L 5.445312 45.511719 Z M 23.011719 45.515625 C 22.460938 45.503906 21.949219 45.84375 21.730469 46.339844 C 21.425781 47.003906 21.417969 47.792969 21.660156 48.472656 C 21.839844 48.992188 22.308594 49.417969 22.875 49.453125 C 23.425781 49.523438 24.019531 49.28125 24.289062 48.789062 C 24.679688 48.128906 24.703125 47.300781 24.480469 46.582031 C 24.308594 46.054688 23.867188 45.574219 23.28125 45.527344 C 23.191406 45.515625 23.101562 45.511719 23.011719 45.515625 Z M 7.765625 45.65625 C 7.359375 46.894531 6.953125 48.132812 6.546875 49.371094 C 6.828125 49.371094 7.113281 49.371094 7.394531 49.371094 C 7.46875 49.128906 7.546875 48.886719 7.621094 48.648438 C 8.011719 48.648438 8.398438 48.648438 8.785156 48.648438 C 8.859375 48.886719 8.9375 49.128906 9.011719 49.371094 C 9.296875 49.371094 9.578125 49.371094 9.859375 49.371094 C 9.449219 48.113281 9.035156 46.859375 8.625 45.605469 C 8.34375 45.605469 8.0625 45.605469 7.78125 45.605469 L 7.769531 45.640625 Z M 10.71875 45.679688 C 10.71875 46.910156 10.71875 48.140625 10.71875 49.371094 C 10.984375 49.371094 11.25 49.371094 11.511719 49.371094 C 11.511719 48.828125 11.511719 48.285156 11.511719 47.746094 C 11.917969 47.746094 12.320312 47.746094 12.722656 47.746094 C 12.722656 48.285156 12.722656 48.828125 12.722656 49.371094 C 12.988281 49.371094 13.253906 49.371094 13.519531 49.371094 C 13.519531 48.113281 13.519531 46.859375 13.519531 45.605469 C 13.253906 45.605469 12.988281 45.605469 12.722656 45.605469 C 12.722656 46.085938 12.722656 46.566406 12.722656 47.046875 C 12.320312 47.046875 11.917969 47.046875 11.511719 47.046875 C 11.511719 46.566406 11.511719 46.085938 11.511719 45.605469 C 11.25 45.605469 10.984375 45.605469 10.71875 45.605469 Z M 14.363281 45.679688 C 14.410156 45.867188 14.269531 46.238281 14.441406 46.300781 C 14.75 46.300781 15.058594 46.300781 15.367188 46.300781 C 15.367188 47.324219 15.367188 48.347656 15.367188 49.371094 C 15.632812 49.371094 15.898438 49.371094 16.160156 49.371094 C 16.160156 48.347656 16.160156 47.324219 16.160156 46.300781 C 16.496094 46.300781 16.828125 46.300781 17.164062 46.300781 C 17.164062 46.066406 17.164062 45.835938 17.164062 45.605469 C 16.230469 45.605469 15.296875 45.605469 14.363281 45.605469 Z M 18.007812 45.679688 C 18.007812 46.910156 18.007812 48.140625 18.007812 49.371094 C 18.269531 49.371094 18.535156 49.371094 18.800781 49.371094 C 18.800781 48.949219 18.800781 48.527344 18.800781 48.105469 C 19.273438 48.121094 19.820312 48.148438 20.183594 47.789062 C 20.785156 47.261719 20.6875 46.148438 19.964844 45.765625 C 19.472656 45.484375 18.878906 45.648438 18.34375 45.605469 C 18.246094 45.636719 17.976562 45.527344 18.007812 45.679688 Z M 25.984375 45.679688 C 25.96875 46.507812 26.015625 47.34375 25.925781 48.167969 C 25.835938 48.472656 25.527344 48.648438 25.234375 48.722656 C 25.277344 48.96875 25.320312 49.21875 25.363281 49.46875 C 25.777344 49.441406 26.179688 49.207031 26.429688 48.878906 C 26.859375 48.277344 26.738281 47.5 26.777344 46.804688 C 26.835938 46.652344 26.65625 46.269531 26.894531 46.300781 C 27.140625 46.300781 27.382812 46.300781 27.628906 46.300781 C 27.628906 47.324219 27.628906 48.347656 27.628906 49.371094 C 27.890625 49.371094 28.15625 49.371094 28.421875 49.371094 C 28.421875 48.113281 28.421875 46.859375 28.421875 45.605469 C 27.609375 45.605469 26.796875 45.605469 25.988281 45.605469 L 25.984375 45.640625 Z M 29.453125 45.679688 C 29.453125 46.910156 29.453125 48.140625 29.453125 49.371094 C 30.039062 49.339844 30.632812 49.425781 31.214844 49.332031 C 32.027344 49.175781 32.4375 48.085938 31.949219 47.429688 C 31.648438 46.984375 31.035156 46.984375 30.554688 47.003906 C 30.207031 47.105469 30.222656 46.847656 30.246094 46.578125 C 30.246094 46.253906 30.246094 45.929688 30.246094 45.605469 C 29.980469 45.605469 29.71875 45.605469 29.453125 45.605469 Z M 23.078125 46.253906 C 23.558594 46.269531 23.796875 46.800781 23.832031 47.210938 C 23.878906 47.71875 23.828125 48.375 23.332031 48.660156 C 22.980469 48.835938 22.554688 48.613281 22.417969 48.265625 C 22.207031 47.757812 22.203125 47.136719 22.457031 46.640625 C 22.578125 46.414062 22.808594 46.238281 23.078125 46.253906 Z M 19.132812 46.300781 C 19.492188 46.273438 19.875 46.570312 19.777344 46.957031 C 19.726562 47.390625 19.207031 47.445312 18.859375 47.410156 C 18.722656 47.308594 18.839844 46.953125 18.800781 46.753906 C 18.800781 46.515625 18.714844 46.1875 19.074219 46.300781 Z M 8.554688 47.953125 C 8.320312 47.953125 8.085938 47.953125 7.851562 47.953125 C 7.96875 47.554688 8.085938 47.160156 8.203125 46.765625 C 8.320312 47.160156 8.4375 47.554688 8.554688 47.953125 Z M 30.804688 47.699219 C 31.152344 47.660156 31.445312 47.984375 31.359375 48.324219 C 31.304688 48.707031 30.828125 48.6875 30.535156 48.671875 C 30.1875 48.78125 30.234375 48.5 30.246094 48.25 C 30.304688 48.074219 30.101562 47.636719 30.402344 47.699219 C 30.535156 47.699219 30.671875 47.699219 30.804688 47.699219 Z M 30.804688 47.699219 "/>
<path style=" stroke:none;fill-rule:nonzero;fill:rgb(0%,0%,0%);fill-opacity:1;" d="M 15.953125 39.726562 C 15.398438 39.714844 14.875 40.0625 14.65625 40.566406 C 14.347656 41.238281 14.339844 42.039062 14.585938 42.730469 C 14.769531 43.257812 15.242188 43.691406 15.816406 43.722656 C 16.359375 43.792969 16.953125 43.570312 17.230469 43.082031 C 17.644531 42.425781 17.671875 41.585938 17.460938 40.855469 C 17.296875 40.316406 16.867188 39.8125 16.273438 39.746094 C 16.167969 39.730469 16.0625 39.726562 15.953125 39.726562 Z M 11.34375 39.894531 C 11.308594 40.011719 11.4375 40.277344 11.238281 40.238281 C 10.511719 40.257812 9.820312 40.839844 9.773438 41.578125 C 9.699219 42.308594 10.28125 43.011719 11.011719 43.101562 C 11.121094 43.121094 11.234375 43.132812 11.34375 43.136719 C 11.386719 43.324219 11.214844 43.730469 11.539062 43.640625 C 11.726562 43.585938 12.148438 43.765625 12.148438 43.527344 C 12.195312 43.402344 12.039062 43.089844 12.261719 43.128906 C 12.882812 43.113281 13.488281 42.710938 13.664062 42.105469 C 13.882812 41.449219 13.523438 40.6875 12.894531 40.398438 C 12.664062 40.289062 12.40625 40.238281 12.148438 40.234375 C 12.175781 39.964844 12.179688 39.71875 11.835938 39.820312 C 11.699219 39.859375 11.351562 39.730469 11.34375 39.894531 Z M 18.285156 39.894531 C 18.328125 40.085938 18.1875 40.460938 18.363281 40.523438 C 18.675781 40.523438 18.988281 40.523438 19.300781 40.523438 C 19.300781 41.5625 19.300781 42.601562 19.300781 43.640625 C 19.570312 43.640625 19.839844 43.640625 20.105469 43.640625 C 20.105469 42.601562 20.105469 41.5625 20.105469 40.523438 C 20.445312 40.523438 20.785156 40.523438 21.125 40.523438 C 21.125 40.289062 21.125 40.054688 21.125 39.820312 C 20.175781 39.820312 19.230469 39.820312 18.285156 39.820312 Z M 23.050781 39.871094 C 22.640625 41.128906 22.226562 42.382812 21.8125 43.640625 C 22.101562 43.640625 22.386719 43.640625 22.671875 43.640625 C 22.75 43.394531 22.828125 43.152344 22.90625 42.90625 C 23.296875 42.90625 23.691406 42.90625 24.085938 42.90625 C 24.164062 43.152344 24.242188 43.394531 24.316406 43.640625 C 24.605469 43.640625 24.890625 43.640625 25.175781 43.640625 C 24.757812 42.367188 24.339844 41.09375 23.921875 39.820312 C 23.636719 39.820312 23.351562 39.820312 23.070312 39.820312 L 23.058594 39.855469 Z M 16 40.476562 C 16.503906 40.472656 16.757812 41.023438 16.789062 41.449219 C 16.835938 41.96875 16.785156 42.632812 16.28125 42.921875 C 15.933594 43.097656 15.507812 42.886719 15.363281 42.542969 C 15.136719 42.039062 15.136719 41.417969 15.367188 40.914062 C 15.484375 40.671875 15.714844 40.46875 16 40.476562 Z M 11.34375 42.476562 C 10.871094 42.480469 10.4375 42.035156 10.539062 41.558594 C 10.582031 41.171875 10.96875 40.898438 11.34375 40.890625 C 11.34375 41.421875 11.34375 41.949219 11.34375 42.476562 Z M 12.167969 40.894531 C 12.65625 40.902344 13.085938 41.386719 12.945312 41.871094 C 12.871094 42.226562 12.507812 42.46875 12.148438 42.476562 C 12.160156 41.949219 12.125 41.417969 12.167969 40.894531 Z M 23.855469 42.203125 C 23.613281 42.203125 23.375 42.203125 23.136719 42.203125 C 23.257812 41.800781 23.375 41.398438 23.496094 40.992188 C 23.617188 41.398438 23.734375 41.800781 23.855469 42.203125 Z M 23.855469 42.203125 "/>
<path style=" stroke:none;fill-rule:nonzero;fill:rgb(0%,0%,0%);fill-opacity:1;" d="M 23.429688 19.8125 C 20.050781 19.8125 17.3125 22.523438 17.3125 25.871094 C 17.3125 29.21875 20.050781 31.929688 23.429688 31.929688 C 26.808594 31.929688 29.546875 29.21875 29.546875 25.871094 C 29.546875 22.523438 26.808594 19.8125 23.429688 19.8125 Z M 23.429688 21.023438 C 26.132812 21.023438 28.324219 23.191406 28.324219 25.871094 C 28.324219 28.546875 26.132812 30.71875 23.429688 30.71875 C 20.726562 30.71875 18.535156 28.546875 18.535156 25.871094 C 18.535156 23.191406 20.726562 21.023438 23.429688 21.023438 Z M 23.429688 21.023438 "/>
<path style=" stroke:none;fill-rule:nonzero;fill:rgb(0%,0%,0%);fill-opacity:1;" d="M 23.429688 21.78125 C 21.148438 21.78125 19.300781 23.613281 19.300781 25.871094 C 19.300781 28.128906 21.148438 29.960938 23.429688 29.960938 C 25.710938 29.960938 27.558594 28.128906 27.558594 25.871094 C 27.558594 23.613281 25.710938 21.78125 23.429688 21.78125 Z M 23.429688 22.917969 C 25.078125 22.917969 26.414062 24.238281 26.414062 25.871094 C 26.414062 27.5 25.078125 28.824219 23.429688 28.824219 C 21.78125 28.824219 20.449219 27.5 20.449219 25.871094 C 20.449219 24.238281 21.78125 22.917969 23.429688 22.917969 Z M 23.429688 22.917969 "/>
<path style=" stroke:none;fill-rule:nonzero;fill:rgb(0%,0%,0%);fill-opacity:1;" d="M 28.214844 13.617188 C 28.109375 13.617188 28.027344 13.703125 28.027344 13.808594 L 28.027344 16.363281 L 25.777344 16.378906 C 25.675781 16.378906 25.589844 16.464844 25.589844 16.566406 C 25.589844 16.644531 25.636719 16.707031 25.699219 16.738281 L 25.699219 16.742188 C 25.703125 16.742188 25.707031 16.742188 25.707031 16.742188 L 27.550781 17.578125 L 26.203125 18.90625 C 26.203125 18.910156 26.203125 18.910156 26.199219 18.914062 L 25.800781 18.652344 L 25.800781 17.460938 L 23.277344 17.460938 L 23.277344 18.867188 C 21.710938 18.898438 20.269531 19.4375 19.113281 20.320312 L 6.070312 20.265625 C 5.140625 20.261719 4.386719 21.011719 4.386719 21.933594 L 4.386719 32.15625 C 4.386719 32.742188 4.867188 33.21875 5.457031 33.21875 L 29.011719 33.21875 C 29.941406 33.21875 30.695312 32.472656 30.695312 31.550781 L 30.695312 21.882812 L 28.867188 20.675781 C 28.867188 20.671875 28.871094 20.667969 28.875 20.664062 L 29.925781 18.917969 L 31.71875 19.945312 C 31.75 19.964844 31.789062 19.976562 31.828125 19.976562 C 31.933594 19.976562 32.019531 19.890625 32.019531 19.789062 C 32.019531 19.761719 32.011719 19.738281 32.003906 19.714844 L 31.417969 18.269531 L 32.707031 17.699219 C 32.777344 17.671875 32.824219 17.601562 32.824219 17.523438 C 32.824219 17.4375 32.761719 17.363281 32.679688 17.34375 L 32.679688 17.339844 L 30.953125 16.914062 L 31.65625 15.53125 C 31.675781 15.5 31.6875 15.464844 31.6875 15.425781 C 31.6875 15.320312 31.601562 15.234375 31.496094 15.234375 C 31.472656 15.234375 31.445312 15.242188 31.421875 15.253906 L 31.421875 15.25 L 29.613281 15.992188 L 28.390625 13.734375 C 28.386719 13.730469 28.386719 13.722656 28.382812 13.71875 C 28.347656 13.660156 28.289062 13.617188 28.214844 13.617188 Z M 28.40625 14.566406 L 29.351562 16.304688 C 29.378906 16.375 29.449219 16.421875 29.527344 16.421875 C 29.554688 16.421875 29.578125 16.417969 29.601562 16.40625 L 31.09375 15.792969 L 30.507812 16.953125 C 30.492188 16.980469 30.488281 17.007812 30.488281 17.039062 C 30.488281 17.128906 30.554688 17.207031 30.640625 17.226562 L 32.050781 17.578125 L 31.089844 17.996094 L 31.089844 18 C 31.027344 18.03125 30.980469 18.09375 30.980469 18.171875 C 30.980469 18.203125 30.988281 18.234375 31 18.261719 L 31.441406 19.347656 L 29.964844 18.5 C 29.933594 18.480469 29.898438 18.46875 29.859375 18.46875 C 29.777344 18.46875 29.710938 18.515625 29.679688 18.582031 L 28.894531 19.886719 L 28.886719 18.65625 C 28.886719 18.554688 28.800781 18.46875 28.695312 18.46875 C 28.679688 18.46875 28.667969 18.46875 28.652344 18.472656 L 26.898438 18.757812 L 28.019531 17.65625 C 28.054688 17.621094 28.074219 17.570312 28.074219 17.519531 C 28.074219 17.441406 28.027344 17.378906 27.964844 17.347656 L 27.957031 17.347656 L 26.648438 16.753906 L 28.214844 16.742188 C 28.320312 16.742188 28.40625 16.660156 28.40625 16.554688 Z M 28.507812 18.878906 L 28.519531 20.441406 L 26.613281 19.1875 Z M 23.429688 19.242188 C 27.125 19.242188 30.121094 22.210938 30.121094 25.871094 C 30.121094 29.53125 27.125 32.5 23.429688 32.5 C 19.734375 32.5 16.738281 29.53125 16.738281 25.871094 C 16.738281 22.210938 19.734375 19.242188 23.429688 19.242188 Z M 8.289062 21.78125 C 9.511719 21.78125 10.507812 22.289062 10.507812 22.917969 C 10.507812 23.542969 9.511719 24.050781 8.289062 24.050781 C 7.0625 24.050781 6.070312 23.542969 6.070312 22.917969 C 6.070312 22.289062 7.0625 21.78125 8.289062 21.78125 Z M 8.289062 21.78125 "/>
<path style=" stroke:none;fill-rule:nonzero;fill:rgb(0%,0%,0%);fill-opacity:1;" d="M 25.648438 25.871094 C 25.648438 24.65625 24.65625 23.675781 23.429688 23.675781 C 22.207031 23.675781 21.210938 24.65625 21.210938 25.871094 C 21.210938 27.082031 22.207031 28.066406 23.429688 28.066406 C 24.65625 28.066406 25.648438 27.082031 25.648438 25.871094 Z M 25.648438 25.871094 "/>
<path style=" stroke:none;fill-rule:nonzero;fill:rgb(0%,0%,0%);fill-opacity:1;" d="M 9.894531 22.917969 C 9.894531 22.625 9.175781 22.386719 8.292969 22.386719 C 7.40625 22.386719 6.691406 22.625 6.691406 22.917969 C 6.691406 23.214844 7.40625 23.453125 8.292969 23.453125 C 9.175781 23.453125 9.894531 23.214844 9.894531 22.917969 Z M 9.894531 22.917969 "/>
</g>
</svg>
