<?xml version="1.0" encoding="UTF-8"?>
<svg xmlns="http://www.w3.org/2000/svg" xmlns:xlink="http://www.w3.org/1999/xlink" width="35px" height="35px" viewBox="0 0 35 30" version="1.1">
<g id="surface1">
<path style=" stroke:none;fill-rule:nonzero;fill:rgb(100%,100%,100%);fill-opacity:1;" d="M 0 28.179688 C 0 29.195312 0.84375 30.015625 1.886719 30.015625 L 33.117188 30.015625 C 34.160156 30.015625 35.003906 29.195312 35.003906 28.179688 C 35.003906 27.855469 34.917969 27.539062 34.75 27.257812 L 19.136719 0.917969 C 18.800781 0.351562 18.175781 0 17.503906 0 C 16.828125 0 16.203125 0.351562 15.867188 0.917969 L 0.253906 27.257812 C 0.0859375 27.539062 0 27.855469 0 28.179688 Z M 0 28.179688 "/>
<path style="fill:none;stroke-width:2;stroke-linecap:butt;stroke-linejoin:miter;stroke:rgb(0%,0%,0%);stroke-opacity:1;stroke-miterlimit:4;" d="M 1.023884 689.463021 C 1.023884 713.738542 20.663839 733.426562 44.957812 733.426562 L 789.135268 733.426562 C 813.429241 733.426562 833.162277 713.738542 833.162277 689.463021 C 833.162277 681.721615 831.114509 674.075781 827.205134 667.385677 L 455.162946 23.033073 C 447.344196 9.366146 432.823661 0.955729 417.09308 0.955729 C 401.3625 0.955729 386.841964 9.366146 378.930134 23.033073 L 6.887946 667.385677 C 3.071652 674.075781 1.023884 681.721615 1.023884 689.463021 Z M 1.023884 689.463021 " transform="matrix(0.0419664,0,0,0.0408719,0,0)"/>
<path style=" stroke:none;fill-rule:nonzero;fill:rgb(100%,0%,0%);fill-opacity:1;" d="M 0.417969 28.179688 C 0.417969 28.96875 1.078125 29.609375 1.886719 29.609375 L 33.117188 29.609375 C 33.925781 29.609375 34.585938 28.96875 34.585938 28.179688 C 34.585938 27.925781 34.515625 27.679688 34.386719 27.460938 L 18.773438 1.125 C 18.511719 0.679688 18.027344 0.410156 17.503906 0.410156 C 16.976562 0.410156 16.492188 0.679688 16.230469 1.125 L 0.617188 27.460938 C 0.488281 27.679688 0.417969 27.925781 0.417969 28.179688 Z M 3.929688 26.792969 C 3.929688 26.722656 3.949219 26.652344 3.984375 26.589844 L 17.140625 4.402344 C 17.214844 4.277344 17.351562 4.199219 17.503906 4.199219 C 17.652344 4.199219 17.789062 4.277344 17.867188 4.402344 L 31.019531 26.589844 C 31.054688 26.652344 31.074219 26.722656 31.074219 26.792969 C 31.074219 27.019531 30.886719 27.203125 30.65625 27.203125 L 4.347656 27.203125 C 4.117188 27.203125 3.929688 27.019531 3.929688 26.792969 Z M 3.929688 26.792969 "/>
<path style=" stroke:none;fill-rule:nonzero;fill:rgb(0%,0%,0%);fill-opacity:1;" d="M 11.722656 26.265625 C 12.109375 26.160156 12.492188 26.066406 12.878906 26.066406 C 13.265625 26.066406 13.648438 26.160156 14.035156 26.265625 C 14.421875 26.367188 14.804688 26.460938 15.191406 26.460938 C 15.574219 26.460938 15.960938 26.367188 16.347656 26.265625 C 16.730469 26.160156 17.117188 26.066406 17.503906 26.066406 C 17.886719 26.066406 18.273438 26.160156 18.660156 26.265625 C 19.042969 26.367188 19.429688 26.460938 19.8125 26.460938 C 20.199219 26.460938 20.585938 26.367188 20.96875 26.265625 C 21.355469 26.160156 21.742188 26.066406 22.125 26.066406 C 22.511719 26.066406 22.894531 26.160156 23.28125 26.265625 L 30.214844 26.265625 L 24.652344 16.882812 L 23.28125 16.882812 L 23.28125 22.980469 C 22.894531 22.878906 22.511719 22.785156 22.125 22.785156 C 21.742188 22.785156 21.355469 22.878906 20.96875 22.980469 C 20.585938 23.085938 20.199219 23.179688 19.8125 23.179688 C 19.429688 23.179688 19.042969 23.085938 18.660156 22.980469 C 18.273438 22.878906 17.886719 22.785156 17.503906 22.785156 C 17.117188 22.785156 16.730469 22.878906 16.347656 22.980469 C 15.960938 23.085938 15.574219 23.179688 15.191406 23.179688 C 14.804688 23.179688 14.421875 23.085938 14.035156 22.980469 C 13.648438 22.878906 13.265625 22.785156 12.878906 22.785156 C 12.492188 22.785156 12.109375 22.878906 11.722656 22.980469 L 11.722656 16.882812 L 10.351562 16.882812 L 4.789062 26.265625 Z M 11.722656 24.953125 C 12.109375 24.847656 12.492188 24.753906 12.878906 24.753906 C 13.265625 24.753906 13.648438 24.847656 14.035156 24.953125 C 14.421875 25.054688 14.804688 25.148438 15.191406 25.148438 C 15.574219 25.148438 15.960938 25.054688 16.347656 24.953125 C 16.730469 24.847656 17.117188 24.753906 17.503906 24.753906 C 17.886719 24.753906 18.273438 24.847656 18.660156 24.953125 C 19.042969 25.054688 19.429688 25.148438 19.8125 25.148438 C 20.199219 25.148438 20.585938 25.054688 20.96875 24.953125 C 21.355469 24.847656 21.742188 24.753906 22.125 24.753906 C 22.511719 24.753906 22.894531 24.847656 23.28125 24.953125 L 23.28125 25.609375 C 22.894531 25.503906 22.511719 25.410156 22.125 25.410156 C 21.742188 25.410156 21.355469 25.503906 20.96875 25.609375 C 20.585938 25.710938 20.199219 25.804688 19.8125 25.804688 C 19.429688 25.804688 19.042969 25.710938 18.660156 25.609375 C 18.273438 25.503906 17.886719 25.410156 17.503906 25.410156 C 17.117188 25.410156 16.730469 25.503906 16.347656 25.609375 C 15.960938 25.710938 15.574219 25.804688 15.191406 25.804688 C 14.804688 25.804688 14.421875 25.710938 14.035156 25.609375 C 13.648438 25.503906 13.265625 25.410156 12.878906 25.410156 C 12.492188 25.410156 12.109375 25.503906 11.722656 25.609375 Z M 11.722656 23.636719 C 12.109375 23.535156 12.492188 23.441406 12.878906 23.441406 C 13.265625 23.441406 13.648438 23.535156 14.035156 23.636719 C 14.421875 23.742188 14.804688 23.835938 15.191406 23.835938 C 15.574219 23.835938 15.960938 23.742188 16.347656 23.636719 C 16.730469 23.535156 17.117188 23.441406 17.503906 23.441406 C 17.886719 23.441406 18.273438 23.535156 18.660156 23.636719 C 19.042969 23.742188 19.429688 23.835938 19.8125 23.835938 C 20.199219 23.835938 20.585938 23.742188 20.96875 23.636719 C 21.355469 23.535156 21.742188 23.441406 22.125 23.441406 C 22.511719 23.441406 22.894531 23.535156 23.28125 23.636719 L 23.28125 24.296875 C 22.894531 24.191406 22.511719 24.097656 22.125 24.097656 C 21.742188 24.097656 21.355469 24.191406 20.96875 24.296875 C 20.585938 24.398438 20.199219 24.492188 19.8125 24.492188 C 19.429688 24.492188 19.042969 24.398438 18.660156 24.296875 C 18.273438 24.191406 17.886719 24.097656 17.503906 24.097656 C 17.117188 24.097656 16.730469 24.191406 16.347656 24.296875 C 15.960938 24.398438 15.574219 24.492188 15.191406 24.492188 C 14.804688 24.492188 14.421875 24.398438 14.035156 24.296875 C 13.648438 24.191406 13.265625 24.097656 12.878906 24.097656 C 12.492188 24.097656 12.109375 24.191406 11.722656 24.296875 Z M 11.722656 23.636719 "/>
<path style=" stroke:none;fill-rule:nonzero;fill:rgb(0%,0%,0%);fill-opacity:1;" d="M 11.722656 16.882812 L 12.949219 18.078125 L 20.542969 10.683594 L 19.316406 9.488281 Z M 11.722656 16.882812 "/>
</g>
</svg>
