<?xml version="1.0" encoding="UTF-8"?>
<svg xmlns="http://www.w3.org/2000/svg" xmlns:xlink="http://www.w3.org/1999/xlink" width="35px" height="35px" viewBox="0 0 35 35" version="1.1">
<g id="surface1">
<path style=" stroke:none;fill-rule:nonzero;fill:rgb(100%,100%,100%);fill-opacity:1;" d="M 16.324219 34.503906 C 16.636719 34.8125 17.054688 34.988281 17.492188 34.988281 C 17.933594 34.988281 18.351562 34.8125 18.664062 34.503906 L 34.503906 18.664062 C 34.8125 18.351562 34.988281 17.933594 34.988281 17.492188 C 34.988281 17.054688 34.8125 16.636719 34.503906 16.324219 L 18.664062 0.484375 C 18.351562 0.175781 17.933594 0 17.492188 0 C 17.054688 0 16.636719 0.175781 16.324219 0.484375 L 0.484375 16.324219 C 0.175781 16.636719 0 17.054688 0 17.492188 C 0 17.933594 0.175781 18.351562 0.484375 18.664062 Z M 16.324219 34.503906 "/>
<path style="fill:none;stroke-width:2;stroke-linecap:butt;stroke-linejoin:miter;stroke:rgb(0%,0%,0%);stroke-opacity:1;stroke-miterlimit:4;" d="M 368.674585 -348.969823 L 978.619686 -348.969823 C 1002.987406 -348.969823 1022.616959 -329.340271 1022.616959 -304.97255 L 1022.616959 304.97255 C 1022.616959 329.340271 1002.987406 348.969823 978.619686 348.969823 L 368.674585 348.969823 C 344.306865 348.969823 324.677312 329.340271 324.677312 304.97255 L 324.677312 -304.97255 C 324.677312 -329.340271 344.306865 -348.969823 368.674585 -348.969823 Z M 368.674585 -348.969823 " transform="matrix(0.0259693,0.0259693,-0.0259693,0.0259693,0,0)"/>
<path style="fill:none;stroke-width:10;stroke-linecap:butt;stroke-linejoin:miter;stroke:rgb(0%,0%,0%);stroke-opacity:1;stroke-miterlimit:4;" d="M 368.674585 -334.980947 L 978.619686 -334.980947 C 995.165669 -334.980947 1008.628082 -321.518533 1008.628082 -304.97255 L 1008.628082 304.97255 C 1008.628082 321.518533 995.165669 334.980947 978.619686 334.980947 L 368.674585 334.980947 C 352.128602 334.980947 338.666189 321.518533 338.666189 304.97255 L 338.666189 -304.97255 C 338.666189 -321.518533 352.128602 -334.980947 368.674585 -334.980947 Z M 368.674585 -334.980947 " transform="matrix(0.0259693,0.0259693,-0.0259693,0.0259693,0,0)"/>
<path style="fill-rule:nonzero;fill:rgb(100%,80%,0%);fill-opacity:1;stroke-width:10;stroke-linecap:butt;stroke-linejoin:miter;stroke:rgb(0%,0%,0%);stroke-opacity:1;stroke-miterlimit:4;" d="M 499.914314 -218.783021 L 847.379957 -218.783021 C 872.274141 -218.707812 892.354947 -198.627005 892.430156 -173.732822 L 892.430156 173.732822 C 892.354947 198.627005 872.274141 218.707812 847.379957 218.783021 L 499.914314 218.783021 C 475.02013 218.707812 454.939324 198.627005 454.864115 173.732822 L 454.864115 -173.732822 C 454.939324 -198.627005 475.02013 -218.707812 499.914314 -218.783021 Z M 499.914314 -218.783021 " transform="matrix(0.0259693,0.0259693,-0.0259693,0.0259693,0,0)"/>
<path style="fill-rule:nonzero;fill:rgb(0%,0%,0%);fill-opacity:1;stroke-width:10;stroke-linecap:butt;stroke-linejoin:miter;stroke:rgb(0%,0%,0%);stroke-opacity:1;stroke-miterlimit:4;" d="M 208.46875 682.30971 L 682.30971 208.46875 " transform="matrix(0.0367261,0,0,0.0367261,0,0)"/>
<path style="fill-rule:nonzero;fill:rgb(0%,0%,0%);fill-opacity:1;stroke-width:10;stroke-linecap:butt;stroke-linejoin:miter;stroke:rgb(0%,0%,0%);stroke-opacity:1;stroke-miterlimit:4;" d="M 223.997545 697.732143 L 697.732143 223.997545 " transform="matrix(0.0367261,0,0,0.0367261,0,0)"/>
<path style="fill-rule:nonzero;fill:rgb(0%,0%,0%);fill-opacity:1;stroke-width:10;stroke-linecap:butt;stroke-linejoin:miter;stroke:rgb(0%,0%,0%);stroke-opacity:1;stroke-miterlimit:4;" d="M 239.419978 713.260937 L 713.260937 239.419978 " transform="matrix(0.0367261,0,0,0.0367261,0,0)"/>
<path style="fill-rule:nonzero;fill:rgb(0%,0%,0%);fill-opacity:1;stroke-width:10;stroke-linecap:butt;stroke-linejoin:miter;stroke:rgb(0%,0%,0%);stroke-opacity:1;stroke-miterlimit:4;" d="M 254.948772 728.683371 L 728.683371 254.948772 " transform="matrix(0.0367261,0,0,0.0367261,0,0)"/>
<path style="fill-rule:nonzero;fill:rgb(0%,0%,0%);fill-opacity:1;stroke-width:10;stroke-linecap:butt;stroke-linejoin:miter;stroke:rgb(0%,0%,0%);stroke-opacity:1;stroke-miterlimit:4;" d="M 270.371205 744.212165 L 744.212165 270.371205 " transform="matrix(0.0367261,0,0,0.0367261,0,0)"/>
</g>
</svg>
