<?xml version="1.0" encoding="UTF-8"?>
<svg xmlns="http://www.w3.org/2000/svg" xmlns:xlink="http://www.w3.org/1999/xlink" width="35px" height="35px" viewBox="0 0 35 30" version="1.1">
<g id="surface1">
<path style=" stroke:none;fill-rule:nonzero;fill:rgb(100%,100%,100%);fill-opacity:1;" d="M 1.886719 0 C 0.84375 0 0 0.824219 0 1.839844 C 0 2.160156 0.0859375 2.480469 0.253906 2.757812 L 15.867188 29.097656 C 16.203125 29.667969 16.828125 30.015625 17.503906 30.015625 C 18.175781 30.015625 18.800781 29.667969 19.136719 29.097656 L 34.753906 2.757812 C 34.917969 2.480469 35.003906 2.160156 35.003906 1.839844 C 35.003906 0.824219 34.160156 0 33.117188 0 Z M 1.886719 0 "/>
<path style="fill:none;stroke-width:2;stroke-linecap:butt;stroke-linejoin:miter;stroke:rgb(0%,0%,0%);stroke-opacity:1;stroke-miterlimit:4;" d="M 44.957812 0.955729 C 20.663839 0.955729 1.023884 20.739323 1.023884 45.014844 C 1.023884 52.75625 3.071652 60.30651 6.887946 66.996615 L 378.930134 711.444792 C 386.841964 725.016146 401.3625 733.426562 417.09308 733.426562 C 432.823661 733.426562 447.344196 725.016146 455.162946 711.444792 L 827.205134 66.996615 C 831.114509 60.30651 833.162277 52.75625 833.162277 45.014844 C 833.162277 20.739323 813.429241 0.955729 789.135268 0.955729 Z M 44.957812 0.955729 " transform="matrix(0.0419664,0,0,0.0408719,0,0)"/>
<path style=" stroke:none;fill-rule:nonzero;fill:rgb(100%,0%,0%);fill-opacity:1;" d="M 1.886719 0.410156 C 1.078125 0.410156 0.417969 1.050781 0.417969 1.839844 C 0.417969 2.089844 0.488281 2.335938 0.617188 2.554688 L 16.230469 28.894531 C 16.492188 29.335938 16.976562 29.609375 17.503906 29.609375 C 18.027344 29.609375 18.511719 29.335938 18.773438 28.894531 L 34.386719 2.554688 C 34.515625 2.335938 34.585938 2.089844 34.585938 1.839844 C 34.585938 1.050781 33.929688 0.410156 33.117188 0.410156 Z M 30.65625 2.8125 C 30.886719 2.8125 31.074219 2.996094 31.074219 3.222656 C 31.074219 3.292969 31.054688 3.363281 31.019531 3.425781 L 17.867188 25.617188 C 17.789062 25.742188 17.652344 25.820312 17.503906 25.820312 C 17.351562 25.820312 17.214844 25.742188 17.140625 25.617188 L 3.984375 3.425781 C 3.949219 3.363281 3.929688 3.292969 3.929688 3.222656 C 3.929688 2.996094 4.117188 2.8125 4.347656 2.8125 Z M 30.65625 2.8125 "/>
</g>
</svg>
