<?xml version="1.0" encoding="UTF-8"?>
<svg xmlns="http://www.w3.org/2000/svg" xmlns:xlink="http://www.w3.org/1999/xlink" width="35px" height="35px" viewBox="0 0 35 35" version="1.1">
<g id="surface1">
<path style=" stroke:none;fill-rule:nonzero;fill:rgb(100%,100%,100%);fill-opacity:1;" d="M 35 17.5 C 35 27.164062 27.164062 35 17.5 35 C 7.835938 35 0 27.164062 0 17.5 C 0 7.835938 7.835938 0 17.5 0 C 27.164062 0 35 7.835938 35 17.5 Z M 35 17.5 "/>
<path style="fill:none;stroke-width:2;stroke-linecap:butt;stroke-linejoin:miter;stroke:rgb(0%,0%,0%);stroke-opacity:1;stroke-miterlimit:4;" d="M 698.984375 350 C 698.984375 542.734375 542.734375 698.984375 350 698.984375 C 157.265625 698.984375 1.015625 542.734375 1.015625 350 C 1.015625 157.265625 157.265625 1.015625 350 1.015625 C 542.734375 1.015625 698.984375 157.265625 698.984375 350 Z M 698.984375 350 " transform="matrix(0.05,0,0,0.05,0,0)"/>
<path style=" stroke:none;fill-rule:nonzero;fill:rgb(100%,0%,0%);fill-opacity:1;" d="M 34 17.5 C 34 26.613281 26.613281 34 17.5 34 C 8.386719 34 1 26.613281 1 17.5 C 1 8.386719 8.386719 1 17.5 1 C 26.613281 1 34 8.386719 34 17.5 Z M 34 17.5 "/>
<path style=" stroke:none;fill-rule:nonzero;fill:rgb(100%,100%,100%);fill-opacity:1;" d="M 5.917969 14.113281 L 29.082031 14.113281 C 29.355469 14.113281 29.582031 14.335938 29.582031 14.613281 L 29.582031 20.386719 C 29.582031 20.664062 29.355469 20.886719 29.082031 20.886719 L 5.917969 20.886719 C 5.644531 20.886719 5.417969 20.664062 5.417969 20.386719 L 5.417969 14.613281 C 5.417969 14.335938 5.644531 14.113281 5.917969 14.113281 Z M 5.917969 14.113281 "/>
</g>
</svg>
