<?xml version="1.0" encoding="UTF-8"?>
<svg xmlns="http://www.w3.org/2000/svg" xmlns:xlink="http://www.w3.org/1999/xlink" width="35px" height="35px" viewBox="0 0 35 35" version="1.1">
<g id="surface2">
<path style=" stroke:none;fill-rule:nonzero;fill:rgb(100%,100%,100%);fill-opacity:1;" d="M 35 17.5 C 35 27.164062 27.164062 35 17.5 35 C 7.835938 35 0 27.164062 0 17.5 C 0 7.835938 7.835938 0 17.5 0 C 27.164062 0 35 7.835938 35 17.5 Z M 35 17.5 "/>
<path style="fill:none;stroke-width:0.170718;stroke-linecap:butt;stroke-linejoin:miter;stroke:rgb(0%,0%,0%);stroke-opacity:1;stroke-miterlimit:4;" d="M -65.613942 432.259967 C -65.613942 448.53332 -75.511214 461.724898 -87.720655 461.724898 C -99.930095 461.724898 -109.827367 448.53332 -109.827367 432.259967 C -109.827367 415.986615 -99.930095 402.795036 -87.720655 402.795036 C -75.511214 402.795036 -65.613942 415.986615 -65.613942 432.259967 Z M -65.613942 432.259967 " transform="matrix(0.788964,0,0,0.591938,86.708463,-238.371011)"/>
<path style=" stroke:none;fill-rule:nonzero;fill:rgb(100%,0%,0%);fill-opacity:1;" d="M 17.5 0.582031 C 8.15625 0.582031 0.582031 8.15625 0.582031 17.5 C 0.582031 26.84375 8.15625 34.417969 17.5 34.417969 C 26.84375 34.417969 34.417969 26.84375 34.417969 17.5 C 34.417969 8.15625 26.84375 0.582031 17.5 0.582031 Z M 17.5 3.445312 C 25.261719 3.445312 31.554688 9.738281 31.554688 17.5 C 31.554688 25.261719 25.261719 31.554688 17.5 31.554688 C 9.738281 31.554688 3.445312 25.261719 3.445312 17.5 C 3.445312 9.738281 9.738281 3.445312 17.5 3.445312 Z M 17.5 3.445312 "/>
<path style=" stroke:none;fill-rule:nonzero;fill:rgb(0%,0%,0%);fill-opacity:1;" d="M 14.113281 4.515625 L 17.5 7.902344 L 20.886719 4.515625 Z M 14.113281 4.515625 "/>
<path style=" stroke:none;fill-rule:nonzero;fill:rgb(0%,0%,0%);fill-opacity:1;" d="M 14.113281 30.484375 L 17.5 27.097656 L 20.886719 30.484375 Z M 14.113281 30.484375 "/>
<path style=" stroke:none;fill-rule:nonzero;fill:rgb(0%,0%,0%);fill-opacity:1;" d="M 17.902344 16.0625 C 17.605469 16.070312 17.359375 16.171875 17.164062 16.367188 C 16.96875 16.5625 16.863281 16.808594 16.855469 17.105469 C 16.863281 17.375 16.949219 17.605469 17.117188 17.796875 C 17.285156 17.988281 17.5 18.101562 17.761719 18.140625 L 16.824219 19.625 L 17.613281 19.625 C 17.730469 19.449219 17.945312 19.109375 18.253906 18.605469 C 18.558594 18.097656 18.753906 17.757812 18.835938 17.578125 C 18.867188 17.503906 18.890625 17.425781 18.914062 17.347656 C 18.933594 17.273438 18.945312 17.191406 18.949219 17.105469 C 18.941406 16.808594 18.839844 16.5625 18.640625 16.367188 C 18.445312 16.171875 18.199219 16.070312 17.902344 16.0625 Z M 17.902344 16.0625 "/>
<path style=" stroke:none;fill-rule:nonzero;fill:rgb(0%,0%,0%);fill-opacity:1;" d="M 25.152344 10.027344 L 25.632812 8.46875 L 20.113281 8.46875 L 20.113281 13.148438 L 21.191406 13.746094 C 21.3125 13.664062 21.492188 13.53125 21.734375 13.34375 C 21.972656 13.15625 22.273438 13.050781 22.632812 13.027344 C 23.175781 13.050781 23.589844 13.246094 23.878906 13.613281 C 24.164062 13.980469 24.308594 14.386719 24.3125 14.828125 C 24.28125 15.425781 24.042969 15.878906 23.59375 16.175781 C 23.140625 16.476562 22.664062 16.625 22.152344 16.625 C 21.75 16.632812 21.34375 16.601562 20.9375 16.535156 C 20.527344 16.46875 20.175781 16.339844 19.875 16.148438 L 20.113281 17.707031 C 20.140625 17.726562 20.386719 17.804688 20.847656 17.945312 C 21.308594 18.085938 21.824219 18.167969 22.394531 18.1875 C 23.542969 18.160156 24.449219 17.820312 25.105469 17.167969 C 25.765625 16.511719 26.097656 15.691406 26.113281 14.707031 C 26.074219 13.742188 25.757812 13.003906 25.167969 12.488281 C 24.574219 11.972656 23.929688 11.714844 23.230469 11.707031 C 22.949219 11.703125 22.667969 11.742188 22.382812 11.828125 C 22.097656 11.914062 21.859375 12.074219 21.671875 12.308594 L 21.671875 10.027344 Z M 25.152344 10.027344 "/>
<path style=" stroke:none;fill-rule:nonzero;fill:rgb(0%,0%,0%);fill-opacity:1;" d="M 14.65625 25.460938 L 15.757812 25.460938 L 16.03125 21.882812 L 17.5 24.816406 L 18.96875 21.882812 L 19.242188 25.460938 L 20.34375 25.460938 L 19.886719 20.324219 L 18.785156 20.324219 L 17.5 22.890625 L 16.214844 20.324219 L 15.113281 20.324219 Z M 14.65625 25.460938 "/>
<path style=" stroke:none;fill-rule:nonzero;fill:rgb(0%,0%,0%);fill-opacity:1;" d="M 13.394531 8.441406 L 14.617188 8.441406 L 14.617188 14.792969 L 15.738281 14.792969 L 15.273438 16.257812 L 14.722656 16.257812 L 14.722656 18.214844 L 13.296875 18.214844 L 13.296875 16.257812 L 9.425781 16.257812 L 9.425781 14.792969 Z M 13.296875 11.007812 L 10.953125 14.792969 L 13.296875 14.792969 Z M 13.296875 11.007812 "/>
</g>
</svg>
