<?xml version="1.0" encoding="UTF-8"?>
<svg xmlns="http://www.w3.org/2000/svg" xmlns:xlink="http://www.w3.org/1999/xlink" width="35px" height="35px" viewBox="0 0 35 35" version="1.1">
<g id="surface1">
<path style=" stroke:none;fill-rule:nonzero;fill:rgb(100%,100%,100%);fill-opacity:1;" d="M 35 17.5 C 35 27.164062 27.164062 35 17.5 35 C 7.835938 35 0 27.164062 0 17.5 C 0 7.835938 7.835938 0 17.5 0 C 27.164062 0 35 7.835938 35 17.5 Z M 35 17.5 "/>
<path style="fill:none;stroke-width:0.170718;stroke-linecap:butt;stroke-linejoin:miter;stroke:rgb(0%,0%,0%);stroke-opacity:1;stroke-miterlimit:4;" d="M -65.613942 432.259967 C -65.613942 448.53332 -75.511214 461.724898 -87.720655 461.724898 C -99.930095 461.724898 -109.827367 448.53332 -109.827367 432.259967 C -109.827367 415.986615 -99.930095 402.795036 -87.720655 402.795036 C -75.511214 402.795036 -65.613942 415.986615 -65.613942 432.259967 Z M -65.613942 432.259967 " transform="matrix(0.788964,0,0,0.591938,86.708463,-238.371011)"/>
<path style=" stroke:none;fill-rule:nonzero;fill:rgb(100%,0%,0%);fill-opacity:1;" d="M 17.5 0.582031 C 8.15625 0.582031 0.582031 8.15625 0.582031 17.5 C 0.582031 26.84375 8.15625 34.417969 17.5 34.417969 C 26.84375 34.417969 34.417969 26.84375 34.417969 17.5 C 34.417969 8.15625 26.84375 0.582031 17.5 0.582031 Z M 17.5 3.445312 C 25.261719 3.445312 31.554688 9.738281 31.554688 17.5 C 31.554688 25.261719 25.261719 31.554688 17.5 31.554688 C 9.738281 31.554688 3.445312 25.261719 3.445312 17.5 C 3.445312 9.738281 9.738281 3.445312 17.5 3.445312 Z M 17.5 3.445312 "/>
<path style=" stroke:none;fill-rule:nonzero;fill:rgb(0%,0%,0%);fill-opacity:1;" d="M 4.515625 20.886719 L 7.902344 17.5 L 4.515625 14.113281 Z M 4.515625 20.886719 "/>
<path style=" stroke:none;fill-rule:nonzero;fill:rgb(0%,0%,0%);fill-opacity:1;" d="M 30.484375 20.886719 L 27.097656 17.5 L 30.484375 14.113281 Z M 30.484375 20.886719 "/>
<path style=" stroke:none;fill-rule:nonzero;fill:rgb(0%,0%,0%);fill-opacity:1;" d="M 9.855469 12.046875 L 10.8125 13.125 C 11.109375 12.8125 11.414062 12.527344 11.726562 12.277344 C 12.039062 12.023438 12.375 11.890625 12.734375 11.875 C 13.15625 11.890625 13.496094 12.023438 13.742188 12.277344 C 13.988281 12.527344 14.117188 12.8125 14.121094 13.125 C 14.117188 13.59375 14.019531 13.980469 13.832031 14.292969 C 13.648438 14.601562 13.40625 14.921875 13.109375 15.25 C 12.574219 15.890625 12.023438 16.507812 11.453125 17.101562 C 10.882812 17.695312 10.269531 18.289062 9.613281 18.886719 L 9.613281 20.324219 L 15.371094 20.324219 C 15.492188 20.019531 15.582031 19.730469 15.640625 19.453125 C 15.703125 19.179688 15.730469 18.949219 15.730469 18.765625 L 11.773438 18.765625 C 12.394531 18.117188 12.976562 17.523438 13.511719 16.984375 C 14.050781 16.441406 14.507812 15.933594 14.890625 15.457031 C 15.195312 15.105469 15.414062 14.773438 15.542969 14.460938 C 15.671875 14.144531 15.734375 13.703125 15.730469 13.125 C 15.699219 12.390625 15.40625 11.792969 14.847656 11.328125 C 14.289062 10.863281 13.664062 10.621094 12.972656 10.609375 C 12.257812 10.617188 11.648438 10.753906 11.144531 11.019531 C 10.636719 11.285156 10.207031 11.628906 9.855469 12.046875 Z M 9.855469 12.046875 "/>
<path style=" stroke:none;fill-rule:nonzero;fill:rgb(0%,0%,0%);fill-opacity:1;" d="M 17.9375 18.320312 C 17.640625 18.328125 17.394531 18.429688 17.195312 18.625 C 17 18.820312 16.898438 19.070312 16.890625 19.363281 C 16.898438 19.636719 16.984375 19.863281 17.152344 20.054688 C 17.320312 20.246094 17.53125 20.359375 17.792969 20.398438 L 16.855469 21.882812 L 17.644531 21.882812 C 17.765625 21.710938 17.980469 21.367188 18.285156 20.863281 C 18.59375 20.355469 18.789062 20.015625 18.871094 19.835938 C 18.898438 19.761719 18.925781 19.683594 18.945312 19.605469 C 18.96875 19.53125 18.980469 19.449219 18.980469 19.363281 C 18.972656 19.070312 18.871094 18.820312 18.675781 18.625 C 18.480469 18.429688 18.230469 18.328125 17.9375 18.320312 Z M 17.9375 18.320312 "/>
<path style=" stroke:none;fill-rule:nonzero;fill:rgb(0%,0%,0%);fill-opacity:1;" d="M 19.667969 12.285156 L 24.105469 12.285156 C 23.421875 13.382812 22.777344 14.609375 22.171875 15.976562 C 21.5625 17.339844 21.128906 18.75 20.867188 20.203125 L 22.667969 20.203125 C 23.035156 18.488281 23.496094 16.972656 24.046875 15.660156 C 24.59375 14.347656 25.175781 13.105469 25.785156 11.925781 L 25.785156 10.726562 L 20.027344 10.726562 Z M 19.667969 12.285156 "/>
<path style=" stroke:none;fill-rule:nonzero;fill:rgb(0%,0%,0%);fill-opacity:1;" d="M 14.65625 27.71875 L 15.757812 27.71875 L 16.03125 24.140625 L 17.5 27.074219 L 18.96875 24.140625 L 19.242188 27.71875 L 20.34375 27.71875 L 19.886719 22.582031 L 18.785156 22.582031 L 17.5 25.148438 L 16.214844 22.582031 L 15.113281 22.582031 Z M 14.65625 27.71875 "/>
</g>
</svg>
