<?xml version="1.0" encoding="UTF-8"?>
<svg xmlns="http://www.w3.org/2000/svg" xmlns:xlink="http://www.w3.org/1999/xlink" width="35px" height="35px" viewBox="0 0 35 35" version="1.1">
<g id="surface1">
<path style=" stroke:none;fill-rule:nonzero;fill:rgb(100%,100%,100%);fill-opacity:1;" d="M 35 17.5 C 35.003906 27.167969 27.167969 35.003906 17.5 35.003906 C 7.832031 35.003906 -0.00390625 27.167969 0 17.5 C -0.00390625 7.832031 7.832031 -0.00390625 17.5 -0.00390625 C 27.167969 -0.00390625 35.003906 7.832031 35 17.5 Z M 35 17.5 "/>
<path style="fill:none;stroke-width:0.612715;stroke-linecap:butt;stroke-linejoin:miter;stroke:rgb(0%,0%,0%);stroke-opacity:1;stroke-miterlimit:4;" d="M -199.117906 803.424321 C -199.117906 854.97005 -253.951058 896.758238 -321.587751 896.758238 C -389.224443 896.758238 -444.057595 854.97005 -444.057595 803.424321 C -444.057595 751.878591 -389.224443 710.090403 -321.587751 710.090403 C -253.951058 710.090403 -199.117906 751.878591 -199.117906 803.424321 Z M -199.117906 803.424321 " transform="matrix(0.142478,0,0,0.186955,63.319075,-132.703989)"/>
<path style=" stroke:none;fill-rule:nonzero;fill:rgb(0%,0%,0%);fill-opacity:1;" d="M 6.859375 18.882812 C 6.09375 18.882812 5.476562 18.265625 5.476562 17.5 C 5.476562 16.734375 6.09375 16.117188 6.859375 16.117188 L 28.140625 16.117188 C 28.90625 16.117188 29.523438 16.734375 29.523438 17.5 C 29.523438 18.265625 28.90625 18.882812 28.140625 18.882812 Z M 6.859375 18.882812 "/>
<path style=" stroke:none;fill-rule:nonzero;fill:rgb(100%,0%,0%);fill-opacity:1;" d="M 17.5 0.5 C 8.109375 0.5 0.5 8.109375 0.5 17.5 C 0.5 26.890625 8.109375 34.5 17.5 34.5 C 26.886719 34.5 34.5 26.890625 34.5 17.5 C 34.5 8.109375 26.886719 0.5 17.5 0.5 Z M 17.5 3.445312 C 25.261719 3.445312 31.554688 9.738281 31.554688 17.5 C 31.554688 25.261719 25.261719 31.554688 17.5 31.554688 C 9.738281 31.554688 3.445312 25.261719 3.445312 17.5 C 3.445312 9.738281 9.738281 3.445312 17.5 3.445312 Z M 17.5 3.445312 "/>
<path style=" stroke:none;fill-rule:nonzero;fill:rgb(0%,0%,0%);fill-opacity:1;" d="M 6.507812 12.144531 C 6.507812 12.421875 6.570312 12.660156 6.691406 12.855469 C 6.808594 13.054688 6.957031 13.152344 7.128906 13.152344 C 7.300781 13.152344 7.449219 13.054688 7.570312 12.855469 C 7.691406 12.660156 7.753906 12.421875 7.753906 12.144531 C 7.753906 11.863281 7.691406 11.625 7.570312 11.425781 C 7.449219 11.230469 7.300781 11.128906 7.128906 11.128906 C 6.957031 11.128906 6.808594 11.230469 6.691406 11.425781 C 6.570312 11.625 6.507812 11.863281 6.507812 12.144531 Z M 6.007812 12.140625 C 6.007812 11.734375 6.117188 11.386719 6.335938 11.097656 C 6.554688 10.808594 6.816406 10.667969 7.125 10.667969 C 7.433594 10.667969 7.699219 10.808594 7.917969 11.097656 C 8.136719 11.386719 8.246094 11.734375 8.246094 12.140625 C 8.246094 12.546875 8.136719 12.894531 7.917969 13.179688 C 7.699219 13.46875 7.433594 13.613281 7.125 13.613281 C 6.816406 13.613281 6.554688 13.46875 6.335938 13.179688 C 6.117188 12.894531 6.007812 12.546875 6.007812 12.140625 Z M 6.007812 12.140625 "/>
<path style=" stroke:none;fill-rule:nonzero;fill:rgb(0%,0%,0%);fill-opacity:1;" d="M 10.71875 10.730469 L 10.71875 13.550781 L 10.246094 13.550781 L 10.246094 11.144531 L 9.175781 11.144531 L 9.175781 13.550781 L 8.703125 13.550781 L 8.703125 10.730469 Z M 10.71875 10.730469 "/>
<path style=" stroke:none;fill-rule:nonzero;fill:rgb(0%,0%,0%);fill-opacity:1;" d="M 12.390625 11.378906 L 12.035156 12.570312 L 12.757812 12.570312 Z M 12.105469 10.730469 L 12.671875 10.730469 L 13.578125 13.550781 L 13.042969 13.550781 L 12.871094 12.992188 L 11.921875 12.992188 L 11.746094 13.550781 L 11.171875 13.550781 Z M 12.105469 10.730469 "/>
<path style=" stroke:none;fill-rule:nonzero;fill:rgb(0%,0%,0%);fill-opacity:1;" d="M 14.039062 12.144531 C 14.039062 11.738281 14.148438 11.390625 14.363281 11.105469 C 14.582031 10.816406 14.84375 10.671875 15.152344 10.671875 C 15.378906 10.671875 15.585938 10.757812 15.773438 10.921875 C 15.957031 11.082031 16.089844 11.292969 16.179688 11.554688 L 15.722656 11.746094 C 15.675781 11.5625 15.601562 11.417969 15.5 11.304688 C 15.398438 11.195312 15.285156 11.136719 15.15625 11.136719 C 14.984375 11.136719 14.839844 11.234375 14.71875 11.433594 C 14.597656 11.628906 14.539062 11.867188 14.539062 12.144531 C 14.539062 12.421875 14.597656 12.660156 14.71875 12.859375 C 14.839844 13.054688 14.984375 13.152344 15.15625 13.152344 C 15.28125 13.152344 15.390625 13.101562 15.492188 12.992188 C 15.59375 12.886719 15.667969 12.746094 15.71875 12.570312 L 16.171875 12.742188 C 16.085938 13.003906 15.949219 13.210938 15.769531 13.371094 C 15.582031 13.53125 15.378906 13.613281 15.152344 13.613281 C 14.84375 13.613281 14.582031 13.46875 14.363281 13.179688 C 14.148438 12.894531 14.039062 12.546875 14.039062 12.144531 Z M 14.039062 12.144531 "/>
<path style=" stroke:none;fill-rule:nonzero;fill:rgb(0%,0%,0%);fill-opacity:1;" d="M 18.203125 10.730469 L 18.667969 10.730469 L 18.667969 13.554688 L 18.203125 13.554688 L 18.203125 12.261719 L 17.101562 12.261719 L 17.101562 13.554688 L 16.632812 13.554688 L 16.632812 10.730469 L 17.101562 10.730469 L 17.101562 11.84375 L 18.203125 11.84375 Z M 18.203125 10.730469 "/>
<path style=" stroke:none;fill-rule:nonzero;fill:rgb(0%,0%,0%);fill-opacity:1;" d="M 19.621094 12.144531 C 19.621094 12.421875 19.683594 12.660156 19.804688 12.855469 C 19.925781 13.054688 20.070312 13.152344 20.246094 13.152344 C 20.414062 13.152344 20.5625 13.054688 20.683594 12.855469 C 20.804688 12.660156 20.867188 12.421875 20.867188 12.144531 C 20.867188 11.863281 20.804688 11.625 20.683594 11.425781 C 20.5625 11.230469 20.414062 11.128906 20.246094 11.128906 C 20.070312 11.128906 19.925781 11.230469 19.804688 11.425781 C 19.683594 11.625 19.621094 11.863281 19.621094 12.144531 Z M 19.121094 12.140625 C 19.121094 11.734375 19.230469 11.386719 19.449219 11.097656 C 19.667969 10.808594 19.929688 10.667969 20.238281 10.667969 C 20.550781 10.667969 20.8125 10.808594 21.03125 11.097656 C 21.25 11.386719 21.359375 11.734375 21.359375 12.140625 C 21.359375 12.546875 21.25 12.894531 21.03125 13.179688 C 20.8125 13.46875 20.550781 13.613281 20.238281 13.613281 C 19.929688 13.613281 19.667969 13.46875 19.449219 13.179688 C 19.230469 12.894531 19.121094 12.546875 19.121094 12.140625 Z M 19.121094 12.140625 "/>
<path style=" stroke:none;fill-rule:nonzero;fill:rgb(0%,0%,0%);fill-opacity:1;" d="M 21.816406 12.144531 C 21.816406 11.738281 21.925781 11.390625 22.140625 11.105469 C 22.359375 10.816406 22.621094 10.671875 22.929688 10.671875 C 23.15625 10.671875 23.363281 10.757812 23.550781 10.921875 C 23.734375 11.082031 23.867188 11.292969 23.957031 11.554688 L 23.5 11.746094 C 23.453125 11.5625 23.378906 11.417969 23.277344 11.304688 C 23.175781 11.195312 23.0625 11.136719 22.933594 11.136719 C 22.761719 11.136719 22.617188 11.234375 22.496094 11.433594 C 22.375 11.628906 22.316406 11.867188 22.316406 12.144531 C 22.316406 12.421875 22.375 12.660156 22.496094 12.859375 C 22.617188 13.054688 22.761719 13.152344 22.933594 13.152344 C 23.058594 13.152344 23.167969 13.101562 23.269531 12.992188 C 23.371094 12.886719 23.445312 12.746094 23.496094 12.570312 L 23.949219 12.742188 C 23.863281 13.003906 23.726562 13.210938 23.546875 13.371094 C 23.359375 13.53125 23.15625 13.613281 22.929688 13.613281 C 22.621094 13.613281 22.359375 13.46875 22.140625 13.179688 C 21.925781 12.894531 21.816406 12.546875 21.816406 12.144531 Z M 21.816406 12.144531 "/>
<path style=" stroke:none;fill-rule:nonzero;fill:rgb(0%,0%,0%);fill-opacity:1;" d="M 24.410156 10.730469 L 26.535156 10.730469 L 26.535156 11.148438 L 25.699219 11.148438 L 25.699219 13.550781 L 25.246094 13.550781 L 25.246094 11.148438 L 24.410156 11.148438 Z M 24.410156 10.730469 "/>
<path style=" stroke:none;fill-rule:nonzero;fill:rgb(0%,0%,0%);fill-opacity:1;" d="M 28.082031 13.125 C 28.199219 13.121094 28.292969 13.074219 28.375 12.988281 C 28.457031 12.898438 28.496094 12.792969 28.496094 12.671875 C 28.496094 12.542969 28.457031 12.4375 28.375 12.351562 C 28.296875 12.265625 28.199219 12.222656 28.082031 12.222656 L 27.492188 12.222656 L 27.492188 13.125 L 28.066406 13.125 C 28.074219 13.125 28.082031 13.125 28.082031 13.125 Z M 26.988281 13.550781 L 26.988281 10.730469 L 27.492188 10.730469 L 27.492188 11.796875 L 28.082031 11.796875 C 28.332031 11.796875 28.542969 11.878906 28.71875 12.042969 C 28.902344 12.214844 28.992188 12.421875 28.992188 12.667969 C 28.992188 12.914062 28.902344 13.125 28.722656 13.296875 C 28.542969 13.464844 28.328125 13.550781 28.082031 13.550781 Z M 26.988281 13.550781 "/>
<path style=" stroke:none;fill-rule:nonzero;fill:rgb(0%,0%,0%);fill-opacity:1;" d="M 12.003906 22.871094 C 12.003906 23.257812 11.9375 23.5625 11.796875 23.792969 C 11.613281 24.117188 11.320312 24.277344 10.917969 24.277344 L 9.816406 24.277344 L 9.816406 21.457031 L 10.917969 21.457031 C 11.261719 21.457031 11.542969 21.617188 11.757812 21.941406 C 11.921875 22.207031 12.003906 22.519531 12.003906 22.871094 Z M 11.476562 22.871094 C 11.476562 22.503906 11.410156 22.242188 11.277344 22.085938 C 11.15625 21.949219 10.988281 21.878906 10.769531 21.878906 L 10.3125 21.878906 L 10.3125 23.859375 L 10.761719 23.859375 C 11.035156 23.859375 11.234375 23.746094 11.363281 23.515625 C 11.4375 23.359375 11.476562 23.144531 11.476562 22.871094 Z M 11.476562 22.871094 "/>
<path style=" stroke:none;fill-rule:nonzero;fill:rgb(0%,0%,0%);fill-opacity:1;" d="M 13.707031 22.105469 L 13.351562 23.292969 L 14.074219 23.292969 Z M 13.421875 21.457031 L 13.988281 21.457031 L 14.898438 24.277344 L 14.359375 24.277344 L 14.1875 23.71875 L 13.238281 23.71875 L 13.0625 24.277344 L 12.492188 24.277344 Z M 13.421875 21.457031 "/>
<path style=" stroke:none;fill-rule:nonzero;fill:rgb(0%,0%,0%);fill-opacity:1;" d="M 15.390625 21.457031 L 15.847656 21.457031 L 17.027344 23.488281 L 17.027344 21.457031 L 17.5 21.457031 L 17.5 24.277344 L 16.960938 24.277344 L 15.851562 22.296875 L 15.851562 24.277344 L 15.390625 24.277344 Z M 15.390625 21.457031 "/>
<path style=" stroke:none;fill-rule:nonzero;fill:rgb(0%,0%,0%);fill-opacity:1;" d="M 19.863281 24.265625 L 19.808594 24.0625 C 19.757812 24.144531 19.671875 24.207031 19.550781 24.253906 C 19.433594 24.300781 19.316406 24.324219 19.207031 24.324219 C 18.878906 24.324219 18.59375 24.179688 18.351562 23.898438 C 18.109375 23.613281 17.988281 23.269531 17.988281 22.859375 C 17.988281 22.460938 18.105469 22.117188 18.347656 21.835938 C 18.585938 21.550781 18.871094 21.410156 19.207031 21.410156 C 19.425781 21.410156 19.628906 21.472656 19.8125 21.59375 C 19.996094 21.71875 20.140625 21.902344 20.253906 22.144531 L 19.785156 22.304688 C 19.722656 22.167969 19.640625 22.0625 19.542969 21.988281 C 19.441406 21.914062 19.332031 21.875 19.210938 21.875 C 19.019531 21.875 18.855469 21.972656 18.71875 22.160156 C 18.585938 22.351562 18.515625 22.582031 18.515625 22.851562 C 18.515625 23.128906 18.582031 23.359375 18.71875 23.546875 C 18.851562 23.734375 19.015625 23.828125 19.210938 23.828125 C 19.347656 23.828125 19.476562 23.78125 19.597656 23.679688 C 19.714844 23.578125 19.792969 23.445312 19.835938 23.277344 L 19.273438 23.277344 L 19.273438 22.867188 L 20.292969 22.867188 L 20.292969 24.265625 Z M 19.863281 24.265625 "/>
<path style=" stroke:none;fill-rule:nonzero;fill:rgb(0%,0%,0%);fill-opacity:1;" d="M 21.25 22.578125 L 22.277344 22.578125 L 22.277344 23.007812 L 21.25 23.007812 L 21.25 23.84375 L 22.507812 23.84375 L 22.507812 24.277344 L 20.785156 24.277344 L 20.785156 21.457031 L 22.507812 21.457031 L 22.507812 21.890625 L 21.25 21.890625 Z M 21.25 22.578125 "/>
<path style=" stroke:none;fill-rule:nonzero;fill:rgb(0%,0%,0%);fill-opacity:1;" d="M 25.183594 24.277344 L 24.613281 24.277344 L 24.207031 23.503906 C 24.148438 23.382812 24.082031 23.296875 24.015625 23.242188 C 23.9375 23.171875 23.847656 23.136719 23.75 23.136719 L 23.417969 23.136719 L 23.417969 24.277344 L 23 24.277344 L 23 21.457031 L 24.082031 21.457031 C 24.296875 21.457031 24.480469 21.546875 24.632812 21.726562 C 24.753906 21.886719 24.816406 22.078125 24.816406 22.296875 C 24.816406 22.476562 24.773438 22.625 24.6875 22.742188 C 24.601562 22.855469 24.5 22.941406 24.386719 22.992188 C 24.445312 23.054688 24.492188 23.105469 24.523438 23.152344 C 24.558594 23.195312 24.605469 23.28125 24.675781 23.402344 L 24.867188 23.792969 C 24.949219 23.960938 25.011719 24.074219 25.0625 24.132812 Z M 24.324219 22.320312 C 24.324219 22.210938 24.304688 22.117188 24.265625 22.035156 C 24.203125 21.941406 24.101562 21.894531 23.953125 21.894531 L 23.417969 21.894531 L 23.417969 22.726562 L 23.953125 22.726562 C 24.082031 22.710938 24.179688 22.660156 24.246094 22.578125 C 24.300781 22.503906 24.324219 22.417969 24.324219 22.320312 Z M 24.324219 22.320312 "/>
</g>
</svg>
