<?xml version="1.0" encoding="UTF-8"?>
<svg xmlns="http://www.w3.org/2000/svg" xmlns:xlink="http://www.w3.org/1999/xlink" width="35px" height="35px" viewBox="0 0 35 35" version="1.1">
<g id="surface1">
<path style=" stroke:none;fill-rule:nonzero;fill:rgb(100%,100%,100%);fill-opacity:1;" d="M 35 17.5 C 35 27.164062 27.164062 35 17.5 35 C 7.835938 35 0 27.164062 0 17.5 C 0 7.835938 7.835938 0 17.5 0 C 27.164062 0 35 7.835938 35 17.5 Z M 35 17.5 "/>
<path style=" stroke:none;fill-rule:nonzero;fill:rgb(100%,0%,0%);fill-opacity:1;" d="M 17.5 0.582031 C 8.15625 0.582031 0.582031 8.15625 0.582031 17.5 C 0.582031 26.84375 8.15625 34.417969 17.5 34.417969 C 26.84375 34.417969 34.417969 26.84375 34.417969 17.5 C 34.417969 8.15625 26.84375 0.582031 17.5 0.582031 Z M 17.5 3.445312 C 25.261719 3.445312 31.554688 9.738281 31.554688 17.5 C 31.554688 20.976562 30.292969 24.152344 28.203125 26.605469 L 8.394531 6.796875 C 10.847656 4.707031 14.023438 3.445312 17.5 3.445312 Z M 6.796875 8.394531 L 26.605469 28.203125 C 24.152344 30.292969 20.976562 31.554688 17.5 31.554688 C 9.738281 31.554688 3.445312 25.261719 3.445312 17.5 C 3.445312 14.023438 4.707031 10.847656 6.796875 8.394531 Z M 6.796875 8.394531 "/>
<path style=" stroke:none;fill-rule:nonzero;fill:rgb(0%,0%,0%);fill-opacity:1;" d="M 14.679688 6.164062 L 10.796875 8.402344 L 14.8125 12.417969 L 20.320312 12.417969 C 21.570312 12.417969 22.582031 13.429688 22.582031 14.679688 L 22.582031 20.1875 L 25.96875 23.574219 L 25.96875 14.679688 C 25.96875 11.558594 23.441406 9.03125 20.320312 9.03125 L 14.679688 9.03125 Z M 7.761719 10.15625 L 6.773438 10.726562 L 10.460938 12.855469 Z M 22.582031 24.972656 L 22.582031 28.226562 L 25.832031 28.226562 Z M 22.582031 24.972656 "/>
<path style="fill:none;stroke-width:0.170718;stroke-linecap:butt;stroke-linejoin:miter;stroke:rgb(0%,0%,0%);stroke-opacity:1;stroke-miterlimit:4;" d="M -65.613942 432.259967 C -65.613942 448.53332 -75.511214 461.724898 -87.720655 461.724898 C -99.930095 461.724898 -109.827367 448.53332 -109.827367 432.259967 C -109.827367 415.986615 -99.930095 402.795036 -87.720655 402.795036 C -75.511214 402.795036 -65.613942 415.986615 -65.613942 432.259967 Z M -65.613942 432.259967 " transform="matrix(0.788964,0,0,0.591938,86.708463,-238.371011)"/>
</g>
</svg>
