<?xml version="1.0" encoding="UTF-8"?>
<svg xmlns="http://www.w3.org/2000/svg" xmlns:xlink="http://www.w3.org/1999/xlink" width="35px" height="35px" viewBox="0 0 35 35" version="1.1">
<g id="surface1">
<path style=" stroke:none;fill-rule:nonzero;fill:rgb(100%,100%,100%);fill-opacity:1;" d="M 35.007812 17.5 C 35.007812 7.835938 27.175781 0 17.507812 0 C 7.84375 0 0.0078125 7.835938 0.0078125 17.5 C 0.0078125 27.164062 7.84375 35 17.507812 35 C 27.175781 35 35.007812 27.164062 35.007812 17.5 Z M 35.007812 17.5 "/>
<path style="fill:none;stroke-width:0.170718;stroke-linecap:butt;stroke-linejoin:miter;stroke:rgb(0%,0%,0%);stroke-opacity:1;stroke-miterlimit:4;" d="M -65.615466 432.259973 C -65.615466 415.98662 -75.512737 402.795042 -87.722178 402.795042 C -99.931618 402.795042 -109.82889 415.98662 -109.82889 432.259973 C -109.82889 448.533325 -99.931618 461.724904 -87.722178 461.724904 C -75.512737 461.724904 -65.615466 448.533325 -65.615466 432.259973 Z M -65.615466 432.259973 " transform="matrix(0.788964,0,0,0.591938,86.717478,-238.371014)"/>
<path style=" stroke:none;fill-rule:nonzero;fill:rgb(100%,0%,0%);fill-opacity:1;" d="M 17.507812 0.582031 C 8.167969 0.582031 0.59375 8.15625 0.59375 17.5 C 0.59375 26.84375 8.167969 34.417969 17.507812 34.417969 C 26.851562 34.417969 34.425781 26.84375 34.425781 17.5 C 34.425781 8.15625 26.851562 0.582031 17.507812 0.582031 Z M 17.507812 3.445312 C 25.273438 3.445312 31.566406 9.738281 31.566406 17.5 C 31.566406 25.261719 25.273438 31.554688 17.507812 31.554688 C 9.746094 31.554688 3.453125 25.261719 3.453125 17.5 C 3.453125 9.738281 9.746094 3.445312 17.507812 3.445312 Z M 17.507812 3.445312 "/>
<path style=" stroke:none;fill-rule:nonzero;fill:rgb(100%,0%,0%);fill-opacity:1;" d="M 8.484375 8.601562 C 8.257812 8.601562 8.011719 8.777344 7.9375 8.992188 L 7.660156 9.792969 L 7.089844 11.453125 C 7.089844 11.453125 7.089844 11.457031 7.089844 11.457031 L 6.953125 11.84375 C 6.628906 11.84375 6.363281 12.105469 6.363281 12.433594 L 6.363281 14.789062 C 6.363281 15.117188 6.628906 15.378906 6.953125 15.378906 L 15.796875 15.378906 C 16.125 15.378906 16.386719 15.117188 16.386719 14.789062 L 16.386719 12.433594 C 16.386719 12.105469 16.125 11.84375 15.796875 11.84375 L 15.664062 11.457031 C 15.664062 11.457031 15.664062 11.453125 15.664062 11.453125 L 15.089844 9.792969 L 14.8125 8.992188 C 14.738281 8.777344 14.496094 8.601562 14.265625 8.601562 Z M 8.664062 9.191406 L 14.085938 9.191406 C 14.199219 9.191406 14.324219 9.277344 14.359375 9.386719 L 15.207031 11.84375 L 7.542969 11.84375 L 8.390625 9.386719 C 8.429688 9.277344 8.550781 9.191406 8.664062 9.191406 Z M 8.664062 9.191406 "/>
<path style=" stroke:none;fill-rule:nonzero;fill:rgb(100%,0%,0%);fill-opacity:1;" d="M 6.953125 15.675781 L 6.953125 16.855469 C 6.953125 17.34375 7.351562 17.738281 7.839844 17.738281 C 8.328125 17.738281 8.722656 17.34375 8.722656 16.855469 L 8.722656 15.675781 Z M 6.953125 15.675781 "/>
<path style=" stroke:none;fill-rule:nonzero;fill:rgb(100%,0%,0%);fill-opacity:1;" d="M 14.027344 15.675781 L 14.027344 16.855469 C 14.027344 17.34375 14.425781 17.738281 14.914062 17.738281 C 15.402344 17.738281 15.796875 17.34375 15.796875 16.855469 L 15.796875 15.675781 Z M 14.027344 15.675781 "/>
<path style=" stroke:none;fill-rule:nonzero;fill:rgb(0%,0%,0%);fill-opacity:1;" d="M 21.042969 8.5625 C 20.8125 8.5625 20.570312 8.738281 20.492188 8.953125 L 20.21875 9.753906 L 19.644531 11.414062 C 19.644531 11.417969 19.644531 11.417969 19.644531 11.421875 L 19.511719 11.804688 C 19.183594 11.804688 18.921875 12.070312 18.921875 12.394531 L 18.921875 14.753906 C 18.921875 15.082031 19.183594 15.34375 19.511719 15.34375 L 28.351562 15.34375 C 28.679688 15.34375 28.941406 15.082031 28.941406 14.753906 L 28.941406 12.394531 C 28.941406 12.070312 28.679688 11.804688 28.351562 11.804688 L 28.21875 11.421875 C 28.21875 11.417969 28.21875 11.417969 28.21875 11.414062 L 27.644531 9.753906 L 27.371094 8.953125 C 27.292969 8.738281 27.050781 8.5625 26.820312 8.5625 Z M 21.222656 9.152344 L 26.640625 9.152344 C 26.757812 9.152344 26.878906 9.242188 26.917969 9.347656 L 27.761719 11.804688 L 20.101562 11.804688 L 20.945312 9.347656 C 20.984375 9.242188 21.105469 9.152344 21.222656 9.152344 Z M 21.222656 9.152344 "/>
<path style=" stroke:none;fill-rule:nonzero;fill:rgb(0%,0%,0%);fill-opacity:1;" d="M 19.511719 15.636719 L 19.511719 16.816406 C 19.511719 17.304688 19.90625 17.699219 20.394531 17.699219 C 20.882812 17.699219 21.277344 17.304688 21.277344 16.816406 L 21.277344 15.636719 Z M 19.511719 15.636719 "/>
<path style=" stroke:none;fill-rule:nonzero;fill:rgb(0%,0%,0%);fill-opacity:1;" d="M 26.585938 15.636719 L 26.585938 16.816406 C 26.585938 17.304688 26.980469 17.699219 27.46875 17.699219 C 27.957031 17.699219 28.351562 17.304688 28.351562 16.816406 L 28.351562 15.636719 Z M 26.585938 15.636719 "/>
<path style="fill:none;stroke-width:10;stroke-linecap:round;stroke-linejoin:round;stroke:rgb(0%,0%,0%);stroke-opacity:1;stroke-miterlimit:4;" d="M -553.769333 333.930613 L -153.72469 333.930613 " transform="matrix(0.0583333,0,0,0.0583333,38.580555,-1.233192)"/>
<path style=" stroke:none;fill-rule:nonzero;fill:rgb(0%,0%,0%);fill-opacity:1;" d="M 16.453125 21.785156 L 16.851562 20.496094 L 12.292969 20.496094 L 12.292969 24.359375 L 13.183594 24.855469 C 13.28125 24.789062 13.429688 24.675781 13.628906 24.523438 C 13.828125 24.367188 14.074219 24.28125 14.371094 24.261719 C 14.820312 24.28125 15.164062 24.441406 15.402344 24.746094 C 15.636719 25.046875 15.757812 25.382812 15.761719 25.75 C 15.734375 26.246094 15.535156 26.617188 15.164062 26.863281 C 14.792969 27.113281 14.398438 27.234375 13.976562 27.234375 C 13.644531 27.238281 13.308594 27.214844 12.972656 27.160156 C 12.632812 27.105469 12.339844 26.996094 12.09375 26.839844 L 12.292969 28.128906 C 12.3125 28.144531 12.515625 28.210938 12.898438 28.324219 C 13.28125 28.441406 13.707031 28.507812 14.175781 28.523438 C 15.125 28.503906 15.875 28.222656 16.417969 27.679688 C 16.960938 27.140625 17.238281 26.464844 17.246094 25.648438 C 17.214844 24.851562 16.957031 24.242188 16.464844 23.816406 C 15.976562 23.390625 15.445312 23.175781 14.867188 23.171875 C 14.632812 23.167969 14.402344 23.199219 14.164062 23.269531 C 13.929688 23.339844 13.734375 23.472656 13.578125 23.667969 L 13.578125 21.785156 Z M 16.453125 21.785156 "/>
<path style=" stroke:none;fill-rule:nonzero;fill:rgb(0%,0%,0%);fill-opacity:1;" d="M 20.945312 20.394531 C 20.140625 20.417969 19.496094 20.796875 19.011719 21.535156 C 18.527344 22.277344 18.28125 23.25 18.269531 24.460938 C 18.28125 25.671875 18.527344 26.644531 19.011719 27.382812 C 19.496094 28.125 20.140625 28.503906 20.945312 28.523438 C 21.75 28.503906 22.394531 28.125 22.878906 27.382812 C 23.359375 26.644531 23.609375 25.671875 23.621094 24.460938 C 23.609375 23.304688 23.359375 22.347656 22.878906 21.582031 C 22.394531 20.820312 21.75 20.425781 20.945312 20.394531 Z M 20.945312 21.628906 C 21.332031 21.621094 21.644531 21.847656 21.875 22.300781 C 22.109375 22.753906 22.226562 23.476562 22.234375 24.460938 C 22.226562 25.445312 22.109375 26.164062 21.875 26.621094 C 21.644531 27.074219 21.332031 27.296875 20.945312 27.292969 C 20.558594 27.296875 20.246094 27.074219 20.015625 26.621094 C 19.78125 26.164062 19.664062 25.445312 19.65625 24.460938 C 19.664062 23.476562 19.78125 22.753906 20.015625 22.300781 C 20.246094 21.847656 20.558594 21.621094 20.945312 21.628906 Z M 20.945312 21.628906 "/>
</g>
</svg>
