<?xml version="1.0" encoding="UTF-8"?>
<svg xmlns="http://www.w3.org/2000/svg" xmlns:xlink="http://www.w3.org/1999/xlink" width="35px" height="35px" viewBox="0 0 35 35" version="1.1">
<g id="surface1">
<path style=" stroke:none;fill-rule:nonzero;fill:rgb(100%,100%,100%);fill-opacity:1;" d="M 35 17.5 C 35 27.164062 27.164062 35 17.5 35 C 7.835938 35 0 27.164062 0 17.5 C 0 7.835938 7.835938 0 17.5 0 C 27.164062 0 35 7.835938 35 17.5 Z M 35 17.5 "/>
<path style="fill:none;stroke-width:0.170718;stroke-linecap:butt;stroke-linejoin:miter;stroke:rgb(0%,0%,0%);stroke-opacity:1;stroke-miterlimit:4;" d="M -65.613942 432.259967 C -65.613942 448.53332 -75.511214 461.724898 -87.720655 461.724898 C -99.930095 461.724898 -109.827367 448.53332 -109.827367 432.259967 C -109.827367 415.986615 -99.930095 402.795036 -87.720655 402.795036 C -75.511214 402.795036 -65.613942 415.986615 -65.613942 432.259967 Z M -65.613942 432.259967 " transform="matrix(0.788964,0,0,0.591938,86.708463,-238.371011)"/>
<path style=" stroke:none;fill-rule:nonzero;fill:rgb(100%,0%,0%);fill-opacity:1;" d="M 17.5 0.582031 C 8.15625 0.582031 0.582031 8.15625 0.582031 17.5 C 0.582031 26.84375 8.15625 34.417969 17.5 34.417969 C 26.84375 34.417969 34.417969 26.84375 34.417969 17.5 C 34.417969 8.15625 26.84375 0.582031 17.5 0.582031 Z M 17.5 3.445312 C 25.261719 3.445312 31.554688 9.738281 31.554688 17.5 C 31.554688 25.261719 25.261719 31.554688 17.5 31.554688 C 9.738281 31.554688 3.445312 25.261719 3.445312 17.5 C 3.445312 9.738281 9.738281 3.445312 17.5 3.445312 Z M 17.5 3.445312 "/>
<path style=" stroke:none;fill-rule:nonzero;fill:rgb(0%,0%,0%);fill-opacity:1;" d="M 21.4375 13.496094 C 21.195312 13.496094 20.9375 13.683594 20.859375 13.910156 L 20.566406 14.757812 L 19.960938 16.515625 C 19.960938 16.519531 19.960938 16.519531 19.960938 16.523438 L 19.816406 16.929688 C 19.472656 16.929688 19.195312 17.210938 19.195312 17.554688 L 19.195312 20.050781 C 19.195312 20.398438 19.472656 20.675781 19.816406 20.675781 L 29.183594 20.675781 C 29.527344 20.675781 29.804688 20.398438 29.804688 20.050781 L 29.804688 17.554688 C 29.804688 17.210938 29.527344 16.929688 29.183594 16.929688 L 29.039062 16.523438 C 29.039062 16.519531 29.039062 16.519531 29.039062 16.515625 L 28.433594 14.757812 L 28.140625 13.910156 C 28.0625 13.683594 27.804688 13.496094 27.5625 13.496094 Z M 21.628906 14.121094 L 27.371094 14.121094 C 27.492188 14.121094 27.621094 14.214844 27.660156 14.328125 L 28.558594 16.929688 L 20.441406 16.929688 L 21.339844 14.328125 C 21.378906 14.214844 21.507812 14.121094 21.628906 14.121094 Z M 21.628906 14.121094 "/>
<path style=" stroke:none;fill-rule:nonzero;fill:rgb(0%,0%,0%);fill-opacity:1;" d="M 19.816406 20.988281 L 19.816406 22.238281 C 19.816406 22.753906 20.238281 23.171875 20.753906 23.171875 C 21.269531 23.171875 21.691406 22.753906 21.691406 22.238281 L 21.691406 20.988281 Z M 19.816406 20.988281 "/>
<path style=" stroke:none;fill-rule:nonzero;fill:rgb(0%,0%,0%);fill-opacity:1;" d="M 27.308594 20.988281 L 27.308594 22.238281 C 27.308594 22.753906 27.726562 23.171875 28.246094 23.171875 C 28.761719 23.171875 29.183594 22.753906 29.183594 22.238281 L 29.183594 20.988281 Z M 27.308594 20.988281 "/>
<path style=" stroke:none;fill-rule:nonzero;fill:rgb(100%,0%,0%);fill-opacity:1;" d="M 15.75 22.296875 C 15.75 22.796875 16.15625 23.203125 16.652344 23.203125 C 17.152344 23.203125 17.554688 22.796875 17.554688 22.296875 L 17.554688 19.816406 L 18.066406 19.816406 L 18.066406 10.046875 C 18.066406 9.488281 17.609375 9.03125 17.046875 9.03125 L 7.789062 9.03125 C 7.230469 9.03125 6.773438 9.488281 6.773438 10.046875 L 6.773438 19.816406 L 7.28125 19.816406 L 7.28125 22.296875 C 7.28125 22.796875 7.6875 23.203125 8.183594 23.203125 C 8.683594 23.203125 9.089844 22.796875 9.089844 22.296875 L 9.089844 19.816406 L 10.207031 19.816406 C 10.441406 19.816406 10.65625 19.886719 10.839844 20.007812 C 11.289062 20.3125 11.832031 20.492188 12.417969 20.492188 C 13.003906 20.492188 13.550781 20.3125 14 20.007812 C 14.179688 19.886719 14.398438 19.816406 14.632812 19.816406 L 15.75 19.816406 Z M 15.75 22.296875 "/>
</g>
</svg>
