<?xml version="1.0" encoding="UTF-8"?>
<svg xmlns="http://www.w3.org/2000/svg" xmlns:xlink="http://www.w3.org/1999/xlink" width="35px" height="35px" viewBox="0 0 35 35" version="1.1">
<g id="surface1">
<path style=" stroke:none;fill-rule:nonzero;fill:rgb(100%,80%,0%);fill-opacity:1;" d="M 35 17.5 C 35 27.164062 27.164062 35 17.5 35 C 7.835938 35 0 27.164062 0 17.5 C 0 7.835938 7.835938 0 17.5 0 C 27.164062 0 35 7.835938 35 17.5 Z M 35 17.5 "/>
<path style="fill:none;stroke-width:0.170718;stroke-linecap:butt;stroke-linejoin:miter;stroke:rgb(0%,0%,0%);stroke-opacity:1;stroke-miterlimit:4;" d="M -65.613942 432.259967 C -65.613942 448.53332 -75.511214 461.724898 -87.720655 461.724898 C -99.930095 461.724898 -109.827367 448.53332 -109.827367 432.259967 C -109.827367 415.986615 -99.930095 402.795036 -87.720655 402.795036 C -75.511214 402.795036 -65.613942 415.986615 -65.613942 432.259967 Z M -65.613942 432.259967 " transform="matrix(0.788964,0,0,0.591938,86.708463,-238.371011)"/>
<path style=" stroke:none;fill-rule:nonzero;fill:rgb(100%,0%,0%);fill-opacity:1;" d="M 17.5 0.582031 C 8.15625 0.582031 0.582031 8.15625 0.582031 17.5 C 0.582031 26.84375 8.15625 34.417969 17.5 34.417969 C 26.84375 34.417969 34.417969 26.84375 34.417969 17.5 C 34.417969 8.15625 26.84375 0.582031 17.5 0.582031 Z M 17.5 3.445312 C 25.261719 3.445312 31.554688 9.738281 31.554688 17.5 C 31.554688 25.261719 25.261719 31.554688 17.5 31.554688 C 9.738281 31.554688 3.445312 25.261719 3.445312 17.5 C 3.445312 9.738281 9.738281 3.445312 17.5 3.445312 Z M 17.5 3.445312 "/>
<path style=" stroke:none;fill-rule:nonzero;fill:rgb(0%,0%,0%);fill-opacity:1;" d="M 15.550781 13.308594 L 16.171875 11.289062 L 9.03125 11.289062 L 9.03125 17.34375 L 10.429688 18.121094 C 10.585938 18.015625 10.816406 17.839844 11.128906 17.597656 C 11.4375 17.355469 11.828125 17.21875 12.292969 17.191406 C 12.996094 17.21875 13.53125 17.472656 13.902344 17.945312 C 14.273438 18.421875 14.460938 18.945312 14.464844 19.519531 C 14.425781 20.292969 14.117188 20.875 13.535156 21.265625 C 12.953125 21.652344 12.332031 21.847656 11.671875 21.847656 C 11.148438 21.851562 10.625 21.8125 10.097656 21.726562 C 9.570312 21.640625 9.109375 21.476562 8.722656 21.226562 L 9.03125 23.242188 C 9.066406 23.269531 9.386719 23.375 9.984375 23.554688 C 10.582031 23.734375 11.246094 23.839844 11.980469 23.863281 C 13.472656 23.832031 14.644531 23.394531 15.496094 22.546875 C 16.34375 21.699219 16.777344 20.636719 16.792969 19.363281 C 16.746094 18.113281 16.339844 17.15625 15.570312 16.492188 C 14.804688 15.824219 13.972656 15.488281 13.070312 15.480469 C 12.703125 15.476562 12.335938 15.527344 11.96875 15.636719 C 11.601562 15.746094 11.292969 15.953125 11.050781 16.257812 L 11.050781 13.308594 Z M 15.550781 13.308594 "/>
<path style=" stroke:none;fill-rule:nonzero;fill:rgb(0%,0%,0%);fill-opacity:1;" d="M 22.585938 11.136719 C 21.324219 11.167969 20.316406 11.761719 19.558594 12.921875 C 18.804688 14.078125 18.414062 15.605469 18.394531 17.5 C 18.414062 19.394531 18.804688 20.921875 19.558594 22.078125 C 20.316406 23.238281 21.324219 23.832031 22.585938 23.863281 C 23.847656 23.832031 24.855469 23.238281 25.613281 22.078125 C 26.371094 20.921875 26.757812 19.394531 26.777344 17.5 C 26.757812 15.691406 26.371094 14.191406 25.613281 12.996094 C 24.855469 11.800781 23.847656 11.179688 22.585938 11.136719 Z M 22.585938 13.066406 C 23.195312 13.054688 23.679688 13.40625 24.046875 14.117188 C 24.410156 14.828125 24.597656 15.957031 24.605469 17.5 C 24.597656 19.042969 24.410156 20.171875 24.046875 20.882812 C 23.679688 21.59375 23.195312 21.945312 22.585938 21.933594 C 21.980469 21.945312 21.492188 21.59375 21.128906 20.882812 C 20.765625 20.171875 20.578125 19.042969 20.570312 17.5 C 20.578125 15.957031 20.765625 14.828125 21.128906 14.117188 C 21.492188 13.40625 21.980469 13.054688 22.585938 13.066406 Z M 22.585938 13.066406 "/>
</g>
</svg>
