<?xml version="1.0" encoding="UTF-8"?>
<svg xmlns="http://www.w3.org/2000/svg" xmlns:xlink="http://www.w3.org/1999/xlink" width="35px" height="35px" viewBox="0 0 35 35" version="1.1">
<g id="surface1">
<path style=" stroke:none;fill-rule:nonzero;fill:rgb(100%,100%,100%);fill-opacity:1;" d="M 35 17.5 C 35 27.164062 27.164062 35 17.5 35 C 7.835938 35 0 27.164062 0 17.5 C 0 7.835938 7.835938 0 17.5 0 C 27.164062 0 35 7.835938 35 17.5 Z M 35 17.5 "/>
<path style=" stroke:none;fill-rule:nonzero;fill:rgb(0%,0%,0%);fill-opacity:1;" d="M 8.546875 13.546875 C 8.171875 13.546875 7.820312 13.734375 7.609375 14.046875 L 5.835938 16.671875 C 5.710938 16.855469 5.644531 17.078125 5.644531 17.300781 L 5.644531 20.773438 C 5.644531 21.398438 6.152344 21.902344 6.773438 21.902344 L 7.792969 21.902344 C 7.851562 20.644531 8.890625 19.644531 10.160156 19.644531 C 11.433594 19.644531 12.46875 20.644531 12.527344 21.902344 L 21.34375 21.902344 C 21.382812 21.003906 21.929688 20.234375 22.699219 19.871094 L 12.871094 19.871094 L 12.871094 14.675781 C 12.871094 14.054688 12.367188 13.546875 11.742188 13.546875 Z M 8.605469 14.226562 L 11.175781 14.226562 C 11.488281 14.226562 11.742188 14.480469 11.742188 14.789062 L 11.742188 16.371094 C 11.742188 16.683594 11.488281 16.933594 11.175781 16.933594 L 7.539062 16.933594 C 7.226562 16.933594 6.972656 16.683594 6.972656 16.371094 C 6.972656 16.257812 7.007812 16.148438 7.070312 16.054688 L 8.136719 14.472656 C 8.242188 14.320312 8.417969 14.226562 8.605469 14.226562 Z M 8.605469 14.226562 "/>
<path style=" stroke:none;fill-rule:nonzero;fill:rgb(0%,0%,0%);fill-opacity:1;" d="M 14.679688 10.160156 C 14.050781 10.160156 13.546875 10.664062 13.546875 11.292969 L 13.546875 19.195312 L 28.226562 19.195312 L 28.226562 11.292969 C 28.226562 10.664062 27.722656 10.160156 27.097656 10.160156 Z M 19.183594 12.140625 C 19.667969 12.144531 20.046875 12.273438 20.324219 12.53125 C 20.582031 12.773438 20.714844 13.085938 20.714844 13.464844 C 20.714844 13.910156 20.449219 14.28125 19.921875 14.578125 C 20.265625 14.835938 20.476562 15.015625 20.5625 15.117188 C 20.753906 15.339844 20.84375 15.628906 20.84375 15.972656 C 20.84375 16.328125 20.714844 16.621094 20.457031 16.859375 C 20.15625 17.136719 19.730469 17.273438 19.175781 17.273438 C 18.65625 17.273438 18.246094 17.136719 17.9375 16.855469 C 17.664062 16.609375 17.527344 16.316406 17.527344 15.972656 C 17.527344 15.628906 17.621094 15.339844 17.804688 15.113281 C 17.898438 14.996094 18.113281 14.816406 18.449219 14.574219 C 17.929688 14.296875 17.671875 13.929688 17.671875 13.476562 C 17.671875 13.085938 17.796875 12.769531 18.054688 12.527344 C 18.332031 12.265625 18.707031 12.136719 19.183594 12.140625 Z M 19.183594 12.890625 C 18.980469 12.890625 18.820312 12.9375 18.699219 13.03125 C 18.578125 13.121094 18.519531 13.242188 18.519531 13.382812 C 18.519531 13.679688 18.742188 13.941406 19.183594 14.171875 C 19.628906 13.949219 19.851562 13.683594 19.851562 13.386719 C 19.851562 13.242188 19.792969 13.125 19.671875 13.03125 C 19.550781 12.9375 19.386719 12.890625 19.183594 12.890625 Z M 21.980469 13.589844 L 24.851562 13.589844 L 24.851562 14.28125 L 23.8125 14.28125 L 23.8125 17.195312 L 23.042969 17.195312 L 23.042969 14.28125 L 21.980469 14.28125 Z M 19.199219 14.972656 C 18.691406 15.261719 18.4375 15.589844 18.4375 15.949219 C 18.4375 16.308594 18.6875 16.488281 19.183594 16.488281 C 19.683594 16.488281 19.933594 16.304688 19.933594 15.941406 C 19.933594 15.582031 19.691406 15.257812 19.199219 14.972656 Z M 19.199219 14.972656 "/>
<path style=" stroke:none;fill-rule:nonzero;fill:rgb(0%,0%,0%);fill-opacity:1;" d="M 23.710938 20.097656 C 22.648438 20.097656 21.789062 20.957031 21.789062 22.015625 C 21.789062 23.074219 22.648438 23.933594 23.710938 23.933594 C 24.769531 23.933594 25.628906 23.074219 25.628906 22.015625 C 25.628906 20.957031 24.769531 20.097656 23.710938 20.097656 Z M 23.710938 21 C 24.269531 21 24.726562 21.453125 24.726562 22.015625 C 24.726562 22.578125 24.269531 23.03125 23.710938 23.03125 C 23.148438 23.03125 22.695312 22.578125 22.695312 22.015625 C 22.695312 21.453125 23.148438 21 23.710938 21 Z M 23.710938 21 "/>
<path style=" stroke:none;fill-rule:nonzero;fill:rgb(0%,0%,0%);fill-opacity:1;" d="M 26.078125 21.902344 C 26.035156 21.003906 25.492188 20.234375 24.71875 19.871094 L 28.226562 19.871094 L 28.226562 21.902344 Z M 26.078125 21.902344 "/>
<path style=" stroke:none;fill-rule:nonzero;fill:rgb(0%,0%,0%);fill-opacity:1;" d="M 10.160156 20.097656 C 9.101562 20.097656 8.242188 20.957031 8.242188 22.015625 C 8.242188 23.074219 9.101562 23.933594 10.160156 23.933594 C 11.222656 23.933594 12.082031 23.074219 12.082031 22.015625 C 12.082031 20.957031 11.222656 20.097656 10.160156 20.097656 Z M 10.160156 21 C 10.722656 21 11.175781 21.453125 11.175781 22.015625 C 11.175781 22.578125 10.722656 23.03125 10.160156 23.03125 C 9.601562 23.03125 9.144531 22.578125 9.144531 22.015625 C 9.144531 21.453125 9.601562 21 10.160156 21 Z M 10.160156 21 "/>
<path style="fill:none;stroke-width:0.170718;stroke-linecap:butt;stroke-linejoin:miter;stroke:rgb(0%,0%,0%);stroke-opacity:1;stroke-miterlimit:4;" d="M -65.613942 432.259967 C -65.613942 448.53332 -75.511214 461.724898 -87.720655 461.724898 C -99.930095 461.724898 -109.827367 448.53332 -109.827367 432.259967 C -109.827367 415.986615 -99.930095 402.795036 -87.720655 402.795036 C -75.511214 402.795036 -65.613942 415.986615 -65.613942 432.259967 Z M -65.613942 432.259967 " transform="matrix(0.788964,0,0,0.591938,86.708463,-238.371011)"/>
<path style=" stroke:none;fill-rule:nonzero;fill:rgb(100%,0%,0%);fill-opacity:1;" d="M 17.5 0.582031 C 8.15625 0.582031 0.582031 8.15625 0.582031 17.5 C 0.582031 26.84375 8.15625 34.417969 17.5 34.417969 C 26.84375 34.417969 34.417969 26.84375 34.417969 17.5 C 34.417969 8.15625 26.84375 0.582031 17.5 0.582031 Z M 17.5 3.445312 C 25.261719 3.445312 31.554688 9.738281 31.554688 17.5 C 31.554688 25.261719 25.261719 31.554688 17.5 31.554688 C 9.738281 31.554688 3.445312 25.261719 3.445312 17.5 C 3.445312 9.738281 9.738281 3.445312 17.5 3.445312 Z M 17.5 3.445312 "/>
</g>
</svg>
