<?xml version="1.0" encoding="UTF-8"?>
<svg xmlns="http://www.w3.org/2000/svg" xmlns:xlink="http://www.w3.org/1999/xlink" width="35px" height="35px" viewBox="0 0 35 35" version="1.1">
<g id="surface1">
<path style=" stroke:none;fill-rule:nonzero;fill:rgb(100%,100%,100%);fill-opacity:1;" d="M 35 17.5 C 35 27.164062 27.164062 35 17.5 35 C 7.835938 35 0 27.164062 0 17.5 C 0 7.835938 7.835938 0 17.5 0 C 27.164062 0 35 7.835938 35 17.5 Z M 35 17.5 "/>
<path style="fill:none;stroke-width:0.170718;stroke-linecap:butt;stroke-linejoin:miter;stroke:rgb(0%,0%,0%);stroke-opacity:1;stroke-miterlimit:4;" d="M -65.613942 432.259967 C -65.613942 448.53332 -75.511214 461.724898 -87.720655 461.724898 C -99.930095 461.724898 -109.827367 448.53332 -109.827367 432.259967 C -109.827367 415.986615 -99.930095 402.795036 -87.720655 402.795036 C -75.511214 402.795036 -65.613942 415.986615 -65.613942 432.259967 Z M -65.613942 432.259967 " transform="matrix(0.788964,0,0,0.591938,86.708463,-238.371011)"/>
<path style=" stroke:none;fill-rule:nonzero;fill:rgb(100%,0%,0%);fill-opacity:1;" d="M 17.5 0.582031 C 8.15625 0.582031 0.582031 8.15625 0.582031 17.5 C 0.582031 26.84375 8.15625 34.417969 17.5 34.417969 C 26.84375 34.417969 34.417969 26.84375 34.417969 17.5 C 34.417969 8.15625 26.84375 0.582031 17.5 0.582031 Z M 17.5 3.445312 C 25.261719 3.445312 31.554688 9.738281 31.554688 17.5 C 31.554688 25.261719 25.261719 31.554688 17.5 31.554688 C 9.738281 31.554688 3.445312 25.261719 3.445312 17.5 C 3.445312 9.738281 9.738281 3.445312 17.5 3.445312 Z M 17.5 3.445312 "/>
<path style=" stroke:none;fill-rule:nonzero;fill:rgb(0%,0%,0%);fill-opacity:1;" d="M 11.402344 11.628906 C 11.277344 11.628906 11.175781 11.730469 11.175781 11.855469 L 11.175781 13.324219 C 11.175781 13.449219 11.277344 13.546875 11.402344 13.546875 L 11.847656 13.546875 L 10.621094 16.617188 C 10.304688 16.53125 9.96875 16.484375 9.625 16.484375 C 7.503906 16.484375 5.785156 18.203125 5.785156 20.324219 C 5.785156 22.441406 7.503906 24.160156 9.625 24.160156 C 11.746094 24.160156 13.464844 22.441406 13.464844 20.324219 C 13.464844 18.867188 12.652344 17.601562 11.460938 16.953125 C 11.832031 16.019531 12.203125 15.089844 12.578125 14.160156 L 14.464844 20.96875 C 14.601562 21.453125 15.046875 21.789062 15.550781 21.789062 L 20.890625 21.789062 C 20.742188 21.328125 20.660156 20.835938 20.660156 20.324219 C 20.660156 18.90625 21.28125 17.636719 22.265625 16.765625 C 22.316406 16.722656 22.34375 16.660156 22.34375 16.597656 C 22.34375 16.472656 22.242188 16.371094 22.117188 16.371094 L 18.066406 16.371094 L 17.089844 18.316406 C 16.996094 18.507812 16.800781 18.628906 16.585938 18.628906 L 15.125 18.628906 C 14.871094 18.628906 14.648438 18.460938 14.582031 18.214844 L 13.953125 15.957031 C 13.871094 15.65625 14.046875 15.347656 14.347656 15.261719 C 14.398438 15.25 14.449219 15.242188 14.5 15.242188 L 16.992188 15.242188 C 17.460938 15.242188 17.839844 14.863281 17.839844 14.394531 C 17.839844 13.925781 17.460938 13.546875 16.992188 13.546875 L 12.644531 13.546875 L 13.433594 12.417969 L 14.339844 12.417969 C 14.558594 12.417969 14.734375 12.242188 14.734375 12.023438 C 14.734375 11.804688 14.558594 11.628906 14.339844 11.628906 Z M 9.625 17.726562 C 9.808594 17.726562 9.984375 17.746094 10.15625 17.78125 L 9.589844 19.195312 C 8.984375 19.214844 8.496094 19.710938 8.496094 20.324219 C 8.496094 20.945312 9 21.453125 9.625 21.453125 C 10.25 21.453125 10.753906 20.945312 10.753906 20.324219 C 10.753906 20.011719 10.628906 19.734375 10.429688 19.527344 C 10.617188 19.058594 10.804688 18.585938 10.992188 18.117188 C 11.730469 18.574219 12.222656 19.390625 12.222656 20.324219 C 12.222656 21.757812 11.058594 22.917969 9.625 22.917969 C 8.191406 22.917969 7.027344 21.757812 7.027344 20.324219 C 7.027344 18.886719 8.191406 17.726562 9.625 17.726562 Z M 9.625 17.726562 "/>
<path style=" stroke:none;fill-rule:nonzero;fill:rgb(0%,0%,0%);fill-opacity:1;" d="M 25.402344 17.726562 C 26.835938 17.726562 28 18.886719 28 20.324219 C 28 21.757812 26.835938 22.917969 25.402344 22.917969 C 23.96875 22.917969 22.804688 21.757812 22.804688 20.324219 C 22.804688 19.390625 23.296875 18.574219 24.035156 18.117188 L 24.597656 19.527344 C 24.398438 19.734375 24.273438 20.011719 24.273438 20.324219 C 24.273438 20.945312 24.78125 21.453125 25.402344 21.453125 C 26.027344 21.453125 26.53125 20.945312 26.53125 20.324219 C 26.53125 19.710938 26.046875 19.214844 25.4375 19.195312 L 24.871094 17.78125 C 25.042969 17.746094 25.222656 17.726562 25.402344 17.726562 Z M 18.628906 15.695312 L 23.066406 15.695312 L 23.570312 16.953125 C 22.375 17.601562 21.566406 18.867188 21.566406 20.324219 C 21.566406 22.441406 23.28125 24.160156 25.402344 24.160156 C 27.523438 24.160156 29.242188 22.441406 29.242188 20.324219 C 29.242188 18.203125 27.523438 16.484375 25.402344 16.484375 C 25.058594 16.484375 24.722656 16.53125 24.40625 16.617188 L 24.039062 15.695312 L 25.910156 15.695312 L 25.910156 15.128906 C 25.910156 14.566406 25.457031 14.113281 24.894531 14.113281 L 19.769531 14.113281 C 19.554688 14.113281 19.359375 14.234375 19.261719 14.425781 Z M 18.628906 15.695312 "/>
</g>
</svg>
