<?xml version="1.0" encoding="UTF-8"?>
<svg xmlns="http://www.w3.org/2000/svg" xmlns:xlink="http://www.w3.org/1999/xlink" width="35px" height="35px" viewBox="0 0 35 35" version="1.1">
<g id="surface1">
<path style="fill-rule:nonzero;fill:rgb(100%,100%,100%);fill-opacity:1;stroke-width:1;stroke-linecap:butt;stroke-linejoin:miter;stroke:rgb(0.392157%,0.392157%,0.392157%);stroke-opacity:1;stroke-miterlimit:4;" d="M 570.490179 285.5 C 570.490179 442.907366 442.907366 570.490179 285.5 570.490179 C 128.092634 570.490179 0.509821 442.907366 0.509821 285.5 C 0.509821 128.092634 128.092634 0.509821 285.5 0.509821 C 442.907366 0.509821 570.490179 128.092634 570.490179 285.5 Z M 570.490179 285.5 " transform="matrix(0.061296,0,0,0.061296,0,0)"/>
<path style=" stroke:none;fill-rule:nonzero;fill:rgb(16.078431%,65.098039%,87.45098%);fill-opacity:1;" d="M 33.867188 17.484375 C 33.867188 26.53125 26.53125 33.867188 17.484375 33.867188 C 8.4375 33.867188 1.101562 26.53125 1.101562 17.484375 C 1.101562 8.4375 8.4375 1.101562 17.484375 1.101562 C 26.53125 1.101562 33.867188 8.4375 33.867188 17.484375 Z M 33.867188 17.484375 "/>
<path style=" stroke:none;fill-rule:evenodd;fill:rgb(100%,100%,100%);fill-opacity:1;" d="M 15.886719 6.8125 C 16.535156 6.8125 17.050781 7.351562 17.050781 8.011719 C 17.050781 8.664062 16.535156 9.191406 15.886719 9.191406 C 15.238281 9.191406 14.699219 8.664062 14.699219 8.011719 C 14.699219 7.351562 15.238281 6.8125 15.886719 6.8125 "/>
<path style=" stroke:none;fill-rule:evenodd;fill:rgb(100%,100%,100%);fill-opacity:1;" d="M 18.085938 20.097656 L 18.105469 20.125 C 17.160156 20.125 15.230469 20.167969 14.289062 19.957031 C 14.300781 21.109375 14.496094 22.203125 14.777344 23.195312 C 15.109375 23.878906 15.757812 24.367188 16.140625 25.226562 C 15.992188 25.308594 16.554688 25.597656 16.417969 25.707031 C 16.527344 26.308594 16.847656 26.457031 16.796875 27.042969 C 16.195312 27.054688 15.5 27.019531 14.910156 27.042969 C 15.007812 26.578125 15.460938 26.457031 15.695312 26.125 C 15.144531 25.613281 13.828125 24.96875 13.898438 24.03125 C 13.199219 23.386719 12.46875 22.734375 12.878906 21.332031 C 12.742188 21.011719 12.167969 20.160156 12.167969 19.804688 C 11.332031 19.964844 10.621094 20.707031 9.789062 20.875 C 9.738281 21.476562 9.566406 21.84375 9.371094 22.335938 L 9.457031 23.828125 L 8.292969 23.699219 C 7.53125 23.5 8.242188 23.132812 8.242188 22.582031 C 8.34375 21.957031 8.195312 21.453125 8.195312 20.902344 C 8.195312 20.351562 8.429688 20.277344 8.796875 20.03125 C 9.789062 18.953125 10.5625 19.027344 11.394531 18.597656 C 10.785156 17.277344 10.984375 12.472656 9.925781 12.269531 C 9.632812 12.617188 9.207031 12.644531 8.707031 12.863281 C 8.816406 13.230469 8.539062 13.03125 8.515625 13.398438 C 8.292969 13.582031 7.765625 13.714844 7.472656 13.664062 C 6.761719 13.222656 7.132812 13.199219 7.269531 12.757812 L 8.425781 10.265625 L 8.800781 9.058594 L 9.304688 9.671875 C 11.722656 8.515625 14.355469 12.550781 13.765625 13.070312 C 15.15625 12.128906 15.203125 11.910156 16.035156 10.414062 C 16.648438 9.59375 17.039062 8.691406 17.507812 9.894531 C 17.855469 10.90625 19.046875 11.542969 19.394531 12.558594 C 19.523438 13.789062 20.378906 13.65625 19.679688 14.121094 C 19.597656 14.167969 19.515625 14.214844 19.433594 14.261719 C 21.339844 14.328125 23.4375 14.628906 24.328125 15.496094 C 24.351562 15.496094 24.390625 15.445312 24.390625 15.445312 C 25.6875 14.320312 27.90625 15.507812 28.445312 16.597656 L 29.234375 19.878906 L 27.25 19.960938 C 27.53125 16.371094 25.652344 15.386719 24.964844 16.15625 C 24.964844 16.171875 24.929688 16.230469 24.941406 16.257812 C 25.640625 17.394531 25.105469 16.949219 24.960938 18.867188 C 25.195312 19.640625 26.917969 21.402344 27.003906 21.699219 C 27.257812 24.429688 26.296875 24.121094 27.285156 25.664062 C 27.542969 26.03125 26.921875 26.515625 27.351562 26.929688 C 26.609375 26.972656 26.589844 27.128906 25.898438 26.753906 C 25.664062 26.753906 25.945312 25.511719 25.710938 25.511719 C 25.339844 24.640625 25.859375 23.398438 25.59375 22.378906 C 25.359375 21.925781 23.1875 20.484375 22.699219 20.03125 C 21.902344 20.289062 23.703125 22.839844 23.554688 23.464844 C 23.457031 23.464844 23.261719 23.609375 23.164062 23.609375 C 22.476562 24.445312 22.035156 25.253906 21.433594 26.074219 C 21.3125 26.148438 21.042969 26.074219 20.855469 26.171875 C 20.820312 26.515625 20.894531 26.699219 20.96875 27.019531 C 20.417969 27.019531 19.691406 27.007812 19.152344 27.007812 C 19.214844 26.675781 19.695312 26.179688 20.109375 25.738281 C 20.332031 25.074219 20.496094 24.789062 20.695312 24.542969 C 21.050781 23.722656 21.289062 23.089844 21.71875 22.292969 C 21.269531 21.722656 20.101562 21.199219 20.234375 19.804688 C 20.011719 19.898438 19.195312 19.695312 18.632812 19.804688 C 18.503906 19.960938 18.304688 20.070312 18.085938 20.097656 Z M 14.835938 13.949219 C 15.152344 14.175781 15.421875 14.375 15.503906 14.519531 C 16.3125 14.082031 16.460938 13.925781 17.269531 13.484375 C 16.871094 12.910156 16.65625 12.804688 16.257812 12.226562 C 15.234375 12.953125 14.816406 12.960938 14.835938 13.949219 "/>
</g>
</svg>
