<?xml version="1.0" encoding="UTF-8"?>
<svg xmlns="http://www.w3.org/2000/svg" xmlns:xlink="http://www.w3.org/1999/xlink" width="35px" height="35px" viewBox="0 0 35 35" version="1.1">
<g id="surface1">
<path style=" stroke:none;fill-rule:nonzero;fill:rgb(100%,100%,100%);fill-opacity:1;" d="M 35 17.5 C 35 27.164062 27.164062 35 17.5 35 C 7.835938 35 0 27.164062 0 17.5 C 0 7.835938 7.835938 0 17.5 0 C 27.164062 0 35 7.835938 35 17.5 Z M 35 17.5 "/>
<path style="fill:none;stroke-width:0.14626;stroke-linecap:butt;stroke-linejoin:miter;stroke:rgb(0%,0%,0%);stroke-opacity:1;stroke-miterlimit:4;" d="M -65.614601 432.25997 C -65.614601 448.532148 -75.512095 461.724023 -87.720653 461.724023 C -99.929212 461.724023 -109.826705 448.532148 -109.826705 432.25997 C -109.826705 415.987793 -99.929212 402.795918 -87.720653 402.795918 C -75.512095 402.795918 -65.614601 415.987793 -65.614601 432.25997 Z M -65.614601 432.25997 " transform="matrix(0.789341,0,0,0.592221,86.74153,-238.493259)"/>
<path style=" stroke:none;fill-rule:nonzero;fill:rgb(5.098039%,41.176471%,88.235294%);fill-opacity:1;" d="M 16.9375 1.007812 C 8.085938 1.308594 1 8.574219 1 17.5 C 1 26.425781 8.085938 33.691406 16.9375 33.992188 Z M 18.0625 1.007812 L 18.0625 33.992188 C 26.914062 33.691406 34 26.425781 34 17.5 C 34 8.574219 26.914062 1.308594 18.0625 1.007812 Z M 24.378906 6.945312 C 24.8125 6.945312 25.535156 7.199219 25.535156 8.007812 C 25.535156 8.941406 24.023438 9.683594 23.550781 9.683594 C 22.882812 9.683594 22.574219 8.917969 22.574219 8.441406 C 22.574219 7.273438 24.011719 6.945312 24.378906 6.945312 Z M 24.664062 9.890625 C 24.800781 9.890625 24.9375 9.925781 25.058594 9.996094 L 27.570312 11.445312 C 27.816406 11.585938 27.96875 11.847656 27.96875 12.128906 L 27.96875 14.890625 C 27.96875 15.21875 27.703125 15.480469 27.375 15.480469 C 27.046875 15.480469 26.78125 15.21875 26.78125 14.890625 L 26.78125 12.359375 L 25.5625 11.652344 L 25.5625 14.960938 C 25.5625 15.066406 25.519531 15.164062 25.445312 15.238281 L 22.238281 18.445312 L 21.347656 22.011719 C 21.25 22.414062 20.839844 22.65625 20.4375 22.558594 C 20.035156 22.457031 19.792969 22.050781 19.894531 21.648438 L 20.988281 17.265625 C 21.007812 17.195312 21.046875 17.128906 21.097656 17.078125 L 23.054688 15.117188 L 23.054688 10.925781 C 23.054688 10.785156 23.132812 10.652344 23.253906 10.582031 L 24.269531 9.996094 C 24.390625 9.925781 24.53125 9.890625 24.664062 9.890625 Z M 22.625 12.628906 L 22.625 14.304688 L 21.246094 15.683594 C 21.140625 15.789062 20.992188 15.855469 20.828125 15.855469 C 20.503906 15.855469 20.238281 15.59375 20.238281 15.265625 C 20.238281 15.101562 20.304688 14.953125 20.410156 14.847656 Z M 6.625 13.046875 L 7.875 13.046875 C 8.019531 13.046875 8.136719 13.164062 8.136719 13.308594 C 8.136719 13.449219 8.019531 13.566406 7.875 13.566406 L 6.625 13.566406 C 6.394531 13.566406 6.203125 13.753906 6.203125 13.988281 C 6.203125 14.140625 6.300781 14.277344 6.445312 14.328125 C 6.796875 14.449219 7.035156 14.78125 7.035156 15.15625 C 7.035156 15.230469 7.027344 15.308594 7.007812 15.382812 L 11.460938 15.382812 L 11.613281 15.027344 L 10.46875 15.027344 C 10.253906 15.027344 10.082031 14.851562 10.082031 14.636719 C 10.082031 14.421875 10.253906 14.25 10.46875 14.25 L 12.253906 14.25 C 12.46875 14.25 12.644531 14.421875 12.644531 14.636719 C 12.644531 14.851562 12.46875 15.027344 12.253906 15.027344 L 12.109375 15.027344 L 11.875 15.574219 L 12.851562 16.96875 C 13.191406 16.804688 13.570312 16.710938 13.972656 16.710938 C 15.40625 16.710938 16.570312 17.875 16.570312 19.308594 C 16.570312 20.742188 15.40625 21.902344 13.972656 21.902344 C 12.660156 21.902344 11.578125 20.929688 11.402344 19.664062 L 9.882812 19.664062 L 6.300781 16.925781 L 6.09375 17.367188 C 6.628906 17.84375 6.96875 18.535156 6.96875 19.308594 C 6.96875 20.742188 5.804688 21.902344 4.375 21.902344 C 2.941406 21.902344 1.777344 20.742188 1.777344 19.308594 C 1.777344 17.875 2.941406 16.710938 4.375 16.710938 C 4.84375 16.710938 5.285156 16.839844 5.667969 17.058594 L 6.449219 15.382812 L 6.484375 15.304688 C 6.507812 15.257812 6.515625 15.207031 6.515625 15.15625 C 6.515625 15.003906 6.421875 14.867188 6.277344 14.816406 C 5.921875 14.695312 5.6875 14.359375 5.6875 13.988281 C 5.6875 13.46875 6.105469 13.046875 6.625 13.046875 Z M 25.332031 15.910156 L 28.476562 21.351562 C 28.582031 21.480469 28.648438 21.648438 28.648438 21.832031 C 28.648438 22.246094 28.3125 22.582031 27.898438 22.582031 C 27.621094 22.582031 27.378906 22.429688 27.25 22.203125 L 27.238281 22.203125 L 24.234375 17.007812 Z M 6.820312 15.96875 L 6.554688 16.382812 L 9.933594 18.96875 L 11.214844 15.96875 Z M 11.691406 16.332031 L 10.519531 19.082031 L 11.386719 19.082031 C 11.449219 18.351562 11.816406 17.710938 12.355469 17.28125 Z M 4.316406 17.101562 C 3.125 17.132812 2.167969 18.109375 2.167969 19.308594 C 2.167969 20.527344 3.15625 21.515625 4.375 21.515625 C 5.589844 21.515625 6.578125 20.527344 6.578125 19.308594 C 6.578125 18.695312 6.328125 18.140625 5.921875 17.738281 L 5.425781 18.804688 C 5.34375 18.976562 5.210938 19.125 5.042969 19.21875 L 4.5 19.53125 C 4.378906 19.605469 4.21875 19.5625 4.148438 19.4375 C 4.074219 19.3125 4.117188 19.15625 4.242188 19.082031 L 4.785156 18.769531 C 4.859375 18.726562 4.917969 18.660156 4.957031 18.582031 L 5.5 17.414062 C 5.171875 17.21875 4.785156 17.101562 4.375 17.101562 C 4.355469 17.101562 4.335938 17.101562 4.316406 17.101562 Z M 13.972656 17.101562 C 13.652344 17.101562 13.351562 17.171875 13.078125 17.292969 L 14.34375 19.101562 C 14.457031 19.265625 14.417969 19.488281 14.257812 19.601562 C 14.199219 19.640625 14.125 19.664062 14.054688 19.664062 L 11.796875 19.664062 C 11.96875 20.714844 12.875 21.515625 13.972656 21.515625 C 15.191406 21.515625 16.179688 20.527344 16.179688 19.308594 C 16.179688 18.089844 15.191406 17.101562 13.972656 17.101562 Z M 12.578125 17.597656 C 12.140625 17.957031 11.839844 18.484375 11.78125 19.082031 L 13.617188 19.082031 Z M 12.578125 17.597656 "/>
</g>
</svg>
