<?xml version="1.0" encoding="UTF-8"?>
<svg xmlns="http://www.w3.org/2000/svg" xmlns:xlink="http://www.w3.org/1999/xlink" width="35px" height="35px" viewBox="0 0 35 35" version="1.1">
<g id="surface1">
<path style=" stroke:none;fill-rule:nonzero;fill:rgb(100%,100%,100%);fill-opacity:1;" d="M 35 17.5 C 35 27.164062 27.164062 35 17.5 35 C 7.835938 35 0 27.164062 0 17.5 C 0 7.835938 7.835938 0 17.5 0 C 27.164062 0 35 7.835938 35 17.5 Z M 35 17.5 "/>
<path style="fill:none;stroke-width:0.14626;stroke-linecap:butt;stroke-linejoin:miter;stroke:rgb(0%,0%,0%);stroke-opacity:1;stroke-miterlimit:4;" d="M -65.614601 432.25997 C -65.614601 448.532148 -75.512095 461.724023 -87.720653 461.724023 C -99.929212 461.724023 -109.826705 448.532148 -109.826705 432.25997 C -109.826705 415.987793 -99.929212 402.795918 -87.720653 402.795918 C -75.512095 402.795918 -65.614601 415.987793 -65.614601 432.25997 Z M -65.614601 432.25997 " transform="matrix(0.789341,0,0,0.592221,86.74153,-238.493259)"/>
<path style=" stroke:none;fill-rule:nonzero;fill:rgb(5.098039%,41.176471%,88.235294%);fill-opacity:1;" d="M 16.9375 1.007812 C 8.085938 1.308594 1 8.574219 1 17.5 C 1 26.425781 8.085938 33.691406 16.9375 33.992188 Z M 18.0625 1.007812 L 18.0625 33.992188 C 26.914062 33.691406 34 26.425781 34 17.5 C 34 8.574219 26.914062 1.308594 18.0625 1.007812 Z M 10.320312 6.945312 C 10.753906 6.945312 11.476562 7.199219 11.476562 8.007812 C 11.476562 8.941406 9.96875 9.683594 9.492188 9.683594 C 8.824219 9.683594 8.519531 8.917969 8.519531 8.441406 C 8.519531 7.273438 9.953125 6.945312 10.320312 6.945312 Z M 10.609375 9.890625 C 10.746094 9.890625 10.882812 9.925781 11.003906 9.996094 L 13.515625 11.445312 C 13.757812 11.585938 13.910156 11.847656 13.910156 12.128906 L 13.910156 14.890625 C 13.910156 15.21875 13.644531 15.480469 13.320312 15.480469 C 12.992188 15.480469 12.726562 15.21875 12.726562 14.890625 L 12.726562 12.359375 L 11.503906 11.652344 L 11.503906 14.960938 C 11.503906 15.066406 11.464844 15.164062 11.390625 15.238281 L 8.183594 18.445312 L 7.289062 22.011719 C 7.191406 22.414062 6.78125 22.65625 6.382812 22.558594 C 5.980469 22.457031 5.738281 22.050781 5.835938 21.648438 L 6.933594 17.265625 C 6.949219 17.195312 6.988281 17.128906 7.042969 17.078125 L 9 15.117188 L 9 10.925781 C 9 10.785156 9.074219 10.652344 9.195312 10.582031 L 10.214844 9.996094 C 10.335938 9.925781 10.472656 9.890625 10.609375 9.890625 Z M 8.570312 12.628906 L 8.570312 14.304688 L 7.1875 15.683594 C 7.082031 15.789062 6.9375 15.855469 6.773438 15.855469 C 6.445312 15.855469 6.179688 15.59375 6.179688 15.265625 C 6.179688 15.101562 6.246094 14.953125 6.355469 14.847656 Z M 23.589844 13.046875 L 24.839844 13.046875 C 24.980469 13.046875 25.101562 13.164062 25.101562 13.308594 C 25.101562 13.449219 24.980469 13.566406 24.839844 13.566406 L 23.589844 13.566406 C 23.359375 13.566406 23.167969 13.753906 23.167969 13.988281 C 23.167969 14.140625 23.265625 14.277344 23.410156 14.328125 C 23.761719 14.449219 24 14.78125 24 15.15625 C 24 15.230469 23.992188 15.308594 23.96875 15.382812 L 28.425781 15.382812 L 28.578125 15.027344 L 27.433594 15.027344 C 27.21875 15.027344 27.046875 14.851562 27.046875 14.636719 C 27.046875 14.421875 27.21875 14.25 27.433594 14.25 L 29.21875 14.25 C 29.433594 14.25 29.609375 14.421875 29.609375 14.636719 C 29.609375 14.851562 29.433594 15.027344 29.21875 15.027344 L 29.074219 15.027344 L 28.839844 15.574219 L 29.8125 16.96875 C 30.152344 16.804688 30.535156 16.710938 30.9375 16.710938 C 32.371094 16.710938 33.53125 17.875 33.53125 19.308594 C 33.53125 20.742188 32.371094 21.902344 30.9375 21.902344 C 29.625 21.902344 28.542969 20.929688 28.367188 19.664062 L 26.847656 19.664062 L 23.265625 16.925781 L 23.058594 17.367188 C 23.59375 17.84375 23.929688 18.535156 23.929688 19.308594 C 23.929688 20.742188 22.769531 21.902344 21.335938 21.902344 C 19.902344 21.902344 18.742188 20.742188 18.742188 19.308594 C 18.742188 17.875 19.902344 16.710938 21.335938 16.710938 C 21.808594 16.710938 22.25 16.839844 22.628906 17.058594 L 23.410156 15.382812 L 23.449219 15.304688 C 23.46875 15.257812 23.480469 15.207031 23.480469 15.15625 C 23.480469 15.003906 23.382812 14.867188 23.242188 14.816406 C 22.886719 14.695312 22.648438 14.359375 22.648438 13.988281 C 22.648438 13.46875 23.070312 13.046875 23.589844 13.046875 Z M 11.277344 15.910156 L 14.417969 21.351562 C 14.527344 21.480469 14.59375 21.648438 14.59375 21.832031 C 14.59375 22.246094 14.257812 22.582031 13.84375 22.582031 C 13.5625 22.582031 13.320312 22.429688 13.191406 22.203125 L 13.183594 22.203125 L 10.179688 17.007812 Z M 23.78125 15.96875 L 23.519531 16.382812 L 26.898438 18.96875 L 28.179688 15.96875 Z M 28.65625 16.332031 L 27.484375 19.082031 L 28.351562 19.082031 C 28.414062 18.351562 28.78125 17.710938 29.320312 17.28125 Z M 21.28125 17.101562 C 20.085938 17.132812 19.132812 18.109375 19.132812 19.308594 C 19.132812 20.527344 20.117188 21.515625 21.335938 21.515625 C 22.554688 21.515625 23.542969 20.527344 23.542969 19.308594 C 23.542969 18.695312 23.292969 18.140625 22.886719 17.738281 L 22.390625 18.804688 C 22.308594 18.976562 22.175781 19.125 22.007812 19.21875 L 21.464844 19.53125 C 21.339844 19.605469 21.183594 19.5625 21.109375 19.4375 C 21.039062 19.3125 21.082031 19.15625 21.207031 19.082031 L 21.75 18.769531 C 21.824219 18.726562 21.882812 18.660156 21.917969 18.582031 L 22.464844 17.414062 C 22.136719 17.21875 21.75 17.101562 21.335938 17.101562 C 21.316406 17.101562 21.296875 17.101562 21.28125 17.101562 Z M 30.9375 17.101562 C 30.617188 17.101562 30.316406 17.171875 30.042969 17.292969 L 31.308594 19.101562 C 31.421875 19.265625 31.382812 19.488281 31.222656 19.601562 C 31.160156 19.640625 31.089844 19.664062 31.015625 19.664062 L 28.761719 19.664062 C 28.933594 20.714844 29.839844 21.515625 30.9375 21.515625 C 32.15625 21.515625 33.144531 20.527344 33.144531 19.308594 C 33.144531 18.089844 32.15625 17.101562 30.9375 17.101562 Z M 29.542969 17.597656 C 29.105469 17.957031 28.804688 18.484375 28.742188 19.082031 L 30.582031 19.082031 Z M 29.542969 17.597656 "/>
<path style=" stroke:none;fill-rule:nonzero;fill:rgb(100%,0%,0%);fill-opacity:1;" d="M 27.984375 4.757812 L 4.757812 27.984375 C 5.425781 28.796875 6.171875 29.539062 6.980469 30.210938 L 30.242188 7.015625 C 29.5625 6.191406 28.808594 5.4375 27.984375 4.757812 Z M 27.984375 4.757812 "/>
</g>
</svg>
