<?xml version="1.0" encoding="UTF-8"?>
<svg xmlns="http://www.w3.org/2000/svg" xmlns:xlink="http://www.w3.org/1999/xlink" width="35px" height="35px" viewBox="0 0 35 35" version="1.1">
<g id="surface1">
<path style=" stroke:none;fill-rule:nonzero;fill:rgb(100%,100%,100%);fill-opacity:1;" d="M 35 17.5 C 35 27.164062 27.164062 35 17.5 35 C 7.835938 35 0 27.164062 0 17.5 C 0 7.835938 7.835938 0 17.5 0 C 27.164062 0 35 7.835938 35 17.5 Z M 35 17.5 "/>
<path style="fill:none;stroke-width:0.170718;stroke-linecap:butt;stroke-linejoin:miter;stroke:rgb(0%,0%,0%);stroke-opacity:1;stroke-miterlimit:4;" d="M -65.613942 432.259967 C -65.613942 448.53332 -75.511214 461.724898 -87.720655 461.724898 C -99.930095 461.724898 -109.827367 448.53332 -109.827367 432.259967 C -109.827367 415.986615 -99.930095 402.795036 -87.720655 402.795036 C -75.511214 402.795036 -65.613942 415.986615 -65.613942 432.259967 Z M -65.613942 432.259967 " transform="matrix(0.788964,0,0,0.591938,86.708463,-238.371011)"/>
<path style=" stroke:none;fill-rule:nonzero;fill:rgb(5.098039%,41.176471%,88.235294%);fill-opacity:1;" d="M 17.5 1.167969 C 8.480469 1.167969 1.167969 8.480469 1.167969 17.5 C 1.167969 26.519531 8.480469 33.832031 17.5 33.832031 C 26.519531 33.832031 33.832031 26.519531 33.832031 17.5 C 33.832031 8.480469 26.519531 1.167969 17.5 1.167969 Z M 15.441406 5.824219 L 15.996094 8.96875 C 13.25 9.453125 10.996094 11.199219 9.789062 13.546875 L 13.269531 13.546875 L 8.054688 22.582031 L 2.839844 13.546875 L 6.320312 13.546875 C 7.714844 9.613281 11.132812 6.582031 15.441406 5.824219 Z M 17.824219 6.777344 L 28.253906 6.777344 L 26.511719 9.796875 C 29.222656 12.96875 30.136719 17.445312 28.640625 21.554688 L 25.644531 20.464844 C 26.597656 17.84375 26.207031 15.015625 24.777344 12.796875 L 23.039062 15.808594 Z M 10.863281 23.070312 C 12.65625 25.207031 15.296875 26.285156 17.933594 26.152344 L 16.195312 23.140625 L 26.625 23.140625 L 21.410156 32.171875 L 19.664062 29.15625 C 15.5625 29.917969 11.230469 28.46875 8.417969 25.121094 Z M 10.863281 23.070312 "/>
</g>
</svg>
