<?xml version="1.0" encoding="UTF-8"?>
<svg xmlns="http://www.w3.org/2000/svg" xmlns:xlink="http://www.w3.org/1999/xlink" width="35px" height="35px" viewBox="0 0 35 35" version="1.1">
<g id="surface1">
<path style=" stroke:none;fill-rule:nonzero;fill:rgb(100%,100%,100%);fill-opacity:1;" d="M 35 17.5 C 35 27.164062 27.164062 35 17.5 35 C 7.835938 35 0 27.164062 0 17.5 C 0 7.835938 7.835938 0 17.5 0 C 27.164062 0 35 7.835938 35 17.5 Z M 35 17.5 "/>
<path style="fill:none;stroke-width:2;stroke-linecap:butt;stroke-linejoin:miter;stroke:rgb(0%,0%,0%);stroke-opacity:1;stroke-miterlimit:4;" d="M 698.984375 350 C 698.984375 542.734375 542.734375 698.984375 350 698.984375 C 157.265625 698.984375 1.015625 542.734375 1.015625 350 C 1.015625 157.265625 157.265625 1.015625 350 1.015625 C 542.734375 1.015625 698.984375 157.265625 698.984375 350 Z M 698.984375 350 " transform="matrix(0.05,0,0,0.05,0,0)"/>
<path style=" stroke:none;fill-rule:nonzero;fill:rgb(5.098039%,41.176471%,88.235294%);fill-opacity:1;" d="M 34 17.5 C 34 26.613281 26.613281 34 17.5 34 C 8.386719 34 1 26.613281 1 17.5 C 1 8.386719 8.386719 1 17.5 1 C 26.613281 1 34 8.386719 34 17.5 Z M 34 17.5 "/>
<path style=" stroke:none;fill-rule:nonzero;fill:rgb(100%,100%,100%);fill-opacity:1;" d="M 18.605469 20.839844 C 18.695312 20.90625 18.800781 20.945312 18.914062 20.945312 L 21.382812 20.945312 C 21.691406 23.175781 23.601562 24.839844 25.855469 24.839844 C 28.347656 24.839844 30.371094 22.816406 30.371094 20.324219 C 30.371094 17.828125 28.347656 15.804688 25.855469 15.804688 C 25.152344 15.804688 24.457031 15.96875 23.828125 16.285156 L 22.160156 13.902344 L 22.597656 12.871094 L 22.863281 12.871094 C 23.238281 12.871094 23.539062 12.566406 23.539062 12.195312 C 23.539062 11.820312 23.238281 11.515625 22.863281 11.515625 L 19.757812 11.515625 C 19.382812 11.515625 19.082031 11.820312 19.082031 12.195312 C 19.082031 12.566406 19.382812 12.871094 19.757812 12.871094 L 21.738281 12.871094 L 21.476562 13.492188 L 13.691406 13.492188 C 13.726562 13.359375 13.746094 13.226562 13.746094 13.089844 C 13.746094 12.542969 13.449219 12.039062 12.972656 11.765625 L 12.675781 11.597656 C 12.464844 11.476562 12.335938 11.25 12.335938 11.007812 C 12.335938 10.632812 12.636719 10.332031 13.011719 10.332031 L 15.242188 10.332031 C 15.492188 10.332031 15.695312 10.128906 15.695312 9.878906 C 15.695312 9.628906 15.492188 9.425781 15.242188 9.425781 L 13.011719 9.425781 C 12.140625 9.425781 11.429688 10.136719 11.429688 11.007812 C 11.429688 11.574219 11.734375 12.101562 12.230469 12.382812 L 12.527344 12.550781 C 12.722656 12.660156 12.839844 12.867188 12.839844 13.089844 C 12.839844 13.179688 12.820312 13.269531 12.78125 13.351562 L 11.367188 16.390625 C 10.6875 16.007812 9.921875 15.804688 9.144531 15.804688 C 6.652344 15.804688 4.628906 17.828125 4.628906 20.324219 C 4.628906 22.816406 6.652344 24.839844 9.144531 24.839844 C 11.640625 24.839844 13.660156 22.816406 13.660156 20.324219 C 13.660156 19.019531 13.097656 17.777344 12.117188 16.921875 L 12.46875 16.164062 Z M 9.144531 24.160156 C 7.023438 24.160156 5.304688 22.441406 5.304688 20.324219 C 5.304688 18.203125 7.023438 16.484375 9.144531 16.484375 C 9.824219 16.484375 10.492188 16.664062 11.078125 17.007812 L 10.097656 19.109375 C 10.039062 19.234375 9.945312 19.339844 9.824219 19.410156 L 8.917969 19.929688 C 8.78125 20.011719 8.695312 20.160156 8.695312 20.324219 C 8.695312 20.570312 8.894531 20.773438 9.144531 20.773438 C 9.222656 20.773438 9.300781 20.753906 9.371094 20.714844 L 10.277344 20.191406 C 10.554688 20.03125 10.78125 19.785156 10.917969 19.492188 L 11.816406 17.566406 C 12.5625 18.289062 12.984375 19.28125 12.984375 20.324219 C 12.984375 22.441406 11.265625 24.160156 9.144531 24.160156 Z M 25.855469 24.160156 C 23.972656 24.160156 22.371094 22.800781 22.066406 20.945312 L 25.964844 20.945312 C 26.308594 20.945312 26.585938 20.664062 26.585938 20.324219 C 26.585938 20.195312 26.546875 20.070312 26.476562 19.964844 L 24.273438 16.824219 C 24.773438 16.601562 25.308594 16.484375 25.855469 16.484375 C 27.976562 16.484375 29.695312 18.203125 29.695312 20.324219 C 29.695312 22.441406 27.976562 24.160156 25.855469 24.160156 Z M 22.035156 19.925781 C 22.140625 18.925781 22.632812 18.003906 23.410156 17.363281 L 25.207031 19.925781 Z M 19.847656 19.925781 L 21.898438 15.101562 L 23.066406 16.769531 C 22.085938 17.542969 21.464844 18.683594 21.355469 19.925781 Z M 18.828125 19.730469 L 13.007812 15.296875 L 13.410156 14.507812 L 21.042969 14.507812 Z M 18.828125 19.730469 "/>
</g>
</svg>
