<?xml version="1.0" encoding="UTF-8"?>
<svg xmlns="http://www.w3.org/2000/svg" xmlns:xlink="http://www.w3.org/1999/xlink" width="35px" height="35px" viewBox="0 0 35 35" version="1.1">
<g id="surface1">
<path style=" stroke:none;fill-rule:nonzero;fill:rgb(100%,100%,100%);fill-opacity:1;" d="M 35 17.5 C 35 27.164062 27.164062 35 17.5 35 C 7.835938 35 0 27.164062 0 17.5 C 0 7.835938 7.835938 0 17.5 0 C 27.164062 0 35 7.835938 35 17.5 Z M 35 17.5 "/>
<path style=" stroke:none;fill-rule:nonzero;fill:rgb(5.098039%,41.176471%,88.235294%);fill-opacity:1;" d="M 17.5 1 C 8.386719 1 1 8.386719 1 17.5 C 1 26.613281 8.386719 34 17.5 34 C 26.613281 34 34 26.613281 34 17.5 C 34 8.386719 26.613281 1 17.5 1 Z M 16.9375 5.84375 C 17.460938 5.84375 19.515625 6.316406 19.515625 7.988281 C 19.515625 8.667969 19.074219 9.765625 18.121094 9.765625 C 17.441406 9.765625 15.28125 8.703125 15.28125 7.367188 C 15.28125 6.207031 16.316406 5.84375 16.9375 5.84375 Z M 16.523438 10.0625 C 16.71875 10.0625 16.914062 10.109375 17.089844 10.210938 L 18.542969 11.050781 C 18.71875 11.152344 18.828125 11.339844 18.828125 11.539062 L 18.828125 17.542969 L 21.75 20.46875 L 23.355469 26.890625 C 23.5 27.46875 23.148438 28.050781 22.574219 28.195312 C 22 28.335938 21.417969 27.988281 21.273438 27.414062 L 20 22.308594 L 15.40625 17.71875 C 15.300781 17.609375 15.242188 17.46875 15.242188 17.320312 L 15.242188 12.582031 L 13.492188 13.59375 L 13.492188 17.21875 C 13.492188 17.683594 13.113281 18.0625 12.644531 18.0625 C 12.175781 18.0625 11.796875 17.683594 11.796875 17.21875 L 11.796875 13.265625 C 11.796875 12.863281 12.011719 12.492188 12.363281 12.289062 L 15.960938 10.210938 C 16.132812 10.109375 16.328125 10.0625 16.523438 10.0625 Z M 19.441406 13.984375 L 22.613281 17.15625 C 22.765625 17.308594 22.863281 17.519531 22.863281 17.753906 C 22.863281 18.222656 22.484375 18.601562 22.015625 18.601562 C 21.78125 18.601562 21.570312 18.503906 21.417969 18.351562 L 19.441406 16.378906 Z M 15.570312 18.675781 L 17.140625 20.246094 L 12.839844 27.6875 L 12.828125 27.683594 C 12.640625 28.007812 12.292969 28.226562 11.894531 28.226562 C 11.300781 28.226562 10.820312 27.746094 10.820312 27.152344 C 10.820312 26.890625 10.914062 26.652344 11.070312 26.464844 Z M 15.570312 18.675781 "/>
<path style="fill:none;stroke-width:0.14626;stroke-linecap:butt;stroke-linejoin:miter;stroke:rgb(0%,0%,0%);stroke-opacity:1;stroke-miterlimit:4;" d="M -65.614601 432.25997 C -65.614601 448.532148 -75.512095 461.724023 -87.720653 461.724023 C -99.929212 461.724023 -109.826705 448.532148 -109.826705 432.25997 C -109.826705 415.987793 -99.929212 402.795918 -87.720653 402.795918 C -75.512095 402.795918 -65.614601 415.987793 -65.614601 432.25997 Z M -65.614601 432.25997 " transform="matrix(0.789341,0,0,0.592221,86.74153,-238.493259)"/>
<path style=" stroke:none;fill-rule:nonzero;fill:rgb(100%,0%,0%);fill-opacity:1;" d="M 27.996094 4.769531 L 4.769531 27.996094 C 5.441406 28.8125 6.1875 29.558594 7.003906 30.230469 L 30.230469 7.003906 C 29.558594 6.1875 28.8125 5.441406 27.996094 4.769531 Z M 27.996094 4.769531 "/>
</g>
</svg>
