<?xml version="1.0" encoding="UTF-8"?>
<svg xmlns="http://www.w3.org/2000/svg" xmlns:xlink="http://www.w3.org/1999/xlink" width="35px" height="35px" viewBox="0 0 35 35" version="1.1">
<g id="surface1">
<path style=" stroke:none;fill-rule:nonzero;fill:rgb(100%,100%,100%);fill-opacity:1;" d="M 35 17.5 C 35 27.164062 27.164062 35 17.5 35 C 7.835938 35 0 27.164062 0 17.5 C 0 7.835938 7.835938 0 17.5 0 C 27.164062 0 35 7.835938 35 17.5 Z M 35 17.5 "/>
<path style="fill:none;stroke-width:2;stroke-linecap:butt;stroke-linejoin:miter;stroke:rgb(0%,0%,0%);stroke-opacity:1;stroke-miterlimit:4;" d="M 698.984375 350 C 698.984375 542.734375 542.734375 698.984375 350 698.984375 C 157.265625 698.984375 1.015625 542.734375 1.015625 350 C 1.015625 157.265625 157.265625 1.015625 350 1.015625 C 542.734375 1.015625 698.984375 157.265625 698.984375 350 Z M 698.984375 350 " transform="matrix(0.05,0,0,0.05,0,0)"/>
<path style=" stroke:none;fill-rule:nonzero;fill:rgb(5.098039%,41.176471%,88.235294%);fill-opacity:1;" d="M 34 17.5 C 34 26.613281 26.613281 34 17.5 34 C 8.386719 34 1 26.613281 1 17.5 C 1 8.386719 8.386719 1 17.5 1 C 26.613281 1 34 8.386719 34 17.5 Z M 34 17.5 "/>
<path style=" stroke:none;fill-rule:nonzero;fill:rgb(100%,100%,100%);fill-opacity:1;" d="M 21.273438 27.414062 C 21.394531 27.890625 21.824219 28.226562 22.316406 28.226562 C 22.90625 28.226562 23.386719 27.746094 23.386719 27.152344 C 23.386719 27.066406 23.378906 26.980469 23.355469 26.894531 L 21.785156 20.59375 C 21.765625 20.515625 21.722656 20.441406 21.667969 20.382812 L 18.828125 17.542969 L 18.828125 11.542969 C 18.828125 11.339844 18.71875 11.15625 18.542969 11.054688 L 17.085938 10.210938 C 16.738281 10.011719 16.308594 10.011719 15.957031 10.210938 L 12.363281 12.289062 C 12.011719 12.488281 11.796875 12.863281 11.796875 13.265625 L 11.796875 17.21875 C 11.796875 17.683594 12.175781 18.0625 12.644531 18.0625 C 13.113281 18.0625 13.492188 17.683594 13.492188 17.21875 L 13.492188 13.851562 C 13.492188 13.691406 13.578125 13.542969 13.71875 13.460938 L 15.242188 12.582031 L 15.242188 17.320312 C 15.242188 17.46875 15.300781 17.613281 15.40625 17.71875 L 19.914062 22.226562 C 19.972656 22.285156 20.015625 22.355469 20.035156 22.4375 Z M 21.273438 27.414062 "/>
<path style=" stroke:none;fill-rule:nonzero;fill:rgb(100%,100%,100%);fill-opacity:1;" d="M 15.554688 18.664062 L 10.964844 26.617188 C 10.871094 26.78125 10.820312 26.964844 10.820312 27.152344 C 10.820312 27.746094 11.300781 28.226562 11.894531 28.226562 C 12.277344 28.226562 12.632812 28.019531 12.824219 27.691406 L 17.125 20.234375 Z M 15.554688 18.664062 "/>
<path style=" stroke:none;fill-rule:nonzero;fill:rgb(100%,100%,100%);fill-opacity:1;" d="M 19.390625 16.328125 L 21.417969 18.351562 C 21.578125 18.511719 21.792969 18.601562 22.015625 18.601562 C 22.484375 18.601562 22.863281 18.222656 22.863281 17.753906 C 22.863281 17.53125 22.773438 17.3125 22.613281 17.15625 L 19.390625 13.929688 Z M 19.390625 16.328125 "/>
<path style=" stroke:none;fill-rule:nonzero;fill:rgb(100%,100%,100%);fill-opacity:1;" d="M 16.933594 5.84375 C 17.460938 5.84375 19.515625 6.316406 19.515625 7.988281 C 19.515625 8.664062 19.074219 9.765625 18.121094 9.765625 C 17.445312 9.765625 15.28125 8.699219 15.28125 7.367188 C 15.28125 6.203125 16.316406 5.84375 16.933594 5.84375 Z M 16.933594 5.84375 "/>
</g>
</svg>
