<?xml version="1.0" encoding="UTF-8"?>
<svg xmlns="http://www.w3.org/2000/svg" xmlns:xlink="http://www.w3.org/1999/xlink" width="35px" height="35px" viewBox="0 0 35 35" version="1.1">
<g id="surface1">
<path style=" stroke:none;fill-rule:nonzero;fill:rgb(100%,100%,100%);fill-opacity:1;" d="M 35 17.5 C 35 27.164062 27.164062 35 17.5 35 C 7.835938 35 0 27.164062 0 17.5 C 0 7.835938 7.835938 0 17.5 0 C 27.164062 0 35 7.835938 35 17.5 Z M 35 17.5 "/>
<path style="fill:none;stroke-width:0.14626;stroke-linecap:butt;stroke-linejoin:miter;stroke:rgb(0%,0%,0%);stroke-opacity:1;stroke-miterlimit:4;" d="M -65.614601 432.25997 C -65.614601 448.532148 -75.512095 461.724023 -87.720653 461.724023 C -99.929212 461.724023 -109.826705 448.532148 -109.826705 432.25997 C -109.826705 415.987793 -99.929212 402.795918 -87.720653 402.795918 C -75.512095 402.795918 -65.614601 415.987793 -65.614601 432.25997 Z M -65.614601 432.25997 " transform="matrix(0.789341,0,0,0.592221,86.74153,-238.493259)"/>
<path style=" stroke:none;fill-rule:nonzero;fill:rgb(5.098039%,41.176471%,88.235294%);fill-opacity:1;" d="M 17.5 1 C 8.386719 1 1 8.386719 1 17.5 C 1 26.613281 8.386719 34 17.5 34 C 26.613281 34 34 26.613281 34 17.5 C 34 8.386719 26.613281 1 17.5 1 Z M 17.773438 2.371094 C 18.207031 2.371094 18.925781 2.625 18.925781 3.433594 C 18.925781 4.363281 17.421875 5.101562 16.949219 5.101562 C 16.285156 5.101562 15.980469 4.335938 15.980469 3.863281 C 15.980469 2.699219 17.410156 2.371094 17.773438 2.371094 Z M 18.0625 5.308594 C 18.195312 5.308594 18.332031 5.34375 18.453125 5.414062 L 20.957031 6.859375 C 21.199219 7 21.351562 7.257812 21.351562 7.539062 L 21.351562 10.289062 C 21.351562 10.613281 21.085938 10.878906 20.761719 10.878906 C 20.433594 10.878906 20.171875 10.613281 20.171875 10.289062 L 20.171875 7.765625 L 18.953125 7.0625 L 18.953125 10.359375 C 18.953125 10.464844 18.910156 10.5625 18.835938 10.636719 L 15.644531 13.832031 L 14.757812 17.382812 C 14.65625 17.785156 14.25 18.027344 13.851562 17.929688 C 13.449219 17.828125 13.207031 17.421875 13.304688 17.023438 L 14.398438 12.65625 C 14.417969 12.585938 14.453125 12.519531 14.507812 12.46875 L 16.460938 10.515625 L 16.460938 6.335938 C 16.460938 6.195312 16.53125 6.066406 16.65625 5.996094 L 17.667969 5.414062 C 17.789062 5.34375 17.925781 5.308594 18.0625 5.308594 Z M 16.03125 8.039062 L 16.03125 9.703125 L 14.65625 11.078125 C 14.546875 11.183594 14.402344 11.25 14.238281 11.25 C 13.914062 11.25 13.648438 10.988281 13.648438 10.664062 C 13.648438 10.5 13.714844 10.355469 13.820312 10.246094 Z M 18.726562 11.304688 L 21.855469 16.726562 C 21.964844 16.855469 22.03125 17.023438 22.03125 17.203125 C 22.03125 17.617188 21.695312 17.953125 21.285156 17.953125 C 21.007812 17.953125 20.761719 17.800781 20.632812 17.574219 L 20.625 17.578125 L 17.632812 12.398438 Z M 14.546875 20.300781 C 14.566406 20.300781 14.585938 20.300781 14.605469 20.300781 L 16.023438 20.300781 C 16.1875 20.300781 16.320312 20.429688 16.320312 20.59375 C 16.320312 20.757812 16.1875 20.890625 16.023438 20.890625 L 14.605469 20.890625 C 14.339844 20.890625 14.125 21.105469 14.125 21.367188 C 14.125 21.542969 14.234375 21.695312 14.398438 21.753906 C 14.800781 21.890625 15.070312 22.269531 15.070312 22.695312 C 15.070312 22.785156 15.058594 22.871094 15.035156 22.953125 L 20.101562 22.953125 L 20.277344 22.546875 L 18.976562 22.546875 C 18.730469 22.546875 18.53125 22.351562 18.53125 22.105469 C 18.53125 21.863281 18.730469 21.664062 18.976562 21.664062 L 21.003906 21.664062 C 21.25 21.664062 21.449219 21.863281 21.449219 22.105469 C 21.449219 22.351562 21.25 22.546875 21.003906 22.546875 L 20.839844 22.546875 L 20.574219 23.171875 L 21.683594 24.757812 C 22.070312 24.570312 22.5 24.46875 22.960938 24.46875 C 24.589844 24.46875 25.910156 25.789062 25.910156 27.417969 C 25.910156 29.046875 24.589844 30.371094 22.960938 30.371094 C 21.46875 30.371094 20.234375 29.261719 20.035156 27.824219 L 18.304688 27.824219 L 14.234375 24.710938 L 14 25.210938 C 14.605469 25.753906 14.992188 26.539062 14.992188 27.417969 C 14.992188 29.046875 13.671875 30.371094 12.039062 30.371094 C 10.410156 30.371094 9.089844 29.046875 9.089844 27.417969 C 9.089844 25.789062 10.410156 24.46875 12.039062 24.46875 C 12.578125 24.46875 13.078125 24.609375 13.511719 24.859375 L 14.398438 22.953125 L 14.441406 22.867188 C 14.46875 22.8125 14.480469 22.753906 14.480469 22.695312 C 14.480469 22.523438 14.371094 22.367188 14.207031 22.3125 C 13.804688 22.171875 13.535156 21.792969 13.535156 21.367188 C 13.535156 20.796875 13.984375 20.328125 14.546875 20.300781 Z M 14.820312 23.617188 L 14.523438 24.09375 L 18.367188 27.03125 L 19.820312 23.617188 Z M 20.367188 24.035156 L 19.03125 27.160156 L 20.019531 27.160156 C 20.089844 26.332031 20.507812 25.601562 21.121094 25.113281 Z M 11.976562 24.910156 C 10.621094 24.945312 9.53125 26.054688 9.53125 27.417969 C 9.53125 28.804688 10.65625 29.929688 12.039062 29.929688 C 13.425781 29.929688 14.546875 28.804688 14.546875 27.417969 C 14.546875 26.71875 14.265625 26.089844 13.804688 25.632812 L 13.238281 26.84375 C 13.144531 27.042969 12.992188 27.207031 12.804688 27.320312 L 12.1875 27.675781 C 12.046875 27.757812 11.863281 27.707031 11.78125 27.566406 C 11.703125 27.425781 11.75 27.246094 11.890625 27.164062 L 12.507812 26.808594 C 12.59375 26.757812 12.660156 26.683594 12.703125 26.59375 L 13.324219 25.265625 C 12.949219 25.039062 12.511719 24.910156 12.039062 24.910156 C 12.019531 24.910156 11.996094 24.910156 11.976562 24.910156 Z M 22.960938 24.910156 C 22.597656 24.910156 22.253906 24.988281 21.941406 25.125 L 23.382812 27.1875 C 23.511719 27.371094 23.464844 27.621094 23.28125 27.75 C 23.214844 27.800781 23.132812 27.824219 23.050781 27.824219 L 20.484375 27.824219 C 20.679688 29.015625 21.710938 29.929688 22.960938 29.929688 C 24.34375 29.929688 25.46875 28.804688 25.46875 27.417969 C 25.46875 26.035156 24.34375 24.910156 22.960938 24.910156 Z M 21.375 25.476562 C 20.875 25.882812 20.535156 26.484375 20.464844 27.160156 L 22.554688 27.160156 Z M 21.375 25.476562 "/>
<path style=" stroke:none;fill-rule:nonzero;fill:rgb(100%,0%,0%);fill-opacity:1;" d="M 27.984375 4.757812 L 4.757812 27.984375 C 5.425781 28.796875 6.171875 29.539062 6.980469 30.210938 L 30.242188 7.015625 C 29.5625 6.191406 28.808594 5.4375 27.984375 4.757812 Z M 27.984375 4.757812 "/>
</g>
</svg>
