<?xml version="1.0" encoding="UTF-8"?>
<svg xmlns="http://www.w3.org/2000/svg" xmlns:xlink="http://www.w3.org/1999/xlink" width="35px" height="35px" viewBox="0 0 35 35" version="1.1">
<g id="surface1">
<path style=" stroke:none;fill-rule:nonzero;fill:rgb(100%,100%,100%);fill-opacity:1;" d="M 35 17.5 C 35 27.164062 27.164062 35 17.5 35 C 7.835938 35 0 27.164062 0 17.5 C 0 7.835938 7.835938 0 17.5 0 C 27.164062 0 35 7.835938 35 17.5 Z M 35 17.5 "/>
<path style="fill:none;stroke-width:0.14626;stroke-linecap:butt;stroke-linejoin:miter;stroke:rgb(0%,0%,0%);stroke-opacity:1;stroke-miterlimit:4;" d="M -65.614601 432.25997 C -65.614601 448.532148 -75.512095 461.724023 -87.720653 461.724023 C -99.929212 461.724023 -109.826705 448.532148 -109.826705 432.25997 C -109.826705 415.987793 -99.929212 402.795918 -87.720653 402.795918 C -75.512095 402.795918 -65.614601 415.987793 -65.614601 432.25997 Z M -65.614601 432.25997 " transform="matrix(0.789341,0,0,0.592221,86.74153,-238.493259)"/>
<path style=" stroke:none;fill-rule:nonzero;fill:rgb(5.098039%,41.176471%,88.235294%);fill-opacity:1;" d="M 17.5 1 C 8.386719 1 1 8.386719 1 17.5 C 1 26.613281 8.386719 34 17.5 34 C 26.613281 34 34 26.613281 34 17.5 C 34 8.386719 26.613281 1 17.5 1 Z M 22.585938 11.132812 C 23.847656 11.179688 24.855469 11.800781 25.613281 12.996094 C 26.371094 14.191406 26.757812 15.691406 26.777344 17.5 C 26.757812 19.394531 26.371094 20.921875 25.613281 22.078125 C 24.855469 23.238281 23.847656 23.832031 22.585938 23.867188 C 21.324219 23.832031 20.316406 23.238281 19.558594 22.078125 C 18.800781 20.921875 18.414062 19.394531 18.394531 17.5 C 18.414062 15.605469 18.800781 14.078125 19.558594 12.921875 C 20.316406 11.761719 21.324219 11.167969 22.585938 11.132812 Z M 9.03125 11.289062 L 16.171875 11.289062 L 15.554688 13.308594 L 11.050781 13.308594 L 11.050781 16.257812 C 11.292969 15.953125 11.601562 15.746094 11.96875 15.636719 C 12.335938 15.527344 12.703125 15.476562 13.070312 15.480469 C 13.972656 15.488281 14.804688 15.824219 15.570312 16.492188 C 16.339844 17.15625 16.746094 18.113281 16.792969 19.363281 C 16.777344 20.636719 16.34375 21.699219 15.492188 22.546875 C 14.644531 23.394531 13.472656 23.832031 11.980469 23.867188 C 11.246094 23.839844 10.582031 23.734375 9.984375 23.554688 C 9.382812 23.375 9.070312 23.269531 9.03125 23.242188 L 8.722656 21.226562 C 9.109375 21.476562 9.570312 21.644531 10.097656 21.726562 C 10.625 21.8125 11.148438 21.851562 11.671875 21.847656 C 12.332031 21.847656 12.953125 21.652344 13.535156 21.265625 C 14.117188 20.875 14.425781 20.296875 14.464844 19.519531 C 14.460938 18.945312 14.273438 18.421875 13.902344 17.945312 C 13.53125 17.472656 12.992188 17.21875 12.292969 17.1875 C 11.828125 17.21875 11.4375 17.355469 11.128906 17.597656 C 10.816406 17.839844 10.585938 18.011719 10.429688 18.121094 L 9.03125 17.34375 Z M 22.585938 13.0625 C 21.980469 13.054688 21.492188 13.40625 21.128906 14.117188 C 20.765625 14.828125 20.578125 15.957031 20.570312 17.5 C 20.578125 19.042969 20.765625 20.171875 21.128906 20.882812 C 21.492188 21.59375 21.980469 21.945312 22.585938 21.9375 C 23.195312 21.945312 23.679688 21.59375 24.046875 20.882812 C 24.410156 20.171875 24.59375 19.042969 24.605469 17.5 C 24.59375 15.957031 24.410156 14.828125 24.046875 14.117188 C 23.679688 13.40625 23.195312 13.054688 22.585938 13.0625 Z M 22.585938 13.0625 "/>
</g>
</svg>
