<?xml version="1.0" encoding="UTF-8"?>
<svg xmlns="http://www.w3.org/2000/svg" xmlns:xlink="http://www.w3.org/1999/xlink" width="35px" height="35px" viewBox="0 0 35 35" version="1.1">
<g id="surface1">
<path style=" stroke:none;fill-rule:nonzero;fill:rgb(100%,100%,100%);fill-opacity:1;" d="M 2.25 0 L 32.75 0 C 33.992188 0 35 1.007812 35 2.25 L 35 32.75 C 35 33.992188 33.992188 35 32.75 35 L 2.25 35 C 1.007812 35 0 33.992188 0 32.75 L 0 2.25 C 0 1.007812 1.007812 0 2.25 0 Z M 2.25 0 "/>
<path style=" stroke:none;fill-rule:nonzero;fill:rgb(5.098039%,41.176471%,88.235294%);fill-opacity:1;" d="M 2.25 1 C 1.558594 1 1 1.558594 1 2.25 L 1 16.917969 L 34 16.917969 L 34 11.082031 L 11.667969 11.082031 L 11.667969 14 L 3.5 9.332031 L 11.667969 4.667969 L 11.667969 7.582031 L 34 7.582031 L 34 2.25 C 34 1.558594 33.441406 1 32.75 1 Z M 1 18.082031 L 1 20.53125 L 13.125 20.53125 C 13.542969 20.53125 13.925781 20.757812 14.132812 21.117188 L 16.175781 24.652344 C 16.277344 24.832031 16.332031 25.03125 16.332031 25.234375 L 16.332031 29.515625 C 16.332031 30.164062 15.8125 30.683594 15.167969 30.683594 L 14.582031 30.683594 C 14.582031 29.070312 13.277344 27.765625 11.667969 27.765625 C 10.054688 27.765625 8.75 29.070312 8.75 30.683594 L 1 30.683594 L 1 32.75 C 1 33.441406 1.558594 34 2.25 34 L 32.75 34 C 33.441406 34 34 33.441406 34 32.75 L 34 18.082031 Z M 1 21.351562 L 1 24.851562 L 3.5 24.851562 C 3.824219 24.851562 4.082031 24.589844 4.082031 24.265625 L 4.082031 21.933594 C 4.082031 21.609375 3.824219 21.351562 3.5 21.351562 Z M 5.832031 21.351562 C 5.507812 21.351562 5.25 21.609375 5.25 21.933594 L 5.25 24.265625 C 5.25 24.589844 5.507812 24.851562 5.832031 24.851562 L 9.332031 24.851562 C 9.65625 24.851562 9.917969 24.589844 9.917969 24.265625 L 9.917969 21.933594 C 9.917969 21.609375 9.65625 21.351562 9.332031 21.351562 Z M 11.667969 21.351562 C 11.34375 21.351562 11.082031 21.609375 11.082031 21.933594 L 11.082031 24.265625 C 11.082031 24.589844 11.34375 24.851562 11.667969 24.851562 L 14.335938 24.851562 C 14.660156 24.851562 14.921875 24.589844 14.921875 24.265625 C 14.921875 24.164062 14.894531 24.0625 14.84375 23.976562 L 13.496094 21.640625 C 13.390625 21.460938 13.199219 21.351562 12.992188 21.351562 Z M 23.332031 21.582031 L 31.5 26.25 L 23.332031 30.917969 L 23.332031 28 L 17.5 28 L 17.5 24.5 L 23.332031 24.5 Z M 11.667969 28.351562 C 12.957031 28.351562 14 29.394531 14 30.683594 C 14 31.972656 12.957031 33.015625 11.667969 33.015625 C 10.378906 33.015625 9.332031 31.972656 9.332031 30.683594 C 9.332031 29.394531 10.378906 28.351562 11.667969 28.351562 Z M 11.667969 29.515625 C 11.023438 29.515625 10.5 30.039062 10.5 30.683594 C 10.5 31.328125 11.023438 31.851562 11.667969 31.851562 C 12.3125 31.851562 12.832031 31.328125 12.832031 30.683594 C 12.832031 30.039062 12.3125 29.515625 11.667969 29.515625 Z M 11.667969 29.515625 "/>
<path style="fill:none;stroke-width:2;stroke-linecap:butt;stroke-linejoin:miter;stroke:rgb(0%,0%,0%);stroke-opacity:1;stroke-miterlimit:4;" d="M 45 353.377805 L 655 353.377805 C 679.296875 353.377805 698.984375 373.065305 698.984375 397.36218 L 698.984375 1007.36218 C 698.984375 1031.659055 679.296875 1051.346555 655 1051.346555 L 45 1051.346555 C 20.703125 1051.346555 1.015625 1031.659055 1.015625 1007.36218 L 1.015625 397.36218 C 1.015625 373.065305 20.703125 353.377805 45 353.377805 Z M 45 353.377805 " transform="matrix(0.05,0,0,0.05,0,-17.618109)"/>
</g>
</svg>
