<?xml version="1.0" encoding="UTF-8"?>
<svg xmlns="http://www.w3.org/2000/svg" xmlns:xlink="http://www.w3.org/1999/xlink" width="35px" height="35px" viewBox="0 0 35 35" version="1.1">
<g id="surface1">
<path style=" stroke:none;fill-rule:nonzero;fill:rgb(100%,100%,100%);fill-opacity:1;" d="M 2.25 0 L 32.75 0 C 33.992188 0 35 1.007812 35 2.25 L 35 32.75 C 35 33.992188 33.992188 35 32.75 35 L 2.25 35 C 1.007812 35 0 33.992188 0 32.75 L 0 2.25 C 0 1.007812 1.007812 0 2.25 0 Z M 2.25 0 "/>
<path style=" stroke:none;fill-rule:nonzero;fill:rgb(5.098039%,41.176471%,88.235294%);fill-opacity:1;" d="M 2.25 1 C 1.558594 1 1 1.558594 1 2.25 L 1 32.75 C 1 33.441406 1.558594 34 2.25 34 L 16.917969 34 L 16.917969 1 Z M 18.082031 1 L 18.082031 34 L 24.5 34 L 24.5 11.667969 L 21.582031 11.667969 L 26.25 3.5 L 30.917969 11.667969 L 28 11.667969 L 28 34 L 32.75 34 C 33.441406 34 34 33.441406 34 32.75 L 34 2.25 C 34 1.558594 33.441406 1 32.75 1 Z M 5.25 3.5 L 12.25 3.5 C 13.21875 3.5 14 4.28125 14 5.25 L 14 13.417969 C 14 13.742188 13.742188 14 13.417969 14 L 4.082031 14 C 3.757812 14 3.5 13.742188 3.5 13.417969 L 3.5 5.25 C 3.5 4.28125 4.28125 3.5 5.25 3.5 Z M 4.898438 4.257812 C 4.578125 4.257812 4.316406 4.519531 4.316406 4.84375 L 4.316406 7.582031 C 4.316406 7.90625 4.578125 8.167969 4.898438 8.167969 L 12.71875 8.167969 C 13.039062 8.167969 13.300781 7.90625 13.300781 7.582031 L 13.300781 4.84375 C 13.300781 4.519531 13.039062 4.257812 12.71875 4.257812 Z M 5.308594 10.878906 C 4.855469 10.878906 4.492188 11.246094 4.492188 11.695312 C 4.492188 12.144531 4.855469 12.511719 5.308594 12.511719 C 5.757812 12.511719 6.125 12.144531 6.125 11.695312 C 6.125 11.246094 5.757812 10.878906 5.308594 10.878906 Z M 12.191406 10.878906 C 11.742188 10.878906 11.375 11.246094 11.375 11.695312 C 11.375 12.144531 11.742188 12.511719 12.191406 12.511719 C 12.644531 12.511719 13.007812 12.144531 13.007812 11.695312 C 13.007812 11.246094 12.644531 10.878906 12.191406 10.878906 Z M 3.96875 14.582031 L 5.367188 14.582031 L 5.367188 15.632812 C 5.367188 16.019531 5.054688 16.332031 4.667969 16.332031 C 4.28125 16.332031 3.96875 16.019531 3.96875 15.632812 Z M 12.132812 14.582031 L 13.53125 14.582031 L 13.53125 15.632812 C 13.53125 16.019531 13.21875 16.332031 12.832031 16.332031 C 12.445312 16.332031 12.132812 16.019531 12.132812 15.632812 Z M 7 17.5 L 10.5 17.5 L 10.5 23.332031 L 13.417969 23.332031 L 8.75 31.5 L 4.082031 23.332031 L 7 23.332031 Z M 7 17.5 "/>
<path style="fill:none;stroke-width:2;stroke-linecap:butt;stroke-linejoin:miter;stroke:rgb(0%,0%,0%);stroke-opacity:1;stroke-miterlimit:4;" d="M 45 353.377805 L 655 353.377805 C 679.296875 353.377805 698.984375 373.065305 698.984375 397.36218 L 698.984375 1007.36218 C 698.984375 1031.659055 679.296875 1051.346555 655 1051.346555 L 45 1051.346555 C 20.703125 1051.346555 1.015625 1031.659055 1.015625 1007.36218 L 1.015625 397.36218 C 1.015625 373.065305 20.703125 353.377805 45 353.377805 Z M 45 353.377805 " transform="matrix(0.05,0,0,0.05,0,-17.618109)"/>
<path style=" stroke:none;fill-rule:nonzero;fill:rgb(100%,0%,0%);fill-opacity:1;" d="M 31.277344 1 L 1 31.277344 L 1 32.75 C 1 33.441406 1.558594 34 2.25 34 L 3.722656 34 L 34 3.722656 L 34 2.25 C 34 1.558594 33.441406 1 32.75 1 Z M 31.277344 1 "/>
</g>
</svg>
