<?xml version="1.0" encoding="UTF-8"?>
<svg xmlns="http://www.w3.org/2000/svg" xmlns:xlink="http://www.w3.org/1999/xlink" width="35px" height="35px" viewBox="0 0 35 35" version="1.1">
<g id="surface1">
<path style=" stroke:none;fill-rule:nonzero;fill:rgb(100%,100%,100%);fill-opacity:1;" d="M 2.25 0 L 32.75 0 C 33.992188 0 35 1.007812 35 2.25 L 35 32.75 C 35 33.992188 33.992188 35 32.75 35 L 2.25 35 C 1.007812 35 0 33.992188 0 32.75 L 0 2.25 C 0 1.007812 1.007812 0 2.25 0 Z M 2.25 0 "/>
<path style=" stroke:none;fill-rule:nonzero;fill:rgb(5.098039%,41.176471%,88.235294%);fill-opacity:1;" d="M 2.25 1 C 1.558594 1 1 1.558594 1 2.25 L 1 32.75 C 1 33.441406 1.558594 34 2.25 34 L 22.398438 34 L 22.398438 24.5 C 22.398438 21.792969 20.207031 19.601562 17.5 19.601562 C 14.792969 19.601562 12.601562 21.792969 12.601562 24.5 L 15.167969 24.5 L 11.074219 31.5 L 7 24.5 L 9.566406 24.5 C 9.566406 20.117188 13.117188 16.566406 17.5 16.566406 C 19.347656 16.566406 21.050781 17.199219 22.398438 18.257812 L 22.398438 11.433594 C 22.398438 10.28125 21.992188 9.164062 21.253906 8.28125 C 19.613281 6.332031 16.777344 5.976562 14.722656 7.398438 L 16.355469 9.34375 L 8.363281 10.710938 L 11.109375 3.089844 L 12.765625 5.066406 C 14.160156 4.027344 15.796875 3.511719 17.429688 3.5 C 19.71875 3.480469 21.992188 4.445312 23.578125 6.335938 C 24.777344 7.761719 25.433594 9.566406 25.433594 11.433594 L 25.433594 34 L 32.75 34 C 33.441406 34 34 33.441406 34 32.75 L 34 2.25 C 34 1.558594 33.441406 1 32.75 1 Z M 5.972656 12.023438 L 6.609375 12.023438 L 6.609375 16.28125 L 5.867188 16.28125 L 5.867188 12.980469 L 5.296875 13.335938 L 5.042969 13.011719 Z M 7.585938 12.023438 L 10.035156 12.023438 L 9.824219 12.714844 L 8.28125 12.714844 L 8.28125 13.726562 C 8.363281 13.621094 8.46875 13.550781 8.59375 13.511719 C 8.722656 13.476562 8.847656 13.457031 8.972656 13.460938 C 9.28125 13.460938 9.566406 13.578125 9.828125 13.804688 C 10.09375 14.03125 10.234375 14.359375 10.25 14.789062 C 10.246094 15.226562 10.09375 15.589844 9.804688 15.882812 C 9.511719 16.171875 9.109375 16.320312 8.601562 16.332031 C 8.347656 16.324219 8.121094 16.289062 7.914062 16.226562 C 7.707031 16.164062 7.601562 16.128906 7.585938 16.121094 L 7.480469 15.429688 C 7.613281 15.511719 7.773438 15.570312 7.953125 15.601562 C 8.132812 15.628906 8.3125 15.644531 8.492188 15.640625 C 8.71875 15.640625 8.929688 15.574219 9.132812 15.441406 C 9.332031 15.308594 9.4375 15.109375 9.453125 14.84375 C 9.449219 14.644531 9.386719 14.46875 9.257812 14.304688 C 9.128906 14.140625 8.945312 14.054688 8.707031 14.042969 C 8.546875 14.054688 8.414062 14.101562 8.304688 14.183594 C 8.199219 14.265625 8.121094 14.328125 8.066406 14.363281 L 7.585938 14.097656 Z M 11.449219 13.300781 L 12.085938 13.300781 L 12.832031 14.789062 L 13.578125 13.300781 L 14.21875 13.300781 L 14.484375 16.28125 L 13.84375 16.28125 L 13.683594 14.203125 L 12.832031 15.90625 L 11.980469 14.203125 L 11.820312 16.28125 L 11.183594 16.28125 Z M 11.449219 13.300781 "/>
<path style="fill:none;stroke-width:2;stroke-linecap:butt;stroke-linejoin:miter;stroke:rgb(0%,0%,0%);stroke-opacity:1;stroke-miterlimit:4;" d="M 45 353.377805 L 655 353.377805 C 679.296875 353.377805 698.984375 373.065305 698.984375 397.36218 L 698.984375 1007.36218 C 698.984375 1031.659055 679.296875 1051.346555 655 1051.346555 L 45 1051.346555 C 20.703125 1051.346555 1.015625 1031.659055 1.015625 1007.36218 L 1.015625 397.36218 C 1.015625 373.065305 20.703125 353.377805 45 353.377805 Z M 45 353.377805 " transform="matrix(0.05,0,0,0.05,0,-17.618109)"/>
</g>
</svg>
