<?xml version="1.0" encoding="UTF-8"?>
<svg xmlns="http://www.w3.org/2000/svg" xmlns:xlink="http://www.w3.org/1999/xlink" width="35px" height="35px" viewBox="0 0 35 52" version="1.1">
<g id="surface1">
<path style=" stroke:none;fill-rule:nonzero;fill:rgb(100%,100%,100%);fill-opacity:1;" d="M 2.625 0 L 32.375 0 C 33.824219 0 35 1.164062 35 2.601562 L 35 49.398438 C 35 50.835938 33.824219 52 32.375 52 L 2.625 52 C 1.175781 52 0 50.835938 0 49.398438 L 0 2.601562 C 0 1.164062 1.175781 0 2.625 0 Z M 2.625 0 "/>
<path style=" stroke:none;fill-rule:nonzero;fill:rgb(5.098039%,41.176471%,88.235294%);fill-opacity:1;" d="M 2.625 1.15625 C 1.816406 1.15625 1.167969 1.800781 1.167969 2.601562 L 1.167969 49.398438 C 1.167969 50.199219 1.816406 50.84375 2.625 50.84375 L 32.375 50.84375 C 33.183594 50.84375 33.832031 50.199219 33.832031 49.398438 L 33.832031 2.601562 C 33.832031 1.800781 33.183594 1.15625 32.375 1.15625 Z M 5.90625 8.667969 L 29.09375 8.667969 C 30.546875 8.667969 31.71875 9.828125 31.71875 11.265625 L 31.71875 34.234375 C 31.71875 35.671875 30.546875 36.832031 29.09375 36.832031 L 5.90625 36.832031 C 4.453125 36.832031 3.28125 35.671875 3.28125 34.234375 L 3.28125 11.265625 C 3.28125 9.828125 4.453125 8.667969 5.90625 8.667969 Z M 5.90625 8.667969 "/>
<path style="fill:none;stroke-width:2;stroke-linecap:butt;stroke-linejoin:miter;stroke:rgb(0%,0%,0%);stroke-opacity:1;stroke-miterlimit:4;" d="M 45 153.376303 L 555 153.376303 C 579.308036 153.376303 598.995536 173.050281 598.995536 197.389223 L 598.995536 1007.335137 C 598.995536 1031.674079 579.308036 1051.348057 555 1051.348057 L 45 1051.348057 C 20.691964 1051.348057 1.004464 1031.674079 1.004464 1007.335137 L 1.004464 197.389223 C 1.004464 173.050281 20.691964 153.376303 45 153.376303 Z M 45 153.376303 " transform="matrix(0.0583333,0,0,0.0577778,0,-8.803148)"/>
<path style=" stroke:none;fill-rule:nonzero;fill:rgb(0%,0%,0%);fill-opacity:1;" d="M 8.476562 16.574219 C 8.085938 16.574219 7.722656 16.78125 7.527344 17.117188 L 5.613281 20.402344 C 5.519531 20.566406 5.46875 20.753906 5.46875 20.941406 L 5.46875 24.917969 C 5.46875 25.515625 5.957031 26 6.5625 26 L 7.109375 26 C 7.109375 24.503906 8.332031 23.292969 9.84375 23.292969 C 11.355469 23.292969 12.578125 24.503906 12.578125 26 L 21.328125 26 C 21.328125 24.503906 22.550781 23.292969 24.0625 23.292969 C 25.574219 23.292969 26.796875 24.503906 26.796875 26 L 28.4375 26 C 29.042969 26 29.53125 25.515625 29.53125 24.917969 L 29.53125 20.941406 C 29.53125 20.828125 29.511719 20.710938 29.476562 20.597656 L 28.371094 17.316406 C 28.222656 16.871094 27.804688 16.574219 27.332031 16.574219 Z M 8.601562 17.332031 L 9.84375 17.332031 C 10.148438 17.332031 10.390625 17.574219 10.390625 17.875 L 10.390625 20.042969 C 10.390625 20.339844 10.148438 20.582031 9.84375 20.582031 L 7.339844 20.582031 C 7.035156 20.582031 6.792969 20.339844 6.792969 20.042969 C 6.792969 19.945312 6.820312 19.851562 6.867188 19.769531 L 8.128906 17.605469 C 8.226562 17.4375 8.40625 17.332031 8.601562 17.332031 Z M 12.03125 17.332031 L 15.3125 17.332031 C 15.617188 17.332031 15.859375 17.574219 15.859375 17.875 L 15.859375 20.042969 C 15.859375 20.339844 15.617188 20.582031 15.3125 20.582031 L 12.03125 20.582031 C 11.726562 20.582031 11.484375 20.339844 11.484375 20.042969 L 11.484375 17.875 C 11.484375 17.574219 11.726562 17.332031 12.03125 17.332031 Z M 17.5 17.332031 L 20.78125 17.332031 C 21.085938 17.332031 21.328125 17.574219 21.328125 17.875 L 21.328125 20.042969 C 21.328125 20.339844 21.085938 20.582031 20.78125 20.582031 L 17.5 20.582031 C 17.195312 20.582031 16.953125 20.339844 16.953125 20.042969 L 16.953125 17.875 C 16.953125 17.574219 17.195312 17.332031 17.5 17.332031 Z M 22.96875 17.332031 L 26.085938 17.332031 C 26.328125 17.332031 26.542969 17.492188 26.609375 17.722656 L 27.253906 19.886719 C 27.339844 20.175781 27.175781 20.476562 26.882812 20.5625 C 26.835938 20.578125 26.78125 20.582031 26.730469 20.582031 L 22.96875 20.582031 C 22.664062 20.582031 22.421875 20.339844 22.421875 20.042969 L 22.421875 17.875 C 22.421875 17.574219 22.664062 17.332031 22.96875 17.332031 Z M 22.96875 17.332031 "/>
<path style=" stroke:none;fill-rule:nonzero;fill:rgb(0%,0%,0%);fill-opacity:1;" d="M 9.84375 23.832031 C 8.636719 23.832031 7.65625 24.804688 7.65625 26 C 7.65625 27.195312 8.636719 28.167969 9.84375 28.167969 C 11.050781 28.167969 12.03125 27.195312 12.03125 26 C 12.03125 24.804688 11.050781 23.832031 9.84375 23.832031 Z M 9.84375 24.917969 C 10.449219 24.917969 10.9375 25.402344 10.9375 26 C 10.9375 26.597656 10.449219 27.082031 9.84375 27.082031 C 9.238281 27.082031 8.75 26.597656 8.75 26 C 8.75 25.402344 9.238281 24.917969 9.84375 24.917969 Z M 9.84375 24.917969 "/>
<path style=" stroke:none;fill-rule:nonzero;fill:rgb(0%,0%,0%);fill-opacity:1;" d="M 24.0625 23.832031 C 22.855469 23.832031 21.875 24.804688 21.875 26 C 21.875 27.195312 22.855469 28.167969 24.0625 28.167969 C 25.269531 28.167969 26.25 27.195312 26.25 26 C 26.25 24.804688 25.269531 23.832031 24.0625 23.832031 Z M 24.0625 24.917969 C 24.667969 24.917969 25.15625 25.402344 25.15625 26 C 25.15625 26.597656 24.667969 27.082031 24.0625 27.082031 C 23.457031 27.082031 22.96875 26.597656 22.96875 26 C 22.96875 25.402344 23.457031 24.917969 24.0625 24.917969 Z M 24.0625 24.917969 "/>
</g>
</svg>
