<?xml version="1.0" encoding="UTF-8"?>
<svg xmlns="http://www.w3.org/2000/svg" xmlns:xlink="http://www.w3.org/1999/xlink" width="35px" height="35px" viewBox="0 0 35 51" version="1.1">
<g id="surface1">
<path style="fill-rule:evenodd;fill:rgb(100%,100%,100%);fill-opacity:1;stroke-width:1.925;stroke-linecap:butt;stroke-linejoin:miter;stroke:rgb(22.352941%,21.176471%,21.568627%);stroke-opacity:1;stroke-miterlimit:22.926001;" d="M -222.45881 -114.906455 L 57.448221 -114.906455 C 70.336502 -114.906455 80.874784 -104.680199 80.874784 -92.201951 L 80.874784 342.100132 C 80.874784 354.57838 70.336502 364.804636 57.448221 364.804636 L -222.45881 364.804636 C -235.347091 364.804636 -245.885373 354.57838 -245.885373 342.100132 L -245.885373 -92.201951 C -245.885373 -104.680199 -235.347091 -114.906455 -222.45881 -114.906455 Z M -222.45881 -114.906455 " transform="matrix(0.106383,0,0,0.105809,26.259581,12.259714)"/>
<path style=" stroke:none;fill-rule:evenodd;fill:rgb(9.019608%,43.529412%,75.686275%);fill-opacity:1;" d="M 4.238281 0.957031 L 30.726562 0.957031 C 32.308594 0.957031 33.597656 2.246094 33.597656 3.820312 L 33.597656 46.769531 C 33.597656 48.34375 32.308594 49.632812 30.726562 49.632812 L 4.238281 49.632812 C 2.65625 49.632812 1.367188 48.34375 1.367188 46.769531 L 1.367188 3.820312 C 1.367188 2.246094 2.65625 0.957031 4.238281 0.957031 "/>
<path style=" stroke:none;fill-rule:evenodd;fill:rgb(100%,100%,100%);fill-opacity:1;" d="M 5.492188 8.359375 L 29.472656 8.359375 C 30.078125 8.359375 30.574219 8.847656 30.574219 9.449219 L 30.574219 33.652344 C 30.574219 34.253906 30.078125 34.742188 29.472656 34.742188 L 5.492188 34.742188 C 4.886719 34.742188 4.390625 34.253906 4.390625 33.652344 L 4.390625 9.449219 C 4.390625 8.847656 4.886719 8.359375 5.492188 8.359375 "/>
<path style="fill-rule:evenodd;fill:rgb(13.72549%,12.156863%,12.54902%);fill-opacity:1;stroke-width:0.27;stroke-linecap:butt;stroke-linejoin:miter;stroke:rgb(13.72549%,12.156863%,12.54902%);stroke-opacity:1;stroke-miterlimit:22.926001;" d="M -418.62054 87.155935 L -439.146321 46.177075 L -605.665853 45.881731 L -630.12054 85.716137 L -630.12054 138.951738 L -418.62054 139.505506 Z M -418.62054 87.155935 " transform="matrix(0.106383,0,0,0.105809,73.3466,12.860138)"/>
<path style="fill-rule:evenodd;fill:rgb(100%,100%,100%);fill-opacity:1;stroke-width:0.27;stroke-linecap:butt;stroke-linejoin:miter;stroke:rgb(13.72549%,12.156863%,12.54902%);stroke-opacity:1;stroke-miterlimit:22.926001;" d="M -448.326009 54.335929 L -489.451009 54.335929 L -489.451009 86.417577 L -448.326009 86.417577 Z M -448.326009 54.335929 " transform="matrix(0.106383,0,0,0.105809,73.3466,12.860138)"/>
<path style="fill-rule:evenodd;fill:rgb(100%,100%,100%);fill-opacity:1;stroke-width:0.27;stroke-linecap:butt;stroke-linejoin:miter;stroke:rgb(13.72549%,12.156863%,12.54902%);stroke-opacity:1;stroke-miterlimit:22.926001;" d="M -495.840071 54.335929 L -544.93304 54.335929 L -544.93304 86.417577 L -495.840071 86.417577 Z M -495.840071 54.335929 " transform="matrix(0.106383,0,0,0.105809,73.3466,12.860138)"/>
<path style="fill-rule:evenodd;fill:rgb(100%,100%,100%);fill-opacity:1;stroke-width:0.27;stroke-linecap:butt;stroke-linejoin:miter;stroke:rgb(13.72549%,12.156863%,12.54902%);stroke-opacity:1;stroke-miterlimit:22.926001;" d="M -550.80804 54.335929 L -594.062727 54.335929 L -593.511946 86.417577 L -550.80804 86.417577 Z M -550.80804 54.335929 " transform="matrix(0.106383,0,0,0.105809,73.3466,12.860138)"/>
<path style="fill-rule:evenodd;fill:rgb(100%,100%,100%);fill-opacity:1;stroke-width:0.27;stroke-linecap:butt;stroke-linejoin:miter;stroke:rgb(13.72549%,12.156863%,12.54902%);stroke-opacity:1;stroke-miterlimit:22.926001;" d="M -442.451009 54.335929 L -442.451009 86.971345 L -424.311946 86.971345 Z M -442.451009 54.335929 " transform="matrix(0.106383,0,0,0.105809,73.3466,12.860138)"/>
<path style="fill-rule:evenodd;fill:rgb(100%,100%,100%);fill-opacity:1;stroke-width:0.27;stroke-linecap:butt;stroke-linejoin:miter;stroke:rgb(13.72549%,12.156863%,12.54902%);stroke-opacity:1;stroke-miterlimit:22.926001;" d="M -600.45179 54.335929 L -600.45179 86.417577 L -624.465852 86.417577 Z M -600.45179 54.335929 " transform="matrix(0.106383,0,0,0.105809,73.3466,12.860138)"/>
<path style="fill-rule:evenodd;fill:rgb(100%,100%,100%);fill-opacity:1;stroke-width:0.895;stroke-linecap:butt;stroke-linejoin:miter;stroke:rgb(100%,100%,100%);stroke-opacity:1;stroke-miterlimit:22.926001;" d="M -455.008821 118.536143 C -468.007259 118.536143 -478.655696 129.168496 -478.655696 142.200512 C -478.655696 155.232528 -468.007259 165.901799 -455.008821 165.901799 C -441.973665 165.901799 -431.361946 155.232528 -431.361946 142.200512 C -431.361946 129.168496 -441.973665 118.536143 -455.008821 118.536143 Z M -455.008821 118.536143 " transform="matrix(0.106383,0,0,0.105809,73.3466,12.860138)"/>
<path style="fill-rule:evenodd;fill:rgb(13.72549%,12.156863%,12.54902%);fill-opacity:1;stroke-width:0.27;stroke-linecap:butt;stroke-linejoin:miter;stroke:rgb(13.72549%,12.156863%,12.54902%);stroke-opacity:1;stroke-miterlimit:22.926001;" d="M -455.229134 123.335469 C -465.179915 123.335469 -473.294759 131.789666 -473.294759 142.126676 C -473.294759 152.500604 -465.179915 160.954801 -455.229134 160.954801 C -445.278352 160.954801 -437.200227 152.500604 -437.200227 142.126676 C -437.200227 131.789666 -445.278352 123.335469 -455.229134 123.335469 Z M -455.229134 123.335469 " transform="matrix(0.106383,0,0,0.105809,73.3466,12.860138)"/>
<path style="fill-rule:evenodd;fill:rgb(100%,100%,100%);fill-opacity:1;stroke-width:0.27;stroke-linecap:butt;stroke-linejoin:miter;stroke:rgb(13.72549%,12.156863%,12.54902%);stroke-opacity:1;stroke-miterlimit:22.926001;" d="M -455.082259 131.715831 C -460.957259 131.715831 -465.693977 136.478239 -465.693977 142.348184 C -465.693977 148.181211 -460.957259 152.980537 -455.082259 152.980537 C -449.243977 152.980537 -444.507259 148.181211 -444.507259 142.348184 C -444.507259 136.478239 -449.243977 131.715831 -455.082259 131.715831 Z M -455.082259 131.715831 " transform="matrix(0.106383,0,0,0.105809,73.3466,12.860138)"/>
<path style="fill-rule:evenodd;fill:rgb(100%,100%,100%);fill-opacity:1;stroke-width:0.895;stroke-linecap:butt;stroke-linejoin:miter;stroke:rgb(100%,100%,100%);stroke-opacity:1;stroke-miterlimit:22.926001;" d="M -590.280696 119.680598 C -603.315853 119.680598 -613.927571 130.349869 -613.927571 143.381885 C -613.927571 156.413901 -603.315853 167.046253 -590.280696 167.046253 C -577.24554 167.046253 -566.633821 156.413901 -566.633821 143.381885 C -566.633821 130.349869 -577.24554 119.680598 -590.280696 119.680598 Z M -590.280696 119.680598 " transform="matrix(0.106383,0,0,0.105809,73.3466,12.860138)"/>
<path style="fill-rule:evenodd;fill:rgb(13.72549%,12.156863%,12.54902%);fill-opacity:1;stroke-width:0.27;stroke-linecap:butt;stroke-linejoin:miter;stroke:rgb(13.72549%,12.156863%,12.54902%);stroke-opacity:1;stroke-miterlimit:22.926001;" d="M -590.501009 124.479924 C -600.45179 124.479924 -608.566634 132.934121 -608.566634 143.308049 C -608.566634 153.681977 -600.45179 162.136174 -590.501009 162.136174 C -580.586946 162.136174 -572.472103 153.681977 -572.472103 143.308049 C -572.472103 132.934121 -580.586946 124.479924 -590.501009 124.479924 Z M -590.501009 124.479924 " transform="matrix(0.106383,0,0,0.105809,73.3466,12.860138)"/>
<path style="fill-rule:evenodd;fill:rgb(100%,100%,100%);fill-opacity:1;stroke-width:0.27;stroke-linecap:butt;stroke-linejoin:miter;stroke:rgb(13.72549%,12.156863%,12.54902%);stroke-opacity:1;stroke-miterlimit:22.926001;" d="M -590.390852 132.897203 C -596.229134 132.897203 -600.965852 137.659611 -600.965852 143.529556 C -600.965852 149.362583 -596.229134 154.161909 -590.390852 154.161909 C -584.552571 154.161909 -579.779134 149.362583 -579.779134 143.529556 C -579.779134 137.659611 -584.552571 132.897203 -590.390852 132.897203 Z M -590.390852 132.897203 " transform="matrix(0.106383,0,0,0.105809,73.3466,12.860138)"/>
<path style="fill-rule:evenodd;fill:rgb(13.72549%,12.156863%,12.54902%);fill-opacity:1;stroke-width:0.27;stroke-linecap:butt;stroke-linejoin:miter;stroke:rgb(13.72549%,12.156863%,12.54902%);stroke-opacity:1;stroke-miterlimit:22.926001;" d="M -512.363509 -2.665297 L -528.446321 -2.665297 L -528.446321 13.430904 L -512.363509 13.098643 Z M -512.363509 -2.665297 " transform="matrix(0.106383,0,0,0.105809,73.3466,12.860138)"/>
<path style="fill-rule:evenodd;fill:rgb(13.72549%,12.156863%,12.54902%);fill-opacity:1;stroke-width:0.27;stroke-linecap:butt;stroke-linejoin:miter;stroke:rgb(13.72549%,12.156863%,12.54902%);stroke-opacity:1;stroke-miterlimit:22.926001;" d="M -477.517415 -2.665297 L -493.636946 -2.665297 L -493.636946 13.430904 L -477.517415 13.098643 Z M -477.517415 -2.665297 " transform="matrix(0.106383,0,0,0.105809,73.3466,12.860138)"/>
<path style="fill-rule:evenodd;fill:rgb(13.72549%,12.156863%,12.54902%);fill-opacity:1;stroke-width:0.27;stroke-linecap:butt;stroke-linejoin:miter;stroke:rgb(13.72549%,12.156863%,12.54902%);stroke-opacity:1;stroke-miterlimit:22.926001;" d="M -494.922102 15.941321 L -511.041634 15.941321 L -511.004915 32.037522 L -494.922102 31.705261 Z M -494.922102 15.941321 " transform="matrix(0.106383,0,0,0.105809,73.3466,12.860138)"/>
<path style="fill-rule:evenodd;fill:rgb(13.72549%,12.156863%,12.54902%);fill-opacity:1;stroke-width:0.27;stroke-linecap:butt;stroke-linejoin:miter;stroke:rgb(13.72549%,12.156863%,12.54902%);stroke-opacity:1;stroke-miterlimit:22.926001;" d="M -529.768196 15.941321 L -545.851009 15.941321 L -545.851009 32.037522 L -529.768196 31.705261 Z M -529.768196 15.941321 " transform="matrix(0.106383,0,0,0.105809,73.3466,12.860138)"/>
<path style="fill-rule:evenodd;fill:rgb(13.72549%,12.156863%,12.54902%);fill-opacity:1;stroke-width:0.27;stroke-linecap:butt;stroke-linejoin:miter;stroke:rgb(13.72549%,12.156863%,12.54902%);stroke-opacity:1;stroke-miterlimit:22.926001;" d="M -547.172884 -2.665297 L -563.255696 -2.665297 L -563.255696 13.430904 L -547.172884 13.098643 Z M -547.172884 -2.665297 " transform="matrix(0.106383,0,0,0.105809,73.3466,12.860138)"/>
</g>
</svg>
