<?xml version="1.0" encoding="UTF-8"?>
<svg xmlns="http://www.w3.org/2000/svg" xmlns:xlink="http://www.w3.org/1999/xlink" width="35px" height="35px" viewBox="0 0 35 35" version="1.1">
<g id="surface1">
<path style=" stroke:none;fill-rule:nonzero;fill:rgb(100%,100%,100%);fill-opacity:1;" d="M 2.25 0 L 32.75 0 C 33.992188 0 35 1.007812 35 2.25 L 35 32.75 C 35 33.992188 33.992188 35 32.75 35 L 2.25 35 C 1.007812 35 0 33.992188 0 32.75 L 0 2.25 C 0 1.007812 1.007812 0 2.25 0 Z M 2.25 0 "/>
<path style="fill:none;stroke-width:2;stroke-linecap:butt;stroke-linejoin:miter;stroke:rgb(0%,0%,0%);stroke-opacity:1;stroke-miterlimit:4;" d="M 45 1.015625 L 655 1.015625 C 679.296875 1.015625 698.984375 20.703125 698.984375 45 L 698.984375 655 C 698.984375 679.296875 679.296875 698.984375 655 698.984375 L 45 698.984375 C 20.703125 698.984375 1.015625 679.296875 1.015625 655 L 1.015625 45 C 1.015625 20.703125 20.703125 1.015625 45 1.015625 Z M 45 1.015625 " transform="matrix(0.05,0,0,0.05,0,0)"/>
<path style=" stroke:none;fill-rule:nonzero;fill:rgb(5.098039%,41.176471%,88.235294%);fill-opacity:1;" d="M 1 32.75 C 1 33.441406 1.558594 34 2.25 34 L 32.75 34 C 33.441406 34 34 33.441406 34 32.75 L 34 2.25 C 34 1.558594 33.441406 1 32.75 1 L 2.25 1 C 1.558594 1 1 1.558594 1 2.25 Z M 2.566406 27.9375 C 2.566406 27.851562 2.589844 27.761719 2.632812 27.6875 L 17.066406 2.6875 C 17.15625 2.53125 17.320312 2.4375 17.5 2.4375 C 17.679688 2.4375 17.84375 2.53125 17.933594 2.6875 L 32.367188 27.6875 C 32.410156 27.761719 32.433594 27.851562 32.433594 27.9375 C 32.433594 28.214844 32.210938 28.4375 31.933594 28.4375 L 3.066406 28.4375 C 2.789062 28.4375 2.566406 28.214844 2.566406 27.9375 Z M 2.566406 27.9375 "/>
<path style=" stroke:none;fill-rule:nonzero;fill:rgb(0%,0%,0%);fill-opacity:1;" d="M 8.957031 24.464844 L 6.820312 27.671875 L 9.808594 27.671875 L 11.089844 24.464844 Z M 8.957031 24.464844 "/>
<path style=" stroke:none;fill-rule:nonzero;fill:rgb(0%,0%,0%);fill-opacity:1;" d="M 16.539062 24.464844 L 16.113281 27.671875 L 18.886719 27.671875 L 18.460938 24.464844 Z M 16.539062 24.464844 "/>
<path style=" stroke:none;fill-rule:nonzero;fill:rgb(0%,0%,0%);fill-opacity:1;" d="M 23.910156 24.464844 L 25.191406 27.671875 L 28.179688 27.671875 L 26.042969 24.464844 Z M 23.910156 24.464844 "/>
<path style=" stroke:none;fill-rule:nonzero;fill:rgb(0%,0%,0%);fill-opacity:1;" d="M 20.75 25.769531 C 20.855469 26.195312 21.238281 26.496094 21.675781 26.496094 C 22.203125 26.496094 22.632812 26.066406 22.632812 25.539062 C 22.632812 25.460938 22.625 25.382812 22.605469 25.308594 L 21.203125 19.695312 C 21.1875 19.621094 21.152344 19.558594 21.097656 19.507812 L 18.566406 16.976562 L 18.566406 11.628906 C 18.566406 11.449219 18.472656 11.28125 18.316406 11.191406 L 17.019531 10.441406 C 16.707031 10.261719 16.324219 10.261719 16.011719 10.441406 L 12.808594 12.292969 C 12.496094 12.472656 12.304688 12.804688 12.304688 13.164062 L 12.304688 16.683594 C 12.304688 17.101562 12.644531 17.441406 13.058594 17.441406 C 13.476562 17.441406 13.8125 17.101562 13.8125 16.683594 L 13.8125 13.6875 C 13.8125 13.542969 13.890625 13.410156 14.015625 13.339844 L 15.375 12.554688 L 15.375 16.777344 C 15.375 16.910156 15.425781 17.039062 15.519531 17.132812 L 19.539062 21.148438 C 19.589844 21.199219 19.625 21.265625 19.644531 21.335938 Z M 20.75 25.769531 "/>
<path style=" stroke:none;fill-rule:nonzero;fill:rgb(0%,0%,0%);fill-opacity:1;" d="M 15.652344 17.976562 L 17.054688 19.375 L 13.21875 26.015625 C 13.046875 26.3125 12.730469 26.496094 12.390625 26.496094 C 11.863281 26.496094 11.433594 26.066406 11.433594 25.539062 C 11.433594 25.371094 11.480469 25.207031 11.5625 25.0625 Z M 15.652344 17.976562 "/>
<path style=" stroke:none;fill-rule:nonzero;fill:rgb(0%,0%,0%);fill-opacity:1;" d="M 19.070312 15.890625 L 19.070312 13.757812 L 21.945312 16.628906 C 22.085938 16.769531 22.164062 16.964844 22.164062 17.164062 C 22.164062 17.578125 21.828125 17.917969 21.410156 17.917969 C 21.210938 17.917969 21.019531 17.839844 20.875 17.695312 Z M 19.070312 15.890625 "/>
<path style=" stroke:none;fill-rule:nonzero;fill:rgb(0%,0%,0%);fill-opacity:1;" d="M 19.636719 8.984375 C 19.636719 9.777344 19.074219 10.484375 18.363281 10.484375 C 17.582031 10.484375 16.230469 9.691406 16.230469 8.558594 C 16.230469 7.75 16.902344 7.160156 17.652344 7.160156 C 18.84375 7.160156 19.636719 8.070312 19.636719 8.984375 Z M 19.636719 8.984375 "/>
</g>
</svg>
