<?xml version="1.0" encoding="UTF-8"?>
<svg xmlns="http://www.w3.org/2000/svg" xmlns:xlink="http://www.w3.org/1999/xlink" width="35px" height="35px" viewBox="0 0 35 35" version="1.1">
<g id="surface1">
<path style=" stroke:none;fill-rule:nonzero;fill:rgb(100%,100%,100%);fill-opacity:1;" d="M 2.25 0 L 32.75 0 C 33.992188 0 35 1.007812 35 2.25 L 35 32.75 C 35 33.992188 33.992188 35 32.75 35 L 2.25 35 C 1.007812 35 0 33.992188 0 32.75 L 0 2.25 C 0 1.007812 1.007812 0 2.25 0 Z M 2.25 0 "/>
<path style="fill:none;stroke-width:2;stroke-linecap:butt;stroke-linejoin:miter;stroke:rgb(0%,0%,0%);stroke-opacity:1;stroke-miterlimit:4;" d="M 45 1.015625 L 655 1.015625 C 679.296875 1.015625 698.984375 20.703125 698.984375 45 L 698.984375 655 C 698.984375 679.296875 679.296875 698.984375 655 698.984375 L 45 698.984375 C 20.703125 698.984375 1.015625 679.296875 1.015625 655 L 1.015625 45 C 1.015625 20.703125 20.703125 1.015625 45 1.015625 Z M 45 1.015625 " transform="matrix(0.05,0,0,0.05,0,0)"/>
<path style=" stroke:none;fill-rule:nonzero;fill:rgb(5.098039%,41.176471%,88.235294%);fill-opacity:1;" d="M 1 32.75 C 1 33.441406 1.558594 34 2.25 34 L 32.75 34 C 33.441406 34 34 33.441406 34 32.75 L 34 2.25 C 34 1.558594 33.441406 1 32.75 1 L 2.25 1 C 1.558594 1 1 1.558594 1 2.25 Z M 2.566406 27.9375 C 2.566406 27.851562 2.589844 27.761719 2.632812 27.6875 L 17.066406 2.6875 C 17.15625 2.53125 17.320312 2.4375 17.5 2.4375 C 17.679688 2.4375 17.84375 2.53125 17.933594 2.6875 L 32.367188 27.6875 C 32.410156 27.761719 32.433594 27.851562 32.433594 27.9375 C 32.433594 28.214844 32.210938 28.4375 31.933594 28.4375 L 3.066406 28.4375 C 2.789062 28.4375 2.566406 28.214844 2.566406 27.9375 Z M 2.566406 27.9375 "/>
<path style=" stroke:none;fill-rule:nonzero;fill:rgb(0%,0%,0%);fill-opacity:1;" d="M 8.957031 24.464844 L 6.820312 27.671875 L 9.808594 27.671875 L 11.089844 24.464844 Z M 8.957031 24.464844 "/>
<path style=" stroke:none;fill-rule:nonzero;fill:rgb(0%,0%,0%);fill-opacity:1;" d="M 16.539062 24.464844 L 16.113281 27.671875 L 18.886719 27.671875 L 18.460938 24.464844 Z M 16.539062 24.464844 "/>
<path style=" stroke:none;fill-rule:nonzero;fill:rgb(0%,0%,0%);fill-opacity:1;" d="M 23.910156 24.464844 L 25.191406 27.671875 L 28.179688 27.671875 L 26.042969 24.464844 Z M 23.910156 24.464844 "/>
<path style=" stroke:none;fill-rule:nonzero;fill:rgb(0%,0%,0%);fill-opacity:1;" d="M 14.25 25.769531 C 14.144531 26.195312 13.761719 26.496094 13.324219 26.496094 C 12.796875 26.496094 12.367188 26.066406 12.367188 25.539062 C 12.367188 25.460938 12.375 25.382812 12.394531 25.308594 L 13.796875 19.695312 C 13.8125 19.621094 13.847656 19.558594 13.902344 19.507812 L 16.433594 16.976562 L 16.433594 11.628906 C 16.433594 11.449219 16.527344 11.28125 16.683594 11.191406 L 17.980469 10.441406 C 18.292969 10.261719 18.675781 10.261719 18.988281 10.441406 L 22.191406 12.292969 C 22.503906 12.472656 22.695312 12.804688 22.695312 13.164062 L 22.695312 16.683594 C 22.695312 17.101562 22.355469 17.441406 21.941406 17.441406 C 21.523438 17.441406 21.1875 17.101562 21.1875 16.683594 L 21.1875 13.6875 C 21.1875 13.542969 21.109375 13.410156 20.984375 13.339844 L 19.625 12.554688 L 19.625 16.777344 C 19.625 16.910156 19.574219 17.039062 19.480469 17.132812 L 15.460938 21.148438 C 15.410156 21.199219 15.375 21.265625 15.355469 21.335938 Z M 14.25 25.769531 "/>
<path style=" stroke:none;fill-rule:nonzero;fill:rgb(0%,0%,0%);fill-opacity:1;" d="M 19.347656 17.976562 L 17.945312 19.375 L 21.78125 26.015625 C 21.953125 26.3125 22.269531 26.496094 22.609375 26.496094 C 23.136719 26.496094 23.566406 26.066406 23.566406 25.539062 C 23.566406 25.371094 23.519531 25.207031 23.4375 25.0625 Z M 19.347656 17.976562 "/>
<path style=" stroke:none;fill-rule:nonzero;fill:rgb(0%,0%,0%);fill-opacity:1;" d="M 15.929688 15.890625 L 15.929688 13.757812 L 13.054688 16.628906 C 12.914062 16.769531 12.835938 16.964844 12.835938 17.164062 C 12.835938 17.578125 13.171875 17.917969 13.589844 17.917969 C 13.789062 17.917969 13.980469 17.839844 14.125 17.695312 Z M 15.929688 15.890625 "/>
<path style=" stroke:none;fill-rule:nonzero;fill:rgb(0%,0%,0%);fill-opacity:1;" d="M 15.363281 8.984375 C 15.363281 9.777344 15.925781 10.484375 16.636719 10.484375 C 17.417969 10.484375 18.769531 9.691406 18.769531 8.558594 C 18.769531 7.75 18.097656 7.160156 17.347656 7.160156 C 16.15625 7.160156 15.363281 8.070312 15.363281 8.984375 Z M 15.363281 8.984375 "/>
</g>
</svg>
