<?xml version="1.0" encoding="UTF-8"?>
<svg xmlns="http://www.w3.org/2000/svg" xmlns:xlink="http://www.w3.org/1999/xlink" width="35px" height="35px" viewBox="0 0 35 35" version="1.1">
<g id="surface1">
<path style=" stroke:none;fill-rule:nonzero;fill:rgb(100%,100%,100%);fill-opacity:1;" d="M 2.625 0 L 32.375 0 C 33.824219 0 35 1.175781 35 2.625 L 35 32.375 C 35 33.824219 33.824219 35 32.375 35 L 2.625 35 C 1.175781 35 0 33.824219 0 32.375 L 0 2.625 C 0 1.175781 1.175781 0 2.625 0 Z M 2.625 0 "/>
<path style=" stroke:none;fill-rule:nonzero;fill:rgb(5.098039%,41.176471%,88.235294%);fill-opacity:1;" d="M 2.625 1.167969 C 1.816406 1.167969 1.167969 1.816406 1.167969 2.625 L 1.167969 31.5 L 8.167969 31.5 L 8.167969 29.167969 L 14.582031 29.167969 L 14.582031 26.832031 L 21 26.832031 L 21 24.5 L 27.417969 24.5 L 27.417969 22.167969 L 33.832031 22.167969 L 33.832031 2.625 C 33.832031 1.816406 33.183594 1.167969 32.375 1.167969 Z M 14.789062 2.917969 C 16.070312 2.917969 16.597656 3.878906 16.597656 4.667969 C 16.597656 6.035156 14.738281 7 14.027344 7 C 13.019531 7 12.394531 6.039062 12.394531 5.15625 C 12.394531 4.117188 13.285156 2.917969 14.789062 2.917969 Z M 16.167969 6.992188 C 16.273438 6.996094 16.378906 7.027344 16.472656 7.089844 L 20.375 9.726562 C 20.46875 9.789062 20.535156 9.886719 20.550781 10 L 21.199219 14.085938 C 21.28125 14.597656 20.929688 15.074219 20.421875 15.15625 C 19.914062 15.238281 19.4375 14.886719 19.355469 14.378906 L 18.835938 11.09375 C 18.816406 10.980469 18.753906 10.882812 18.660156 10.820312 L 16.746094 9.527344 L 17.574219 14.75 C 17.59375 14.890625 17.5625 15.035156 17.484375 15.15625 L 14.410156 19.890625 C 14.328125 20.019531 14.324219 20.183594 14.402344 20.316406 L 17.003906 24.820312 C 17.308594 25.351562 17.125 26.03125 16.597656 26.335938 C 16.066406 26.640625 15.386719 26.460938 15.082031 25.929688 L 11.703125 20.078125 C 11.628906 19.945312 11.632812 19.78125 11.714844 19.652344 L 14.183594 15.855469 C 14.234375 15.773438 14.257812 15.675781 14.246094 15.578125 L 13.367188 8.921875 C 13.335938 8.6875 13.449219 8.457031 13.65625 8.339844 L 15.855469 7.070312 C 15.949219 7.011719 16.058594 6.988281 16.167969 6.992188 Z M 12.914062 10.84375 L 13.246094 13.351562 L 11.160156 15.835938 C 10.832031 16.230469 10.242188 16.285156 9.84375 15.953125 C 9.449219 15.621094 9.398438 15.03125 9.730469 14.636719 Z M 11.988281 21.972656 L 13.398438 24.410156 L 11.894531 28.125 C 11.664062 28.691406 11.019531 28.964844 10.453125 28.738281 C 9.886719 28.507812 9.609375 27.859375 9.839844 27.292969 Z M 28.582031 24.5 L 28.582031 26.832031 L 22.167969 26.832031 L 22.167969 29.167969 L 15.75 29.167969 L 15.75 31.5 L 9.332031 31.5 L 9.332031 33.832031 L 32.375 33.832031 C 33.183594 33.832031 33.832031 33.183594 33.832031 32.375 L 33.832031 24.5 Z M 28.582031 24.5 "/>
<path style="fill:none;stroke-width:2;stroke-linecap:butt;stroke-linejoin:miter;stroke:rgb(0%,0%,0%);stroke-opacity:1;stroke-miterlimit:4;" d="M 45 453.366644 L 555 453.366644 C 579.308036 453.366644 598.995536 473.054144 598.995536 497.36218 L 598.995536 1007.36218 C 598.995536 1031.670216 579.308036 1051.357716 555 1051.357716 L 45 1051.357716 C 20.691964 1051.357716 1.004464 1031.670216 1.004464 1007.36218 L 1.004464 497.36218 C 1.004464 473.054144 20.691964 453.366644 45 453.366644 Z M 45 453.366644 " transform="matrix(0.0583333,0,0,0.0583333,0,-26.387794)"/>
</g>
</svg>
