<?xml version="1.0" encoding="UTF-8"?>
<svg xmlns="http://www.w3.org/2000/svg" xmlns:xlink="http://www.w3.org/1999/xlink" width="35px" height="35px" viewBox="0 0 35 35" version="1.1">
<g id="surface1">
<path style=" stroke:none;fill-rule:nonzero;fill:rgb(100%,100%,100%);fill-opacity:1;" d="M 2.625 0 L 32.375 0 C 33.824219 0 35 1.175781 35 2.625 L 35 32.375 C 35 33.824219 33.824219 35 32.375 35 L 2.625 35 C 1.175781 35 0 33.824219 0 32.375 L 0 2.625 C 0 1.175781 1.175781 0 2.625 0 Z M 2.625 0 "/>
<path style="fill:none;stroke-width:2;stroke-linecap:butt;stroke-linejoin:miter;stroke:rgb(0%,0%,0%);stroke-opacity:1;stroke-miterlimit:4;" d="M 45 453.366644 L 555 453.366644 C 579.308036 453.366644 598.995536 473.054144 598.995536 497.36218 L 598.995536 1007.36218 C 598.995536 1031.670216 579.308036 1051.357716 555 1051.357716 L 45 1051.357716 C 20.691964 1051.357716 1.004464 1031.670216 1.004464 1007.36218 L 1.004464 497.36218 C 1.004464 473.054144 20.691964 453.366644 45 453.366644 Z M 45 453.366644 " transform="matrix(0.0583333,0,0,0.0583333,0,-26.387794)"/>
<path style=" stroke:none;fill-rule:nonzero;fill:rgb(5.098039%,41.176471%,88.235294%);fill-opacity:1;" d="M 32.375 1.167969 C 33.183594 1.167969 33.832031 1.816406 33.832031 2.625 L 33.832031 22.167969 L 27.417969 22.167969 L 27.417969 24.5 L 21 24.5 L 21 26.832031 L 14.582031 26.832031 L 14.582031 29.167969 L 8.167969 29.167969 L 8.167969 31.5 L 1.167969 31.5 L 1.167969 2.625 C 1.167969 1.816406 1.816406 1.167969 2.625 1.167969 Z M 18.882812 2.867188 C 17.289062 2.867188 16.867188 3.996094 16.867188 4.65625 C 16.867188 6.222656 18.867188 6.789062 19.652344 6.789062 C 20.742188 6.789062 21.1875 5.796875 21.1875 5.035156 C 21.1875 4.15625 20.445312 2.867188 18.882812 2.867188 Z M 17.789062 7.070312 C 17.589844 7.066406 17.394531 7.117188 17.214844 7.214844 L 13.390625 9.335938 C 13.289062 9.390625 13.21875 9.484375 13.191406 9.59375 L 12.191406 13.605469 C 12.066406 14.105469 12.371094 14.613281 12.871094 14.738281 C 13.371094 14.859375 13.878906 14.558594 14 14.054688 L 14.804688 10.832031 C 14.832031 10.722656 14.902344 10.628906 15.003906 10.574219 L 17.007812 9.464844 L 16.195312 14.578125 C 16.152344 14.851562 16.292969 15.125 16.539062 15.25 L 22.226562 18.148438 L 22.226562 23.070312 C 22.226562 23.652344 22.695312 24.121094 23.273438 24.121094 C 23.855469 24.121094 24.324219 23.652344 24.324219 23.070312 L 24.324219 17.183594 C 24.324219 16.984375 24.214844 16.804688 24.039062 16.714844 L 19.945312 14.628906 C 19.789062 14.550781 19.703125 14.382812 19.726562 14.210938 L 20.433594 8.835938 C 20.464844 8.601562 20.351562 8.371094 20.148438 8.253906 L 18.363281 7.222656 C 18.1875 7.121094 17.988281 7.070312 17.789062 7.070312 Z M 20.914062 10.542969 L 20.644531 12.578125 L 23.035156 14.070312 C 23.472656 14.34375 24.046875 14.210938 24.320312 13.773438 C 24.59375 13.335938 24.460938 12.761719 24.023438 12.488281 Z M 16.835938 16.1875 L 15.242188 25.222656 C 15.140625 25.792969 15.523438 26.335938 16.09375 26.4375 C 16.664062 26.539062 17.207031 26.15625 17.308594 25.585938 L 18.789062 17.183594 Z M 33.832031 24.5 L 33.832031 32.375 C 33.832031 33.183594 33.183594 33.832031 32.375 33.832031 L 9.332031 33.832031 L 9.332031 31.5 L 15.75 31.5 L 15.75 29.167969 L 22.167969 29.167969 L 22.167969 26.832031 L 28.582031 26.832031 L 28.582031 24.5 Z M 33.832031 24.5 "/>
</g>
</svg>
