<?xml version="1.0" encoding="UTF-8"?>
<svg xmlns="http://www.w3.org/2000/svg" xmlns:xlink="http://www.w3.org/1999/xlink" width="35px" height="35px" viewBox="0 0 35 35" version="1.1">
<g id="surface1">
<path style=" stroke:none;fill-rule:nonzero;fill:rgb(100%,100%,100%);fill-opacity:1;" d="M 2.625 0 L 32.375 0 C 33.824219 0 35 1.175781 35 2.625 L 35 32.375 C 35 33.824219 33.824219 35 32.375 35 L 2.625 35 C 1.175781 35 0 33.824219 0 32.375 L 0 2.625 C 0 1.175781 1.175781 0 2.625 0 Z M 2.625 0 "/>
<path style=" stroke:none;fill-rule:nonzero;fill:rgb(5.098039%,41.176471%,88.235294%);fill-opacity:1;" d="M 2.625 1.167969 C 1.816406 1.167969 1.167969 1.816406 1.167969 2.625 L 1.167969 32.375 C 1.167969 33.183594 1.816406 33.832031 2.625 33.832031 L 9.03125 33.832031 L 9.03125 1.167969 Z M 12.417969 1.167969 L 12.417969 15.804688 L 19.195312 15.804688 L 19.195312 10.160156 L 27.097656 10.160156 L 27.097656 24.839844 L 19.195312 24.839844 L 19.195312 19.195312 L 12.417969 19.195312 L 12.417969 33.832031 L 32.375 33.832031 C 33.183594 33.832031 33.832031 33.183594 33.832031 32.375 L 33.832031 2.625 C 33.832031 1.816406 33.183594 1.167969 32.375 1.167969 Z M 12.417969 1.167969 "/>
<path style="fill:none;stroke-width:2;stroke-linecap:butt;stroke-linejoin:miter;stroke:rgb(0%,0%,0%);stroke-opacity:1;stroke-miterlimit:4;" d="M 45 453.366644 L 555 453.366644 C 579.308036 453.366644 598.995536 473.054144 598.995536 497.36218 L 598.995536 1007.36218 C 598.995536 1031.670216 579.308036 1051.357716 555 1051.357716 L 45 1051.357716 C 20.691964 1051.357716 1.004464 1031.670216 1.004464 1007.36218 L 1.004464 497.36218 C 1.004464 473.054144 20.691964 453.366644 45 453.366644 Z M 45 453.366644 " transform="matrix(0.0583333,0,0,0.0583333,0,-26.387794)"/>
<path style=" stroke:none;fill-rule:nonzero;fill:rgb(100%,0%,0%);fill-opacity:1;" d="M 20.324219 23.710938 L 20.324219 11.289062 L 25.96875 11.289062 L 25.96875 23.710938 Z M 20.324219 23.710938 "/>
</g>
</svg>
