<?xml version="1.0" encoding="UTF-8"?>
<svg xmlns="http://www.w3.org/2000/svg" xmlns:xlink="http://www.w3.org/1999/xlink" width="35px" height="35px" viewBox="0 0 35 35" version="1.1">
<g id="surface1">
<path style=" stroke:none;fill-rule:nonzero;fill:rgb(100%,100%,100%);fill-opacity:1;" d="M 1.3125 0 L 33.6875 0 C 34.414062 0 35 0.585938 35 1.3125 L 35 33.6875 C 35 34.414062 34.414062 35 33.6875 35 L 1.3125 35 C 0.585938 35 0 34.414062 0 33.6875 L 0 1.3125 C 0 0.585938 0.585938 0 1.3125 0 Z M 1.3125 0 "/>
<path style="fill:none;stroke-width:2;stroke-linecap:butt;stroke-linejoin:miter;stroke:rgb(0%,0%,0%);stroke-opacity:1;stroke-miterlimit:4;" d="M 45 -146.70032 L 1155 -146.70032 C 1179.241071 -146.70032 1199.0625 -126.878891 1199.0625 -102.63782 L 1199.0625 1007.36218 C 1199.0625 1031.603251 1179.241071 1051.42468 1155 1051.42468 L 45 1051.42468 C 20.758929 1051.42468 0.9375 1031.603251 0.9375 1007.36218 L 0.9375 -102.63782 C 0.9375 -126.878891 20.758929 -146.70032 45 -146.70032 Z M 45 -146.70032 " transform="matrix(0.0291667,0,0,0.0291667,0,4.306103)"/>
<path style=" stroke:none;fill-rule:nonzero;fill:rgb(0%,0%,0%);fill-opacity:1;" d="M 24.207031 20.417969 C 25.980469 20.417969 27.417969 18.980469 27.417969 17.207031 L 27.417969 10.207031 C 27.417969 8.4375 25.980469 7 24.207031 7 L 15.457031 7 C 13.6875 7 12.25 8.4375 12.25 10.207031 L 12.25 18.082031 L 7 18.082031 L 7 16.332031 L 1.894531 19.25 L 7 22.167969 L 7 20.417969 L 12.25 20.417969 L 12.25 34.417969 L 14.582031 34.417969 L 14.582031 20.417969 Z M 14.582031 10.207031 C 14.582031 9.726562 14.976562 9.332031 15.457031 9.332031 L 24.207031 9.332031 C 24.691406 9.332031 25.082031 9.726562 25.082031 10.207031 L 25.082031 17.207031 C 25.082031 17.691406 24.691406 18.082031 24.207031 18.082031 L 14.582031 18.082031 Z M 14.582031 10.207031 "/>
<path style=" stroke:none;fill-rule:nonzero;fill:rgb(5.098039%,41.176471%,88.235294%);fill-opacity:1;" d="M 1.3125 0.582031 L 10.5 0.582031 L 10.5 16.332031 L 0.582031 16.332031 L 0.582031 1.3125 C 0.582031 0.910156 0.910156 0.582031 1.3125 0.582031 Z M 1.3125 0.582031 "/>
<path style=" stroke:none;fill-rule:nonzero;fill:rgb(5.098039%,41.176471%,88.235294%);fill-opacity:1;" d="M 16.332031 0.582031 L 23.332031 0.582031 L 23.332031 5.25 L 16.332031 5.25 Z M 16.332031 0.582031 "/>
<path style=" stroke:none;fill-rule:nonzero;fill:rgb(5.098039%,41.176471%,88.235294%);fill-opacity:1;" d="M 16.332031 11.082031 L 23.332031 11.082031 L 23.332031 16.332031 L 16.332031 16.332031 Z M 16.332031 11.082031 "/>
<path style=" stroke:none;fill-rule:nonzero;fill:rgb(5.098039%,41.176471%,88.235294%);fill-opacity:1;" d="M 33.6875 0.582031 C 34.089844 0.582031 34.417969 0.910156 34.417969 1.3125 L 34.417969 16.332031 L 29.167969 16.332031 L 29.167969 0.582031 Z M 33.6875 0.582031 "/>
<path style=" stroke:none;fill-rule:nonzero;fill:rgb(5.098039%,41.176471%,88.235294%);fill-opacity:1;" d="M 10.5 22.167969 L 10.5 34.417969 L 1.3125 34.417969 C 0.910156 34.417969 0.582031 34.089844 0.582031 33.6875 L 0.582031 22.167969 Z M 10.5 22.167969 "/>
<path style=" stroke:none;fill-rule:nonzero;fill:rgb(5.098039%,41.176471%,88.235294%);fill-opacity:1;" d="M 34.417969 22.167969 L 34.417969 33.6875 C 34.417969 34.089844 34.089844 34.417969 33.6875 34.417969 L 16.332031 34.417969 L 16.332031 22.167969 Z M 34.417969 22.167969 "/>
<path style=" stroke:none;fill-rule:nonzero;fill:rgb(100%,100%,100%);fill-opacity:1;" d="M 19.25 27.417969 C 19.25 30.636719 16.636719 33.25 13.417969 33.25 C 10.195312 33.25 7.582031 30.636719 7.582031 27.417969 C 7.582031 24.195312 10.195312 21.582031 13.417969 21.582031 C 16.636719 21.582031 19.25 24.195312 19.25 27.417969 Z M 19.25 27.417969 "/>
<path style=" stroke:none;fill-rule:nonzero;fill:rgb(100%,0%,0%);fill-opacity:1;" d="M 13.417969 21.582031 C 10.195312 21.582031 7.582031 24.195312 7.582031 27.417969 C 7.582031 30.636719 10.195312 33.25 13.417969 33.25 C 16.636719 33.25 19.25 30.636719 19.25 27.417969 C 19.25 24.195312 16.636719 21.582031 13.417969 21.582031 Z M 13.417969 22.570312 C 16.09375 22.570312 18.265625 24.738281 18.265625 27.417969 C 18.265625 28.613281 17.828125 29.710938 17.109375 30.558594 L 10.277344 23.726562 C 11.121094 23.003906 12.21875 22.570312 13.417969 22.570312 Z M 9.726562 24.277344 L 16.558594 31.109375 C 15.710938 31.828125 14.613281 32.265625 13.417969 32.265625 C 10.738281 32.265625 8.570312 30.09375 8.570312 27.417969 C 8.570312 26.21875 9.003906 25.121094 9.726562 24.277344 Z M 9.726562 24.277344 "/>
<path style=" stroke:none;fill-rule:nonzero;fill:rgb(0%,0%,0%);fill-opacity:1;" d="M 12.445312 23.507812 L 11.105469 24.28125 L 12.488281 25.664062 L 14.390625 25.664062 C 14.820312 25.664062 15.167969 26.011719 15.167969 26.445312 L 15.167969 28.34375 L 16.335938 29.511719 L 16.335938 26.445312 C 16.335938 25.367188 15.464844 24.496094 14.390625 24.496094 L 12.445312 24.496094 Z M 10.058594 24.882812 L 9.71875 25.082031 L 10.988281 25.816406 Z M 15.167969 29.992188 L 15.167969 31.117188 L 16.289062 31.117188 Z M 15.167969 29.992188 "/>
</g>
</svg>
