<?xml version="1.0" encoding="UTF-8"?>
<svg xmlns="http://www.w3.org/2000/svg" xmlns:xlink="http://www.w3.org/1999/xlink" width="35px" height="35px" viewBox="0 0 35 16" version="1.1">
<g id="surface1">
<path style=" stroke:none;fill-rule:nonzero;fill:rgb(100%,100%,100%);fill-opacity:1;" d="M 0.925781 0 L 34.074219 0 C 34.585938 0 35 0.40625 35 0.910156 L 35 15.089844 C 35 15.59375 34.585938 16 34.074219 16 L 0.925781 16 C 0.414062 16 0 15.59375 0 15.089844 L 0 0.910156 C 0 0.40625 0.414062 0 0.925781 0 Z M 0.925781 0 "/>
<path style=" stroke:none;fill-rule:nonzero;fill:rgb(5.098039%,41.176471%,88.235294%);fill-opacity:1;" d="M 0.925781 0.363281 C 0.617188 0.363281 0.371094 0.609375 0.371094 0.910156 L 0.371094 15.089844 C 0.371094 15.390625 0.617188 15.636719 0.925781 15.636719 L 34.074219 15.636719 C 34.382812 15.636719 34.628906 15.390625 34.628906 15.089844 L 34.628906 0.910156 C 34.628906 0.609375 34.382812 0.363281 34.074219 0.363281 Z M 3.035156 1.316406 L 9.316406 1.316406 C 9.742188 1.316406 10.089844 1.65625 10.089844 2.074219 L 10.089844 5.621094 C 10.089844 6.039062 9.742188 6.378906 9.316406 6.378906 L 3.035156 6.378906 C 2.609375 6.378906 2.265625 6.039062 2.265625 5.621094 L 2.265625 2.074219 C 2.265625 1.65625 2.609375 1.316406 3.035156 1.316406 Z M 3.035156 1.621094 C 2.78125 1.621094 2.574219 1.824219 2.574219 2.074219 L 2.574219 5.621094 C 2.574219 5.871094 2.78125 6.074219 3.035156 6.074219 L 9.316406 6.074219 C 9.574219 6.074219 9.78125 5.871094 9.78125 5.621094 L 9.78125 2.074219 C 9.78125 1.824219 9.574219 1.621094 9.316406 1.621094 Z M 13.445312 2.152344 L 13.5625 2.683594 C 13.421875 2.6875 13.3125 2.722656 13.242188 2.792969 C 13.171875 2.863281 13.097656 2.953125 13.023438 3.0625 C 12.945312 3.167969 12.855469 3.28125 12.753906 3.402344 C 12.652344 3.519531 12.558594 3.585938 12.480469 3.59375 C 12.667969 3.617188 12.808594 3.6875 12.902344 3.808594 C 12.996094 3.929688 13.089844 4.074219 13.175781 4.242188 C 13.285156 4.4375 13.398438 4.632812 13.507812 4.820312 C 13.617188 5.007812 13.738281 5.15625 13.871094 5.265625 L 13.199219 5.265625 C 13.140625 5.160156 13.054688 5.007812 12.933594 4.808594 C 12.8125 4.609375 12.699219 4.421875 12.597656 4.242188 C 12.53125 4.121094 12.460938 4.027344 12.382812 3.960938 C 12.304688 3.894531 12.210938 3.863281 12.09375 3.859375 C 12.050781 3.863281 12.003906 3.863281 11.949219 3.867188 C 11.898438 3.875 11.867188 3.875 11.863281 3.878906 L 11.863281 5.265625 L 11.324219 5.265625 L 11.324219 2.226562 L 11.863281 2.226562 L 11.863281 3.363281 C 11.867188 3.363281 11.875 3.367188 11.878906 3.367188 C 11.882812 3.371094 11.890625 3.371094 11.902344 3.371094 C 12.089844 3.371094 12.246094 3.273438 12.378906 3.085938 C 12.511719 2.902344 12.65625 2.707031 12.816406 2.507812 C 12.972656 2.3125 13.183594 2.191406 13.445312 2.152344 Z M 15.476562 2.152344 C 15.902344 2.164062 16.214844 2.320312 16.421875 2.621094 C 16.632812 2.921875 16.734375 3.296875 16.734375 3.746094 C 16.734375 4.199219 16.632812 4.574219 16.421875 4.875 C 16.214844 5.175781 15.902344 5.332031 15.476562 5.339844 C 15.050781 5.332031 14.738281 5.175781 14.53125 4.875 C 14.320312 4.574219 14.21875 4.199219 14.21875 3.746094 C 14.21875 3.296875 14.320312 2.921875 14.53125 2.621094 C 14.738281 2.320312 15.050781 2.164062 15.476562 2.152344 Z M 21.585938 2.152344 C 22.007812 2.164062 22.324219 2.320312 22.53125 2.621094 C 22.738281 2.921875 22.84375 3.296875 22.84375 3.746094 C 22.84375 4.199219 22.738281 4.574219 22.53125 4.875 C 22.324219 5.175781 22.007812 5.332031 21.585938 5.339844 C 21.160156 5.332031 20.84375 5.175781 20.636719 4.875 C 20.429688 4.574219 20.328125 4.199219 20.328125 3.746094 C 20.328125 3.296875 20.429688 2.921875 20.636719 2.621094 C 20.84375 2.320312 21.160156 2.164062 21.585938 2.152344 Z M 3.539062 2.226562 L 4.078125 2.226562 L 4.773438 3.707031 L 5.46875 2.226562 L 6.007812 2.226562 L 6.355469 5.265625 L 5.777344 5.265625 L 5.585938 3.023438 L 4.773438 4.808594 L 3.964844 3.023438 L 3.769531 5.265625 L 3.191406 5.265625 Z M 7.125 2.226562 L 8.898438 2.226562 L 8.746094 2.722656 L 7.625 2.722656 L 7.625 3.441406 C 7.6875 3.367188 7.761719 3.316406 7.855469 3.292969 C 7.945312 3.265625 8.035156 3.25 8.128906 3.253906 C 8.351562 3.253906 8.558594 3.335938 8.75 3.5 C 8.941406 3.664062 9.042969 3.898438 9.054688 4.203125 C 9.050781 4.515625 8.941406 4.773438 8.730469 4.980469 C 8.519531 5.1875 8.226562 5.296875 7.859375 5.304688 C 7.675781 5.296875 7.507812 5.273438 7.359375 5.226562 C 7.210938 5.183594 7.132812 5.160156 7.125 5.152344 L 7.046875 4.660156 C 7.144531 4.71875 7.257812 4.761719 7.390625 4.78125 C 7.519531 4.800781 7.652344 4.8125 7.78125 4.808594 C 7.945312 4.808594 8.097656 4.761719 8.242188 4.667969 C 8.386719 4.574219 8.464844 4.429688 8.476562 4.242188 C 8.472656 4.101562 8.429688 3.972656 8.335938 3.855469 C 8.242188 3.738281 8.109375 3.679688 7.933594 3.671875 C 7.820312 3.679688 7.722656 3.710938 7.644531 3.769531 C 7.566406 3.828125 7.511719 3.871094 7.472656 3.898438 L 7.125 3.707031 Z M 17.777344 2.226562 L 19.707031 2.226562 L 19.707031 5.265625 L 19.167969 5.265625 L 19.167969 2.683594 L 18.316406 2.683594 C 18.316406 2.695312 18.316406 2.796875 18.316406 2.992188 C 18.316406 3.1875 18.3125 3.402344 18.304688 3.640625 C 18.300781 3.875 18.292969 4.0625 18.277344 4.203125 C 18.230469 4.550781 18.125 4.808594 17.960938 4.96875 C 17.792969 5.132812 17.636719 5.238281 17.480469 5.28125 C 17.328125 5.328125 17.246094 5.347656 17.234375 5.339844 L 17.148438 4.832031 C 17.152344 4.832031 17.199219 4.816406 17.285156 4.78125 C 17.371094 4.746094 17.460938 4.6875 17.554688 4.609375 C 17.648438 4.527344 17.707031 4.417969 17.738281 4.277344 C 17.75 4.195312 17.757812 4.035156 17.765625 3.796875 C 17.769531 3.5625 17.773438 3.300781 17.773438 3.011719 C 17.777344 2.726562 17.777344 2.464844 17.777344 2.226562 Z M 23.652344 2.226562 L 24.195312 2.226562 L 24.890625 3.707031 L 25.585938 2.226562 L 26.125 2.226562 L 26.472656 5.265625 L 25.894531 5.265625 L 25.699219 3.023438 L 24.890625 4.808594 L 24.078125 3.023438 L 23.886719 5.265625 L 23.304688 5.265625 Z M 27.070312 2.226562 L 27.609375 2.226562 L 27.609375 3.441406 L 28.769531 3.441406 L 28.769531 2.226562 L 29.308594 2.226562 L 29.308594 5.265625 L 28.769531 5.265625 L 28.769531 3.898438 L 27.609375 3.898438 L 27.609375 5.265625 L 27.070312 5.265625 Z M 30.953125 2.226562 L 31.570312 2.226562 L 32.574219 5.265625 L 31.996094 5.265625 L 31.800781 4.660156 L 30.722656 4.660156 L 30.527344 5.265625 L 29.949219 5.265625 Z M 15.476562 2.644531 C 15.261719 2.648438 15.085938 2.746094 14.949219 2.941406 C 14.816406 3.132812 14.746094 3.402344 14.742188 3.746094 C 14.746094 4.089844 14.816406 4.359375 14.949219 4.554688 C 15.085938 4.746094 15.261719 4.84375 15.476562 4.847656 C 15.691406 4.84375 15.867188 4.746094 16.003906 4.554688 C 16.136719 4.359375 16.207031 4.089844 16.210938 3.746094 C 16.207031 3.402344 16.136719 3.132812 16.003906 2.941406 C 15.867188 2.746094 15.691406 2.648438 15.476562 2.644531 Z M 21.585938 2.644531 C 21.367188 2.648438 21.195312 2.746094 21.058594 2.941406 C 20.925781 3.132812 20.855469 3.402344 20.851562 3.746094 C 20.855469 4.089844 20.925781 4.359375 21.058594 4.554688 C 21.195312 4.746094 21.367188 4.84375 21.585938 4.847656 C 21.800781 4.84375 21.976562 4.746094 22.109375 4.554688 C 22.246094 4.359375 22.316406 4.089844 22.320312 3.746094 C 22.316406 3.402344 22.246094 3.132812 22.109375 2.941406 C 21.976562 2.746094 21.800781 2.648438 21.585938 2.644531 Z M 31.261719 2.910156 L 30.875 4.203125 L 31.648438 4.203125 Z M 18.128906 6.40625 C 18.441406 6.410156 18.683594 6.492188 18.863281 6.652344 C 19.039062 6.808594 19.128906 7.007812 19.132812 7.242188 C 19.125 7.429688 19.078125 7.570312 18.992188 7.671875 C 18.90625 7.769531 18.816406 7.835938 18.730469 7.875 C 18.644531 7.910156 18.597656 7.925781 18.589844 7.925781 C 18.597656 7.921875 18.65625 7.941406 18.761719 7.984375 C 18.867188 8.027344 18.972656 8.105469 19.078125 8.214844 C 19.183594 8.328125 19.238281 8.484375 19.246094 8.683594 C 19.246094 8.886719 19.144531 9.085938 18.941406 9.28125 C 18.742188 9.476562 18.457031 9.582031 18.089844 9.59375 C 17.753906 9.578125 17.480469 9.507812 17.265625 9.386719 C 17.050781 9.265625 16.9375 9.195312 16.929688 9.175781 L 17.277344 8.757812 C 17.277344 8.773438 17.347656 8.832031 17.484375 8.929688 C 17.625 9.03125 17.839844 9.085938 18.128906 9.101562 C 18.289062 9.097656 18.421875 9.054688 18.535156 8.972656 C 18.644531 8.890625 18.703125 8.78125 18.707031 8.644531 C 18.703125 8.492188 18.652344 8.371094 18.558594 8.285156 C 18.460938 8.199219 18.34375 8.152344 18.207031 8.152344 L 17.859375 8.152344 L 17.859375 7.695312 L 18.207031 7.695312 C 18.359375 7.6875 18.46875 7.636719 18.535156 7.546875 C 18.597656 7.460938 18.632812 7.382812 18.628906 7.316406 C 18.636719 7.25 18.605469 7.164062 18.539062 7.066406 C 18.472656 6.964844 18.335938 6.910156 18.128906 6.898438 C 17.859375 6.910156 17.664062 6.960938 17.539062 7.046875 C 17.414062 7.128906 17.355469 7.179688 17.355469 7.191406 L 17.0625 6.746094 C 17.070312 6.734375 17.167969 6.675781 17.363281 6.574219 C 17.558594 6.476562 17.8125 6.417969 18.128906 6.40625 Z M 11.324219 6.480469 L 12.367188 6.480469 C 12.746094 6.5 13.015625 6.617188 13.175781 6.832031 C 13.335938 7.050781 13.414062 7.261719 13.40625 7.46875 C 13.402344 7.675781 13.308594 7.886719 13.117188 8.105469 C 12.929688 8.320312 12.679688 8.4375 12.367188 8.457031 L 11.863281 8.457031 L 11.863281 9.519531 L 11.324219 9.519531 Z M 15.289062 6.480469 L 16.40625 6.480469 L 16.40625 9.519531 L 15.867188 9.519531 L 15.867188 8.304688 L 15.519531 8.304688 C 15.351562 8.308594 15.230469 8.351562 15.15625 8.441406 C 15.082031 8.527344 15.015625 8.636719 14.957031 8.765625 C 14.886719 8.898438 14.820312 9.027344 14.757812 9.144531 C 14.699219 9.261719 14.628906 9.386719 14.554688 9.519531 L 13.898438 9.519531 C 13.9375 9.496094 13.992188 9.421875 14.070312 9.296875 C 14.144531 9.175781 14.222656 9.039062 14.300781 8.894531 C 14.375 8.746094 14.433594 8.625 14.476562 8.53125 C 14.523438 8.433594 14.589844 8.34375 14.683594 8.257812 C 14.773438 8.171875 14.859375 8.117188 14.941406 8.097656 C 14.742188 8.058594 14.585938 7.972656 14.46875 7.835938 C 14.347656 7.699219 14.285156 7.527344 14.285156 7.316406 C 14.277344 7.148438 14.347656 6.972656 14.496094 6.785156 C 14.644531 6.597656 14.90625 6.496094 15.289062 6.480469 Z M 20.734375 6.480469 L 21.351562 6.480469 L 22.355469 9.519531 L 21.777344 9.519531 L 21.582031 8.910156 L 20.503906 8.910156 L 20.308594 9.519531 L 19.730469 9.519531 Z M 22.992188 6.480469 L 23.53125 6.480469 L 23.53125 7.695312 L 24.691406 7.695312 L 24.691406 6.480469 L 25.230469 6.480469 L 25.230469 9.519531 L 24.691406 9.519531 L 24.691406 8.152344 L 23.53125 8.152344 L 23.53125 9.519531 L 22.992188 9.519531 Z M 25.984375 6.480469 L 26.527344 6.480469 L 26.527344 7.660156 L 27.183594 7.660156 C 27.5625 7.671875 27.816406 7.769531 27.953125 7.953125 C 28.089844 8.136719 28.15625 8.328125 28.148438 8.53125 C 28.152344 8.738281 28.074219 8.949219 27.917969 9.167969 C 27.757812 9.382812 27.488281 9.5 27.105469 9.519531 L 25.984375 9.519531 Z M 6.175781 6.789062 L 8.492188 10.734375 L 7.011719 10.734375 L 7.011719 13.832031 L 5.34375 13.832031 L 5.34375 10.734375 L 3.859375 10.734375 Z M 11.863281 6.9375 L 11.863281 8 L 12.210938 8 C 12.371094 8 12.515625 7.960938 12.636719 7.875 C 12.757812 7.792969 12.824219 7.65625 12.828125 7.46875 C 12.824219 7.28125 12.757812 7.144531 12.636719 7.058594 C 12.515625 6.976562 12.371094 6.933594 12.210938 6.9375 Z M 15.441406 6.9375 C 15.28125 6.933594 15.140625 6.96875 15.015625 7.042969 C 14.894531 7.113281 14.832031 7.230469 14.824219 7.390625 C 14.828125 7.554688 14.886719 7.671875 14.996094 7.742188 C 15.109375 7.8125 15.242188 7.847656 15.402344 7.847656 L 15.867188 7.847656 L 15.867188 6.9375 Z M 21.042969 7.164062 L 20.65625 8.457031 L 21.429688 8.457031 Z M 26.527344 8.113281 L 26.527344 9.0625 L 27.066406 9.0625 C 27.242188 9.0625 27.375 9.023438 27.46875 8.949219 C 27.558594 8.875 27.605469 8.757812 27.609375 8.609375 C 27.605469 8.453125 27.558594 8.332031 27.46875 8.246094 C 27.375 8.160156 27.242188 8.117188 27.066406 8.113281 Z M 12.582031 10.660156 C 12.875 10.664062 13.109375 10.738281 13.289062 10.890625 C 13.46875 11.042969 13.605469 11.242188 13.703125 11.492188 L 13.183594 11.683594 C 13.125 11.496094 13.046875 11.359375 12.945312 11.273438 C 12.847656 11.191406 12.726562 11.148438 12.582031 11.152344 C 12.367188 11.15625 12.191406 11.253906 12.054688 11.445312 C 11.921875 11.640625 11.851562 11.910156 11.847656 12.253906 C 11.851562 12.597656 11.921875 12.867188 12.054688 13.058594 C 12.191406 13.253906 12.367188 13.351562 12.582031 13.355469 C 12.726562 13.355469 12.847656 13.316406 12.945312 13.230469 C 13.046875 13.148438 13.125 13.011719 13.183594 12.824219 L 13.703125 13.011719 C 13.605469 13.261719 13.46875 13.464844 13.289062 13.613281 C 13.109375 13.765625 12.875 13.84375 12.582031 13.847656 C 12.15625 13.835938 11.84375 13.679688 11.636719 13.382812 C 11.425781 13.082031 11.324219 12.703125 11.324219 12.253906 C 11.324219 11.800781 11.425781 11.425781 11.636719 11.125 C 11.84375 10.824219 12.15625 10.667969 12.582031 10.660156 Z M 15.195312 10.734375 L 15.8125 10.734375 L 16.816406 13.773438 L 16.238281 13.773438 L 16.042969 13.164062 L 14.964844 13.164062 L 14.769531 13.773438 L 14.191406 13.773438 Z M 17.644531 10.734375 L 18.1875 10.734375 L 18.878906 12.214844 L 19.574219 10.734375 L 20.117188 10.734375 L 20.464844 13.773438 L 19.882812 13.773438 L 19.691406 11.53125 L 18.878906 13.316406 L 18.070312 11.53125 L 17.878906 13.773438 L 17.296875 13.773438 Z M 21.949219 10.734375 L 22.566406 10.734375 L 23.570312 13.773438 L 22.992188 13.773438 L 22.800781 13.164062 L 21.71875 13.164062 L 21.523438 13.773438 L 20.945312 13.773438 Z M 24.207031 10.734375 L 25.25 10.734375 C 25.628906 10.75 25.902344 10.867188 26.058594 11.085938 C 26.21875 11.300781 26.296875 11.515625 26.292969 11.722656 C 26.285156 11.929688 26.191406 12.140625 26.003906 12.359375 C 25.8125 12.574219 25.5625 12.691406 25.25 12.707031 L 24.746094 12.707031 L 24.746094 13.773438 L 24.207031 13.773438 Z M 27.941406 10.734375 L 28.558594 10.734375 L 29.5625 13.773438 L 28.980469 13.773438 L 28.789062 13.164062 L 27.707031 13.164062 L 27.515625 13.773438 L 26.9375 13.773438 Z M 24.746094 11.191406 L 24.746094 12.253906 L 25.09375 12.253906 C 25.257812 12.253906 25.398438 12.214844 25.519531 12.128906 C 25.640625 12.046875 25.707031 11.910156 25.710938 11.722656 C 25.707031 11.535156 25.640625 11.398438 25.519531 11.3125 C 25.398438 11.230469 25.257812 11.1875 25.09375 11.191406 Z M 15.503906 11.417969 L 15.117188 12.707031 L 15.890625 12.707031 Z M 22.257812 11.417969 L 21.871094 12.707031 L 22.644531 12.707031 Z M 28.25 11.417969 L 27.863281 12.707031 L 28.632812 12.707031 Z M 28.25 11.417969 "/>
<path style="fill:none;stroke-width:2;stroke-linecap:butt;stroke-linejoin:miter;stroke:rgb(0%,0%,0%);stroke-opacity:1;stroke-miterlimit:4;" d="M 44.966518 263.326535 L 1655.033482 263.326535 C 1679.319196 263.326535 1699.051339 282.999387 1699.051339 307.301145 L 1699.051339 1007.423215 C 1699.051339 1031.724973 1679.319196 1051.397825 1655.033482 1051.397825 L 44.966518 1051.397825 C 20.680804 1051.397825 0.948661 1031.724973 0.948661 1007.423215 L 0.948661 307.301145 C 0.948661 282.999387 20.680804 263.326535 44.966518 263.326535 Z M 44.966518 263.326535 " transform="matrix(0.0205882,0,0,0.0202532,0,-5.313664)"/>
</g>
</svg>
