<?xml version="1.0" encoding="UTF-8"?>
<svg xmlns="http://www.w3.org/2000/svg" xmlns:xlink="http://www.w3.org/1999/xlink" width="35px" height="35px" viewBox="0 0 35 7" version="1.1">
<g id="surface1">
<path style=" stroke:none;fill-rule:nonzero;fill:rgb(100%,100%,100%);fill-opacity:1;" d="M 1.109375 0 C 0.496094 0 0 0.46875 0 1.050781 L 0 5.949219 C 0 6.53125 0.496094 7 1.109375 7 L 28.59375 7 L 35 3.5 L 28.59375 0 Z M 1.109375 0 "/>
<path style="fill:none;stroke-width:2;stroke-linecap:butt;stroke-linejoin:miter;stroke:rgb(0%,0%,0%);stroke-opacity:1;stroke-miterlimit:4;" d="M 45.008929 753.366644 C 20.602679 753.366644 0.950893 772.953698 0.950893 797.395662 L 0.950893 1007.328698 C 0.950893 1031.770662 20.602679 1051.357716 45.008929 1051.357716 L 1159.930804 1051.357716 L 1417.939732 902.36218 L 1159.930804 753.366644 Z M 45.008929 753.366644 " transform="matrix(0.0246479,0,0,0.0233333,0,-17.555118)"/>
<path style=" stroke:none;fill-rule:nonzero;fill:rgb(0%,64.705882%,0%);fill-opacity:1;" d="M 1.109375 0.210938 C 0.617188 0.210938 0.222656 0.585938 0.222656 1.050781 L 0.222656 5.949219 C 0.222656 6.414062 0.617188 6.789062 1.109375 6.789062 L 28.460938 6.789062 L 31.9375 3.5 L 28.460938 0.210938 Z M 24.011719 1.476562 C 24.214844 1.476562 24.386719 1.566406 24.53125 1.746094 C 24.675781 1.921875 24.746094 2.136719 24.746094 2.390625 C 24.746094 2.644531 24.675781 2.859375 24.53125 3.035156 C 24.386719 3.214844 24.214844 3.304688 24.011719 3.304688 C 23.808594 3.304688 23.636719 3.214844 23.492188 3.035156 C 23.351562 2.859375 23.277344 2.644531 23.277344 2.390625 C 23.277344 2.136719 23.351562 1.921875 23.492188 1.746094 C 23.636719 1.566406 23.808594 1.476562 24.011719 1.476562 Z M 4.804688 1.515625 L 5.132812 1.515625 L 5.132812 3 L 5.667969 3 L 5.667969 1.515625 L 5.976562 1.515625 L 5.976562 3 L 6.515625 3 L 6.515625 1.515625 L 6.84375 1.515625 L 6.84375 3.265625 L 4.804688 3.265625 Z M 7.320312 1.515625 L 8.445312 1.515625 L 8.445312 1.785156 L 7.625 1.785156 L 7.625 2.214844 L 8.292969 2.214844 L 8.292969 2.480469 L 7.625 2.480469 L 7.625 2.996094 L 8.445312 2.996094 L 8.445312 3.265625 L 7.320312 3.265625 Z M 8.921875 1.515625 L 9.640625 1.515625 C 9.800781 1.515625 9.941406 1.570312 10.058594 1.675781 C 10.179688 1.78125 10.238281 1.914062 10.238281 2.066406 C 10.238281 2.21875 10.179688 2.347656 10.058594 2.449219 C 9.941406 2.554688 9.800781 2.605469 9.640625 2.605469 L 9.253906 2.605469 L 9.253906 3.265625 L 8.921875 3.265625 Z M 10.714844 1.515625 L 11.839844 1.515625 L 11.839844 1.785156 L 11.019531 1.785156 L 11.019531 2.214844 L 11.691406 2.214844 L 11.691406 2.480469 L 11.019531 2.480469 L 11.019531 2.996094 L 11.839844 2.996094 L 11.839844 3.265625 L 10.714844 3.265625 Z M 12.507812 1.515625 L 12.824219 1.515625 L 13.253906 2.304688 L 13.660156 1.515625 L 13.984375 1.515625 L 14.171875 3.265625 L 13.847656 3.265625 L 13.722656 1.957031 L 13.253906 2.917969 L 12.769531 1.953125 L 12.640625 3.265625 L 12.320312 3.265625 Z M 14.648438 1.515625 L 15.777344 1.515625 L 15.777344 1.785156 L 14.957031 1.785156 L 14.957031 2.214844 L 15.625 2.214844 L 15.625 2.480469 L 14.957031 2.480469 L 14.957031 2.996094 L 15.777344 2.996094 L 15.777344 3.265625 L 14.648438 3.265625 Z M 16.253906 1.515625 L 17.644531 1.515625 L 17.644531 1.777344 L 17.101562 1.777344 L 17.101562 3.265625 L 16.800781 3.265625 L 16.800781 1.777344 L 16.253906 1.777344 Z M 18.121094 1.515625 L 18.453125 1.515625 L 18.453125 2.179688 L 18.839844 2.179688 C 19 2.179688 19.140625 2.230469 19.253906 2.332031 C 19.375 2.4375 19.433594 2.566406 19.433594 2.71875 C 19.433594 2.871094 19.375 3 19.257812 3.105469 C 19.140625 3.214844 19 3.265625 18.835938 3.265625 L 18.121094 3.265625 Z M 19.910156 1.515625 L 21.035156 1.515625 L 21.035156 1.785156 L 20.214844 1.785156 L 20.214844 2.214844 L 20.882812 2.214844 L 20.882812 2.480469 L 20.214844 2.480469 L 20.214844 2.996094 L 21.035156 2.996094 L 21.035156 3.265625 L 19.910156 3.265625 Z M 21.511719 1.515625 L 22.304688 1.515625 C 22.429688 1.515625 22.539062 1.558594 22.628906 1.644531 C 22.71875 1.726562 22.761719 1.832031 22.761719 1.949219 C 22.761719 2.042969 22.734375 2.128906 22.683594 2.207031 C 22.625 2.296875 22.546875 2.34375 22.453125 2.351562 C 22.554688 2.351562 22.640625 2.402344 22.710938 2.496094 C 22.773438 2.578125 22.804688 2.671875 22.804688 2.769531 C 22.804688 2.917969 22.761719 3.039062 22.671875 3.128906 C 22.585938 3.222656 22.464844 3.265625 22.308594 3.265625 L 21.511719 3.265625 Z M 24.015625 1.765625 C 23.902344 1.765625 23.804688 1.824219 23.726562 1.949219 C 23.648438 2.070312 23.609375 2.21875 23.609375 2.394531 C 23.609375 2.566406 23.648438 2.710938 23.726562 2.835938 C 23.804688 2.957031 23.902344 3.019531 24.015625 3.019531 C 24.128906 3.019531 24.222656 2.957031 24.304688 2.835938 C 24.382812 2.710938 24.421875 2.566406 24.421875 2.394531 C 24.421875 2.21875 24.382812 2.070312 24.304688 1.949219 C 24.222656 1.824219 24.128906 1.765625 24.015625 1.765625 Z M 9.21875 1.777344 L 9.21875 2.335938 L 9.605469 2.335938 C 9.683594 2.335938 9.75 2.308594 9.800781 2.253906 C 9.847656 2.199219 9.875 2.136719 9.875 2.058594 C 9.875 1.984375 9.847656 1.921875 9.796875 1.863281 C 9.742188 1.804688 9.679688 1.777344 9.605469 1.777344 Z M 21.800781 1.789062 L 21.800781 2.21875 L 22.179688 2.21875 C 22.355469 2.21875 22.441406 2.140625 22.441406 1.988281 C 22.441406 1.925781 22.417969 1.875 22.367188 1.839844 C 22.320312 1.804688 22.257812 1.789062 22.179688 1.789062 Z M 1.886719 2.160156 L 2.933594 3.351562 L 3.867188 3.351562 C 3.988281 3.347656 4.089844 3.445312 4.089844 3.558594 C 4.089844 3.671875 3.988281 3.765625 3.871094 3.765625 C 3.871094 3.765625 3.871094 3.765625 3.867188 3.765625 L 2.933594 3.761719 L 1.886719 4.957031 L 1.433594 4.945312 L 2.179688 3.757812 L 1.785156 3.757812 L 1.5625 4.011719 L 1.160156 4.046875 L 1.441406 3.558594 L 1.160156 3.066406 L 1.5625 3.101562 L 1.785156 3.359375 L 2.179688 3.355469 L 1.433594 2.171875 Z M 18.453125 2.441406 L 18.453125 3.003906 L 18.839844 3.003906 C 18.914062 3 18.976562 2.972656 19.027344 2.917969 C 19.082031 2.863281 19.109375 2.796875 19.109375 2.71875 C 19.109375 2.640625 19.082031 2.574219 19.03125 2.523438 C 18.980469 2.46875 18.914062 2.441406 18.839844 2.441406 Z M 21.800781 2.480469 L 21.800781 3.007812 L 22.207031 3.007812 C 22.390625 3.007812 22.484375 2.917969 22.488281 2.742188 C 22.488281 2.566406 22.394531 2.480469 22.210938 2.480469 Z M 28.445312 2.648438 C 28.5625 2.648438 28.671875 2.675781 28.769531 2.734375 C 28.902344 2.808594 28.964844 2.914062 28.964844 3.050781 C 28.964844 3.132812 28.929688 3.210938 28.867188 3.285156 C 28.796875 3.367188 28.703125 3.425781 28.589844 3.460938 C 28.734375 3.46875 28.847656 3.511719 28.933594 3.597656 C 29.007812 3.671875 29.046875 3.769531 29.050781 3.894531 C 29.050781 4.066406 28.996094 4.203125 28.878906 4.304688 C 28.769531 4.402344 28.628906 4.453125 28.457031 4.457031 C 28.25 4.464844 28.066406 4.429688 27.914062 4.355469 L 27.851562 4.074219 C 28.003906 4.140625 28.160156 4.171875 28.316406 4.171875 C 28.582031 4.171875 28.714844 4.082031 28.714844 3.902344 C 28.714844 3.71875 28.609375 3.628906 28.402344 3.628906 C 28.347656 3.628906 28.285156 3.636719 28.21875 3.652344 L 28.246094 3.394531 C 28.5 3.339844 28.628906 3.25 28.628906 3.117188 C 28.628906 2.96875 28.550781 2.894531 28.398438 2.894531 C 28.28125 2.894531 28.144531 2.945312 27.992188 3.039062 L 27.882812 2.792969 C 28.019531 2.699219 28.207031 2.652344 28.445312 2.648438 Z M 26.121094 3.8125 C 26.328125 3.8125 26.5 3.898438 26.644531 4.078125 C 26.785156 4.257812 26.859375 4.472656 26.859375 4.726562 C 26.859375 4.976562 26.785156 5.191406 26.644531 5.371094 C 26.5 5.546875 26.328125 5.636719 26.121094 5.636719 C 25.921875 5.636719 25.746094 5.546875 25.605469 5.371094 C 25.460938 5.191406 25.390625 4.976562 25.390625 4.726562 C 25.390625 4.472656 25.460938 4.257812 25.605469 4.078125 C 25.746094 3.898438 25.921875 3.8125 26.121094 3.8125 Z M 5.53125 3.824219 C 5.679688 3.824219 5.804688 3.84375 5.910156 3.882812 C 6.015625 3.917969 6.121094 3.976562 6.21875 4.0625 L 6.003906 4.253906 L 5.871094 4.15625 C 5.800781 4.109375 5.707031 4.085938 5.582031 4.085938 C 5.492188 4.085938 5.414062 4.113281 5.34375 4.167969 C 5.277344 4.222656 5.242188 4.277344 5.242188 4.335938 L 5.25 4.378906 L 5.269531 4.417969 C 5.285156 4.441406 5.3125 4.464844 5.347656 4.488281 L 5.808594 4.621094 C 5.960938 4.675781 6.058594 4.71875 6.097656 4.75 C 6.191406 4.820312 6.238281 4.921875 6.238281 5.0625 C 6.238281 5.214844 6.167969 5.347656 6.027344 5.460938 C 5.894531 5.570312 5.746094 5.625 5.582031 5.625 C 5.4375 5.625 5.300781 5.601562 5.171875 5.546875 C 5.066406 5.503906 4.945312 5.429688 4.804688 5.328125 L 5.03125 5.136719 L 5.269531 5.296875 C 5.347656 5.332031 5.453125 5.347656 5.578125 5.347656 C 5.667969 5.347656 5.734375 5.324219 5.78125 5.269531 C 5.832031 5.21875 5.855469 5.160156 5.855469 5.089844 C 5.855469 5.046875 5.84375 5.003906 5.820312 4.96875 C 5.796875 4.929688 5.761719 4.90625 5.71875 4.890625 L 5.355469 4.800781 C 5.214844 4.757812 5.117188 4.710938 5.054688 4.65625 C 4.964844 4.578125 4.917969 4.472656 4.917969 4.339844 C 4.917969 4.199219 4.984375 4.078125 5.113281 3.976562 C 5.246094 3.875 5.382812 3.824219 5.53125 3.824219 Z M 19.476562 3.835938 C 19.519531 3.835938 19.5625 3.851562 19.605469 3.882812 C 19.644531 3.917969 19.664062 3.957031 19.664062 4.007812 L 19.667969 4.0625 C 19.667969 4.148438 19.648438 4.222656 19.605469 4.285156 C 19.5625 4.34375 19.496094 4.398438 19.410156 4.4375 L 19.386719 4.378906 C 19.476562 4.355469 19.53125 4.285156 19.550781 4.171875 C 19.503906 4.179688 19.464844 4.179688 19.429688 4.175781 C 19.394531 4.167969 19.363281 4.152344 19.332031 4.125 C 19.304688 4.097656 19.289062 4.054688 19.289062 4.007812 C 19.289062 3.96875 19.308594 3.929688 19.34375 3.890625 C 19.378906 3.851562 19.425781 3.835938 19.476562 3.835938 Z M 6.714844 3.851562 L 7.019531 3.851562 L 7.019531 4.542969 L 7.742188 4.542969 L 7.742188 3.851562 L 8.046875 3.851562 L 8.046875 5.601562 L 7.742188 5.601562 L 7.742188 4.800781 L 7.019531 4.800781 L 7.019531 5.601562 L 6.714844 5.601562 Z M 8.519531 3.851562 L 9.648438 3.851562 L 9.648438 4.121094 L 8.824219 4.121094 L 8.824219 4.546875 L 9.496094 4.546875 L 9.496094 4.8125 L 8.824219 4.8125 L 8.824219 5.332031 L 9.648438 5.332031 L 9.648438 5.601562 L 8.519531 5.601562 Z M 10.125 3.851562 L 10.835938 3.851562 C 10.976562 3.851562 11.09375 3.90625 11.195312 4.019531 C 11.273438 4.117188 11.316406 4.234375 11.316406 4.371094 C 11.316406 4.484375 11.285156 4.574219 11.230469 4.648438 C 11.175781 4.71875 11.109375 4.769531 11.03125 4.804688 C 11.070312 4.839844 11.101562 4.871094 11.125 4.902344 C 11.144531 4.929688 11.179688 4.980469 11.222656 5.058594 L 11.347656 5.300781 C 11.402344 5.402344 11.441406 5.472656 11.476562 5.507812 L 11.554688 5.601562 L 11.183594 5.601562 L 10.917969 5.121094 C 10.878906 5.046875 10.835938 4.992188 10.789062 4.957031 C 10.738281 4.914062 10.679688 4.894531 10.617188 4.894531 L 10.398438 4.894531 L 10.398438 5.601562 L 10.125 5.597656 Z M 12.03125 3.851562 L 13.160156 3.851562 L 13.160156 4.121094 L 12.335938 4.121094 L 12.335938 4.546875 L 13.007812 4.546875 L 13.007812 4.8125 L 12.335938 4.8125 L 12.335938 5.332031 L 13.160156 5.332031 L 13.160156 5.601562 L 12.03125 5.601562 Z M 13.636719 3.851562 L 13.996094 3.851562 L 14.511719 4.691406 L 15.035156 3.851562 L 15.394531 3.851562 L 15.394531 5.601562 L 15.066406 5.601562 L 15.066406 4.339844 L 14.511719 5.253906 L 13.960938 4.339844 L 13.960938 5.601562 L 13.636719 5.601562 Z M 15.867188 3.851562 L 16.992188 3.851562 L 16.992188 4.121094 L 16.171875 4.121094 L 16.171875 4.546875 L 16.84375 4.546875 L 16.84375 4.8125 L 16.171875 4.8125 L 16.171875 5.332031 L 16.992188 5.332031 L 16.992188 5.601562 L 15.867188 5.601562 Z M 17.472656 3.851562 L 18.863281 3.851562 L 18.863281 4.109375 L 18.316406 4.109375 L 18.316406 5.601562 L 18.019531 5.601562 L 18.019531 4.109375 L 17.472656 4.109375 Z M 19.925781 3.851562 L 20.296875 3.851562 L 20.652344 4.550781 L 21.023438 3.851562 L 21.40625 3.851562 L 20.796875 4.902344 L 20.796875 5.601562 L 20.515625 5.601562 L 20.515625 4.902344 Z M 21.878906 3.851562 L 23.003906 3.851562 L 23.003906 4.121094 L 22.183594 4.121094 L 22.183594 4.546875 L 22.855469 4.546875 L 22.855469 4.8125 L 22.183594 4.8125 L 22.183594 5.332031 L 23.003906 5.332031 L 23.003906 5.601562 L 21.878906 5.601562 Z M 23.484375 3.851562 L 23.84375 3.851562 L 24.199219 5.164062 L 24.542969 3.851562 L 24.917969 3.851562 L 24.398438 5.601562 L 24.003906 5.601562 Z M 26.125 4.097656 C 26.011719 4.097656 25.917969 4.160156 25.839844 4.28125 C 25.757812 4.40625 25.71875 4.554688 25.71875 4.726562 C 25.71875 4.898438 25.757812 5.046875 25.839844 5.167969 C 25.917969 5.289062 26.011719 5.351562 26.125 5.351562 C 26.238281 5.351562 26.335938 5.289062 26.414062 5.167969 C 26.492188 5.046875 26.535156 4.898438 26.535156 4.726562 C 26.535156 4.554688 26.492188 4.40625 26.414062 4.28125 C 26.335938 4.160156 26.238281 4.097656 26.125 4.097656 Z M 10.398438 4.125 L 10.398438 4.636719 L 10.75 4.636719 C 10.832031 4.628906 10.898438 4.597656 10.941406 4.546875 C 10.976562 4.5 10.992188 4.445312 10.992188 4.386719 C 10.992188 4.316406 10.980469 4.257812 10.953125 4.210938 C 10.914062 4.152344 10.847656 4.125 10.75 4.125 Z M 10.398438 4.125 "/>
</g>
</svg>
