<?xml version="1.0" encoding="UTF-8"?>
<svg xmlns="http://www.w3.org/2000/svg" xmlns:xlink="http://www.w3.org/1999/xlink" width="35px" height="35px" viewBox="0 0 35 19" version="1.1">
<g id="surface1">
<path style=" stroke:none;fill-rule:nonzero;fill:rgb(100%,100%,100%);fill-opacity:1;" d="M 0.886719 0 L 34.113281 0 C 34.605469 0 35 0.390625 35 0.871094 L 35 18.128906 C 35 18.609375 34.605469 19 34.113281 19 L 0.886719 19 C 0.394531 19 0 18.609375 0 18.128906 L 0 0.871094 C 0 0.390625 0.394531 0 0.886719 0 Z M 0.886719 0 "/>
<path style=" stroke:none;fill-rule:nonzero;fill:rgb(5.098039%,41.176471%,88.235294%);fill-opacity:1;" d="M 7.078125 1.746094 C 6.75 1.746094 6.488281 2.003906 6.488281 2.328125 L 6.488281 4.789062 C 6.488281 5.109375 6.75 5.371094 7.078125 5.371094 L 25.835938 5.371094 C 26.164062 5.371094 26.425781 5.109375 26.425781 4.789062 L 26.425781 2.328125 C 26.425781 2.003906 26.164062 1.746094 25.835938 1.746094 Z M 13.46875 2.53125 C 13.742188 2.539062 13.941406 2.636719 14.074219 2.828125 C 14.207031 3.019531 14.269531 3.261719 14.269531 3.546875 C 14.269531 3.835938 14.207031 4.074219 14.074219 4.265625 C 13.941406 4.457031 13.742188 4.558594 13.46875 4.566406 C 13.199219 4.558594 13 4.457031 12.867188 4.265625 C 12.734375 4.074219 12.667969 3.835938 12.667969 3.546875 C 12.667969 3.261719 12.734375 3.019531 12.867188 2.828125 C 13 2.636719 13.199219 2.539062 13.46875 2.53125 Z M 19.066406 2.53125 C 19.339844 2.539062 19.539062 2.636719 19.671875 2.828125 C 19.804688 3.019531 19.871094 3.261719 19.867188 3.546875 C 19.871094 3.835938 19.804688 4.074219 19.671875 4.265625 C 19.539062 4.457031 19.339844 4.558594 19.066406 4.566406 C 18.796875 4.558594 18.597656 4.457031 18.464844 4.265625 C 18.332031 4.074219 18.265625 3.835938 18.265625 3.546875 C 18.265625 3.261719 18.332031 3.019531 18.464844 2.828125 C 18.597656 2.636719 18.796875 2.539062 19.066406 2.53125 Z M 22.980469 2.53125 C 23.253906 2.539062 23.453125 2.636719 23.585938 2.828125 C 23.71875 3.019531 23.785156 3.261719 23.78125 3.546875 C 23.785156 3.835938 23.71875 4.074219 23.585938 4.265625 C 23.453125 4.457031 23.253906 4.558594 22.980469 4.566406 C 22.710938 4.558594 22.511719 4.457031 22.378906 4.265625 C 22.246094 4.074219 22.179688 3.835938 22.179688 3.546875 C 22.179688 3.261719 22.246094 3.019531 22.378906 2.828125 C 22.511719 2.636719 22.710938 2.539062 22.980469 2.53125 Z M 7.328125 2.578125 L 7.671875 2.578125 L 7.671875 3.355469 L 8.410156 3.355469 L 8.410156 2.578125 L 8.753906 2.578125 L 8.753906 4.515625 L 8.410156 4.515625 L 8.410156 3.644531 L 7.671875 3.644531 L 7.671875 4.515625 L 7.328125 4.515625 Z M 10.753906 2.578125 L 11.097656 2.578125 L 11.097656 3.355469 L 11.835938 3.355469 L 11.835938 2.578125 L 12.179688 2.578125 L 12.179688 4.515625 L 11.835938 4.515625 L 11.835938 3.644531 L 11.097656 3.644531 L 11.097656 4.515625 L 10.753906 4.515625 Z M 14.761719 2.578125 L 15.523438 2.578125 C 15.710938 2.585938 15.851562 2.640625 15.949219 2.75 C 16.050781 2.855469 16.101562 2.976562 16.101562 3.113281 C 16.101562 3.1875 16.074219 3.261719 16.023438 3.332031 C 15.976562 3.40625 15.90625 3.460938 15.820312 3.5 C 15.921875 3.535156 16.003906 3.589844 16.066406 3.664062 C 16.128906 3.734375 16.160156 3.828125 16.164062 3.9375 C 16.160156 4.097656 16.101562 4.234375 15.984375 4.34375 C 15.867188 4.457031 15.714844 4.511719 15.527344 4.515625 L 14.761719 4.515625 Z M 16.671875 2.578125 L 17.902344 2.578125 L 17.902344 2.871094 L 17.015625 2.871094 L 17.015625 4.515625 L 16.671875 4.515625 Z M 20.359375 2.578125 L 21.023438 2.578125 C 21.265625 2.589844 21.4375 2.664062 21.539062 2.804688 C 21.640625 2.941406 21.691406 3.078125 21.6875 3.207031 C 21.683594 3.339844 21.625 3.476562 21.503906 3.613281 C 21.382812 3.753906 21.222656 3.828125 21.023438 3.839844 L 20.703125 3.839844 L 20.703125 4.515625 L 20.359375 4.515625 Z M 24.570312 2.578125 L 25.726562 2.578125 L 25.726562 4.226562 L 25.945312 4.226562 L 25.945312 4.855469 L 25.652344 4.855469 L 25.652344 4.515625 L 24.421875 4.515625 L 24.421875 4.855469 L 24.128906 4.855469 L 24.128906 4.226562 L 24.347656 4.226562 C 24.382812 4.140625 24.414062 4.023438 24.449219 3.871094 C 24.484375 3.71875 24.511719 3.554688 24.535156 3.375 C 24.558594 3.199219 24.570312 3.027344 24.570312 2.871094 Z M 13.46875 2.84375 C 13.332031 2.847656 13.222656 2.910156 13.136719 3.03125 C 13.050781 3.15625 13.007812 3.328125 13.003906 3.546875 C 13.007812 3.769531 13.050781 3.941406 13.136719 4.0625 C 13.222656 4.1875 13.332031 4.25 13.46875 4.25 C 13.609375 4.25 13.71875 4.1875 13.804688 4.0625 C 13.890625 3.941406 13.933594 3.769531 13.9375 3.546875 C 13.933594 3.328125 13.890625 3.15625 13.804688 3.03125 C 13.71875 2.910156 13.609375 2.847656 13.46875 2.84375 Z M 19.066406 2.84375 C 18.929688 2.847656 18.820312 2.910156 18.734375 3.03125 C 18.648438 3.15625 18.605469 3.328125 18.601562 3.546875 C 18.605469 3.769531 18.648438 3.941406 18.734375 4.0625 C 18.820312 4.1875 18.929688 4.25 19.066406 4.25 C 19.207031 4.25 19.316406 4.1875 19.402344 4.0625 C 19.488281 3.941406 19.53125 3.769531 19.535156 3.546875 C 19.53125 3.328125 19.488281 3.15625 19.402344 3.03125 C 19.316406 2.910156 19.207031 2.847656 19.066406 2.84375 Z M 22.980469 2.84375 C 22.84375 2.847656 22.734375 2.910156 22.648438 3.03125 C 22.5625 3.15625 22.519531 3.328125 22.515625 3.546875 C 22.519531 3.769531 22.5625 3.941406 22.648438 4.0625 C 22.734375 4.1875 22.84375 4.25 22.980469 4.25 C 23.121094 4.25 23.230469 4.1875 23.316406 4.0625 C 23.402344 3.941406 23.445312 3.769531 23.449219 3.546875 C 23.445312 3.328125 23.402344 3.15625 23.316406 3.03125 C 23.230469 2.910156 23.121094 2.847656 22.980469 2.84375 Z M 15.105469 2.871094 L 15.105469 3.367188 L 15.5 3.367188 C 15.574219 3.367188 15.632812 3.34375 15.679688 3.296875 C 15.722656 3.253906 15.746094 3.191406 15.746094 3.117188 C 15.742188 3.035156 15.71875 2.972656 15.667969 2.929688 C 15.621094 2.890625 15.566406 2.871094 15.5 2.871094 Z M 20.703125 2.871094 L 20.703125 3.546875 L 20.925781 3.546875 C 21.027344 3.550781 21.117188 3.523438 21.195312 3.46875 C 21.273438 3.414062 21.316406 3.328125 21.320312 3.207031 C 21.316406 3.089844 21.273438 3 21.195312 2.949219 C 21.117188 2.894531 21.027344 2.867188 20.925781 2.871094 Z M 24.914062 2.871094 C 24.914062 3.109375 24.890625 3.351562 24.847656 3.601562 C 24.804688 3.851562 24.75 4.0625 24.683594 4.226562 L 25.382812 4.226562 L 25.382812 2.871094 Z M 15.105469 3.644531 L 15.105469 4.226562 L 15.523438 4.226562 C 15.625 4.222656 15.695312 4.191406 15.746094 4.132812 C 15.796875 4.074219 15.820312 4.007812 15.820312 3.9375 C 15.820312 3.863281 15.796875 3.796875 15.746094 3.738281 C 15.695312 3.679688 15.625 3.648438 15.523438 3.644531 Z M 9.40625 4.113281 C 9.46875 4.113281 9.519531 4.132812 9.558594 4.175781 C 9.601562 4.214844 9.621094 4.261719 9.621094 4.324219 C 9.621094 4.382812 9.601562 4.433594 9.558594 4.472656 C 9.519531 4.511719 9.46875 4.535156 9.40625 4.535156 C 9.347656 4.535156 9.296875 4.511719 9.257812 4.472656 C 9.214844 4.433594 9.195312 4.382812 9.195312 4.324219 C 9.195312 4.261719 9.214844 4.214844 9.257812 4.175781 C 9.296875 4.132812 9.347656 4.113281 9.40625 4.113281 Z M 9.40625 4.113281 "/>
<path style=" stroke:none;fill-rule:nonzero;fill:rgb(5.098039%,41.176471%,88.235294%);fill-opacity:1;" d="M 7.078125 7.261719 C 6.75 7.261719 6.488281 7.519531 6.488281 7.84375 L 6.488281 10.304688 C 6.488281 10.625 6.75 10.886719 7.078125 10.886719 L 33.035156 10.886719 C 33.359375 10.886719 33.625 10.625 33.625 10.304688 L 33.625 7.84375 C 33.625 7.519531 33.359375 7.261719 33.035156 7.261719 Z M 31.835938 7.472656 L 32.082031 7.472656 C 32.082031 7.546875 32.105469 7.609375 32.15625 7.660156 C 32.203125 7.710938 32.277344 7.738281 32.375 7.742188 C 32.476562 7.738281 32.550781 7.710938 32.597656 7.660156 C 32.648438 7.609375 32.671875 7.546875 32.671875 7.472656 L 32.894531 7.472656 C 32.894531 7.578125 32.851562 7.683594 32.765625 7.789062 C 32.679688 7.894531 32.550781 7.949219 32.375 7.957031 C 32.203125 7.949219 32.070312 7.894531 31.976562 7.789062 C 31.882812 7.683594 31.835938 7.578125 31.835938 7.472656 Z M 8.648438 8.054688 C 8.917969 8.0625 9.117188 8.164062 9.25 8.355469 C 9.382812 8.546875 9.449219 8.785156 9.449219 9.074219 C 9.449219 9.363281 9.382812 9.601562 9.25 9.792969 C 9.117188 9.984375 8.917969 10.085938 8.648438 10.089844 C 8.394531 10.085938 8.207031 10 8.074219 9.832031 C 7.941406 9.664062 7.867188 9.453125 7.851562 9.195312 L 7.515625 9.195312 L 7.515625 10.042969 L 7.171875 10.042969 L 7.171875 8.105469 L 7.515625 8.105469 L 7.515625 8.902344 L 7.855469 8.902344 C 7.878906 8.65625 7.957031 8.457031 8.085938 8.300781 C 8.21875 8.140625 8.40625 8.0625 8.648438 8.054688 Z M 20.890625 8.054688 C 21.160156 8.0625 21.363281 8.164062 21.496094 8.355469 C 21.625 8.546875 21.691406 8.785156 21.691406 9.074219 C 21.691406 9.359375 21.625 9.601562 21.496094 9.792969 C 21.363281 9.984375 21.160156 10.082031 20.890625 10.089844 C 20.621094 10.082031 20.421875 9.984375 20.289062 9.792969 C 20.15625 9.601562 20.089844 9.359375 20.089844 9.074219 C 20.089844 8.785156 20.15625 8.546875 20.289062 8.355469 C 20.421875 8.164062 20.621094 8.0625 20.890625 8.054688 Z M 26.632812 8.054688 C 26.820312 8.058594 26.96875 8.109375 27.085938 8.203125 C 27.199219 8.300781 27.285156 8.429688 27.347656 8.589844 L 27.015625 8.710938 C 26.980469 8.589844 26.929688 8.503906 26.867188 8.449219 C 26.800781 8.394531 26.726562 8.371094 26.632812 8.371094 C 26.496094 8.371094 26.382812 8.433594 26.300781 8.558594 C 26.214844 8.683594 26.167969 8.851562 26.167969 9.074219 C 26.167969 9.292969 26.214844 9.464844 26.300781 9.589844 C 26.382812 9.710938 26.496094 9.773438 26.632812 9.777344 C 26.726562 9.777344 26.800781 9.75 26.867188 9.699219 C 26.929688 9.644531 26.980469 9.558594 27.015625 9.4375 L 27.347656 9.558594 C 27.285156 9.71875 27.199219 9.847656 27.085938 9.941406 C 26.96875 10.039062 26.820312 10.089844 26.632812 10.089844 C 26.363281 10.085938 26.164062 9.984375 26.03125 9.792969 C 25.898438 9.601562 25.832031 9.363281 25.832031 9.074219 C 25.832031 8.785156 25.898438 8.546875 26.03125 8.355469 C 26.164062 8.164062 26.363281 8.0625 26.632812 8.054688 Z M 29.097656 8.054688 L 29.171875 8.394531 C 29.082031 8.394531 29.015625 8.417969 28.96875 8.464844 C 28.925781 8.507812 28.878906 8.566406 28.828125 8.636719 C 28.777344 8.703125 28.722656 8.777344 28.65625 8.851562 C 28.59375 8.929688 28.535156 8.96875 28.484375 8.976562 C 28.601562 8.992188 28.691406 9.035156 28.753906 9.113281 C 28.8125 9.191406 28.871094 9.28125 28.925781 9.386719 C 28.996094 9.515625 29.066406 9.640625 29.136719 9.757812 C 29.207031 9.878906 29.285156 9.972656 29.367188 10.042969 L 28.941406 10.042969 C 28.90625 9.976562 28.847656 9.878906 28.773438 9.753906 C 28.695312 9.625 28.625 9.503906 28.558594 9.386719 C 28.515625 9.3125 28.472656 9.25 28.421875 9.210938 C 28.371094 9.167969 28.3125 9.148438 28.238281 9.144531 C 28.210938 9.148438 28.179688 9.148438 28.144531 9.152344 C 28.113281 9.15625 28.09375 9.15625 28.089844 9.15625 L 28.089844 10.042969 L 27.746094 10.042969 L 27.746094 8.105469 L 28.089844 8.105469 L 28.089844 8.828125 C 28.09375 8.828125 28.097656 8.832031 28.101562 8.832031 C 28.101562 8.832031 28.109375 8.835938 28.117188 8.835938 C 28.234375 8.832031 28.335938 8.773438 28.417969 8.652344 C 28.503906 8.535156 28.597656 8.410156 28.695312 8.285156 C 28.796875 8.15625 28.929688 8.082031 29.097656 8.054688 Z M 9.921875 8.105469 L 10.585938 8.105469 C 10.828125 8.113281 11 8.191406 11.101562 8.328125 C 11.203125 8.464844 11.25 8.601562 11.246094 8.734375 C 11.246094 8.867188 11.183594 9 11.0625 9.140625 C 10.945312 9.277344 10.785156 9.351562 10.585938 9.363281 L 10.265625 9.363281 L 10.265625 10.042969 L 9.921875 10.042969 Z M 11.769531 8.105469 L 12.113281 8.105469 L 12.113281 8.855469 L 12.53125 8.855469 C 12.773438 8.863281 12.9375 8.925781 13.023438 9.042969 C 13.109375 9.160156 13.152344 9.285156 13.148438 9.414062 C 13.148438 9.546875 13.101562 9.679688 13 9.820312 C 12.898438 9.957031 12.726562 10.03125 12.484375 10.042969 L 11.769531 10.042969 Z M 13.546875 8.105469 L 14.773438 8.105469 L 14.773438 8.417969 L 13.890625 8.417969 L 13.890625 8.878906 L 14.601562 8.878906 L 14.601562 9.171875 L 13.890625 9.171875 L 13.890625 9.753906 L 14.800781 9.753906 L 14.800781 10.042969 L 13.546875 10.042969 Z M 15.320312 8.105469 L 16.082031 8.105469 C 16.269531 8.109375 16.410156 8.167969 16.507812 8.273438 C 16.609375 8.382812 16.65625 8.503906 16.65625 8.636719 C 16.65625 8.710938 16.632812 8.785156 16.582031 8.859375 C 16.53125 8.929688 16.464844 8.984375 16.378906 9.023438 C 16.476562 9.0625 16.558594 9.117188 16.625 9.1875 C 16.6875 9.261719 16.71875 9.351562 16.722656 9.460938 C 16.71875 9.625 16.65625 9.757812 16.539062 9.871094 C 16.425781 9.980469 16.273438 10.039062 16.085938 10.042969 L 15.320312 10.042969 Z M 18.234375 8.105469 L 19.65625 8.105469 L 19.65625 10.042969 L 19.3125 10.042969 L 19.3125 8.394531 L 18.578125 8.394531 L 18.578125 10.042969 L 18.234375 10.042969 Z M 22.394531 8.105469 L 23.625 8.105469 L 23.625 10.042969 L 23.28125 10.042969 L 23.28125 8.394531 L 22.738281 8.394531 C 22.738281 8.402344 22.738281 8.46875 22.738281 8.59375 C 22.738281 8.714844 22.734375 8.855469 22.730469 9.003906 C 22.730469 9.15625 22.722656 9.277344 22.714844 9.363281 C 22.683594 9.585938 22.617188 9.75 22.511719 9.855469 C 22.40625 9.957031 22.304688 10.023438 22.207031 10.054688 C 22.109375 10.082031 22.058594 10.09375 22.050781 10.089844 L 21.996094 9.765625 C 22 9.765625 22.027344 9.757812 22.082031 9.734375 C 22.136719 9.710938 22.195312 9.675781 22.253906 9.621094 C 22.3125 9.570312 22.351562 9.5 22.371094 9.414062 C 22.378906 9.359375 22.382812 9.257812 22.386719 9.105469 C 22.390625 8.953125 22.394531 8.789062 22.394531 8.605469 C 22.394531 8.421875 22.394531 8.253906 22.394531 8.105469 Z M 24.148438 8.105469 L 24.492188 8.105469 L 24.492188 8.855469 L 24.910156 8.855469 C 25.148438 8.863281 25.3125 8.925781 25.398438 9.042969 C 25.488281 9.160156 25.527344 9.285156 25.523438 9.414062 C 25.527344 9.546875 25.476562 9.679688 25.375 9.820312 C 25.273438 9.957031 25.101562 10.03125 24.859375 10.042969 L 24.148438 10.042969 Z M 29.71875 8.105469 L 30.0625 8.105469 L 30.0625 9.4375 L 30.773438 8.105469 L 31.144531 8.105469 L 31.144531 10.042969 L 30.800781 10.042969 L 30.800781 8.710938 L 30.085938 10.042969 L 29.71875 10.042969 Z M 31.664062 8.105469 L 32.007812 8.105469 L 32.007812 9.4375 L 32.722656 8.105469 L 33.089844 8.105469 L 33.089844 10.042969 L 32.746094 10.042969 L 32.746094 8.710938 L 32.03125 10.042969 L 31.664062 10.042969 Z M 8.648438 8.371094 C 8.507812 8.371094 8.398438 8.433594 8.3125 8.558594 C 8.226562 8.683594 8.183594 8.851562 8.179688 9.074219 C 8.183594 9.292969 8.226562 9.464844 8.3125 9.589844 C 8.398438 9.710938 8.507812 9.773438 8.648438 9.777344 C 8.785156 9.773438 8.894531 9.710938 8.980469 9.589844 C 9.066406 9.464844 9.109375 9.292969 9.113281 9.074219 C 9.109375 8.851562 9.066406 8.683594 8.980469 8.558594 C 8.894531 8.433594 8.785156 8.371094 8.648438 8.371094 Z M 20.890625 8.371094 C 20.753906 8.371094 20.640625 8.433594 20.554688 8.558594 C 20.472656 8.683594 20.425781 8.851562 20.425781 9.074219 C 20.425781 9.292969 20.472656 9.464844 20.554688 9.589844 C 20.640625 9.710938 20.753906 9.773438 20.890625 9.777344 C 21.027344 9.773438 21.140625 9.710938 21.226562 9.589844 C 21.3125 9.464844 21.355469 9.292969 21.359375 9.074219 C 21.355469 8.851562 21.3125 8.683594 21.226562 8.558594 C 21.140625 8.433594 21.027344 8.371094 20.890625 8.371094 Z M 10.265625 8.394531 L 10.265625 9.074219 L 10.484375 9.074219 C 10.589844 9.074219 10.679688 9.046875 10.757812 8.996094 C 10.835938 8.941406 10.875 8.855469 10.878906 8.734375 C 10.875 8.613281 10.835938 8.527344 10.757812 8.472656 C 10.679688 8.421875 10.589844 8.394531 10.484375 8.394531 Z M 15.664062 8.394531 L 15.664062 8.894531 L 16.058594 8.894531 C 16.132812 8.890625 16.191406 8.867188 16.234375 8.824219 C 16.28125 8.777344 16.300781 8.71875 16.304688 8.644531 C 16.300781 8.558594 16.277344 8.496094 16.226562 8.457031 C 16.179688 8.414062 16.121094 8.394531 16.058594 8.394531 Z M 12.113281 9.144531 L 12.113281 9.753906 L 12.457031 9.753906 C 12.570312 9.753906 12.65625 9.726562 12.714844 9.679688 C 12.773438 9.632812 12.800781 9.558594 12.804688 9.460938 C 12.800781 9.363281 12.773438 9.285156 12.714844 9.230469 C 12.65625 9.175781 12.570312 9.148438 12.457031 9.144531 Z M 24.492188 9.144531 L 24.492188 9.753906 L 24.835938 9.753906 C 24.945312 9.753906 25.03125 9.726562 25.089844 9.679688 C 25.148438 9.632812 25.179688 9.558594 25.179688 9.460938 C 25.179688 9.363281 25.148438 9.285156 25.089844 9.230469 C 25.03125 9.175781 24.945312 9.148438 24.835938 9.144531 Z M 15.664062 9.171875 L 15.664062 9.753906 L 16.082031 9.753906 C 16.179688 9.75 16.253906 9.71875 16.304688 9.660156 C 16.351562 9.601562 16.378906 9.535156 16.378906 9.460938 C 16.378906 9.386719 16.351562 9.324219 16.304688 9.265625 C 16.253906 9.203125 16.179688 9.175781 16.082031 9.171875 Z M 17.097656 9.21875 L 17.785156 9.21875 L 17.785156 9.535156 L 17.097656 9.535156 Z M 17.097656 9.21875 "/>
<path style=" stroke:none;fill-rule:nonzero;fill:rgb(0%,0%,0%);fill-opacity:1;" d="M 1.890625 12.855469 L 1.890625 14.210938 L 2.1875 14.210938 L 2.1875 13.121094 L 2.851562 13.121094 L 2.851562 12.855469 Z M 1.890625 12.855469 "/>
<path style=" stroke:none;fill-rule:nonzero;fill:rgb(0%,0%,0%);fill-opacity:1;" d="M 3.625 12.804688 C 3.4375 12.808594 3.285156 12.875 3.167969 13.003906 C 3.050781 13.136719 2.992188 13.3125 2.988281 13.53125 C 2.992188 13.753906 3.050781 13.929688 3.167969 14.058594 C 3.285156 14.191406 3.4375 14.257812 3.625 14.257812 C 3.8125 14.257812 3.964844 14.191406 4.082031 14.058594 C 4.199219 13.929688 4.261719 13.753906 4.265625 13.53125 C 4.261719 13.3125 4.199219 13.136719 4.082031 13.003906 C 3.964844 12.875 3.8125 12.808594 3.625 12.804688 Z M 3.625 13.046875 C 3.726562 13.050781 3.808594 13.09375 3.871094 13.179688 C 3.933594 13.269531 3.96875 13.386719 3.96875 13.53125 C 3.96875 13.679688 3.933594 13.796875 3.871094 13.882812 C 3.808594 13.972656 3.726562 14.015625 3.625 14.015625 C 3.527344 14.015625 3.445312 13.972656 3.378906 13.882812 C 3.316406 13.796875 3.285156 13.679688 3.28125 13.53125 C 3.285156 13.386719 3.316406 13.269531 3.378906 13.179688 C 3.445312 13.09375 3.527344 13.050781 3.625 13.046875 Z M 3.625 13.046875 "/>
<path style=" stroke:none;fill-rule:nonzero;fill:rgb(0%,0%,0%);fill-opacity:1;" d="M 5.089844 12.804688 C 4.898438 12.808594 4.742188 12.875 4.617188 13.003906 C 4.492188 13.136719 4.429688 13.3125 4.425781 13.53125 C 4.429688 13.753906 4.492188 13.929688 4.617188 14.058594 C 4.742188 14.191406 4.898438 14.257812 5.089844 14.257812 C 5.226562 14.257812 5.347656 14.222656 5.449219 14.152344 C 5.554688 14.078125 5.628906 13.976562 5.679688 13.847656 L 5.402344 13.742188 C 5.375 13.832031 5.335938 13.898438 5.28125 13.945312 C 5.226562 13.992188 5.164062 14.015625 5.089844 14.015625 C 4.988281 14.015625 4.90625 13.972656 4.84375 13.882812 C 4.78125 13.796875 4.746094 13.679688 4.746094 13.53125 C 4.746094 13.386719 4.78125 13.269531 4.84375 13.179688 C 4.90625 13.09375 4.988281 13.050781 5.089844 13.046875 C 5.164062 13.046875 5.226562 13.070312 5.28125 13.117188 C 5.335938 13.164062 5.375 13.234375 5.402344 13.320312 L 5.679688 13.21875 C 5.628906 13.085938 5.554688 12.984375 5.449219 12.914062 C 5.347656 12.84375 5.226562 12.804688 5.089844 12.804688 Z M 5.089844 12.804688 "/>
<path style=" stroke:none;fill-rule:nonzero;fill:rgb(0%,0%,0%);fill-opacity:1;" d="M 5.746094 12.855469 L 5.746094 13.121094 L 6.160156 13.121094 L 6.160156 14.210938 L 6.457031 14.210938 L 6.457031 13.121094 L 6.867188 13.121094 L 6.867188 12.855469 Z M 5.746094 12.855469 "/>
<path style=" stroke:none;fill-rule:nonzero;fill:rgb(0%,0%,0%);fill-opacity:1;" d="M 7.347656 14.015625 C 7.34375 13.957031 7.324219 13.90625 7.28125 13.867188 C 7.242188 13.828125 7.191406 13.808594 7.132812 13.804688 C 7.070312 13.808594 7.019531 13.828125 6.980469 13.867188 C 6.941406 13.90625 6.917969 13.957031 6.917969 14.015625 C 6.917969 14.078125 6.941406 14.125 6.980469 14.167969 C 7.019531 14.207031 7.070312 14.226562 7.132812 14.230469 C 7.191406 14.226562 7.242188 14.207031 7.28125 14.167969 C 7.324219 14.125 7.34375 14.078125 7.347656 14.015625 Z M 7.347656 14.015625 "/>
<path style=" stroke:none;fill-rule:nonzero;fill:rgb(0%,0%,0%);fill-opacity:1;" d="M 9.972656 12.273438 L 9.972656 14.210938 L 10.738281 14.210938 C 10.925781 14.207031 11.074219 14.148438 11.191406 14.039062 C 11.308594 13.929688 11.371094 13.792969 11.375 13.628906 C 11.371094 13.519531 11.339844 13.429688 11.273438 13.355469 C 11.210938 13.285156 11.128906 13.230469 11.027344 13.195312 C 11.117188 13.15625 11.183594 13.097656 11.234375 13.027344 C 11.285156 12.953125 11.308594 12.878906 11.308594 12.804688 C 11.308594 12.671875 11.257812 12.550781 11.160156 12.441406 C 11.0625 12.335938 10.917969 12.277344 10.734375 12.273438 Z M 10.316406 12.5625 L 10.710938 12.5625 C 10.773438 12.5625 10.828125 12.582031 10.878906 12.625 C 10.925781 12.664062 10.953125 12.726562 10.957031 12.8125 C 10.953125 12.886719 10.933594 12.945312 10.886719 12.992188 C 10.84375 13.039062 10.785156 13.058594 10.710938 13.0625 L 10.316406 13.0625 Z M 10.316406 13.339844 L 10.734375 13.339844 C 10.832031 13.34375 10.90625 13.375 10.957031 13.433594 C 11.003906 13.492188 11.027344 13.558594 11.027344 13.628906 C 11.027344 13.703125 11.003906 13.769531 10.957031 13.828125 C 10.90625 13.886719 10.832031 13.917969 10.734375 13.921875 L 10.316406 13.921875 Z M 10.316406 13.339844 "/>
<path style=" stroke:none;fill-rule:nonzero;fill:rgb(0%,0%,0%);fill-opacity:1;" d="M 12.035156 12.273438 C 12.035156 12.421875 12.035156 12.589844 12.03125 12.773438 C 12.03125 12.957031 12.03125 13.125 12.027344 13.273438 C 12.023438 13.425781 12.015625 13.527344 12.007812 13.582031 C 11.992188 13.667969 11.949219 13.738281 11.890625 13.792969 C 11.832031 13.84375 11.773438 13.878906 11.722656 13.902344 C 11.667969 13.925781 11.636719 13.933594 11.632812 13.933594 L 11.691406 14.257812 C 11.695312 14.261719 11.75 14.25 11.847656 14.222656 C 11.945312 14.191406 12.046875 14.125 12.148438 14.023438 C 12.253906 13.917969 12.324219 13.753906 12.351562 13.53125 C 12.363281 13.445312 12.367188 13.324219 12.371094 13.171875 C 12.375 13.023438 12.375 12.886719 12.378906 12.761719 C 12.378906 12.636719 12.378906 12.570312 12.378906 12.5625 L 12.917969 12.5625 L 12.917969 14.210938 L 13.261719 14.210938 L 13.261719 12.273438 Z M 12.035156 12.273438 "/>
<path style=" stroke:none;fill-rule:nonzero;fill:rgb(0%,0%,0%);fill-opacity:1;" d="M 14.242188 13.53125 L 14.488281 12.707031 L 14.734375 13.53125 Z M 14.292969 12.273438 L 13.652344 14.210938 L 14.019531 14.210938 L 14.144531 13.824219 L 14.832031 13.824219 L 14.957031 14.210938 L 15.324219 14.210938 L 14.683594 12.273438 Z M 14.292969 12.273438 "/>
<path style=" stroke:none;fill-rule:nonzero;fill:rgb(0%,0%,0%);fill-opacity:1;" d="M 16.003906 12.273438 L 16.003906 12.5625 C 16.003906 12.722656 15.992188 12.890625 15.96875 13.070312 C 15.945312 13.246094 15.917969 13.410156 15.882812 13.566406 C 15.851562 13.71875 15.816406 13.835938 15.785156 13.921875 L 15.5625 13.921875 L 15.5625 14.550781 L 15.855469 14.550781 L 15.855469 14.210938 L 17.085938 14.210938 L 17.085938 14.550781 L 17.382812 14.550781 L 17.382812 13.921875 L 17.160156 13.921875 L 17.160156 12.273438 Z M 16.347656 12.5625 L 16.816406 12.5625 L 16.816406 13.921875 L 16.117188 13.921875 C 16.183594 13.753906 16.238281 13.546875 16.28125 13.296875 C 16.324219 13.046875 16.347656 12.800781 16.347656 12.5625 Z M 16.347656 12.5625 "/>
<path style=" stroke:none;fill-rule:nonzero;fill:rgb(0%,0%,0%);fill-opacity:1;" d="M 19.117188 14.210938 L 19.117188 12.273438 L 18.75 12.273438 L 18.035156 13.605469 L 18.035156 12.273438 L 17.691406 12.273438 L 17.691406 14.210938 L 18.0625 14.210938 L 18.773438 12.878906 L 18.773438 14.210938 Z M 19.117188 14.210938 "/>
<path style=" stroke:none;fill-rule:nonzero;fill:rgb(0%,0%,0%);fill-opacity:1;" d="M 19.480469 14.210938 L 19.851562 14.210938 L 19.972656 12.78125 L 20.488281 13.921875 L 21.003906 12.78125 L 21.128906 14.210938 L 21.496094 14.210938 L 21.277344 12.273438 L 20.933594 12.273438 L 20.488281 13.21875 L 20.046875 12.273438 L 19.703125 12.273438 Z M 19.480469 14.210938 "/>
<path style=" stroke:none;fill-rule:nonzero;fill:rgb(0%,0%,0%);fill-opacity:1;" d="M 23.285156 14.210938 L 23.285156 12.273438 L 22.914062 12.273438 L 22.203125 13.605469 L 22.203125 12.273438 L 21.859375 12.273438 L 21.859375 14.210938 L 22.226562 14.210938 L 22.941406 12.878906 L 22.941406 14.210938 Z M 23.285156 14.210938 "/>
<path style=" stroke:none;fill-rule:nonzero;fill:rgb(0%,0%,0%);fill-opacity:1;" d="M 23.746094 12.273438 L 23.746094 14.210938 L 24.089844 14.210938 L 24.089844 13.53125 L 24.410156 13.53125 C 24.609375 13.523438 24.769531 13.445312 24.886719 13.308594 C 25.007812 13.171875 25.070312 13.035156 25.074219 12.902344 C 25.074219 12.769531 25.027344 12.636719 24.925781 12.496094 C 24.824219 12.359375 24.652344 12.285156 24.410156 12.273438 Z M 24.089844 12.5625 L 24.3125 12.5625 C 24.414062 12.5625 24.503906 12.589844 24.582031 12.640625 C 24.660156 12.695312 24.699219 12.78125 24.703125 12.902344 C 24.699219 13.023438 24.660156 13.109375 24.582031 13.164062 C 24.503906 13.214844 24.414062 13.242188 24.3125 13.242188 L 24.089844 13.242188 Z M 24.089844 12.5625 "/>
<path style=" stroke:none;fill-rule:nonzero;fill:rgb(0%,0%,0%);fill-opacity:1;" d="M 10.867188 16.847656 L 11.308594 16.847656 L 11.847656 14.910156 L 11.480469 14.910156 L 11.085938 16.363281 L 10.695312 14.910156 L 10.300781 14.910156 Z M 10.867188 16.847656 "/>
<path style=" stroke:none;fill-rule:nonzero;fill:rgb(0%,0%,0%);fill-opacity:1;" d="M 12.300781 16.847656 L 13.53125 16.847656 L 13.53125 16.558594 L 12.648438 16.558594 L 12.648438 14.910156 L 12.300781 14.910156 Z M 12.300781 16.847656 "/>
<path style=" stroke:none;fill-rule:nonzero;fill:rgb(0%,0%,0%);fill-opacity:1;" d="M 14.480469 16.167969 L 14.726562 15.34375 L 14.972656 16.167969 Z M 14.527344 14.910156 L 13.890625 16.847656 L 14.257812 16.847656 L 14.382812 16.460938 L 15.070312 16.460938 L 15.191406 16.847656 L 15.5625 16.847656 L 14.921875 14.910156 Z M 14.527344 14.910156 "/>
<path style=" stroke:none;fill-rule:nonzero;fill:rgb(0%,0%,0%);fill-opacity:1;" d="M 16.679688 14.910156 L 16.015625 14.910156 L 16.015625 16.847656 L 16.679688 16.847656 C 16.953125 16.84375 17.160156 16.75 17.308594 16.574219 C 17.453125 16.394531 17.527344 16.164062 17.527344 15.878906 C 17.527344 15.59375 17.453125 15.359375 17.308594 15.183594 C 17.160156 15.007812 16.953125 14.914062 16.679688 14.910156 Z M 16.65625 15.199219 C 16.792969 15.199219 16.914062 15.253906 17.015625 15.367188 C 17.113281 15.476562 17.167969 15.648438 17.171875 15.878906 C 17.167969 16.109375 17.113281 16.277344 17.015625 16.390625 C 16.914062 16.503906 16.792969 16.558594 16.65625 16.558594 L 16.359375 16.558594 L 16.359375 15.199219 Z M 16.65625 15.199219 "/>
<path style=" stroke:none;fill-rule:nonzero;fill:rgb(0%,0%,0%);fill-opacity:1;" d="M 17.972656 16.847656 L 18.316406 16.847656 L 18.316406 14.910156 L 17.972656 14.910156 Z M 17.972656 16.847656 "/>
<path style=" stroke:none;fill-rule:nonzero;fill:rgb(0%,0%,0%);fill-opacity:1;" d="M 18.820312 16.847656 L 19.164062 16.847656 L 19.164062 15.441406 L 19.753906 16.460938 L 20.34375 15.441406 L 20.367188 16.847656 L 20.6875 16.847656 L 20.6875 14.910156 L 20.292969 14.910156 L 19.753906 15.804688 L 19.214844 14.910156 L 18.820312 14.910156 Z M 18.820312 16.847656 "/>
<path style=" stroke:none;fill-rule:nonzero;fill:rgb(0%,0%,0%);fill-opacity:1;" d="M 21.191406 16.847656 L 21.535156 16.847656 L 21.535156 14.910156 L 21.191406 14.910156 Z M 21.191406 16.847656 "/>
<path style=" stroke:none;fill-rule:nonzero;fill:rgb(0%,0%,0%);fill-opacity:1;" d="M 22.089844 14.910156 L 22.089844 16.847656 L 22.433594 16.847656 L 22.433594 16.074219 L 22.628906 16.074219 C 22.734375 16.074219 22.8125 16.105469 22.859375 16.160156 C 22.90625 16.214844 22.949219 16.285156 22.988281 16.367188 C 23.03125 16.457031 23.074219 16.546875 23.109375 16.636719 C 23.144531 16.722656 23.183594 16.792969 23.21875 16.847656 L 23.636719 16.847656 C 23.566406 16.808594 23.5 16.722656 23.445312 16.589844 C 23.386719 16.457031 23.324219 16.324219 23.257812 16.195312 C 23.1875 16.066406 23.101562 15.984375 22.996094 15.953125 C 23.097656 15.914062 23.183594 15.855469 23.257812 15.769531 C 23.328125 15.683594 23.363281 15.574219 23.367188 15.441406 C 23.371094 15.335938 23.332031 15.222656 23.242188 15.101562 C 23.15625 14.984375 22.992188 14.917969 22.753906 14.910156 Z M 22.433594 15.199219 L 22.652344 15.199219 C 22.753906 15.199219 22.839844 15.222656 22.910156 15.265625 C 22.984375 15.3125 23.019531 15.386719 23.023438 15.492188 C 23.019531 15.59375 22.984375 15.667969 22.910156 15.714844 C 22.839844 15.761719 22.753906 15.78125 22.652344 15.78125 L 22.433594 15.78125 Z M 22.433594 15.199219 "/>
<path style=" stroke:none;fill-rule:nonzero;fill:rgb(0%,0%,0%);fill-opacity:1;" d="M 2.246094 14.910156 L 1.9375 14.910156 L 1.9375 16.847656 L 2.246094 16.847656 L 2.246094 15.976562 C 2.246094 15.839844 2.410156 15.722656 2.566406 15.722656 C 2.667969 15.722656 2.761719 15.785156 2.761719 15.878906 L 2.761719 16.847656 L 3.070312 16.847656 L 3.070312 15.878906 C 3.070312 15.652344 2.910156 15.441406 2.632812 15.441406 C 2.507812 15.441406 2.367188 15.503906 2.246094 15.59375 Z M 2.246094 14.910156 "/>
<path style=" stroke:none;fill-rule:nonzero;fill:rgb(0%,0%,0%);fill-opacity:1;" d="M 3.921875 15.441406 C 3.550781 15.441406 3.28125 15.734375 3.28125 16.167969 C 3.28125 16.605469 3.550781 16.894531 3.921875 16.894531 C 4.289062 16.894531 4.558594 16.605469 4.558594 16.167969 C 4.558594 15.734375 4.289062 15.441406 3.921875 15.441406 Z M 3.921875 15.683594 C 4.117188 15.683594 4.265625 15.878906 4.265625 16.167969 C 4.265625 16.460938 4.117188 16.652344 3.921875 16.652344 C 3.722656 16.652344 3.574219 16.460938 3.574219 16.167969 C 3.574219 15.878906 3.722656 15.683594 3.921875 15.683594 Z M 3.921875 15.683594 "/>
<path style=" stroke:none;fill-rule:nonzero;fill:rgb(0%,0%,0%);fill-opacity:1;" d="M 5.234375 14.910156 L 4.941406 15.007812 L 4.941406 15.492188 L 4.707031 15.492188 L 4.707031 15.761719 L 4.941406 15.761719 L 4.941406 16.605469 C 4.941406 16.722656 5.101562 16.894531 5.296875 16.894531 C 5.414062 16.894531 5.519531 16.890625 5.652344 16.847656 L 5.59375 16.585938 C 5.53125 16.605469 5.472656 16.625 5.394531 16.625 C 5.316406 16.625 5.234375 16.578125 5.234375 16.507812 L 5.234375 15.761719 L 5.589844 15.761719 L 5.589844 15.492188 L 5.234375 15.492188 Z M 5.234375 14.910156 "/>
<path style=" stroke:none;fill-rule:nonzero;fill:rgb(0%,0%,0%);fill-opacity:1;" d="M 6.441406 15.683594 C 6.585938 15.679688 6.761719 15.832031 6.761719 15.976562 C 6.761719 16 6.753906 16.023438 6.738281 16.023438 L 6.121094 16.023438 C 6.121094 15.78125 6.285156 15.691406 6.441406 15.683594 Z M 7.007812 16.265625 C 7.046875 16.265625 7.082031 16.195312 7.082031 16.121094 C 7.082031 15.757812 6.785156 15.441406 6.441406 15.441406 C 6.253906 15.441406 6.054688 15.539062 5.9375 15.683594 C 5.835938 15.808594 5.800781 15.960938 5.796875 16.167969 C 5.789062 16.605469 6.121094 16.894531 6.492188 16.894531 C 6.664062 16.894531 6.851562 16.800781 7.023438 16.582031 L 6.785156 16.445312 C 6.6875 16.566406 6.613281 16.628906 6.492188 16.628906 C 6.367188 16.628906 6.121094 16.558594 6.121094 16.265625 Z M 7.007812 16.265625 "/>
<path style=" stroke:none;fill-rule:nonzero;fill:rgb(0%,0%,0%);fill-opacity:1;" d="M 7.390625 14.910156 L 7.6875 14.910156 L 7.6875 16.847656 L 7.390625 16.847656 Z M 7.390625 14.910156 "/>
<path style=" stroke:none;fill-rule:nonzero;fill:rgb(0%,0%,0%);fill-opacity:1;" d="M 3.226562 3.800781 L 2.28125 3.800781 L 3.753906 1.28125 L 5.230469 3.800781 L 4.285156 3.800781 L 4.304688 5.738281 L 3.246094 5.738281 Z M 3.226562 3.800781 "/>
<path style=" stroke:none;fill-rule:nonzero;fill:rgb(0%,0%,0%);fill-opacity:1;" d="M 3.933594 9.539062 L 3.933594 10.46875 L 1.378906 9.015625 L 3.933594 7.5625 L 3.933594 8.492188 L 5.898438 8.472656 L 5.898438 9.519531 Z M 3.933594 9.539062 "/>
<path style=" stroke:none;fill-rule:nonzero;fill:rgb(0%,0%,0%);fill-opacity:1;" d="M 30.949219 15.453125 L 30.949219 16.382812 L 33.503906 14.929688 L 30.949219 13.472656 L 30.949219 14.40625 L 28.984375 14.386719 L 28.984375 15.433594 Z M 30.949219 15.453125 "/>
<path style=" stroke:none;fill-rule:nonzero;fill:rgb(0%,0%,0%);fill-opacity:1;" d="M 8.882812 12.273438 C 8.824219 12.273438 8.777344 12.292969 8.742188 12.328125 C 8.707031 12.367188 8.6875 12.410156 8.683594 12.464844 C 8.6875 12.519531 8.707031 12.566406 8.742188 12.601562 C 8.777344 12.640625 8.824219 12.660156 8.882812 12.660156 C 8.894531 12.660156 8.90625 12.660156 8.917969 12.65625 C 8.933594 12.65625 8.945312 12.652344 8.957031 12.644531 L 8.957031 12.671875 C 8.949219 12.734375 8.921875 12.785156 8.878906 12.824219 C 8.832031 12.863281 8.808594 12.882812 8.800781 12.886719 L 8.824219 12.945312 C 8.835938 12.941406 8.878906 12.910156 8.957031 12.839844 C 9.035156 12.773438 9.078125 12.679688 9.089844 12.554688 C 9.085938 12.472656 9.078125 12.414062 9.058594 12.382812 C 9.039062 12.347656 9.023438 12.328125 9.011719 12.320312 C 8.992188 12.308594 8.972656 12.296875 8.953125 12.285156 C 8.929688 12.277344 8.90625 12.273438 8.882812 12.273438 Z M 8.882812 12.273438 "/>
<path style=" stroke:none;fill-rule:nonzero;fill:rgb(0%,0%,0%);fill-opacity:1;" d="M 9.445312 12.273438 C 9.386719 12.273438 9.339844 12.292969 9.304688 12.328125 C 9.269531 12.367188 9.25 12.410156 9.246094 12.464844 C 9.25 12.519531 9.269531 12.566406 9.304688 12.601562 C 9.339844 12.640625 9.386719 12.660156 9.445312 12.660156 C 9.457031 12.660156 9.46875 12.660156 9.480469 12.65625 C 9.496094 12.65625 9.507812 12.652344 9.515625 12.644531 L 9.515625 12.671875 C 9.511719 12.734375 9.484375 12.785156 9.441406 12.824219 C 9.394531 12.863281 9.371094 12.882812 9.363281 12.886719 L 9.386719 12.945312 C 9.398438 12.941406 9.441406 12.910156 9.519531 12.839844 C 9.597656 12.773438 9.640625 12.679688 9.652344 12.554688 C 9.648438 12.472656 9.640625 12.414062 9.621094 12.382812 C 9.601562 12.347656 9.585938 12.328125 9.574219 12.320312 C 9.554688 12.308594 9.535156 12.296875 9.515625 12.285156 C 9.492188 12.277344 9.46875 12.273438 9.445312 12.273438 Z M 9.445312 12.273438 "/>
<path style=" stroke:none;fill-rule:nonzero;fill:rgb(0%,0%,0%);fill-opacity:1;" d="M 25.703125 12.273438 C 25.644531 12.273438 25.597656 12.292969 25.5625 12.328125 C 25.523438 12.367188 25.507812 12.410156 25.503906 12.464844 C 25.507812 12.519531 25.523438 12.566406 25.5625 12.601562 C 25.597656 12.640625 25.644531 12.660156 25.703125 12.660156 C 25.714844 12.660156 25.726562 12.660156 25.738281 12.65625 C 25.753906 12.65625 25.765625 12.652344 25.773438 12.644531 L 25.773438 12.671875 C 25.769531 12.734375 25.742188 12.785156 25.699219 12.824219 C 25.652344 12.863281 25.628906 12.882812 25.621094 12.886719 L 25.644531 12.945312 C 25.65625 12.941406 25.699219 12.910156 25.777344 12.839844 C 25.855469 12.773438 25.898438 12.679688 25.910156 12.554688 C 25.90625 12.472656 25.894531 12.414062 25.878906 12.382812 C 25.859375 12.347656 25.84375 12.328125 25.832031 12.320312 C 25.8125 12.308594 25.792969 12.296875 25.773438 12.285156 C 25.75 12.277344 25.726562 12.273438 25.703125 12.273438 Z M 25.703125 12.273438 "/>
<path style=" stroke:none;fill-rule:nonzero;fill:rgb(0%,0%,0%);fill-opacity:1;" d="M 26.261719 12.273438 C 26.207031 12.273438 26.160156 12.292969 26.125 12.328125 C 26.085938 12.367188 26.070312 12.410156 26.066406 12.464844 C 26.070312 12.519531 26.085938 12.566406 26.125 12.601562 C 26.160156 12.640625 26.207031 12.660156 26.261719 12.660156 C 26.277344 12.660156 26.289062 12.660156 26.300781 12.65625 C 26.316406 12.65625 26.328125 12.652344 26.335938 12.644531 L 26.335938 12.671875 C 26.332031 12.734375 26.304688 12.785156 26.261719 12.824219 C 26.214844 12.863281 26.1875 12.882812 26.183594 12.886719 L 26.207031 12.945312 C 26.21875 12.941406 26.261719 12.910156 26.339844 12.839844 C 26.414062 12.773438 26.460938 12.679688 26.472656 12.554688 C 26.46875 12.472656 26.457031 12.414062 26.441406 12.382812 C 26.421875 12.347656 26.40625 12.328125 26.394531 12.320312 C 26.375 12.308594 26.355469 12.296875 26.332031 12.285156 C 26.3125 12.277344 26.289062 12.273438 26.261719 12.273438 Z M 26.261719 12.273438 "/>
<path style=" stroke:none;fill-rule:nonzero;fill:rgb(0%,0%,0%);fill-opacity:1;" d="M 9.273438 14.910156 C 9.21875 14.910156 9.171875 14.929688 9.136719 14.964844 C 9.097656 15.003906 9.078125 15.046875 9.078125 15.101562 C 9.078125 15.15625 9.097656 15.203125 9.136719 15.242188 C 9.171875 15.277344 9.21875 15.296875 9.273438 15.296875 C 9.285156 15.296875 9.300781 15.296875 9.3125 15.292969 C 9.324219 15.292969 9.335938 15.289062 9.347656 15.28125 L 9.347656 15.308594 C 9.339844 15.371094 9.316406 15.421875 9.269531 15.460938 C 9.226562 15.5 9.199219 15.519531 9.195312 15.523438 L 9.21875 15.582031 C 9.230469 15.578125 9.273438 15.546875 9.351562 15.476562 C 9.425781 15.410156 9.46875 15.316406 9.480469 15.191406 C 9.480469 15.109375 9.46875 15.050781 9.449219 15.019531 C 9.433594 14.984375 9.417969 14.964844 9.402344 14.957031 C 9.386719 14.945312 9.367188 14.933594 9.34375 14.921875 C 9.324219 14.914062 9.300781 14.910156 9.273438 14.910156 Z M 9.273438 14.910156 "/>
<path style=" stroke:none;fill-rule:nonzero;fill:rgb(0%,0%,0%);fill-opacity:1;" d="M 9.835938 14.910156 C 9.78125 14.910156 9.734375 14.929688 9.699219 14.964844 C 9.660156 15.003906 9.640625 15.046875 9.640625 15.101562 C 9.640625 15.15625 9.660156 15.203125 9.699219 15.242188 C 9.734375 15.277344 9.78125 15.296875 9.835938 15.296875 C 9.847656 15.296875 9.863281 15.296875 9.875 15.292969 C 9.886719 15.292969 9.898438 15.289062 9.910156 15.28125 L 9.910156 15.308594 C 9.902344 15.371094 9.878906 15.421875 9.832031 15.460938 C 9.789062 15.5 9.761719 15.519531 9.757812 15.523438 L 9.78125 15.582031 C 9.792969 15.578125 9.835938 15.546875 9.914062 15.476562 C 9.988281 15.410156 10.03125 15.316406 10.042969 15.191406 C 10.042969 15.109375 10.03125 15.050781 10.011719 15.019531 C 9.996094 14.984375 9.980469 14.964844 9.964844 14.957031 C 9.949219 14.945312 9.929688 14.933594 9.90625 14.921875 C 9.886719 14.914062 9.863281 14.910156 9.835938 14.910156 Z M 9.835938 14.910156 "/>
<path style=" stroke:none;fill-rule:nonzero;fill:rgb(0%,0%,0%);fill-opacity:1;" d="M 24.023438 14.910156 C 23.96875 14.910156 23.921875 14.929688 23.886719 14.964844 C 23.847656 15.003906 23.828125 15.046875 23.828125 15.101562 C 23.828125 15.15625 23.847656 15.203125 23.886719 15.242188 C 23.921875 15.277344 23.96875 15.296875 24.023438 15.296875 C 24.035156 15.296875 24.050781 15.296875 24.0625 15.292969 C 24.074219 15.292969 24.085938 15.289062 24.097656 15.28125 L 24.097656 15.308594 C 24.089844 15.371094 24.066406 15.421875 24.019531 15.460938 C 23.976562 15.5 23.949219 15.519531 23.945312 15.523438 L 23.96875 15.582031 C 23.980469 15.578125 24.023438 15.546875 24.101562 15.476562 C 24.175781 15.410156 24.21875 15.316406 24.230469 15.191406 C 24.230469 15.109375 24.21875 15.050781 24.199219 15.019531 C 24.183594 14.984375 24.167969 14.964844 24.152344 14.957031 C 24.136719 14.945312 24.117188 14.933594 24.09375 14.921875 C 24.074219 14.914062 24.050781 14.910156 24.023438 14.910156 Z M 24.023438 14.910156 "/>
<path style=" stroke:none;fill-rule:nonzero;fill:rgb(0%,0%,0%);fill-opacity:1;" d="M 24.585938 14.910156 C 24.53125 14.910156 24.484375 14.929688 24.449219 14.964844 C 24.410156 15.003906 24.390625 15.046875 24.390625 15.101562 C 24.390625 15.15625 24.410156 15.203125 24.449219 15.242188 C 24.484375 15.277344 24.53125 15.296875 24.585938 15.296875 C 24.597656 15.296875 24.613281 15.296875 24.625 15.292969 C 24.636719 15.292969 24.648438 15.289062 24.660156 15.28125 L 24.660156 15.308594 C 24.652344 15.371094 24.628906 15.421875 24.582031 15.460938 C 24.539062 15.5 24.511719 15.519531 24.503906 15.523438 L 24.53125 15.582031 C 24.542969 15.578125 24.585938 15.546875 24.660156 15.476562 C 24.738281 15.410156 24.78125 15.316406 24.792969 15.191406 C 24.792969 15.109375 24.78125 15.050781 24.761719 15.019531 C 24.746094 14.984375 24.730469 14.964844 24.714844 14.957031 C 24.699219 14.945312 24.679688 14.933594 24.65625 14.921875 C 24.632812 14.914062 24.613281 14.910156 24.585938 14.910156 Z M 24.585938 14.910156 "/>
<path style=" stroke:none;fill-rule:nonzero;fill:rgb(0%,0%,0%);fill-opacity:1;" d="M 0.886719 0.234375 C 0.523438 0.234375 0.234375 0.519531 0.234375 0.871094 L 0.234375 18.128906 C 0.234375 18.480469 0.523438 18.765625 0.886719 18.765625 L 34.113281 18.765625 C 34.476562 18.765625 34.765625 18.480469 34.765625 18.128906 L 34.765625 0.871094 C 34.765625 0.519531 34.476562 0.234375 34.113281 0.234375 Z M 0.886719 0.347656 L 34.113281 0.347656 C 34.410156 0.347656 34.644531 0.582031 34.644531 0.871094 L 34.644531 6.367188 L 0.355469 6.367188 L 0.355469 0.871094 C 0.355469 0.582031 0.589844 0.347656 0.886719 0.347656 Z M 0.355469 6.5625 L 34.644531 6.5625 L 34.644531 11.585938 L 0.355469 11.585938 Z M 0.355469 11.777344 L 34.644531 11.777344 L 34.644531 18.128906 C 34.644531 18.417969 34.410156 18.652344 34.113281 18.652344 L 0.886719 18.652344 C 0.589844 18.652344 0.355469 18.417969 0.355469 18.128906 Z M 0.355469 11.777344 "/>
<path style="fill:none;stroke-width:2;stroke-linecap:butt;stroke-linejoin:miter;stroke:rgb(0%,0%,0%);stroke-opacity:1;stroke-miterlimit:4;" d="M 45.095982 73.369581 L 1734.904018 73.369581 C 1759.339286 73.369581 1779.006696 93.114647 1779.006696 117.292279 L 1779.006696 1007.432081 C 1779.006696 1031.609713 1759.339286 1051.354779 1734.904018 1051.354779 L 45.095982 1051.354779 C 20.660714 1051.354779 0.993304 1031.609713 0.993304 1007.432081 L 0.993304 117.292279 C 0.993304 93.114647 20.660714 73.369581 45.095982 73.369581 Z M 45.095982 73.369581 " transform="matrix(0.0196629,0,0,0.0193878,0,-1.40294)"/>
</g>
</svg>
