<?xml version="1.0" encoding="UTF-8"?>
<svg xmlns="http://www.w3.org/2000/svg" xmlns:xlink="http://www.w3.org/1999/xlink" width="35px" height="35px" viewBox="0 0 35 11" version="1.1">
<g id="surface1">
<path style=" stroke:none;fill-rule:nonzero;fill:rgb(100%,100%,100%);fill-opacity:1;" d="M 1.5 0 L 33.5 0 C 34.328125 0 35 0.632812 35 1.414062 L 35 9.585938 C 35 10.367188 34.328125 11 33.5 11 L 1.5 11 C 0.671875 11 0 10.367188 0 9.585938 L 0 1.414062 C 0 0.632812 0.671875 0 1.5 0 Z M 1.5 0 "/>
<path style=" stroke:none;fill-rule:nonzero;fill:rgb(10.196078%,10.196078%,10.196078%);fill-opacity:1;" d="M 1.5 0.3125 C 0.855469 0.3125 0.332031 0.804688 0.332031 1.414062 L 0.332031 9.585938 C 0.332031 10.195312 0.855469 10.6875 1.5 10.6875 L 33.5 10.6875 C 34.144531 10.6875 34.667969 10.195312 34.667969 9.585938 L 34.667969 1.414062 C 34.667969 0.804688 34.144531 0.3125 33.5 0.3125 Z M 1.5 0.628906 L 33.5 0.628906 C 33.960938 0.628906 34.332031 0.980469 34.332031 1.414062 L 34.332031 9.585938 C 34.332031 10.019531 33.960938 10.371094 33.5 10.371094 L 1.5 10.371094 C 1.039062 10.371094 0.667969 10.019531 0.667969 9.585938 L 0.667969 1.414062 C 0.667969 0.980469 1.039062 0.628906 1.5 0.628906 Z M 1.5 0.628906 "/>
<path style="fill:none;stroke-width:2;stroke-linecap:butt;stroke-linejoin:miter;stroke:rgb(0%,0%,0%);stroke-opacity:1;stroke-miterlimit:4;" d="M 45 703.356498 L 1005 703.356498 C 1029.257812 703.356498 1048.945312 723.118572 1048.945312 747.355078 L 1048.945312 1007.369282 C 1048.945312 1031.605788 1029.257812 1051.367862 1005 1051.367862 L 45 1051.367862 C 20.742188 1051.367862 1.054688 1031.605788 1.054688 1007.369282 L 1.054688 747.355078 C 1.054688 723.118572 20.742188 703.356498 45 703.356498 Z M 45 703.356498 " transform="matrix(0.0333333,0,0,0.0314286,0,-22.07424)"/>
<path style=" stroke:none;fill-rule:nonzero;fill:rgb(0%,0%,0%);fill-opacity:1;" d="M 3.320312 3.144531 C 3.320312 3.507812 3.320312 3.914062 3.320312 4.359375 C 3.316406 4.804688 3.3125 5.210938 3.300781 5.578125 C 3.292969 5.945312 3.277344 6.195312 3.257812 6.324219 C 3.210938 6.539062 3.109375 6.710938 2.960938 6.835938 C 2.808594 6.960938 2.664062 7.050781 2.523438 7.105469 C 2.386719 7.160156 2.3125 7.183594 2.304688 7.183594 L 2.445312 7.976562 C 2.464844 7.984375 2.597656 7.953125 2.84375 7.882812 C 3.089844 7.8125 3.347656 7.652344 3.617188 7.398438 C 3.882812 7.144531 4.054688 6.75 4.132812 6.207031 C 4.152344 5.992188 4.167969 5.703125 4.175781 5.335938 C 4.1875 4.964844 4.191406 4.632812 4.195312 4.332031 C 4.195312 4.027344 4.195312 3.867188 4.195312 3.851562 L 5.570312 3.851562 L 5.570312 7.855469 L 6.445312 7.855469 L 6.445312 3.144531 Z M 3.320312 3.144531 "/>
<path style=" stroke:none;fill-rule:nonzero;fill:rgb(0%,0%,0%);fill-opacity:1;" d="M 11.699219 7.855469 L 11.699219 3.144531 L 10.761719 3.144531 L 8.949219 6.382812 L 8.949219 3.144531 L 8.074219 3.144531 L 8.074219 7.855469 L 9.011719 7.855469 L 10.824219 4.617188 L 10.824219 7.855469 Z M 11.699219 7.855469 "/>
<path style=" stroke:none;fill-rule:nonzero;fill:rgb(0%,0%,0%);fill-opacity:1;" d="M 13.324219 3.144531 L 13.324219 7.855469 L 14.199219 7.855469 L 14.199219 3.851562 L 16.074219 3.851562 L 16.074219 7.855469 L 16.949219 7.855469 L 16.949219 3.144531 Z M 13.324219 3.144531 "/>
<path style=" stroke:none;fill-rule:nonzero;fill:rgb(0%,0%,0%);fill-opacity:1;" d="M 18.574219 7.855469 L 21.761719 7.855469 L 21.761719 7.148438 L 19.449219 7.148438 L 19.449219 5.734375 L 21.261719 5.734375 L 21.261719 5.027344 L 19.449219 5.027344 L 19.449219 3.910156 L 21.699219 3.910156 L 21.699219 3.144531 L 18.574219 3.144531 Z M 18.574219 7.855469 "/>
<path style=" stroke:none;fill-rule:nonzero;fill:rgb(0%,0%,0%);fill-opacity:1;" d="M 23.136719 7.855469 L 26.574219 7.855469 L 26.574219 8.800781 L 27.324219 8.800781 L 27.324219 7.148438 L 26.761719 7.148438 L 26.761719 3.144531 L 25.886719 3.144531 L 25.886719 7.148438 L 24.011719 7.148438 L 24.011719 3.144531 L 23.136719 3.144531 Z M 23.136719 7.855469 "/>
<path style=" stroke:none;fill-rule:nonzero;fill:rgb(0%,0%,0%);fill-opacity:1;" d="M 28.570312 3.144531 L 28.570312 7.855469 L 29.445312 7.855469 L 29.445312 5.703125 C 29.453125 5.699219 29.5 5.695312 29.585938 5.6875 C 29.671875 5.683594 29.75 5.679688 29.820312 5.675781 C 30.007812 5.679688 30.160156 5.730469 30.285156 5.832031 C 30.414062 5.933594 30.527344 6.078125 30.632812 6.265625 C 30.800781 6.546875 30.984375 6.839844 31.179688 7.148438 C 31.375 7.460938 31.515625 7.695312 31.609375 7.855469 L 32.695312 7.855469 C 32.480469 7.6875 32.285156 7.457031 32.105469 7.167969 C 31.929688 6.875 31.75 6.574219 31.570312 6.265625 C 31.429688 6.007812 31.28125 5.785156 31.128906 5.597656 C 30.976562 5.410156 30.75 5.300781 30.445312 5.265625 C 30.574219 5.25 30.722656 5.148438 30.886719 4.960938 C 31.050781 4.777344 31.195312 4.601562 31.320312 4.4375 C 31.449219 4.265625 31.566406 4.125 31.679688 4.019531 C 31.792969 3.910156 31.964844 3.851562 32.195312 3.851562 L 32.007812 3.023438 C 31.582031 3.085938 31.242188 3.269531 30.988281 3.578125 C 30.730469 3.886719 30.496094 4.1875 30.28125 4.476562 C 30.070312 4.765625 29.8125 4.914062 29.507812 4.917969 C 29.492188 4.917969 29.476562 4.917969 29.46875 4.914062 C 29.460938 4.910156 29.453125 4.90625 29.445312 4.902344 L 29.445312 3.144531 Z M 28.570312 3.144531 "/>
</g>
</svg>
