<?xml version="1.0" encoding="UTF-8"?>
<svg xmlns="http://www.w3.org/2000/svg" xmlns:xlink="http://www.w3.org/1999/xlink" width="35px" height="35px" viewBox="0 0 35 11" version="1.1">
<g id="surface1">
<path style=" stroke:none;fill-rule:nonzero;fill:rgb(100%,100%,100%);fill-opacity:1;" d="M 1.5 0 L 33.5 0 C 34.328125 0 35 0.632812 35 1.414062 L 35 9.585938 C 35 10.367188 34.328125 11 33.5 11 L 1.5 11 C 0.671875 11 0 10.367188 0 9.585938 L 0 1.414062 C 0 0.632812 0.671875 0 1.5 0 Z M 1.5 0 "/>
<path style=" stroke:none;fill-rule:nonzero;fill:rgb(5.098039%,41.176471%,88.235294%);fill-opacity:1;" d="M 1.5 0.3125 C 0.855469 0.3125 0.332031 0.804688 0.332031 1.414062 L 0.332031 9.585938 C 0.332031 10.195312 0.855469 10.6875 1.5 10.6875 L 33.5 10.6875 C 34.144531 10.6875 34.667969 10.195312 34.667969 9.585938 L 34.667969 1.414062 C 34.667969 0.804688 34.144531 0.3125 33.5 0.3125 Z M 4.527344 3.023438 C 5.210938 3.042969 5.722656 3.285156 6.058594 3.75 C 6.394531 4.21875 6.5625 4.800781 6.5625 5.5 C 6.5625 6.199219 6.394531 6.78125 6.058594 7.25 C 5.722656 7.714844 5.210938 7.957031 4.527344 7.976562 C 3.839844 7.957031 3.328125 7.714844 2.992188 7.25 C 2.65625 6.78125 2.488281 6.199219 2.488281 5.5 C 2.488281 4.800781 2.65625 4.21875 2.992188 3.75 C 3.328125 3.285156 3.839844 3.042969 4.527344 3.023438 Z M 20.222656 3.023438 C 20.90625 3.042969 21.417969 3.285156 21.753906 3.75 C 22.089844 4.21875 22.257812 4.800781 22.257812 5.5 C 22.257812 6.199219 22.089844 6.78125 21.753906 7.25 C 21.417969 7.714844 20.90625 7.957031 20.222656 7.976562 C 19.535156 7.957031 19.023438 7.714844 18.6875 7.25 C 18.351562 6.78125 18.183594 6.199219 18.183594 5.5 C 18.183594 4.800781 18.351562 4.21875 18.6875 3.75 C 19.023438 3.285156 19.535156 3.042969 20.222656 3.023438 Z M 30.472656 3.023438 C 31.160156 3.042969 31.671875 3.285156 32.007812 3.75 C 32.34375 4.21875 32.511719 4.800781 32.511719 5.5 C 32.511719 6.199219 32.34375 6.78125 32.007812 7.25 C 31.671875 7.714844 31.160156 7.957031 30.472656 7.976562 C 29.789062 7.957031 29.277344 7.714844 28.941406 7.25 C 28.605469 6.78125 28.4375 6.199219 28.4375 5.5 C 28.4375 4.800781 28.605469 4.21875 28.941406 3.75 C 29.277344 3.285156 29.789062 3.042969 30.472656 3.023438 Z M 7.960938 3.144531 L 9.648438 3.144531 C 10.265625 3.167969 10.703125 3.351562 10.960938 3.6875 C 11.21875 4.023438 11.34375 4.351562 11.335938 4.675781 C 11.328125 4.996094 11.171875 5.324219 10.867188 5.660156 C 10.5625 6 10.15625 6.179688 9.648438 6.207031 L 8.835938 6.207031 L 8.835938 7.855469 L 7.960938 7.855469 Z M 13.652344 3.144531 L 16.777344 3.144531 L 16.777344 7.855469 L 15.902344 7.855469 L 15.902344 3.851562 L 14.527344 3.851562 C 14.53125 3.867188 14.527344 4.027344 14.527344 4.332031 C 14.523438 4.632812 14.519531 4.964844 14.511719 5.335938 C 14.503906 5.703125 14.488281 5.992188 14.464844 6.207031 C 14.390625 6.75 14.21875 7.144531 13.949219 7.398438 C 13.683594 7.652344 13.425781 7.8125 13.175781 7.882812 C 12.929688 7.953125 12.796875 7.984375 12.777344 7.976562 L 12.636719 7.183594 C 12.644531 7.183594 12.71875 7.160156 12.859375 7.105469 C 12.996094 7.050781 13.140625 6.960938 13.292969 6.835938 C 13.445312 6.710938 13.542969 6.539062 13.589844 6.324219 C 13.613281 6.195312 13.628906 5.945312 13.636719 5.578125 C 13.644531 5.210938 13.648438 4.804688 13.652344 4.359375 C 13.652344 3.914062 13.65625 3.507812 13.652344 3.144531 Z M 23.65625 3.144531 L 25.59375 3.144531 C 26.066406 3.15625 26.425781 3.296875 26.679688 3.558594 C 26.929688 3.820312 27.054688 4.113281 27.058594 4.4375 C 27.054688 4.621094 26.992188 4.800781 26.867188 4.976562 C 26.738281 5.152344 26.566406 5.289062 26.34375 5.382812 C 26.601562 5.46875 26.808594 5.601562 26.96875 5.78125 C 27.132812 5.957031 27.214844 6.175781 27.21875 6.441406 C 27.210938 6.835938 27.054688 7.167969 26.757812 7.4375 C 26.460938 7.707031 26.078125 7.847656 25.601562 7.855469 L 23.65625 7.855469 Z M 4.527344 3.792969 C 4.175781 3.796875 3.890625 3.949219 3.675781 4.246094 C 3.457031 4.546875 3.34375 4.964844 3.339844 5.5 C 3.34375 6.035156 3.457031 6.453125 3.675781 6.753906 C 3.890625 7.050781 4.175781 7.203125 4.527344 7.207031 C 4.875 7.203125 5.160156 7.050781 5.378906 6.753906 C 5.59375 6.453125 5.707031 6.035156 5.714844 5.5 C 5.707031 4.964844 5.59375 4.546875 5.378906 4.246094 C 5.160156 3.949219 4.875 3.796875 4.527344 3.792969 Z M 20.222656 3.792969 C 19.871094 3.796875 19.585938 3.949219 19.367188 4.246094 C 19.152344 4.546875 19.039062 4.964844 19.035156 5.5 C 19.039062 6.035156 19.152344 6.453125 19.367188 6.753906 C 19.585938 7.050781 19.871094 7.203125 20.222656 7.207031 C 20.570312 7.203125 20.855469 7.050781 21.070312 6.753906 C 21.289062 6.453125 21.402344 6.035156 21.410156 5.5 C 21.402344 4.964844 21.289062 4.546875 21.070312 4.246094 C 20.855469 3.949219 20.570312 3.796875 20.222656 3.792969 Z M 30.472656 3.792969 C 30.125 3.796875 29.839844 3.949219 29.621094 4.246094 C 29.40625 4.546875 29.292969 4.964844 29.285156 5.5 C 29.292969 6.035156 29.40625 6.453125 29.621094 6.753906 C 29.839844 7.050781 30.125 7.203125 30.472656 7.207031 C 30.824219 7.203125 31.109375 7.050781 31.324219 6.753906 C 31.542969 6.453125 31.65625 6.035156 31.660156 5.5 C 31.65625 4.964844 31.542969 4.546875 31.324219 4.246094 C 31.109375 3.949219 30.824219 3.796875 30.472656 3.792969 Z M 8.835938 3.851562 L 8.835938 5.5 L 9.398438 5.5 C 9.660156 5.503906 9.890625 5.4375 10.085938 5.308594 C 10.285156 5.179688 10.390625 4.96875 10.398438 4.675781 C 10.390625 4.382812 10.285156 4.171875 10.085938 4.042969 C 9.890625 3.910156 9.660156 3.847656 9.398438 3.851562 Z M 24.53125 3.851562 L 24.53125 5.0625 L 25.53125 5.0625 C 25.722656 5.058594 25.875 5.003906 25.984375 4.890625 C 26.097656 4.78125 26.15625 4.636719 26.15625 4.457031 C 26.152344 4.25 26.085938 4.097656 25.960938 4 C 25.835938 3.898438 25.695312 3.847656 25.53125 3.851562 Z M 24.53125 5.734375 L 24.53125 7.148438 L 25.59375 7.148438 C 25.84375 7.140625 26.03125 7.066406 26.15625 6.921875 C 26.28125 6.78125 26.34375 6.621094 26.34375 6.441406 C 26.34375 6.265625 26.28125 6.105469 26.15625 5.960938 C 26.03125 5.820312 25.84375 5.742188 25.59375 5.734375 Z M 24.53125 5.734375 "/>
<path style=" stroke:none;fill-rule:nonzero;fill:rgb(100%,0%,0%);fill-opacity:1;" d="M 23.613281 0.3125 L 7.902344 10.6875 L 11.386719 10.6875 L 27.097656 0.3125 Z M 23.613281 0.3125 "/>
<path style="fill:none;stroke-width:2;stroke-linecap:butt;stroke-linejoin:miter;stroke:rgb(0%,0%,0%);stroke-opacity:1;stroke-miterlimit:4;" d="M 45 703.356498 L 1005 703.356498 C 1029.257812 703.356498 1048.945312 723.118572 1048.945312 747.355078 L 1048.945312 1007.369282 C 1048.945312 1031.605788 1029.257812 1051.367862 1005 1051.367862 L 45 1051.367862 C 20.742188 1051.367862 1.054688 1031.605788 1.054688 1007.369282 L 1.054688 747.355078 C 1.054688 723.118572 20.742188 703.356498 45 703.356498 Z M 45 703.356498 " transform="matrix(0.0333333,0,0,0.0314286,0,-22.07424)"/>
</g>
</svg>
