<?xml version="1.0" encoding="UTF-8"?>
<svg xmlns="http://www.w3.org/2000/svg" xmlns:xlink="http://www.w3.org/1999/xlink" width="35px" height="35px" viewBox="0 0 35 11" version="1.1">
<g id="surface1">
<path style=" stroke:none;fill-rule:nonzero;fill:rgb(100%,100%,100%);fill-opacity:1;" d="M 1.5 0 L 33.5 0 C 34.328125 0 35 0.632812 35 1.414062 L 35 9.585938 C 35 10.367188 34.328125 11 33.5 11 L 1.5 11 C 0.671875 11 0 10.367188 0 9.585938 L 0 1.414062 C 0 0.632812 0.671875 0 1.5 0 Z M 1.5 0 "/>
<path style=" stroke:none;fill-rule:nonzero;fill:rgb(5.098039%,41.176471%,88.235294%);fill-opacity:1;" d="M 1.5 0.3125 C 0.855469 0.3125 0.332031 0.804688 0.332031 1.414062 L 0.332031 9.585938 C 0.332031 10.195312 0.855469 10.6875 1.5 10.6875 L 33.5 10.6875 C 34.144531 10.6875 34.667969 10.195312 34.667969 9.585938 L 34.667969 1.414062 C 34.667969 0.804688 34.144531 0.3125 33.5 0.3125 Z M 11.910156 3.269531 L 12.785156 3.269531 L 12.785156 5.152344 L 14.660156 5.152344 L 14.660156 3.269531 L 15.535156 3.269531 L 15.535156 7.984375 L 14.660156 7.984375 L 14.660156 5.863281 L 12.785156 5.863281 L 12.785156 7.984375 L 11.910156 7.984375 Z M 18.597656 3.269531 L 19.597656 3.269531 L 21.222656 7.984375 L 20.285156 7.984375 L 19.972656 7.039062 L 18.222656 7.039062 L 17.910156 7.984375 L 16.972656 7.984375 Z M 22.652344 3.269531 L 24.339844 3.269531 C 24.957031 3.296875 25.394531 3.476562 25.652344 3.8125 C 25.910156 4.148438 26.035156 4.480469 26.027344 4.800781 C 26.019531 5.121094 25.863281 5.453125 25.558594 5.789062 C 25.253906 6.125 24.847656 6.304688 24.339844 6.332031 L 23.527344 6.332031 L 23.527344 7.984375 L 22.652344 7.984375 Z M 29.09375 3.269531 L 30.09375 3.269531 L 31.71875 7.984375 L 30.78125 7.984375 L 30.46875 7.039062 L 28.71875 7.039062 L 28.40625 7.984375 L 27.46875 7.984375 Z M 23.527344 3.976562 L 23.527344 5.625 L 24.089844 5.625 C 24.351562 5.628906 24.578125 5.5625 24.777344 5.433594 C 24.976562 5.304688 25.078125 5.09375 25.089844 4.800781 C 25.078125 4.507812 24.976562 4.296875 24.777344 4.167969 C 24.578125 4.035156 24.351562 3.972656 24.089844 3.976562 Z M 19.097656 4.328125 L 18.472656 6.332031 L 19.722656 6.332031 Z M 29.59375 4.328125 L 28.96875 6.332031 L 30.21875 6.332031 Z M 4.96875 4.5625 C 5.289062 4.566406 5.605469 4.683594 5.921875 4.917969 C 6.261719 5.167969 6.441406 5.640625 6.46875 6.332031 C 6.457031 6.820312 6.347656 7.1875 6.148438 7.445312 C 5.945312 7.703125 5.722656 7.878906 5.476562 7.96875 C 5.234375 8.0625 5.042969 8.105469 4.90625 8.101562 C 4.652344 8.085938 4.441406 8.023438 4.28125 7.917969 C 4.121094 7.808594 4.035156 7.730469 4.03125 7.6875 L 4.03125 9.398438 L 3.28125 9.398438 L 3.28125 4.683594 L 3.90625 4.683594 C 3.933594 4.824219 3.976562 4.945312 4.03125 5.035156 C 4.027344 5.015625 4.097656 4.9375 4.234375 4.800781 C 4.371094 4.664062 4.597656 4.585938 4.90625 4.566406 C 4.925781 4.5625 4.949219 4.5625 4.96875 4.5625 Z M 4.90625 5.214844 C 4.726562 5.214844 4.558594 5.269531 4.40625 5.375 C 4.253906 5.480469 4.128906 5.625 4.03125 5.800781 L 4.03125 7.039062 C 4.128906 7.1875 4.257812 7.304688 4.417969 7.386719 C 4.578125 7.46875 4.742188 7.511719 4.90625 7.511719 C 5.132812 7.507812 5.320312 7.398438 5.476562 7.1875 C 5.632812 6.976562 5.710938 6.691406 5.71875 6.332031 C 5.710938 5.976562 5.632812 5.703125 5.476562 5.507812 C 5.320312 5.3125 5.132812 5.214844 4.90625 5.214844 Z M 7.960938 6.996094 C 8.113281 7 8.242188 7.050781 8.347656 7.148438 C 8.449219 7.246094 8.5 7.367188 8.503906 7.511719 C 8.5 7.65625 8.449219 7.777344 8.347656 7.875 C 8.242188 7.972656 8.113281 8.019531 7.960938 8.023438 C 7.804688 8.019531 7.675781 7.972656 7.574219 7.875 C 7.472656 7.777344 7.417969 7.65625 7.414062 7.511719 C 7.417969 7.367188 7.472656 7.246094 7.574219 7.148438 C 7.675781 7.050781 7.804688 7 7.960938 6.996094 Z M 7.960938 6.996094 "/>
<path style="fill:none;stroke-width:2;stroke-linecap:butt;stroke-linejoin:miter;stroke:rgb(0%,0%,0%);stroke-opacity:1;stroke-miterlimit:4;" d="M 45 703.356498 L 1005 703.356498 C 1029.257812 703.356498 1048.945312 723.118572 1048.945312 747.355078 L 1048.945312 1007.369282 C 1048.945312 1031.605788 1029.257812 1051.367862 1005 1051.367862 L 45 1051.367862 C 20.742188 1051.367862 1.054688 1031.605788 1.054688 1007.369282 L 1.054688 747.355078 C 1.054688 723.118572 20.742188 703.356498 45 703.356498 Z M 45 703.356498 " transform="matrix(0.0333333,0,0,0.0314286,0,-22.07424)"/>
</g>
</svg>
