<?xml version="1.0" encoding="UTF-8"?>
<svg xmlns="http://www.w3.org/2000/svg" xmlns:xlink="http://www.w3.org/1999/xlink" width="35px" height="35px" viewBox="0 0 35 9" version="1.1">
<g id="surface1">
<path style=" stroke:none;fill-rule:nonzero;fill:rgb(100%,100%,100%);fill-opacity:1;" d="M 1.261719 0 L 33.738281 0 C 34.4375 0 35 0.519531 35 1.15625 L 35 7.84375 C 35 8.480469 34.4375 9 33.738281 9 L 1.261719 9 C 0.5625 9 0 8.480469 0 7.84375 L 0 1.15625 C 0 0.519531 0.5625 0 1.261719 0 Z M 1.261719 0 "/>
<path style=" stroke:none;fill-rule:nonzero;fill:rgb(10.196078%,10.196078%,10.196078%);fill-opacity:1;" d="M 1.261719 0.257812 C 0.71875 0.257812 0.28125 0.660156 0.28125 1.15625 L 0.28125 7.84375 C 0.28125 8.339844 0.71875 8.742188 1.261719 8.742188 L 33.738281 8.742188 C 34.28125 8.742188 34.71875 8.339844 34.71875 7.84375 L 34.71875 1.15625 C 34.71875 0.660156 34.28125 0.257812 33.738281 0.257812 Z M 1.261719 0.515625 L 33.738281 0.515625 C 34.128906 0.515625 34.441406 0.800781 34.441406 1.15625 L 34.441406 7.84375 C 34.441406 8.199219 34.128906 8.484375 33.738281 8.484375 L 1.261719 8.484375 C 0.871094 8.484375 0.558594 8.199219 0.558594 7.84375 L 0.558594 1.15625 C 0.558594 0.800781 0.871094 0.515625 1.261719 0.515625 Z M 1.261719 0.515625 "/>
<path style="fill:none;stroke-width:2;stroke-linecap:butt;stroke-linejoin:miter;stroke:rgb(0%,0%,0%);stroke-opacity:1;stroke-miterlimit:4;" d="M 45.061384 703.425548 L 1204.938616 703.425548 C 1229.352679 703.425548 1249.023438 723.021902 1249.023438 747.327458 L 1249.023438 1007.396902 C 1249.023438 1031.702458 1229.352679 1051.298812 1204.938616 1051.298812 L 45.061384 1051.298812 C 20.647321 1051.298812 0.976562 1031.702458 0.976562 1007.396902 L 0.976562 747.327458 C 0.976562 723.021902 20.647321 703.425548 45.061384 703.425548 Z M 45.061384 703.425548 " transform="matrix(0.028,0,0,0.0257143,0,-18.060742)"/>
<path style=" stroke:none;fill-rule:nonzero;fill:rgb(0%,0%,0%);fill-opacity:1;" d="M 2.015625 7.007812 L 2.21875 7.558594 C 2.296875 7.570312 2.347656 7.578125 2.371094 7.582031 C 2.394531 7.585938 2.414062 7.585938 2.4375 7.585938 C 2.597656 7.585938 2.757812 7.539062 2.914062 7.445312 C 3.070312 7.355469 3.191406 7.226562 3.277344 7.054688 L 4.484375 3.730469 L 3.75 3.730469 L 3.171875 5.511719 L 2.488281 3.730469 L 1.753906 3.730469 L 2.878906 6.429688 C 2.839844 6.574219 2.773438 6.710938 2.683594 6.84375 C 2.59375 6.976562 2.460938 7.046875 2.277344 7.054688 C 2.25 7.054688 2.214844 7.054688 2.167969 7.050781 C 2.121094 7.042969 2.070312 7.03125 2.015625 7.007812 Z M 2.015625 7.007812 "/>
<path style=" stroke:none;fill-rule:nonzero;fill:rgb(0%,0%,0%);fill-opacity:1;" d="M 5.84375 3.730469 C 5.84375 3.914062 5.839844 4.140625 5.828125 4.40625 C 5.820312 4.667969 5.800781 4.914062 5.777344 5.144531 C 5.753906 5.375 5.722656 5.527344 5.679688 5.609375 C 5.613281 5.71875 5.527344 5.804688 5.429688 5.863281 C 5.332031 5.921875 5.234375 5.960938 5.144531 5.972656 L 5.265625 6.523438 C 5.691406 6.421875 5.984375 6.246094 6.136719 6 C 6.292969 5.757812 6.375 5.476562 6.390625 5.167969 C 6.402344 4.859375 6.414062 4.554688 6.421875 4.257812 L 7.261719 4.257812 L 7.261719 6.429688 L 7.890625 6.429688 L 7.890625 3.730469 Z M 5.84375 3.730469 "/>
<path style=" stroke:none;fill-rule:nonzero;fill:rgb(0%,0%,0%);fill-opacity:1;" d="M 9.871094 6.042969 C 9.867188 5.925781 9.824219 5.824219 9.738281 5.746094 C 9.648438 5.667969 9.542969 5.625 9.414062 5.621094 C 9.285156 5.625 9.175781 5.667969 9.089844 5.746094 C 9.003906 5.824219 8.957031 5.925781 8.957031 6.042969 C 8.957031 6.160156 9.003906 6.261719 9.089844 6.339844 C 9.175781 6.417969 9.285156 6.460938 9.414062 6.464844 C 9.542969 6.460938 9.648438 6.417969 9.738281 6.339844 C 9.824219 6.261719 9.867188 6.160156 9.871094 6.042969 Z M 9.871094 6.042969 "/>
<path style=" stroke:none;fill-rule:nonzero;fill:rgb(0%,0%,0%);fill-opacity:1;" d="M 13.832031 5.078125 L 14.359375 3.4375 L 14.882812 5.078125 Z M 13.9375 2.570312 L 12.574219 6.429688 L 13.359375 6.429688 L 13.621094 5.65625 L 15.09375 5.65625 L 15.355469 6.429688 L 16.140625 6.429688 L 14.777344 2.570312 Z M 13.9375 2.570312 "/>
<path style=" stroke:none;fill-rule:nonzero;fill:rgb(0%,0%,0%);fill-opacity:1;" d="M 17.34375 2.570312 L 17.34375 6.429688 L 18.078125 6.429688 L 18.078125 5.078125 L 18.761719 5.078125 C 19.1875 5.054688 19.53125 4.90625 19.785156 4.632812 C 20.042969 4.355469 20.171875 4.089844 20.179688 3.824219 C 20.1875 3.5625 20.082031 3.292969 19.863281 3.015625 C 19.648438 2.742188 19.28125 2.59375 18.761719 2.570312 Z M 18.078125 3.148438 L 18.550781 3.148438 C 18.769531 3.148438 18.964844 3.199219 19.128906 3.308594 C 19.296875 3.414062 19.382812 3.585938 19.390625 3.824219 C 19.382812 4.0625 19.296875 4.238281 19.128906 4.34375 C 18.964844 4.449219 18.769531 4.503906 18.550781 4.5 L 18.078125 4.5 Z M 18.078125 3.148438 "/>
<path style=" stroke:none;fill-rule:nonzero;fill:rgb(0%,0%,0%);fill-opacity:1;" d="M 21.546875 6.429688 L 23.070312 6.429688 C 23.589844 6.410156 23.96875 6.277344 24.199219 6.03125 C 24.433594 5.785156 24.546875 5.53125 24.542969 5.269531 C 24.550781 5.011719 24.453125 4.757812 24.253906 4.511719 C 24.050781 4.265625 23.691406 4.132812 23.175781 4.113281 L 22.285156 4.113281 L 22.285156 3.148438 L 24.226562 3.148438 L 24.226562 2.570312 L 21.546875 2.570312 Z M 22.285156 5.851562 L 22.285156 4.691406 L 23.019531 4.691406 C 23.257812 4.691406 23.449219 4.742188 23.589844 4.835938 C 23.730469 4.933594 23.804688 5.078125 23.804688 5.269531 C 23.804688 5.464844 23.730469 5.609375 23.589844 5.707031 C 23.449219 5.800781 23.257812 5.851562 23.019531 5.851562 Z M 22.285156 5.851562 "/>
<path style=" stroke:none;fill-rule:nonzero;fill:rgb(0%,0%,0%);fill-opacity:1;" d="M 26.898438 5.078125 L 27.425781 3.4375 L 27.949219 5.078125 Z M 27.003906 2.570312 L 25.640625 6.429688 L 26.425781 6.429688 L 26.6875 5.65625 L 28.160156 5.65625 L 28.421875 6.429688 L 29.210938 6.429688 L 27.84375 2.570312 Z M 27.003906 2.570312 "/>
<path style=" stroke:none;fill-rule:nonzero;fill:rgb(0%,0%,0%);fill-opacity:1;" d="M 30.199219 2.570312 L 30.199219 3.148438 L 31.355469 3.148438 L 31.355469 6.429688 L 32.089844 6.429688 L 32.089844 3.148438 L 33.246094 3.148438 L 33.246094 2.570312 Z M 30.199219 2.570312 "/>
</g>
</svg>
