<?xml version="1.0" encoding="UTF-8"?>
<svg xmlns="http://www.w3.org/2000/svg" xmlns:xlink="http://www.w3.org/1999/xlink" width="35px" height="35px" viewBox="0 0 35 11" version="1.1">
<g id="surface1">
<path style=" stroke:none;fill-rule:nonzero;fill:rgb(100%,100%,100%);fill-opacity:1;" d="M 1.5 0 L 33.5 0 C 34.328125 0 35 0.632812 35 1.414062 L 35 9.585938 C 35 10.367188 34.328125 11 33.5 11 L 1.5 11 C 0.671875 11 0 10.367188 0 9.585938 L 0 1.414062 C 0 0.632812 0.671875 0 1.5 0 Z M 1.5 0 "/>
<path style="fill:none;stroke-width:2;stroke-linecap:butt;stroke-linejoin:miter;stroke:rgb(0%,0%,0%);stroke-opacity:1;stroke-miterlimit:4;" d="M 45 703.356498 L 1005 703.356498 C 1029.257812 703.356498 1048.945312 723.118572 1048.945312 747.355078 L 1048.945312 1007.369282 C 1048.945312 1031.605788 1029.257812 1051.367862 1005 1051.367862 L 45 1051.367862 C 20.742188 1051.367862 1.054688 1031.605788 1.054688 1007.369282 L 1.054688 747.355078 C 1.054688 723.118572 20.742188 703.356498 45 703.356498 Z M 45 703.356498 " transform="matrix(0.0333333,0,0,0.0314286,0,-22.07424)"/>
<path style=" stroke:none;fill-rule:nonzero;fill:rgb(5.098039%,41.176471%,88.235294%);fill-opacity:1;" d="M 1.5 0.3125 C 0.855469 0.3125 0.332031 0.804688 0.332031 1.414062 L 0.332031 9.585938 C 0.332031 10.195312 0.855469 10.6875 1.5 10.6875 L 10.332031 10.6875 C 10.980469 10.6875 11.5 10.195312 11.5 9.585938 L 11.5 1.414062 C 11.5 0.804688 10.980469 0.3125 10.332031 0.3125 Z M 5.984375 3.058594 L 5.984375 4.824219 L 10.335938 4.824219 L 10.335938 6.175781 L 5.984375 6.175781 L 5.984375 7.941406 L 1.496094 5.5 Z M 5.984375 3.058594 "/>
<path style=" stroke:none;fill-rule:nonzero;fill:rgb(5.098039%,41.176471%,88.235294%);fill-opacity:1;" d="M 13 0.3125 C 12.355469 0.3125 11.832031 0.804688 11.832031 1.414062 L 11.832031 9.585938 C 11.832031 10.195312 12.355469 10.6875 13 10.6875 L 33.5 10.6875 C 34.144531 10.6875 34.667969 10.195312 34.667969 9.585938 L 34.667969 1.414062 C 34.667969 0.804688 34.144531 0.3125 33.5 0.3125 Z M 17.101562 3.089844 L 17.996094 3.089844 L 19.148438 5.441406 L 20.300781 3.089844 L 21.195312 3.089844 L 21.769531 7.910156 L 20.808594 7.910156 L 20.492188 4.355469 L 19.148438 7.1875 L 17.804688 4.355469 L 17.484375 7.910156 L 16.527344 7.910156 Z M 22.695312 3.089844 L 25.636719 3.089844 L 25.382812 3.871094 L 23.527344 3.871094 L 23.527344 5.019531 C 23.628906 4.898438 23.753906 4.820312 23.90625 4.777344 C 24.058594 4.734375 24.207031 4.714844 24.359375 4.714844 C 24.730469 4.71875 25.074219 4.847656 25.390625 5.109375 C 25.707031 5.367188 25.871094 5.738281 25.894531 6.222656 C 25.886719 6.71875 25.707031 7.128906 25.355469 7.460938 C 25.007812 7.789062 24.523438 7.960938 23.910156 7.972656 C 23.609375 7.960938 23.332031 7.921875 23.085938 7.851562 C 22.839844 7.78125 22.710938 7.742188 22.695312 7.730469 L 22.566406 6.945312 C 22.726562 7.042969 22.917969 7.109375 23.132812 7.140625 C 23.351562 7.175781 23.566406 7.191406 23.785156 7.1875 C 24.054688 7.1875 24.308594 7.113281 24.550781 6.960938 C 24.789062 6.8125 24.917969 6.585938 24.933594 6.285156 C 24.933594 6.0625 24.855469 5.859375 24.703125 5.671875 C 24.550781 5.488281 24.328125 5.390625 24.039062 5.378906 C 23.847656 5.390625 23.6875 5.441406 23.558594 5.539062 C 23.429688 5.632812 23.335938 5.699219 23.269531 5.742188 L 22.695312 5.441406 Z M 26.847656 3.089844 L 29.789062 3.089844 L 29.53125 3.871094 L 27.675781 3.871094 L 27.675781 5.019531 C 27.777344 4.898438 27.902344 4.820312 28.054688 4.777344 C 28.207031 4.734375 28.359375 4.714844 28.507812 4.714844 C 28.878906 4.71875 29.222656 4.847656 29.539062 5.109375 C 29.855469 5.367188 30.023438 5.738281 30.042969 6.222656 C 30.035156 6.71875 29.859375 7.128906 29.507812 7.460938 C 29.15625 7.789062 28.675781 7.960938 28.0625 7.972656 C 27.757812 7.960938 27.484375 7.921875 27.238281 7.851562 C 26.992188 7.78125 26.859375 7.742188 26.847656 7.730469 L 26.71875 6.945312 C 26.878906 7.042969 27.066406 7.109375 27.285156 7.140625 C 27.5 7.175781 27.71875 7.191406 27.933594 7.1875 C 28.207031 7.1875 28.460938 7.113281 28.699219 6.960938 C 28.941406 6.8125 29.070312 6.585938 29.085938 6.285156 C 29.082031 6.0625 29.003906 5.859375 28.851562 5.671875 C 28.699219 5.488281 28.480469 5.390625 28.191406 5.378906 C 27.996094 5.390625 27.835938 5.441406 27.710938 5.539062 C 27.582031 5.632812 27.484375 5.699219 27.421875 5.742188 L 26.847656 5.441406 Z M 26.847656 3.089844 "/>
</g>
</svg>
