<?xml version="1.0" encoding="UTF-8"?>
<svg xmlns="http://www.w3.org/2000/svg" xmlns:xlink="http://www.w3.org/1999/xlink" width="35px" height="35px" viewBox="0 0 35 43" version="1.1">
<g id="surface1">
<path style=" stroke:none;fill-rule:nonzero;fill:rgb(100%,100%,100%);fill-opacity:1;" d="M 0.960938 0.0429688 L 33.992188 0.0429688 C 34.539062 0.0429688 34.976562 0.476562 34.976562 1.011719 L 34.976562 42.074219 C 34.976562 42.609375 34.539062 43.042969 33.992188 43.042969 L 0.960938 43.042969 C 0.417969 43.042969 -0.0234375 42.609375 -0.0234375 42.074219 L -0.0234375 1.011719 C -0.0234375 0.476562 0.417969 0.0429688 0.960938 0.0429688 Z M 0.960938 0.0429688 "/>
<path style=" stroke:none;fill-rule:nonzero;fill:rgb(100%,80%,0%);fill-opacity:1;" d="M 0.984375 0.429688 L 34.015625 0.429688 C 34.316406 0.429688 34.5625 0.671875 34.5625 0.96875 L 34.5625 42.03125 C 34.5625 42.328125 34.316406 42.570312 34.015625 42.570312 L 0.984375 42.570312 C 0.683594 42.570312 0.4375 42.328125 0.4375 42.03125 L 0.4375 0.96875 C 0.4375 0.671875 0.683594 0.429688 0.984375 0.429688 Z M 0.984375 0.429688 "/>
<path style="fill:none;stroke-width:2;stroke-linecap:butt;stroke-linejoin:miter;stroke:rgb(0%,0%,0%);stroke-opacity:1;stroke-miterlimit:4;" d="M 45 -946.547684 L 1555 -946.547684 C 1579.285714 -946.547684 1598.928571 -926.925591 1598.928571 -902.57966 L 1598.928571 1007.30406 C 1598.928571 1031.649991 1579.285714 1051.272084 1555 1051.272084 L 45 1051.272084 C 20.714286 1051.272084 1.071429 1031.649991 1.071429 1007.30406 L 1.071429 -902.57966 C 1.071429 -926.925591 20.714286 -946.547684 45 -946.547684 Z M 45 -946.547684 " transform="matrix(0.021875,0,0,0.0215,0,20.374213)"/>
<path style=" stroke:none;fill-rule:nonzero;fill:rgb(0%,0%,0%);fill-opacity:1;" d="M 0.984375 0.214844 C 0.558594 0.214844 0.21875 0.550781 0.21875 0.96875 L 0.21875 42.03125 C 0.21875 42.449219 0.558594 42.785156 0.984375 42.785156 L 34.015625 42.785156 C 34.441406 42.785156 34.78125 42.449219 34.78125 42.03125 L 34.78125 0.96875 C 34.78125 0.550781 34.441406 0.214844 34.015625 0.214844 Z M 0.984375 0.429688 L 34.015625 0.429688 C 34.320312 0.429688 34.5625 0.667969 34.5625 0.96875 L 34.5625 42.03125 C 34.5625 42.332031 34.320312 42.570312 34.015625 42.570312 L 0.984375 42.570312 C 0.679688 42.570312 0.4375 42.332031 0.4375 42.03125 L 0.4375 0.96875 C 0.4375 0.667969 0.679688 0.429688 0.984375 0.429688 Z M 0.984375 0.429688 "/>
<path style=" stroke:none;fill-rule:nonzero;fill:rgb(0%,0%,0%);fill-opacity:1;" d="M 8.3125 8.601562 L 5.90625 12.683594 L 7.445312 12.683594 L 7.445312 42.675781 L 9.179688 42.675781 L 9.179688 35.476562 L 27.535156 35.476562 C 27.855469 36.117188 28.527344 36.558594 29.304688 36.558594 C 30.390625 36.558594 31.273438 35.691406 31.273438 34.625 C 31.273438 33.859375 30.824219 33.199219 30.167969 32.886719 L 30.167969 20.882812 C 30.824219 20.566406 31.273438 19.90625 31.273438 19.144531 C 31.273438 18.074219 30.390625 17.207031 29.304688 17.207031 C 28.527344 17.207031 27.855469 17.652344 27.535156 18.292969 L 9.179688 18.292969 L 9.179688 12.683594 L 10.71875 12.683594 Z M 29.304688 17.746094 C 30.089844 17.746094 30.726562 18.371094 30.726562 19.144531 C 30.726562 19.914062 30.089844 20.542969 29.304688 20.542969 C 28.519531 20.542969 27.882812 19.914062 27.882812 19.144531 C 27.882812 18.371094 28.519531 17.746094 29.304688 17.746094 Z M 9.179688 19.996094 L 27.535156 19.996094 C 27.726562 20.378906 28.046875 20.691406 28.4375 20.882812 L 28.4375 32.886719 C 28.046875 33.074219 27.726562 33.386719 27.535156 33.773438 L 9.179688 33.773438 Z M 29.304688 33.226562 C 30.089844 33.226562 30.726562 33.851562 30.726562 34.625 C 30.726562 35.394531 30.089844 36.019531 29.304688 36.019531 C 28.519531 36.019531 27.882812 35.394531 27.882812 34.625 C 27.882812 33.851562 28.519531 33.226562 29.304688 33.226562 Z M 29.304688 33.226562 "/>
<path style=" stroke:none;fill-rule:nonzero;fill:rgb(100%,100%,100%);fill-opacity:1;" d="M 12.855469 26.882812 C 12.855469 29.351562 10.820312 31.351562 8.3125 31.351562 C 5.804688 31.351562 3.769531 29.351562 3.769531 26.882812 C 3.769531 24.417969 5.804688 22.417969 8.3125 22.417969 C 10.820312 22.417969 12.855469 24.417969 12.855469 26.882812 Z M 12.855469 26.882812 "/>
<path style=" stroke:none;fill-rule:nonzero;fill:rgb(100%,0%,0%);fill-opacity:1;" d="M 8.3125 21.507812 C 5.292969 21.507812 2.84375 23.914062 2.84375 26.882812 C 2.84375 29.851562 5.292969 32.257812 8.3125 32.257812 C 11.332031 32.257812 13.78125 29.851562 13.78125 26.882812 C 13.78125 23.914062 11.332031 21.507812 8.3125 21.507812 Z M 8.3125 22.417969 C 10.820312 22.417969 12.855469 24.417969 12.855469 26.882812 C 12.855469 29.351562 10.820312 31.351562 8.3125 31.351562 C 5.804688 31.351562 3.769531 29.351562 3.769531 26.882812 C 3.769531 24.417969 5.804688 22.417969 8.3125 22.417969 Z M 8.3125 22.417969 "/>
<path style=" stroke:none;fill-rule:nonzero;fill:rgb(0%,0%,0%);fill-opacity:1;" d="M 13.496094 13.503906 L 13.496094 14.78125 C 13.496094 14.964844 13.570312 15.109375 13.710938 15.210938 C 13.855469 15.3125 14.070312 15.363281 14.355469 15.367188 C 14.488281 15.367188 14.636719 15.355469 14.800781 15.328125 C 14.96875 15.304688 15.105469 15.253906 15.214844 15.183594 L 15.214844 16.425781 L 15.789062 16.425781 L 15.789062 13.503906 L 15.214844 13.503906 L 15.214844 14.707031 C 15.109375 14.765625 14.984375 14.808594 14.832031 14.839844 C 14.679688 14.875 14.523438 14.890625 14.355469 14.890625 C 14.253906 14.890625 14.179688 14.863281 14.136719 14.8125 C 14.089844 14.761719 14.070312 14.6875 14.070312 14.59375 L 14.070312 13.503906 Z M 13.496094 13.503906 "/>
<path style=" stroke:none;fill-rule:nonzero;fill:rgb(0%,0%,0%);fill-opacity:1;" d="M 17.097656 15.402344 L 17.503906 14.160156 L 17.914062 15.402344 Z M 17.175781 13.503906 L 16.113281 16.425781 L 16.726562 16.425781 L 16.933594 15.839844 L 18.078125 15.839844 L 18.28125 16.425781 L 18.894531 16.425781 L 17.832031 13.503906 Z M 17.175781 13.503906 "/>
<path style=" stroke:none;fill-rule:nonzero;fill:rgb(0%,0%,0%);fill-opacity:1;" d="M 20.402344 13.429688 C 19.949219 13.441406 19.617188 13.589844 19.394531 13.878906 C 19.175781 14.167969 19.066406 14.527344 19.066406 14.964844 C 19.066406 15.398438 19.175781 15.761719 19.394531 16.050781 C 19.617188 16.339844 19.949219 16.488281 20.402344 16.5 C 20.710938 16.496094 20.960938 16.421875 21.152344 16.273438 C 21.339844 16.128906 21.488281 15.9375 21.585938 15.695312 L 21.039062 15.511719 C 20.976562 15.695312 20.894531 15.824219 20.785156 15.90625 C 20.679688 15.984375 20.550781 16.027344 20.402344 16.023438 C 20.171875 16.019531 19.984375 15.925781 19.84375 15.742188 C 19.699219 15.554688 19.628906 15.296875 19.621094 14.964844 C 19.628906 14.632812 19.699219 14.375 19.84375 14.1875 C 19.984375 14 20.171875 13.90625 20.402344 13.902344 C 20.550781 13.902344 20.679688 13.941406 20.785156 14.023438 C 20.894531 14.105469 20.976562 14.234375 21.039062 14.414062 L 21.585938 14.234375 C 21.488281 13.992188 21.339844 13.796875 21.152344 13.652344 C 20.960938 13.507812 20.710938 13.433594 20.402344 13.429688 Z M 20.402344 13.429688 "/>
<path style=" stroke:none;fill-rule:nonzero;fill:rgb(0%,0%,0%);fill-opacity:1;" d="M 21.707031 16.425781 L 23.957031 16.425781 L 23.957031 17.011719 L 24.449219 17.011719 L 24.449219 15.988281 L 24.082031 15.988281 L 24.082031 13.503906 L 23.507812 13.503906 L 23.507812 15.988281 L 22.28125 15.988281 L 22.28125 13.503906 L 21.707031 13.503906 Z M 21.707031 16.425781 "/>
<path style=" stroke:none;fill-rule:nonzero;fill:rgb(0%,0%,0%);fill-opacity:1;" d="M 27.226562 16.425781 L 27.800781 16.425781 L 27.800781 13.503906 L 27.226562 13.503906 Z M 24.6875 16.425781 L 25.875 16.425781 C 26.28125 16.410156 26.566406 16.296875 26.734375 16.089844 C 26.902344 15.878906 26.984375 15.675781 26.980469 15.476562 C 26.988281 15.28125 26.921875 15.09375 26.777344 14.917969 C 26.632812 14.742188 26.359375 14.648438 25.957031 14.636719 L 25.261719 14.636719 L 25.261719 13.503906 L 24.6875 13.503906 Z M 25.261719 15.988281 L 25.261719 15.074219 L 25.835938 15.074219 C 26.019531 15.074219 26.160156 15.117188 26.257812 15.203125 C 26.355469 15.285156 26.40625 15.402344 26.40625 15.546875 C 26.40625 15.695312 26.355469 15.804688 26.257812 15.878906 C 26.160156 15.949219 26.019531 15.988281 25.835938 15.988281 Z M 25.261719 15.988281 "/>
<path style=" stroke:none;fill-rule:nonzero;fill:rgb(0%,0%,0%);fill-opacity:1;" d="M 13.386719 3.355469 L 13.386719 6.277344 L 13.960938 6.277344 L 13.960938 4.941406 C 13.964844 4.941406 13.996094 4.9375 14.050781 4.933594 C 14.109375 4.929688 14.160156 4.925781 14.207031 4.925781 C 14.328125 4.925781 14.429688 4.957031 14.511719 5.023438 C 14.59375 5.085938 14.667969 5.175781 14.738281 5.292969 C 14.847656 5.464844 14.964844 5.648438 15.09375 5.839844 C 15.222656 6.03125 15.316406 6.175781 15.375 6.277344 L 16.089844 6.277344 C 15.945312 6.171875 15.816406 6.03125 15.703125 5.847656 C 15.585938 5.667969 15.46875 5.480469 15.351562 5.292969 C 15.257812 5.128906 15.160156 4.992188 15.0625 4.875 C 14.960938 4.761719 14.8125 4.691406 14.617188 4.667969 C 14.699219 4.660156 14.792969 4.597656 14.902344 4.484375 C 15.011719 4.367188 15.105469 4.257812 15.1875 4.15625 C 15.269531 4.050781 15.347656 3.964844 15.421875 3.898438 C 15.496094 3.828125 15.609375 3.792969 15.761719 3.792969 L 15.636719 3.28125 C 15.359375 3.320312 15.136719 3.433594 14.96875 3.625 C 14.800781 3.816406 14.648438 4 14.507812 4.179688 C 14.367188 4.359375 14.199219 4.453125 14 4.457031 C 13.988281 4.457031 13.980469 4.453125 13.976562 4.453125 C 13.96875 4.449219 13.964844 4.449219 13.960938 4.445312 L 13.960938 3.355469 Z M 13.386719 3.355469 "/>
<path style=" stroke:none;fill-rule:nonzero;fill:rgb(0%,0%,0%);fill-opacity:1;" d="M 16.578125 6.261719 C 16.597656 6.269531 16.628906 6.277344 16.675781 6.28125 C 16.71875 6.285156 16.785156 6.289062 16.863281 6.289062 C 17.015625 6.285156 17.164062 6.238281 17.316406 6.148438 C 17.464844 6.058594 17.574219 5.941406 17.640625 5.804688 L 18.707031 3.355469 L 18.09375 3.355469 L 17.4375 4.890625 L 16.660156 3.355469 L 16.046875 3.355469 C 16.050781 3.363281 16.109375 3.472656 16.222656 3.679688 C 16.332031 3.890625 16.464844 4.132812 16.609375 4.410156 C 16.757812 4.6875 16.886719 4.9375 16.996094 5.15625 C 17.109375 5.378906 17.167969 5.507812 17.175781 5.546875 C 17.171875 5.605469 17.132812 5.667969 17.054688 5.734375 C 16.980469 5.800781 16.886719 5.835938 16.78125 5.839844 C 16.699219 5.835938 16.621094 5.832031 16.558594 5.820312 C 16.492188 5.808594 16.457031 5.804688 16.457031 5.804688 Z M 16.578125 6.261719 "/>
<path style=" stroke:none;fill-rule:nonzero;fill:rgb(0%,0%,0%);fill-opacity:1;" d="M 18.914062 6.277344 L 20.097656 6.277344 C 20.503906 6.265625 20.796875 6.164062 20.980469 5.976562 C 21.160156 5.789062 21.25 5.597656 21.246094 5.402344 C 21.253906 5.203125 21.175781 5.011719 21.019531 4.824219 C 20.863281 4.636719 20.582031 4.539062 20.179688 4.523438 L 19.484375 4.523438 L 19.484375 3.792969 L 21 3.792969 L 21 3.355469 L 18.914062 3.355469 Z M 19.484375 5.839844 L 19.484375 4.960938 L 20.058594 4.960938 C 20.246094 4.960938 20.394531 5 20.503906 5.070312 C 20.613281 5.144531 20.671875 5.253906 20.671875 5.402344 C 20.671875 5.546875 20.613281 5.65625 20.503906 5.730469 C 20.394531 5.804688 20.246094 5.839844 20.058594 5.839844 Z M 19.484375 5.839844 "/>
<path style=" stroke:none;fill-rule:nonzero;fill:rgb(0%,0%,0%);fill-opacity:1;" d="M 23.984375 6.277344 L 23.984375 3.355469 L 23.367188 3.355469 L 22.183594 5.363281 L 22.183594 3.355469 L 21.609375 3.355469 L 21.609375 6.277344 L 22.222656 6.277344 L 23.410156 4.269531 L 23.410156 6.277344 Z M 23.984375 6.277344 "/>
<path style=" stroke:none;fill-rule:nonzero;fill:rgb(0%,0%,0%);fill-opacity:1;" d="M 24.429688 6.277344 L 25.003906 6.277344 L 25.003906 4.960938 L 26.230469 4.960938 L 26.230469 6.277344 L 26.804688 6.277344 L 26.804688 3.355469 L 26.230469 3.355469 L 26.230469 4.523438 L 25.003906 4.523438 L 25.003906 3.355469 L 24.429688 3.355469 Z M 24.429688 6.277344 "/>
<path style=" stroke:none;fill-rule:nonzero;fill:rgb(0%,0%,0%);fill-opacity:1;" d="M 27.210938 3.355469 L 27.210938 6.277344 L 27.785156 6.277344 L 27.785156 4.941406 C 27.789062 4.941406 27.820312 4.9375 27.878906 4.933594 C 27.933594 4.929688 27.984375 4.925781 28.03125 4.925781 C 28.152344 4.925781 28.253906 4.957031 28.335938 5.023438 C 28.417969 5.085938 28.492188 5.175781 28.5625 5.292969 C 28.671875 5.464844 28.792969 5.648438 28.917969 5.839844 C 29.046875 6.03125 29.140625 6.175781 29.199219 6.277344 L 29.914062 6.277344 C 29.773438 6.171875 29.644531 6.03125 29.527344 5.847656 C 29.410156 5.667969 29.292969 5.480469 29.175781 5.292969 C 29.082031 5.128906 28.988281 4.992188 28.886719 4.875 C 28.785156 4.761719 28.636719 4.691406 28.441406 4.667969 C 28.523438 4.660156 28.621094 4.597656 28.726562 4.484375 C 28.835938 4.367188 28.929688 4.257812 29.011719 4.15625 C 29.09375 4.050781 29.171875 3.964844 29.246094 3.898438 C 29.320312 3.828125 29.433594 3.792969 29.585938 3.792969 L 29.464844 3.28125 C 29.183594 3.320312 28.960938 3.433594 28.792969 3.625 C 28.625 3.816406 28.472656 4 28.332031 4.179688 C 28.191406 4.359375 28.023438 4.453125 27.828125 4.457031 C 27.816406 4.457031 27.804688 4.453125 27.800781 4.453125 C 27.796875 4.449219 27.789062 4.449219 27.785156 4.445312 L 27.785156 3.355469 Z M 27.210938 3.355469 "/>
<path style=" stroke:none;fill-rule:nonzero;fill:rgb(0%,0%,0%);fill-opacity:1;" d="M 30.933594 5.253906 L 31.34375 4.011719 L 31.753906 5.253906 Z M 31.015625 3.355469 L 29.953125 6.277344 L 30.566406 6.277344 L 30.769531 5.691406 L 31.917969 5.691406 L 32.121094 6.277344 L 32.734375 6.277344 L 31.671875 3.355469 Z M 31.015625 3.355469 "/>
<path style=" stroke:none;fill-rule:nonzero;fill:rgb(0%,0%,0%);fill-opacity:1;" d="M 13.628906 39.988281 L 14.816406 39.988281 C 15.222656 39.976562 15.515625 39.875 15.695312 39.6875 C 15.875 39.5 15.964844 39.308594 15.960938 39.113281 C 15.96875 38.917969 15.894531 38.722656 15.734375 38.539062 C 15.578125 38.351562 15.300781 38.25 14.898438 38.234375 L 14.199219 38.234375 L 14.199219 37.503906 L 15.714844 37.503906 L 15.714844 37.066406 L 13.628906 37.066406 Z M 14.199219 39.550781 L 14.199219 38.675781 L 14.773438 38.675781 C 14.960938 38.675781 15.109375 38.710938 15.21875 38.785156 C 15.328125 38.855469 15.386719 38.964844 15.386719 39.113281 C 15.386719 39.257812 15.328125 39.367188 15.21875 39.441406 C 15.109375 39.515625 14.960938 39.550781 14.773438 39.550781 Z M 14.199219 39.550781 "/>
<path style=" stroke:none;fill-rule:nonzero;fill:rgb(0%,0%,0%);fill-opacity:1;" d="M 17.136719 38.964844 L 17.546875 37.722656 L 17.953125 38.964844 Z M 17.21875 37.066406 L 16.152344 39.988281 L 16.765625 39.988281 L 16.972656 39.40625 L 18.117188 39.40625 L 18.324219 39.988281 L 18.9375 39.988281 L 17.871094 37.066406 Z M 17.21875 37.066406 "/>
<path style=" stroke:none;fill-rule:nonzero;fill:rgb(0%,0%,0%);fill-opacity:1;" d="M 19.210938 39.988281 L 20.398438 39.988281 C 20.804688 39.976562 21.097656 39.875 21.277344 39.6875 C 21.457031 39.5 21.546875 39.308594 21.542969 39.113281 C 21.550781 38.917969 21.476562 38.722656 21.316406 38.539062 C 21.160156 38.351562 20.882812 38.25 20.480469 38.234375 L 19.78125 38.234375 L 19.78125 37.503906 L 21.296875 37.503906 L 21.296875 37.066406 L 19.210938 37.066406 Z M 19.78125 39.550781 L 19.78125 38.675781 L 20.355469 38.675781 C 20.542969 38.675781 20.691406 38.710938 20.800781 38.785156 C 20.910156 38.855469 20.96875 38.964844 20.96875 39.113281 C 20.96875 39.257812 20.910156 39.367188 20.800781 39.441406 C 20.691406 39.515625 20.542969 39.550781 20.355469 39.550781 Z M 19.78125 39.550781 "/>
<path style=" stroke:none;fill-rule:nonzero;fill:rgb(0%,0%,0%);fill-opacity:1;" d="M 24.230469 39.988281 L 24.230469 37.066406 L 23.617188 37.066406 L 22.429688 39.078125 L 22.429688 37.066406 L 21.859375 37.066406 L 21.859375 39.988281 L 22.472656 39.988281 L 23.660156 37.980469 L 23.660156 39.988281 Z M 24.230469 39.988281 "/>
<path style=" stroke:none;fill-rule:nonzero;fill:rgb(0%,0%,0%);fill-opacity:1;" d="M 24.632812 39.988281 L 25.207031 39.988281 L 25.207031 38.675781 L 26.433594 38.675781 L 26.433594 39.988281 L 27.007812 39.988281 L 27.007812 37.066406 L 26.433594 37.066406 L 26.433594 38.234375 L 25.207031 38.234375 L 25.207031 37.066406 L 24.632812 37.066406 Z M 24.632812 39.988281 "/>
<path style=" stroke:none;fill-rule:nonzero;fill:rgb(0%,0%,0%);fill-opacity:1;" d="M 28.59375 36.992188 C 28.144531 37.003906 27.808594 37.152344 27.589844 37.441406 C 27.367188 37.730469 27.257812 38.09375 27.261719 38.527344 C 27.257812 38.960938 27.367188 39.324219 27.589844 39.613281 C 27.808594 39.902344 28.144531 40.050781 28.59375 40.0625 C 29.042969 40.050781 29.378906 39.902344 29.597656 39.613281 C 29.816406 39.324219 29.925781 38.960938 29.925781 38.527344 C 29.925781 38.09375 29.816406 37.730469 29.597656 37.441406 C 29.378906 37.152344 29.042969 37.003906 28.59375 36.992188 Z M 28.59375 37.46875 C 28.824219 37.472656 29.007812 37.566406 29.152344 37.75 C 29.292969 37.9375 29.367188 38.195312 29.371094 38.527344 C 29.367188 38.859375 29.292969 39.117188 29.152344 39.304688 C 29.007812 39.492188 28.824219 39.585938 28.59375 39.589844 C 28.363281 39.585938 28.179688 39.492188 28.035156 39.304688 C 27.894531 39.117188 27.820312 38.859375 27.816406 38.527344 C 27.820312 38.195312 27.894531 37.9375 28.035156 37.75 C 28.179688 37.566406 28.363281 37.472656 28.59375 37.46875 Z M 28.59375 37.46875 "/>
</g>
</svg>
