<?xml version="1.0" encoding="UTF-8"?>
<svg xmlns="http://www.w3.org/2000/svg" xmlns:xlink="http://www.w3.org/1999/xlink" width="35px" height="35px" viewBox="0 0 35 11" version="1.1">
<g id="surface1">
<path style=" stroke:none;fill-rule:nonzero;fill:rgb(100%,100%,100%);fill-opacity:1;" d="M 1.5 0 L 33.5 0 C 34.328125 0 35 0.632812 35 1.414062 L 35 9.585938 C 35 10.367188 34.328125 11 33.5 11 L 1.5 11 C 0.671875 11 0 10.367188 0 9.585938 L 0 1.414062 C 0 0.632812 0.671875 0 1.5 0 Z M 1.5 0 "/>
<path style=" stroke:none;fill-rule:nonzero;fill:rgb(100%,80%,0%);fill-opacity:1;" d="M 33.5 0.628906 L 1.5 0.628906 C 1.039062 0.628906 0.667969 0.980469 0.667969 1.414062 L 0.667969 9.585938 C 0.667969 10.019531 1.039062 10.371094 1.5 10.371094 L 33.5 10.371094 C 33.960938 10.371094 34.332031 10.019531 34.332031 9.585938 L 34.332031 1.414062 C 34.332031 0.980469 33.960938 0.628906 33.5 0.628906 Z M 33.5 0.628906 "/>
<path style="fill:none;stroke-width:2;stroke-linecap:butt;stroke-linejoin:miter;stroke:rgb(0%,0%,0%);stroke-opacity:1;stroke-miterlimit:4;" d="M 45 703.356498 L 1005 703.356498 C 1029.257812 703.356498 1048.945312 723.118572 1048.945312 747.355078 L 1048.945312 1007.369282 C 1048.945312 1031.605788 1029.257812 1051.367862 1005 1051.367862 L 45 1051.367862 C 20.742188 1051.367862 1.054688 1031.605788 1.054688 1007.369282 L 1.054688 747.355078 C 1.054688 723.118572 20.742188 703.356498 45 703.356498 Z M 45 703.356498 " transform="matrix(0.0333333,0,0,0.0314286,0,-22.07424)"/>
<path style=" stroke:none;fill-rule:nonzero;fill:rgb(0%,0%,0%);fill-opacity:1;" d="M 1.5 0.3125 C 0.855469 0.3125 0.332031 0.804688 0.332031 1.414062 L 0.332031 9.585938 C 0.332031 10.195312 0.855469 10.6875 1.5 10.6875 L 33.5 10.6875 C 34.144531 10.6875 34.667969 10.195312 34.667969 9.585938 L 34.667969 1.414062 C 34.667969 0.804688 34.144531 0.3125 33.5 0.3125 Z M 1.5 0.628906 L 33.5 0.628906 C 33.960938 0.628906 34.332031 0.980469 34.332031 1.414062 L 34.332031 9.585938 C 34.332031 10.019531 33.960938 10.371094 33.5 10.371094 L 1.5 10.371094 C 1.039062 10.371094 0.667969 10.019531 0.667969 9.585938 L 0.667969 1.414062 C 0.667969 0.980469 1.039062 0.628906 1.5 0.628906 Z M 1.5 0.628906 "/>
<path style=" stroke:none;fill-rule:nonzero;fill:rgb(0%,0%,0%);fill-opacity:1;" d="M 7.390625 6.601562 L 7.390625 8.25 L 2.332031 5.5 L 7.390625 2.75 L 7.390625 4.398438 L 11.082031 4.398438 L 11.082031 6.601562 Z M 7.390625 6.601562 "/>
<path style=" stroke:none;fill-rule:nonzero;fill:rgb(0%,0%,0%);fill-opacity:1;" d="M 13.925781 4.027344 C 13.527344 4.035156 13.203125 4.167969 12.953125 4.433594 C 12.707031 4.695312 12.578125 5.050781 12.570312 5.5 C 12.578125 5.949219 12.707031 6.304688 12.953125 6.566406 C 13.203125 6.832031 13.527344 6.96875 13.925781 6.972656 C 14.324219 6.96875 14.644531 6.832031 14.894531 6.566406 C 15.144531 6.304688 15.269531 5.949219 15.277344 5.5 C 15.269531 5.050781 15.144531 4.695312 14.894531 4.433594 C 14.644531 4.167969 14.324219 4.035156 13.925781 4.027344 Z M 13.925781 4.519531 C 14.136719 4.523438 14.3125 4.613281 14.445312 4.789062 C 14.578125 4.964844 14.648438 5.203125 14.652344 5.5 C 14.648438 5.800781 14.578125 6.035156 14.445312 6.210938 C 14.3125 6.386719 14.136719 6.476562 13.925781 6.480469 C 13.710938 6.476562 13.539062 6.386719 13.402344 6.210938 C 13.269531 6.035156 13.199219 5.800781 13.195312 5.5 C 13.199219 5.203125 13.269531 4.964844 13.402344 4.789062 C 13.539062 4.613281 13.710938 4.523438 13.925781 4.519531 Z M 13.925781 4.519531 "/>
<path style=" stroke:none;fill-rule:nonzero;fill:rgb(0%,0%,0%);fill-opacity:1;" d="M 18.761719 2.851562 C 18.757812 2.855469 18.710938 2.871094 18.609375 2.898438 C 18.511719 2.925781 18.371094 2.945312 18.1875 2.949219 L 17.457031 2.949219 C 17.03125 2.957031 16.710938 3.066406 16.503906 3.277344 C 16.292969 3.492188 16.15625 3.746094 16.089844 4.046875 C 16.023438 4.347656 15.996094 4.636719 16 4.910156 C 15.996094 5.230469 16.035156 5.546875 16.109375 5.859375 C 16.1875 6.175781 16.328125 6.4375 16.53125 6.644531 C 16.738281 6.855469 17.027344 6.964844 17.40625 6.972656 C 17.851562 6.957031 18.1875 6.804688 18.414062 6.519531 C 18.644531 6.234375 18.757812 5.910156 18.761719 5.550781 C 18.75 5.082031 18.625 4.726562 18.382812 4.488281 C 18.140625 4.246094 17.832031 4.128906 17.457031 4.125 C 17.199219 4.132812 17 4.191406 16.859375 4.296875 C 16.71875 4.402344 16.625 4.511719 16.574219 4.617188 C 16.578125 4.335938 16.65625 4.089844 16.800781 3.875 C 16.949219 3.660156 17.132812 3.546875 17.355469 3.535156 L 18.136719 3.535156 C 18.191406 3.535156 18.253906 3.53125 18.324219 3.519531 C 18.398438 3.511719 18.457031 3.5 18.5 3.488281 Z M 17.40625 4.617188 C 17.570312 4.613281 17.722656 4.683594 17.863281 4.824219 C 18 4.96875 18.074219 5.210938 18.082031 5.550781 C 18.074219 5.890625 18 6.128906 17.863281 6.273438 C 17.722656 6.417969 17.570312 6.488281 17.40625 6.480469 C 17.265625 6.488281 17.121094 6.417969 16.96875 6.273438 C 16.820312 6.128906 16.742188 5.890625 16.730469 5.550781 C 16.742188 5.210938 16.820312 4.96875 16.96875 4.824219 C 17.121094 4.683594 17.265625 4.613281 17.40625 4.617188 Z M 17.40625 4.617188 "/>
<path style=" stroke:none;fill-rule:nonzero;fill:rgb(0%,0%,0%);fill-opacity:1;" d="M 19.28125 4.125 L 19.28125 4.664062 L 19.957031 4.664062 L 19.957031 6.875 L 21.257812 6.875 C 21.621094 6.867188 21.882812 6.773438 22.042969 6.597656 C 22.203125 6.425781 22.28125 6.222656 22.277344 5.992188 C 22.28125 5.761719 22.203125 5.558594 22.042969 5.382812 C 21.882812 5.210938 21.621094 5.117188 21.257812 5.109375 L 20.582031 5.109375 L 20.582031 4.125 Z M 20.582031 5.648438 L 21.3125 5.648438 C 21.417969 5.652344 21.503906 5.6875 21.570312 5.757812 C 21.640625 5.828125 21.671875 5.90625 21.675781 5.992188 C 21.671875 6.078125 21.640625 6.152344 21.570312 6.222656 C 21.503906 6.292969 21.417969 6.332031 21.3125 6.335938 L 20.582031 6.335938 Z M 20.582031 5.648438 "/>
<path style=" stroke:none;fill-rule:nonzero;fill:rgb(0%,0%,0%);fill-opacity:1;" d="M 24.257812 4.519531 C 24.417969 4.519531 24.570312 4.578125 24.710938 4.699219 C 24.851562 4.820312 24.925781 4.957031 24.933594 5.109375 C 24.933594 5.132812 24.929688 5.15625 24.921875 5.175781 C 24.914062 5.195312 24.902344 5.203125 24.882812 5.207031 L 23.582031 5.207031 C 23.589844 4.964844 23.660156 4.789062 23.792969 4.683594 C 23.929688 4.578125 24.082031 4.523438 24.257812 4.519531 Z M 25.457031 5.695312 C 25.5 5.695312 25.539062 5.664062 25.566406 5.605469 C 25.597656 5.546875 25.609375 5.480469 25.613281 5.402344 C 25.601562 5.023438 25.464844 4.703125 25.207031 4.4375 C 24.949219 4.175781 24.632812 4.039062 24.257812 4.027344 C 24.058594 4.03125 23.859375 4.074219 23.667969 4.164062 C 23.480469 4.25 23.316406 4.371094 23.1875 4.519531 C 23.082031 4.640625 23.003906 4.78125 22.960938 4.941406 C 22.914062 5.101562 22.890625 5.289062 22.890625 5.5 C 22.894531 5.949219 23.042969 6.304688 23.328125 6.566406 C 23.613281 6.832031 23.957031 6.96875 24.363281 6.972656 C 24.546875 6.972656 24.734375 6.921875 24.925781 6.820312 C 25.121094 6.714844 25.308594 6.554688 25.492188 6.335938 L 24.988281 6.0625 C 24.886719 6.183594 24.789062 6.277344 24.695312 6.339844 C 24.601562 6.402344 24.488281 6.433594 24.363281 6.433594 C 24.214844 6.4375 24.054688 6.390625 23.875 6.285156 C 23.695312 6.179688 23.597656 5.984375 23.582031 5.695312 Z M 25.457031 5.695312 "/>
<path style=" stroke:none;fill-rule:nonzero;fill:rgb(0%,0%,0%);fill-opacity:1;" d="M 27.480469 4.078125 C 27.265625 4.078125 27.074219 4.101562 26.898438 4.144531 C 26.722656 4.1875 26.570312 4.246094 26.4375 4.324219 L 26.722656 4.839844 C 26.8125 4.773438 26.914062 4.714844 27.035156 4.65625 C 27.152344 4.601562 27.300781 4.570312 27.480469 4.566406 C 27.59375 4.566406 27.714844 4.59375 27.84375 4.652344 C 27.972656 4.714844 28.042969 4.816406 28.054688 4.960938 C 28.054688 5.039062 28.027344 5.105469 27.976562 5.164062 C 27.921875 5.222656 27.84375 5.253906 27.742188 5.253906 L 27.324219 5.253906 L 27.324219 5.695312 L 27.742188 5.695312 C 27.871094 5.699219 27.960938 5.742188 28.019531 5.820312 C 28.078125 5.898438 28.105469 5.988281 28.105469 6.089844 C 28.097656 6.214844 28.035156 6.308594 27.921875 6.378906 C 27.808594 6.445312 27.695312 6.480469 27.585938 6.480469 C 27.449219 6.484375 27.285156 6.457031 27.097656 6.402344 C 26.910156 6.347656 26.761719 6.253906 26.648438 6.117188 L 26.261719 6.515625 C 26.425781 6.664062 26.632812 6.777344 26.878906 6.855469 C 27.125 6.933594 27.359375 6.972656 27.585938 6.972656 C 27.921875 6.976562 28.203125 6.910156 28.429688 6.777344 C 28.65625 6.644531 28.773438 6.429688 28.78125 6.136719 C 28.773438 5.921875 28.703125 5.761719 28.574219 5.660156 C 28.445312 5.554688 28.3125 5.492188 28.171875 5.472656 C 28.300781 5.4375 28.414062 5.359375 28.515625 5.246094 C 28.617188 5.128906 28.671875 4.988281 28.675781 4.8125 C 28.671875 4.578125 28.566406 4.394531 28.351562 4.269531 C 28.140625 4.140625 27.847656 4.078125 27.480469 4.078125 Z M 27.480469 4.078125 "/>
<path style=" stroke:none;fill-rule:nonzero;fill:rgb(0%,0%,0%);fill-opacity:1;" d="M 29.941406 4.125 C 29.941406 4.613281 29.902344 5.03125 29.824219 5.386719 C 29.746094 5.738281 29.644531 6.054688 29.511719 6.335938 L 29.214844 6.335938 L 29.214844 7.464844 L 29.839844 7.464844 L 29.839844 6.875 L 31.816406 6.875 L 31.816406 7.464844 L 32.390625 7.464844 L 32.390625 6.335938 L 32.023438 6.335938 L 32.023438 4.125 Z M 30.566406 4.664062 L 31.402344 4.664062 L 31.402344 6.335938 L 30.1875 6.335938 C 30.316406 6.089844 30.402344 5.820312 30.457031 5.527344 C 30.507812 5.230469 30.546875 4.945312 30.566406 4.664062 Z M 30.566406 4.664062 "/>
</g>
</svg>
