<?xml version="1.0" encoding="UTF-8"?>
<svg xmlns="http://www.w3.org/2000/svg" xmlns:xlink="http://www.w3.org/1999/xlink" width="35px" height="35px" viewBox="0 0 35 11" version="1.1">
<g id="surface1">
<path style=" stroke:none;fill-rule:nonzero;fill:rgb(100%,100%,100%);fill-opacity:1;" d="M 1.5 0 L 33.5 0 C 34.328125 0 35 0.632812 35 1.414062 L 35 9.585938 C 35 10.367188 34.328125 11 33.5 11 L 1.5 11 C 0.671875 11 0 10.367188 0 9.585938 L 0 1.414062 C 0 0.632812 0.671875 0 1.5 0 Z M 1.5 0 "/>
<path style=" stroke:none;fill-rule:nonzero;fill:rgb(100%,80%,0%);fill-opacity:1;" d="M 33.5 0.628906 L 1.5 0.628906 C 1.039062 0.628906 0.667969 0.980469 0.667969 1.414062 L 0.667969 9.585938 C 0.667969 10.019531 1.039062 10.371094 1.5 10.371094 L 33.5 10.371094 C 33.960938 10.371094 34.332031 10.019531 34.332031 9.585938 L 34.332031 1.414062 C 34.332031 0.980469 33.960938 0.628906 33.5 0.628906 Z M 33.5 0.628906 "/>
<path style="fill:none;stroke-width:2;stroke-linecap:butt;stroke-linejoin:miter;stroke:rgb(0%,0%,0%);stroke-opacity:1;stroke-miterlimit:4;" d="M 45 703.356498 L 1005 703.356498 C 1029.257812 703.356498 1048.945312 723.118572 1048.945312 747.355078 L 1048.945312 1007.369282 C 1048.945312 1031.605788 1029.257812 1051.367862 1005 1051.367862 L 45 1051.367862 C 20.742188 1051.367862 1.054688 1031.605788 1.054688 1007.369282 L 1.054688 747.355078 C 1.054688 723.118572 20.742188 703.356498 45 703.356498 Z M 45 703.356498 " transform="matrix(0.0333333,0,0,0.0314286,0,-22.07424)"/>
<path style=" stroke:none;fill-rule:nonzero;fill:rgb(0%,0%,0%);fill-opacity:1;" d="M 1.5 0.3125 C 0.855469 0.3125 0.332031 0.804688 0.332031 1.414062 L 0.332031 9.585938 C 0.332031 10.195312 0.855469 10.6875 1.5 10.6875 L 33.5 10.6875 C 34.144531 10.6875 34.667969 10.195312 34.667969 9.585938 L 34.667969 1.414062 C 34.667969 0.804688 34.144531 0.3125 33.5 0.3125 Z M 1.5 0.628906 L 33.5 0.628906 C 33.960938 0.628906 34.332031 0.980469 34.332031 1.414062 L 34.332031 9.585938 C 34.332031 10.019531 33.960938 10.371094 33.5 10.371094 L 1.5 10.371094 C 1.039062 10.371094 0.667969 10.019531 0.667969 9.585938 L 0.667969 1.414062 C 0.667969 0.980469 1.039062 0.628906 1.5 0.628906 Z M 1.5 0.628906 "/>
<path style=" stroke:none;fill-rule:nonzero;fill:rgb(0%,0%,0%);fill-opacity:1;" d="M 12.75 4.027344 C 12.351562 4.035156 12.027344 4.167969 11.78125 4.433594 C 11.53125 4.695312 11.402344 5.050781 11.394531 5.5 C 11.402344 5.949219 11.53125 6.304688 11.78125 6.566406 C 12.027344 6.832031 12.351562 6.96875 12.75 6.972656 C 13.148438 6.96875 13.46875 6.832031 13.71875 6.566406 C 13.96875 6.304688 14.09375 5.949219 14.101562 5.5 C 14.09375 5.050781 13.96875 4.695312 13.71875 4.433594 C 13.46875 4.167969 13.148438 4.035156 12.75 4.027344 Z M 12.75 4.519531 C 12.960938 4.523438 13.136719 4.613281 13.269531 4.789062 C 13.402344 4.964844 13.472656 5.203125 13.476562 5.5 C 13.472656 5.800781 13.402344 6.035156 13.269531 6.210938 C 13.136719 6.386719 12.960938 6.476562 12.75 6.480469 C 12.535156 6.476562 12.363281 6.386719 12.226562 6.210938 C 12.09375 6.035156 12.023438 5.800781 12.019531 5.5 C 12.023438 5.203125 12.09375 4.964844 12.226562 4.789062 C 12.363281 4.613281 12.535156 4.523438 12.75 4.519531 Z M 12.75 4.519531 "/>
<path style=" stroke:none;fill-rule:nonzero;fill:rgb(0%,0%,0%);fill-opacity:1;" d="M 17.585938 2.851562 C 17.582031 2.855469 17.535156 2.871094 17.433594 2.898438 C 17.335938 2.925781 17.195312 2.945312 17.011719 2.949219 L 16.285156 2.949219 C 15.855469 2.957031 15.535156 3.066406 15.328125 3.277344 C 15.117188 3.492188 14.980469 3.746094 14.914062 4.046875 C 14.847656 4.347656 14.820312 4.636719 14.824219 4.910156 C 14.820312 5.230469 14.859375 5.546875 14.933594 5.859375 C 15.011719 6.175781 15.152344 6.4375 15.359375 6.644531 C 15.5625 6.855469 15.851562 6.964844 16.230469 6.972656 C 16.675781 6.957031 17.011719 6.804688 17.238281 6.519531 C 17.46875 6.234375 17.582031 5.910156 17.585938 5.550781 C 17.578125 5.082031 17.449219 4.726562 17.207031 4.488281 C 16.964844 4.246094 16.65625 4.128906 16.285156 4.125 C 16.023438 4.132812 15.824219 4.191406 15.683594 4.296875 C 15.542969 4.402344 15.449219 4.511719 15.398438 4.617188 C 15.402344 4.335938 15.480469 4.089844 15.625 3.875 C 15.773438 3.660156 15.957031 3.546875 16.179688 3.535156 L 16.960938 3.535156 C 17.015625 3.535156 17.078125 3.53125 17.152344 3.519531 C 17.222656 3.511719 17.28125 3.5 17.324219 3.488281 Z M 16.230469 4.617188 C 16.394531 4.613281 16.546875 4.683594 16.6875 4.824219 C 16.824219 4.96875 16.898438 5.210938 16.90625 5.550781 C 16.898438 5.890625 16.824219 6.128906 16.6875 6.273438 C 16.546875 6.417969 16.394531 6.488281 16.230469 6.480469 C 16.089844 6.488281 15.945312 6.417969 15.796875 6.273438 C 15.648438 6.128906 15.566406 5.890625 15.554688 5.550781 C 15.566406 5.210938 15.648438 4.96875 15.796875 4.824219 C 15.945312 4.683594 16.089844 4.613281 16.230469 4.617188 Z M 16.230469 4.617188 "/>
<path style=" stroke:none;fill-rule:nonzero;fill:rgb(0%,0%,0%);fill-opacity:1;" d="M 18.105469 4.125 L 18.105469 4.664062 L 18.78125 4.664062 L 18.78125 6.875 L 20.082031 6.875 C 20.445312 6.867188 20.707031 6.773438 20.867188 6.597656 C 21.027344 6.425781 21.105469 6.222656 21.101562 5.992188 C 21.105469 5.761719 21.027344 5.558594 20.867188 5.382812 C 20.707031 5.210938 20.445312 5.117188 20.082031 5.109375 L 19.40625 5.109375 L 19.40625 4.125 Z M 19.40625 5.648438 L 20.136719 5.648438 C 20.242188 5.652344 20.328125 5.6875 20.394531 5.757812 C 20.464844 5.828125 20.5 5.90625 20.5 5.992188 C 20.5 6.078125 20.464844 6.152344 20.394531 6.222656 C 20.328125 6.292969 20.242188 6.332031 20.136719 6.335938 L 19.40625 6.335938 Z M 19.40625 5.648438 "/>
<path style=" stroke:none;fill-rule:nonzero;fill:rgb(0%,0%,0%);fill-opacity:1;" d="M 23.082031 4.519531 C 23.246094 4.519531 23.394531 4.578125 23.535156 4.699219 C 23.675781 4.820312 23.75 4.957031 23.757812 5.109375 C 23.761719 5.132812 23.753906 5.15625 23.746094 5.175781 C 23.738281 5.195312 23.726562 5.203125 23.707031 5.207031 L 22.40625 5.207031 C 22.414062 4.964844 22.484375 4.789062 22.617188 4.683594 C 22.753906 4.578125 22.910156 4.523438 23.082031 4.519531 Z M 24.28125 5.695312 C 24.324219 5.695312 24.363281 5.664062 24.390625 5.605469 C 24.421875 5.546875 24.4375 5.480469 24.4375 5.402344 C 24.425781 5.023438 24.292969 4.703125 24.03125 4.4375 C 23.773438 4.175781 23.457031 4.039062 23.082031 4.027344 C 22.882812 4.03125 22.683594 4.074219 22.496094 4.164062 C 22.304688 4.25 22.140625 4.371094 22.011719 4.519531 C 21.90625 4.640625 21.828125 4.78125 21.785156 4.941406 C 21.738281 5.101562 21.714844 5.289062 21.714844 5.5 C 21.71875 5.949219 21.867188 6.304688 22.152344 6.566406 C 22.4375 6.832031 22.78125 6.96875 23.1875 6.972656 C 23.371094 6.972656 23.558594 6.921875 23.753906 6.820312 C 23.945312 6.714844 24.132812 6.554688 24.316406 6.335938 L 23.8125 6.0625 C 23.710938 6.183594 23.613281 6.277344 23.519531 6.339844 C 23.425781 6.402344 23.3125 6.433594 23.1875 6.433594 C 23.039062 6.4375 22.878906 6.390625 22.699219 6.285156 C 22.519531 6.179688 22.421875 5.984375 22.40625 5.695312 Z M 24.28125 5.695312 "/>
<path style=" stroke:none;fill-rule:nonzero;fill:rgb(0%,0%,0%);fill-opacity:1;" d="M 26.304688 4.078125 C 26.09375 4.078125 25.898438 4.101562 25.722656 4.144531 C 25.546875 4.1875 25.394531 4.246094 25.261719 4.324219 L 25.546875 4.839844 C 25.636719 4.773438 25.742188 4.714844 25.859375 4.65625 C 25.976562 4.601562 26.125 4.570312 26.304688 4.566406 C 26.417969 4.566406 26.542969 4.59375 26.667969 4.652344 C 26.796875 4.714844 26.867188 4.816406 26.878906 4.960938 C 26.878906 5.039062 26.851562 5.105469 26.800781 5.164062 C 26.746094 5.222656 26.667969 5.253906 26.566406 5.253906 L 26.148438 5.253906 L 26.148438 5.695312 L 26.566406 5.695312 C 26.695312 5.699219 26.789062 5.742188 26.84375 5.820312 C 26.902344 5.898438 26.929688 5.988281 26.929688 6.089844 C 26.921875 6.214844 26.859375 6.308594 26.746094 6.378906 C 26.632812 6.445312 26.523438 6.480469 26.410156 6.480469 C 26.273438 6.484375 26.109375 6.457031 25.921875 6.402344 C 25.738281 6.347656 25.585938 6.253906 25.472656 6.117188 L 25.085938 6.515625 C 25.25 6.664062 25.457031 6.777344 25.703125 6.855469 C 25.949219 6.933594 26.183594 6.972656 26.410156 6.972656 C 26.746094 6.976562 27.027344 6.910156 27.253906 6.777344 C 27.480469 6.644531 27.597656 6.429688 27.605469 6.136719 C 27.597656 5.921875 27.527344 5.761719 27.398438 5.660156 C 27.269531 5.554688 27.136719 5.492188 26.996094 5.472656 C 27.125 5.4375 27.238281 5.359375 27.339844 5.246094 C 27.441406 5.128906 27.496094 4.988281 27.503906 4.8125 C 27.496094 4.578125 27.390625 4.394531 27.175781 4.269531 C 26.964844 4.140625 26.671875 4.078125 26.304688 4.078125 Z M 26.304688 4.078125 "/>
<path style=" stroke:none;fill-rule:nonzero;fill:rgb(0%,0%,0%);fill-opacity:1;" d="M 28.765625 4.125 C 28.765625 4.613281 28.726562 5.03125 28.648438 5.386719 C 28.574219 5.738281 28.46875 6.054688 28.335938 6.335938 L 28.039062 6.335938 L 28.039062 7.464844 L 28.664062 7.464844 L 28.664062 6.875 L 30.640625 6.875 L 30.640625 7.464844 L 31.214844 7.464844 L 31.214844 6.335938 L 30.851562 6.335938 L 30.851562 4.125 Z M 29.390625 4.664062 L 30.226562 4.664062 L 30.226562 6.335938 L 29.011719 6.335938 C 29.140625 6.089844 29.230469 5.820312 29.28125 5.527344 C 29.332031 5.230469 29.371094 4.945312 29.390625 4.664062 Z M 29.390625 4.664062 "/>
<path style=" stroke:none;fill-rule:nonzero;fill:rgb(0%,0%,0%);fill-opacity:1;" d="M 4.667969 5.867188 L 2.917969 5.867188 L 5.832031 1.101562 L 8.75 5.867188 L 7 5.867188 L 7 9.351562 L 4.667969 9.351562 Z M 4.667969 5.867188 "/>
</g>
</svg>
