<?xml version="1.0" encoding="UTF-8"?>
<svg xmlns="http://www.w3.org/2000/svg" xmlns:xlink="http://www.w3.org/1999/xlink" width="35px" height="35px" viewBox="0 0 35 11" version="1.1">
<g id="surface1">
<path style=" stroke:none;fill-rule:nonzero;fill:rgb(100%,100%,100%);fill-opacity:1;" d="M 1.5 0 L 33.5 0 C 34.328125 0 35 0.632812 35 1.414062 L 35 9.585938 C 35 10.367188 34.328125 11 33.5 11 L 1.5 11 C 0.671875 11 0 10.367188 0 9.585938 L 0 1.414062 C 0 0.632812 0.671875 0 1.5 0 Z M 1.5 0 "/>
<path style="fill:none;stroke-width:2;stroke-linecap:butt;stroke-linejoin:miter;stroke:rgb(0%,0%,0%);stroke-opacity:1;stroke-miterlimit:4;" d="M 45 703.356498 L 1005 703.356498 C 1029.257812 703.356498 1048.945312 723.118572 1048.945312 747.355078 L 1048.945312 1007.369282 C 1048.945312 1031.605788 1029.257812 1051.367862 1005 1051.367862 L 45 1051.367862 C 20.742188 1051.367862 1.054688 1031.605788 1.054688 1007.369282 L 1.054688 747.355078 C 1.054688 723.118572 20.742188 703.356498 45 703.356498 Z M 45 703.356498 " transform="matrix(0.0333333,0,0,0.0314286,0,-22.07424)"/>
<path style=" stroke:none;fill-rule:nonzero;fill:rgb(0%,0%,0%);fill-opacity:1;" d="M 1.5 0.3125 C 0.855469 0.3125 0.332031 0.804688 0.332031 1.414062 L 0.332031 9.585938 C 0.332031 10.195312 0.855469 10.6875 1.5 10.6875 L 33.5 10.6875 C 34.144531 10.6875 34.667969 10.195312 34.667969 9.585938 L 34.667969 1.414062 C 34.667969 0.804688 34.144531 0.3125 33.5 0.3125 Z M 1.5 0.628906 L 33.5 0.628906 C 33.960938 0.628906 34.332031 0.980469 34.332031 1.414062 L 34.332031 9.585938 C 34.332031 10.019531 33.960938 10.371094 33.5 10.371094 L 1.5 10.371094 C 1.039062 10.371094 0.667969 10.019531 0.667969 9.585938 L 0.667969 1.414062 C 0.667969 0.980469 1.039062 0.628906 1.5 0.628906 Z M 1.5 0.628906 "/>
<path style=" stroke:none;fill-rule:nonzero;fill:rgb(0%,0%,0%);fill-opacity:1;" d="M 7.785156 1.980469 C 6.898438 2.003906 6.242188 2.34375 5.808594 3.003906 C 5.375 3.660156 5.160156 4.484375 5.160156 5.472656 C 5.160156 6.460938 5.375 7.285156 5.808594 7.941406 C 6.242188 8.601562 6.898438 8.941406 7.785156 8.964844 C 8.390625 8.957031 8.882812 8.789062 9.257812 8.457031 C 9.636719 8.125 9.921875 7.6875 10.117188 7.136719 L 9.039062 6.71875 C 8.917969 7.132812 8.753906 7.429688 8.542969 7.613281 C 8.335938 7.796875 8.082031 7.886719 7.785156 7.886719 C 7.332031 7.878906 6.96875 7.664062 6.6875 7.242188 C 6.40625 6.816406 6.261719 6.226562 6.253906 5.472656 C 6.261719 4.71875 6.40625 4.128906 6.6875 3.703125 C 6.96875 3.28125 7.332031 3.066406 7.785156 3.058594 C 8.082031 3.054688 8.335938 3.148438 8.542969 3.332031 C 8.753906 3.515625 8.917969 3.8125 9.039062 4.226562 L 10.117188 3.808594 C 9.921875 3.257812 9.636719 2.820312 9.257812 2.488281 C 8.882812 2.15625 8.390625 1.988281 7.785156 1.980469 Z M 7.785156 1.980469 "/>
<path style=" stroke:none;fill-rule:nonzero;fill:rgb(0%,0%,0%);fill-opacity:1;" d="M 11.574219 2.144531 L 11.574219 3.144531 L 13.347656 3.144531 L 13.347656 8.800781 L 14.472656 8.800781 L 14.472656 3.144531 L 16.246094 3.144531 L 16.246094 2.144531 Z M 11.574219 2.144531 "/>
<path style=" stroke:none;fill-rule:nonzero;fill:rgb(0%,0%,0%);fill-opacity:1;" d="M 20.34375 1.980469 C 19.457031 2.003906 18.800781 2.34375 18.367188 3.003906 C 17.933594 3.660156 17.71875 4.484375 17.71875 5.472656 C 17.71875 6.460938 17.933594 7.285156 18.367188 7.941406 C 18.800781 8.597656 19.457031 8.941406 20.34375 8.964844 C 21.226562 8.941406 21.886719 8.597656 22.320312 7.941406 C 22.75 7.285156 22.96875 6.460938 22.964844 5.472656 C 22.96875 4.484375 22.75 3.660156 22.320312 3.003906 C 21.886719 2.34375 21.226562 2.003906 20.34375 1.980469 Z M 20.34375 3.058594 C 20.792969 3.066406 21.160156 3.28125 21.441406 3.703125 C 21.71875 4.128906 21.863281 4.71875 21.871094 5.472656 C 21.863281 6.226562 21.71875 6.816406 21.441406 7.242188 C 21.160156 7.664062 20.792969 7.878906 20.34375 7.886719 C 19.890625 7.878906 19.527344 7.664062 19.246094 7.242188 C 18.964844 6.816406 18.820312 6.226562 18.8125 5.472656 C 18.820312 4.71875 18.964844 4.128906 19.246094 3.703125 C 19.527344 3.28125 19.890625 3.066406 20.34375 3.058594 Z M 20.34375 3.058594 "/>
<path style=" stroke:none;fill-rule:nonzero;fill:rgb(0%,0%,0%);fill-opacity:1;" d="M 24.769531 2.144531 L 24.769531 8.800781 L 25.898438 8.800781 L 25.898438 3.144531 L 28.3125 3.144531 L 28.3125 8.800781 L 29.441406 8.800781 L 29.441406 2.144531 Z M 24.769531 2.144531 "/>
</g>
</svg>
