<?xml version="1.0" encoding="UTF-8"?>
<svg xmlns="http://www.w3.org/2000/svg" xmlns:xlink="http://www.w3.org/1999/xlink" width="35px" height="35px" viewBox="0 0 35 46" version="1.1">
<g id="surface1">
<path style=" stroke:none;fill-rule:nonzero;fill:rgb(100%,100%,100%);fill-opacity:1;" d="M 1.050781 0 L 33.949219 0 C 34.53125 0 35 0.464844 35 1.035156 L 35 44.964844 C 35 45.535156 34.53125 46 33.949219 46 L 1.050781 46 C 0.46875 46 0 45.535156 0 44.964844 L 0 1.035156 C 0 0.464844 0.46875 0 1.050781 0 Z M 1.050781 0 "/>
<path style=" stroke:none;fill-rule:nonzero;fill:rgb(100%,80%,0%);fill-opacity:1;" d="M 1.050781 0.460938 L 33.949219 0.460938 C 34.273438 0.460938 34.535156 0.71875 34.535156 1.035156 L 34.535156 44.964844 C 34.535156 45.28125 34.273438 45.539062 33.949219 45.539062 L 1.050781 45.539062 C 0.726562 45.539062 0.464844 45.28125 0.464844 44.964844 L 0.464844 1.035156 C 0.464844 0.71875 0.726562 0.460938 1.050781 0.460938 Z M 1.050781 0.460938 "/>
<path style="fill:none;stroke-width:2;stroke-linecap:butt;stroke-linejoin:miter;stroke:rgb(0%,0%,0%);stroke-opacity:1;stroke-miterlimit:4;" d="M 45.033482 -946.618778 L 1454.966518 -946.618778 C 1479.241071 -946.618778 1498.995536 -926.917691 1498.995536 -902.631007 L 1498.995536 1007.355407 C 1498.995536 1031.642091 1479.241071 1051.343178 1454.966518 1051.343178 L 45.033482 1051.343178 C 20.758929 1051.343178 1.004464 1031.642091 1.004464 1007.355407 L 1.004464 -902.631007 C 1.004464 -926.917691 20.758929 -946.618778 45.033482 -946.618778 Z M 45.033482 -946.618778 " transform="matrix(0.0233333,0,0,0.023,0,21.795669)"/>
<path style=" stroke:none;fill-rule:nonzero;fill:rgb(0%,0%,0%);fill-opacity:1;" d="M 1.050781 0.230469 C 0.597656 0.230469 0.234375 0.589844 0.234375 1.035156 L 0.234375 44.964844 C 0.234375 45.410156 0.597656 45.769531 1.050781 45.769531 L 33.949219 45.769531 C 34.402344 45.769531 34.765625 45.410156 34.765625 44.964844 L 34.765625 1.035156 C 34.765625 0.589844 34.402344 0.230469 33.949219 0.230469 Z M 1.050781 0.460938 L 5.832031 0.460938 L 5.832031 24.4375 L 3.402344 24.4375 L 7.292969 31.082031 L 11.179688 24.4375 L 8.75 24.4375 L 8.75 0.460938 L 15.070312 0.460938 L 15.070312 13.226562 C 15.070312 13.863281 15.589844 14.375 16.238281 14.375 L 18.761719 14.375 C 19.410156 14.375 19.929688 13.863281 19.929688 13.226562 L 19.929688 0.460938 L 33.949219 0.460938 C 34.273438 0.460938 34.535156 0.714844 34.535156 1.035156 L 34.535156 44.964844 C 34.535156 45.285156 34.273438 45.539062 33.949219 45.539062 L 27.707031 45.539062 L 27.707031 32.582031 C 27.707031 31.183594 27.144531 29.84375 26.140625 28.855469 L 18.375 21.199219 L 20.09375 19.503906 L 12.574219 17.515625 L 14.59375 24.925781 L 16.3125 23.230469 L 24.078125 30.890625 C 24.535156 31.339844 24.792969 31.949219 24.792969 32.582031 L 24.792969 45.539062 L 19.929688 45.539062 L 19.929688 32.773438 C 19.929688 32.136719 19.410156 31.625 18.761719 31.625 L 16.238281 31.625 C 15.589844 31.625 15.070312 32.136719 15.070312 32.773438 L 15.070312 45.539062 L 1.050781 45.539062 C 0.726562 45.539062 0.464844 45.285156 0.464844 44.964844 L 0.464844 1.035156 C 0.464844 0.714844 0.726562 0.460938 1.050781 0.460938 Z M 1.050781 0.460938 "/>
<path style=" stroke:none;fill-rule:nonzero;fill:rgb(100%,0%,0%);fill-opacity:1;" d="M 27.222656 5.75 C 24 5.75 21.390625 8.324219 21.390625 11.5 C 21.390625 14.675781 24 17.25 27.222656 17.25 C 30.445312 17.25 33.054688 14.675781 33.054688 11.5 C 33.054688 8.324219 30.445312 5.75 27.222656 5.75 Z M 27.222656 6.722656 C 29.898438 6.722656 32.070312 8.859375 32.070312 11.5 C 32.070312 14.140625 29.898438 16.277344 27.222656 16.277344 C 24.546875 16.277344 22.375 14.140625 22.375 11.5 C 22.375 8.859375 24.546875 6.722656 27.222656 6.722656 Z M 27.222656 6.722656 "/>
<path style=" stroke:none;fill-rule:nonzero;fill:rgb(100%,100%,100%);fill-opacity:1;" d="M 32.070312 11.5 C 32.070312 14.140625 29.898438 16.277344 27.222656 16.277344 C 24.546875 16.277344 22.375 14.140625 22.375 11.5 C 22.375 8.859375 24.546875 6.722656 27.222656 6.722656 C 29.898438 6.722656 32.070312 8.859375 32.070312 11.5 Z M 32.070312 11.5 "/>
</g>
</svg>
