<?xml version="1.0" encoding="UTF-8"?>
<svg xmlns="http://www.w3.org/2000/svg" xmlns:xlink="http://www.w3.org/1999/xlink" width="35px" height="35px" viewBox="0 0 35 52" version="1.1">
<g id="surface1">
<path style=" stroke:none;fill-rule:nonzero;fill:rgb(100%,100%,100%);fill-opacity:1;" d="M 2.625 0 L 32.375 0 C 33.824219 0 35 1.164062 35 2.601562 L 35 49.398438 C 35 50.835938 33.824219 52 32.375 52 L 2.625 52 C 1.175781 52 0 50.835938 0 49.398438 L 0 2.601562 C 0 1.164062 1.175781 0 2.625 0 Z M 2.625 0 "/>
<path style="fill:none;stroke-width:2;stroke-linecap:butt;stroke-linejoin:miter;stroke:rgb(0%,0%,0%);stroke-opacity:1;stroke-miterlimit:4;" d="M 45 153.376303 L 555 153.376303 C 579.308036 153.376303 598.995536 173.050281 598.995536 197.389223 L 598.995536 1007.335137 C 598.995536 1031.674079 579.308036 1051.348057 555 1051.348057 L 45 1051.348057 C 20.691964 1051.348057 1.004464 1031.674079 1.004464 1007.335137 L 1.004464 197.389223 C 1.004464 173.050281 20.691964 153.376303 45 153.376303 Z M 45 153.376303 " transform="matrix(0.0583333,0,0,0.0577778,0,-8.803148)"/>
<path style=" stroke:none;fill-rule:nonzero;fill:rgb(5.098039%,41.176471%,88.235294%);fill-opacity:1;" d="M 24.0625 1.15625 L 24.0625 20.582031 L 33.832031 20.582031 L 33.832031 17.332031 L 32.265625 17.332031 L 32.265625 13 L 33.832031 13 L 33.832031 10.832031 L 32.265625 10.832031 L 32.265625 6.5 L 33.832031 6.5 L 33.832031 4.332031 L 32.265625 4.332031 L 32.265625 1.15625 L 29.53125 1.15625 L 29.53125 4.332031 L 26.25 4.332031 L 26.25 1.15625 Z M 26.25 6.5 L 29.53125 6.5 L 29.53125 10.832031 L 26.25 10.832031 Z M 26.25 13 L 29.53125 13 L 29.53125 17.332031 L 26.25 17.332031 Z M 2.625 1.15625 C 1.816406 1.15625 1.167969 1.800781 1.167969 2.601562 L 1.167969 49.398438 C 1.167969 50.199219 1.816406 50.84375 2.625 50.84375 L 32.375 50.84375 C 33.183594 50.84375 33.832031 50.199219 33.832031 49.398438 L 33.832031 21.667969 L 22.96875 21.667969 L 22.96875 1.15625 Z M 9.359375 6.175781 L 15.796875 6.175781 C 16.050781 6.175781 16.320312 6.367188 16.40625 6.605469 L 16.710938 7.488281 L 17.351562 9.320312 C 17.351562 9.320312 17.351562 9.324219 17.351562 9.324219 L 17.5 9.75 C 17.863281 9.75 18.15625 10.039062 18.15625 10.398438 L 18.15625 13 C 18.15625 13.359375 17.863281 13.648438 17.5 13.648438 L 7.65625 13.648438 C 7.292969 13.648438 7 13.359375 7 13 L 7 10.398438 C 7 10.039062 7.292969 9.75 7.65625 9.75 L 7.804688 9.324219 C 7.804688 9.324219 7.804688 9.320312 7.804688 9.320312 L 8.445312 7.488281 L 8.75 6.605469 C 8.835938 6.367188 9.105469 6.175781 9.359375 6.175781 Z M 9.558594 6.824219 C 9.433594 6.824219 9.296875 6.921875 9.253906 7.039062 L 8.3125 9.75 L 16.84375 9.75 L 15.898438 7.039062 C 15.859375 6.921875 15.722656 6.824219 15.597656 6.824219 Z M 16.515625 10.367188 C 15.972656 10.367188 15.53125 10.804688 15.53125 11.34375 C 15.53125 11.882812 15.972656 12.316406 16.515625 12.316406 C 17.058594 12.316406 17.5 11.882812 17.5 11.34375 C 17.5 10.804688 17.058594 10.367188 16.515625 10.367188 Z M 8.640625 10.398438 C 8.097656 10.398438 7.65625 10.835938 7.65625 11.375 C 7.65625 11.914062 8.097656 12.351562 8.640625 12.351562 C 9.183594 12.351562 9.625 11.914062 9.625 11.375 C 9.625 10.835938 9.183594 10.398438 8.640625 10.398438 Z M 7.65625 13.976562 L 9.625 13.976562 L 9.625 15.273438 C 9.625 15.8125 9.183594 16.25 8.640625 16.25 C 8.097656 16.25 7.65625 15.8125 7.65625 15.273438 Z M 15.53125 13.976562 L 17.5 13.976562 L 17.5 15.273438 C 17.5 15.8125 17.058594 16.25 16.515625 16.25 C 15.972656 16.25 15.53125 15.8125 15.53125 15.273438 Z M 9.949219 22.046875 C 10.425781 22.046875 12.296875 22.472656 12.296875 23.984375 C 12.296875 24.597656 11.898438 25.589844 11.027344 25.589844 C 10.410156 25.589844 8.441406 24.625 8.441406 23.421875 C 8.441406 22.375 9.382812 22.046875 9.949219 22.046875 Z M 9.570312 25.855469 C 9.75 25.855469 9.925781 25.898438 10.085938 25.988281 L 11.414062 26.746094 C 11.574219 26.839844 11.671875 27.007812 11.671875 27.191406 L 11.671875 32.609375 L 14.226562 35.140625 C 14.296875 35.207031 14.34375 35.289062 14.367188 35.382812 L 15.796875 41.046875 C 15.929688 41.5625 15.609375 42.089844 15.085938 42.222656 C 14.5625 42.351562 14.03125 42.035156 13.898438 41.515625 L 12.738281 36.910156 L 8.554688 32.761719 C 8.457031 32.667969 8.402344 32.539062 8.402344 32.40625 L 8.402344 28.128906 L 6.808594 29.039062 L 6.808594 32.3125 C 6.808594 32.734375 6.464844 33.078125 6.039062 33.078125 C 5.609375 33.078125 5.265625 32.734375 5.265625 32.3125 L 5.265625 28.746094 C 5.265625 28.382812 5.460938 28.046875 5.78125 27.863281 L 9.058594 25.988281 C 9.21875 25.898438 9.394531 25.855469 9.570312 25.855469 Z M 12.230469 29.394531 L 15.121094 32.257812 C 15.261719 32.394531 15.347656 32.585938 15.347656 32.796875 C 15.347656 33.21875 15.003906 33.5625 14.578125 33.5625 C 14.363281 33.5625 14.171875 33.476562 14.03125 33.335938 L 12.230469 31.554688 Z M 8.699219 33.628906 L 10.132812 35.046875 L 6.214844 41.765625 L 6.203125 41.757812 C 6.035156 42.050781 5.714844 42.25 5.351562 42.25 C 4.8125 42.25 4.375 41.816406 4.375 41.28125 C 4.375 41.046875 4.460938 40.828125 4.601562 40.660156 Z M 28.820312 34.21875 C 28.835938 34.21875 28.851562 34.21875 28.867188 34.21875 C 28.980469 34.222656 29.097656 34.253906 29.203125 34.3125 C 29.546875 34.507812 29.660156 34.9375 29.464844 35.273438 L 27.355469 38.894531 C 27.238281 39.09375 27.238281 39.34375 27.355469 39.542969 L 28.894531 42.183594 C 29.078125 42.492188 28.96875 42.890625 28.65625 43.070312 L 26.246094 44.449219 L 24.007812 48.289062 C 23.78125 48.679688 23.277344 48.8125 22.886719 48.585938 C 22.496094 48.363281 22.359375 47.867188 22.585938 47.476562 L 25.066406 43.222656 C 25.121094 43.125 25.207031 43.042969 25.304688 42.984375 L 26.265625 42.4375 L 25.144531 40.519531 C 25.027344 40.316406 25.027344 40.070312 25.144531 39.867188 L 28.234375 34.570312 C 28.359375 34.355469 28.585938 34.226562 28.820312 34.21875 Z M 25.089844 35.515625 C 25.816406 35.515625 26.164062 36.066406 26.164062 36.753906 C 26.164062 37.109375 25.738281 38.945312 24.691406 38.945312 C 24.007812 38.945312 23.296875 38.296875 23.296875 37.449219 C 23.296875 36.496094 24.34375 35.515625 25.089844 35.515625 Z M 22.082031 39.601562 C 22.332031 39.59375 22.582031 39.722656 22.714844 39.953125 L 23.546875 41.378906 L 24.742188 40.695312 L 25.453125 41.914062 L 23.59375 42.976562 C 23.28125 43.15625 22.878906 43.050781 22.695312 42.738281 L 21.484375 40.65625 C 21.285156 40.320312 21.402344 39.890625 21.742188 39.695312 C 21.851562 39.632812 21.964844 39.605469 22.082031 39.601562 Z M 28.816406 43.539062 L 29.925781 45.445312 L 31.390625 45.445312 C 31.84375 45.445312 32.210938 45.808594 32.210938 46.257812 C 32.210938 46.707031 31.84375 47.070312 31.390625 47.070312 L 29.359375 47.070312 C 29.125 47.070312 28.90625 46.945312 28.789062 46.746094 L 27.398438 44.351562 Z M 18.59375 45.445312 C 19.5 45.445312 20.234375 46.171875 20.234375 47.070312 C 20.234375 47.96875 19.5 48.695312 18.59375 48.695312 C 17.6875 48.695312 16.953125 47.96875 16.953125 47.070312 C 16.953125 46.171875 17.6875 45.445312 18.59375 45.445312 Z M 18.59375 45.445312 "/>
</g>
</svg>
