<?xml version="1.0" encoding="UTF-8"?>
<svg xmlns="http://www.w3.org/2000/svg" xmlns:xlink="http://www.w3.org/1999/xlink" width="35px" height="35px" viewBox="0 0 35 7" version="1.1">
<g id="surface1">
<path style=" stroke:none;fill-rule:nonzero;fill:rgb(100%,100%,100%);fill-opacity:1;" d="M 0.511719 0 L 34.488281 0 C 34.769531 0 35 0.199219 35 0.449219 L 35 6.550781 C 35 6.800781 34.769531 7.003906 34.488281 7.003906 L 0.511719 7.003906 C 0.230469 7.003906 0 6.800781 0 6.550781 L 0 0.449219 C 0 0.199219 0.230469 0 0.511719 0 Z M 0.511719 0 "/>
<path style=" stroke:none;fill-rule:nonzero;fill:rgb(5.098039%,41.176471%,88.235294%);fill-opacity:1;" d="M 0.511719 0.199219 C 0.355469 0.199219 0.226562 0.3125 0.226562 0.449219 L 0.226562 6.550781 C 0.226562 6.691406 0.355469 6.800781 0.511719 6.800781 L 34.488281 6.800781 C 34.644531 6.800781 34.773438 6.691406 34.773438 6.550781 L 34.773438 0.449219 C 34.773438 0.3125 34.644531 0.199219 34.488281 0.199219 Z M 1.847656 1.015625 L 6.65625 1.015625 C 6.90625 1.015625 7.109375 1.195312 7.109375 1.414062 L 7.109375 5.632812 C 7.109375 5.851562 6.90625 6.027344 6.65625 6.027344 L 1.847656 6.027344 C 1.597656 6.027344 1.394531 5.851562 1.394531 5.632812 L 1.394531 1.414062 C 1.394531 1.195312 1.597656 1.015625 1.847656 1.015625 Z M 29.523438 1.304688 C 30.039062 1.304688 30.285156 1.6875 30.285156 2.160156 C 30.285156 2.632812 30.039062 3.019531 29.523438 3.019531 C 29.011719 3.019531 28.765625 2.632812 28.765625 2.160156 C 28.765625 1.6875 29.011719 1.304688 29.523438 1.304688 Z M 8.273438 1.34375 L 9.625 1.34375 L 9.625 2.980469 L 9.300781 2.980469 L 9.300781 1.589844 L 8.601562 1.589844 L 8.601562 2.980469 L 8.273438 2.980469 Z M 10.414062 1.34375 L 11.578125 1.34375 L 11.578125 2.980469 L 11.253906 2.980469 L 11.253906 1.589844 L 10.738281 1.589844 C 10.738281 1.589844 10.738281 2.203125 10.71875 2.40625 C 10.648438 2.976562 10.089844 3.019531 10.089844 3.019531 L 10.035156 2.746094 C 10.035156 2.746094 10.347656 2.671875 10.390625 2.449219 C 10.414062 2.324219 10.414062 1.710938 10.414062 1.34375 Z M 12.648438 1.34375 L 13.019531 1.34375 L 13.625 2.980469 L 13.277344 2.980469 L 13.160156 2.652344 L 12.507812 2.652344 L 12.390625 2.980469 L 12.042969 2.980469 Z M 13.992188 1.34375 L 15.34375 1.34375 L 15.34375 1.589844 L 14.832031 1.589844 L 14.832031 2.980469 L 14.503906 2.980469 L 14.503906 1.589844 L 13.992188 1.589844 Z M 15.78125 1.34375 L 16.105469 1.34375 L 16.105469 1.996094 L 16.804688 1.996094 L 16.804688 1.34375 L 17.132812 1.34375 L 17.132812 2.980469 L 16.804688 2.980469 L 16.804688 2.242188 L 16.105469 2.242188 L 16.105469 2.980469 L 15.78125 2.980469 Z M 18.199219 1.34375 L 18.570312 1.34375 L 19.175781 2.980469 L 18.828125 2.980469 L 18.710938 2.652344 L 18.058594 2.652344 L 17.941406 2.980469 L 17.59375 2.980469 Z M 20.3125 1.34375 L 20.988281 1.34375 L 20.988281 2.980469 L 20.660156 2.980469 L 20.660156 2.324219 L 20.453125 2.324219 C 20.242188 2.324219 20.191406 2.4375 20.113281 2.574219 C 20.027344 2.722656 19.964844 2.835938 19.871094 2.980469 L 19.472656 2.980469 C 19.539062 2.949219 19.753906 2.589844 19.824219 2.449219 C 19.875 2.34375 20.007812 2.230469 20.101562 2.214844 C 19.871094 2.171875 19.707031 2.019531 19.707031 1.792969 C 19.707031 1.628906 19.847656 1.34375 20.3125 1.34375 Z M 23.390625 1.34375 L 24.484375 1.34375 L 24.484375 2.734375 L 24.695312 2.734375 L 24.695312 3.265625 L 24.414062 3.265625 L 24.414062 2.980469 L 23.25 2.980469 L 23.25 3.265625 L 22.96875 3.265625 L 22.96875 2.734375 L 23.179688 2.734375 C 23.273438 2.527344 23.390625 1.984375 23.390625 1.589844 Z M 25.621094 1.34375 L 25.992188 1.34375 L 26.597656 2.980469 L 26.25 2.980469 L 26.132812 2.652344 L 25.480469 2.652344 L 25.363281 2.980469 L 25.015625 2.980469 Z M 27.058594 1.34375 L 27.6875 1.34375 C 28.128906 1.34375 28.292969 1.652344 28.292969 1.875 C 28.292969 2.101562 28.128906 2.40625 27.6875 2.40625 L 27.382812 2.40625 L 27.382812 2.980469 L 27.058594 2.980469 Z M 30.734375 1.34375 L 31.898438 1.34375 L 31.898438 1.589844 L 31.058594 1.589844 L 31.058594 2.980469 L 30.734375 2.980469 Z M 32.847656 1.34375 L 33.21875 1.34375 L 33.824219 2.980469 L 33.472656 2.980469 L 33.359375 2.652344 L 32.707031 2.652344 L 32.589844 2.980469 L 32.242188 2.980469 Z M 29.523438 1.570312 C 29.269531 1.570312 29.082031 1.792969 29.082031 2.160156 C 29.082031 2.527344 29.269531 2.753906 29.523438 2.753906 C 29.78125 2.753906 29.96875 2.527344 29.96875 2.160156 C 29.96875 1.792969 29.78125 1.570312 29.523438 1.570312 Z M 20.40625 1.589844 C 20.21875 1.589844 20.03125 1.660156 20.03125 1.835938 C 20.03125 2.007812 20.195312 2.078125 20.382812 2.078125 L 20.660156 2.078125 L 20.660156 1.589844 Z M 23.714844 1.589844 C 23.714844 1.976562 23.621094 2.46875 23.496094 2.734375 L 24.160156 2.734375 L 24.160156 1.589844 Z M 27.382812 1.589844 L 27.382812 2.160156 L 27.59375 2.160156 C 27.78125 2.160156 27.964844 2.078125 27.964844 1.875 C 27.964844 1.671875 27.78125 1.589844 27.59375 1.589844 Z M 12.835938 1.710938 L 12.601562 2.40625 L 13.066406 2.40625 Z M 18.386719 1.710938 L 18.152344 2.40625 L 18.617188 2.40625 Z M 25.804688 1.710938 L 25.574219 2.40625 L 26.039062 2.40625 Z M 33.03125 1.710938 L 32.800781 2.40625 L 33.265625 2.40625 Z M 10.644531 4.136719 C 11.15625 4.136719 11.402344 4.519531 11.402344 4.992188 C 11.402344 5.464844 11.15625 5.851562 10.644531 5.851562 C 10.132812 5.851562 9.886719 5.464844 9.886719 4.992188 C 9.886719 4.519531 10.132812 4.136719 10.644531 4.136719 Z M 19.296875 4.136719 C 19.8125 4.136719 20.058594 4.519531 20.058594 4.992188 C 20.058594 5.464844 19.8125 5.851562 19.296875 5.851562 C 18.785156 5.851562 18.539062 5.464844 18.539062 4.992188 C 18.539062 4.519531 18.785156 4.136719 19.296875 4.136719 Z M 8.183594 4.175781 L 9.53125 4.175781 L 9.53125 4.421875 L 9.019531 4.421875 L 9.019531 5.808594 L 8.695312 5.808594 L 8.695312 4.421875 L 8.183594 4.421875 Z M 11.851562 4.175781 L 12.179688 4.175781 L 12.179688 5.566406 L 13.015625 5.566406 L 13.015625 5.808594 L 11.851562 5.808594 Z M 13.457031 4.175781 L 13.78125 4.175781 L 13.78125 5.566406 L 14.621094 5.566406 L 14.621094 5.808594 L 13.457031 5.808594 Z M 16.671875 4.175781 L 17.300781 4.175781 C 17.765625 4.175781 17.882812 4.460938 17.882812 4.625 C 17.882812 4.851562 17.722656 4.992188 17.535156 5.054688 C 17.835938 5.117188 17.929688 5.726562 18.140625 5.808594 L 17.746094 5.808594 C 17.671875 5.726562 17.609375 5.554688 17.523438 5.40625 C 17.441406 5.269531 17.394531 5.15625 17.183594 5.15625 L 17 5.15625 L 17 5.808594 L 16.671875 5.808594 Z M 21.042969 4.175781 L 21.414062 4.175781 L 22.019531 5.808594 L 21.671875 5.808594 L 21.554688 5.484375 L 20.902344 5.484375 L 20.785156 5.808594 L 20.4375 5.808594 Z M 22.480469 4.175781 L 23.109375 4.175781 C 23.621094 4.175781 23.914062 4.519531 23.914062 4.992188 C 23.914062 5.464844 23.621094 5.808594 23.109375 5.808594 L 22.480469 5.808594 Z M 10.644531 4.398438 C 10.386719 4.398438 10.203125 4.625 10.203125 4.992188 C 10.203125 5.359375 10.386719 5.585938 10.644531 5.585938 C 10.902344 5.585938 11.085938 5.359375 11.085938 4.992188 C 11.085938 4.625 10.902344 4.398438 10.644531 4.398438 Z M 19.296875 4.398438 C 19.042969 4.398438 18.855469 4.625 18.855469 4.992188 C 18.855469 5.359375 19.042969 5.585938 19.296875 5.585938 C 19.554688 5.585938 19.742188 5.359375 19.742188 4.992188 C 19.742188 4.625 19.554688 4.398438 19.296875 4.398438 Z M 17 4.421875 L 17 4.910156 L 17.207031 4.910156 C 17.394531 4.910156 17.558594 4.839844 17.558594 4.664062 C 17.558594 4.492188 17.394531 4.421875 17.207031 4.421875 Z M 22.804688 4.421875 L 22.804688 5.566406 L 23.085938 5.566406 C 23.34375 5.566406 23.574219 5.382812 23.574219 4.992188 C 23.574219 4.605469 23.34375 4.421875 23.085938 4.421875 Z M 21.226562 4.542969 L 20.996094 5.238281 L 21.460938 5.238281 Z M 21.226562 4.542969 "/>
<path style=" stroke:none;fill-rule:nonzero;fill:rgb(0%,0%,0%);fill-opacity:1;" d="M 0.511719 0 C 0.230469 0 0 0.199219 0 0.449219 L 0 6.550781 C 0 6.800781 0.230469 7 0.511719 7 L 34.488281 7 C 34.769531 7 35 6.800781 35 6.550781 L 35 0.449219 C 35 0.199219 34.769531 0 34.488281 0 Z M 0.511719 0.0195312 L 34.488281 0.0195312 C 34.757812 0.0195312 34.976562 0.210938 34.976562 0.449219 L 34.976562 6.550781 C 34.976562 6.789062 34.757812 6.980469 34.488281 6.980469 L 0.511719 6.980469 C 0.242188 6.980469 0.0234375 6.789062 0.0234375 6.550781 L 0.0234375 0.449219 C 0.0234375 0.210938 0.242188 0.0195312 0.511719 0.0195312 Z M 0.511719 0.0195312 "/>
<path style=" stroke:none;fill-rule:evenodd;fill:rgb(0%,0%,0%);fill-opacity:1;" d="M 2.835938 1.386719 L 1.757812 5.710938 L 4.125 5.710938 L 4.125 4.6875 L 4.382812 4.6875 L 4.382812 5.710938 L 6.773438 5.710938 L 5.597656 1.386719 Z M 4.125 1.710938 L 4.382812 1.710938 L 4.382812 2.71875 L 4.125 2.71875 Z M 4.125 3.164062 L 4.382812 3.164062 L 4.382812 4.242188 L 4.125 4.242188 Z M 5.425781 4.007812 C 5.429688 4.007812 5.429688 4.007812 5.433594 4.007812 C 5.863281 4.007812 6.210938 4.3125 6.210938 4.691406 C 6.210938 5.066406 5.863281 5.371094 5.433594 5.371094 C 5.003906 5.371094 4.65625 5.066406 4.65625 4.691406 C 4.65625 4.316406 5 4.011719 5.425781 4.007812 Z M 3.125 4.316406 C 3.125 4.316406 3.128906 4.316406 3.128906 4.316406 C 3.460938 4.316406 3.730469 4.554688 3.730469 4.84375 C 3.730469 5.136719 3.460938 5.371094 3.128906 5.371094 C 2.796875 5.371094 2.527344 5.136719 2.527344 4.84375 C 2.527344 4.554688 2.792969 4.320312 3.125 4.316406 Z M 5.722656 4.320312 C 5.554688 4.320312 5.4375 4.480469 5.4375 4.703125 C 5.4375 4.925781 5.554688 5.085938 5.722656 5.085938 C 5.894531 5.085938 6.011719 4.925781 6.011719 4.703125 C 6.011719 4.492188 5.894531 4.320312 5.722656 4.320312 Z M 5.050781 4.328125 L 4.867188 4.503906 L 4.917969 4.558594 L 5.03125 4.496094 L 5.03125 5.078125 L 5.179688 5.078125 L 5.179688 4.328125 Z M 5.722656 4.4375 C 5.804688 4.4375 5.863281 4.515625 5.863281 4.703125 C 5.863281 4.890625 5.804688 4.96875 5.722656 4.96875 C 5.640625 4.96875 5.585938 4.890625 5.585938 4.703125 C 5.585938 4.515625 5.640625 4.4375 5.722656 4.4375 Z M 2.886719 4.476562 L 2.886719 4.84375 L 2.980469 4.890625 C 3.003906 4.878906 3.046875 4.832031 3.109375 4.832031 C 3.207031 4.832031 3.257812 4.910156 3.257812 4.972656 C 3.257812 5.066406 3.152344 5.113281 3.066406 5.113281 C 2.996094 5.113281 2.914062 5.105469 2.863281 5.078125 L 2.886719 5.199219 C 2.886719 5.199219 2.992188 5.234375 3.085938 5.234375 C 3.289062 5.234375 3.417969 5.113281 3.417969 4.964844 C 3.417969 4.816406 3.28125 4.730469 3.164062 4.730469 C 3.113281 4.730469 3.054688 4.738281 3.023438 4.777344 L 3.023438 4.601562 L 3.332031 4.601562 L 3.375 4.476562 Z M 2.886719 4.476562 "/>
</g>
</svg>
