<?xml version="1.0" encoding="UTF-8"?>
<svg xmlns="http://www.w3.org/2000/svg" xmlns:xlink="http://www.w3.org/1999/xlink" width="35px" height="35px" viewBox="0 0 35 35" version="1.1">
<g id="surface1">
<path style=" stroke:none;fill-rule:nonzero;fill:rgb(100%,100%,100%);fill-opacity:1;" d="M 2.25 0 L 32.75 0 C 33.992188 0 35 1.007812 35 2.25 L 35 32.75 C 35 33.992188 33.992188 35 32.75 35 L 2.25 35 C 1.007812 35 0 33.992188 0 32.75 L 0 2.25 C 0 1.007812 1.007812 0 2.25 0 Z M 2.25 0 "/>
<path style="fill:none;stroke-width:2;stroke-linecap:butt;stroke-linejoin:miter;stroke:rgb(0%,0%,0%);stroke-opacity:1;stroke-miterlimit:4;" d="M 45 1.015625 L 655 1.015625 C 679.296875 1.015625 698.984375 20.703125 698.984375 45 L 698.984375 655 C 698.984375 679.296875 679.296875 698.984375 655 698.984375 L 45 698.984375 C 20.703125 698.984375 1.015625 679.296875 1.015625 655 L 1.015625 45 C 1.015625 20.703125 20.703125 1.015625 45 1.015625 Z M 45 1.015625 " transform="matrix(0.05,0,0,0.05,0,0)"/>
<path style=" stroke:none;fill-rule:nonzero;fill:rgb(5.098039%,41.176471%,88.235294%);fill-opacity:1;" d="M 2.25 34 C 1.558594 34 1 33.441406 1 32.75 L 1 2.25 C 1 1.558594 1.558594 1 2.25 1 L 32.75 1 C 33.441406 1 34 1.558594 34 2.25 L 34 32.75 C 34 33.441406 33.441406 34 32.75 34 L 21 34 L 21 19.832031 L 26.832031 19.832031 L 17.5 3.65625 L 8.167969 19.832031 L 14 19.832031 L 14 34 Z M 2.25 34 "/>
<path style=" stroke:none;fill-rule:nonzero;fill:rgb(100%,0%,0%);fill-opacity:1;" d="M 2.25 34 C 1.558594 34 1 33.441406 1 32.75 L 1 31.277344 L 31.277344 1 L 32.75 1 C 33.441406 1 34 1.558594 34 2.25 L 34 3.722656 L 3.722656 34 Z M 2.25 34 "/>
</g>
</svg>
