<?xml version="1.0" encoding="UTF-8"?>
<svg xmlns="http://www.w3.org/2000/svg" xmlns:xlink="http://www.w3.org/1999/xlink" width="35px" height="35px" viewBox="0 0 35 17" version="1.1">
<g id="surface1">
<path style=" stroke:none;fill-rule:nonzero;fill:rgb(100%,100%,100%);fill-opacity:1;" d="M 1.125 0 L 33.875 0 C 34.496094 0 35 0.488281 35 1.09375 L 35 15.90625 C 35 16.511719 34.496094 17 33.875 17 L 1.125 17 C 0.503906 17 0 16.511719 0 15.90625 L 0 1.09375 C 0 0.488281 0.503906 0 1.125 0 Z M 1.125 0 "/>
<path style="fill:none;stroke-width:2;stroke-linecap:butt;stroke-linejoin:miter;stroke:rgb(0%,0%,0%);stroke-opacity:1;stroke-miterlimit:4;" d="M 45 353.327254 L 1355 353.327254 C 1379.375 353.327254 1399.0625 373.111261 1399.0625 397.398945 L 1399.0625 1007.325415 C 1399.0625 1031.613099 1379.375 1051.397106 1355 1051.397106 L 45 1051.397106 C 20.625 1051.397106 0.9375 1031.613099 0.9375 1007.325415 L 0.9375 397.398945 C 0.9375 373.111261 20.625 353.327254 45 353.327254 Z M 45 353.327254 " transform="matrix(0.025,0,0,0.0242857,0,-8.557367)"/>
<path style=" stroke:none;fill-rule:nonzero;fill:rgb(5.098039%,41.176471%,88.235294%);fill-opacity:1;" d="M 1.125 0.484375 C 0.777344 0.484375 0.5 0.757812 0.5 1.09375 L 0.5 15.90625 C 0.5 16.242188 0.777344 16.515625 1.125 16.515625 L 11.667969 16.515625 L 11.667969 14.449219 L 12.25 14.449219 L 12.25 16.515625 L 22.75 16.515625 L 22.75 0.484375 L 18.375 0.484375 L 18.375 11.332031 L 19.832031 11.332031 L 17.5 15.300781 L 15.167969 11.332031 L 16.625 11.332031 L 16.625 0.484375 L 12.25 0.484375 L 12.25 2.550781 L 11.667969 2.550781 L 11.667969 0.484375 L 7 0.484375 L 7 11.332031 L 8.457031 11.332031 L 6.125 15.300781 L 3.792969 11.332031 L 5.25 11.332031 L 5.25 0.484375 Z M 23.332031 0.484375 L 23.332031 16.515625 L 28 16.515625 L 28 5.667969 L 26.542969 5.667969 L 28.875 1.699219 L 31.207031 5.667969 L 29.75 5.667969 L 29.75 16.515625 L 33.875 16.515625 C 34.222656 16.515625 34.5 16.242188 34.5 15.90625 L 34.5 1.09375 C 34.5 0.757812 34.222656 0.484375 33.875 0.484375 Z M 11.667969 3.117188 L 12.25 3.117188 L 12.25 4.816406 L 11.667969 4.816406 Z M 11.667969 5.382812 L 12.25 5.382812 L 12.25 7.082031 L 11.667969 7.082031 Z M 11.667969 7.648438 L 12.25 7.648438 L 12.25 9.351562 L 11.667969 9.351562 Z M 11.667969 9.917969 L 12.25 9.917969 L 12.25 11.617188 L 11.667969 11.617188 Z M 11.667969 12.183594 L 12.25 12.183594 L 12.25 13.882812 L 11.667969 13.882812 Z M 11.667969 12.183594 "/>
</g>
</svg>
