<?xml version="1.0" encoding="UTF-8"?>
<svg xmlns="http://www.w3.org/2000/svg" xmlns:xlink="http://www.w3.org/1999/xlink" width="35px" height="35px" viewBox="0 0 35 17" version="1.1">
<g id="surface1">
<path style=" stroke:none;fill-rule:nonzero;fill:rgb(100%,100%,100%);fill-opacity:1;" d="M 1.125 0 L 33.875 0 C 34.496094 0 35 0.488281 35 1.09375 L 35 15.90625 C 35 16.511719 34.496094 17 33.875 17 L 1.125 17 C 0.503906 17 0 16.511719 0 15.90625 L 0 1.09375 C 0 0.488281 0.503906 0 1.125 0 Z M 1.125 0 "/>
<path style="fill:none;stroke-width:2;stroke-linecap:butt;stroke-linejoin:miter;stroke:rgb(0%,0%,0%);stroke-opacity:1;stroke-miterlimit:4;" d="M 45 353.327254 L 1355 353.327254 C 1379.375 353.327254 1399.0625 373.111261 1399.0625 397.398945 L 1399.0625 1007.325415 C 1399.0625 1031.613099 1379.375 1051.397106 1355 1051.397106 L 45 1051.397106 C 20.625 1051.397106 0.9375 1031.613099 0.9375 1007.325415 L 0.9375 397.398945 C 0.9375 373.111261 20.625 353.327254 45 353.327254 Z M 45 353.327254 " transform="matrix(0.025,0,0,0.0242857,0,-8.557367)"/>
<path style=" stroke:none;fill-rule:nonzero;fill:rgb(5.098039%,41.176471%,88.235294%);fill-opacity:1;" d="M 1.125 0.484375 C 0.777344 0.484375 0.5 0.757812 0.5 1.09375 L 0.5 15.90625 C 0.5 16.242188 0.777344 16.515625 1.125 16.515625 L 11.667969 16.515625 L 11.667969 0.484375 L 7 0.484375 L 7 11.332031 L 8.457031 11.332031 L 6.125 15.300781 L 3.792969 11.332031 L 5.25 11.332031 L 5.25 0.484375 Z M 12.25 0.484375 L 12.25 16.515625 L 16.625 16.515625 L 16.625 12.054688 C 15.441406 11.691406 14.582031 10.617188 14.582031 9.351562 C 14.582031 8.082031 15.441406 7.007812 16.625 6.648438 L 16.625 5.667969 L 15.167969 5.667969 L 17.5 1.699219 L 19.832031 5.667969 L 18.375 5.667969 L 18.375 6.648438 C 19.558594 7.007812 20.417969 8.082031 20.417969 9.351562 C 20.417969 10.617188 19.558594 11.691406 18.375 12.054688 L 18.375 16.515625 L 22.75 16.515625 L 22.75 14.449219 L 23.332031 14.449219 L 23.332031 16.515625 L 28 16.515625 L 28 5.667969 L 26.542969 5.667969 L 28.875 1.699219 L 31.207031 5.667969 L 29.75 5.667969 L 29.75 16.515625 L 33.875 16.515625 C 34.222656 16.515625 34.5 16.242188 34.5 15.90625 L 34.5 1.09375 C 34.5 0.757812 34.222656 0.484375 33.875 0.484375 L 23.332031 0.484375 L 23.332031 2.550781 L 22.75 2.550781 L 22.75 0.484375 Z M 22.75 3.117188 L 23.332031 3.117188 L 23.332031 4.816406 L 22.75 4.816406 Z M 22.75 5.382812 L 23.332031 5.382812 L 23.332031 7.082031 L 22.75 7.082031 Z M 22.75 7.648438 L 23.332031 7.648438 L 23.332031 9.351562 L 22.75 9.351562 Z M 22.75 9.917969 L 23.332031 9.917969 L 23.332031 11.617188 L 22.75 11.617188 Z M 22.75 12.183594 L 23.332031 12.183594 L 23.332031 13.882812 L 22.75 13.882812 Z M 22.75 12.183594 "/>
<path style=" stroke:none;fill-rule:nonzero;fill:rgb(0%,0%,0%);fill-opacity:1;" d="M 15.957031 8.6875 C 15.890625 8.6875 15.832031 8.71875 15.792969 8.769531 L 15.488281 9.210938 C 15.46875 9.242188 15.457031 9.277344 15.457031 9.316406 L 15.457031 9.898438 C 15.457031 10.003906 15.542969 10.085938 15.652344 10.085938 L 15.828125 10.085938 C 15.835938 9.878906 16.015625 9.710938 16.234375 9.710938 C 16.453125 9.710938 16.632812 9.878906 16.644531 10.085938 L 18.164062 10.085938 C 18.167969 9.9375 18.261719 9.808594 18.398438 9.746094 L 16.703125 9.746094 L 16.703125 8.878906 C 16.703125 8.773438 16.613281 8.6875 16.507812 8.6875 Z M 15.964844 8.800781 L 16.410156 8.800781 C 16.464844 8.800781 16.507812 8.84375 16.507812 8.894531 L 16.507812 9.160156 C 16.507812 9.214844 16.464844 9.253906 16.410156 9.253906 L 15.78125 9.253906 C 15.730469 9.253906 15.683594 9.214844 15.683594 9.160156 C 15.683594 9.140625 15.691406 9.125 15.703125 9.109375 L 15.886719 8.84375 C 15.902344 8.816406 15.933594 8.800781 15.964844 8.800781 Z M 15.964844 8.800781 "/>
<path style=" stroke:none;fill-rule:nonzero;fill:rgb(0%,0%,0%);fill-opacity:1;" d="M 17.011719 8.121094 C 16.90625 8.121094 16.820312 8.207031 16.820312 8.308594 C 16.820312 8.765625 16.820312 9.242188 16.820312 9.632812 L 19.347656 9.632812 C 19.347656 9.199219 19.347656 8.71875 19.347656 8.308594 C 19.347656 8.207031 19.261719 8.121094 19.15625 8.121094 Z M 17.011719 8.121094 "/>
<path style=" stroke:none;fill-rule:nonzero;fill:rgb(0%,0%,0%);fill-opacity:1;" d="M 18.570312 9.785156 C 18.386719 9.785156 18.238281 9.929688 18.238281 10.105469 C 18.238281 10.285156 18.386719 10.429688 18.570312 10.429688 C 18.753906 10.429688 18.902344 10.285156 18.902344 10.105469 C 18.902344 9.929688 18.753906 9.785156 18.570312 9.785156 Z M 18.570312 9.9375 C 18.667969 9.9375 18.746094 10.011719 18.746094 10.105469 C 18.746094 10.199219 18.667969 10.277344 18.570312 10.277344 C 18.472656 10.277344 18.394531 10.199219 18.394531 10.105469 C 18.394531 10.011719 18.472656 9.9375 18.570312 9.9375 Z M 18.570312 9.9375 "/>
<path style=" stroke:none;fill-rule:nonzero;fill:rgb(0%,0%,0%);fill-opacity:1;" d="M 18.980469 10.085938 C 18.972656 9.9375 18.878906 9.808594 18.746094 9.746094 L 19.347656 9.746094 L 19.347656 10.085938 Z M 18.980469 10.085938 "/>
<path style=" stroke:none;fill-rule:nonzero;fill:rgb(0%,0%,0%);fill-opacity:1;" d="M 16.234375 9.785156 C 16.050781 9.785156 15.902344 9.929688 15.902344 10.105469 C 15.902344 10.285156 16.050781 10.429688 16.234375 10.429688 C 16.417969 10.429688 16.566406 10.285156 16.566406 10.105469 C 16.566406 9.929688 16.417969 9.785156 16.234375 9.785156 Z M 16.234375 9.9375 C 16.332031 9.9375 16.410156 10.011719 16.410156 10.105469 C 16.410156 10.199219 16.332031 10.277344 16.234375 10.277344 C 16.136719 10.277344 16.058594 10.199219 16.058594 10.105469 C 16.058594 10.011719 16.136719 9.9375 16.234375 9.9375 Z M 16.234375 9.9375 "/>
<path style=" stroke:none;fill-rule:nonzero;fill:rgb(100%,0%,0%);fill-opacity:1;" d="M 17.5 6.515625 C 15.890625 6.515625 14.582031 7.785156 14.582031 9.351562 C 14.582031 10.914062 15.890625 12.183594 17.5 12.183594 C 19.109375 12.183594 20.417969 10.914062 20.417969 9.351562 C 20.417969 7.785156 19.109375 6.515625 17.5 6.515625 Z M 17.5 6.996094 C 18.839844 6.996094 19.921875 8.050781 19.921875 9.351562 C 19.921875 10.648438 18.839844 11.703125 17.5 11.703125 C 16.160156 11.703125 15.078125 10.648438 15.078125 9.351562 C 15.078125 8.050781 16.160156 6.996094 17.5 6.996094 Z M 17.5 6.996094 "/>
</g>
</svg>
