<?xml version="1.0" encoding="UTF-8"?>
<svg xmlns="http://www.w3.org/2000/svg" xmlns:xlink="http://www.w3.org/1999/xlink" width="35px" height="35px" viewBox="0 0 35 35" version="1.1">
<g id="surface1">
<path style=" stroke:none;fill-rule:nonzero;fill:rgb(100%,100%,100%);fill-opacity:1;" d="M 2.25 0 L 32.75 0 C 33.992188 0 35 1.007812 35 2.25 L 35 32.75 C 35 33.992188 33.992188 35 32.75 35 L 2.25 35 C 1.007812 35 0 33.992188 0 32.75 L 0 2.25 C 0 1.007812 1.007812 0 2.25 0 Z M 2.25 0 "/>
<path style="fill:none;stroke-width:2;stroke-linecap:butt;stroke-linejoin:miter;stroke:rgb(0%,0%,0%);stroke-opacity:1;stroke-miterlimit:4;" d="M 45 353.377805 L 655 353.377805 C 679.296875 353.377805 698.984375 373.065305 698.984375 397.36218 L 698.984375 1007.36218 C 698.984375 1031.659055 679.296875 1051.346555 655 1051.346555 L 45 1051.346555 C 20.703125 1051.346555 1.015625 1031.659055 1.015625 1007.36218 L 1.015625 397.36218 C 1.015625 373.065305 20.703125 353.377805 45 353.377805 Z M 45 353.377805 " transform="matrix(0.05,0,0,0.05,0,-17.618109)"/>
<path style=" stroke:none;fill-rule:nonzero;fill:rgb(5.098039%,41.176471%,88.235294%);fill-opacity:1;" d="M 2.25 1 C 1.558594 1 1 1.554688 1 2.25 L 1 32.75 C 1 33.441406 1.558594 34 2.25 34 L 22.167969 34 L 22.167969 33.832031 C 22.167969 32.90625 21.796875 32.015625 21.140625 31.359375 L 13.371094 23.585938 C 12.675781 23.910156 11.898438 24.09375 11.082031 24.09375 C 8.085938 24.09375 5.65625 21.664062 5.65625 18.667969 C 5.65625 16.285156 7.195312 14.257812 9.332031 13.53125 L 9.332031 11.667969 L 6.417969 11.667969 L 11.082031 3.5 L 15.75 11.667969 L 12.832031 11.667969 L 12.832031 13.53125 C 14.96875 14.257812 16.507812 16.285156 16.507812 18.667969 C 16.507812 19.566406 16.289062 20.417969 15.898438 21.164062 L 22.167969 27.433594 L 22.167969 11.667969 L 19.25 11.667969 L 23.917969 3.5 L 28.582031 11.667969 L 25.667969 11.667969 L 25.667969 34 L 32.75 34 C 33.441406 34 34 33.441406 34 32.75 L 34 2.25 C 34 1.554688 33.441406 1 32.75 1 L 18.082031 1 L 18.082031 4.667969 L 16.917969 4.667969 L 16.917969 1 Z M 16.917969 5.832031 L 18.082031 5.832031 L 18.082031 9.332031 L 16.917969 9.332031 Z M 16.917969 10.5 L 18.082031 10.5 L 18.082031 14 L 16.917969 14 Z M 16.917969 10.5 "/>
<path style=" stroke:none;fill-rule:nonzero;fill:rgb(0%,0%,0%);fill-opacity:1;" d="M 8.210938 17.398438 C 8.089844 17.398438 7.980469 17.460938 7.910156 17.558594 L 7.34375 18.402344 C 7.304688 18.460938 7.28125 18.53125 7.28125 18.601562 L 7.28125 19.714844 C 7.28125 19.917969 7.445312 20.078125 7.644531 20.078125 L 7.96875 20.078125 C 7.988281 19.675781 8.320312 19.355469 8.730469 19.355469 C 9.136719 19.355469 9.46875 19.675781 9.488281 20.078125 L 12.316406 20.078125 C 12.328125 19.789062 12.503906 19.542969 12.75 19.425781 L 9.597656 19.425781 L 9.597656 17.761719 C 9.597656 17.5625 9.4375 17.398438 9.238281 17.398438 Z M 8.230469 17.617188 L 9.054688 17.617188 C 9.15625 17.617188 9.238281 17.699219 9.238281 17.796875 L 9.238281 18.304688 C 9.238281 18.40625 9.15625 18.484375 9.054688 18.484375 L 7.886719 18.484375 C 7.789062 18.484375 7.707031 18.40625 7.707031 18.304688 C 7.707031 18.269531 7.71875 18.234375 7.738281 18.203125 L 8.082031 17.695312 C 8.113281 17.648438 8.171875 17.617188 8.230469 17.617188 Z M 8.230469 17.617188 "/>
<path style=" stroke:none;fill-rule:nonzero;fill:rgb(0%,0%,0%);fill-opacity:1;" d="M 10.179688 16.3125 C 9.976562 16.3125 9.816406 16.476562 9.816406 16.675781 L 9.816406 19.210938 L 14.523438 19.210938 L 14.523438 16.675781 C 14.523438 16.476562 14.363281 16.3125 14.160156 16.3125 Z M 10.179688 16.3125 "/>
<path style=" stroke:none;fill-rule:nonzero;fill:rgb(0%,0%,0%);fill-opacity:1;" d="M 13.074219 19.5 C 12.734375 19.5 12.460938 19.773438 12.460938 20.113281 C 12.460938 20.453125 12.734375 20.730469 13.074219 20.730469 C 13.414062 20.730469 13.691406 20.453125 13.691406 20.113281 C 13.691406 19.773438 13.414062 19.5 13.074219 19.5 Z M 13.074219 19.789062 C 13.253906 19.789062 13.402344 19.933594 13.402344 20.113281 C 13.402344 20.292969 13.253906 20.441406 13.074219 20.441406 C 12.894531 20.441406 12.75 20.292969 12.75 20.113281 C 12.75 19.933594 12.894531 19.789062 13.074219 19.789062 Z M 13.074219 19.789062 "/>
<path style=" stroke:none;fill-rule:nonzero;fill:rgb(0%,0%,0%);fill-opacity:1;" d="M 13.832031 20.078125 C 13.820312 19.789062 13.644531 19.542969 13.398438 19.425781 L 14.523438 19.425781 L 14.523438 20.078125 Z M 13.832031 20.078125 "/>
<path style=" stroke:none;fill-rule:nonzero;fill:rgb(0%,0%,0%);fill-opacity:1;" d="M 8.730469 19.5 C 8.390625 19.5 8.113281 19.773438 8.113281 20.113281 C 8.113281 20.453125 8.390625 20.730469 8.730469 20.730469 C 9.070312 20.730469 9.34375 20.453125 9.34375 20.113281 C 9.34375 19.773438 9.070312 19.5 8.730469 19.5 Z M 8.730469 19.789062 C 8.910156 19.789062 9.054688 19.933594 9.054688 20.113281 C 9.054688 20.292969 8.910156 20.441406 8.730469 20.441406 C 8.550781 20.441406 8.402344 20.292969 8.402344 20.113281 C 8.402344 19.933594 8.550781 19.789062 8.730469 19.789062 Z M 8.730469 19.789062 "/>
<path style=" stroke:none;fill-rule:nonzero;fill:rgb(100%,0%,0%);fill-opacity:1;" d="M 11.082031 13.242188 C 8.085938 13.242188 5.660156 15.671875 5.660156 18.667969 C 5.660156 21.664062 8.085938 24.089844 11.082031 24.089844 C 14.078125 24.089844 16.507812 21.664062 16.507812 18.667969 C 16.507812 15.671875 14.078125 13.242188 11.082031 13.242188 Z M 11.082031 14.160156 C 13.574219 14.160156 15.589844 16.175781 15.589844 18.667969 C 15.589844 21.15625 13.574219 23.175781 11.082031 23.175781 C 8.59375 23.175781 6.574219 21.15625 6.574219 18.667969 C 6.574219 16.175781 8.59375 14.160156 11.082031 14.160156 Z M 11.082031 14.160156 "/>
</g>
</svg>
