<?xml version="1.0" encoding="UTF-8"?>
<svg xmlns="http://www.w3.org/2000/svg" xmlns:xlink="http://www.w3.org/1999/xlink" width="35px" height="35px" viewBox="0 0 35 35" version="1.1">
<g id="surface1">
<path style=" stroke:none;fill-rule:nonzero;fill:rgb(100%,100%,100%);fill-opacity:1;" d="M 2.25 0 L 32.75 0 C 33.992188 0 35 1.007812 35 2.25 L 35 32.75 C 35 33.992188 33.992188 35 32.75 35 L 2.25 35 C 1.007812 35 0 33.992188 0 32.75 L 0 2.25 C 0 1.007812 1.007812 0 2.25 0 Z M 2.25 0 "/>
<path style=" stroke:none;fill-rule:nonzero;fill:rgb(5.098039%,41.176471%,88.235294%);fill-opacity:1;" d="M 2.25 1 C 1.558594 1 1 1.558594 1 2.25 L 1 32.75 C 1 33.441406 1.558594 34 2.25 34 L 32.75 34 C 33.441406 34 34 33.441406 34 32.75 L 34 2.25 C 34 1.558594 33.441406 1 32.75 1 Z M 17.5 3.5 L 22.167969 11.667969 L 19.25 11.667969 L 19.25 17.5 L 15.75 17.5 L 15.75 11.667969 L 12.832031 11.667969 Z M 14 18.667969 L 21 18.667969 C 21.96875 18.667969 22.75 19.449219 22.75 20.417969 L 22.75 28.582031 C 22.75 28.90625 22.492188 29.167969 22.167969 29.167969 L 12.832031 29.167969 C 12.507812 29.167969 12.25 28.90625 12.25 28.582031 L 12.25 20.417969 C 12.25 19.449219 13.03125 18.667969 14 18.667969 Z M 13.648438 19.425781 C 13.328125 19.425781 13.066406 19.683594 13.066406 20.007812 L 13.066406 22.75 C 13.066406 23.074219 13.328125 23.332031 13.648438 23.332031 L 21.46875 23.332031 C 21.789062 23.332031 22.050781 23.074219 22.050781 22.75 L 22.050781 20.007812 C 22.050781 19.683594 21.789062 19.425781 21.46875 19.425781 Z M 12.71875 29.75 L 14.117188 29.75 L 14.117188 30.800781 C 14.117188 31.1875 13.804688 31.5 13.417969 31.5 C 13.03125 31.5 12.71875 31.1875 12.71875 30.800781 Z M 20.882812 29.75 L 22.28125 29.75 L 22.28125 30.800781 C 22.28125 31.1875 21.96875 31.5 21.582031 31.5 C 21.195312 31.5 20.882812 31.1875 20.882812 30.800781 Z M 20.882812 29.75 "/>
<path style="fill:none;stroke-width:2;stroke-linecap:butt;stroke-linejoin:miter;stroke:rgb(0%,0%,0%);stroke-opacity:1;stroke-miterlimit:4;" d="M 45 353.377805 L 655 353.377805 C 679.296875 353.377805 698.984375 373.065305 698.984375 397.36218 L 698.984375 1007.36218 C 698.984375 1031.659055 679.296875 1051.346555 655 1051.346555 L 45 1051.346555 C 20.703125 1051.346555 1.015625 1031.659055 1.015625 1007.36218 L 1.015625 397.36218 C 1.015625 373.065305 20.703125 353.377805 45 353.377805 Z M 45 353.377805 " transform="matrix(0.05,0,0,0.05,0,-17.618109)"/>
</g>
</svg>
