<?xml version="1.0" encoding="UTF-8"?>
<svg xmlns="http://www.w3.org/2000/svg" xmlns:xlink="http://www.w3.org/1999/xlink" width="35px" height="35px" viewBox="0 0 35 52" version="1.1">
<g id="surface1">
<path style=" stroke:none;fill-rule:nonzero;fill:rgb(100%,100%,100%);fill-opacity:1;" d="M 2.25 0 L 32.75 0 C 33.992188 0 35 0.996094 35 2.230469 L 35 49.769531 C 35 51.003906 33.992188 52 32.75 52 L 2.25 52 C 1.007812 52 0 51.003906 0 49.769531 L 0 2.230469 C 0 0.996094 1.007812 0 2.25 0 Z M 2.25 0 "/>
<path style="fill:none;stroke-width:2;stroke-linecap:butt;stroke-linejoin:miter;stroke:rgb(0%,0%,0%);stroke-opacity:1;stroke-miterlimit:4;" d="M 45 1.025391 L 655 1.025391 C 679.296875 1.025391 698.984375 20.665565 698.984375 45.038311 L 698.984375 1004.961689 C 698.984375 1029.334435 679.296875 1048.974609 655 1048.974609 L 45 1048.974609 C 20.703125 1048.974609 1.015625 1029.334435 1.015625 1004.961689 L 1.015625 45.038311 C 1.015625 20.665565 20.703125 1.025391 45 1.025391 Z M 45 1.025391 " transform="matrix(0.05,0,0,0.0495238,0,0)"/>
<path style=" stroke:none;fill-rule:nonzero;fill:rgb(5.098039%,41.176471%,88.235294%);fill-opacity:1;" d="M 32.75 51.007812 C 33.441406 51.007812 34 50.457031 34 49.769531 L 34 2.230469 C 34 1.542969 33.441406 0.992188 32.75 0.992188 L 2.25 0.992188 C 1.558594 0.992188 1 1.542969 1 2.230469 L 1 49.769531 C 1 50.457031 1.558594 51.007812 2.25 51.007812 Z M 5.53125 36.832031 C 4.289062 36.832031 3.28125 35.835938 3.28125 34.605469 L 3.28125 10.894531 C 3.28125 9.664062 4.289062 8.667969 5.53125 8.667969 L 29.46875 8.667969 C 30.710938 8.667969 31.71875 9.664062 31.71875 10.894531 L 31.71875 34.605469 C 31.71875 35.835938 30.710938 36.832031 29.46875 36.832031 Z M 5.53125 36.832031 "/>
<path style=" stroke:none;fill-rule:nonzero;fill:rgb(0%,0%,0%);fill-opacity:1;" d="M 22.96875 33.582031 L 22.96875 30.765625 C 25.328125 30.839844 27.644531 30.113281 29.53125 28.707031 C 26.734375 28.109375 24.222656 26.578125 22.421875 24.375 C 23.789062 24.503906 25.15625 24.117188 26.25 23.292969 C 23.769531 22.207031 21.753906 20.289062 20.5625 17.875 C 21.203125 17.675781 21.824219 17.421875 22.421875 17.117188 C 20.398438 15.875 18.574219 14.339844 17.007812 12.566406 C 17.402344 14.804688 17.035156 17.109375 15.96875 19.121094 C 16.609375 18.949219 17.234375 18.714844 17.828125 18.417969 C 18.269531 21.296875 17.121094 24.1875 14.820312 26 C 16.132812 25.855469 17.40625 25.488281 18.59375 24.917969 C 18.03125 27.558594 16.464844 29.886719 14.21875 31.417969 C 16.035156 32.039062 18.03125 31.839844 19.6875 30.875 L 19.6875 33.582031 Z M 22.96875 33.582031 "/>
<path style=" stroke:none;fill-rule:nonzero;fill:rgb(0%,0%,0%);fill-opacity:1;" d="M 7.109375 29.25 C 6.808594 29.25 6.5625 29.492188 6.5625 29.792969 C 6.5625 30.089844 6.808594 30.332031 7.109375 30.332031 L 7.441406 30.332031 L 6.5625 33.582031 L 7.4375 33.582031 L 8.316406 30.332031 L 10.277344 30.332031 L 11.15625 33.582031 L 12.03125 33.582031 L 11.152344 30.332031 L 11.484375 30.332031 C 11.785156 30.332031 12.03125 30.089844 12.03125 29.792969 C 12.03125 29.492188 11.785156 29.25 11.484375 29.25 Z M 7.109375 29.25 "/>
</g>
</svg>
