<?xml version="1.0" encoding="UTF-8"?>
<svg xmlns="http://www.w3.org/2000/svg" xmlns:xlink="http://www.w3.org/1999/xlink" width="35px" height="35px" viewBox="0 0 35 52" version="1.1">
<g id="surface1">
<path style=" stroke:none;fill-rule:nonzero;fill:rgb(100%,100%,100%);fill-opacity:1;" d="M 2.25 0 L 32.75 0 C 33.992188 0 35 0.996094 35 2.230469 L 35 49.769531 C 35 51.003906 33.992188 52 32.75 52 L 2.25 52 C 1.007812 52 0 51.003906 0 49.769531 L 0 2.230469 C 0 0.996094 1.007812 0 2.25 0 Z M 2.25 0 "/>
<path style=" stroke:none;fill-rule:nonzero;fill:rgb(5.098039%,41.176471%,88.235294%);fill-opacity:1;" d="M 2.25 0.992188 C 1.558594 0.992188 1 1.542969 1 2.230469 L 1 49.769531 C 1 50.457031 1.558594 51.007812 2.25 51.007812 L 32.75 51.007812 C 33.441406 51.007812 34 50.457031 34 49.769531 L 34 2.230469 C 34 1.542969 33.441406 0.992188 32.75 0.992188 Z M 5.53125 8.667969 L 29.46875 8.667969 C 30.714844 8.667969 31.71875 9.660156 31.71875 10.894531 L 31.71875 34.605469 C 31.71875 35.839844 30.714844 36.832031 29.46875 36.832031 L 5.53125 36.832031 C 4.285156 36.832031 3.28125 35.839844 3.28125 34.605469 L 3.28125 10.894531 C 3.28125 9.660156 4.285156 8.667969 5.53125 8.667969 Z M 2.746094 40.238281 L 5.011719 40.238281 L 5.011719 40.703125 L 4.152344 40.703125 L 4.152344 43.332031 L 3.605469 43.332031 L 3.605469 40.703125 L 2.746094 40.703125 Z M 30.535156 40.238281 L 30.925781 40.238281 C 30.945312 40.335938 30.992188 40.410156 31.0625 40.464844 C 31.132812 40.519531 31.214844 40.546875 31.316406 40.546875 C 31.414062 40.546875 31.492188 40.519531 31.554688 40.464844 C 31.617188 40.410156 31.667969 40.335938 31.707031 40.238281 L 32.097656 40.238281 C 32.101562 40.246094 32.085938 40.300781 32.050781 40.398438 C 32.015625 40.5 31.945312 40.597656 31.832031 40.695312 C 31.71875 40.796875 31.546875 40.847656 31.316406 40.855469 C 31.085938 40.847656 30.914062 40.796875 30.800781 40.695312 C 30.6875 40.597656 30.617188 40.5 30.582031 40.398438 C 30.546875 40.300781 30.53125 40.246094 30.535156 40.238281 Z M 6.53125 41.089844 C 6.746094 41.078125 6.957031 41.15625 7.167969 41.320312 C 7.378906 41.484375 7.492188 41.796875 7.507812 42.25 C 7.5 42.570312 7.433594 42.8125 7.308594 42.980469 C 7.179688 43.148438 7.042969 43.261719 6.890625 43.324219 C 6.738281 43.386719 6.617188 43.414062 6.53125 43.410156 C 6.375 43.402344 6.242188 43.363281 6.140625 43.289062 C 6.042969 43.21875 5.988281 43.167969 5.984375 43.140625 L 5.984375 44.261719 L 5.515625 44.261719 L 5.515625 41.167969 L 5.90625 41.167969 C 5.925781 41.261719 5.953125 41.339844 5.984375 41.398438 C 5.984375 41.386719 6.027344 41.335938 6.113281 41.242188 C 6.199219 41.152344 6.339844 41.101562 6.53125 41.089844 Z M 8.753906 41.089844 C 8.964844 41.09375 9.171875 41.160156 9.371094 41.292969 C 9.570312 41.421875 9.675781 41.585938 9.691406 41.785156 L 9.691406 42.832031 C 9.695312 42.921875 9.71875 42.980469 9.761719 43 C 9.804688 43.019531 9.84375 43.027344 9.886719 43.023438 L 9.691406 43.410156 C 9.554688 43.414062 9.449219 43.394531 9.371094 43.351562 C 9.292969 43.308594 9.242188 43.210938 9.222656 43.0625 C 9.183594 43.144531 9.109375 43.222656 9 43.292969 C 8.890625 43.367188 8.757812 43.40625 8.597656 43.410156 C 8.433594 43.410156 8.277344 43.351562 8.128906 43.234375 C 7.984375 43.121094 7.90625 42.945312 7.894531 42.714844 C 7.910156 42.472656 8.027344 42.296875 8.238281 42.1875 C 8.453125 42.074219 8.667969 42.007812 8.878906 41.976562 C 9.09375 41.949219 9.207031 41.9375 9.222656 41.941406 L 9.222656 41.785156 C 9.21875 41.722656 9.167969 41.65625 9.078125 41.585938 C 8.984375 41.519531 8.875 41.480469 8.753906 41.476562 C 8.636719 41.480469 8.523438 41.511719 8.417969 41.566406 C 8.3125 41.625 8.230469 41.683594 8.167969 41.746094 L 7.933594 41.359375 C 8.03125 41.296875 8.140625 41.238281 8.273438 41.179688 C 8.402344 41.125 8.5625 41.09375 8.753906 41.089844 Z M 13.714844 41.089844 C 13.9375 41.089844 14.128906 41.148438 14.289062 41.261719 C 14.453125 41.375 14.574219 41.539062 14.652344 41.746094 L 14.210938 41.914062 C 14.167969 41.769531 14.105469 41.664062 14.019531 41.589844 C 13.933594 41.515625 13.832031 41.476562 13.714844 41.476562 C 13.554688 41.480469 13.425781 41.550781 13.324219 41.6875 C 13.222656 41.828125 13.171875 42.015625 13.167969 42.25 C 13.171875 42.484375 13.222656 42.671875 13.324219 42.808594 C 13.425781 42.949219 13.554688 43.019531 13.714844 43.023438 C 13.832031 43.023438 13.933594 42.984375 14.019531 42.910156 C 14.105469 42.835938 14.167969 42.730469 14.210938 42.585938 L 14.652344 42.753906 C 14.574219 42.960938 14.453125 43.125 14.289062 43.238281 C 14.128906 43.351562 13.9375 43.410156 13.714844 43.410156 C 13.414062 43.40625 13.167969 43.300781 12.96875 43.09375 C 12.769531 42.882812 12.667969 42.601562 12.660156 42.25 C 12.667969 41.898438 12.769531 41.617188 12.96875 41.40625 C 13.167969 41.199219 13.414062 41.09375 13.714844 41.089844 Z M 18.519531 41.089844 C 18.820312 41.09375 19.058594 41.199219 19.246094 41.40625 C 19.433594 41.617188 19.53125 41.898438 19.535156 42.25 C 19.53125 42.601562 19.433594 42.882812 19.246094 43.09375 C 19.058594 43.300781 18.820312 43.40625 18.519531 43.410156 C 18.222656 43.40625 17.980469 43.300781 17.792969 43.09375 C 17.605469 42.882812 17.511719 42.601562 17.503906 42.25 C 17.511719 41.898438 17.605469 41.617188 17.792969 41.40625 C 17.980469 41.199219 18.222656 41.09375 18.519531 41.089844 Z M 21.097656 41.089844 C 21.308594 41.078125 21.519531 41.15625 21.734375 41.320312 C 21.945312 41.484375 22.058594 41.796875 22.074219 42.25 C 22.066406 42.570312 22 42.8125 21.875 42.980469 C 21.746094 43.148438 21.609375 43.261719 21.457031 43.324219 C 21.304688 43.386719 21.183594 43.414062 21.097656 43.410156 C 20.9375 43.402344 20.808594 43.363281 20.707031 43.289062 C 20.605469 43.21875 20.554688 43.167969 20.550781 43.140625 L 20.550781 44.261719 L 20.082031 44.261719 L 20.082031 41.167969 L 20.472656 41.167969 C 20.492188 41.261719 20.515625 41.339844 20.550781 41.398438 C 20.550781 41.386719 20.59375 41.335938 20.679688 41.242188 C 20.765625 41.152344 20.90625 41.101562 21.097656 41.089844 Z M 10.359375 41.167969 L 10.828125 41.167969 L 10.828125 41.980469 L 11.648438 41.980469 L 11.648438 41.167969 L 12.117188 41.167969 L 12.117188 43.332031 L 11.648438 43.332031 L 11.648438 42.40625 L 10.828125 42.40625 L 10.828125 43.332031 L 10.359375 43.332031 Z M 15.164062 41.167969 L 16.921875 41.167969 L 16.921875 43.332031 L 16.453125 43.332031 L 16.453125 41.59375 L 15.632812 41.59375 L 15.632812 43.332031 L 15.164062 43.332031 Z M 22.351562 41.167969 L 24.128906 41.167969 L 24.128906 41.59375 L 23.476562 41.59375 L 23.476562 43.332031 L 23.007812 43.332031 L 23.007812 41.59375 L 22.351562 41.59375 Z M 24.609375 41.167969 L 25.078125 41.167969 L 25.078125 41.980469 L 25.898438 41.980469 L 25.898438 41.167969 L 26.367188 41.167969 L 26.367188 43.332031 L 25.898438 43.332031 L 25.898438 42.40625 L 25.078125 42.40625 L 25.078125 43.332031 L 24.609375 43.332031 Z M 27.105469 41.167969 L 27.574219 41.167969 L 27.574219 41.941406 L 28.121094 41.941406 C 28.394531 41.949219 28.589844 42.019531 28.710938 42.160156 C 28.828125 42.296875 28.886719 42.457031 28.886719 42.636719 C 28.886719 42.816406 28.828125 42.976562 28.710938 43.113281 C 28.589844 43.253906 28.394531 43.324219 28.121094 43.332031 L 27.105469 43.332031 Z M 29.203125 41.167969 L 29.671875 41.167969 L 29.671875 43.332031 L 29.203125 43.332031 Z M 30.378906 41.167969 L 30.847656 41.167969 L 30.847656 42.636719 L 31.746094 41.167969 L 32.253906 41.167969 L 32.253906 43.332031 L 31.785156 43.332031 L 31.785156 41.863281 L 30.886719 43.332031 L 30.378906 43.332031 Z M 18.519531 41.476562 C 18.359375 41.480469 18.230469 41.550781 18.128906 41.6875 C 18.027344 41.828125 17.976562 42.015625 17.972656 42.25 C 17.976562 42.484375 18.027344 42.671875 18.128906 42.808594 C 18.230469 42.949219 18.359375 43.019531 18.519531 43.023438 C 18.679688 43.019531 18.808594 42.949219 18.910156 42.808594 C 19.011719 42.671875 19.0625 42.484375 19.066406 42.25 C 19.0625 42.015625 19.011719 41.828125 18.910156 41.6875 C 18.808594 41.550781 18.679688 41.480469 18.519531 41.476562 Z M 6.53125 41.515625 C 6.417969 41.515625 6.3125 41.550781 6.21875 41.621094 C 6.125 41.691406 6.046875 41.785156 5.984375 41.902344 L 5.984375 42.714844 C 6.046875 42.8125 6.128906 42.886719 6.226562 42.941406 C 6.328125 42.996094 6.429688 43.023438 6.53125 43.023438 C 6.671875 43.019531 6.792969 42.949219 6.890625 42.808594 C 6.984375 42.671875 7.035156 42.484375 7.039062 42.25 C 7.035156 42.015625 6.984375 41.835938 6.890625 41.707031 C 6.792969 41.582031 6.671875 41.515625 6.53125 41.515625 Z M 21.097656 41.515625 C 20.984375 41.515625 20.878906 41.550781 20.785156 41.621094 C 20.6875 41.691406 20.613281 41.785156 20.550781 41.902344 L 20.550781 42.714844 C 20.613281 42.8125 20.695312 42.886719 20.792969 42.941406 C 20.894531 42.996094 20.996094 43.023438 21.097656 43.023438 C 21.238281 43.019531 21.359375 42.949219 21.453125 42.808594 C 21.550781 42.671875 21.601562 42.484375 21.605469 42.25 C 21.601562 42.015625 21.550781 41.835938 21.453125 41.707031 C 21.359375 41.582031 21.238281 41.515625 21.097656 41.515625 Z M 9.222656 42.289062 C 9.152344 42.3125 9.050781 42.332031 8.921875 42.347656 C 8.796875 42.363281 8.679688 42.390625 8.570312 42.4375 C 8.464844 42.484375 8.410156 42.5625 8.402344 42.675781 C 8.410156 42.808594 8.453125 42.898438 8.53125 42.949219 C 8.605469 43 8.667969 43.027344 8.714844 43.023438 C 8.839844 43.011719 8.953125 42.957031 9.058594 42.863281 C 9.160156 42.769531 9.21875 42.707031 9.222656 42.675781 Z M 27.574219 42.367188 L 27.574219 42.90625 L 28.160156 42.90625 C 28.242188 42.90625 28.304688 42.875 28.355469 42.820312 C 28.40625 42.765625 28.433594 42.703125 28.433594 42.636719 C 28.433594 42.570312 28.40625 42.507812 28.355469 42.453125 C 28.304688 42.398438 28.242188 42.371094 28.160156 42.367188 Z M 11.515625 45.421875 C 11.8125 45.425781 12.054688 45.535156 12.242188 45.742188 C 12.429688 45.949219 12.523438 46.230469 12.53125 46.582031 C 12.523438 46.9375 12.429688 47.21875 12.242188 47.425781 C 12.054688 47.632812 11.8125 47.738281 11.515625 47.742188 C 11.214844 47.738281 10.972656 47.632812 10.789062 47.425781 C 10.601562 47.21875 10.503906 46.9375 10.5 46.582031 C 10.503906 46.230469 10.601562 45.949219 10.789062 45.742188 C 10.972656 45.535156 11.214844 45.425781 11.515625 45.421875 Z M 18.582031 45.421875 C 18.792969 45.414062 19.003906 45.492188 19.214844 45.65625 C 19.425781 45.820312 19.542969 46.128906 19.558594 46.582031 C 19.550781 46.902344 19.484375 47.144531 19.355469 47.3125 C 19.230469 47.480469 19.089844 47.597656 18.9375 47.65625 C 18.785156 47.71875 18.667969 47.746094 18.582031 47.742188 C 18.421875 47.734375 18.292969 47.695312 18.191406 47.625 C 18.089844 47.550781 18.039062 47.5 18.035156 47.472656 L 18.035156 48.59375 L 17.566406 48.59375 L 17.566406 45.5 L 17.957031 45.5 C 17.972656 45.59375 18 45.671875 18.035156 45.730469 C 18.03125 45.71875 18.074219 45.667969 18.160156 45.578125 C 18.246094 45.488281 18.386719 45.433594 18.582031 45.421875 Z M 20.960938 45.421875 C 21.257812 45.425781 21.5 45.535156 21.6875 45.742188 C 21.875 45.949219 21.96875 46.230469 21.976562 46.582031 C 21.96875 46.9375 21.875 47.21875 21.6875 47.425781 C 21.5 47.632812 21.257812 47.738281 20.960938 47.742188 C 20.660156 47.738281 20.417969 47.632812 20.234375 47.425781 C 20.046875 47.21875 19.949219 46.9375 19.945312 46.582031 C 19.949219 46.230469 20.046875 45.949219 20.234375 45.742188 C 20.417969 45.535156 20.660156 45.425781 20.960938 45.421875 Z M 9.796875 45.460938 L 9.914062 45.847656 C 9.792969 45.863281 9.691406 45.914062 9.609375 45.996094 C 9.53125 46.082031 9.453125 46.167969 9.382812 46.253906 C 9.308594 46.34375 9.226562 46.402344 9.132812 46.429688 C 9.304688 46.472656 9.4375 46.566406 9.539062 46.714844 C 9.640625 46.859375 9.730469 47.023438 9.816406 47.199219 C 9.902344 47.378906 10.015625 47.535156 10.148438 47.667969 L 9.5625 47.667969 C 9.425781 47.429688 9.304688 47.207031 9.191406 46.992188 C 9.082031 46.777344 8.917969 46.664062 8.703125 46.648438 C 8.683594 46.648438 8.664062 46.652344 8.644531 46.652344 C 8.625 46.65625 8.605469 46.65625 8.585938 46.660156 L 8.585938 47.667969 L 8.117188 47.667969 L 8.117188 45.5 L 8.585938 45.5 L 8.585938 46.273438 C 8.59375 46.277344 8.601562 46.277344 8.613281 46.277344 C 8.621094 46.277344 8.632812 46.28125 8.640625 46.28125 C 8.757812 46.269531 8.871094 46.203125 8.984375 46.074219 C 9.101562 45.949219 9.226562 45.820312 9.355469 45.691406 C 9.488281 45.558594 9.632812 45.484375 9.796875 45.460938 Z M 13.117188 45.5 L 13.585938 45.5 L 13.585938 46.3125 L 14.40625 46.3125 L 14.40625 45.5 L 14.875 45.5 L 14.875 47.667969 L 14.40625 47.667969 L 14.40625 46.738281 L 13.585938 46.738281 L 13.585938 47.667969 L 13.117188 47.667969 Z M 15.34375 45.5 L 17.125 45.5 L 17.125 45.925781 L 16.472656 45.925781 L 16.472656 47.667969 L 16.003906 47.667969 L 16.003906 45.925781 L 15.34375 45.925781 Z M 22.835938 45.5 L 24.359375 45.5 L 24.359375 47.667969 L 23.890625 47.667969 L 23.890625 45.925781 L 23.265625 45.925781 C 23.257812 46.164062 23.253906 46.40625 23.242188 46.65625 C 23.230469 46.902344 23.167969 47.128906 23.054688 47.324219 C 22.9375 47.523438 22.722656 47.660156 22.40625 47.742188 L 22.316406 47.300781 C 22.382812 47.289062 22.453125 47.261719 22.527344 47.214844 C 22.601562 47.164062 22.664062 47.097656 22.710938 47.007812 C 22.742188 46.945312 22.769531 46.820312 22.785156 46.636719 C 22.804688 46.453125 22.816406 46.253906 22.824219 46.042969 C 22.832031 45.828125 22.835938 45.648438 22.835938 45.5 Z M 25.101562 45.5 L 25.570312 45.5 L 25.570312 46.273438 L 26.117188 46.273438 C 26.386719 46.28125 26.582031 46.355469 26.703125 46.492188 C 26.824219 46.628906 26.882812 46.789062 26.882812 46.96875 C 26.882812 47.152344 26.824219 47.3125 26.703125 47.449219 C 26.582031 47.585938 26.386719 47.660156 26.117188 47.667969 L 25.101562 47.667969 Z M 11.515625 45.808594 C 11.355469 45.8125 11.222656 45.882812 11.125 46.023438 C 11.023438 46.160156 10.96875 46.347656 10.96875 46.582031 C 10.96875 46.820312 11.023438 47.003906 11.125 47.144531 C 11.222656 47.28125 11.355469 47.355469 11.515625 47.355469 C 11.671875 47.355469 11.804688 47.28125 11.90625 47.144531 C 12.003906 47.003906 12.058594 46.820312 12.0625 46.582031 C 12.058594 46.347656 12.003906 46.160156 11.90625 46.023438 C 11.804688 45.882812 11.671875 45.8125 11.515625 45.808594 Z M 20.960938 45.808594 C 20.800781 45.8125 20.667969 45.882812 20.570312 46.023438 C 20.46875 46.160156 20.414062 46.347656 20.414062 46.582031 C 20.414062 46.820312 20.46875 47.003906 20.570312 47.144531 C 20.667969 47.28125 20.800781 47.355469 20.960938 47.355469 C 21.117188 47.355469 21.25 47.28125 21.351562 47.144531 C 21.449219 47.003906 21.503906 46.820312 21.507812 46.582031 C 21.503906 46.347656 21.449219 46.160156 21.351562 46.023438 C 21.25 45.882812 21.117188 45.8125 20.960938 45.808594 Z M 18.582031 45.847656 C 18.46875 45.851562 18.363281 45.886719 18.265625 45.953125 C 18.171875 46.023438 18.09375 46.117188 18.035156 46.234375 L 18.035156 47.046875 C 18.097656 47.144531 18.175781 47.222656 18.277344 47.273438 C 18.375 47.328125 18.476562 47.355469 18.582031 47.355469 C 18.722656 47.355469 18.839844 47.28125 18.9375 47.144531 C 19.035156 47.003906 19.085938 46.820312 19.089844 46.582031 C 19.085938 46.347656 19.035156 46.167969 18.9375 46.042969 C 18.839844 45.914062 18.722656 45.851562 18.582031 45.847656 Z M 25.570312 46.699219 L 25.570312 47.242188 L 26.15625 47.242188 C 26.234375 47.238281 26.300781 47.207031 26.351562 47.152344 C 26.402344 47.097656 26.429688 47.039062 26.429688 46.96875 C 26.429688 46.902344 26.402344 46.84375 26.351562 46.789062 C 26.300781 46.734375 26.234375 46.703125 26.15625 46.699219 Z M 25.570312 46.699219 "/>
<path style="fill:none;stroke-width:2;stroke-linecap:butt;stroke-linejoin:miter;stroke:rgb(0%,0%,0%);stroke-opacity:1;stroke-miterlimit:4;" d="M 45 3.387574 L 655 3.387574 C 679.296875 3.387574 698.984375 23.027748 698.984375 47.400494 L 698.984375 1007.323872 C 698.984375 1031.696618 679.296875 1051.336792 655 1051.336792 L 45 1051.336792 C 20.703125 1051.336792 1.015625 1031.696618 1.015625 1007.323872 L 1.015625 47.400494 C 1.015625 23.027748 20.703125 3.387574 45 3.387574 Z M 45 3.387574 " transform="matrix(0.05,0,0,0.0495238,0,-0.116984)"/>
<path style=" stroke:none;fill-rule:nonzero;fill:rgb(0%,0%,0%);fill-opacity:1;" d="M 10.996094 14.753906 C 10.707031 14.753906 10.433594 14.898438 10.273438 15.136719 L 8.898438 17.152344 C 8.800781 17.292969 8.75 17.460938 8.75 17.636719 L 8.75 19.726562 C 8.75 20.207031 9.140625 20.59375 9.625 20.59375 L 10.414062 20.59375 C 10.460938 19.628906 11.265625 18.859375 12.25 18.859375 C 13.234375 18.859375 14.039062 19.628906 14.085938 20.59375 L 20.914062 20.59375 C 20.949219 19.902344 21.367188 19.3125 21.96875 19.035156 L 14.351562 19.035156 L 14.351562 15.621094 C 14.351562 15.140625 13.957031 14.753906 13.472656 14.753906 Z M 11.042969 15.273438 L 13.039062 15.273438 C 13.277344 15.273438 13.472656 15.46875 13.472656 15.707031 L 13.472656 16.921875 C 13.472656 17.160156 13.277344 17.351562 13.039062 17.351562 L 10.21875 17.351562 C 9.976562 17.351562 9.78125 17.160156 9.78125 16.921875 C 9.78125 16.835938 9.804688 16.75 9.855469 16.679688 L 10.679688 15.464844 C 10.761719 15.34375 10.898438 15.273438 11.042969 15.273438 Z M 11.042969 15.273438 "/>
<path style=" stroke:none;fill-rule:nonzero;fill:rgb(0%,0%,0%);fill-opacity:1;" d="M 15.75 13.171875 C 15.265625 13.171875 14.875 13.558594 14.875 14.039062 L 14.875 18.710938 L 26.25 18.710938 L 26.25 14.039062 C 26.25 13.558594 25.859375 13.171875 25.375 13.171875 Z M 15.75 13.171875 "/>
<path style=" stroke:none;fill-rule:nonzero;fill:rgb(0%,0%,0%);fill-opacity:1;" d="M 22.75 19.207031 C 21.929688 19.207031 21.261719 19.867188 21.261719 20.679688 C 21.261719 21.496094 21.929688 22.152344 22.75 22.152344 C 23.570312 22.152344 24.238281 21.496094 24.238281 20.679688 C 24.238281 19.867188 23.570312 19.207031 22.75 19.207031 Z M 22.75 19.902344 C 23.183594 19.902344 23.539062 20.25 23.539062 20.679688 C 23.539062 21.113281 23.183594 21.460938 22.75 21.460938 C 22.316406 21.460938 21.960938 21.113281 21.960938 20.679688 C 21.960938 20.25 22.316406 19.902344 22.75 19.902344 Z M 22.75 19.902344 "/>
<path style=" stroke:none;fill-rule:nonzero;fill:rgb(0%,0%,0%);fill-opacity:1;" d="M 24.585938 20.59375 C 24.550781 19.902344 24.132812 19.3125 23.53125 19.035156 L 26.25 19.035156 L 26.25 20.59375 Z M 24.585938 20.59375 "/>
<path style=" stroke:none;fill-rule:nonzero;fill:rgb(0%,0%,0%);fill-opacity:1;" d="M 12.25 19.207031 C 11.429688 19.207031 10.761719 19.867188 10.761719 20.679688 C 10.761719 21.496094 11.429688 22.152344 12.25 22.152344 C 13.070312 22.152344 13.738281 21.496094 13.738281 20.679688 C 13.738281 19.867188 13.070312 19.207031 12.25 19.207031 Z M 12.25 19.902344 C 12.683594 19.902344 13.039062 20.25 13.039062 20.679688 C 13.039062 21.113281 12.683594 21.460938 12.25 21.460938 C 11.816406 21.460938 11.460938 21.113281 11.460938 20.679688 C 11.460938 20.25 11.816406 19.902344 12.25 19.902344 Z M 12.25 19.902344 "/>
<path style=" stroke:none;fill-rule:nonzero;fill:rgb(0%,0%,0%);fill-opacity:1;" d="M 11.03125 24.609375 C 10.75 24.609375 10.488281 24.757812 10.347656 25 L 8.964844 27.375 C 8.894531 27.492188 8.859375 27.628906 8.859375 27.765625 L 8.859375 30.636719 C 8.859375 31.070312 9.210938 31.421875 9.648438 31.421875 L 10.046875 31.421875 C 10.046875 30.339844 10.929688 29.464844 12.023438 29.464844 C 13.113281 29.464844 13.996094 30.339844 13.996094 31.421875 L 20.320312 31.421875 C 20.320312 30.339844 21.207031 29.464844 22.296875 29.464844 C 23.386719 29.464844 24.273438 30.339844 24.273438 31.421875 L 25.460938 31.421875 C 25.898438 31.421875 26.25 31.070312 26.25 30.636719 L 26.25 27.765625 C 26.25 27.683594 26.234375 27.597656 26.210938 27.519531 L 25.410156 25.144531 C 25.304688 24.824219 25 24.609375 24.660156 24.609375 Z M 11.125 25.15625 L 12.023438 25.15625 C 12.242188 25.15625 12.417969 25.332031 12.417969 25.550781 L 12.417969 27.117188 C 12.417969 27.332031 12.242188 27.507812 12.023438 27.507812 L 10.210938 27.507812 C 9.992188 27.507812 9.816406 27.332031 9.816406 27.117188 C 9.816406 27.046875 9.835938 26.980469 9.867188 26.917969 L 10.78125 25.351562 C 10.851562 25.230469 10.984375 25.15625 11.125 25.15625 Z M 13.601562 25.15625 L 15.972656 25.15625 C 16.191406 25.15625 16.367188 25.332031 16.367188 25.550781 L 16.367188 27.117188 C 16.367188 27.332031 16.191406 27.507812 15.972656 27.507812 L 13.601562 27.507812 C 13.382812 27.507812 13.207031 27.332031 13.207031 27.117188 L 13.207031 25.550781 C 13.207031 25.332031 13.382812 25.15625 13.601562 25.15625 Z M 17.554688 25.15625 L 19.925781 25.15625 C 20.144531 25.15625 20.320312 25.332031 20.320312 25.550781 L 20.320312 27.117188 C 20.320312 27.332031 20.144531 27.507812 19.925781 27.507812 L 17.554688 27.507812 C 17.335938 27.507812 17.160156 27.332031 17.160156 27.117188 L 17.160156 25.550781 C 17.160156 25.332031 17.335938 25.15625 17.554688 25.15625 Z M 21.507812 25.15625 L 23.757812 25.15625 C 23.933594 25.15625 24.089844 25.273438 24.140625 25.4375 L 24.605469 27.003906 C 24.667969 27.210938 24.546875 27.429688 24.335938 27.492188 C 24.300781 27.5 24.261719 27.507812 24.226562 27.507812 L 21.507812 27.507812 C 21.289062 27.507812 21.113281 27.332031 21.113281 27.117188 L 21.113281 25.550781 C 21.113281 25.332031 21.289062 25.15625 21.507812 25.15625 Z M 21.507812 25.15625 "/>
<path style=" stroke:none;fill-rule:nonzero;fill:rgb(0%,0%,0%);fill-opacity:1;" d="M 12.019531 29.855469 C 11.148438 29.855469 10.441406 30.558594 10.441406 31.421875 C 10.441406 32.285156 11.148438 32.988281 12.019531 32.988281 C 12.894531 32.988281 13.601562 32.285156 13.601562 31.421875 C 13.601562 30.558594 12.894531 29.855469 12.019531 29.855469 Z M 12.019531 30.636719 C 12.457031 30.636719 12.8125 30.988281 12.8125 31.421875 C 12.8125 31.855469 12.457031 32.203125 12.019531 32.203125 C 11.585938 32.203125 11.230469 31.855469 11.230469 31.421875 C 11.230469 30.988281 11.585938 30.636719 12.019531 30.636719 Z M 12.019531 30.636719 "/>
<path style=" stroke:none;fill-rule:nonzero;fill:rgb(0%,0%,0%);fill-opacity:1;" d="M 22.296875 29.855469 C 21.425781 29.855469 20.714844 30.558594 20.714844 31.421875 C 20.714844 32.285156 21.425781 32.988281 22.296875 32.988281 C 23.171875 32.988281 23.878906 32.285156 23.878906 31.421875 C 23.878906 30.558594 23.171875 29.855469 22.296875 29.855469 Z M 22.296875 30.636719 C 22.734375 30.636719 23.089844 30.988281 23.089844 31.421875 C 23.089844 31.855469 22.734375 32.203125 22.296875 32.203125 C 21.859375 32.203125 21.507812 31.855469 21.507812 31.421875 C 21.507812 30.988281 21.859375 30.636719 22.296875 30.636719 Z M 22.296875 30.636719 "/>
</g>
</svg>
