<?xml version="1.0" encoding="UTF-8"?>
<svg xmlns="http://www.w3.org/2000/svg" xmlns:xlink="http://www.w3.org/1999/xlink" width="35px" height="35px" viewBox="0 0 35 52" version="1.1">
<g id="surface1">
<path style=" stroke:none;fill-rule:nonzero;fill:rgb(100%,100%,100%);fill-opacity:1;" d="M 2.25 0 L 32.75 0 C 33.992188 0 35 0.996094 35 2.230469 L 35 49.769531 C 35 51.003906 33.992188 52 32.75 52 L 2.25 52 C 1.007812 52 0 51.003906 0 49.769531 L 0 2.230469 C 0 0.996094 1.007812 0 2.25 0 Z M 2.25 0 "/>
<path style=" stroke:none;fill-rule:nonzero;fill:rgb(5.098039%,41.176471%,88.235294%);fill-opacity:1;" d="M 2.25 0.992188 C 1.558594 0.992188 1 1.542969 1 2.230469 L 1 49.769531 C 1 50.457031 1.558594 51.007812 2.25 51.007812 L 32.75 51.007812 C 33.441406 51.007812 34 50.457031 34 49.769531 L 34 2.230469 C 34 1.542969 33.441406 0.992188 32.75 0.992188 Z M 5.53125 8.667969 L 29.46875 8.667969 C 30.714844 8.667969 31.71875 9.660156 31.71875 10.894531 L 31.71875 34.605469 C 31.71875 35.839844 30.714844 36.832031 29.46875 36.832031 L 5.53125 36.832031 C 4.285156 36.832031 3.28125 35.839844 3.28125 34.605469 L 3.28125 10.894531 C 3.28125 9.660156 4.285156 8.667969 5.53125 8.667969 Z M 22.566406 41.25 C 22.996094 41.25 23.25 41.5 23.390625 41.867188 L 23.007812 42.007812 C 22.921875 41.726562 22.773438 41.613281 22.566406 41.613281 C 22.25 41.613281 22.023438 41.925781 22.023438 42.433594 C 22.023438 42.941406 22.25 43.25 22.566406 43.25 C 22.773438 43.25 22.921875 43.136719 23.007812 42.855469 L 23.390625 42.996094 C 23.25 43.363281 22.996094 43.617188 22.566406 43.617188 C 21.9375 43.617188 21.636719 43.089844 21.636719 42.433594 C 21.636719 41.78125 21.9375 41.25 22.566406 41.25 Z M 25.558594 41.25 L 25.644531 41.644531 C 25.421875 41.644531 25.367188 41.765625 25.246094 41.925781 C 25.132812 42.066406 24.957031 42.320312 24.84375 42.320312 C 25.128906 42.347656 25.214844 42.558594 25.359375 42.800781 C 25.523438 43.085938 25.671875 43.40625 25.871094 43.5625 L 25.375 43.5625 C 25.300781 43.421875 25.074219 43.054688 24.929688 42.800781 C 24.828125 42.621094 24.730469 42.515625 24.5625 42.515625 C 24.503906 42.515625 24.390625 42.53125 24.390625 42.53125 L 24.390625 43.5625 L 23.992188 43.5625 L 23.992188 41.304688 L 24.390625 41.304688 L 24.390625 42.148438 C 24.398438 42.15625 24.414062 42.15625 24.433594 42.15625 C 24.851562 42.15625 24.96875 41.304688 25.558594 41.25 Z M 18.234375 41.277344 C 18.375 41.285156 18.507812 41.332031 18.605469 41.417969 C 18.898438 41.671875 19 42.167969 19.304688 42.167969 L 19.316406 42.167969 C 19.332031 42.167969 19.335938 42.164062 19.34375 42.160156 L 19.34375 41.304688 L 19.742188 41.304688 L 19.742188 42.160156 C 19.75 42.164062 19.757812 42.167969 19.773438 42.167969 L 19.785156 42.167969 C 20.089844 42.167969 20.191406 41.671875 20.484375 41.417969 C 20.582031 41.332031 20.710938 41.285156 20.855469 41.277344 L 20.96875 41.65625 C 20.75 41.65625 20.683594 41.753906 20.570312 41.925781 C 20.472656 42.074219 20.285156 42.320312 20.183594 42.332031 C 20.457031 42.347656 20.542969 42.558594 20.683594 42.800781 C 20.851562 43.085938 20.96875 43.40625 21.167969 43.5625 L 20.65625 43.5625 C 20.570312 43.421875 20.371094 43.054688 20.226562 42.800781 C 20.125 42.621094 20.027344 42.515625 19.914062 42.515625 C 19.859375 42.515625 19.742188 42.53125 19.742188 42.53125 L 19.742188 43.5625 L 19.34375 43.5625 L 19.34375 42.53125 C 19.34375 42.53125 19.230469 42.515625 19.175781 42.515625 C 19.058594 42.515625 18.960938 42.621094 18.859375 42.800781 C 18.71875 43.054688 18.519531 43.421875 18.433594 43.5625 L 17.921875 43.5625 C 18.121094 43.40625 18.238281 43.085938 18.40625 42.800781 C 18.546875 42.558594 18.632812 42.347656 18.90625 42.332031 C 18.804688 42.320312 18.617188 42.074219 18.519531 41.925781 C 18.40625 41.753906 18.339844 41.65625 18.121094 41.65625 Z M 4.140625 41.304688 L 5.589844 41.304688 L 5.589844 41.644531 L 4.539062 41.644531 L 4.539062 42.207031 L 5.023438 42.207031 C 5.589844 42.207031 5.761719 42.601562 5.761719 42.882812 C 5.761719 43.167969 5.535156 43.5625 4.964844 43.5625 L 4.140625 43.5625 Z M 6.441406 41.304688 L 7.867188 41.304688 L 7.867188 41.671875 L 6.84375 41.671875 L 6.84375 42.207031 L 7.667969 42.207031 L 7.667969 42.546875 L 6.84375 42.546875 L 6.84375 43.222656 L 7.894531 43.222656 L 7.894531 43.5625 L 6.441406 43.5625 Z M 8.949219 41.304688 L 10.375 41.304688 L 10.375 43.5625 L 9.976562 43.5625 L 9.976562 41.644531 L 9.347656 41.644531 C 9.347656 41.644531 9.347656 42.488281 9.320312 42.769531 C 9.238281 43.5625 8.550781 43.617188 8.550781 43.617188 L 8.484375 43.238281 C 8.484375 43.238281 8.867188 43.136719 8.921875 42.828125 C 8.949219 42.660156 8.949219 41.8125 8.949219 41.304688 Z M 11.769531 41.304688 L 12.226562 41.304688 L 12.964844 43.5625 L 12.539062 43.5625 L 12.398438 43.109375 L 11.601562 43.109375 L 11.457031 43.5625 L 11.03125 43.5625 Z M 13.617188 41.304688 L 14.5 41.304688 C 14.929688 41.304688 15.167969 41.625 15.167969 41.925781 C 15.167969 42.09375 15.042969 42.292969 14.84375 42.375 C 15.070312 42.460938 15.242188 42.628906 15.242188 42.882812 C 15.242188 43.25 14.929688 43.5625 14.503906 43.5625 L 13.617188 43.5625 Z M 15.898438 41.304688 L 17.324219 41.304688 L 17.324219 41.671875 L 16.296875 41.671875 L 16.296875 42.207031 L 17.125 42.207031 L 17.125 42.546875 L 16.296875 42.546875 L 16.296875 43.222656 L 17.351562 43.222656 L 17.351562 43.5625 L 15.898438 43.5625 Z M 27.066406 41.304688 L 27.523438 41.304688 L 28.261719 43.5625 L 27.835938 43.5625 L 27.691406 43.109375 L 26.894531 43.109375 L 26.753906 43.5625 L 26.324219 43.5625 Z M 29.742188 41.304688 L 30.566406 41.304688 L 30.566406 43.5625 L 30.167969 43.5625 L 30.167969 42.660156 L 29.910156 42.660156 C 29.65625 42.660156 29.59375 42.816406 29.496094 43 C 29.390625 43.207031 29.3125 43.363281 29.199219 43.5625 L 28.714844 43.5625 C 28.792969 43.519531 29.058594 43.023438 29.140625 42.828125 C 29.203125 42.6875 29.371094 42.53125 29.484375 42.503906 C 29.199219 42.449219 29 42.234375 29 41.925781 C 29 41.699219 29.171875 41.304688 29.742188 41.304688 Z M 14.015625 41.644531 L 14.015625 42.222656 L 14.472656 42.222656 C 14.644531 42.222656 14.757812 42.101562 14.757812 41.933594 C 14.757812 41.734375 14.613281 41.644531 14.472656 41.644531 Z M 29.855469 41.644531 C 29.625 41.644531 29.398438 41.738281 29.398438 41.980469 C 29.398438 42.222656 29.597656 42.320312 29.824219 42.320312 L 30.167969 42.320312 L 30.167969 41.644531 Z M 12 41.8125 L 11.714844 42.769531 L 12.28125 42.769531 Z M 27.292969 41.8125 L 27.007812 42.769531 L 27.578125 42.769531 Z M 4.539062 42.546875 L 4.539062 43.222656 L 4.9375 43.222656 C 5.191406 43.222656 5.363281 43.109375 5.363281 42.882812 C 5.363281 42.660156 5.191406 42.546875 4.9375 42.546875 Z M 14.015625 42.546875 L 14.015625 43.222656 L 14.5 43.222656 C 14.730469 43.222656 14.84375 43.046875 14.84375 42.882812 C 14.84375 42.722656 14.730469 42.546875 14.5 42.546875 Z M 11.402344 45.214844 L 13.054688 45.214844 L 13.054688 47.46875 L 12.65625 47.46875 L 12.65625 45.550781 L 11.800781 45.550781 L 11.800781 47.46875 L 11.402344 47.46875 Z M 13.652344 45.214844 L 14.078125 45.214844 L 14.617188 46.398438 L 15.074219 45.214844 L 15.5 45.214844 L 14.761719 47.105469 C 14.679688 47.316406 14.417969 47.480469 14.21875 47.480469 C 14.105469 47.480469 14.050781 47.46875 14.019531 47.457031 L 13.9375 47.105469 C 13.9375 47.105469 14.050781 47.132812 14.164062 47.132812 C 14.304688 47.132812 14.4375 46.992188 14.4375 46.90625 C 14.4375 46.820312 13.652344 45.214844 13.652344 45.214844 Z M 16.046875 45.214844 L 16.445312 45.214844 L 16.445312 47.132812 L 17.097656 47.128906 L 17.097656 45.214844 L 17.496094 45.214844 L 17.496094 47.132812 L 18.152344 47.132812 L 18.152344 45.214844 L 18.550781 45.214844 L 18.550781 47.46875 L 16.046875 47.46875 Z M 19.203125 45.214844 L 19.601562 45.214844 L 19.601562 46.054688 C 19.601562 46.203125 19.660156 46.285156 19.800781 46.285156 C 20.027344 46.285156 20.257812 46.230469 20.398438 46.144531 L 20.398438 45.214844 L 20.796875 45.214844 L 20.796875 47.46875 L 20.398438 47.46875 L 20.398438 46.511719 C 20.257812 46.625 19.972656 46.652344 19.800781 46.652344 C 19.402344 46.652344 19.203125 46.484375 19.203125 46.199219 Z M 22.195312 45.214844 L 22.652344 45.214844 L 23.390625 47.46875 L 22.964844 47.46875 L 22.820312 47.019531 L 22.023438 47.019531 L 21.882812 47.46875 L 21.453125 47.46875 Z M 22.421875 45.722656 L 22.136719 46.679688 L 22.707031 46.679688 Z M 22.421875 45.722656 "/>
<path style="fill:none;stroke-width:2;stroke-linecap:butt;stroke-linejoin:miter;stroke:rgb(0%,0%,0%);stroke-opacity:1;stroke-miterlimit:4;" d="M 1781.8 89.387558 L 2391.8 89.387558 C 2416.096875 89.387558 2435.784375 109.027732 2435.784375 133.400478 L 2435.784375 1093.323856 C 2435.784375 1117.696602 2416.096875 1137.336776 2391.8 1137.336776 L 1781.8 1137.336776 C 1757.503125 1137.336776 1737.815625 1117.696602 1737.815625 1093.323856 L 1737.815625 133.400478 C 1737.815625 109.027732 1757.503125 89.387558 1781.8 89.387558 Z M 1781.8 89.387558 " transform="matrix(0.05,0,0,0.0495238,-86.84,-4.376031)"/>
<path style=" stroke:none;fill-rule:evenodd;fill:rgb(13.72549%,12.156863%,12.54902%);fill-opacity:1;" d="M 11.390625 12.03125 C 9.050781 12.03125 7.140625 13.90625 7.140625 16.207031 C 7.140625 18.507812 9.050781 20.382812 11.390625 20.382812 L 14.425781 20.382812 L 14.425781 24.296875 L 11.390625 24.296875 C 9.050781 24.296875 7.140625 26.175781 7.140625 28.476562 C 7.140625 30.773438 9.050781 32.652344 11.390625 32.652344 C 13.734375 32.652344 15.644531 30.773438 15.644531 28.476562 L 15.644531 25.496094 L 19.628906 25.496094 L 19.628906 28.476562 C 19.628906 30.773438 21.539062 32.652344 23.878906 32.652344 C 26.222656 32.652344 28.132812 30.773438 28.132812 28.476562 C 28.132812 26.175781 26.222656 24.296875 23.878906 24.296875 L 20.847656 24.296875 L 20.847656 20.382812 L 23.878906 20.382812 C 26.222656 20.382812 28.132812 18.507812 28.132812 16.207031 C 28.132812 13.90625 26.222656 12.03125 23.878906 12.03125 C 21.539062 12.03125 19.628906 13.90625 19.628906 16.207031 L 19.628906 19.1875 L 15.644531 19.1875 L 15.644531 16.207031 C 15.644531 13.90625 13.734375 12.03125 11.390625 12.03125 Z M 11.390625 13.050781 C 13.160156 13.050781 14.601562 14.46875 14.601562 16.207031 L 14.601562 19.359375 L 11.390625 19.359375 C 9.625 19.359375 8.183594 17.941406 8.183594 16.207031 C 8.183594 14.46875 9.625 13.050781 11.390625 13.050781 Z M 23.878906 13.050781 C 25.648438 13.050781 27.089844 14.46875 27.089844 16.207031 C 27.089844 17.941406 25.648438 19.359375 23.878906 19.359375 L 20.671875 19.359375 L 20.671875 16.207031 C 20.671875 14.46875 22.113281 13.050781 23.878906 13.050781 Z M 15.464844 20.207031 L 19.804688 20.207031 L 19.804688 24.472656 L 15.464844 24.472656 Z M 11.390625 25.320312 L 14.601562 25.320312 L 14.601562 28.476562 C 14.601562 30.210938 13.160156 31.628906 11.390625 31.628906 C 9.625 31.628906 8.183594 30.210938 8.183594 28.476562 C 8.183594 26.738281 9.625 25.320312 11.390625 25.320312 Z M 20.671875 25.320312 L 23.878906 25.320312 C 25.648438 25.320312 27.089844 26.738281 27.089844 28.476562 C 27.089844 30.210938 25.648438 31.628906 23.878906 31.628906 C 22.113281 31.628906 20.671875 30.210938 20.671875 28.476562 Z M 20.671875 25.320312 "/>
</g>
</svg>
