<?xml version="1.0" encoding="UTF-8"?>
<svg xmlns="http://www.w3.org/2000/svg" xmlns:xlink="http://www.w3.org/1999/xlink" width="35px" height="35px" viewBox="0 0 35 52" version="1.1">
<g id="surface1">
<path style=" stroke:none;fill-rule:nonzero;fill:rgb(100%,100%,100%);fill-opacity:1;" d="M 2.25 0 C 1.007812 0 0 0.996094 0 2.230469 L 0 49.769531 C 0 51.003906 1.007812 52 2.25 52 L 32.75 52 C 33.992188 52 35 51.003906 35 49.769531 L 35 2.230469 C 35 0.996094 33.992188 0 32.75 0 Z M 2.25 0 "/>
<path style=" stroke:none;fill-rule:nonzero;fill:rgb(5.098039%,41.176471%,88.235294%);fill-opacity:1;" d="M 2.25 0.992188 C 1.558594 0.992188 1 1.542969 1 2.230469 L 1 49.769531 C 1 50.457031 1.558594 51.007812 2.25 51.007812 L 32.75 51.007812 C 33.441406 51.007812 34 50.457031 34 49.769531 L 34 2.230469 C 34 1.542969 33.441406 0.992188 32.75 0.992188 Z M 5.53125 8.667969 L 29.46875 8.667969 C 30.714844 8.667969 31.71875 9.660156 31.71875 10.894531 L 31.71875 34.605469 C 31.71875 35.839844 30.714844 36.832031 29.46875 36.832031 L 5.53125 36.832031 C 4.285156 36.832031 3.28125 35.839844 3.28125 34.605469 L 3.28125 10.894531 C 3.28125 9.660156 4.285156 8.667969 5.53125 8.667969 Z M 5.53125 8.667969 "/>
<path style="fill:none;stroke-width:2;stroke-linecap:butt;stroke-linejoin:miter;stroke:rgb(0%,0%,0%);stroke-opacity:1;stroke-miterlimit:4;" d="M 45 1.025391 C 20.703125 1.025391 1.015625 20.665565 1.015625 45.038311 L 1.015625 1004.961689 C 1.015625 1029.334435 20.703125 1048.974609 45 1048.974609 L 655 1048.974609 C 679.296875 1048.974609 698.984375 1029.334435 698.984375 1004.961689 L 698.984375 45.038311 C 698.984375 20.665565 679.296875 1.025391 655 1.025391 Z M 45 1.025391 " transform="matrix(0.05,0,0,0.0495238,0,0)"/>
<path style=" stroke:none;fill-rule:evenodd;fill:rgb(100%,100%,100%);fill-opacity:1;" d="M 18.300781 12.992188 L 18.300781 20.640625 L 26.324219 20.640625 L 26.324219 12.992188 Z M 18.300781 12.992188 "/>
<path style=" stroke:none;fill-rule:evenodd;fill:rgb(100%,100%,100%);fill-opacity:1;" d="M 15.253906 14.695312 L 15.253906 21.578125 L 23.273438 21.578125 L 23.273438 14.695312 Z M 15.253906 14.695312 "/>
<path style="fill-rule:evenodd;fill:rgb(0%,0%,0%);fill-opacity:1;stroke-width:0.2835;stroke-linecap:butt;stroke-linejoin:miter;stroke:rgb(17.647059%,17.254902%,16.862745%);stroke-opacity:1;stroke-miterlimit:10.433;" d="M 195.9375 605.769231 C 177.65625 610.659555 158.75 599.774639 153.828125 581.475361 L 112.265625 426.404748 C 107.34375 408.105469 118.28125 389.17518 136.640625 384.284856 L 514.53125 283.007812 C 532.8125 278.117488 551.71875 289.002404 556.640625 307.380559 L 598.203125 462.372296 C 603.125 480.750451 592.1875 499.601863 573.828125 504.492187 Z M 195.9375 605.769231 " transform="matrix(0.05,0,0,0.0495238,0,0)"/>
<path style=" stroke:none;fill-rule:nonzero;fill:rgb(100%,100%,100%);fill-opacity:1;" d="M 13.746094 23.914062 C 13.6875 23.707031 13.648438 23.496094 13.617188 23.277344 C 13.578125 22.957031 13.5625 22.640625 13.574219 22.324219 C 13.648438 20.515625 14.601562 18.777344 16.042969 17.707031 C 12.285156 18.988281 9.871094 21.875 10.613281 24.277344 C 11.214844 26.238281 13.734375 27.285156 16.71875 27.039062 C 15.292969 26.617188 14.164062 25.484375 13.746094 23.914062 Z M 13.746094 23.914062 "/>
<path style=" stroke:none;fill-rule:nonzero;fill:rgb(100%,100%,100%);fill-opacity:1;" d="M 24.949219 19.878906 C 24.523438 18.503906 23.15625 17.582031 21.347656 17.234375 C 22.535156 17.898438 23.367188 19.128906 23.539062 20.691406 C 23.722656 22.375 23.082031 24.054688 21.953125 25.28125 C 24.246094 23.8125 25.515625 21.707031 24.949219 19.878906 Z M 24.949219 19.878906 "/>
<path style=" stroke:none;fill-rule:nonzero;fill:rgb(100%,100%,0%);fill-opacity:1;" d="M 15.839844 23.964844 C 15.621094 24.15625 15.320312 24.289062 15.078125 24.351562 C 14.464844 24.515625 14.050781 24.253906 13.898438 23.691406 C 13.722656 23.042969 14.019531 22.238281 14.800781 22.03125 C 15.242188 21.914062 15.621094 22.078125 15.726562 22.476562 C 15.875 23.015625 15.394531 23.359375 14.519531 23.566406 C 14.542969 23.628906 14.589844 23.71875 14.648438 23.769531 C 14.761719 23.855469 14.921875 23.875 15.105469 23.828125 C 15.339844 23.765625 15.527344 23.660156 15.671875 23.53125 Z M 14.847656 22.511719 C 14.550781 22.59375 14.449219 22.882812 14.453125 23.089844 C 14.953125 22.964844 15.183594 22.828125 15.128906 22.628906 C 15.101562 22.523438 14.996094 22.472656 14.847656 22.511719 Z M 14.847656 22.511719 "/>
<path style=" stroke:none;fill-rule:nonzero;fill:rgb(100%,100%,0%);fill-opacity:1;" d="M 21.019531 21.324219 C 21.230469 22.105469 20.839844 22.824219 20.097656 23.019531 C 19.554688 23.164062 19.085938 22.90625 18.941406 22.375 C 18.742188 21.636719 19.09375 20.886719 19.863281 20.679688 C 20.441406 20.527344 20.886719 20.832031 21.019531 21.324219 Z M 19.597656 22.191406 C 19.664062 22.445312 19.832031 22.574219 20.058594 22.511719 C 20.398438 22.421875 20.460938 21.859375 20.363281 21.5 C 20.308594 21.300781 20.160156 21.113281 19.914062 21.179688 C 19.542969 21.285156 19.507812 21.859375 19.597656 22.191406 Z M 19.597656 22.191406 "/>
<path style=" stroke:none;fill-rule:nonzero;fill:rgb(100%,100%,0%);fill-opacity:1;" d="M 22.238281 19.242188 L 22.464844 22.339844 L 23.097656 22.171875 L 22.875 19.074219 Z M 22.238281 19.242188 "/>
<path style=" stroke:none;fill-rule:nonzero;fill:rgb(100%,100%,0%);fill-opacity:1;" d="M 21.199219 19.515625 L 21.429688 22.617188 L 22.066406 22.445312 L 21.835938 19.347656 Z M 21.199219 19.515625 "/>
<path style=" stroke:none;fill-rule:nonzero;fill:rgb(100%,100%,0%);fill-opacity:1;" d="M 15.945312 20.910156 L 16.171875 24.011719 L 16.808594 23.84375 L 16.582031 20.742188 Z M 15.945312 20.910156 "/>
<path style=" stroke:none;fill-rule:nonzero;fill:rgb(100%,100%,0%);fill-opacity:1;" d="M 16.78125 20.6875 L 16.820312 21.269531 L 17.605469 21.0625 L 17.796875 23.578125 L 18.433594 23.410156 L 18.238281 20.894531 L 19.035156 20.683594 L 18.992188 20.101562 Z M 16.78125 20.6875 "/>
<path style=" stroke:none;fill-rule:nonzero;fill:rgb(0%,0%,0%);fill-opacity:1;" d="M 11.214844 22.21875 C 11.414062 22.121094 11.6875 22.019531 11.980469 21.941406 C 12.292969 21.859375 12.53125 21.839844 12.757812 21.898438 C 12.984375 21.945312 13.179688 22.101562 13.246094 22.347656 C 13.347656 22.71875 13.136719 23.027344 12.835938 23.203125 L 12.839844 23.21875 C 13.152344 23.234375 13.394531 23.417969 13.480469 23.742188 C 13.570312 24.0625 13.453125 24.332031 13.261719 24.546875 C 13.054688 24.789062 12.703125 24.953125 12.207031 25.085938 C 11.871094 25.175781 11.597656 25.226562 11.4375 25.234375 Z M 12.027344 24.59375 C 12.105469 24.585938 12.179688 24.566406 12.273438 24.539062 C 12.617188 24.449219 12.894531 24.230469 12.804688 23.902344 C 12.726562 23.609375 12.453125 23.585938 12.15625 23.664062 L 11.953125 23.71875 Z M 11.9375 23.230469 L 12.148438 23.171875 C 12.496094 23.082031 12.695312 22.871094 12.625 22.613281 C 12.570312 22.402344 12.367188 22.355469 12.128906 22.417969 C 12.019531 22.449219 11.933594 22.484375 11.878906 22.503906 Z M 11.9375 23.230469 "/>
<path style="fill:none;stroke-width:5;stroke-linecap:butt;stroke-linejoin:round;stroke:rgb(0%,0%,0%);stroke-opacity:1;stroke-miterlimit:4;" d="M 571.09375 303.278996 C 563.28125 274.252554 538.828125 260.133714 509.84375 267.863582 " transform="matrix(0.05,0,0,0.0495238,0,0)"/>
<path style="fill:none;stroke-width:5;stroke-linecap:butt;stroke-linejoin:round;stroke:rgb(0%,0%,0%);stroke-opacity:1;stroke-miterlimit:4;" d="M 580.703125 300.676082 C 571.640625 266.838191 541.015625 249.169922 507.265625 258.240685 " transform="matrix(0.05,0,0,0.0495238,0,0)"/>
<path style="fill:none;stroke-width:5;stroke-linecap:butt;stroke-linejoin:round;stroke:rgb(0%,0%,0%);stroke-opacity:1;stroke-miterlimit:4;" d="M 590.390625 298.073167 C 580 259.423828 543.28125 238.20613 504.609375 248.538912 " transform="matrix(0.05,0,0,0.0495238,0,0)"/>
</g>
</svg>
