<?xml version="1.0" encoding="UTF-8"?>
<svg xmlns="http://www.w3.org/2000/svg" xmlns:xlink="http://www.w3.org/1999/xlink" width="35px" height="35px" viewBox="0 0 35 52" version="1.1">
<g id="surface1">
<path style=" stroke:none;fill-rule:nonzero;fill:rgb(100%,100%,100%);fill-opacity:1;" d="M 2.25 0 L 32.75 0 C 33.992188 0 35 0.996094 35 2.230469 L 35 49.769531 C 35 51.003906 33.992188 52 32.75 52 L 2.25 52 C 1.007812 52 0 51.003906 0 49.769531 L 0 2.230469 C 0 0.996094 1.007812 0 2.25 0 Z M 2.25 0 "/>
<path style=" stroke:none;fill-rule:nonzero;fill:rgb(5.098039%,41.176471%,88.235294%);fill-opacity:1;" d="M 2.25 0.992188 C 1.558594 0.992188 1 1.542969 1 2.230469 L 1 49.769531 C 1 50.457031 1.558594 51.007812 2.25 51.007812 L 32.75 51.007812 C 33.441406 51.007812 34 50.457031 34 49.769531 L 34 2.230469 C 34 1.542969 33.441406 0.992188 32.75 0.992188 Z M 5.53125 8.667969 L 29.46875 8.667969 C 30.714844 8.667969 31.71875 9.660156 31.71875 10.894531 L 31.71875 34.605469 C 31.71875 35.839844 30.714844 36.832031 29.46875 36.832031 L 5.53125 36.832031 C 4.285156 36.832031 3.28125 35.839844 3.28125 34.605469 L 3.28125 10.894531 C 3.28125 9.660156 4.285156 8.667969 5.53125 8.667969 Z M 5.53125 8.667969 "/>
<path style="fill:none;stroke-width:2;stroke-linecap:butt;stroke-linejoin:miter;stroke:rgb(0%,0%,0%);stroke-opacity:1;stroke-miterlimit:4;" d="M 45 3.387558 L 655 3.387558 C 679.296875 3.387558 698.984375 23.027733 698.984375 47.400479 L 698.984375 1007.323857 C 698.984375 1031.696603 679.296875 1051.336777 655 1051.336777 L 45 1051.336777 C 20.703125 1051.336777 1.015625 1031.696603 1.015625 1007.323857 L 1.015625 47.400479 C 1.015625 23.027733 20.703125 3.387558 45 3.387558 Z M 45 3.387558 " transform="matrix(0.05,0,0,0.0495238,0,-0.116984)"/>
<path style=" stroke:none;fill-rule:nonzero;fill:rgb(100%,100%,100%);fill-opacity:1;" d="M 9.542969 41.097656 C 9.082031 41.097656 8.6875 41.21875 8.355469 41.453125 C 8.023438 41.691406 7.851562 42.046875 7.832031 42.519531 C 7.847656 42.835938 7.929688 43.078125 8.082031 43.257812 C 8.234375 43.4375 8.390625 43.5625 8.542969 43.632812 C 8.695312 43.707031 8.777344 43.742188 8.789062 43.738281 C 8.777344 43.738281 8.683594 43.785156 8.507812 43.878906 C 8.332031 43.972656 8.15625 44.121094 7.980469 44.320312 C 7.804688 44.519531 7.710938 44.777344 7.695312 45.09375 C 7.6875 45.453125 7.824219 45.800781 8.105469 46.125 C 8.390625 46.453125 8.867188 46.628906 9.542969 46.652344 C 10.21875 46.628906 10.695312 46.453125 10.976562 46.125 C 11.261719 45.800781 11.398438 45.453125 11.386719 45.09375 C 11.375 44.777344 11.28125 44.519531 11.105469 44.320312 C 10.929688 44.121094 10.753906 43.972656 10.578125 43.878906 C 10.402344 43.785156 10.308594 43.738281 10.292969 43.738281 C 10.308594 43.742188 10.390625 43.707031 10.542969 43.632812 C 10.695312 43.5625 10.851562 43.4375 11.003906 43.257812 C 11.15625 43.078125 11.238281 42.835938 11.25 42.519531 C 11.234375 42.046875 11.0625 41.691406 10.730469 41.453125 C 10.398438 41.21875 10.003906 41.097656 9.542969 41.097656 Z M 9.542969 41.871094 C 9.753906 41.871094 9.929688 41.917969 10.074219 42.019531 C 10.214844 42.121094 10.289062 42.285156 10.292969 42.519531 C 10.261719 42.734375 10.136719 42.917969 9.917969 43.078125 C 9.699219 43.242188 9.574219 43.324219 9.542969 43.332031 C 9.511719 43.324219 9.386719 43.242188 9.167969 43.078125 C 8.949219 42.917969 8.824219 42.734375 8.789062 42.519531 C 8.796875 42.285156 8.871094 42.121094 9.011719 42.019531 C 9.15625 41.917969 9.332031 41.871094 9.542969 41.871094 Z M 9.542969 44.144531 C 9.554688 44.148438 9.628906 44.195312 9.773438 44.289062 C 9.914062 44.382812 10.058594 44.503906 10.203125 44.65625 C 10.34375 44.808594 10.421875 44.976562 10.429688 45.160156 C 10.421875 45.398438 10.324219 45.570312 10.140625 45.679688 C 9.957031 45.785156 9.757812 45.839844 9.542969 45.839844 C 9.328125 45.839844 9.128906 45.785156 8.945312 45.679688 C 8.761719 45.570312 8.664062 45.398438 8.652344 45.160156 C 8.664062 45 8.742188 44.839844 8.882812 44.6875 C 9.027344 44.535156 9.171875 44.40625 9.3125 44.304688 C 9.457031 44.203125 9.53125 44.148438 9.542969 44.144531 Z M 9.542969 44.144531 "/>
<path style=" stroke:none;fill-rule:nonzero;fill:rgb(100%,100%,100%);fill-opacity:1;" d="M 14.464844 41.097656 C 13.910156 41.113281 13.464844 41.371094 13.132812 41.878906 C 12.796875 42.382812 12.625 43.046875 12.617188 43.875 C 12.625 44.703125 12.796875 45.367188 13.132812 45.871094 C 13.464844 46.378906 13.910156 46.636719 14.464844 46.652344 C 15.019531 46.636719 15.464844 46.378906 15.796875 45.871094 C 16.128906 45.367188 16.300781 44.703125 16.308594 43.875 C 16.300781 43.085938 16.128906 42.429688 15.796875 41.910156 C 15.464844 41.390625 15.019531 41.117188 14.464844 41.097656 Z M 14.464844 41.941406 C 14.730469 41.9375 14.945312 42.089844 15.105469 42.398438 C 15.265625 42.710938 15.347656 43.203125 15.351562 43.875 C 15.347656 44.546875 15.265625 45.039062 15.105469 45.351562 C 14.945312 45.660156 14.730469 45.8125 14.464844 45.808594 C 14.195312 45.8125 13.980469 45.660156 13.820312 45.351562 C 13.660156 45.039062 13.578125 44.546875 13.574219 43.875 C 13.578125 43.203125 13.660156 42.710938 13.820312 42.398438 C 13.980469 42.089844 14.195312 41.9375 14.464844 41.941406 Z M 14.464844 41.941406 "/>
<path style=" stroke:none;fill-rule:nonzero;fill:rgb(100%,100%,100%);fill-opacity:1;" d="M 19.386719 41.097656 C 18.828125 41.113281 18.386719 41.371094 18.050781 41.878906 C 17.71875 42.382812 17.546875 43.046875 17.539062 43.875 C 17.546875 44.703125 17.71875 45.367188 18.050781 45.871094 C 18.386719 46.378906 18.828125 46.636719 19.386719 46.652344 C 19.941406 46.636719 20.382812 46.378906 20.71875 45.871094 C 21.050781 45.367188 21.222656 44.703125 21.230469 43.875 C 21.222656 43.085938 21.050781 42.429688 20.71875 41.910156 C 20.382812 41.390625 19.941406 41.117188 19.386719 41.097656 Z M 19.386719 41.941406 C 19.652344 41.9375 19.867188 42.089844 20.027344 42.398438 C 20.1875 42.710938 20.269531 43.203125 20.273438 43.875 C 20.269531 44.546875 20.1875 45.039062 20.027344 45.351562 C 19.867188 45.660156 19.652344 45.8125 19.386719 45.808594 C 19.117188 45.8125 18.902344 45.660156 18.742188 45.351562 C 18.582031 45.039062 18.5 44.546875 18.496094 43.875 C 18.5 43.203125 18.582031 42.710938 18.742188 42.398438 C 18.902344 42.089844 19.117188 41.9375 19.386719 41.941406 Z M 19.386719 41.941406 "/>
<path style=" stroke:none;fill-rule:nonzero;fill:rgb(100%,100%,100%);fill-opacity:1;" d="M 23.074219 46.582031 L 23.894531 46.582031 L 24.097656 43.941406 L 25.191406 46.109375 L 26.285156 43.941406 L 26.492188 46.582031 L 27.3125 46.582031 L 26.96875 42.792969 L 26.148438 42.792969 L 25.191406 44.6875 L 24.234375 42.792969 L 23.414062 42.792969 Z M 23.074219 46.582031 "/>
<path style=" stroke:none;fill-rule:nonzero;fill:rgb(8.627451%,51.372549%,5.490196%);fill-opacity:1;" d="M 22.46875 10.59375 C 21.804688 10.59375 21.269531 11.125 21.269531 11.78125 L 21.269531 32.171875 L 31.175781 32.171875 L 31.175781 11.78125 C 31.175781 11.125 30.644531 10.59375 29.980469 10.59375 Z M 23.449219 12.753906 L 29 12.753906 C 29.300781 12.753906 29.542969 12.992188 29.542969 13.292969 L 29.542969 18.6875 C 29.542969 18.984375 29.300781 19.226562 29 19.226562 L 23.449219 19.226562 C 23.148438 19.226562 22.90625 18.984375 22.90625 18.6875 L 22.90625 13.292969 C 22.90625 12.992188 23.148438 12.753906 23.449219 12.753906 Z M 23.449219 12.753906 "/>
<path style=" stroke:none;fill-rule:evenodd;fill:rgb(100%,100%,100%);fill-opacity:1;" d="M 18.300781 12.992188 L 26.324219 12.992188 L 26.324219 20.640625 L 18.300781 20.640625 Z M 18.300781 12.992188 "/>
<path style=" stroke:none;fill-rule:nonzero;fill:rgb(5.098039%,41.176471%,88.235294%);fill-opacity:1;" d="M 18.855469 11.570312 C 18.191406 11.570312 17.65625 12.101562 17.65625 12.757812 L 17.65625 33.148438 L 27.5625 33.148438 L 27.5625 12.757812 C 27.5625 12.101562 27.027344 11.570312 26.363281 11.570312 Z M 19.835938 13.730469 L 25.382812 13.730469 C 25.683594 13.730469 25.929688 13.96875 25.929688 14.269531 L 25.929688 19.664062 C 25.929688 19.960938 25.683594 20.203125 25.382812 20.203125 L 19.835938 20.203125 C 19.53125 20.203125 19.289062 19.960938 19.289062 19.664062 L 19.289062 14.269531 C 19.289062 13.96875 19.53125 13.730469 19.835938 13.730469 Z M 19.835938 13.730469 "/>
<path style=" stroke:none;fill-rule:evenodd;fill:rgb(100%,100%,100%);fill-opacity:1;" d="M 15.253906 14.695312 L 23.273438 14.695312 L 23.273438 21.578125 L 15.253906 21.578125 Z M 15.253906 14.695312 "/>
<path style=" stroke:none;fill-rule:nonzero;fill:rgb(0%,0%,0%);fill-opacity:1;" d="M 15.894531 12.875 C 15.234375 12.875 14.699219 13.402344 14.699219 14.058594 L 14.699219 34.449219 L 24.605469 34.449219 L 24.605469 14.058594 C 24.605469 13.402344 24.070312 12.875 23.40625 12.875 Z M 13.066406 14.492188 C 12.164062 14.492188 11.429688 15.214844 11.429688 16.109375 L 11.429688 18.269531 C 11.429688 19.007812 11.152344 19.71875 10.652344 20.265625 L 5.082031 26.328125 C 4.261719 27.222656 3.804688 28.386719 3.804688 29.59375 C 3.804688 32.277344 6 34.449219 8.707031 34.449219 C 11.414062 34.449219 13.609375 32.277344 13.609375 29.59375 L 13.609375 23.121094 C 13.609375 22.824219 13.851562 22.582031 14.152344 22.582031 L 14.152344 21.503906 C 13.25 21.503906 12.519531 22.226562 12.519531 23.121094 L 12.519531 29.59375 C 12.519531 31.679688 10.8125 33.371094 8.707031 33.371094 C 6.601562 33.371094 4.894531 31.679688 4.894531 29.59375 C 4.894531 28.65625 5.25 27.75 5.886719 27.054688 L 11.457031 20.988281 C 12.140625 20.246094 12.519531 19.273438 12.519531 18.269531 L 12.519531 16.109375 C 12.519531 15.8125 12.765625 15.570312 13.066406 15.570312 L 14.152344 15.570312 L 14.152344 14.492188 Z M 16.875 15.03125 L 22.425781 15.03125 C 22.726562 15.03125 22.96875 15.273438 22.96875 15.570312 L 22.96875 20.964844 C 22.96875 21.261719 22.726562 21.503906 22.425781 21.503906 L 16.875 21.503906 C 16.574219 21.503906 16.332031 21.261719 16.332031 20.964844 L 16.332031 15.570312 C 16.332031 15.273438 16.574219 15.03125 16.875 15.03125 Z M 16.875 15.03125 "/>
</g>
</svg>
