<?xml version="1.0" encoding="UTF-8"?>
<svg xmlns="http://www.w3.org/2000/svg" xmlns:xlink="http://www.w3.org/1999/xlink" width="35px" height="35px" viewBox="0 0 35 52" version="1.1">
<g id="surface1">
<path style=" stroke:none;fill-rule:nonzero;fill:rgb(100%,100%,100%);fill-opacity:1;" d="M 2.25 0 L 32.75 0 C 33.992188 0 35 0.996094 35 2.230469 L 35 49.769531 C 35 51.003906 33.992188 52 32.75 52 L 2.25 52 C 1.007812 52 0 51.003906 0 49.769531 L 0 2.230469 C 0 0.996094 1.007812 0 2.25 0 Z M 2.25 0 "/>
<path style=" stroke:none;fill-rule:nonzero;fill:rgb(5.098039%,41.176471%,88.235294%);fill-opacity:1;" d="M 2.25 0.992188 C 1.558594 0.992188 1 1.542969 1 2.230469 L 1 49.769531 C 1 50.457031 1.558594 51.007812 2.25 51.007812 L 32.75 51.007812 C 33.441406 51.007812 34 50.457031 34 49.769531 L 34 2.230469 C 34 1.542969 33.441406 0.992188 32.75 0.992188 Z M 5.53125 8.667969 L 29.46875 8.667969 C 30.714844 8.667969 31.71875 9.660156 31.71875 10.894531 L 31.71875 34.605469 C 31.71875 35.839844 30.714844 36.832031 29.46875 36.832031 L 5.53125 36.832031 C 4.285156 36.832031 3.28125 35.839844 3.28125 34.605469 L 3.28125 10.894531 C 3.28125 9.660156 4.285156 8.667969 5.53125 8.667969 Z M 5.53125 8.667969 "/>
<path style="fill:none;stroke-width:2;stroke-linecap:butt;stroke-linejoin:miter;stroke:rgb(0%,0%,0%);stroke-opacity:1;stroke-miterlimit:4;" d="M 45 3.387574 L 655 3.387574 C 679.296875 3.387574 698.984375 23.027748 698.984375 47.400494 L 698.984375 1007.323872 C 698.984375 1031.696618 679.296875 1051.336792 655 1051.336792 L 45 1051.336792 C 20.703125 1051.336792 1.015625 1031.696618 1.015625 1007.323872 L 1.015625 47.400494 C 1.015625 23.027748 20.703125 3.387574 45 3.387574 Z M 45 3.387574 " transform="matrix(0.05,0,0,0.0495238,0,-0.116984)"/>
<path style=" stroke:none;fill-rule:nonzero;fill:rgb(100%,100%,100%);fill-opacity:1;" d="M 4.589844 42.425781 L 4.910156 42.839844 L 5.644531 42.386719 L 5.644531 46.582031 L 6.601562 46.582031 L 6.601562 41.167969 L 5.78125 41.167969 Z M 4.589844 42.425781 "/>
<path style=" stroke:none;fill-rule:nonzero;fill:rgb(100%,100%,100%);fill-opacity:1;" d="M 9.4375 41.097656 C 8.882812 41.113281 8.4375 41.371094 8.105469 41.878906 C 7.773438 42.382812 7.601562 43.046875 7.59375 43.875 C 7.601562 44.703125 7.773438 45.367188 8.105469 45.871094 C 8.4375 46.378906 8.882812 46.636719 9.4375 46.652344 C 9.996094 46.636719 10.4375 46.378906 10.773438 45.871094 C 11.105469 45.367188 11.277344 44.703125 11.285156 43.875 C 11.277344 43.085938 11.105469 42.429688 10.773438 41.910156 C 10.4375 41.390625 9.996094 41.117188 9.4375 41.097656 Z M 9.4375 41.941406 C 9.707031 41.9375 9.921875 42.089844 10.082031 42.398438 C 10.242188 42.710938 10.324219 43.203125 10.328125 43.875 C 10.324219 44.546875 10.242188 45.039062 10.082031 45.351562 C 9.921875 45.660156 9.707031 45.8125 9.4375 45.808594 C 9.171875 45.8125 8.957031 45.660156 8.796875 45.351562 C 8.636719 45.039062 8.554688 44.546875 8.550781 43.875 C 8.554688 43.203125 8.636719 42.710938 8.796875 42.398438 C 8.957031 42.089844 9.171875 41.9375 9.4375 41.941406 Z M 9.4375 41.941406 "/>
<path style=" stroke:none;fill-rule:nonzero;fill:rgb(100%,100%,100%);fill-opacity:1;" d="M 13.710938 41.097656 C 13.152344 41.113281 12.710938 41.371094 12.375 41.878906 C 12.042969 42.382812 11.871094 43.046875 11.863281 43.875 C 11.871094 44.703125 12.042969 45.367188 12.375 45.871094 C 12.710938 46.378906 13.152344 46.636719 13.710938 46.652344 C 14.265625 46.636719 14.707031 46.378906 15.042969 45.871094 C 15.375 45.367188 15.546875 44.703125 15.554688 43.875 C 15.546875 43.085938 15.375 42.429688 15.042969 41.910156 C 14.707031 41.390625 14.265625 41.117188 13.710938 41.097656 Z M 13.710938 41.941406 C 13.976562 41.9375 14.191406 42.089844 14.351562 42.398438 C 14.511719 42.710938 14.59375 43.203125 14.597656 43.875 C 14.59375 44.546875 14.511719 45.039062 14.351562 45.351562 C 14.191406 45.660156 13.976562 45.8125 13.710938 45.808594 C 13.441406 45.8125 13.226562 45.660156 13.066406 45.351562 C 12.90625 45.039062 12.824219 44.546875 12.820312 43.875 C 12.824219 43.203125 12.90625 42.710938 13.066406 42.398438 C 13.226562 42.089844 13.441406 41.9375 13.710938 41.941406 Z M 13.710938 41.941406 "/>
<path style=" stroke:none;fill-rule:nonzero;fill:rgb(100%,100%,100%);fill-opacity:1;" d="M 17.007812 46.582031 L 17.828125 46.582031 L 18.035156 43.941406 L 19.128906 46.109375 L 20.222656 43.941406 L 20.425781 46.582031 L 21.246094 46.582031 L 20.90625 42.792969 L 20.085938 42.792969 L 19.128906 44.6875 L 18.171875 42.792969 L 17.351562 42.792969 Z M 17.007812 46.582031 "/>
<path style=" stroke:none;fill-rule:nonzero;fill:rgb(0%,0%,0%);fill-opacity:1;" d="M 18.59375 15.707031 L 18.59375 14.082031 L 21.328125 14.082031 L 21.328125 10.832031 L 15.3125 10.832031 L 12.648438 12.675781 C 12.15625 13.019531 11.792969 13.515625 11.609375 14.082031 L 16.40625 14.082031 L 16.40625 15.707031 L 11.609375 15.707031 C 11.832031 16.40625 12.335938 17.003906 13.027344 17.332031 L 14.730469 17.332031 C 14.742188 17.335938 14.757812 17.339844 14.769531 17.34375 C 15.683594 17.65625 16.167969 18.644531 15.855469 19.550781 L 15.3125 21.105469 L 15.3125 33.582031 C 15.3125 34.78125 16.292969 35.75 17.5 35.75 C 18.707031 35.75 19.6875 34.78125 19.6875 33.582031 L 19.6875 21.105469 L 19.144531 19.550781 C 18.832031 18.644531 19.316406 17.65625 20.230469 17.34375 C 20.242188 17.339844 20.257812 17.335938 20.269531 17.332031 L 21.328125 17.332031 L 21.328125 15.707031 Z M 18.59375 15.707031 "/>
<path style=" stroke:none;fill-rule:nonzero;fill:rgb(100%,100%,100%);fill-opacity:1;" d="M 26.25 42.792969 L 26.25 41.167969 L 30.988281 43.875 L 26.25 46.582031 L 26.25 44.957031 L 24.0625 44.957031 L 24.0625 42.792969 Z M 26.25 42.792969 "/>
</g>
</svg>
