<?xml version="1.0" encoding="UTF-8"?>
<svg xmlns="http://www.w3.org/2000/svg" xmlns:xlink="http://www.w3.org/1999/xlink" width="35px" height="35px" viewBox="0 0 35 52" version="1.1">
<g id="surface1">
<path style=" stroke:none;fill-rule:nonzero;fill:rgb(100%,100%,100%);fill-opacity:1;" d="M 2.25 0 L 32.75 0 C 33.992188 0 35 0.996094 35 2.230469 L 35 49.769531 C 35 51.003906 33.992188 52 32.75 52 L 2.25 52 C 1.007812 52 0 51.003906 0 49.769531 L 0 2.230469 C 0 0.996094 1.007812 0 2.25 0 Z M 2.25 0 "/>
<path style=" stroke:none;fill-rule:nonzero;fill:rgb(5.098039%,41.176471%,88.235294%);fill-opacity:1;" d="M 2.25 0.992188 C 1.558594 0.992188 1 1.542969 1 2.230469 L 1 49.769531 C 1 50.457031 1.558594 51.007812 2.25 51.007812 L 32.75 51.007812 C 33.441406 51.007812 34 50.457031 34 49.769531 L 34 2.230469 C 34 1.542969 33.441406 0.992188 32.75 0.992188 Z M 5.53125 8.667969 L 29.46875 8.667969 C 30.714844 8.667969 31.71875 9.660156 31.71875 10.894531 L 31.71875 34.605469 C 31.71875 35.839844 30.714844 36.832031 29.46875 36.832031 L 5.53125 36.832031 C 4.285156 36.832031 3.28125 35.839844 3.28125 34.605469 L 3.28125 10.894531 C 3.28125 9.660156 4.285156 8.667969 5.53125 8.667969 Z M 5.53125 8.667969 "/>
<path style="fill:none;stroke-width:2;stroke-linecap:butt;stroke-linejoin:miter;stroke:rgb(0%,0%,0%);stroke-opacity:1;stroke-miterlimit:4;" d="M 45 3.387574 L 655 3.387574 C 679.296875 3.387574 698.984375 23.027748 698.984375 47.400494 L 698.984375 1007.323872 C 698.984375 1031.696618 679.296875 1051.336792 655 1051.336792 L 45 1051.336792 C 20.703125 1051.336792 1.015625 1031.696618 1.015625 1007.323872 L 1.015625 47.400494 C 1.015625 23.027748 20.703125 3.387574 45 3.387574 Z M 45 3.387574 " transform="matrix(0.05,0,0,0.0495238,0,-0.116984)"/>
<path style=" stroke:none;fill-rule:nonzero;fill:rgb(0%,0%,0%);fill-opacity:1;" d="M 13.523438 22.207031 C 13.207031 22.207031 12.871094 22.445312 12.769531 22.742188 L 12.386719 23.832031 L 11.597656 26.097656 C 11.597656 26.097656 11.597656 26.101562 11.597656 26.101562 L 11.414062 26.628906 C 10.964844 26.628906 10.601562 26.988281 10.601562 27.433594 L 10.601562 30.648438 C 10.601562 31.09375 10.964844 31.453125 11.414062 31.453125 L 23.585938 31.453125 C 24.035156 31.453125 24.398438 31.09375 24.398438 30.648438 L 24.398438 27.433594 C 24.398438 26.988281 24.035156 26.628906 23.585938 26.628906 L 23.402344 26.101562 C 23.402344 26.101562 23.402344 26.097656 23.402344 26.097656 L 22.613281 23.832031 L 22.230469 22.742188 C 22.128906 22.445312 21.792969 22.207031 21.476562 22.207031 Z M 13.769531 23.011719 L 21.230469 23.011719 C 21.386719 23.011719 21.554688 23.128906 21.609375 23.277344 L 22.773438 26.628906 L 12.226562 26.628906 L 13.390625 23.277344 C 13.445312 23.128906 13.613281 23.011719 13.769531 23.011719 Z M 13.769531 23.011719 "/>
<path style=" stroke:none;fill-rule:nonzero;fill:rgb(0%,0%,0%);fill-opacity:1;" d="M 11.414062 31.851562 L 11.414062 33.460938 C 11.414062 34.125 11.957031 34.667969 12.632812 34.667969 C 13.304688 34.667969 13.847656 34.125 13.847656 33.460938 L 13.847656 31.851562 Z M 11.414062 31.851562 "/>
<path style=" stroke:none;fill-rule:nonzero;fill:rgb(0%,0%,0%);fill-opacity:1;" d="M 21.152344 31.851562 L 21.152344 33.460938 C 21.152344 34.125 21.695312 34.667969 22.367188 34.667969 C 23.042969 34.667969 23.585938 34.125 23.585938 33.460938 L 23.585938 31.851562 Z M 21.152344 31.851562 "/>
<path style=" stroke:none;fill-rule:nonzero;fill:rgb(0%,0%,0%);fill-opacity:1;" d="M 16.40625 11.539062 C 16.40625 12.34375 15.746094 13 14.929688 13 L 14.601562 13 C 13.785156 13 13.125 13.65625 13.125 14.460938 L 13.125 15.167969 L 21.875 15.167969 L 21.875 14.460938 C 21.875 13.65625 21.214844 13 20.398438 13 L 20.070312 13 C 19.253906 13 18.59375 12.34375 18.59375 11.539062 L 18.59375 10.832031 L 16.40625 10.832031 Z M 16.40625 11.539062 "/>
<path style=" stroke:none;fill-rule:nonzero;fill:rgb(0%,0%,0%);fill-opacity:1;" d="M 17.226562 15.707031 L 17.773438 15.707031 L 17.773438 21.667969 L 17.226562 21.667969 Z M 17.226562 15.707031 "/>
<path style=" stroke:none;fill-rule:nonzero;fill:rgb(0%,0%,0%);fill-opacity:1;" d="M 19.6875 15.707031 L 20.234375 21.667969 L 20.78125 21.667969 L 20.234375 15.707031 Z M 19.6875 15.707031 "/>
<path style=" stroke:none;fill-rule:nonzero;fill:rgb(0%,0%,0%);fill-opacity:1;" d="M 21.328125 15.707031 L 27.890625 34.667969 L 28.4375 34.667969 L 21.875 15.707031 Z M 21.328125 15.707031 "/>
<path style=" stroke:none;fill-rule:nonzero;fill:rgb(0%,0%,0%);fill-opacity:1;" d="M 15.3125 15.707031 L 14.765625 21.667969 L 14.21875 21.667969 L 14.765625 15.707031 Z M 15.3125 15.707031 "/>
<path style=" stroke:none;fill-rule:nonzero;fill:rgb(0%,0%,0%);fill-opacity:1;" d="M 13.671875 15.707031 L 7.109375 34.667969 L 6.5625 34.667969 L 13.125 15.707031 Z M 13.671875 15.707031 "/>
</g>
</svg>
