<?xml version="1.0" encoding="UTF-8"?>
<svg xmlns="http://www.w3.org/2000/svg" xmlns:xlink="http://www.w3.org/1999/xlink" width="35px" height="35px" viewBox="0 0 35 52" version="1.1">
<g id="surface1">
<path style=" stroke:none;fill-rule:nonzero;fill:rgb(100%,100%,100%);fill-opacity:1;" d="M 2.25 0 L 32.75 0 C 33.992188 0 35 0.996094 35 2.230469 L 35 49.769531 C 35 51.003906 33.992188 52 32.75 52 L 2.25 52 C 1.007812 52 0 51.003906 0 49.769531 L 0 2.230469 C 0 0.996094 1.007812 0 2.25 0 Z M 2.25 0 "/>
<path style=" stroke:none;fill-rule:nonzero;fill:rgb(5.098039%,41.176471%,88.235294%);fill-opacity:1;" d="M 2.25 0.992188 C 1.558594 0.992188 1 1.542969 1 2.230469 L 1 49.769531 C 1 50.457031 1.558594 51.007812 2.25 51.007812 L 32.75 51.007812 C 33.441406 51.007812 34 50.457031 34 49.769531 L 34 2.230469 C 34 1.542969 33.441406 0.992188 32.75 0.992188 Z M 5.53125 8.667969 L 29.46875 8.667969 C 30.714844 8.667969 31.71875 9.660156 31.71875 10.894531 L 31.71875 34.605469 C 31.71875 35.839844 30.714844 36.832031 29.46875 36.832031 L 5.53125 36.832031 C 4.285156 36.832031 3.28125 35.839844 3.28125 34.605469 L 3.28125 10.894531 C 3.28125 9.660156 4.285156 8.667969 5.53125 8.667969 Z M 5.53125 8.667969 "/>
<path style="fill:none;stroke-width:2;stroke-linecap:butt;stroke-linejoin:miter;stroke:rgb(0%,0%,0%);stroke-opacity:1;stroke-miterlimit:4;" d="M 45 3.387574 L 655 3.387574 C 679.296875 3.387574 698.984375 23.027748 698.984375 47.400494 L 698.984375 1007.323872 C 698.984375 1031.696618 679.296875 1051.336792 655 1051.336792 L 45 1051.336792 C 20.703125 1051.336792 1.015625 1031.696618 1.015625 1007.323872 L 1.015625 47.400494 C 1.015625 23.027748 20.703125 3.387574 45 3.387574 Z M 45 3.387574 " transform="matrix(0.05,0,0,0.0495238,0,-0.116984)"/>
<path style=" stroke:none;fill-rule:nonzero;fill:rgb(0%,0%,0%);fill-opacity:1;" d="M 22.96875 21.667969 C 22.582031 21.667969 22.28125 21.9375 21.941406 22.273438 C 21.300781 22.910156 20.261719 22.910156 19.621094 22.273438 L 19.621094 22.269531 C 19.058594 21.707031 18.296875 21.394531 17.5 21.394531 C 16.28125 21.394531 15.109375 21.894531 14.246094 22.777344 C 13.527344 23.488281 13.125 24.453125 13.125 25.457031 L 13.125 27.082031 L 9.84375 27.082031 L 9.84375 25.457031 C 9.84375 21.570312 13.027344 18.417969 16.953125 18.417969 L 17.0625 18.417969 C 17.605469 18.417969 18.046875 17.980469 18.046875 17.441406 L 18.046875 16.792969 C 18.046875 16.492188 18.292969 16.25 18.59375 16.25 L 19.6875 16.25 L 19.6875 14.082031 L 17.5 14.082031 C 16.894531 14.082031 16.40625 13.597656 16.40625 13 C 16.40625 12.402344 16.894531 11.917969 17.5 11.917969 L 24.0625 11.917969 C 24.667969 11.917969 25.15625 12.402344 25.15625 13 C 25.15625 13.597656 24.667969 14.082031 24.0625 14.082031 L 21.875 14.082031 L 21.875 16.25 L 22.96875 16.25 C 23.269531 16.25 23.515625 16.492188 23.515625 16.792969 L 23.515625 17.441406 C 23.515625 17.980469 23.957031 18.417969 24.5 18.417969 L 28.4375 18.417969 L 28.4375 17.332031 C 28.4375 16.734375 28.925781 16.25 29.53125 16.25 L 29.53125 23.832031 C 28.925781 23.832031 28.4375 23.347656 28.4375 22.75 L 28.4375 21.667969 Z M 22.96875 21.667969 "/>
<path style=" stroke:none;fill-rule:nonzero;fill:rgb(0%,0%,0%);fill-opacity:1;" d="M 11.265625 27.734375 L 11.703125 27.734375 L 11.703125 34.667969 L 11.265625 34.667969 Z M 11.265625 27.734375 "/>
<path style=" stroke:none;fill-rule:nonzero;fill:rgb(0%,0%,0%);fill-opacity:1;" d="M 10.71875 27.734375 L 10.28125 27.734375 L 9.40625 34.667969 L 9.84375 34.667969 Z M 10.71875 27.734375 "/>
<path style=" stroke:none;fill-rule:nonzero;fill:rgb(0%,0%,0%);fill-opacity:1;" d="M 12.25 27.734375 L 12.6875 27.734375 L 13.5625 34.667969 L 13.125 34.667969 Z M 12.25 27.734375 "/>
</g>
</svg>
