<?xml version="1.0" encoding="UTF-8"?>
<svg xmlns="http://www.w3.org/2000/svg" xmlns:xlink="http://www.w3.org/1999/xlink" width="35px" height="35px" viewBox="0 0 35 17" version="1.1">
<g id="surface1">
<path style=" stroke:none;fill-rule:nonzero;fill:rgb(0%,0%,0%);fill-opacity:1;" d="M 2.625 0 L 32.375 0 C 33.824219 0 35 1.140625 35 2.550781 L 35 14.449219 C 35 15.859375 33.824219 17 32.375 17 L 2.625 17 C 1.175781 17 0 15.859375 0 14.449219 L 0 2.550781 C 0 1.140625 1.175781 0 2.625 0 Z M 2.625 0 "/>
<path style=" stroke:none;fill-rule:nonzero;fill:rgb(100%,100%,100%);fill-opacity:1;" d="M 2.625 0.566406 L 32.375 0.566406 C 33.503906 0.566406 34.417969 1.453125 34.417969 2.550781 L 34.417969 14.449219 C 34.417969 15.546875 33.503906 16.433594 32.375 16.433594 L 2.625 16.433594 C 1.496094 16.433594 0.582031 15.546875 0.582031 14.449219 L 0.582031 2.550781 C 0.582031 1.453125 1.496094 0.566406 2.625 0.566406 Z M 2.625 0.566406 "/>
<path style=" stroke:none;fill-rule:nonzero;fill:rgb(0%,0%,0%);fill-opacity:1;" d="M 7.65625 7.4375 L 7.65625 5.3125 L 1.96875 8.5 L 7.65625 11.6875 L 7.65625 9.5625 L 12.03125 9.5625 L 12.03125 7.4375 Z M 7.65625 7.4375 "/>
<path style=" stroke:none;fill-rule:nonzero;fill:rgb(0%,0%,0%);fill-opacity:1;" d="M 13.398438 6.058594 L 13.777344 6.886719 C 13.972656 6.71875 14.164062 6.597656 14.351562 6.519531 C 14.539062 6.445312 14.769531 6.40625 15.050781 6.410156 C 15.234375 6.414062 15.402344 6.472656 15.542969 6.589844 C 15.683594 6.707031 15.757812 6.855469 15.765625 7.035156 C 15.757812 7.253906 15.632812 7.460938 15.390625 7.664062 C 15.148438 7.863281 14.84375 8.003906 14.476562 8.082031 L 14.476562 8.847656 C 14.546875 8.816406 14.628906 8.792969 14.714844 8.789062 C 14.800781 8.78125 14.890625 8.777344 14.976562 8.777344 C 15.429688 8.796875 15.714844 8.902344 15.835938 9.097656 C 15.957031 9.292969 16.007812 9.457031 15.992188 9.597656 C 15.976562 9.917969 15.851562 10.152344 15.617188 10.300781 C 15.378906 10.449219 15.09375 10.523438 14.761719 10.523438 C 14.515625 10.523438 14.261719 10.5 13.992188 10.453125 C 13.726562 10.40625 13.5 10.328125 13.316406 10.214844 L 13.4375 11.191406 C 13.464844 11.199219 13.636719 11.238281 13.957031 11.308594 C 14.277344 11.378906 14.59375 11.417969 14.90625 11.429688 C 15.589844 11.40625 16.113281 11.207031 16.472656 10.835938 C 16.832031 10.464844 17.015625 10.058594 17.019531 9.617188 C 17.007812 9.3125 16.914062 9.066406 16.734375 8.867188 C 16.558594 8.667969 16.363281 8.515625 16.144531 8.414062 C 15.925781 8.308594 15.753906 8.242188 15.625 8.222656 C 15.921875 8.179688 16.1875 8.035156 16.414062 7.785156 C 16.640625 7.535156 16.761719 7.214844 16.773438 6.828125 C 16.753906 6.4375 16.585938 6.132812 16.273438 5.90625 C 15.957031 5.679688 15.613281 5.566406 15.234375 5.5625 C 14.929688 5.570312 14.597656 5.625 14.234375 5.730469 C 13.875 5.839844 13.597656 5.949219 13.398438 6.058594 Z M 13.398438 6.058594 "/>
<path style=" stroke:none;fill-rule:nonzero;fill:rgb(0%,0%,0%);fill-opacity:1;" d="M 19.910156 5.640625 C 19.328125 5.65625 18.863281 5.921875 18.511719 6.441406 C 18.160156 6.964844 17.980469 7.648438 17.972656 8.5 C 17.980469 9.351562 18.160156 10.035156 18.511719 10.558594 C 18.863281 11.078125 19.328125 11.34375 19.910156 11.359375 C 20.496094 11.34375 20.960938 11.078125 21.3125 10.558594 C 21.660156 10.035156 21.839844 9.351562 21.847656 8.5 C 21.839844 7.6875 21.660156 7.011719 21.3125 6.476562 C 20.960938 5.941406 20.496094 5.660156 19.910156 5.640625 Z M 19.910156 6.507812 C 20.191406 6.503906 20.417969 6.660156 20.585938 6.980469 C 20.753906 7.300781 20.839844 7.808594 20.84375 8.5 C 20.839844 9.191406 20.753906 9.699219 20.585938 10.019531 C 20.417969 10.339844 20.191406 10.496094 19.910156 10.492188 C 19.628906 10.496094 19.40625 10.339844 19.238281 10.019531 C 19.070312 9.699219 18.980469 9.191406 18.976562 8.5 C 18.980469 7.808594 19.070312 7.300781 19.238281 6.980469 C 19.40625 6.660156 19.628906 6.503906 19.910156 6.507812 Z M 19.910156 6.507812 "/>
<path style=" stroke:none;fill-rule:nonzero;fill:rgb(0%,0%,0%);fill-opacity:1;" d="M 24.644531 5.640625 C 24.0625 5.65625 23.597656 5.921875 23.246094 6.441406 C 22.898438 6.964844 22.71875 7.648438 22.707031 8.5 C 22.71875 9.351562 22.898438 10.035156 23.246094 10.558594 C 23.597656 11.078125 24.0625 11.34375 24.644531 11.359375 C 25.230469 11.34375 25.695312 11.078125 26.046875 10.558594 C 26.394531 10.035156 26.574219 9.351562 26.585938 8.5 C 26.574219 7.6875 26.394531 7.011719 26.046875 6.476562 C 25.695312 5.941406 25.230469 5.660156 24.644531 5.640625 Z M 24.644531 6.507812 C 24.925781 6.503906 25.152344 6.660156 25.320312 6.980469 C 25.488281 7.300781 25.574219 7.808594 25.578125 8.5 C 25.574219 9.191406 25.488281 9.699219 25.320312 10.019531 C 25.152344 10.339844 24.925781 10.496094 24.644531 10.492188 C 24.363281 10.496094 24.140625 10.339844 23.972656 10.019531 C 23.804688 9.699219 23.71875 9.191406 23.714844 8.5 C 23.71875 7.808594 23.804688 7.300781 23.972656 6.980469 C 24.140625 6.660156 24.363281 6.503906 24.644531 6.507812 Z M 24.644531 6.507812 "/>
<path style=" stroke:none;fill-rule:nonzero;fill:rgb(0%,0%,0%);fill-opacity:1;" d="M 28.09375 11.289062 L 28.957031 11.289062 L 29.171875 8.570312 L 30.320312 10.800781 L 31.46875 8.570312 L 31.683594 11.289062 L 32.546875 11.289062 L 32.1875 7.382812 L 31.324219 7.382812 L 30.320312 9.335938 L 29.316406 7.382812 L 28.453125 7.382812 Z M 28.09375 11.289062 "/>
</g>
</svg>
