<?xml version="1.0" encoding="UTF-8"?>
<svg xmlns="http://www.w3.org/2000/svg" xmlns:xlink="http://www.w3.org/1999/xlink" width="35px" height="35px" viewBox="0 0 35 35" version="1.1">
<g id="surface1">
<path style=" stroke:none;fill-rule:nonzero;fill:rgb(0%,0%,0%);fill-opacity:1;" d="M 2.25 0 L 32.75 0 C 33.992188 0 35 1.007812 35 2.25 L 35 32.75 C 35 33.992188 33.992188 35 32.75 35 L 2.25 35 C 1.007812 35 0 33.992188 0 32.75 L 0 2.25 C 0 1.007812 1.007812 0 2.25 0 Z M 2.25 0 "/>
<path style=" stroke:none;fill-rule:nonzero;fill:rgb(100%,100%,100%);fill-opacity:1;" d="M 2.25 0.5 L 32.75 0.5 C 33.714844 0.5 34.5 1.285156 34.5 2.25 L 34.5 32.75 C 34.5 33.714844 33.714844 34.5 32.75 34.5 L 2.25 34.5 C 1.285156 34.5 0.5 33.714844 0.5 32.75 L 0.5 2.25 C 0.5 1.285156 1.285156 0.5 2.25 0.5 Z M 2.25 0.5 "/>
<path style=" stroke:none;fill-rule:nonzero;fill:rgb(0%,0%,0%);fill-opacity:1;" d="M 3.273438 20.890625 L 4.148438 21.875 C 4.421875 21.589844 4.699219 21.328125 4.984375 21.097656 C 5.269531 20.871094 5.574219 20.746094 5.898438 20.734375 C 6.289062 20.746094 6.59375 20.871094 6.820312 21.101562 C 7.046875 21.328125 7.160156 21.589844 7.164062 21.875 C 7.160156 22.300781 7.074219 22.652344 6.902344 22.9375 C 6.734375 23.222656 6.515625 23.511719 6.242188 23.8125 C 5.753906 24.394531 5.25 24.957031 4.730469 25.5 C 4.210938 26.039062 3.652344 26.582031 3.054688 27.125 L 3.054688 28.4375 L 8.304688 28.4375 C 8.414062 28.160156 8.496094 27.894531 8.550781 27.644531 C 8.605469 27.394531 8.632812 27.183594 8.632812 27.015625 L 5.023438 27.015625 C 5.59375 26.425781 6.121094 25.882812 6.609375 25.390625 C 7.101562 24.898438 7.519531 24.433594 7.867188 24 C 8.148438 23.679688 8.34375 23.375 8.460938 23.089844 C 8.582031 22.804688 8.636719 22.398438 8.632812 21.875 C 8.605469 21.207031 8.335938 20.660156 7.828125 20.234375 C 7.320312 19.8125 6.75 19.59375 6.117188 19.578125 C 5.46875 19.585938 4.910156 19.710938 4.449219 19.953125 C 3.992188 20.195312 3.597656 20.507812 3.273438 20.890625 Z M 3.273438 20.890625 "/>
<path style=" stroke:none;fill-rule:nonzero;fill:rgb(0%,0%,0%);fill-opacity:1;" d="M 14.988281 21.109375 L 15.425781 19.6875 L 10.394531 19.6875 L 10.394531 23.953125 L 11.378906 24.5 C 11.488281 24.425781 11.652344 24.300781 11.871094 24.128906 C 12.089844 23.960938 12.363281 23.863281 12.691406 23.84375 C 13.183594 23.863281 13.5625 24.042969 13.824219 24.378906 C 14.085938 24.710938 14.21875 25.082031 14.222656 25.484375 C 14.195312 26.03125 13.976562 26.441406 13.566406 26.714844 C 13.15625 26.988281 12.71875 27.125 12.253906 27.125 C 11.886719 27.128906 11.515625 27.101562 11.144531 27.039062 C 10.773438 26.980469 10.449219 26.863281 10.175781 26.6875 L 10.394531 28.109375 C 10.417969 28.128906 10.640625 28.199219 11.0625 28.328125 C 11.484375 28.457031 11.953125 28.527344 12.472656 28.546875 C 13.523438 28.523438 14.347656 28.214844 14.945312 27.617188 C 15.546875 27.019531 15.851562 26.273438 15.863281 25.375 C 15.828125 24.496094 15.542969 23.820312 15 23.351562 C 14.460938 22.882812 13.875 22.644531 13.238281 22.640625 C 12.980469 22.636719 12.722656 22.671875 12.460938 22.75 C 12.203125 22.828125 11.988281 22.972656 11.816406 23.1875 L 11.816406 21.109375 Z M 14.988281 21.109375 "/>
<path style=" stroke:none;fill-rule:nonzero;fill:rgb(0%,0%,0%);fill-opacity:1;" d="M 20.167969 19.578125 C 19.277344 19.601562 18.566406 20.019531 18.035156 20.835938 C 17.5 21.652344 17.226562 22.726562 17.214844 24.0625 C 17.226562 25.398438 17.5 26.472656 18.035156 27.289062 C 18.566406 28.105469 19.277344 28.523438 20.167969 28.546875 C 21.054688 28.523438 21.765625 28.105469 22.300781 27.289062 C 22.832031 26.472656 23.105469 25.398438 23.121094 24.0625 C 23.105469 22.789062 22.832031 21.730469 22.300781 20.890625 C 21.765625 20.046875 21.054688 19.609375 20.167969 19.578125 Z M 20.167969 20.9375 C 20.597656 20.929688 20.9375 21.179688 21.195312 21.679688 C 21.453125 22.179688 21.582031 22.976562 21.589844 24.0625 C 21.582031 25.148438 21.453125 25.945312 21.195312 26.445312 C 20.9375 26.945312 20.597656 27.195312 20.167969 27.1875 C 19.738281 27.195312 19.398438 26.945312 19.140625 26.445312 C 18.882812 25.945312 18.753906 25.148438 18.746094 24.0625 C 18.753906 22.976562 18.882812 22.179688 19.140625 21.679688 C 19.398438 21.179688 19.738281 20.929688 20.167969 20.9375 Z M 20.167969 20.9375 "/>
<path style=" stroke:none;fill-rule:nonzero;fill:rgb(0%,0%,0%);fill-opacity:1;" d="M 25.402344 28.4375 L 26.714844 28.4375 L 27.042969 24.171875 L 28.792969 27.671875 L 30.542969 24.171875 L 30.871094 28.4375 L 32.183594 28.4375 L 31.636719 22.3125 L 30.324219 22.3125 L 28.792969 25.375 L 27.261719 22.3125 L 25.949219 22.3125 Z M 25.402344 28.4375 "/>
<path style=" stroke:none;fill-rule:nonzero;fill:rgb(0%,0%,0%);fill-opacity:1;" d="M 2.828125 14 C 2.832031 14.019531 2.984375 14.152344 3.28125 14.398438 C 3.578125 14.644531 3.984375 14.886719 4.5 15.132812 C 5.015625 15.378906 5.601562 15.511719 6.265625 15.53125 C 7.363281 15.484375 8.203125 15.167969 8.78125 14.574219 C 9.359375 13.980469 9.652344 13.390625 9.65625 12.796875 C 9.644531 12.136719 9.417969 11.597656 8.972656 11.167969 C 8.523438 10.742188 7.914062 10.449219 7.140625 10.28125 C 6.519531 10.167969 5.984375 10.035156 5.539062 9.871094 C 5.097656 9.710938 4.863281 9.449219 4.84375 9.078125 C 4.828125 8.832031 4.9375 8.558594 5.171875 8.257812 C 5.402344 7.957031 5.839844 7.792969 6.484375 7.765625 C 7.140625 7.800781 7.632812 7.949219 7.960938 8.203125 C 8.289062 8.457031 8.453125 8.605469 8.453125 8.640625 L 9.4375 7.546875 C 9.410156 7.496094 9.109375 7.296875 8.535156 6.945312 C 7.960938 6.59375 7.277344 6.394531 6.484375 6.34375 C 5.539062 6.363281 4.777344 6.625 4.199219 7.136719 C 3.625 7.648438 3.328125 8.292969 3.3125 9.078125 C 3.269531 9.484375 3.410156 9.929688 3.734375 10.402344 C 4.0625 10.878906 4.832031 11.242188 6.046875 11.484375 C 6.765625 11.613281 7.261719 11.769531 7.535156 11.945312 C 7.8125 12.125 7.964844 12.300781 7.992188 12.476562 C 8.023438 12.648438 8.03125 12.792969 8.015625 12.90625 C 8.03125 13.101562 7.917969 13.339844 7.671875 13.628906 C 7.429688 13.921875 6.960938 14.078125 6.265625 14.109375 C 5.496094 14.066406 4.910156 13.902344 4.511719 13.609375 C 4.109375 13.316406 3.90625 13.152344 3.90625 13.109375 Z M 2.828125 14 "/>
<path style=" stroke:none;fill-rule:nonzero;fill:rgb(0%,0%,0%);fill-opacity:1;" d="M 10.636719 6.5625 L 10.636719 7.875 L 13.042969 7.875 L 13.042969 15.3125 L 14.574219 15.3125 L 14.574219 7.875 L 16.980469 7.875 L 16.980469 6.5625 Z M 10.636719 6.5625 "/>
<path style=" stroke:none;fill-rule:nonzero;fill:rgb(0%,0%,0%);fill-opacity:1;" d="M 21.5625 6.34375 C 20.363281 6.375 19.46875 6.824219 18.878906 7.691406 C 18.292969 8.554688 18 9.636719 18 10.9375 C 18 12.234375 18.292969 13.316406 18.878906 14.183594 C 19.46875 15.046875 20.363281 15.496094 21.5625 15.53125 C 22.765625 15.496094 23.660156 15.046875 24.246094 14.183594 C 24.835938 13.316406 25.128906 12.234375 25.125 10.9375 C 25.128906 9.636719 24.835938 8.554688 24.246094 7.691406 C 23.660156 6.824219 22.765625 6.375 21.5625 6.34375 Z M 21.5625 7.765625 C 22.175781 7.773438 22.675781 8.058594 23.054688 8.613281 C 23.433594 9.167969 23.632812 9.945312 23.640625 10.9375 C 23.632812 11.929688 23.433594 12.707031 23.054688 13.261719 C 22.675781 13.816406 22.175781 14.101562 21.5625 14.109375 C 20.953125 14.101562 20.453125 13.816406 20.074219 13.261719 C 19.695312 12.707031 19.496094 11.929688 19.484375 10.9375 C 19.496094 9.945312 19.695312 9.167969 20.074219 8.613281 C 20.453125 8.058594 20.953125 7.773438 21.5625 7.765625 Z M 21.5625 7.765625 "/>
<path style=" stroke:none;fill-rule:nonzero;fill:rgb(0%,0%,0%);fill-opacity:1;" d="M 26.59375 6.5625 L 26.59375 15.3125 L 28.125 15.3125 L 28.125 12.25 L 29.546875 12.25 C 30.4375 12.199219 31.148438 11.863281 31.679688 11.238281 C 32.214844 10.613281 32.488281 10.003906 32.5 9.40625 C 32.515625 8.808594 32.296875 8.199219 31.84375 7.574219 C 31.394531 6.949219 30.628906 6.613281 29.546875 6.5625 Z M 28.125 7.875 L 29.109375 7.875 C 29.566406 7.871094 29.964844 7.988281 30.3125 8.230469 C 30.660156 8.472656 30.839844 8.863281 30.859375 9.40625 C 30.839844 9.949219 30.660156 10.339844 30.3125 10.582031 C 29.964844 10.824219 29.566406 10.941406 29.109375 10.9375 L 28.125 10.9375 Z M 28.125 7.875 "/>
</g>
</svg>
