<?xml version="1.0" encoding="UTF-8"?>
<svg xmlns="http://www.w3.org/2000/svg" xmlns:xlink="http://www.w3.org/1999/xlink" width="35px" height="35px" viewBox="0 0 35 17" version="1.1">
<g id="surface1">
<path style=" stroke:none;fill-rule:nonzero;fill:rgb(0%,0%,0%);fill-opacity:1;" d="M 2.625 0 L 32.375 0 C 33.828125 0 35 1.136719 35 2.550781 L 35 14.449219 C 35 15.863281 33.828125 17 32.375 17 L 2.625 17 C 1.171875 17 0 15.863281 0 14.449219 L 0 2.550781 C 0 1.136719 1.171875 0 2.625 0 Z M 2.625 0 "/>
<path style=" stroke:none;fill-rule:nonzero;fill:rgb(100%,80%,0%);fill-opacity:1;" d="M 2.625 0.566406 L 32.375 0.566406 C 33.507812 0.566406 34.417969 1.453125 34.417969 2.550781 L 34.417969 14.449219 C 34.417969 15.546875 33.507812 16.433594 32.375 16.433594 L 2.625 16.433594 C 1.492188 16.433594 0.582031 15.546875 0.582031 14.449219 L 0.582031 2.550781 C 0.582031 1.453125 1.492188 0.566406 2.625 0.566406 Z M 2.625 0.566406 "/>
<path style=" stroke:none;fill-rule:evenodd;fill:rgb(0%,0%,0%);fill-opacity:1;" d="M 29.125 2.222656 L 29.125 5.6875 L 28.414062 5.679688 L 28.414062 8.457031 L 30.546875 10.566406 L 30.546875 7.8125 L 29.835938 6.394531 L 29.835938 2.925781 Z M 25.246094 9.222656 L 20.675781 9.714844 L 21.792969 11.769531 L 26.367188 11.023438 Z M 17.582031 9.992188 L 11.824219 10.519531 L 13.039062 13.289062 L 18.816406 12.28125 Z M 8.8125 11.015625 L 3.132812 11.570312 L 3.132812 14.894531 L 9.949219 13.789062 Z M 8.8125 11.015625 "/>
</g>
</svg>
