<?xml version="1.0" encoding="UTF-8"?>
<svg xmlns="http://www.w3.org/2000/svg" xmlns:xlink="http://www.w3.org/1999/xlink" width="35px" height="35px" viewBox="0 0 35 35" version="1.1">
<g id="surface1">
<path style=" stroke:none;fill-rule:nonzero;fill:rgb(0%,0%,0%);fill-opacity:1;" d="M 2.25 0 L 32.75 0 C 33.992188 0 35 1.007812 35 2.25 L 35 32.75 C 35 33.992188 33.992188 35 32.75 35 L 2.25 35 C 1.007812 35 0 33.992188 0 32.75 L 0 2.25 C 0 1.007812 1.007812 0 2.25 0 Z M 2.25 0 "/>
<path style=" stroke:none;fill-rule:nonzero;fill:rgb(100%,100%,100%);fill-opacity:1;" d="M 32.75 34.5 C 33.714844 34.5 34.5 33.714844 34.5 32.75 L 34.5 18 L 19.195312 18 L 19.195312 17 L 34.5 17 L 34.5 2.25 C 34.5 1.285156 33.714844 0.5 32.75 0.5 L 18 0.5 L 18 15.804688 L 17 15.804688 L 17 0.5 L 2.25 0.5 C 1.285156 0.5 0.5 1.285156 0.5 2.25 L 0.5 15.804688 L 12.417969 15.804688 C 16.160156 15.804688 19.195312 18.839844 19.195312 22.582031 L 19.195312 34.5 Z M 32.75 34.5 "/>
<path style=" stroke:none;fill-rule:nonzero;fill:rgb(100%,100%,100%);fill-opacity:1;" d="M 0.5 32.75 C 0.5 33.714844 1.285156 34.5 2.25 34.5 L 15.804688 34.5 L 15.804688 22.582031 C 15.804688 20.710938 14.289062 19.195312 12.417969 19.195312 L 0.5 19.195312 Z M 0.5 32.75 "/>
</g>
</svg>
