<?xml version="1.0" encoding="UTF-8"?>
<svg xmlns="http://www.w3.org/2000/svg" xmlns:xlink="http://www.w3.org/1999/xlink" width="35px" height="35px" viewBox="0 0 35 17" version="1.1">
<g id="surface1">
<path style=" stroke:none;fill-rule:nonzero;fill:rgb(0%,0%,0%);fill-opacity:1;" d="M 2.625 0 L 32.375 0 C 33.824219 0 35 1.140625 35 2.550781 L 35 14.449219 C 35 15.859375 33.824219 17 32.375 17 L 2.625 17 C 1.175781 17 0 15.859375 0 14.449219 L 0 2.550781 C 0 1.140625 1.175781 0 2.625 0 Z M 2.625 0 "/>
<path style=" stroke:none;fill-rule:nonzero;fill:rgb(100%,100%,100%);fill-opacity:1;" d="M 2.625 0.566406 L 32.375 0.566406 C 33.503906 0.566406 34.417969 1.453125 34.417969 2.550781 L 34.417969 14.449219 C 34.417969 15.546875 33.503906 16.433594 32.375 16.433594 L 2.625 16.433594 C 1.496094 16.433594 0.582031 15.546875 0.582031 14.449219 L 0.582031 2.550781 C 0.582031 1.453125 1.496094 0.566406 2.625 0.566406 Z M 2.625 0.566406 "/>
<path style=" stroke:none;fill-rule:nonzero;fill:rgb(0%,0%,0%);fill-opacity:1;" d="M 10.789062 3.992188 C 10.539062 3.992188 10.289062 4.085938 10.09375 4.273438 L 7.789062 6.511719 C 6.621094 6.839844 5.699219 7.734375 5.363281 8.867188 L 4.757812 9.457031 L 4.757812 10.625 L 5.320312 10.625 C 5.6875 12.148438 7.097656 13.28125 8.777344 13.28125 C 10.742188 13.28125 12.332031 11.734375 12.332031 9.828125 C 12.332031 9.773438 12.328125 9.71875 12.328125 9.667969 C 13.921875 9.164062 15.636719 9.167969 17.230469 9.675781 C 17.230469 9.726562 17.226562 9.777344 17.226562 9.828125 C 17.226562 11.734375 18.816406 13.28125 20.78125 13.28125 C 22.460938 13.28125 23.871094 12.148438 24.242188 10.625 L 24.964844 10.625 L 24.964844 9.457031 L 30.03125 4.535156 C 30.265625 4.304688 30.644531 4.296875 30.882812 4.527344 C 30.996094 4.640625 31.058594 4.792969 31.058594 4.949219 L 31.058594 5.746094 L 31.441406 5.746094 L 31.441406 4.949219 C 31.441406 4.695312 31.335938 4.449219 31.152344 4.273438 C 30.960938 4.085938 30.707031 3.992188 30.457031 3.992188 C 30.203125 3.992188 29.953125 4.085938 29.761719 4.273438 L 24.421875 9.457031 L 24.316406 9.457031 C 24.125 7.722656 22.617188 6.375 20.78125 6.375 C 18.976562 6.375 17.484375 7.683594 17.257812 9.375 C 16.445312 9.125 15.605469 9 14.765625 9 C 13.933594 9 13.101562 9.121094 12.300781 9.367188 C 12.066406 7.675781 10.578125 6.375 8.777344 6.375 C 8.667969 6.375 8.5625 6.378906 8.457031 6.390625 L 10.363281 4.535156 C 10.601562 4.304688 10.980469 4.296875 11.214844 4.527344 C 11.328125 4.640625 11.390625 4.792969 11.390625 4.949219 L 11.390625 5.746094 L 11.773438 5.746094 L 11.773438 4.949219 C 11.773438 4.695312 11.671875 4.449219 11.484375 4.273438 C 11.292969 4.085938 11.042969 3.992188 10.789062 3.992188 Z M 8.777344 6.800781 C 10.5 6.800781 11.894531 8.15625 11.894531 9.828125 C 11.894531 11.5 10.5 12.855469 8.777344 12.855469 C 7.054688 12.855469 5.660156 11.5 5.660156 9.828125 C 5.660156 8.15625 7.054688 6.800781 8.777344 6.800781 Z M 20.78125 6.800781 C 22.503906 6.800781 23.898438 8.15625 23.898438 9.828125 C 23.898438 11.5 22.503906 12.855469 20.78125 12.855469 C 19.058594 12.855469 17.664062 11.5 17.664062 9.828125 C 17.664062 8.15625 19.058594 6.800781 20.78125 6.800781 Z M 20.78125 6.800781 "/>
<path style=" stroke:none;fill-rule:nonzero;fill:rgb(0%,0%,0%);fill-opacity:1;" d="M 11.621094 9.828125 C 11.621094 11.355469 10.347656 12.589844 8.777344 12.589844 C 7.207031 12.589844 5.933594 11.355469 5.933594 9.828125 C 5.933594 8.300781 7.207031 7.066406 8.777344 7.066406 C 10.347656 7.066406 11.621094 8.300781 11.621094 9.828125 Z M 11.621094 9.828125 "/>
<path style=" stroke:none;fill-rule:nonzero;fill:rgb(0%,0%,0%);fill-opacity:1;" d="M 23.625 9.828125 C 23.625 11.355469 22.351562 12.589844 20.78125 12.589844 C 19.210938 12.589844 17.9375 11.355469 17.9375 9.828125 C 17.9375 8.300781 19.210938 7.066406 20.78125 7.066406 C 22.351562 7.066406 23.625 8.300781 23.625 9.828125 Z M 23.625 9.828125 "/>
</g>
</svg>
