<?xml version="1.0" encoding="UTF-8"?>
<svg xmlns="http://www.w3.org/2000/svg" xmlns:xlink="http://www.w3.org/1999/xlink" width="35px" height="35px" viewBox="0 0 35 17" version="1.1">
<g id="surface1">
<path style=" stroke:none;fill-rule:nonzero;fill:rgb(0%,0%,0%);fill-opacity:1;" d="M 2.625 0 L 32.375 0 C 33.824219 0 35 1.140625 35 2.550781 L 35 14.449219 C 35 15.859375 33.824219 17 32.375 17 L 2.625 17 C 1.175781 17 0 15.859375 0 14.449219 L 0 2.550781 C 0 1.140625 1.175781 0 2.625 0 Z M 2.625 0 "/>
<path style=" stroke:none;fill-rule:nonzero;fill:rgb(100%,100%,100%);fill-opacity:1;" d="M 2.625 0.566406 L 32.375 0.566406 C 33.503906 0.566406 34.417969 1.453125 34.417969 2.550781 L 34.417969 14.449219 C 34.417969 15.546875 33.503906 16.433594 32.375 16.433594 L 2.625 16.433594 C 1.496094 16.433594 0.582031 15.546875 0.582031 14.449219 L 0.582031 2.550781 C 0.582031 1.453125 1.496094 0.566406 2.625 0.566406 Z M 2.625 0.566406 "/>
<path style=" stroke:none;fill-rule:nonzero;fill:rgb(0%,0%,0%);fill-opacity:1;" d="M 21.480469 2.15625 C 17.964844 2.15625 16.21875 4.960938 16.070312 5.5 C 15.777344 5.007812 14.914062 4.0625 13.640625 4.0625 C 11.925781 4.0625 10.910156 5.769531 10.78125 6.246094 C 10.660156 6.132812 10.195312 5.980469 9.738281 5.976562 C 8.375 5.976562 7.683594 7.085938 7.683594 8 C 7.683594 9.105469 8.550781 9.964844 9.421875 10.1875 C 12.03125 10.867188 17.398438 11.003906 17.5 11.003906 C 17.625 11.003906 21.253906 11.019531 23.34375 10.472656 C 24.5625 10.15625 26.617188 8.472656 26.617188 6.257812 C 26.617188 3.882812 24.292969 2.1875 21.480469 2.15625 Z M 21.480469 2.96875 C 24.285156 3 25.761719 4.554688 25.761719 6.257812 C 25.761719 7.96875 24.292969 9.386719 22.953125 9.734375 C 21.328125 10.160156 17.6875 10.214844 17.5 10.210938 C 17.398438 10.210938 12.191406 10.066406 9.679688 9.410156 C 9.074219 9.253906 8.527344 8.808594 8.527344 8 C 8.527344 7.355469 8.96875 6.785156 9.738281 6.785156 C 10.503906 6.789062 10.910156 7.414062 10.910156 7.832031 L 11.226562 7.832031 C 11.226562 6.523438 12.402344 4.871094 13.644531 4.871094 C 15.007812 4.871094 16.023438 6.660156 16.023438 7.832031 L 16.335938 7.832031 C 16.335938 5.902344 17.957031 2.96875 21.480469 2.96875 Z M 21.480469 2.96875 "/>
<path style=" stroke:none;fill-rule:nonzero;fill:rgb(0%,0%,0%);fill-opacity:1;" d="M 9.84375 11.421875 L 8.75 13.8125 L 9.515625 13.8125 L 10.609375 11.421875 Z M 9.84375 11.421875 "/>
<path style=" stroke:none;fill-rule:nonzero;fill:rgb(0%,0%,0%);fill-opacity:1;" d="M 13.125 12.484375 L 12.03125 14.875 L 12.796875 14.875 L 13.890625 12.484375 Z M 13.125 12.484375 "/>
<path style=" stroke:none;fill-rule:nonzero;fill:rgb(0%,0%,0%);fill-opacity:1;" d="M 16.40625 11.421875 L 15.3125 13.8125 L 16.078125 13.8125 L 17.171875 11.421875 Z M 16.40625 11.421875 "/>
<path style=" stroke:none;fill-rule:nonzero;fill:rgb(0%,0%,0%);fill-opacity:1;" d="M 19.6875 12.484375 L 18.59375 14.875 L 19.359375 14.875 L 20.453125 12.484375 Z M 19.6875 12.484375 "/>
<path style=" stroke:none;fill-rule:nonzero;fill:rgb(0%,0%,0%);fill-opacity:1;" d="M 22.96875 11.421875 L 21.875 13.8125 L 22.640625 13.8125 L 23.734375 11.421875 Z M 22.96875 11.421875 "/>
</g>
</svg>
