<?xml version="1.0" encoding="UTF-8"?>
<svg xmlns="http://www.w3.org/2000/svg" xmlns:xlink="http://www.w3.org/1999/xlink" width="35px" height="35px" viewBox="0 0 35 17" version="1.1">
<g id="surface1">
<path style=" stroke:none;fill-rule:nonzero;fill:rgb(0%,0%,0%);fill-opacity:1;" d="M 2.625 0 L 32.375 0 C 33.824219 0 35 1.140625 35 2.550781 L 35 14.449219 C 35 15.859375 33.824219 17 32.375 17 L 2.625 17 C 1.175781 17 0 15.859375 0 14.449219 L 0 2.550781 C 0 1.140625 1.175781 0 2.625 0 Z M 2.625 0 "/>
<path style=" stroke:none;fill-rule:nonzero;fill:rgb(100%,100%,100%);fill-opacity:1;" d="M 2.625 0.566406 L 32.375 0.566406 C 33.503906 0.566406 34.417969 1.453125 34.417969 2.550781 L 34.417969 14.449219 C 34.417969 15.546875 33.503906 16.433594 32.375 16.433594 L 2.625 16.433594 C 1.496094 16.433594 0.582031 15.546875 0.582031 14.449219 L 0.582031 2.550781 C 0.582031 1.453125 1.496094 0.566406 2.625 0.566406 Z M 2.625 0.566406 "/>
<path style=" stroke:none;fill-rule:nonzero;fill:rgb(0%,0%,0%);fill-opacity:1;" d="M 13.972656 6.738281 C 12.191406 7.457031 10.9375 9.164062 10.9375 11.15625 C 10.9375 13.796875 13.140625 15.9375 15.859375 15.9375 C 18.003906 15.9375 19.824219 14.605469 20.5 12.75 L 19.789062 11.394531 C 19.664062 13.394531 17.953125 14.980469 15.859375 14.980469 C 13.683594 14.980469 11.921875 13.269531 11.921875 11.15625 C 11.921875 9.636719 12.832031 8.324219 14.152344 7.707031 Z M 13.972656 6.738281 "/>
<path style=" stroke:none;fill-rule:nonzero;fill:rgb(0%,0%,0%);fill-opacity:1;" d="M 14.507812 1.078125 C 13.753906 1.078125 13.140625 1.671875 13.140625 2.40625 C 13.140625 2.828125 13.34375 3.199219 13.65625 3.441406 L 14.765625 9.5625 L 19.136719 9.5625 L 21.363281 13.808594 L 24.042969 12.484375 L 23.472656 11.394531 L 21.914062 12.167969 L 19.90625 8.339844 L 15.820312 8.339844 L 15.65625 7.4375 L 18.59375 7.4375 L 18.59375 6.375 L 15.464844 6.375 L 14.96875 3.65625 C 15.5 3.472656 15.875 2.984375 15.875 2.40625 C 15.875 1.671875 15.265625 1.078125 14.507812 1.078125 Z M 14.507812 1.078125 "/>
</g>
</svg>
