<?xml version="1.0" encoding="UTF-8"?>
<svg xmlns="http://www.w3.org/2000/svg" xmlns:xlink="http://www.w3.org/1999/xlink" width="35px" height="35px" viewBox="0 0 35 17" version="1.1">
<g id="surface1">
<path style=" stroke:none;fill-rule:nonzero;fill:rgb(0%,0%,0%);fill-opacity:1;" d="M 2.625 0 L 32.375 0 C 33.824219 0 35 1.140625 35 2.550781 L 35 14.449219 C 35 15.859375 33.824219 17 32.375 17 L 2.625 17 C 1.175781 17 0 15.859375 0 14.449219 L 0 2.550781 C 0 1.140625 1.175781 0 2.625 0 Z M 2.625 0 "/>
<path style=" stroke:none;fill-rule:nonzero;fill:rgb(100%,50.196078%,0%);fill-opacity:1;" d="M 2.625 0.566406 L 32.375 0.566406 C 33.503906 0.566406 34.417969 1.453125 34.417969 2.550781 L 34.417969 14.449219 C 34.417969 15.546875 33.503906 16.433594 32.375 16.433594 L 2.625 16.433594 C 1.496094 16.433594 0.582031 15.546875 0.582031 14.449219 L 0.582031 2.550781 C 0.582031 1.453125 1.496094 0.566406 2.625 0.566406 Z M 2.625 0.566406 "/>
<path style=" stroke:none;fill-rule:nonzero;fill:rgb(0%,0%,0%);fill-opacity:1;" d="M 3.324219 4.203125 C 3.023438 4.210938 2.78125 4.3125 2.59375 4.515625 C 2.410156 4.722656 2.3125 4.996094 2.308594 5.34375 C 2.3125 5.6875 2.410156 5.964844 2.59375 6.167969 C 2.78125 6.371094 3.023438 6.476562 3.324219 6.480469 C 3.621094 6.476562 3.863281 6.371094 4.050781 6.167969 C 4.234375 5.964844 4.332031 5.6875 4.339844 5.34375 C 4.332031 4.996094 4.234375 4.722656 4.050781 4.515625 C 3.863281 4.3125 3.621094 4.210938 3.324219 4.203125 Z M 3.324219 4.582031 C 3.480469 4.585938 3.613281 4.65625 3.714844 4.792969 C 3.8125 4.929688 3.867188 5.113281 3.871094 5.34375 C 3.867188 5.574219 3.8125 5.757812 3.714844 5.894531 C 3.613281 6.027344 3.480469 6.097656 3.324219 6.101562 C 3.164062 6.097656 3.03125 6.027344 2.933594 5.894531 C 2.832031 5.757812 2.777344 5.574219 2.777344 5.34375 C 2.777344 5.113281 2.832031 4.929688 2.933594 4.792969 C 3.03125 4.65625 3.164062 4.585938 3.324219 4.582031 Z M 3.324219 4.582031 "/>
<path style=" stroke:none;fill-rule:nonzero;fill:rgb(0%,0%,0%);fill-opacity:1;" d="M 5.0625 4.28125 L 5.0625 6.40625 L 5.53125 6.40625 L 5.53125 4.699219 L 6.351562 4.699219 L 6.351562 6.40625 L 6.820312 6.40625 L 6.820312 4.28125 Z M 5.0625 4.28125 "/>
<path style=" stroke:none;fill-rule:nonzero;fill:rgb(0%,0%,0%);fill-opacity:1;" d="M 8.398438 4.203125 C 8.207031 4.207031 8.042969 4.238281 7.914062 4.292969 C 7.785156 4.351562 7.671875 4.410156 7.578125 4.46875 L 7.8125 4.847656 C 7.875 4.789062 7.957031 4.730469 8.0625 4.675781 C 8.167969 4.617188 8.277344 4.585938 8.398438 4.582031 C 8.519531 4.589844 8.628906 4.625 8.722656 4.691406 C 8.8125 4.761719 8.863281 4.824219 8.867188 4.886719 L 8.867188 5.039062 C 8.851562 5.035156 8.734375 5.046875 8.523438 5.074219 C 8.308594 5.105469 8.097656 5.171875 7.882812 5.28125 C 7.671875 5.390625 7.554688 5.5625 7.539062 5.796875 C 7.550781 6.027344 7.628906 6.195312 7.773438 6.308594 C 7.921875 6.425781 8.078125 6.480469 8.242188 6.480469 C 8.398438 6.476562 8.535156 6.4375 8.644531 6.367188 C 8.75 6.296875 8.828125 6.21875 8.867188 6.140625 C 8.886719 6.285156 8.9375 6.382812 9.015625 6.425781 C 9.09375 6.46875 9.199219 6.484375 9.335938 6.480469 L 9.53125 6.101562 C 9.488281 6.105469 9.445312 6.097656 9.40625 6.078125 C 9.363281 6.058594 9.339844 6.003906 9.335938 5.910156 L 9.335938 4.886719 C 9.320312 4.691406 9.214844 4.53125 9.015625 4.402344 C 8.8125 4.277344 8.609375 4.210938 8.398438 4.203125 Z M 8.867188 5.378906 L 8.867188 5.761719 C 8.859375 5.789062 8.804688 5.851562 8.703125 5.945312 C 8.597656 6.039062 8.484375 6.089844 8.359375 6.101562 C 8.3125 6.105469 8.25 6.082031 8.175781 6.03125 C 8.097656 5.980469 8.054688 5.890625 8.046875 5.761719 C 8.054688 5.648438 8.109375 5.570312 8.214844 5.527344 C 8.324219 5.480469 8.441406 5.453125 8.566406 5.4375 C 8.695312 5.421875 8.796875 5.402344 8.867188 5.378906 Z M 8.867188 5.378906 "/>
<path style=" stroke:none;fill-rule:nonzero;fill:rgb(0%,0%,0%);fill-opacity:1;" d="M 11.039062 4.203125 C 10.738281 4.210938 10.492188 4.3125 10.292969 4.515625 C 10.09375 4.722656 9.992188 4.996094 9.984375 5.34375 C 9.992188 5.6875 10.09375 5.964844 10.292969 6.167969 C 10.492188 6.371094 10.738281 6.476562 11.039062 6.480469 C 11.261719 6.480469 11.453125 6.421875 11.617188 6.3125 C 11.78125 6.199219 11.898438 6.039062 11.976562 5.835938 L 11.539062 5.671875 C 11.496094 5.8125 11.429688 5.917969 11.34375 5.992188 C 11.261719 6.0625 11.160156 6.101562 11.039062 6.101562 C 10.882812 6.097656 10.75 6.027344 10.648438 5.894531 C 10.550781 5.757812 10.496094 5.574219 10.492188 5.34375 C 10.496094 5.113281 10.550781 4.929688 10.648438 4.792969 C 10.75 4.65625 10.882812 4.585938 11.039062 4.582031 C 11.160156 4.585938 11.261719 4.621094 11.34375 4.695312 C 11.429688 4.765625 11.496094 4.875 11.539062 5.011719 L 11.976562 4.847656 C 11.898438 4.644531 11.78125 4.488281 11.617188 4.375 C 11.453125 4.261719 11.261719 4.207031 11.039062 4.203125 Z M 11.039062 4.203125 "/>
<path style=" stroke:none;fill-rule:nonzero;fill:rgb(0%,0%,0%);fill-opacity:1;" d="M 12.628906 4.28125 L 12.628906 6.40625 L 13.097656 6.40625 L 13.097656 5.496094 L 13.917969 5.496094 L 13.917969 6.40625 L 14.386719 6.40625 L 14.386719 4.28125 L 13.917969 4.28125 L 13.917969 5.078125 L 13.097656 5.078125 L 13.097656 4.28125 Z M 12.628906 4.28125 "/>
<path style=" stroke:none;fill-rule:nonzero;fill:rgb(0%,0%,0%);fill-opacity:1;" d="M 17.359375 6.40625 L 17.828125 6.40625 L 17.828125 4.28125 L 17.359375 4.28125 Z M 15.261719 4.28125 L 15.261719 6.40625 L 16.277344 6.40625 C 16.546875 6.398438 16.742188 6.328125 16.863281 6.191406 C 16.984375 6.054688 17.042969 5.898438 17.042969 5.722656 C 17.042969 5.542969 16.984375 5.386719 16.863281 5.253906 C 16.742188 5.117188 16.546875 5.046875 16.277344 5.039062 L 15.730469 5.039062 L 15.730469 4.28125 Z M 15.730469 5.457031 L 16.316406 5.457031 C 16.394531 5.460938 16.460938 5.488281 16.511719 5.542969 C 16.5625 5.597656 16.585938 5.65625 16.589844 5.722656 C 16.585938 5.789062 16.5625 5.847656 16.511719 5.902344 C 16.460938 5.957031 16.394531 5.984375 16.316406 5.988281 L 15.730469 5.988281 Z M 15.730469 5.457031 "/>
<path style=" stroke:none;fill-rule:nonzero;fill:rgb(0%,0%,0%);fill-opacity:1;" d="M 18.671875 4.28125 L 18.671875 6.40625 L 19.179688 6.40625 L 20.078125 4.964844 L 20.078125 6.40625 L 20.546875 6.40625 L 20.546875 4.28125 L 20.039062 4.28125 L 19.140625 5.722656 L 19.140625 4.28125 Z M 18.828125 3.371094 C 18.824219 3.378906 18.839844 3.429688 18.875 3.527344 C 18.90625 3.625 18.980469 3.722656 19.09375 3.820312 C 19.207031 3.917969 19.378906 3.96875 19.609375 3.976562 C 19.839844 3.96875 20.011719 3.917969 20.125 3.820312 C 20.234375 3.722656 20.308594 3.625 20.34375 3.527344 C 20.378906 3.429688 20.394531 3.378906 20.390625 3.371094 L 20 3.371094 C 19.960938 3.464844 19.910156 3.539062 19.847656 3.59375 C 19.785156 3.644531 19.707031 3.671875 19.609375 3.671875 C 19.507812 3.671875 19.425781 3.644531 19.355469 3.59375 C 19.285156 3.539062 19.238281 3.464844 19.21875 3.371094 Z M 18.828125 3.371094 "/>
<path style=" stroke:none;fill-rule:nonzero;fill:rgb(0%,0%,0%);fill-opacity:1;" d="M 23.546875 4.28125 L 23.546875 6.40625 L 24.015625 6.40625 L 24.015625 4.699219 L 25.070312 4.699219 L 25.070312 4.28125 Z M 23.546875 4.28125 "/>
<path style=" stroke:none;fill-rule:nonzero;fill:rgb(0%,0%,0%);fill-opacity:1;" d="M 26.777344 4.203125 C 26.582031 4.21875 26.441406 4.269531 26.355469 4.355469 C 26.269531 4.445312 26.226562 4.496094 26.230469 4.507812 C 26.195312 4.449219 26.167969 4.371094 26.152344 4.28125 L 25.761719 4.28125 L 25.761719 7.316406 L 26.230469 7.316406 L 26.230469 6.214844 C 26.234375 6.242188 26.285156 6.292969 26.386719 6.363281 C 26.488281 6.433594 26.617188 6.472656 26.777344 6.480469 C 26.863281 6.484375 26.980469 6.457031 27.132812 6.398438 C 27.285156 6.335938 27.425781 6.226562 27.550781 6.058594 C 27.679688 5.894531 27.746094 5.65625 27.753906 5.34375 C 27.738281 4.898438 27.625 4.59375 27.410156 4.433594 C 27.199219 4.269531 26.988281 4.195312 26.777344 4.203125 Z M 26.777344 4.621094 C 26.917969 4.625 27.035156 4.6875 27.132812 4.8125 C 27.230469 4.9375 27.28125 5.113281 27.285156 5.34375 C 27.28125 5.574219 27.230469 5.757812 27.132812 5.894531 C 27.035156 6.027344 26.917969 6.097656 26.777344 6.101562 C 26.671875 6.101562 26.570312 6.074219 26.472656 6.019531 C 26.371094 5.96875 26.292969 5.894531 26.230469 5.796875 L 26.230469 5 C 26.289062 4.886719 26.367188 4.792969 26.464844 4.726562 C 26.558594 4.65625 26.664062 4.625 26.777344 4.621094 Z M 26.777344 4.621094 "/>
<path style=" stroke:none;fill-rule:nonzero;fill:rgb(0%,0%,0%);fill-opacity:1;" d="M 28.402344 6.859375 L 28.550781 7.292969 C 28.609375 7.304688 28.648438 7.3125 28.664062 7.3125 C 28.679688 7.316406 28.695312 7.316406 28.714844 7.316406 C 28.835938 7.316406 28.953125 7.277344 29.070312 7.207031 C 29.1875 7.136719 29.273438 7.03125 29.339844 6.898438 L 30.238281 4.28125 L 29.691406 4.28125 L 29.261719 5.683594 L 28.753906 4.28125 L 28.207031 4.28125 L 29.042969 6.40625 C 29.011719 6.519531 28.964844 6.628906 28.898438 6.734375 C 28.832031 6.835938 28.730469 6.890625 28.597656 6.898438 C 28.574219 6.898438 28.546875 6.898438 28.511719 6.894531 C 28.476562 6.890625 28.441406 6.878906 28.402344 6.859375 Z M 28.402344 6.859375 "/>
<path style=" stroke:none;fill-rule:nonzero;fill:rgb(0%,0%,0%);fill-opacity:1;" d="M 31.625 4.242188 C 31.46875 4.242188 31.320312 4.261719 31.191406 4.292969 C 31.058594 4.328125 30.945312 4.375 30.84375 4.433594 L 31.058594 4.832031 C 31.125 4.78125 31.203125 4.734375 31.292969 4.691406 C 31.378906 4.648438 31.492188 4.625 31.625 4.621094 C 31.710938 4.621094 31.804688 4.640625 31.898438 4.6875 C 31.996094 4.734375 32.046875 4.8125 32.054688 4.925781 C 32.054688 4.984375 32.035156 5.035156 31.996094 5.082031 C 31.957031 5.125 31.898438 5.152344 31.820312 5.152344 L 31.507812 5.152344 L 31.507812 5.496094 L 31.820312 5.496094 C 31.917969 5.496094 31.988281 5.53125 32.03125 5.589844 C 32.074219 5.648438 32.097656 5.71875 32.09375 5.796875 C 32.089844 5.894531 32.042969 5.96875 31.957031 6.019531 C 31.875 6.074219 31.789062 6.101562 31.703125 6.101562 C 31.601562 6.101562 31.480469 6.082031 31.339844 6.039062 C 31.199219 5.996094 31.085938 5.925781 31 5.820312 L 30.710938 6.128906 C 30.835938 6.242188 30.988281 6.332031 31.175781 6.390625 C 31.359375 6.449219 31.535156 6.480469 31.703125 6.480469 C 31.957031 6.484375 32.167969 6.433594 32.339844 6.328125 C 32.507812 6.226562 32.597656 6.0625 32.601562 5.835938 C 32.597656 5.667969 32.542969 5.542969 32.449219 5.464844 C 32.351562 5.386719 32.25 5.335938 32.144531 5.320312 C 32.242188 5.292969 32.328125 5.234375 32.402344 5.144531 C 32.480469 5.058594 32.519531 4.945312 32.523438 4.8125 C 32.523438 4.628906 32.441406 4.488281 32.28125 4.390625 C 32.121094 4.292969 31.902344 4.242188 31.625 4.242188 Z M 31.625 4.242188 "/>
<path style=" stroke:none;fill-rule:nonzero;fill:rgb(0%,0%,0%);fill-opacity:1;" d="M 3.289062 9.773438 L 3.289062 12.75 L 3.945312 12.75 L 3.945312 11.367188 C 3.976562 11.363281 4.003906 11.359375 4.03125 11.359375 C 4.0625 11.355469 4.085938 11.355469 4.109375 11.355469 C 4.414062 11.375 4.640625 11.53125 4.796875 11.824219 C 4.953125 12.117188 5.125 12.425781 5.3125 12.75 L 6.132812 12.75 C 5.949219 12.566406 5.796875 12.355469 5.675781 12.109375 C 5.550781 11.867188 5.421875 11.644531 5.28125 11.441406 C 5.144531 11.238281 4.953125 11.109375 4.710938 11.050781 C 4.84375 11.011719 4.960938 10.933594 5.0625 10.8125 C 5.164062 10.691406 5.269531 10.570312 5.382812 10.457031 C 5.496094 10.339844 5.636719 10.273438 5.804688 10.253906 L 5.640625 9.722656 C 5.414062 9.753906 5.210938 9.855469 5.027344 10.035156 C 4.84375 10.214844 4.671875 10.390625 4.511719 10.566406 C 4.347656 10.738281 4.1875 10.832031 4.023438 10.84375 C 4.011719 10.84375 4 10.84375 3.984375 10.84375 C 3.972656 10.84375 3.960938 10.839844 3.945312 10.835938 L 3.945312 9.773438 Z M 3.289062 9.773438 "/>
<path style=" stroke:none;fill-rule:nonzero;fill:rgb(0%,0%,0%);fill-opacity:1;" d="M 6.933594 9.773438 C 6.933594 9.980469 6.929688 10.226562 6.917969 10.519531 C 6.910156 10.8125 6.890625 11.082031 6.867188 11.335938 C 6.839844 11.585938 6.804688 11.757812 6.761719 11.847656 C 6.691406 11.96875 6.605469 12.0625 6.503906 12.128906 C 6.398438 12.195312 6.300781 12.234375 6.207031 12.25 L 6.332031 12.855469 C 6.777344 12.742188 7.078125 12.550781 7.238281 12.28125 C 7.402344 12.007812 7.488281 11.703125 7.503906 11.359375 C 7.519531 11.019531 7.527344 10.683594 7.535156 10.359375 L 8.410156 10.359375 L 8.410156 12.75 L 9.066406 12.75 L 9.066406 9.773438 Z M 6.933594 9.773438 "/>
<path style=" stroke:none;fill-rule:nonzero;fill:rgb(0%,0%,0%);fill-opacity:1;" d="M 10.535156 12.324219 C 10.53125 12.195312 10.484375 12.085938 10.394531 11.996094 C 10.304688 11.910156 10.191406 11.867188 10.058594 11.863281 C 9.921875 11.867188 9.808594 11.910156 9.71875 11.996094 C 9.632812 12.085938 9.585938 12.195312 9.582031 12.324219 C 9.585938 12.457031 9.632812 12.566406 9.71875 12.652344 C 9.808594 12.738281 9.921875 12.785156 10.058594 12.789062 C 10.191406 12.785156 10.304688 12.738281 10.394531 12.652344 C 10.484375 12.566406 10.53125 12.457031 10.535156 12.324219 Z M 10.535156 12.324219 "/>
<path style=" stroke:none;fill-rule:nonzero;fill:rgb(0%,0%,0%);fill-opacity:1;" d="M 13.730469 8.5 L 11.597656 11.261719 L 11.597656 11.898438 L 13.675781 11.898438 L 13.675781 12.75 L 14.441406 12.75 L 14.441406 11.898438 L 14.738281 11.898438 L 14.988281 11.261719 L 14.386719 11.261719 L 14.386719 8.5 Z M 13.675781 9.617188 L 13.675781 11.261719 L 12.417969 11.261719 Z M 13.675781 9.617188 "/>
<path style=" stroke:none;fill-rule:nonzero;fill:rgb(0%,0%,0%);fill-opacity:1;" d="M 16.339844 12.324219 C 16.335938 12.195312 16.289062 12.085938 16.199219 11.996094 C 16.109375 11.910156 16 11.867188 15.863281 11.863281 C 15.730469 11.867188 15.617188 11.910156 15.527344 11.996094 C 15.4375 12.085938 15.390625 12.195312 15.386719 12.324219 C 15.390625 12.457031 15.4375 12.566406 15.527344 12.652344 C 15.617188 12.738281 15.730469 12.785156 15.863281 12.789062 C 16 12.785156 16.109375 12.738281 16.199219 12.652344 C 16.289062 12.566406 16.335938 12.457031 16.339844 12.324219 Z M 16.339844 12.324219 "/>
<path style=" stroke:none;fill-rule:nonzero;fill:rgb(0%,0%,0%);fill-opacity:1;" d="M 17.148438 8.765625 L 17.4375 9.394531 C 17.585938 9.265625 17.730469 9.175781 17.875 9.117188 C 18.015625 9.058594 18.191406 9.03125 18.40625 9.03125 C 18.546875 9.035156 18.671875 9.082031 18.78125 9.171875 C 18.890625 9.261719 18.945312 9.375 18.953125 9.507812 C 18.945312 9.675781 18.847656 9.835938 18.664062 9.988281 C 18.480469 10.140625 18.246094 10.246094 17.96875 10.304688 L 17.96875 10.890625 C 18.023438 10.863281 18.082031 10.851562 18.148438 10.84375 C 18.214844 10.839844 18.28125 10.835938 18.351562 10.835938 C 18.695312 10.851562 18.910156 10.933594 19.003906 11.082031 C 19.097656 11.226562 19.136719 11.355469 19.125 11.460938 C 19.113281 11.703125 19.015625 11.882812 18.835938 11.996094 C 18.65625 12.109375 18.441406 12.167969 18.1875 12.164062 C 18 12.167969 17.804688 12.148438 17.601562 12.113281 C 17.394531 12.078125 17.222656 12.015625 17.085938 11.929688 L 17.179688 12.675781 C 17.199219 12.683594 17.328125 12.710938 17.574219 12.765625 C 17.816406 12.816406 18.058594 12.847656 18.296875 12.855469 C 18.816406 12.839844 19.214844 12.6875 19.488281 12.40625 C 19.765625 12.121094 19.902344 11.8125 19.90625 11.476562 C 19.898438 11.246094 19.824219 11.054688 19.691406 10.90625 C 19.554688 10.753906 19.40625 10.636719 19.238281 10.558594 C 19.074219 10.476562 18.941406 10.429688 18.84375 10.414062 C 19.070312 10.382812 19.269531 10.269531 19.445312 10.082031 C 19.617188 9.890625 19.707031 9.648438 19.71875 9.351562 C 19.703125 9.054688 19.574219 8.820312 19.335938 8.648438 C 19.097656 8.476562 18.832031 8.390625 18.546875 8.386719 C 18.3125 8.390625 18.058594 8.433594 17.785156 8.515625 C 17.511719 8.597656 17.296875 8.679688 17.148438 8.765625 Z M 17.148438 8.765625 "/>
<path style=" stroke:none;fill-rule:nonzero;fill:rgb(0%,0%,0%);fill-opacity:1;" d="M 21.046875 11.863281 C 20.914062 11.867188 20.800781 11.910156 20.710938 11.996094 C 20.621094 12.085938 20.574219 12.195312 20.570312 12.324219 C 20.574219 12.445312 20.613281 12.546875 20.691406 12.628906 C 20.765625 12.714844 20.863281 12.765625 20.984375 12.785156 L 20.554688 13.441406 L 20.914062 13.441406 C 20.96875 13.363281 21.066406 13.210938 21.207031 12.988281 C 21.347656 12.765625 21.4375 12.613281 21.472656 12.53125 C 21.488281 12.5 21.5 12.46875 21.507812 12.433594 C 21.519531 12.398438 21.523438 12.363281 21.523438 12.324219 C 21.519531 12.195312 21.476562 12.085938 21.386719 11.996094 C 21.296875 11.910156 21.183594 11.867188 21.046875 11.863281 Z M 21.046875 11.863281 "/>
<path style=" stroke:none;fill-rule:nonzero;fill:rgb(0%,0%,0%);fill-opacity:1;" d="M 24.652344 8.433594 C 24.078125 8.453125 23.664062 8.691406 23.398438 9.144531 C 23.136719 9.59375 23.007812 10.125 23.011719 10.730469 C 23.015625 11.398438 23.15625 11.910156 23.425781 12.265625 C 23.699219 12.621094 24.070312 12.800781 24.542969 12.804688 C 24.910156 12.792969 25.226562 12.640625 25.492188 12.351562 C 25.757812 12.0625 25.894531 11.699219 25.910156 11.261719 C 25.898438 10.929688 25.824219 10.671875 25.683594 10.488281 C 25.542969 10.308594 25.382812 10.179688 25.203125 10.109375 C 25.023438 10.039062 24.878906 10.007812 24.761719 10.011719 C 24.566406 10.015625 24.378906 10.066406 24.199219 10.160156 C 24.019531 10.25 23.863281 10.355469 23.730469 10.464844 C 23.722656 10.449219 23.738281 10.324219 23.777344 10.09375 C 23.816406 9.863281 23.90625 9.632812 24.054688 9.402344 C 24.203125 9.171875 24.4375 9.050781 24.761719 9.03125 C 25.015625 9.039062 25.230469 9.078125 25.410156 9.140625 C 25.589844 9.207031 25.679688 9.242188 25.691406 9.25 L 25.582031 8.605469 C 25.570312 8.597656 25.46875 8.570312 25.28125 8.519531 C 25.089844 8.46875 24.878906 8.4375 24.652344 8.433594 Z M 24.652344 10.625 C 24.769531 10.625 24.886719 10.679688 25.007812 10.785156 C 25.125 10.890625 25.1875 11.050781 25.199219 11.261719 C 25.195312 11.460938 25.128906 11.648438 25 11.828125 C 24.871094 12.003906 24.683594 12.101562 24.441406 12.113281 C 24.273438 12.101562 24.140625 12.019531 24.035156 11.863281 C 23.933594 11.710938 23.859375 11.558594 23.8125 11.402344 C 23.765625 11.25 23.742188 11.167969 23.746094 11.15625 C 23.757812 11.132812 23.859375 11.046875 24.054688 10.890625 C 24.246094 10.734375 24.445312 10.648438 24.652344 10.625 Z M 24.652344 10.625 "/>
<path style=" stroke:none;fill-rule:nonzero;fill:rgb(0%,0%,0%);fill-opacity:1;" d="M 27.058594 11.863281 C 26.925781 11.867188 26.8125 11.910156 26.722656 11.996094 C 26.632812 12.085938 26.585938 12.195312 26.582031 12.324219 C 26.585938 12.445312 26.625 12.546875 26.703125 12.628906 C 26.777344 12.714844 26.875 12.765625 26.996094 12.785156 L 26.566406 13.441406 L 26.925781 13.441406 C 26.980469 13.363281 27.078125 13.210938 27.21875 12.988281 C 27.359375 12.765625 27.449219 12.613281 27.484375 12.53125 C 27.5 12.5 27.511719 12.46875 27.519531 12.433594 C 27.53125 12.398438 27.535156 12.363281 27.535156 12.324219 C 27.53125 12.195312 27.484375 12.085938 27.398438 11.996094 C 27.308594 11.910156 27.195312 11.867188 27.058594 11.863281 Z M 27.058594 11.863281 "/>
<path style=" stroke:none;fill-rule:nonzero;fill:rgb(0%,0%,0%);fill-opacity:1;" d="M 28.882812 9.191406 L 30.90625 9.191406 C 30.597656 9.675781 30.304688 10.21875 30.027344 10.824219 C 29.75 11.429688 29.550781 12.050781 29.429688 12.695312 L 30.25 12.695312 C 30.421875 11.9375 30.628906 11.265625 30.878906 10.683594 C 31.132812 10.105469 31.394531 9.550781 31.671875 9.03125 L 31.671875 8.5 L 29.046875 8.5 Z M 28.882812 9.191406 "/>
</g>
</svg>
