<?xml version="1.0" encoding="UTF-8"?>
<svg xmlns="http://www.w3.org/2000/svg" xmlns:xlink="http://www.w3.org/1999/xlink" width="35px" height="35px" viewBox="0 0 35 17" version="1.1">
<g id="surface1">
<path style=" stroke:none;fill-rule:nonzero;fill:rgb(0%,0%,0%);fill-opacity:1;" d="M 2.625 0 L 32.375 0 C 33.824219 0 35 1.140625 35 2.550781 L 35 14.449219 C 35 15.859375 33.824219 17 32.375 17 L 2.625 17 C 1.175781 17 0 15.859375 0 14.449219 L 0 2.550781 C 0 1.140625 1.175781 0 2.625 0 Z M 2.625 0 "/>
<path style=" stroke:none;fill-rule:nonzero;fill:rgb(100%,100%,100%);fill-opacity:1;" d="M 2.625 0.566406 L 32.375 0.566406 C 33.503906 0.566406 34.417969 1.453125 34.417969 2.550781 L 34.417969 14.449219 C 34.417969 15.546875 33.503906 16.433594 32.375 16.433594 L 2.625 16.433594 C 1.496094 16.433594 0.582031 15.546875 0.582031 14.449219 L 0.582031 2.550781 C 0.582031 1.453125 1.496094 0.566406 2.625 0.566406 Z M 2.625 0.566406 "/>
<path style=" stroke:none;fill-rule:nonzero;fill:rgb(0%,0%,0%);fill-opacity:1;" d="M 2.542969 6.058594 L 2.921875 6.886719 C 3.117188 6.71875 3.308594 6.597656 3.496094 6.519531 C 3.683594 6.445312 3.914062 6.40625 4.195312 6.410156 C 4.378906 6.414062 4.546875 6.472656 4.6875 6.589844 C 4.828125 6.707031 4.902344 6.855469 4.910156 7.035156 C 4.902344 7.253906 4.777344 7.460938 4.535156 7.664062 C 4.292969 7.863281 3.988281 8.003906 3.621094 8.082031 L 3.621094 8.847656 C 3.691406 8.816406 3.773438 8.792969 3.859375 8.789062 C 3.945312 8.78125 4.035156 8.777344 4.121094 8.777344 C 4.574219 8.796875 4.859375 8.902344 4.980469 9.097656 C 5.101562 9.292969 5.152344 9.457031 5.136719 9.597656 C 5.121094 9.917969 4.996094 10.152344 4.761719 10.300781 C 4.523438 10.449219 4.238281 10.523438 3.90625 10.523438 C 3.660156 10.523438 3.40625 10.5 3.136719 10.453125 C 2.871094 10.40625 2.644531 10.328125 2.460938 10.214844 L 2.585938 11.191406 C 2.609375 11.199219 2.78125 11.238281 3.101562 11.308594 C 3.421875 11.378906 3.738281 11.417969 4.050781 11.429688 C 4.734375 11.40625 5.257812 11.207031 5.617188 10.835938 C 5.976562 10.464844 6.160156 10.058594 6.164062 9.617188 C 6.152344 9.3125 6.058594 9.066406 5.878906 8.867188 C 5.703125 8.667969 5.507812 8.515625 5.289062 8.414062 C 5.070312 8.308594 4.898438 8.242188 4.769531 8.222656 C 5.066406 8.179688 5.332031 8.035156 5.558594 7.785156 C 5.785156 7.535156 5.90625 7.214844 5.917969 6.828125 C 5.898438 6.4375 5.730469 6.132812 5.417969 5.90625 C 5.101562 5.679688 4.757812 5.566406 4.378906 5.5625 C 4.074219 5.570312 3.742188 5.625 3.378906 5.730469 C 3.019531 5.839844 2.742188 5.949219 2.542969 6.058594 Z M 2.542969 6.058594 "/>
<path style=" stroke:none;fill-rule:nonzero;fill:rgb(0%,0%,0%);fill-opacity:1;" d="M 9.011719 5.640625 C 8.429688 5.65625 7.960938 5.921875 7.613281 6.441406 C 7.261719 6.964844 7.082031 7.648438 7.074219 8.5 C 7.082031 9.351562 7.261719 10.035156 7.613281 10.558594 C 7.960938 11.078125 8.429688 11.34375 9.011719 11.359375 C 9.59375 11.34375 10.0625 11.078125 10.410156 10.558594 C 10.761719 10.035156 10.941406 9.351562 10.949219 8.5 C 10.941406 7.6875 10.761719 7.011719 10.410156 6.476562 C 10.0625 5.941406 9.59375 5.660156 9.011719 5.640625 Z M 9.011719 6.507812 C 9.292969 6.503906 9.519531 6.660156 9.6875 6.980469 C 9.855469 7.300781 9.941406 7.808594 9.945312 8.5 C 9.941406 9.191406 9.855469 9.699219 9.6875 10.019531 C 9.519531 10.339844 9.292969 10.496094 9.011719 10.492188 C 8.730469 10.496094 8.507812 10.339844 8.335938 10.019531 C 8.167969 9.699219 8.082031 9.191406 8.078125 8.5 C 8.082031 7.808594 8.167969 7.300781 8.335938 6.980469 C 8.507812 6.660156 8.730469 6.503906 9.011719 6.507812 Z M 9.011719 6.507812 "/>
<path style=" stroke:none;fill-rule:nonzero;fill:rgb(0%,0%,0%);fill-opacity:1;" d="M 12.460938 11.289062 L 13.324219 11.289062 L 13.539062 8.570312 L 14.6875 10.800781 L 15.835938 8.570312 L 16.050781 11.289062 L 16.910156 11.289062 L 16.550781 7.382812 L 15.691406 7.382812 L 14.6875 9.335938 L 13.679688 7.382812 L 12.820312 7.382812 Z M 12.460938 11.289062 "/>
<path style=" stroke:none;fill-rule:nonzero;fill:rgb(0%,0%,0%);fill-opacity:1;" d="M 26.796875 7.4375 L 26.796875 5.3125 L 32.484375 8.5 L 26.796875 11.6875 L 26.796875 9.5625 L 22.421875 9.5625 L 22.421875 7.4375 Z M 26.796875 7.4375 "/>
</g>
</svg>
