<?xml version="1.0" encoding="UTF-8"?>
<svg xmlns="http://www.w3.org/2000/svg" xmlns:xlink="http://www.w3.org/1999/xlink" width="35px" height="35px" viewBox="0 0 35 17" version="1.1">
<g id="surface1">
<path style=" stroke:none;fill-rule:nonzero;fill:rgb(0%,0%,0%);fill-opacity:1;" d="M 2.625 0 L 32.375 0 C 33.824219 0 35 1.140625 35 2.550781 L 35 14.449219 C 35 15.859375 33.824219 17 32.375 17 L 2.625 17 C 1.175781 17 0 15.859375 0 14.449219 L 0 2.550781 C 0 1.140625 1.175781 0 2.625 0 Z M 2.625 0 "/>
<path style=" stroke:none;fill-rule:nonzero;fill:rgb(100%,100%,100%);fill-opacity:1;" d="M 2.625 0.566406 L 32.375 0.566406 C 33.503906 0.566406 34.417969 1.453125 34.417969 2.550781 L 34.417969 14.449219 C 34.417969 15.546875 33.503906 16.433594 32.375 16.433594 L 2.625 16.433594 C 1.496094 16.433594 0.582031 15.546875 0.582031 14.449219 L 0.582031 2.550781 C 0.582031 1.453125 1.496094 0.566406 2.625 0.566406 Z M 2.625 0.566406 "/>
<path style=" stroke:none;fill-rule:nonzero;fill:rgb(0%,0%,0%);fill-opacity:1;" d="M 18.246094 6.476562 L 18.820312 7.105469 C 18.996094 6.921875 19.179688 6.757812 19.367188 6.609375 C 19.554688 6.464844 19.753906 6.386719 19.96875 6.378906 C 20.222656 6.386719 20.421875 6.464844 20.570312 6.609375 C 20.71875 6.757812 20.796875 6.921875 20.796875 7.105469 C 20.792969 7.375 20.738281 7.601562 20.625 7.78125 C 20.515625 7.964844 20.371094 8.148438 20.191406 8.339844 C 19.871094 8.710938 19.542969 9.070312 19.203125 9.414062 C 18.859375 9.761719 18.492188 10.105469 18.101562 10.453125 L 18.101562 11.289062 L 21.546875 11.289062 C 21.617188 11.113281 21.671875 10.941406 21.707031 10.785156 C 21.746094 10.625 21.761719 10.488281 21.761719 10.382812 L 19.394531 10.382812 C 19.765625 10.007812 20.113281 9.660156 20.433594 9.347656 C 20.753906 9.03125 21.03125 8.738281 21.257812 8.460938 C 21.441406 8.253906 21.570312 8.0625 21.648438 7.878906 C 21.726562 7.699219 21.765625 7.441406 21.761719 7.105469 C 21.742188 6.679688 21.566406 6.328125 21.234375 6.058594 C 20.898438 5.789062 20.527344 5.648438 20.109375 5.640625 C 19.683594 5.644531 19.320312 5.726562 19.015625 5.878906 C 18.714844 6.035156 18.457031 6.234375 18.246094 6.476562 Z M 18.246094 6.476562 "/>
<path style=" stroke:none;fill-rule:nonzero;fill:rgb(0%,0%,0%);fill-opacity:1;" d="M 25.964844 6.617188 L 26.25 5.710938 L 22.949219 5.710938 L 22.949219 8.429688 L 23.597656 8.777344 C 23.667969 8.730469 23.777344 8.652344 23.917969 8.542969 C 24.0625 8.433594 24.242188 8.375 24.457031 8.359375 C 24.78125 8.375 25.03125 8.488281 25.203125 8.699219 C 25.375 8.914062 25.460938 9.148438 25.460938 9.40625 C 25.445312 9.753906 25.300781 10.015625 25.03125 10.191406 C 24.761719 10.363281 24.476562 10.453125 24.171875 10.453125 C 23.929688 10.453125 23.6875 10.4375 23.441406 10.398438 C 23.199219 10.359375 22.988281 10.285156 22.804688 10.171875 L 22.949219 11.078125 C 22.964844 11.089844 23.113281 11.136719 23.390625 11.21875 C 23.667969 11.300781 23.972656 11.347656 24.3125 11.359375 C 25.003906 11.34375 25.542969 11.148438 25.9375 10.765625 C 26.332031 10.386719 26.53125 9.910156 26.539062 9.335938 C 26.515625 8.777344 26.328125 8.347656 25.972656 8.046875 C 25.621094 7.746094 25.234375 7.597656 24.816406 7.59375 C 24.648438 7.589844 24.476562 7.613281 24.308594 7.664062 C 24.136719 7.710938 23.996094 7.804688 23.882812 7.941406 L 23.882812 6.617188 Z M 25.964844 6.617188 "/>
<path style=" stroke:none;fill-rule:nonzero;fill:rgb(0%,0%,0%);fill-opacity:1;" d="M 27.898438 11.289062 L 28.761719 11.289062 L 28.976562 8.570312 L 30.125 10.800781 L 31.273438 8.570312 L 31.488281 11.289062 L 32.347656 11.289062 L 31.988281 7.382812 L 31.128906 7.382812 L 30.125 9.335938 L 29.117188 7.382812 L 28.257812 7.382812 Z M 27.898438 11.289062 "/>
<path style=" stroke:none;fill-rule:nonzero;fill:rgb(0%,0%,0%);fill-opacity:1;" d="M 8.3125 7.4375 L 8.3125 5.3125 L 2.625 8.5 L 8.3125 11.6875 L 8.3125 9.5625 L 12.6875 9.5625 L 12.6875 7.4375 Z M 8.3125 7.4375 "/>
</g>
</svg>
