<?xml version="1.0" encoding="UTF-8"?>
<svg xmlns="http://www.w3.org/2000/svg" xmlns:xlink="http://www.w3.org/1999/xlink" width="35px" height="35px" viewBox="0 0 35 70" version="1.1">
<g id="surface1">
<path style=" stroke:none;fill-rule:nonzero;fill:rgb(0%,0%,0%);fill-opacity:1;" d="M 0 64.75 L 0 5.25 C 0 2.351562 2.351562 0 5.25 0 L 29.75 0 C 32.648438 0 35 2.351562 35 5.25 L 35 64.75 C 35 67.648438 32.648438 70 29.75 70 L 5.25 70 C 2.351562 70 0 67.648438 0 64.75 Z M 0 64.75 "/>
<path style=" stroke:none;fill-rule:nonzero;fill:rgb(100%,100%,100%);fill-opacity:1;" d="M 1.167969 64.75 L 1.167969 5.25 C 1.167969 2.996094 2.996094 1.167969 5.25 1.167969 L 29.75 1.167969 C 32.003906 1.167969 33.832031 2.996094 33.832031 5.25 L 33.832031 64.75 C 33.832031 67.003906 32.003906 68.832031 29.75 68.832031 L 5.25 68.832031 C 2.996094 68.832031 1.167969 67.003906 1.167969 64.75 Z M 1.167969 64.75 "/>
<path style=" stroke:none;fill-rule:nonzero;fill:rgb(0%,0%,0%);fill-opacity:1;" d="M 9.214844 39.644531 L 9.949219 40.601562 L 11.617188 39.554688 L 11.617188 49.21875 L 13.800781 49.21875 L 13.800781 36.75 L 11.929688 36.75 Z M 9.214844 39.644531 "/>
<path style=" stroke:none;fill-rule:nonzero;fill:rgb(0%,0%,0%);fill-opacity:1;" d="M 21.402344 36.59375 C 20.136719 36.625 19.125 37.222656 18.363281 38.386719 C 17.605469 39.550781 17.214844 41.082031 17.195312 42.984375 C 17.214844 44.886719 17.605469 46.417969 18.363281 47.582031 C 19.125 48.746094 20.136719 49.34375 21.402344 49.375 C 22.667969 49.34375 23.683594 48.746094 24.441406 47.582031 C 25.203125 46.417969 25.589844 44.886719 25.609375 42.984375 C 25.589844 41.167969 25.203125 39.660156 24.441406 38.460938 C 23.683594 37.261719 22.667969 36.640625 21.402344 36.59375 Z M 21.402344 38.53125 C 22.011719 38.523438 22.5 38.875 22.867188 39.589844 C 23.234375 40.304688 23.417969 41.433594 23.429688 42.984375 C 23.417969 44.535156 23.234375 45.664062 22.867188 46.378906 C 22.5 47.09375 22.011719 47.445312 21.402344 47.4375 C 20.792969 47.445312 20.304688 47.09375 19.9375 46.378906 C 19.574219 45.664062 19.386719 44.535156 19.375 42.984375 C 19.386719 41.433594 19.574219 40.304688 19.9375 39.589844 C 20.304688 38.875 20.792969 38.523438 21.402344 38.53125 Z M 21.402344 38.53125 "/>
<path style=" stroke:none;fill-rule:nonzero;fill:rgb(0%,0%,0%);fill-opacity:1;" d="M 15.3125 15.3125 L 12.03125 15.3125 L 17.5 5.832031 L 22.96875 15.3125 L 19.6875 15.3125 L 19.6875 28.4375 L 15.3125 28.4375 Z M 15.3125 15.3125 "/>
<path style=" stroke:none;fill-rule:nonzero;fill:rgb(0%,0%,0%);fill-opacity:1;" d="M 12.667969 63.4375 L 14.539062 63.4375 L 15.007812 57.359375 L 17.5 62.347656 L 19.992188 57.359375 L 20.460938 63.4375 L 22.332031 63.4375 L 21.550781 54.710938 L 19.683594 54.710938 L 17.5 59.074219 L 15.316406 54.710938 L 13.449219 54.710938 Z M 12.667969 63.4375 "/>
</g>
</svg>
