<?xml version="1.0" encoding="UTF-8"?>
<svg xmlns="http://www.w3.org/2000/svg" xmlns:xlink="http://www.w3.org/1999/xlink" width="35px" height="35px" viewBox="0 0 35 70" version="1.1">
<g id="surface1">
<path style=" stroke:none;fill-rule:nonzero;fill:rgb(0%,0%,0%);fill-opacity:1;" d="M 0 64.75 L 0 5.25 C 0 2.351562 2.351562 0 5.25 0 L 29.75 0 C 32.648438 0 35 2.351562 35 5.25 L 35 64.75 C 35 67.648438 32.648438 70 29.75 70 L 5.25 70 C 2.351562 70 0 67.648438 0 64.75 Z M 0 64.75 "/>
<path style=" stroke:none;fill-rule:nonzero;fill:rgb(100%,100%,100%);fill-opacity:1;" d="M 1.167969 64.75 L 1.167969 5.25 C 1.167969 2.996094 2.996094 1.167969 5.25 1.167969 L 29.75 1.167969 C 32.003906 1.167969 33.832031 2.996094 33.832031 5.25 L 33.832031 64.75 C 33.832031 67.003906 32.003906 68.832031 29.75 68.832031 L 5.25 68.832031 C 2.996094 68.832031 1.167969 67.003906 1.167969 64.75 Z M 1.167969 64.75 "/>
<path style=" stroke:none;fill-rule:nonzero;fill:rgb(0%,0%,0%);fill-opacity:1;" d="M 14.21875 47.03125 L 7.65625 47.03125 L 17.5 64.09375 L 27.34375 47.03125 L 20.78125 47.03125 L 20.78125 22.96875 L 27.34375 22.96875 L 17.5 5.90625 L 7.65625 22.96875 L 14.21875 22.96875 Z M 14.21875 47.03125 "/>
</g>
</svg>
