<?xml version="1.0" encoding="UTF-8"?>
<svg xmlns="http://www.w3.org/2000/svg" xmlns:xlink="http://www.w3.org/1999/xlink" width="35px" height="35px" viewBox="0 0 35 17" version="1.1">
<g id="surface1">
<path style=" stroke:none;fill-rule:nonzero;fill:rgb(0%,0%,0%);fill-opacity:1;" d="M 2.625 0 L 32.375 0 C 33.824219 0 35 1.140625 35 2.550781 L 35 14.449219 C 35 15.859375 33.824219 17 32.375 17 L 2.625 17 C 1.175781 17 0 15.859375 0 14.449219 L 0 2.550781 C 0 1.140625 1.175781 0 2.625 0 Z M 2.625 0 "/>
<path style=" stroke:none;fill-rule:nonzero;fill:rgb(100%,100%,100%);fill-opacity:1;" d="M 2.625 0.566406 L 32.375 0.566406 C 33.503906 0.566406 34.417969 1.453125 34.417969 2.550781 L 34.417969 14.449219 C 34.417969 15.546875 33.503906 16.433594 32.375 16.433594 L 2.625 16.433594 C 1.496094 16.433594 0.582031 15.546875 0.582031 14.449219 L 0.582031 2.550781 C 0.582031 1.453125 1.496094 0.566406 2.625 0.566406 Z M 2.625 0.566406 "/>
<path style=" stroke:none;fill-rule:nonzero;fill:rgb(0%,0%,0%);fill-opacity:1;" d="M 8.203125 7.007812 L 8.542969 7.433594 L 9.308594 6.964844 L 9.308594 11.289062 L 10.316406 11.289062 L 10.316406 5.710938 L 9.453125 5.710938 Z M 8.203125 7.007812 "/>
<path style=" stroke:none;fill-rule:nonzero;fill:rgb(0%,0%,0%);fill-opacity:1;" d="M 13.585938 5.640625 C 13.003906 5.65625 12.539062 5.921875 12.1875 6.441406 C 11.839844 6.964844 11.660156 7.648438 11.648438 8.5 C 11.660156 9.351562 11.839844 10.035156 12.1875 10.558594 C 12.539062 11.078125 13.003906 11.34375 13.585938 11.359375 C 14.171875 11.34375 14.636719 11.078125 14.988281 10.558594 C 15.335938 10.035156 15.515625 9.351562 15.527344 8.5 C 15.515625 7.6875 15.335938 7.011719 14.988281 6.476562 C 14.636719 5.941406 14.171875 5.660156 13.585938 5.640625 Z M 13.585938 6.507812 C 13.867188 6.503906 14.09375 6.660156 14.261719 6.980469 C 14.429688 7.300781 14.515625 7.808594 14.519531 8.5 C 14.515625 9.191406 14.429688 9.699219 14.261719 10.019531 C 14.09375 10.339844 13.867188 10.496094 13.585938 10.492188 C 13.308594 10.496094 13.082031 10.339844 12.914062 10.019531 C 12.746094 9.699219 12.660156 9.191406 12.65625 8.5 C 12.660156 7.808594 12.746094 7.300781 12.914062 6.980469 C 13.082031 6.660156 13.308594 6.503906 13.585938 6.507812 Z M 13.585938 6.507812 "/>
<path style=" stroke:none;fill-rule:nonzero;fill:rgb(0%,0%,0%);fill-opacity:1;" d="M 18.363281 5.640625 C 17.78125 5.65625 17.3125 5.921875 16.964844 6.441406 C 16.613281 6.964844 16.433594 7.648438 16.425781 8.5 C 16.433594 9.351562 16.613281 10.035156 16.964844 10.558594 C 17.3125 11.078125 17.78125 11.34375 18.363281 11.359375 C 18.945312 11.34375 19.414062 11.078125 19.761719 10.558594 C 20.113281 10.035156 20.292969 9.351562 20.300781 8.5 C 20.292969 7.6875 20.113281 7.011719 19.761719 6.476562 C 19.414062 5.941406 18.945312 5.660156 18.363281 5.640625 Z M 18.363281 6.507812 C 18.644531 6.503906 18.871094 6.660156 19.039062 6.980469 C 19.207031 7.300781 19.292969 7.808594 19.296875 8.5 C 19.292969 9.191406 19.207031 9.699219 19.039062 10.019531 C 18.871094 10.339844 18.644531 10.496094 18.363281 10.492188 C 18.082031 10.496094 17.859375 10.339844 17.691406 10.019531 C 17.519531 9.699219 17.433594 9.191406 17.429688 8.5 C 17.433594 7.808594 17.519531 7.300781 17.691406 6.980469 C 17.859375 6.660156 18.082031 6.503906 18.363281 6.507812 Z M 18.363281 6.507812 "/>
<path style=" stroke:none;fill-rule:nonzero;fill:rgb(0%,0%,0%);fill-opacity:1;" d="M 21.800781 11.289062 L 22.664062 11.289062 L 22.878906 8.570312 L 24.027344 10.800781 L 25.175781 8.570312 L 25.390625 11.289062 L 26.253906 11.289062 L 25.894531 7.382812 L 25.03125 7.382812 L 24.027344 9.335938 L 23.023438 7.382812 L 22.160156 7.382812 Z M 21.800781 11.289062 "/>
<path style=" stroke:none;fill-rule:nonzero;fill:rgb(0%,0%,0%);fill-opacity:1;" d="M 5.195312 8.5 L 6.898438 8.5 L 4.375 4.25 L 1.851562 8.5 L 3.554688 8.5 L 3.554688 12.75 L 5.195312 12.75 Z M 5.195312 8.5 "/>
<path style=" stroke:none;fill-rule:nonzero;fill:rgb(0%,0%,0%);fill-opacity:1;" d="M 31.445312 8.5 L 33.148438 8.5 L 30.625 4.25 L 28.101562 8.5 L 29.804688 8.5 L 29.804688 12.75 L 31.445312 12.75 Z M 31.445312 8.5 "/>
</g>
</svg>
