<?xml version="1.0" encoding="UTF-8"?>
<svg xmlns="http://www.w3.org/2000/svg" xmlns:xlink="http://www.w3.org/1999/xlink" width="35px" height="35px" viewBox="0 0 35 17" version="1.1">
<g id="surface1">
<path style=" stroke:none;fill-rule:nonzero;fill:rgb(0%,0%,0%);fill-opacity:1;" d="M 2.625 0 L 32.375 0 C 33.828125 0 35 1.136719 35 2.550781 L 35 14.449219 C 35 15.863281 33.828125 17 32.375 17 L 2.625 17 C 1.171875 17 0 15.863281 0 14.449219 L 0 2.550781 C 0 1.136719 1.171875 0 2.625 0 Z M 2.625 0 "/>
<path style=" stroke:none;fill-rule:nonzero;fill:rgb(100%,100%,100%);fill-opacity:1;" d="M 2.625 0.566406 L 32.375 0.566406 C 33.507812 0.566406 34.417969 1.453125 34.417969 2.550781 L 34.417969 14.449219 C 34.417969 15.546875 33.507812 16.433594 32.375 16.433594 L 2.625 16.433594 C 1.492188 16.433594 0.582031 15.546875 0.582031 14.449219 L 0.582031 2.550781 C 0.582031 1.453125 1.492188 0.566406 2.625 0.566406 Z M 2.625 0.566406 "/>
<path style=" stroke:none;fill-rule:evenodd;fill:rgb(0%,0%,0%);fill-opacity:1;" d="M 14.3125 1.992188 C 13.882812 2 13.492188 2.273438 13.367188 2.691406 L 12.992188 3.9375 L 14.914062 4.484375 L 15.289062 3.238281 C 15.445312 2.722656 15.140625 2.183594 14.609375 2.03125 C 14.511719 2.003906 14.410156 1.992188 14.3125 1.992188 Z M 22.058594 4.195312 C 21.632812 4.199219 21.242188 4.476562 21.117188 4.894531 L 20.742188 6.140625 L 22.664062 6.683594 L 23.039062 5.441406 C 23.191406 4.925781 22.890625 4.382812 22.359375 4.234375 C 22.257812 4.203125 22.15625 4.191406 22.058594 4.195312 Z M 12.640625 4.265625 C 12.382812 4.269531 12.148438 4.433594 12.070312 4.6875 L 11.285156 7.292969 C 11.191406 7.605469 11.375 7.933594 11.699219 8.023438 L 11.828125 11.386719 C 11.835938 11.640625 12.011719 11.859375 12.261719 11.929688 L 18.84375 13.800781 C 18.875 13.808594 18.90625 13.816406 18.9375 13.820312 C 18.953125 13.824219 18.96875 13.824219 18.988281 13.824219 L 2.253906 13.824219 L 2.253906 14.941406 L 33.113281 14.941406 L 33.113281 13.824219 L 19.042969 13.824219 C 19.226562 13.8125 19.402344 13.722656 19.511719 13.570312 L 21.484375 10.804688 C 21.808594 10.898438 22.144531 10.71875 22.238281 10.40625 L 23.023438 7.800781 C 23.117188 7.488281 22.933594 7.160156 22.609375 7.070312 L 12.824219 4.289062 C 12.761719 4.269531 12.703125 4.261719 12.640625 4.265625 Z M 12.4375 8.234375 L 20.75 10.59375 L 19.011719 13.027344 C 18.984375 13.0625 18.941406 13.082031 18.898438 13.078125 C 18.890625 13.078125 18.882812 13.074219 18.878906 13.074219 L 12.636719 11.300781 C 12.585938 11.285156 12.550781 11.242188 12.550781 11.191406 Z M 12.4375 8.234375 "/>
</g>
</svg>
