<?xml version="1.0" encoding="UTF-8"?>
<svg xmlns="http://www.w3.org/2000/svg" xmlns:xlink="http://www.w3.org/1999/xlink" width="35px" height="35px" viewBox="0 0 35 17" version="1.1">
<g id="surface1">
<path style=" stroke:none;fill-rule:nonzero;fill:rgb(0%,0%,0%);fill-opacity:1;" d="M 2.625 0 L 32.375 0 C 33.828125 0 35 1.136719 35 2.550781 L 35 14.449219 C 35 15.863281 33.828125 17 32.375 17 L 2.625 17 C 1.171875 17 0 15.863281 0 14.449219 L 0 2.550781 C 0 1.136719 1.171875 0 2.625 0 Z M 2.625 0 "/>
<path style=" stroke:none;fill-rule:nonzero;fill:rgb(100%,100%,100%);fill-opacity:1;" d="M 2.625 0.566406 L 32.375 0.566406 C 33.507812 0.566406 34.417969 1.453125 34.417969 2.550781 L 34.417969 14.449219 C 34.417969 15.546875 33.507812 16.433594 32.375 16.433594 L 2.625 16.433594 C 1.492188 16.433594 0.582031 15.546875 0.582031 14.449219 L 0.582031 2.550781 C 0.582031 1.453125 1.492188 0.566406 2.625 0.566406 Z M 2.625 0.566406 "/>
<path style=" stroke:none;fill-rule:evenodd;fill:rgb(0%,0%,0%);fill-opacity:1;" d="M 25.390625 3.054688 C 24.71875 3.054688 24.273438 3.554688 24.273438 4.054688 C 24.273438 4.488281 24.589844 4.875 24.988281 4.875 C 25.429688 4.875 26.191406 4.441406 26.191406 3.820312 C 26.191406 3.378906 25.8125 3.054688 25.390625 3.054688 Z M 20.621094 4.617188 C 20.492188 4.617188 20.386719 4.71875 20.386719 4.84375 L 20.386719 7.84375 L 17.992188 5.695312 C 17.886719 5.601562 17.726562 5.605469 17.628906 5.707031 L 17.398438 5.953125 C 17.300781 6.054688 17.308594 6.210938 17.410156 6.300781 L 20.585938 9.152344 C 20.640625 9.199219 20.707031 9.222656 20.773438 9.21875 C 20.839844 9.222656 20.910156 9.199219 20.960938 9.152344 L 24.136719 6.300781 C 24.238281 6.210938 24.246094 6.054688 24.152344 5.953125 L 23.917969 5.707031 C 23.820312 5.605469 23.660156 5.601562 23.558594 5.695312 L 21.238281 7.773438 L 21.238281 4.84375 C 21.238281 4.71875 21.132812 4.617188 21.003906 4.617188 Z M 26.03125 4.777344 C 25.933594 4.777344 25.835938 4.804688 25.75 4.851562 L 25.015625 5.261719 C 24.929688 5.3125 24.875 5.402344 24.875 5.5 L 24.875 8.429688 L 23.449219 9.8125 C 23.417969 9.84375 23.398438 9.878906 23.390625 9.917969 L 22.601562 12.988281 C 22.589844 13.03125 22.585938 13.074219 22.585938 13.117188 C 22.585938 13.40625 22.824219 13.640625 23.121094 13.640625 C 23.371094 13.640625 23.585938 13.476562 23.644531 13.242188 L 24.269531 10.816406 C 24.277344 10.777344 24.300781 10.742188 24.328125 10.714844 L 26.59375 8.515625 C 26.644531 8.460938 26.675781 8.390625 26.675781 8.320312 L 26.675781 6.007812 L 27.441406 6.4375 C 27.511719 6.476562 27.554688 6.550781 27.554688 6.628906 L 27.554688 8.269531 C 27.554688 8.496094 27.746094 8.683594 27.980469 8.683594 C 28.214844 8.683594 28.40625 8.496094 28.40625 8.269531 L 28.40625 6.34375 C 28.40625 6.144531 28.296875 5.964844 28.121094 5.863281 L 26.316406 4.851562 C 26.226562 4.804688 26.128906 4.777344 26.03125 4.777344 Z M 8.605469 6.179688 C 8.410156 6.179688 8.21875 6.265625 8.09375 6.410156 L 5.589844 9.257812 C 5.457031 9.410156 5.402344 9.613281 5.441406 9.808594 L 5.792969 11.574219 C 5.835938 11.78125 5.996094 11.949219 6.203125 12.003906 L 6.546875 12.09375 C 6.667969 11.242188 7.421875 10.585938 8.335938 10.585938 C 9.332031 10.585938 10.140625 11.367188 10.140625 12.332031 L 16.5625 12.332031 C 16.5625 11.367188 17.371094 10.585938 18.367188 10.585938 C 19.238281 10.585938 19.964844 11.179688 20.136719 11.976562 C 20.433594 11.964844 20.679688 11.734375 20.6875 11.441406 L 20.710938 10.195312 C 20.71875 9.863281 20.46875 9.582031 20.128906 9.535156 L 16.527344 9.042969 C 16.375 9.019531 16.230469 8.949219 16.125 8.839844 L 13.773438 6.386719 C 13.644531 6.253906 13.464844 6.179688 13.277344 6.179688 Z M 24.589844 6.667969 L 22.972656 8.238281 C 22.894531 8.316406 22.847656 8.421875 22.847656 8.53125 C 22.847656 8.757812 23.039062 8.945312 23.273438 8.945312 C 23.386719 8.945312 23.496094 8.902344 23.574219 8.824219 L 24.589844 7.835938 Z M 8.566406 6.699219 L 13.203125 6.699219 C 13.320312 6.699219 13.433594 6.746094 13.515625 6.828125 L 15.007812 8.382812 C 15.082031 8.460938 15.121094 8.5625 15.121094 8.667969 C 15.121094 8.898438 14.929688 9.082031 14.695312 9.082031 L 8.347656 9.082031 C 8.320312 9.082031 8.289062 9.082031 8.261719 9.074219 C 7.972656 9.03125 7.773438 8.765625 7.820312 8.484375 L 8.039062 7.136719 C 8.082031 6.882812 8.304688 6.699219 8.566406 6.699219 Z M 26.515625 8.976562 L 25.730469 9.742188 L 27.890625 13.378906 C 27.984375 13.539062 28.164062 13.640625 28.355469 13.640625 C 28.652344 13.640625 28.894531 13.40625 28.894531 13.117188 C 28.894531 13.023438 28.871094 12.933594 28.824219 12.855469 Z M 8.335938 10.878906 C 7.511719 10.878906 6.84375 11.527344 6.84375 12.328125 C 6.84375 13.132812 7.511719 13.78125 8.335938 13.78125 C 9.160156 13.78125 9.832031 13.132812 9.832031 12.328125 C 9.832031 11.527344 9.160156 10.878906 8.335938 10.878906 Z M 18.367188 10.878906 C 17.542969 10.878906 16.875 11.527344 16.875 12.328125 C 16.875 13.132812 17.542969 13.78125 18.367188 13.78125 C 19.191406 13.78125 19.863281 13.132812 19.863281 12.328125 C 19.863281 11.527344 19.191406 10.878906 18.367188 10.878906 Z M 8.335938 11.464844 C 8.828125 11.464844 9.226562 11.851562 9.226562 12.328125 C 9.226562 12.808594 8.828125 13.195312 8.335938 13.195312 C 7.847656 13.195312 7.449219 12.808594 7.449219 12.328125 C 7.449219 11.851562 7.847656 11.464844 8.335938 11.464844 Z M 18.367188 11.464844 C 18.859375 11.464844 19.257812 11.851562 19.257812 12.328125 C 19.257812 12.808594 18.859375 13.195312 18.367188 13.195312 C 17.875 13.195312 17.476562 12.808594 17.476562 12.328125 C 17.476562 11.851562 17.875 11.464844 18.367188 11.464844 Z M 1.980469 13.796875 L 1.980469 14.917969 L 32.84375 14.917969 L 32.84375 13.796875 Z M 1.980469 13.796875 "/>
</g>
</svg>
