<?xml version="1.0" encoding="UTF-8"?>
<svg xmlns="http://www.w3.org/2000/svg" xmlns:xlink="http://www.w3.org/1999/xlink" width="35px" height="35px" viewBox="0 0 35 17" version="1.1">
<g id="surface1">
<path style=" stroke:none;fill-rule:nonzero;fill:rgb(0%,0%,0%);fill-opacity:1;" d="M 2.625 0 L 32.375 0 C 33.828125 0 35 1.136719 35 2.550781 L 35 14.449219 C 35 15.863281 33.828125 17 32.375 17 L 2.625 17 C 1.171875 17 0 15.863281 0 14.449219 L 0 2.550781 C 0 1.136719 1.171875 0 2.625 0 Z M 2.625 0 "/>
<path style=" stroke:none;fill-rule:nonzero;fill:rgb(100%,100%,100%);fill-opacity:1;" d="M 2.625 0.566406 L 32.375 0.566406 C 33.507812 0.566406 34.417969 1.453125 34.417969 2.550781 L 34.417969 14.449219 C 34.417969 15.546875 33.507812 16.433594 32.375 16.433594 L 2.625 16.433594 C 1.492188 16.433594 0.582031 15.546875 0.582031 14.449219 L 0.582031 2.550781 C 0.582031 1.453125 1.492188 0.566406 2.625 0.566406 Z M 2.625 0.566406 "/>
<path style=" stroke:none;fill-rule:evenodd;fill:rgb(0%,0%,0%);fill-opacity:1;" d="M 17.363281 4.746094 C 17.230469 4.746094 17.125 4.851562 17.125 4.976562 L 17.125 7.976562 L 14.730469 5.824219 C 14.625 5.734375 14.464844 5.738281 14.371094 5.839844 L 14.136719 6.085938 C 14.039062 6.183594 14.046875 6.339844 14.152344 6.433594 L 17.324219 9.285156 C 17.378906 9.332031 17.445312 9.355469 17.511719 9.351562 C 17.578125 9.355469 17.648438 9.332031 17.699219 9.285156 L 20.875 6.433594 C 20.980469 6.339844 20.984375 6.183594 20.890625 6.085938 L 20.65625 5.839844 C 20.5625 5.738281 20.398438 5.734375 20.296875 5.824219 L 17.980469 7.90625 L 17.980469 4.976562 C 17.980469 4.851562 17.875 4.746094 17.742188 4.746094 Z M 5.210938 6.3125 C 5.011719 6.3125 4.824219 6.394531 4.695312 6.542969 L 2.191406 9.386719 C 2.058594 9.539062 2.003906 9.742188 2.042969 9.941406 L 2.398438 11.707031 C 2.4375 11.914062 2.597656 12.078125 2.808594 12.132812 L 3.152344 12.226562 C 3.269531 11.375 4.027344 10.71875 4.941406 10.71875 C 5.9375 10.71875 6.746094 11.5 6.746094 12.460938 L 13.164062 12.460938 C 13.164062 11.5 13.972656 10.71875 14.96875 10.71875 C 15.84375 10.71875 16.570312 11.3125 16.738281 12.105469 C 17.039062 12.097656 17.28125 11.867188 17.292969 11.574219 L 17.316406 10.328125 C 17.320312 9.996094 17.070312 9.714844 16.734375 9.667969 L 13.128906 9.175781 C 12.976562 9.152344 12.835938 9.082031 12.730469 8.972656 L 10.375 6.519531 C 10.246094 6.386719 10.066406 6.3125 9.878906 6.3125 Z M 25.089844 6.3125 C 24.902344 6.3125 24.722656 6.386719 24.59375 6.519531 L 22.242188 8.972656 C 22.136719 9.082031 21.992188 9.152344 21.839844 9.175781 L 18.238281 9.667969 C 17.898438 9.714844 17.648438 9.996094 17.65625 10.328125 L 17.679688 11.574219 C 17.6875 11.867188 17.933594 12.097656 18.230469 12.105469 C 18.402344 11.3125 19.128906 10.71875 20 10.71875 C 20.996094 10.71875 21.804688 11.5 21.804688 12.460938 L 28.226562 12.460938 C 28.226562 11.5 29.035156 10.71875 30.03125 10.71875 C 30.945312 10.71875 31.699219 11.375 31.820312 12.226562 L 32.164062 12.132812 C 32.371094 12.078125 32.53125 11.914062 32.574219 11.707031 L 32.925781 9.941406 C 32.964844 9.742188 32.910156 9.539062 32.777344 9.386719 L 30.273438 6.542969 C 30.148438 6.394531 29.957031 6.3125 29.761719 6.3125 Z M 5.171875 6.828125 L 9.804688 6.828125 C 9.925781 6.828125 10.039062 6.878906 10.117188 6.960938 L 11.613281 8.515625 C 11.683594 8.59375 11.726562 8.695312 11.726562 8.800781 C 11.726562 9.027344 11.535156 9.214844 11.300781 9.214844 L 4.949219 9.214844 C 4.921875 9.214844 4.894531 9.210938 4.867188 9.207031 C 4.574219 9.164062 4.375 8.898438 4.421875 8.613281 L 4.644531 7.265625 C 4.683594 7.015625 4.90625 6.828125 5.171875 6.828125 Z M 25.164062 6.828125 L 29.800781 6.828125 C 30.0625 6.828125 30.285156 7.015625 30.328125 7.265625 L 30.546875 8.613281 C 30.59375 8.898438 30.394531 9.164062 30.105469 9.207031 C 30.078125 9.210938 30.046875 9.214844 30.019531 9.214844 L 23.671875 9.214844 C 23.4375 9.214844 23.246094 9.027344 23.246094 8.800781 C 23.246094 8.695312 23.285156 8.59375 23.359375 8.515625 L 24.851562 6.960938 C 24.933594 6.878906 25.046875 6.828125 25.164062 6.828125 Z M 4.941406 11.011719 C 4.113281 11.011719 3.445312 11.660156 3.445312 12.460938 C 3.445312 13.261719 4.113281 13.914062 4.941406 13.914062 C 5.765625 13.914062 6.433594 13.261719 6.433594 12.460938 C 6.433594 11.660156 5.765625 11.011719 4.941406 11.011719 Z M 14.972656 11.011719 C 14.144531 11.011719 13.476562 11.660156 13.476562 12.460938 C 13.476562 13.261719 14.144531 13.914062 14.972656 13.914062 C 15.796875 13.914062 16.464844 13.261719 16.464844 12.460938 C 16.464844 11.660156 15.796875 11.011719 14.972656 11.011719 Z M 20 11.011719 C 19.175781 11.011719 18.507812 11.660156 18.507812 12.460938 C 18.507812 13.261719 19.175781 13.914062 20 13.914062 C 20.824219 13.914062 21.492188 13.261719 21.492188 12.460938 C 21.492188 11.660156 20.824219 11.011719 20 11.011719 Z M 30.03125 11.011719 C 29.207031 11.011719 28.535156 11.660156 28.535156 12.460938 C 28.535156 13.261719 29.207031 13.914062 30.03125 13.914062 C 30.855469 13.914062 31.523438 13.261719 31.523438 12.460938 C 31.523438 11.660156 30.855469 11.011719 30.03125 11.011719 Z M 4.941406 11.597656 C 5.429688 11.597656 5.828125 11.984375 5.828125 12.460938 C 5.828125 12.9375 5.429688 13.324219 4.941406 13.324219 C 4.449219 13.324219 4.050781 12.9375 4.050781 12.460938 C 4.050781 11.984375 4.449219 11.597656 4.941406 11.597656 Z M 14.972656 11.597656 C 15.460938 11.597656 15.859375 11.984375 15.859375 12.460938 C 15.859375 12.9375 15.460938 13.324219 14.972656 13.324219 C 14.480469 13.324219 14.082031 12.9375 14.082031 12.460938 C 14.082031 11.984375 14.480469 11.597656 14.972656 11.597656 Z M 20 11.597656 C 20.492188 11.597656 20.890625 11.984375 20.890625 12.460938 C 20.890625 12.9375 20.492188 13.324219 20 13.324219 C 19.507812 13.324219 19.109375 12.9375 19.109375 12.460938 C 19.109375 11.984375 19.507812 11.597656 20 11.597656 Z M 30.03125 11.597656 C 30.523438 11.597656 30.917969 11.984375 30.917969 12.460938 C 30.917969 12.9375 30.523438 13.324219 30.03125 13.324219 C 29.539062 13.324219 29.140625 12.9375 29.140625 12.460938 C 29.140625 11.984375 29.539062 11.597656 30.03125 11.597656 Z M 1.980469 13.929688 L 1.980469 15.046875 L 32.84375 15.046875 L 32.84375 13.929688 Z M 1.980469 13.929688 "/>
</g>
</svg>
