<?xml version="1.0" encoding="UTF-8"?>
<svg xmlns="http://www.w3.org/2000/svg" xmlns:xlink="http://www.w3.org/1999/xlink" width="35px" height="35px" viewBox="0 0 35 17" version="1.1">
<g id="surface1">
<path style="fill-rule:nonzero;fill:rgb(100%,100%,100%);fill-opacity:1;stroke-width:11.10074;stroke-linecap:round;stroke-linejoin:round;stroke:rgb(0%,0%,0%);stroke-opacity:1;stroke-miterlimit:4;" d="M 90.046949 -0.0278123 L 910.016869 -0.0278123 C 959.677814 -0.0278123 999.970899 40.261217 999.970899 89.947104 L 999.970899 410.027584 C 999.970899 459.713471 959.677814 500.002501 910.016869 500.002501 L 90.046949 500.002501 C 40.273138 500.002501 -0.0199468 459.713471 -0.0199468 410.027584 L -0.0199468 89.947104 C -0.0199468 40.261217 40.273138 -0.0278123 90.046949 -0.0278123 Z M 90.046949 -0.0278123 " transform="matrix(0.0346097,0,0,0.0332558,0.192097,0.184519)"/>
<path style="fill-rule:nonzero;fill:rgb(100%,100%,100%);fill-opacity:1;stroke-width:11.10074;stroke-linecap:round;stroke-linejoin:round;stroke:rgb(0%,0%,0%);stroke-opacity:1;stroke-miterlimit:4;" d="M 90.046949 -0.0278123 L 910.016869 -0.0278123 C 959.677814 -0.0278123 999.970899 40.261217 999.970899 89.947104 L 999.970899 410.027584 C 999.970899 459.713471 959.677814 500.002501 910.016869 500.002501 L 90.046949 500.002501 C 40.273138 500.002501 -0.0199468 459.713471 -0.0199468 410.027584 L -0.0199468 89.947104 C -0.0199468 40.261217 40.273138 -0.0278123 90.046949 -0.0278123 Z M 90.046949 -0.0278123 " transform="matrix(0.0346097,0,0,0.0332558,0.192097,0.184519)"/>
<path style=" stroke:none;fill-rule:nonzero;fill:rgb(0%,0%,0%);fill-opacity:1;" d="M 1.871094 12.164062 L 3.210938 11.066406 C 3.289062 11.152344 3.40625 11.265625 3.558594 11.402344 C 3.714844 11.539062 4.042969 11.722656 4.550781 11.960938 C 5.066406 12.183594 5.609375 12.296875 6.179688 12.296875 C 6.902344 12.296875 7.441406 12.132812 7.789062 11.8125 C 8.140625 11.476562 8.3125 11.160156 8.3125 10.859375 L 8.3125 10.839844 C 8.3125 10.691406 8.292969 10.5625 8.253906 10.449219 C 8.230469 10.339844 8.144531 10.195312 8.003906 10.019531 C 7.875 9.835938 7.628906 9.671875 7.265625 9.535156 C 6.902344 9.398438 6.4375 9.292969 5.867188 9.21875 C 5.15625 9.121094 4.554688 8.953125 4.0625 8.714844 C 3.585938 8.46875 3.238281 8.1875 3.015625 7.878906 C 2.808594 7.566406 2.667969 7.285156 2.589844 7.039062 C 2.511719 6.789062 2.472656 6.539062 2.472656 6.292969 C 2.472656 5.371094 2.84375 4.601562 3.578125 3.980469 C 4.328125 3.347656 5.273438 3.03125 6.410156 3.03125 C 6.980469 3.03125 7.570312 3.148438 8.179688 3.382812 C 8.785156 3.621094 9.257812 3.863281 9.59375 4.109375 L 10.078125 4.464844 L 8.816406 5.769531 C 8.742188 5.695312 8.628906 5.601562 8.488281 5.492188 C 8.359375 5.367188 8.082031 5.210938 7.652344 5.023438 C 7.238281 4.824219 6.824219 4.726562 6.410156 4.726562 C 5.6875 4.726562 5.164062 4.894531 4.839844 5.230469 C 4.53125 5.566406 4.375 5.90625 4.375 6.253906 C 4.375 6.429688 4.421875 6.589844 4.511719 6.738281 C 4.601562 6.875 4.710938 6.988281 4.839844 7.074219 C 4.984375 7.164062 5.171875 7.242188 5.402344 7.316406 C 5.648438 7.390625 5.867188 7.453125 6.0625 7.503906 C 6.257812 7.542969 6.515625 7.589844 6.839844 7.652344 C 7.007812 7.691406 7.136719 7.714844 7.226562 7.726562 C 8.195312 7.925781 8.953125 8.289062 9.496094 8.808594 C 10.039062 9.320312 10.3125 9.957031 10.3125 10.730469 C 10.3125 11.488281 9.929688 12.222656 9.167969 12.929688 C 8.402344 13.636719 7.394531 13.992188 6.140625 13.992188 C 5.417969 13.992188 4.699219 13.84375 3.988281 13.542969 C 3.273438 13.234375 2.746094 12.921875 2.394531 12.613281 Z M 1.871094 12.164062 "/>
<path style=" stroke:none;fill-rule:nonzero;fill:rgb(0%,0%,0%);fill-opacity:1;" d="M 13.9375 4.578125 C 14.703125 3.546875 15.800781 3.03125 17.238281 3.03125 C 18.671875 3.03125 19.765625 3.546875 20.515625 4.578125 C 21.28125 5.609375 21.660156 6.917969 21.660156 8.511719 C 21.660156 10.101562 21.28125 11.414062 20.515625 12.445312 C 19.765625 13.476562 18.671875 13.992188 17.238281 13.992188 C 15.800781 13.992188 14.703125 13.476562 13.9375 12.445312 C 13.1875 11.414062 12.8125 10.101562 12.8125 8.511719 C 12.8125 6.917969 13.1875 5.609375 13.9375 4.578125 Z M 19.101562 5.75 C 18.621094 5.066406 18 4.726562 17.238281 4.726562 C 16.476562 4.726562 15.855469 5.066406 15.375 5.75 C 14.898438 6.433594 14.65625 7.355469 14.65625 8.511719 C 14.65625 9.667969 14.898438 10.585938 15.375 11.269531 C 15.855469 11.953125 16.476562 12.296875 17.238281 12.296875 C 18 12.296875 18.621094 11.953125 19.101562 11.269531 C 19.578125 10.585938 19.820312 9.667969 19.820312 8.511719 C 19.820312 7.355469 19.578125 6.433594 19.101562 5.75 Z M 19.101562 5.75 "/>
<path style=" stroke:none;fill-rule:nonzero;fill:rgb(0%,0%,0%);fill-opacity:1;" d="M 24.648438 12.164062 L 25.988281 11.066406 C 26.0625 11.152344 26.179688 11.265625 26.335938 11.402344 C 26.492188 11.539062 26.820312 11.722656 27.324219 11.960938 C 27.84375 12.183594 28.386719 12.296875 28.957031 12.296875 C 29.679688 12.296875 30.214844 12.132812 30.566406 11.8125 C 30.914062 11.476562 31.089844 11.160156 31.089844 10.859375 L 31.089844 10.839844 C 31.089844 10.691406 31.070312 10.5625 31.03125 10.449219 C 31.003906 10.339844 30.921875 10.195312 30.777344 10.019531 C 30.648438 9.835938 30.402344 9.671875 30.042969 9.535156 C 29.679688 9.398438 29.214844 9.292969 28.644531 9.21875 C 27.933594 9.121094 27.332031 8.953125 26.839844 8.714844 C 26.363281 8.46875 26.011719 8.1875 25.792969 7.878906 C 25.585938 7.566406 25.441406 7.285156 25.367188 7.039062 C 25.289062 6.789062 25.25 6.539062 25.25 6.292969 C 25.25 5.371094 25.617188 4.601562 26.355469 3.980469 C 27.105469 3.347656 28.050781 3.03125 29.1875 3.03125 C 29.757812 3.03125 30.347656 3.148438 30.953125 3.382812 C 31.5625 3.621094 32.035156 3.863281 32.371094 4.109375 L 32.855469 4.464844 L 31.59375 5.769531 C 31.515625 5.695312 31.40625 5.601562 31.265625 5.492188 C 31.136719 5.367188 30.855469 5.210938 30.429688 5.023438 C 30.015625 4.824219 29.601562 4.726562 29.1875 4.726562 C 28.464844 4.726562 27.941406 4.894531 27.617188 5.230469 C 27.304688 5.566406 27.152344 5.90625 27.152344 6.253906 C 27.152344 6.429688 27.195312 6.589844 27.285156 6.738281 C 27.378906 6.875 27.488281 6.988281 27.617188 7.074219 C 27.757812 7.164062 27.945312 7.242188 28.179688 7.316406 C 28.425781 7.390625 28.644531 7.453125 28.839844 7.503906 C 29.03125 7.542969 29.292969 7.589844 29.613281 7.652344 C 29.78125 7.691406 29.914062 7.714844 30.003906 7.726562 C 30.972656 7.925781 31.730469 8.289062 32.273438 8.808594 C 32.816406 9.320312 33.089844 9.957031 33.089844 10.730469 C 33.089844 11.488281 32.707031 12.222656 31.941406 12.929688 C 31.179688 13.636719 30.171875 13.992188 28.917969 13.992188 C 28.191406 13.992188 27.472656 13.84375 26.761719 13.542969 C 26.050781 13.234375 25.519531 12.921875 25.171875 12.613281 Z M 24.648438 12.164062 "/>
</g>
</svg>
