<?xml version="1.0" encoding="UTF-8"?>
<svg xmlns="http://www.w3.org/2000/svg" xmlns:xlink="http://www.w3.org/1999/xlink" width="35px" height="35px" viewBox="0 0 35 17" version="1.1">
<g id="surface1">
<path style=" stroke:none;fill-rule:nonzero;fill:rgb(0%,0%,0%);fill-opacity:1;" d="M 2.625 0 L 32.375 0 C 33.828125 0 35 1.136719 35 2.550781 L 35 14.449219 C 35 15.863281 33.828125 17 32.375 17 L 2.625 17 C 1.171875 17 0 15.863281 0 14.449219 L 0 2.550781 C 0 1.136719 1.171875 0 2.625 0 Z M 2.625 0 "/>
<path style=" stroke:none;fill-rule:nonzero;fill:rgb(100%,80%,0%);fill-opacity:1;" d="M 2.625 0.566406 L 32.375 0.566406 C 33.507812 0.566406 34.417969 1.453125 34.417969 2.550781 L 34.417969 14.449219 C 34.417969 15.546875 33.507812 16.433594 32.375 16.433594 L 2.625 16.433594 C 1.492188 16.433594 0.582031 15.546875 0.582031 14.449219 L 0.582031 2.550781 C 0.582031 1.453125 1.492188 0.566406 2.625 0.566406 Z M 2.625 0.566406 "/>
<path style=" stroke:none;fill-rule:nonzero;fill:rgb(2.745098%,34.117647%,22.352941%);fill-opacity:1;" d="M 4.066406 2.109375 C 3.449219 2.121094 2.957031 2.613281 2.957031 3.210938 C 2.957031 3.820312 3.464844 4.316406 4.09375 4.316406 C 4.71875 4.316406 5.226562 3.820312 5.226562 3.210938 C 5.226562 2.601562 4.71875 2.109375 4.09375 2.109375 C 4.082031 2.109375 4.074219 2.109375 4.066406 2.109375 Z M 31.785156 2.152344 C 30.605469 2.152344 30.367188 3.039062 30.367188 3.53125 C 30.367188 4.507812 31.273438 11.972656 31.273438 11.972656 L 32.375 11.972656 C 32.375 11.972656 33.203125 4.507812 33.203125 3.53125 C 33.203125 3.039062 32.960938 2.152344 31.785156 2.152344 Z M 3.222656 4.644531 C 3.191406 4.640625 3.152344 4.644531 3.128906 4.652344 C 3.09375 4.667969 3.097656 4.671875 3.046875 4.722656 C 2.902344 4.863281 2.59375 5.175781 2.367188 5.527344 C 2.09375 5.953125 1.96875 6.429688 1.996094 6.808594 C 2.023438 7.15625 2.0625 7.738281 2.296875 8.128906 C 2.367188 8.246094 2.5 8.371094 2.613281 8.40625 C 2.859375 8.480469 3.105469 8.351562 3.105469 8.351562 C 3.105469 8.351562 2.398438 7.699219 2.398438 6.886719 C 2.421875 5.886719 3.128906 5.476562 3.128906 5.476562 L 3.136719 8.359375 C 2.496094 8.566406 2.027344 9.121094 1.984375 9.800781 C 1.984375 9.808594 1.980469 9.816406 1.980469 9.824219 L 1.980469 11.292969 C 1.980469 11.425781 2.085938 11.527344 2.21875 11.527344 L 6.089844 11.527344 C 6.222656 11.527344 6.332031 11.425781 6.332031 11.292969 L 6.332031 9.824219 C 6.332031 9.816406 6.328125 9.808594 6.328125 9.796875 C 6.285156 9.128906 5.828125 8.574219 5.207031 8.363281 L 5.207031 5.484375 C 5.207031 5.484375 5.851562 5.796875 6.039062 6.082031 C 6.5 6.785156 6.691406 8.335938 6.550781 8.535156 C 6.53125 8.5625 6.550781 8.644531 6.574219 8.726562 L 7.996094 10 L 7.996094 11.429688 C 7.699219 11.523438 7.484375 11.785156 7.464844 12.097656 C 7.464844 12.101562 7.464844 12.105469 7.464844 12.109375 L 7.464844 12.792969 C 7.464844 12.851562 7.511719 12.898438 7.574219 12.898438 L 9.835938 12.898438 C 9.898438 12.898438 9.984375 12.839844 9.949219 12.792969 L 9.949219 12.109375 C 9.949219 12.105469 9.945312 12.101562 9.945312 12.097656 C 9.925781 11.789062 9.714844 11.53125 9.425781 11.433594 L 9.425781 10.597656 L 10.433594 11.542969 L 10.617188 11.433594 L 9.425781 9.785156 C 9.425781 9.785156 9.414062 9.746094 9.394531 9.726562 C 9.371094 9.703125 9.320312 9.710938 9.320312 9.710938 L 8.058594 9.710938 C 8.058594 9.710938 8.019531 9.703125 8.003906 9.71875 C 8 9.757812 6.789062 8.660156 6.753906 8.628906 C 6.773438 8.613281 6.796875 8.601562 6.816406 8.582031 C 6.984375 8.402344 7.074219 7.519531 6.933594 7.011719 C 6.8125 6.578125 6.667969 6.058594 6.382812 5.691406 C 6.097656 5.324219 5.667969 5.109375 5.355469 4.773438 C 5.3125 4.722656 5.265625 4.667969 5.203125 4.644531 C 5.183594 4.636719 5.140625 4.644531 5.140625 4.644531 L 3.28125 4.644531 C 3.28125 4.644531 3.257812 4.644531 3.222656 4.644531 Z M 8.644531 7.90625 C 8.238281 7.90625 7.910156 8.226562 7.910156 8.617188 C 7.910156 9.011719 8.238281 9.332031 8.644531 9.332031 C 9.050781 9.332031 9.378906 9.011719 9.378906 8.617188 C 9.378906 8.226562 9.050781 7.90625 8.644531 7.90625 Z M 2.585938 11.589844 L 2.585938 15.164062 C 2.585938 15.324219 2.71875 15.453125 2.882812 15.453125 C 3.046875 15.453125 3.183594 15.324219 3.183594 15.164062 L 3.183594 11.589844 Z M 4.851562 11.589844 L 4.851562 15.164062 C 4.851562 15.324219 4.984375 15.453125 5.152344 15.453125 C 5.316406 15.453125 5.449219 15.324219 5.449219 15.164062 L 5.449219 11.589844 Z M 7.945312 12.945312 L 7.945312 15.265625 C 7.945312 15.371094 8.03125 15.453125 8.136719 15.453125 C 8.246094 15.453125 8.332031 15.371094 8.332031 15.265625 L 8.332031 12.945312 Z M 9.136719 12.945312 L 9.136719 15.265625 C 9.136719 15.371094 9.222656 15.453125 9.332031 15.453125 C 9.4375 15.453125 9.527344 15.371094 9.527344 15.265625 L 9.527344 12.945312 Z M 31.820312 12.960938 C 31.160156 12.960938 30.625 13.480469 30.625 14.125 C 30.625 14.765625 31.160156 15.289062 31.820312 15.289062 C 32.480469 15.289062 33.019531 14.765625 33.019531 14.125 C 33.019531 13.480469 32.484375 12.960938 31.820312 12.960938 Z M 31.820312 12.960938 "/>
<path style=" stroke:none;fill-rule:nonzero;fill:rgb(0%,0%,0%);fill-opacity:1;" d="M 13.214844 1.988281 C 12.609375 1.988281 12.316406 2.492188 12.316406 3.109375 C 12.316406 3.734375 12.609375 4.234375 13.214844 4.234375 C 13.632812 4.234375 13.875 3.996094 14.011719 3.648438 L 13.644531 3.511719 C 13.558594 3.78125 13.414062 3.886719 13.214844 3.886719 C 12.910156 3.886719 12.691406 3.59375 12.691406 3.109375 C 12.691406 2.628906 12.910156 2.335938 13.214844 2.335938 C 13.414062 2.335938 13.558594 2.441406 13.644531 2.710938 L 14.011719 2.574219 C 13.875 2.226562 13.632812 1.988281 13.214844 1.988281 Z M 18.46875 2.015625 L 18.359375 2.375 C 18.570312 2.375 18.636719 2.46875 18.746094 2.628906 C 18.839844 2.769531 19.019531 3.003906 19.121094 3.015625 C 18.855469 3.03125 18.773438 3.230469 18.636719 3.460938 C 18.472656 3.730469 18.359375 4.035156 18.167969 4.183594 L 18.664062 4.183594 C 18.746094 4.046875 18.9375 3.699219 19.074219 3.460938 C 19.175781 3.292969 19.269531 3.191406 19.378906 3.191406 C 19.433594 3.191406 19.542969 3.203125 19.542969 3.203125 L 19.542969 4.183594 L 19.929688 4.183594 L 19.929688 3.203125 C 19.929688 3.203125 20.039062 3.191406 20.09375 3.191406 C 20.207031 3.191406 20.300781 3.292969 20.398438 3.460938 C 20.535156 3.699219 20.730469 4.046875 20.8125 4.183594 L 21.308594 4.183594 C 21.113281 4.035156 21 3.730469 20.839844 3.460938 C 20.703125 3.230469 20.617188 3.03125 20.355469 3.015625 C 20.453125 3.003906 20.636719 2.769531 20.730469 2.628906 C 20.839844 2.46875 20.902344 2.375 21.113281 2.375 L 21.003906 2.015625 C 20.867188 2.019531 20.742188 2.066406 20.648438 2.148438 C 20.363281 2.386719 20.265625 2.859375 19.96875 2.859375 L 19.957031 2.859375 C 19.941406 2.859375 19.9375 2.855469 19.929688 2.851562 L 19.929688 2.039062 L 19.542969 2.039062 L 19.542969 2.851562 C 19.535156 2.855469 19.53125 2.859375 19.515625 2.859375 L 19.503906 2.859375 C 19.210938 2.859375 19.109375 2.386719 18.828125 2.148438 C 18.734375 2.066406 18.609375 2.019531 18.46875 2.015625 Z M 14.625 2.039062 C 14.625 2.523438 14.625 3.324219 14.597656 3.484375 C 14.546875 3.78125 14.175781 3.875 14.175781 3.875 L 14.242188 4.234375 C 14.242188 4.234375 14.90625 4.183594 14.984375 3.433594 C 15.011719 3.164062 15.011719 2.363281 15.011719 2.363281 L 15.617188 2.363281 L 15.617188 4.183594 L 16.003906 4.183594 L 16.003906 2.039062 Z M 16.285156 2.039062 C 16.285156 2.039062 17.046875 3.566406 17.046875 3.648438 C 17.046875 3.726562 16.917969 3.859375 16.78125 3.859375 C 16.671875 3.859375 16.5625 3.835938 16.5625 3.835938 L 16.644531 4.171875 C 16.671875 4.183594 16.726562 4.191406 16.835938 4.191406 C 17.03125 4.191406 17.28125 4.035156 17.359375 3.835938 L 18.078125 2.039062 L 17.664062 2.039062 L 17.222656 3.164062 L 16.699219 2.039062 Z M 21.5625 2.039062 L 21.5625 4.183594 L 22.363281 4.183594 C 22.914062 4.183594 23.105469 3.753906 23.105469 3.484375 C 23.105469 3.21875 22.96875 2.871094 22.417969 2.871094 L 21.949219 2.871094 L 21.949219 2.039062 Z M 23.269531 2.039062 L 23.269531 4.183594 L 23.65625 4.183594 L 23.65625 2.039062 Z M 23.96875 2.039062 L 23.96875 4.183594 L 25.484375 4.183594 L 25.484375 4.609375 L 25.8125 4.609375 L 25.8125 3.859375 L 25.566406 3.859375 L 25.566406 2.039062 L 25.179688 2.039062 L 25.179688 3.859375 L 24.355469 3.859375 L 24.355469 2.039062 Z M 26.09375 2.039062 L 26.09375 4.183594 L 27.5 4.183594 L 27.5 3.859375 L 26.480469 3.859375 L 26.480469 3.21875 L 27.277344 3.21875 L 27.277344 2.898438 L 26.480469 2.898438 L 26.480469 2.386719 L 27.472656 2.386719 L 27.472656 2.039062 Z M 21.949219 3.191406 L 22.335938 3.191406 C 22.582031 3.191406 22.71875 3.324219 22.71875 3.539062 C 22.71875 3.753906 22.582031 3.859375 22.335938 3.859375 L 21.949219 3.859375 Z M 18.402344 5.695312 C 17.832031 5.75 17.71875 6.558594 17.316406 6.558594 C 17.296875 6.558594 17.28125 6.558594 17.273438 6.550781 L 17.273438 5.75 L 16.886719 5.75 L 16.886719 7.890625 L 17.273438 7.890625 L 17.273438 6.914062 C 17.273438 6.914062 17.382812 6.902344 17.4375 6.902344 C 17.605469 6.902344 17.699219 7 17.796875 7.167969 C 17.933594 7.410156 18.15625 7.757812 18.226562 7.890625 L 18.707031 7.890625 C 18.515625 7.746094 18.371094 7.441406 18.210938 7.167969 C 18.074219 6.941406 17.992188 6.742188 17.714844 6.714844 C 17.820312 6.714844 17.996094 6.472656 18.101562 6.339844 C 18.21875 6.1875 18.273438 6.070312 18.484375 6.070312 Z M 10.476562 5.75 L 10.476562 7.890625 L 10.863281 7.890625 L 10.863281 6.070312 L 11.6875 6.070312 L 11.6875 7.890625 L 12.074219 7.890625 L 12.074219 5.75 Z M 12.492188 5.75 L 12.492188 7.890625 L 12.878906 7.890625 L 12.878906 7.140625 L 13.234375 7.140625 C 13.757812 7.140625 13.953125 6.742188 13.953125 6.445312 C 13.953125 6.152344 13.757812 5.75 13.234375 5.75 Z M 14.398438 5.75 L 14.398438 7.890625 L 15.199219 7.890625 C 15.75 7.890625 15.941406 7.464844 15.941406 7.195312 C 15.941406 6.929688 15.804688 6.582031 15.253906 6.582031 L 14.785156 6.582031 L 14.785156 5.75 Z M 16.109375 5.75 L 16.109375 7.890625 L 16.496094 7.890625 L 16.496094 5.75 Z M 19.234375 5.75 C 19.234375 6.234375 19.234375 7.035156 19.207031 7.195312 C 19.15625 7.492188 18.785156 7.585938 18.785156 7.585938 L 18.847656 7.945312 C 18.847656 7.945312 19.515625 7.890625 19.59375 7.140625 C 19.621094 6.875 19.621094 6.070312 19.621094 6.070312 L 20.226562 6.070312 L 20.226562 7.890625 L 20.613281 7.890625 L 20.613281 5.75 Z M 21.664062 5.75 L 20.949219 7.890625 L 21.363281 7.890625 L 21.5 7.464844 L 22.273438 7.464844 L 22.410156 7.890625 L 22.824219 7.890625 L 22.105469 5.75 Z M 23.488281 5.75 L 23.488281 6.070312 C 23.488281 6.589844 23.347656 7.304688 23.238281 7.570312 L 22.992188 7.570312 L 22.992188 8.265625 L 23.320312 8.265625 L 23.320312 7.890625 L 24.699219 7.890625 L 24.699219 8.265625 L 25.03125 8.265625 L 25.03125 7.570312 L 24.78125 7.570312 L 24.78125 5.75 Z M 25.914062 5.75 L 25.195312 7.890625 L 25.609375 7.890625 L 25.746094 7.464844 L 26.519531 7.464844 L 26.65625 7.890625 L 27.070312 7.890625 L 26.355469 5.75 Z M 27.539062 5.75 L 27.292969 7.890625 L 27.707031 7.890625 L 27.84375 6.3125 L 28.421875 7.570312 L 29 6.3125 L 29.140625 7.890625 L 29.550781 7.890625 L 29.304688 5.75 L 28.917969 5.75 L 28.421875 6.792969 L 27.925781 5.75 Z M 12.878906 6.070312 L 13.125 6.070312 C 13.347656 6.070312 13.566406 6.179688 13.566406 6.445312 C 13.566406 6.714844 13.347656 6.820312 13.125 6.820312 L 12.878906 6.820312 Z M 23.871094 6.070312 L 24.394531 6.070312 L 24.394531 7.570312 L 23.613281 7.570312 C 23.761719 7.222656 23.871094 6.582031 23.871094 6.070312 Z M 21.886719 6.234375 L 22.160156 7.140625 L 21.609375 7.140625 Z M 26.132812 6.234375 L 26.410156 7.140625 L 25.859375 7.140625 Z M 14.785156 6.902344 L 15.171875 6.902344 C 15.417969 6.902344 15.558594 7.035156 15.558594 7.25 C 15.558594 7.464844 15.417969 7.570312 15.171875 7.570312 L 14.785156 7.570312 Z M 19.304688 8.765625 C 19.304688 8.980469 19.527344 9.300781 19.910156 9.300781 C 20.296875 9.300781 20.488281 8.980469 20.488281 8.765625 L 20.242188 8.765625 C 20.242188 8.925781 20.132812 9.058594 19.910156 9.058594 C 19.691406 9.058594 19.582031 8.925781 19.582031 8.765625 Z M 13.972656 9.40625 C 13.363281 9.40625 13.074219 9.910156 13.074219 10.53125 C 13.074219 11.15625 13.363281 11.65625 13.972656 11.65625 C 14.386719 11.65625 14.632812 11.414062 14.769531 11.066406 L 14.398438 10.933594 C 14.316406 11.199219 14.171875 11.308594 13.972656 11.308594 C 13.667969 11.308594 13.449219 11.011719 13.449219 10.53125 C 13.449219 10.050781 13.667969 9.753906 13.972656 9.753906 C 14.171875 9.753906 14.316406 9.863281 14.398438 10.128906 L 14.769531 9.996094 C 14.632812 9.648438 14.386719 9.40625 13.972656 9.40625 Z M 15.082031 9.460938 L 15.082031 11.601562 L 15.9375 11.601562 C 16.347656 11.601562 16.652344 11.308594 16.652344 10.960938 C 16.652344 10.71875 16.484375 10.558594 16.265625 10.476562 C 16.457031 10.398438 16.582031 10.210938 16.582031 10.050781 C 16.582031 9.765625 16.347656 9.460938 15.933594 9.460938 Z M 17.621094 9.460938 L 16.90625 11.601562 L 17.320312 11.601562 L 17.457031 11.175781 L 18.230469 11.175781 L 18.367188 11.601562 L 18.78125 11.601562 L 18.0625 9.460938 Z M 19.113281 9.460938 L 19.113281 11.601562 L 19.527344 11.601562 L 20.324219 10.128906 L 20.324219 11.601562 L 20.710938 11.601562 L 20.710938 9.460938 L 20.296875 9.460938 L 19.496094 10.933594 L 19.496094 9.460938 Z M 21.265625 9.460938 L 21.019531 11.601562 L 21.429688 11.601562 L 21.570312 10.023438 L 22.148438 11.28125 L 22.726562 10.023438 L 22.863281 11.601562 L 23.277344 11.601562 L 23.03125 9.460938 L 22.644531 9.460938 L 22.148438 10.503906 L 21.652344 9.460938 Z M 23.445312 9.460938 C 23.445312 9.460938 24.203125 10.988281 24.203125 11.066406 C 24.203125 11.148438 24.078125 11.28125 23.941406 11.28125 C 23.832031 11.28125 23.71875 11.253906 23.71875 11.253906 L 23.804688 11.589844 C 23.832031 11.601562 23.886719 11.609375 23.996094 11.609375 C 24.1875 11.609375 24.441406 11.457031 24.519531 11.253906 L 25.234375 9.460938 L 24.824219 9.460938 L 24.382812 10.585938 L 23.859375 9.460938 Z M 15.464844 9.78125 L 15.90625 9.78125 C 16.042969 9.78125 16.183594 9.871094 16.183594 10.058594 C 16.183594 10.21875 16.074219 10.332031 15.90625 10.332031 L 15.464844 10.332031 Z M 17.84375 9.941406 L 18.117188 10.851562 L 17.566406 10.851562 Z M 15.464844 10.636719 L 15.933594 10.636719 C 16.15625 10.636719 16.265625 10.808594 16.265625 10.960938 C 16.265625 11.113281 16.15625 11.28125 15.933594 11.28125 L 15.464844 11.28125 Z M 16.132812 13.117188 C 15.691406 13.117188 15.371094 13.359375 15.371094 13.359375 L 15.578125 13.671875 C 15.578125 13.671875 15.746094 13.464844 16.132812 13.464844 C 16.433594 13.464844 16.480469 13.679688 16.480469 13.757812 C 16.480469 13.839844 16.40625 14.027344 16.1875 14.027344 L 15.9375 14.027344 L 15.9375 14.347656 L 16.1875 14.347656 C 16.378906 14.347656 16.519531 14.480469 16.519531 14.695312 C 16.519531 14.882812 16.351562 15.019531 16.132812 15.019531 C 15.71875 15.019531 15.523438 14.777344 15.523438 14.777344 L 15.292969 15.078125 C 15.292969 15.078125 15.636719 15.367188 16.101562 15.367188 C 16.65625 15.367188 16.914062 14.976562 16.914062 14.722656 C 16.914062 14.253906 16.460938 14.1875 16.460938 14.1875 C 16.460938 14.1875 16.839844 14.109375 16.839844 13.707031 C 16.839844 13.386719 16.574219 13.117188 16.132812 13.117188 Z M 13.664062 13.171875 L 13.664062 13.492188 C 13.664062 14.007812 13.527344 14.722656 13.417969 14.992188 L 13.167969 14.992188 L 13.167969 15.6875 L 13.5 15.6875 L 13.5 15.3125 L 14.878906 15.3125 L 14.878906 15.6875 L 15.207031 15.6875 L 15.207031 14.992188 L 14.960938 14.992188 L 14.960938 13.171875 Z M 17.21875 13.171875 L 17.21875 15.3125 L 17.605469 15.3125 L 17.605469 13.171875 Z M 17.910156 13.171875 L 17.910156 15.3125 L 19.425781 15.3125 L 19.425781 15.742188 L 19.757812 15.742188 L 19.757812 14.992188 L 19.507812 14.992188 L 19.507812 13.171875 L 19.125 13.171875 L 19.125 14.992188 L 18.296875 14.992188 L 18.296875 13.171875 Z M 20.835938 13.171875 C 20.285156 13.171875 20.121094 13.546875 20.121094 13.757812 C 20.121094 14.054688 20.3125 14.257812 20.589844 14.308594 C 20.476562 14.332031 20.316406 14.480469 20.257812 14.617188 C 20.175781 14.804688 19.917969 15.273438 19.84375 15.3125 L 20.3125 15.3125 C 20.421875 15.125 20.496094 14.976562 20.601562 14.78125 C 20.695312 14.605469 20.753906 14.457031 21 14.457031 L 21.25 14.457031 L 21.25 15.3125 L 21.636719 15.3125 L 21.636719 13.171875 Z M 21.941406 13.171875 L 21.941406 15.3125 L 23.457031 15.3125 L 23.457031 15.742188 L 23.789062 15.742188 L 23.789062 14.992188 L 23.542969 14.992188 L 23.542969 13.171875 L 23.15625 13.171875 L 23.15625 14.992188 L 22.328125 14.992188 L 22.328125 13.171875 Z M 24.070312 13.171875 L 24.070312 15.3125 L 24.453125 15.3125 L 24.453125 13.171875 Z M 14.050781 13.492188 L 14.574219 13.492188 L 14.574219 14.992188 L 13.789062 14.992188 C 13.941406 14.644531 14.050781 14 14.050781 13.492188 Z M 20.945312 13.492188 L 21.25 13.492188 L 21.25 14.132812 L 20.917969 14.132812 C 20.699219 14.132812 20.503906 14.042969 20.503906 13.8125 C 20.503906 13.582031 20.726562 13.492188 20.945312 13.492188 Z M 20.945312 13.492188 "/>
</g>
</svg>
