<?xml version="1.0" encoding="UTF-8"?>
<svg xmlns="http://www.w3.org/2000/svg" xmlns:xlink="http://www.w3.org/1999/xlink" width="35px" height="35px" viewBox="0 0 35 17" version="1.1">
<g id="surface1">
<path style=" stroke:none;fill-rule:nonzero;fill:rgb(0%,0%,0%);fill-opacity:1;" d="M 2.25 0 L 32.75 0 C 33.992188 0 35 0.980469 35 2.1875 L 35 14.8125 C 35 16.019531 33.992188 17 32.75 17 L 2.25 17 C 1.007812 17 0 16.019531 0 14.8125 L 0 2.1875 C 0 0.980469 1.007812 0 2.25 0 Z M 2.25 0 "/>
<path style=" stroke:none;fill-rule:nonzero;fill:rgb(100%,100%,100%);fill-opacity:1;" d="M 2.25 0.484375 L 32.75 0.484375 C 33.714844 0.484375 34.5 1.246094 34.5 2.1875 L 34.5 14.8125 C 34.5 15.753906 33.714844 16.515625 32.75 16.515625 L 2.25 16.515625 C 1.285156 16.515625 0.5 15.753906 0.5 14.8125 L 0.5 2.1875 C 0.5 1.246094 1.285156 0.484375 2.25 0.484375 Z M 2.25 0.484375 "/>
<path style=" stroke:none;fill-rule:nonzero;fill:rgb(0%,0%,0%);fill-opacity:1;" d="M 18.4375 11.582031 C 18.511719 11.636719 18.605469 11.667969 18.699219 11.667969 L 20.789062 11.667969 C 21.054688 13.507812 22.671875 14.875 24.582031 14.875 C 26.695312 14.875 28.410156 13.210938 28.410156 11.15625 C 28.410156 9.101562 26.695312 7.4375 24.582031 7.4375 C 23.984375 7.4375 23.398438 7.574219 22.867188 7.832031 L 21.449219 5.871094 L 21.820312 5.019531 L 22.046875 5.019531 C 22.363281 5.019531 22.621094 4.769531 22.621094 4.460938 C 22.621094 4.15625 22.363281 3.90625 22.046875 3.90625 L 19.414062 3.90625 C 19.097656 3.90625 18.839844 4.15625 18.839844 4.460938 C 18.839844 4.769531 19.097656 5.019531 19.414062 5.019531 L 21.09375 5.019531 L 20.871094 5.53125 L 14.269531 5.53125 C 14.300781 5.425781 14.316406 5.3125 14.316406 5.203125 C 14.316406 4.75 14.066406 4.332031 13.664062 4.109375 L 13.410156 3.972656 C 13.230469 3.871094 13.121094 3.6875 13.121094 3.488281 C 13.121094 3.179688 13.378906 2.929688 13.695312 2.929688 L 15.585938 2.929688 C 15.796875 2.929688 15.96875 2.761719 15.96875 2.558594 C 15.96875 2.351562 15.796875 2.183594 15.585938 2.183594 L 13.695312 2.183594 C 12.957031 2.183594 12.355469 2.765625 12.355469 3.488281 C 12.355469 3.953125 12.613281 4.386719 13.03125 4.617188 L 13.285156 4.757812 C 13.449219 4.847656 13.550781 5.019531 13.550781 5.203125 C 13.550781 5.277344 13.535156 5.351562 13.5 5.417969 L 12.300781 7.917969 C 11.726562 7.601562 11.078125 7.4375 10.417969 7.4375 C 8.304688 7.4375 6.589844 9.101562 6.589844 11.15625 C 6.589844 13.210938 8.304688 14.875 10.417969 14.875 C 12.53125 14.875 14.246094 13.210938 14.246094 11.15625 C 14.246094 10.082031 13.769531 9.0625 12.9375 8.355469 L 13.234375 7.734375 Z M 10.417969 14.316406 C 8.621094 14.316406 7.164062 12.902344 7.164062 11.15625 C 7.164062 9.410156 8.621094 7.996094 10.417969 7.996094 C 10.992188 7.996094 11.558594 8.144531 12.058594 8.425781 L 11.226562 10.15625 C 11.175781 10.261719 11.09375 10.347656 10.992188 10.402344 L 10.226562 10.835938 C 10.109375 10.902344 10.035156 11.023438 10.035156 11.15625 C 10.035156 11.363281 10.207031 11.527344 10.417969 11.527344 C 10.484375 11.527344 10.550781 11.511719 10.609375 11.476562 L 11.375 11.046875 C 11.613281 10.914062 11.804688 10.714844 11.921875 10.472656 L 12.679688 8.886719 C 13.316406 9.480469 13.671875 10.300781 13.671875 11.15625 C 13.671875 12.902344 12.214844 14.316406 10.417969 14.316406 Z M 24.582031 14.316406 C 22.988281 14.316406 21.628906 13.195312 21.371094 11.667969 L 24.675781 11.667969 C 24.96875 11.667969 25.203125 11.4375 25.203125 11.15625 C 25.203125 11.050781 25.171875 10.949219 25.109375 10.863281 L 23.242188 8.273438 C 23.664062 8.089844 24.121094 7.996094 24.582031 7.996094 C 26.378906 7.996094 27.835938 9.410156 27.835938 11.15625 C 27.835938 12.902344 26.378906 14.316406 24.582031 14.316406 Z M 21.34375 10.832031 C 21.433594 10.003906 21.851562 9.246094 22.511719 8.71875 L 24.035156 10.832031 Z M 19.488281 10.832031 L 21.226562 6.855469 L 22.21875 8.230469 C 21.386719 8.867188 20.859375 9.808594 20.769531 10.832031 Z M 18.625 10.667969 L 13.691406 7.019531 L 14.035156 6.367188 L 20.503906 6.367188 Z M 18.625 10.667969 "/>
</g>
</svg>
