<?xml version="1.0" encoding="UTF-8"?>
<svg xmlns="http://www.w3.org/2000/svg" xmlns:xlink="http://www.w3.org/1999/xlink" width="35px" height="35px" viewBox="0 0 35 17" version="1.1">
<g id="surface1">
<path style=" stroke:none;fill-rule:nonzero;fill:rgb(0%,0%,0%);fill-opacity:1;" d="M 2.625 0 L 32.375 0 C 33.824219 0 35 1.140625 35 2.550781 L 35 14.449219 C 35 15.859375 33.824219 17 32.375 17 L 2.625 17 C 1.175781 17 0 15.859375 0 14.449219 L 0 2.550781 C 0 1.140625 1.175781 0 2.625 0 Z M 2.625 0 "/>
<path style=" stroke:none;fill-rule:nonzero;fill:rgb(100%,100%,100%);fill-opacity:1;" d="M 2.625 0.566406 L 32.375 0.566406 C 33.503906 0.566406 34.417969 1.453125 34.417969 2.550781 L 34.417969 14.449219 C 34.417969 15.546875 33.503906 16.433594 32.375 16.433594 L 2.625 16.433594 C 1.496094 16.433594 0.582031 15.546875 0.582031 14.449219 L 0.582031 2.550781 C 0.582031 1.453125 1.496094 0.566406 2.625 0.566406 Z M 2.625 0.566406 "/>
<path style=" stroke:none;fill-rule:nonzero;fill:rgb(100%,50.196078%,0%);fill-opacity:1;" d="M 14.171875 2.125 C 13.714844 2.125 13.351562 2.480469 13.351562 2.921875 L 13.351562 11.527344 L 21.648438 11.527344 L 21.648438 2.921875 C 21.648438 2.480469 21.285156 2.125 20.828125 2.125 Z M 14.171875 2.125 "/>
<path style=" stroke:none;fill-rule:nonzero;fill:rgb(0%,0%,0%);fill-opacity:1;" d="M 13.375 11.847656 L 21.671875 11.847656 L 21.671875 12.21875 L 13.375 12.21875 Z M 13.375 11.847656 "/>
<path style=" stroke:none;fill-rule:nonzero;fill:rgb(0%,0%,0%);fill-opacity:1;" d="M 13.375 12.539062 L 13.375 14.875 L 14.414062 14.875 L 14.414062 13.878906 L 16.835938 13.878906 C 16.914062 14.175781 17.195312 14.398438 17.527344 14.398438 C 17.855469 14.398438 18.132812 14.175781 18.210938 13.878906 L 20.632812 13.878906 L 20.632812 14.875 L 21.671875 14.875 L 21.671875 12.539062 L 20.632812 12.539062 L 20.632812 13.535156 L 18.210938 13.535156 C 18.132812 13.234375 17.855469 13.015625 17.527344 13.015625 C 17.195312 13.015625 16.914062 13.234375 16.835938 13.535156 L 14.414062 13.535156 L 14.414062 12.539062 Z M 13.375 12.539062 "/>
</g>
</svg>
