<?xml version="1.0" encoding="UTF-8"?>
<svg xmlns="http://www.w3.org/2000/svg" xmlns:xlink="http://www.w3.org/1999/xlink" width="35px" height="35px" viewBox="0 0 35 17" version="1.1">
<g id="surface1">
<path style=" stroke:none;fill-rule:nonzero;fill:rgb(0%,0%,0%);fill-opacity:1;" d="M 2.625 0 L 32.375 0 C 33.824219 0 35 1.140625 35 2.550781 L 35 14.449219 C 35 15.859375 33.824219 17 32.375 17 L 2.625 17 C 1.175781 17 0 15.859375 0 14.449219 L 0 2.550781 C 0 1.140625 1.175781 0 2.625 0 Z M 2.625 0 "/>
<path style=" stroke:none;fill-rule:nonzero;fill:rgb(100%,100%,100%);fill-opacity:1;" d="M 2.625 0.566406 L 32.375 0.566406 C 33.503906 0.566406 34.417969 1.453125 34.417969 2.550781 L 34.417969 14.449219 C 34.417969 15.546875 33.503906 16.433594 32.375 16.433594 L 2.625 16.433594 C 1.496094 16.433594 0.582031 15.546875 0.582031 14.449219 L 0.582031 2.550781 C 0.582031 1.453125 1.496094 0.566406 2.625 0.566406 Z M 2.625 0.566406 "/>
<path style=" stroke:none;fill-rule:nonzero;fill:rgb(0%,0%,0%);fill-opacity:1;" d="M 2.296875 5.3125 L 2.296875 7.4375 L 2.765625 7.4375 L 2.765625 5.730469 L 3.585938 5.730469 L 3.585938 7.4375 L 4.054688 7.4375 L 4.054688 5.3125 Z M 2.296875 5.3125 "/>
<path style=" stroke:none;fill-rule:nonzero;fill:rgb(0%,0%,0%);fill-opacity:1;" d="M 5.785156 5.238281 C 5.488281 5.242188 5.246094 5.34375 5.058594 5.550781 C 4.871094 5.753906 4.777344 6.027344 4.769531 6.375 C 4.777344 6.722656 4.871094 6.996094 5.058594 7.199219 C 5.246094 7.402344 5.488281 7.507812 5.785156 7.511719 C 6.085938 7.507812 6.328125 7.402344 6.511719 7.199219 C 6.699219 6.996094 6.796875 6.722656 6.800781 6.375 C 6.796875 6.027344 6.699219 5.753906 6.511719 5.550781 C 6.328125 5.34375 6.085938 5.242188 5.785156 5.238281 Z M 5.785156 5.617188 C 5.945312 5.621094 6.074219 5.6875 6.175781 5.824219 C 6.277344 5.960938 6.328125 6.144531 6.332031 6.375 C 6.328125 6.605469 6.277344 6.789062 6.175781 6.925781 C 6.074219 7.0625 5.945312 7.128906 5.785156 7.132812 C 5.625 7.128906 5.496094 7.0625 5.394531 6.925781 C 5.292969 6.789062 5.242188 6.605469 5.238281 6.375 C 5.242188 6.144531 5.292969 5.960938 5.394531 5.824219 C 5.496094 5.6875 5.625 5.621094 5.785156 5.617188 Z M 5.785156 5.617188 "/>
<path style=" stroke:none;fill-rule:nonzero;fill:rgb(0%,0%,0%);fill-opacity:1;" d="M 7.523438 5.3125 L 7.523438 7.4375 L 7.992188 7.4375 L 7.992188 6.527344 L 8.8125 6.527344 L 8.8125 7.4375 L 9.28125 7.4375 L 9.28125 5.3125 L 8.8125 5.3125 L 8.8125 6.109375 L 7.992188 6.109375 L 7.992188 5.3125 Z M 7.523438 5.3125 "/>
<path style=" stroke:none;fill-rule:nonzero;fill:rgb(0%,0%,0%);fill-opacity:1;" d="M 11.011719 5.617188 C 11.132812 5.617188 11.246094 5.664062 11.351562 5.757812 C 11.457031 5.847656 11.511719 5.953125 11.519531 6.070312 C 11.519531 6.089844 11.515625 6.109375 11.507812 6.125 C 11.503906 6.136719 11.492188 6.148438 11.480469 6.148438 L 10.503906 6.148438 C 10.507812 5.960938 10.5625 5.824219 10.664062 5.742188 C 10.765625 5.660156 10.878906 5.621094 11.011719 5.617188 Z M 11.910156 6.527344 C 11.945312 6.523438 11.972656 6.5 11.992188 6.457031 C 12.015625 6.410156 12.027344 6.359375 12.027344 6.300781 C 12.019531 6.003906 11.917969 5.757812 11.722656 5.554688 C 11.53125 5.351562 11.292969 5.246094 11.011719 5.238281 C 10.859375 5.238281 10.710938 5.273438 10.570312 5.339844 C 10.425781 5.410156 10.304688 5.5 10.207031 5.617188 C 10.128906 5.710938 10.070312 5.820312 10.039062 5.941406 C 10.003906 6.066406 9.984375 6.210938 9.984375 6.375 C 9.988281 6.722656 10.097656 6.996094 10.3125 7.199219 C 10.527344 7.402344 10.785156 7.507812 11.089844 7.511719 C 11.226562 7.515625 11.367188 7.476562 11.511719 7.394531 C 11.65625 7.316406 11.800781 7.191406 11.9375 7.019531 L 11.558594 6.808594 C 11.480469 6.902344 11.410156 6.976562 11.339844 7.023438 C 11.265625 7.070312 11.183594 7.097656 11.089844 7.097656 C 10.980469 7.101562 10.855469 7.0625 10.722656 6.980469 C 10.589844 6.902344 10.515625 6.75 10.503906 6.527344 Z M 11.910156 6.527344 "/>
<path style=" stroke:none;fill-rule:nonzero;fill:rgb(0%,0%,0%);fill-opacity:1;" d="M 12.980469 5.3125 C 12.980469 5.6875 12.949219 6.011719 12.894531 6.285156 C 12.835938 6.558594 12.757812 6.804688 12.65625 7.019531 L 12.433594 7.019531 L 12.433594 7.894531 L 12.902344 7.894531 L 12.902344 7.4375 L 14.386719 7.4375 L 14.386719 7.894531 L 14.816406 7.894531 L 14.816406 7.019531 L 14.542969 7.019531 L 14.542969 5.3125 Z M 13.449219 5.730469 L 14.074219 5.730469 L 14.074219 7.019531 L 13.164062 7.019531 C 13.261719 6.832031 13.328125 6.625 13.367188 6.394531 C 13.40625 6.167969 13.433594 5.945312 13.449219 5.730469 Z M 13.449219 5.730469 "/>
<path style=" stroke:none;fill-rule:nonzero;fill:rgb(0%,0%,0%);fill-opacity:1;" d="M 16.234375 5.617188 C 16.355469 5.617188 16.46875 5.664062 16.574219 5.757812 C 16.679688 5.847656 16.738281 5.953125 16.742188 6.070312 C 16.742188 6.089844 16.742188 6.109375 16.734375 6.125 C 16.726562 6.136719 16.71875 6.148438 16.703125 6.148438 L 15.726562 6.148438 C 15.734375 5.960938 15.785156 5.824219 15.886719 5.742188 C 15.988281 5.660156 16.105469 5.621094 16.234375 5.617188 Z M 17.132812 6.527344 C 17.167969 6.523438 17.195312 6.5 17.21875 6.457031 C 17.238281 6.410156 17.25 6.359375 17.25 6.300781 C 17.242188 6.003906 17.140625 5.757812 16.949219 5.554688 C 16.753906 5.351562 16.515625 5.246094 16.234375 5.238281 C 16.085938 5.238281 15.9375 5.273438 15.792969 5.339844 C 15.652344 5.410156 15.53125 5.5 15.433594 5.617188 C 15.351562 5.710938 15.296875 5.820312 15.261719 5.941406 C 15.226562 6.066406 15.210938 6.210938 15.210938 6.375 C 15.214844 6.722656 15.324219 6.996094 15.539062 7.199219 C 15.753906 7.402344 16.011719 7.507812 16.3125 7.511719 C 16.453125 7.515625 16.59375 7.476562 16.738281 7.394531 C 16.882812 7.316406 17.023438 7.191406 17.164062 7.019531 L 16.78125 6.808594 C 16.707031 6.902344 16.632812 6.976562 16.5625 7.023438 C 16.492188 7.070312 16.410156 7.097656 16.3125 7.097656 C 16.203125 7.101562 16.082031 7.0625 15.949219 6.980469 C 15.8125 6.902344 15.742188 6.75 15.726562 6.527344 Z M 17.132812 6.527344 "/>
<path style=" stroke:none;fill-rule:nonzero;fill:rgb(0%,0%,0%);fill-opacity:1;" d="M 18.246094 5.3125 C 18.246094 5.460938 18.242188 5.636719 18.234375 5.84375 C 18.226562 6.050781 18.214844 6.246094 18.195312 6.425781 C 18.179688 6.605469 18.152344 6.730469 18.121094 6.792969 C 18.074219 6.878906 18.011719 6.945312 17.9375 6.992188 C 17.863281 7.039062 17.792969 7.070312 17.726562 7.078125 L 17.816406 7.511719 C 18.132812 7.433594 18.347656 7.296875 18.464844 7.101562 C 18.578125 6.90625 18.640625 6.6875 18.652344 6.445312 C 18.664062 6.203125 18.671875 5.960938 18.675781 5.730469 L 19.300781 5.730469 L 19.300781 7.4375 L 19.769531 7.4375 L 19.769531 5.3125 Z M 18.246094 5.3125 "/>
<path style=" stroke:none;fill-rule:nonzero;fill:rgb(0%,0%,0%);fill-opacity:1;" d="M 20.644531 5.3125 L 20.644531 7.4375 L 21.660156 7.4375 C 21.933594 7.429688 22.128906 7.359375 22.25 7.222656 C 22.367188 7.089844 22.425781 6.933594 22.425781 6.753906 C 22.425781 6.578125 22.367188 6.421875 22.25 6.285156 C 22.128906 6.148438 21.933594 6.078125 21.660156 6.070312 L 21.113281 6.070312 L 21.113281 5.3125 Z M 21.113281 6.488281 L 21.699219 6.488281 C 21.78125 6.492188 21.84375 6.519531 21.894531 6.574219 C 21.945312 6.628906 21.972656 6.6875 21.972656 6.753906 C 21.972656 6.820312 21.945312 6.878906 21.894531 6.933594 C 21.84375 6.988281 21.78125 7.015625 21.699219 7.019531 L 21.113281 7.019531 Z M 21.113281 6.488281 "/>
<path style=" stroke:none;fill-rule:nonzero;fill:rgb(0%,0%,0%);fill-opacity:1;" d="M 23.066406 5.3125 L 23.066406 7.4375 L 23.535156 7.4375 L 23.535156 6.527344 L 24.355469 6.527344 L 24.355469 7.4375 L 24.824219 7.4375 L 24.824219 5.3125 L 24.355469 5.3125 L 24.355469 6.109375 L 23.535156 6.109375 L 23.535156 5.3125 Z M 23.066406 5.3125 "/>
<path style=" stroke:none;fill-rule:nonzero;fill:rgb(0%,0%,0%);fill-opacity:1;" d="M 25.617188 5.3125 L 25.617188 7.4375 L 26.125 7.4375 L 27.023438 5.996094 L 27.023438 7.4375 L 27.492188 7.4375 L 27.492188 5.3125 L 26.984375 5.3125 L 26.085938 6.753906 L 26.085938 5.3125 Z M 25.617188 5.3125 "/>
<path style=" stroke:none;fill-rule:nonzero;fill:rgb(0%,0%,0%);fill-opacity:1;" d="M 28.289062 5.3125 L 28.289062 7.4375 L 28.757812 7.4375 L 28.757812 6.449219 C 28.78125 6.449219 28.800781 6.445312 28.820312 6.445312 C 28.839844 6.441406 28.859375 6.441406 28.875 6.441406 C 29.09375 6.453125 29.253906 6.566406 29.367188 6.777344 C 29.480469 6.984375 29.601562 7.207031 29.734375 7.4375 L 30.320312 7.4375 C 30.1875 7.308594 30.078125 7.15625 29.992188 6.980469 C 29.90625 6.804688 29.8125 6.648438 29.714844 6.503906 C 29.613281 6.359375 29.476562 6.265625 29.304688 6.222656 C 29.402344 6.195312 29.484375 6.140625 29.554688 6.054688 C 29.628906 5.964844 29.703125 5.882812 29.785156 5.800781 C 29.867188 5.714844 29.96875 5.667969 30.085938 5.652344 L 29.96875 5.273438 C 29.808594 5.296875 29.660156 5.371094 29.53125 5.5 C 29.398438 5.628906 29.277344 5.753906 29.160156 5.878906 C 29.046875 6 28.929688 6.066406 28.816406 6.078125 C 28.808594 6.078125 28.796875 6.078125 28.789062 6.074219 C 28.777344 6.074219 28.769531 6.074219 28.757812 6.070312 L 28.757812 5.3125 Z M 28.289062 5.3125 "/>
<path style=" stroke:none;fill-rule:nonzero;fill:rgb(0%,0%,0%);fill-opacity:1;" d="M 30.808594 6.640625 L 32.777344 6.640625 L 32.777344 6.148438 L 30.808594 6.148438 Z M 30.808594 6.640625 "/>
<path style=" stroke:none;fill-rule:nonzero;fill:rgb(0%,0%,0%);fill-opacity:1;" d="M 10.015625 10.890625 L 11.984375 10.890625 L 11.984375 10.398438 L 10.015625 10.398438 Z M 10.015625 10.890625 "/>
<path style=" stroke:none;fill-rule:nonzero;fill:rgb(0%,0%,0%);fill-opacity:1;" d="M 13.652344 9.488281 C 13.351562 9.492188 13.101562 9.59375 12.90625 9.800781 C 12.707031 10.003906 12.605469 10.277344 12.597656 10.625 C 12.605469 10.972656 12.707031 11.246094 12.90625 11.449219 C 13.101562 11.652344 13.351562 11.757812 13.652344 11.761719 C 13.871094 11.761719 14.0625 11.707031 14.226562 11.59375 C 14.390625 11.480469 14.511719 11.324219 14.589844 11.117188 L 14.148438 10.957031 C 14.105469 11.09375 14.042969 11.199219 13.957031 11.273438 C 13.871094 11.347656 13.769531 11.382812 13.652344 11.382812 C 13.492188 11.378906 13.363281 11.3125 13.261719 11.175781 C 13.160156 11.039062 13.109375 10.855469 13.105469 10.625 C 13.109375 10.394531 13.160156 10.210938 13.261719 10.074219 C 13.363281 9.9375 13.492188 9.871094 13.652344 9.867188 C 13.769531 9.867188 13.871094 9.902344 13.957031 9.976562 C 14.042969 10.050781 14.105469 10.15625 14.148438 10.292969 L 14.589844 10.132812 C 14.511719 9.925781 14.390625 9.769531 14.226562 9.65625 C 14.0625 9.542969 13.871094 9.488281 13.652344 9.488281 Z M 13.652344 9.488281 "/>
<path style=" stroke:none;fill-rule:nonzero;fill:rgb(0%,0%,0%);fill-opacity:1;" d="M 16.257812 9.488281 C 16.0625 9.5 15.925781 9.550781 15.835938 9.636719 C 15.75 9.726562 15.710938 9.777344 15.710938 9.789062 C 15.675781 9.730469 15.648438 9.65625 15.632812 9.5625 L 15.242188 9.5625 L 15.242188 12.597656 L 15.710938 12.597656 L 15.710938 11.496094 C 15.714844 11.527344 15.765625 11.574219 15.867188 11.644531 C 15.96875 11.714844 16.097656 11.753906 16.257812 11.761719 C 16.34375 11.765625 16.460938 11.738281 16.613281 11.679688 C 16.765625 11.621094 16.90625 11.507812 17.03125 11.339844 C 17.160156 11.175781 17.226562 10.9375 17.234375 10.625 C 17.21875 10.179688 17.105469 9.875 16.890625 9.714844 C 16.679688 9.554688 16.46875 9.476562 16.257812 9.488281 Z M 16.257812 9.902344 C 16.398438 9.90625 16.515625 9.96875 16.613281 10.09375 C 16.710938 10.21875 16.761719 10.394531 16.765625 10.625 C 16.761719 10.855469 16.710938 11.039062 16.613281 11.175781 C 16.515625 11.3125 16.398438 11.378906 16.257812 11.382812 C 16.15625 11.382812 16.050781 11.355469 15.953125 11.304688 C 15.851562 11.25 15.773438 11.175781 15.710938 11.082031 L 15.710938 10.285156 C 15.769531 10.167969 15.847656 10.078125 15.945312 10.007812 C 16.039062 9.941406 16.144531 9.90625 16.257812 9.902344 Z M 16.257812 9.902344 "/>
<path style=" stroke:none;fill-rule:nonzero;fill:rgb(0%,0%,0%);fill-opacity:1;" d="M 18.816406 9.867188 C 18.9375 9.867188 19.050781 9.914062 19.15625 10.007812 C 19.261719 10.097656 19.316406 10.203125 19.324219 10.320312 C 19.324219 10.339844 19.320312 10.359375 19.316406 10.375 C 19.308594 10.386719 19.300781 10.398438 19.285156 10.398438 L 18.308594 10.398438 C 18.3125 10.210938 18.367188 10.074219 18.46875 9.992188 C 18.570312 9.910156 18.6875 9.871094 18.816406 9.867188 Z M 19.714844 10.777344 C 19.75 10.773438 19.777344 10.75 19.800781 10.707031 C 19.820312 10.660156 19.832031 10.609375 19.832031 10.550781 C 19.824219 10.253906 19.722656 10.007812 19.53125 9.804688 C 19.335938 9.601562 19.097656 9.496094 18.816406 9.488281 C 18.664062 9.488281 18.519531 9.523438 18.375 9.589844 C 18.230469 9.660156 18.109375 9.75 18.011719 9.867188 C 17.933594 9.960938 17.875 10.070312 17.84375 10.191406 C 17.808594 10.316406 17.792969 10.460938 17.789062 10.625 C 17.792969 10.972656 17.902344 11.246094 18.117188 11.449219 C 18.332031 11.652344 18.589844 11.757812 18.894531 11.761719 C 19.03125 11.765625 19.175781 11.726562 19.320312 11.644531 C 19.464844 11.566406 19.605469 11.441406 19.742188 11.269531 L 19.363281 11.058594 C 19.289062 11.152344 19.214844 11.226562 19.144531 11.273438 C 19.074219 11.320312 18.988281 11.347656 18.894531 11.347656 C 18.785156 11.351562 18.664062 11.3125 18.527344 11.230469 C 18.394531 11.152344 18.320312 11 18.308594 10.777344 Z M 19.714844 10.777344 "/>
<path style=" stroke:none;fill-rule:nonzero;fill:rgb(0%,0%,0%);fill-opacity:1;" d="M 20.832031 9.5625 C 20.832031 9.9375 20.800781 10.261719 20.746094 10.535156 C 20.6875 10.808594 20.609375 11.054688 20.511719 11.269531 L 20.285156 11.269531 L 20.285156 12.144531 L 20.753906 12.144531 L 20.753906 11.6875 L 22.238281 11.6875 L 22.238281 12.144531 L 22.667969 12.144531 L 22.667969 11.269531 L 22.394531 11.269531 L 22.394531 9.5625 Z M 21.300781 9.980469 L 21.925781 9.980469 L 21.925781 11.269531 L 21.019531 11.269531 C 21.113281 11.082031 21.179688 10.875 21.21875 10.644531 C 21.257812 10.417969 21.285156 10.195312 21.300781 9.980469 Z M 21.300781 9.980469 "/>
<path style=" stroke:none;fill-rule:nonzero;fill:rgb(0%,0%,0%);fill-opacity:1;" d="M 23.976562 9.488281 C 23.785156 9.492188 23.625 9.519531 23.496094 9.578125 C 23.367188 9.632812 23.253906 9.691406 23.15625 9.753906 L 23.390625 10.132812 C 23.453125 10.070312 23.535156 10.011719 23.640625 9.957031 C 23.746094 9.898438 23.859375 9.871094 23.976562 9.867188 C 24.101562 9.871094 24.207031 9.90625 24.300781 9.976562 C 24.394531 10.042969 24.441406 10.105469 24.445312 10.167969 L 24.445312 10.320312 C 24.429688 10.316406 24.316406 10.328125 24.101562 10.359375 C 23.890625 10.386719 23.675781 10.453125 23.464844 10.5625 C 23.25 10.671875 23.136719 10.84375 23.117188 11.082031 C 23.128906 11.308594 23.207031 11.480469 23.351562 11.59375 C 23.5 11.707031 23.65625 11.761719 23.820312 11.761719 C 23.980469 11.757812 24.113281 11.71875 24.222656 11.648438 C 24.332031 11.578125 24.40625 11.503906 24.445312 11.421875 C 24.464844 11.570312 24.515625 11.664062 24.59375 11.707031 C 24.671875 11.75 24.777344 11.769531 24.914062 11.761719 L 25.109375 11.382812 C 25.070312 11.386719 25.027344 11.378906 24.984375 11.359375 C 24.941406 11.339844 24.917969 11.285156 24.914062 11.195312 L 24.914062 10.167969 C 24.902344 9.976562 24.792969 9.8125 24.59375 9.6875 C 24.394531 9.558594 24.1875 9.492188 23.976562 9.488281 Z M 24.445312 10.664062 L 24.445312 11.042969 C 24.441406 11.074219 24.386719 11.136719 24.28125 11.226562 C 24.175781 11.320312 24.0625 11.371094 23.9375 11.382812 C 23.890625 11.386719 23.832031 11.363281 23.753906 11.3125 C 23.675781 11.261719 23.636719 11.171875 23.625 11.042969 C 23.632812 10.929688 23.691406 10.855469 23.796875 10.808594 C 23.902344 10.765625 24.019531 10.734375 24.148438 10.71875 C 24.277344 10.703125 24.375 10.683594 24.445312 10.664062 Z M 24.445312 10.664062 "/>
</g>
</svg>
