<?xml version="1.0" encoding="UTF-8"?>
<svg xmlns="http://www.w3.org/2000/svg" xmlns:xlink="http://www.w3.org/1999/xlink" width="35px" height="35px" viewBox="0 0 35 17" version="1.1">
<g id="surface1">
<path style=" stroke:none;fill-rule:nonzero;fill:rgb(0%,0%,0%);fill-opacity:1;" d="M 2.625 0 L 32.375 0 C 33.824219 0 35 1.140625 35 2.550781 L 35 14.449219 C 35 15.859375 33.824219 17 32.375 17 L 2.625 17 C 1.175781 17 0 15.859375 0 14.449219 L 0 2.550781 C 0 1.140625 1.175781 0 2.625 0 Z M 2.625 0 "/>
<path style=" stroke:none;fill-rule:nonzero;fill:rgb(100%,100%,100%);fill-opacity:1;" d="M 2.625 0.566406 L 32.375 0.566406 C 33.503906 0.566406 34.417969 1.453125 34.417969 2.550781 L 34.417969 14.449219 C 34.417969 15.546875 33.503906 16.433594 32.375 16.433594 L 2.625 16.433594 C 1.496094 16.433594 0.582031 15.546875 0.582031 14.449219 L 0.582031 2.550781 C 0.582031 1.453125 1.496094 0.566406 2.625 0.566406 Z M 2.625 0.566406 "/>
<path style=" stroke:none;fill-rule:nonzero;fill:rgb(0%,0%,0%);fill-opacity:1;" d="M 19.277344 6.707031 L 19.585938 7.101562 L 20.289062 6.671875 L 20.289062 10.625 L 21.207031 10.625 L 21.207031 5.523438 L 20.421875 5.523438 Z M 19.277344 6.707031 "/>
<path style=" stroke:none;fill-rule:nonzero;fill:rgb(0%,0%,0%);fill-opacity:1;" d="M 22.292969 6.355469 L 24.722656 6.355469 C 24.347656 6.933594 23.996094 7.589844 23.664062 8.3125 C 23.332031 9.039062 23.09375 9.789062 22.949219 10.5625 L 23.933594 10.5625 C 24.136719 9.648438 24.386719 8.84375 24.6875 8.148438 C 24.988281 7.449219 25.304688 6.789062 25.640625 6.164062 L 25.640625 5.523438 L 22.488281 5.523438 Z M 22.292969 6.355469 "/>
<path style=" stroke:none;fill-rule:nonzero;fill:rgb(0%,0%,0%);fill-opacity:1;" d="M 25.855469 10.113281 C 25.851562 9.957031 25.796875 9.828125 25.6875 9.722656 C 25.582031 9.617188 25.445312 9.5625 25.285156 9.558594 C 25.121094 9.5625 24.988281 9.617188 24.878906 9.722656 C 24.773438 9.828125 24.714844 9.957031 24.710938 10.113281 C 24.714844 10.273438 24.773438 10.402344 24.878906 10.507812 C 24.988281 10.613281 25.121094 10.667969 25.285156 10.671875 C 25.445312 10.667969 25.582031 10.613281 25.6875 10.507812 C 25.796875 10.402344 25.851562 10.273438 25.855469 10.113281 Z M 25.855469 10.113281 "/>
<path style=" stroke:none;fill-rule:nonzero;fill:rgb(0%,0%,0%);fill-opacity:1;" d="M 4.433594 5.460938 C 3.992188 5.460938 3.613281 5.574219 3.292969 5.796875 C 2.976562 6.019531 2.808594 6.355469 2.792969 6.800781 C 2.804688 7.09375 2.882812 7.328125 3.03125 7.496094 C 3.179688 7.660156 3.328125 7.78125 3.472656 7.847656 C 3.621094 7.917969 3.699219 7.949219 3.710938 7.949219 C 3.699219 7.945312 3.609375 7.992188 3.441406 8.078125 C 3.269531 8.167969 3.101562 8.308594 2.933594 8.496094 C 2.765625 8.683594 2.675781 8.925781 2.660156 9.222656 C 2.652344 9.5625 2.785156 9.886719 3.054688 10.195312 C 3.328125 10.503906 3.785156 10.667969 4.433594 10.6875 C 5.082031 10.667969 5.542969 10.503906 5.8125 10.195312 C 6.082031 9.886719 6.214844 9.5625 6.207031 9.222656 C 6.191406 8.925781 6.101562 8.683594 5.933594 8.496094 C 5.765625 8.308594 5.597656 8.167969 5.429688 8.078125 C 5.257812 7.992188 5.167969 7.945312 5.15625 7.949219 C 5.167969 7.949219 5.246094 7.917969 5.394531 7.847656 C 5.542969 7.78125 5.6875 7.660156 5.835938 7.496094 C 5.984375 7.328125 6.0625 7.09375 6.074219 6.800781 C 6.058594 6.355469 5.894531 6.019531 5.574219 5.796875 C 5.253906 5.574219 4.875 5.460938 4.433594 5.460938 Z M 4.433594 6.191406 C 4.636719 6.1875 4.804688 6.234375 4.941406 6.328125 C 5.078125 6.421875 5.148438 6.578125 5.15625 6.800781 C 5.125 7 5.003906 7.175781 4.792969 7.324219 C 4.585938 7.476562 4.464844 7.558594 4.433594 7.566406 C 4.402344 7.558594 4.285156 7.476562 4.074219 7.324219 C 3.863281 7.175781 3.742188 7 3.710938 6.800781 C 3.71875 6.578125 3.789062 6.421875 3.925781 6.328125 C 4.0625 6.234375 4.230469 6.1875 4.433594 6.191406 Z M 4.433594 8.328125 C 4.445312 8.332031 4.519531 8.378906 4.65625 8.464844 C 4.792969 8.550781 4.929688 8.667969 5.066406 8.8125 C 5.203125 8.957031 5.277344 9.113281 5.285156 9.285156 C 5.277344 9.507812 5.183594 9.671875 5.007812 9.773438 C 4.832031 9.875 4.640625 9.925781 4.433594 9.921875 C 4.226562 9.925781 4.035156 9.875 3.859375 9.773438 C 3.683594 9.671875 3.589844 9.507812 3.582031 9.285156 C 3.589844 9.132812 3.664062 8.984375 3.800781 8.839844 C 3.9375 8.695312 4.074219 8.574219 4.210938 8.480469 C 4.351562 8.382812 4.421875 8.332031 4.433594 8.328125 Z M 4.433594 8.328125 "/>
<path style=" stroke:none;fill-rule:nonzero;fill:rgb(0%,0%,0%);fill-opacity:1;" d="M 7.703125 10.113281 C 7.699219 9.957031 7.644531 9.828125 7.535156 9.722656 C 7.425781 9.617188 7.292969 9.5625 7.128906 9.558594 C 6.96875 9.5625 6.835938 9.617188 6.726562 9.722656 C 6.617188 9.828125 6.5625 9.957031 6.558594 10.113281 C 6.5625 10.273438 6.617188 10.402344 6.726562 10.507812 C 6.835938 10.613281 6.96875 10.667969 7.128906 10.671875 C 7.292969 10.667969 7.425781 10.613281 7.535156 10.507812 C 7.644531 10.402344 7.699219 10.273438 7.703125 10.113281 Z M 7.703125 10.113281 "/>
<path style=" stroke:none;fill-rule:nonzero;fill:rgb(0%,0%,0%);fill-opacity:1;" d="M 18.988281 8.910156 L 15.464844 8.910156 L 15.464844 8.082031 L 18.988281 8.082031 Z M 18.988281 8.910156 "/>
<path style=" stroke:none;fill-rule:nonzero;fill:rgb(0%,0%,0%);fill-opacity:1;" d="M 9.792969 6.546875 C 9.371094 6.554688 9.03125 6.75 8.777344 7.125 C 8.523438 7.503906 8.394531 8 8.386719 8.617188 C 8.394531 9.234375 8.523438 9.730469 8.777344 10.109375 C 9.03125 10.484375 9.371094 10.679688 9.792969 10.6875 C 10.214844 10.679688 10.550781 10.484375 10.804688 10.109375 C 11.058594 9.730469 11.191406 9.234375 11.195312 8.617188 C 11.191406 8.027344 11.058594 7.539062 10.804688 7.152344 C 10.550781 6.761719 10.214844 6.558594 9.792969 6.546875 Z M 9.792969 7.171875 C 9.996094 7.171875 10.160156 7.285156 10.28125 7.515625 C 10.402344 7.746094 10.464844 8.113281 10.46875 8.617188 C 10.464844 9.121094 10.402344 9.484375 10.28125 9.71875 C 10.160156 9.949219 9.996094 10.0625 9.792969 10.0625 C 9.589844 10.0625 9.425781 9.949219 9.304688 9.71875 C 9.179688 9.484375 9.117188 9.121094 9.117188 8.617188 C 9.117188 8.113281 9.179688 7.746094 9.304688 7.515625 C 9.425781 7.285156 9.589844 7.171875 9.792969 7.171875 Z M 9.792969 7.171875 "/>
<path style=" stroke:none;fill-rule:nonzero;fill:rgb(0%,0%,0%);fill-opacity:1;" d="M 13.199219 6.546875 C 12.777344 6.554688 12.441406 6.75 12.1875 7.125 C 11.933594 7.503906 11.800781 8 11.796875 8.617188 C 11.800781 9.234375 11.933594 9.730469 12.1875 10.109375 C 12.441406 10.484375 12.777344 10.679688 13.199219 10.6875 C 13.621094 10.679688 13.960938 10.484375 14.214844 10.109375 C 14.46875 9.730469 14.597656 9.234375 14.605469 8.617188 C 14.597656 8.027344 14.46875 7.539062 14.214844 7.152344 C 13.960938 6.761719 13.621094 6.558594 13.199219 6.546875 Z M 13.199219 7.171875 C 13.402344 7.171875 13.566406 7.285156 13.6875 7.515625 C 13.8125 7.746094 13.875 8.113281 13.875 8.617188 C 13.875 9.121094 13.8125 9.484375 13.6875 9.71875 C 13.566406 9.949219 13.402344 10.0625 13.199219 10.0625 C 12.996094 10.0625 12.832031 9.949219 12.710938 9.71875 C 12.589844 9.484375 12.527344 9.121094 12.523438 8.617188 C 12.527344 8.113281 12.589844 7.746094 12.710938 7.515625 C 12.832031 7.285156 12.996094 7.171875 13.199219 7.171875 Z M 13.199219 7.171875 "/>
<path style=" stroke:none;fill-rule:nonzero;fill:rgb(0%,0%,0%);fill-opacity:1;" d="M 26.578125 6.875 L 26.851562 7.472656 C 26.996094 7.351562 27.132812 7.265625 27.269531 7.207031 C 27.402344 7.152344 27.574219 7.125 27.773438 7.128906 C 27.910156 7.128906 28.027344 7.175781 28.132812 7.261719 C 28.234375 7.34375 28.289062 7.453125 28.292969 7.582031 C 28.289062 7.738281 28.195312 7.890625 28.019531 8.035156 C 27.847656 8.183594 27.625 8.285156 27.359375 8.339844 L 27.359375 8.894531 C 27.410156 8.871094 27.46875 8.855469 27.53125 8.851562 C 27.59375 8.847656 27.660156 8.84375 27.722656 8.84375 C 28.046875 8.859375 28.257812 8.9375 28.34375 9.078125 C 28.429688 9.214844 28.46875 9.335938 28.457031 9.4375 C 28.445312 9.671875 28.355469 9.839844 28.183594 9.949219 C 28.015625 10.058594 27.808594 10.109375 27.566406 10.109375 C 27.390625 10.109375 27.203125 10.09375 27.007812 10.058594 C 26.816406 10.023438 26.652344 9.96875 26.519531 9.886719 L 26.609375 10.59375 C 26.625 10.601562 26.75 10.628906 26.984375 10.679688 C 27.214844 10.730469 27.445312 10.757812 27.671875 10.765625 C 28.167969 10.75 28.546875 10.605469 28.804688 10.335938 C 29.066406 10.066406 29.199219 9.773438 29.199219 9.453125 C 29.195312 9.234375 29.125 9.050781 28.996094 8.910156 C 28.867188 8.765625 28.726562 8.65625 28.566406 8.578125 C 28.410156 8.503906 28.285156 8.457031 28.191406 8.441406 C 28.40625 8.410156 28.597656 8.304688 28.761719 8.125 C 28.925781 7.945312 29.015625 7.710938 29.023438 7.429688 C 29.007812 7.148438 28.886719 6.925781 28.660156 6.765625 C 28.433594 6.601562 28.183594 6.515625 27.90625 6.515625 C 27.6875 6.519531 27.445312 6.5625 27.183594 6.636719 C 26.921875 6.714844 26.722656 6.792969 26.578125 6.875 Z M 26.578125 6.875 "/>
<path style=" stroke:none;fill-rule:nonzero;fill:rgb(0%,0%,0%);fill-opacity:1;" d="M 31.164062 6.570312 C 30.738281 6.582031 30.402344 6.777344 30.148438 7.152344 C 29.894531 7.53125 29.765625 8.027344 29.757812 8.644531 C 29.765625 9.261719 29.894531 9.757812 30.148438 10.132812 C 30.402344 10.511719 30.738281 10.703125 31.164062 10.714844 C 31.585938 10.703125 31.921875 10.511719 32.175781 10.132812 C 32.429688 9.757812 32.5625 9.261719 32.566406 8.644531 C 32.5625 8.054688 32.429688 7.566406 32.175781 7.175781 C 31.921875 6.789062 31.585938 6.585938 31.164062 6.570312 Z M 31.164062 7.199219 C 31.367188 7.195312 31.527344 7.3125 31.652344 7.542969 C 31.773438 7.773438 31.835938 8.140625 31.839844 8.644531 C 31.835938 9.144531 31.773438 9.511719 31.652344 9.746094 C 31.527344 9.976562 31.367188 10.089844 31.164062 10.085938 C 30.957031 10.089844 30.796875 9.976562 30.675781 9.746094 C 30.550781 9.511719 30.488281 9.144531 30.484375 8.644531 C 30.488281 8.140625 30.550781 7.773438 30.675781 7.542969 C 30.796875 7.3125 30.957031 7.195312 31.164062 7.199219 Z M 31.164062 7.199219 "/>
</g>
</svg>
