<?xml version="1.0" encoding="UTF-8"?>
<svg xmlns="http://www.w3.org/2000/svg" xmlns:xlink="http://www.w3.org/1999/xlink" width="35px" height="35px" viewBox="0 0 35 17" version="1.1">
<g id="surface1">
<path style=" stroke:none;fill-rule:nonzero;fill:rgb(0%,0%,0%);fill-opacity:1;" d="M 2.625 0 L 32.375 0 C 33.824219 0 35 1.140625 35 2.550781 L 35 14.449219 C 35 15.859375 33.824219 17 32.375 17 L 2.625 17 C 1.175781 17 0 15.859375 0 14.449219 L 0 2.550781 C 0 1.140625 1.175781 0 2.625 0 Z M 2.625 0 "/>
<path style=" stroke:none;fill-rule:nonzero;fill:rgb(100%,100%,100%);fill-opacity:1;" d="M 2.625 0.566406 L 32.375 0.566406 C 33.503906 0.566406 34.417969 1.453125 34.417969 2.550781 L 34.417969 14.449219 C 34.417969 15.546875 33.503906 16.433594 32.375 16.433594 L 2.625 16.433594 C 1.496094 16.433594 0.582031 15.546875 0.582031 14.449219 L 0.582031 2.550781 C 0.582031 1.453125 1.496094 0.566406 2.625 0.566406 Z M 2.625 0.566406 "/>
<path style=" stroke:none;fill-rule:nonzero;fill:rgb(0%,0%,0%);fill-opacity:1;" d="M 20.683594 12.824219 C 21.304688 12.804688 21.753906 12.5625 22.03125 12.097656 C 22.304688 11.632812 22.4375 11.070312 22.433594 10.414062 C 22.425781 9.746094 22.277344 9.246094 21.988281 8.910156 C 21.699219 8.570312 21.320312 8.402344 20.847656 8.402344 C 20.480469 8.414062 20.171875 8.574219 19.925781 8.875 C 19.675781 9.179688 19.542969 9.550781 19.535156 9.988281 C 19.558594 10.480469 19.699219 10.808594 19.957031 10.976562 C 20.214844 11.144531 20.4375 11.222656 20.628906 11.210938 C 20.820312 11.203125 21.007812 11.160156 21.1875 11.078125 C 21.367188 10.992188 21.527344 10.894531 21.667969 10.785156 C 21.671875 10.800781 21.65625 10.921875 21.617188 11.148438 C 21.578125 11.375 21.484375 11.597656 21.335938 11.824219 C 21.1875 12.050781 20.949219 12.171875 20.628906 12.1875 C 20.371094 12.179688 20.152344 12.136719 19.964844 12.0625 C 19.773438 11.988281 19.675781 11.949219 19.667969 11.9375 L 19.753906 12.589844 C 19.765625 12.601562 19.863281 12.640625 20.054688 12.707031 C 20.242188 12.777344 20.453125 12.816406 20.683594 12.824219 Z M 20.792969 10.570312 C 20.671875 10.570312 20.554688 10.519531 20.4375 10.414062 C 20.316406 10.304688 20.253906 10.148438 20.246094 9.933594 C 20.246094 9.738281 20.300781 9.550781 20.417969 9.371094 C 20.535156 9.195312 20.714844 9.101562 20.957031 9.085938 C 21.128906 9.089844 21.261719 9.15625 21.359375 9.28125 C 21.457031 9.410156 21.527344 9.546875 21.566406 9.699219 C 21.609375 9.851562 21.636719 9.96875 21.644531 10.046875 C 21.640625 10.070312 21.570312 10.15625 21.421875 10.308594 C 21.277344 10.460938 21.066406 10.550781 20.792969 10.570312 Z M 20.792969 10.570312 "/>
<path style=" stroke:none;fill-rule:nonzero;fill:rgb(0%,0%,0%);fill-opacity:1;" d="M 23.644531 12.324219 C 23.640625 12.195312 23.59375 12.085938 23.503906 11.996094 C 23.417969 11.910156 23.304688 11.867188 23.167969 11.863281 C 23.035156 11.867188 22.921875 11.910156 22.832031 11.996094 C 22.742188 12.085938 22.695312 12.195312 22.691406 12.324219 C 22.695312 12.457031 22.742188 12.566406 22.832031 12.652344 C 22.921875 12.738281 23.035156 12.785156 23.167969 12.789062 C 23.304688 12.785156 23.417969 12.738281 23.503906 12.652344 C 23.59375 12.566406 23.640625 12.457031 23.644531 12.324219 Z M 23.644531 12.324219 "/>
<path style=" stroke:none;fill-rule:nonzero;fill:rgb(0%,0%,0%);fill-opacity:1;" d="M 7.375 8.445312 C 7.003906 8.445312 6.6875 8.539062 6.421875 8.726562 C 6.15625 8.910156 6.019531 9.191406 6.007812 9.5625 C 6.015625 9.808594 6.082031 10 6.203125 10.140625 C 6.328125 10.28125 6.449219 10.378906 6.574219 10.433594 C 6.695312 10.492188 6.761719 10.519531 6.773438 10.519531 C 6.761719 10.515625 6.683594 10.554688 6.542969 10.628906 C 6.40625 10.703125 6.265625 10.816406 6.125 10.972656 C 5.984375 11.132812 5.90625 11.332031 5.898438 11.582031 C 5.890625 11.863281 6 12.132812 6.226562 12.390625 C 6.449219 12.648438 6.832031 12.785156 7.375 12.800781 C 7.914062 12.785156 8.296875 12.648438 8.523438 12.390625 C 8.746094 12.132812 8.855469 11.863281 8.851562 11.582031 C 8.839844 11.332031 8.761719 11.132812 8.621094 10.972656 C 8.484375 10.816406 8.34375 10.703125 8.203125 10.628906 C 8.0625 10.554688 7.984375 10.515625 7.976562 10.519531 C 7.984375 10.519531 8.050781 10.492188 8.171875 10.433594 C 8.296875 10.378906 8.417969 10.28125 8.542969 10.140625 C 8.664062 10 8.730469 9.808594 8.742188 9.5625 C 8.726562 9.191406 8.589844 8.910156 8.324219 8.726562 C 8.058594 8.539062 7.742188 8.445312 7.375 8.445312 Z M 7.375 9.054688 C 7.542969 9.050781 7.683594 9.089844 7.796875 9.167969 C 7.910156 9.246094 7.96875 9.378906 7.976562 9.5625 C 7.949219 9.726562 7.847656 9.875 7.675781 10 C 7.5 10.125 7.398438 10.191406 7.375 10.199219 C 7.347656 10.191406 7.246094 10.125 7.074219 10 C 6.898438 9.875 6.796875 9.726562 6.773438 9.5625 C 6.777344 9.378906 6.835938 9.246094 6.949219 9.167969 C 7.0625 9.089844 7.203125 9.050781 7.375 9.054688 Z M 7.375 10.835938 C 7.382812 10.839844 7.445312 10.875 7.558594 10.949219 C 7.671875 11.019531 7.785156 11.117188 7.898438 11.238281 C 8.015625 11.359375 8.074219 11.488281 8.085938 11.632812 C 8.074219 11.816406 7.996094 11.953125 7.851562 12.039062 C 7.707031 12.125 7.546875 12.164062 7.375 12.164062 C 7.199219 12.164062 7.039062 12.125 6.894531 12.039062 C 6.75 11.953125 6.671875 11.816406 6.664062 11.632812 C 6.671875 11.507812 6.734375 11.382812 6.847656 11.261719 C 6.960938 11.140625 7.074219 11.039062 7.1875 10.960938 C 7.304688 10.878906 7.363281 10.839844 7.375 10.835938 Z M 7.375 10.835938 "/>
<path style=" stroke:none;fill-rule:nonzero;fill:rgb(0%,0%,0%);fill-opacity:1;" d="M 10.042969 12.324219 C 10.039062 12.191406 9.992188 12.082031 9.902344 11.996094 C 9.8125 11.910156 9.699219 11.863281 9.566406 11.859375 C 9.429688 11.863281 9.316406 11.910156 9.226562 11.996094 C 9.136719 12.082031 9.09375 12.191406 9.089844 12.324219 C 9.09375 12.453125 9.136719 12.5625 9.226562 12.652344 C 9.316406 12.738281 9.429688 12.785156 9.566406 12.785156 C 9.699219 12.785156 9.8125 12.738281 9.902344 12.652344 C 9.992188 12.5625 10.039062 12.453125 10.042969 12.324219 Z M 10.042969 12.324219 "/>
<path style=" stroke:none;fill-rule:nonzero;fill:rgb(0%,0%,0%);fill-opacity:1;" d="M 19.007812 11.335938 L 16.136719 11.335938 L 16.136719 10.660156 L 19.007812 10.660156 Z M 19.007812 11.335938 "/>
<path style=" stroke:none;fill-rule:nonzero;fill:rgb(0%,0%,0%);fill-opacity:1;" d="M 10.636719 9.609375 L 10.859375 10.097656 C 10.976562 10 11.089844 9.925781 11.199219 9.882812 C 11.308594 9.835938 11.445312 9.816406 11.609375 9.816406 C 11.71875 9.816406 11.816406 9.855469 11.902344 9.921875 C 11.984375 9.992188 12.027344 10.082031 12.03125 10.1875 C 12.027344 10.3125 11.953125 10.4375 11.808594 10.554688 C 11.667969 10.675781 11.488281 10.757812 11.269531 10.804688 L 11.269531 11.253906 C 11.3125 11.234375 11.359375 11.222656 11.410156 11.21875 C 11.464844 11.214844 11.515625 11.214844 11.566406 11.214844 C 11.832031 11.226562 12 11.289062 12.074219 11.402344 C 12.144531 11.515625 12.175781 11.613281 12.164062 11.695312 C 12.15625 11.886719 12.082031 12.023438 11.945312 12.113281 C 11.804688 12.199219 11.636719 12.242188 11.441406 12.242188 C 11.296875 12.242188 11.144531 12.230469 10.984375 12.203125 C 10.828125 12.175781 10.695312 12.128906 10.585938 12.0625 L 10.660156 12.636719 C 10.675781 12.644531 10.777344 12.667969 10.964844 12.707031 C 11.152344 12.75 11.339844 12.773438 11.523438 12.777344 C 11.929688 12.765625 12.238281 12.648438 12.449219 12.429688 C 12.664062 12.207031 12.769531 11.96875 12.769531 11.707031 C 12.765625 11.53125 12.710938 11.382812 12.605469 11.265625 C 12.5 11.148438 12.382812 11.058594 12.253906 10.996094 C 12.128906 10.9375 12.023438 10.898438 11.949219 10.886719 C 12.125 10.859375 12.28125 10.773438 12.414062 10.628906 C 12.546875 10.480469 12.617188 10.292969 12.625 10.0625 C 12.613281 9.832031 12.515625 9.652344 12.332031 9.519531 C 12.144531 9.386719 11.941406 9.320312 11.71875 9.316406 C 11.539062 9.320312 11.339844 9.355469 11.128906 9.417969 C 10.917969 9.480469 10.75 9.542969 10.636719 9.609375 Z M 10.636719 9.609375 "/>
<path style=" stroke:none;fill-rule:nonzero;fill:rgb(0%,0%,0%);fill-opacity:1;" d="M 14.40625 9.363281 C 14.0625 9.371094 13.789062 9.527344 13.582031 9.835938 C 13.375 10.144531 13.269531 10.546875 13.265625 11.050781 C 13.269531 11.550781 13.375 11.957031 13.582031 12.261719 C 13.789062 12.570312 14.0625 12.726562 14.40625 12.738281 C 14.753906 12.726562 15.027344 12.570312 15.234375 12.261719 C 15.441406 11.957031 15.546875 11.550781 15.550781 11.050781 C 15.546875 10.570312 15.441406 10.171875 15.234375 9.855469 C 15.027344 9.539062 14.753906 9.375 14.40625 9.363281 Z M 14.40625 9.875 C 14.574219 9.871094 14.707031 9.964844 14.804688 10.152344 C 14.90625 10.34375 14.957031 10.640625 14.957031 11.050781 C 14.957031 11.457031 14.90625 11.757812 14.804688 11.945312 C 14.707031 12.132812 14.574219 12.226562 14.40625 12.226562 C 14.242188 12.226562 14.109375 12.132812 14.011719 11.945312 C 13.910156 11.757812 13.859375 11.457031 13.855469 11.050781 C 13.859375 10.640625 13.910156 10.34375 14.011719 10.152344 C 14.109375 9.964844 14.242188 9.871094 14.40625 9.875 Z M 14.40625 9.875 "/>
<path style=" stroke:none;fill-rule:nonzero;fill:rgb(0%,0%,0%);fill-opacity:1;" d="M 3.578125 4.25 L 3.578125 6.375 L 4.046875 6.375 L 4.046875 4.667969 L 4.867188 4.667969 L 4.867188 6.375 L 5.335938 6.375 L 5.335938 4.25 Z M 3.578125 4.25 "/>
<path style=" stroke:none;fill-rule:nonzero;fill:rgb(0%,0%,0%);fill-opacity:1;" d="M 7.070312 4.175781 C 6.769531 4.179688 6.527344 4.28125 6.339844 4.488281 C 6.15625 4.691406 6.058594 4.964844 6.054688 5.3125 C 6.058594 5.660156 6.15625 5.933594 6.339844 6.136719 C 6.527344 6.339844 6.769531 6.445312 7.070312 6.449219 C 7.367188 6.445312 7.609375 6.339844 7.796875 6.136719 C 7.980469 5.933594 8.078125 5.660156 8.085938 5.3125 C 8.078125 4.964844 7.980469 4.691406 7.796875 4.488281 C 7.609375 4.28125 7.367188 4.179688 7.070312 4.175781 Z M 7.070312 4.554688 C 7.226562 4.558594 7.359375 4.625 7.460938 4.761719 C 7.558594 4.898438 7.613281 5.082031 7.617188 5.3125 C 7.613281 5.542969 7.558594 5.726562 7.460938 5.863281 C 7.359375 6 7.226562 6.066406 7.070312 6.070312 C 6.910156 6.066406 6.777344 6 6.679688 5.863281 C 6.578125 5.726562 6.523438 5.542969 6.523438 5.3125 C 6.523438 5.082031 6.578125 4.898438 6.679688 4.761719 C 6.777344 4.625 6.910156 4.558594 7.070312 4.554688 Z M 7.070312 4.554688 "/>
<path style=" stroke:none;fill-rule:nonzero;fill:rgb(0%,0%,0%);fill-opacity:1;" d="M 8.808594 4.25 L 8.808594 6.375 L 9.277344 6.375 L 9.277344 5.464844 L 10.097656 5.464844 L 10.097656 6.375 L 10.566406 6.375 L 10.566406 4.25 L 10.097656 4.25 L 10.097656 5.046875 L 9.277344 5.046875 L 9.277344 4.25 Z M 8.808594 4.25 "/>
<path style=" stroke:none;fill-rule:nonzero;fill:rgb(0%,0%,0%);fill-opacity:1;" d="M 12.300781 4.554688 C 12.421875 4.554688 12.535156 4.601562 12.636719 4.695312 C 12.742188 4.785156 12.800781 4.890625 12.808594 5.007812 C 12.808594 5.027344 12.804688 5.046875 12.796875 5.0625 C 12.792969 5.074219 12.78125 5.085938 12.769531 5.085938 L 11.792969 5.085938 C 11.796875 4.898438 11.851562 4.761719 11.949219 4.679688 C 12.050781 4.597656 12.167969 4.558594 12.300781 4.554688 Z M 13.199219 5.464844 C 13.230469 5.460938 13.257812 5.4375 13.28125 5.394531 C 13.300781 5.347656 13.3125 5.296875 13.316406 5.238281 C 13.304688 4.941406 13.207031 4.695312 13.011719 4.492188 C 12.816406 4.289062 12.582031 4.183594 12.300781 4.175781 C 12.148438 4.175781 12 4.210938 11.855469 4.277344 C 11.714844 4.347656 11.59375 4.4375 11.496094 4.554688 C 11.414062 4.648438 11.359375 4.757812 11.324219 4.878906 C 11.292969 5.003906 11.273438 5.148438 11.273438 5.3125 C 11.277344 5.660156 11.386719 5.933594 11.601562 6.136719 C 11.816406 6.339844 12.074219 6.445312 12.378906 6.449219 C 12.515625 6.453125 12.65625 6.414062 12.800781 6.332031 C 12.945312 6.253906 13.085938 6.128906 13.226562 5.957031 L 12.847656 5.746094 C 12.769531 5.839844 12.695312 5.914062 12.625 5.960938 C 12.554688 6.007812 12.472656 6.035156 12.378906 6.035156 C 12.265625 6.039062 12.144531 6 12.011719 5.917969 C 11.875 5.839844 11.804688 5.6875 11.792969 5.464844 Z M 13.199219 5.464844 "/>
<path style=" stroke:none;fill-rule:nonzero;fill:rgb(0%,0%,0%);fill-opacity:1;" d="M 14.273438 4.25 C 14.269531 4.625 14.242188 4.949219 14.183594 5.222656 C 14.125 5.496094 14.046875 5.742188 13.949219 5.957031 L 13.726562 5.957031 L 13.726562 6.832031 L 14.195312 6.832031 L 14.195312 6.375 L 15.679688 6.375 L 15.679688 6.832031 L 16.109375 6.832031 L 16.109375 5.957031 L 15.835938 5.957031 L 15.835938 4.25 Z M 14.742188 4.667969 L 15.367188 4.667969 L 15.367188 5.957031 L 14.457031 5.957031 C 14.550781 5.769531 14.617188 5.5625 14.65625 5.332031 C 14.695312 5.105469 14.722656 4.882812 14.742188 4.667969 Z M 14.742188 4.667969 "/>
<path style=" stroke:none;fill-rule:nonzero;fill:rgb(0%,0%,0%);fill-opacity:1;" d="M 17.527344 4.554688 C 17.652344 4.554688 17.765625 4.601562 17.867188 4.695312 C 17.972656 4.785156 18.03125 4.890625 18.035156 5.007812 C 18.039062 5.027344 18.035156 5.046875 18.027344 5.0625 C 18.023438 5.074219 18.011719 5.085938 17.996094 5.085938 L 17.019531 5.085938 C 17.027344 4.898438 17.082031 4.761719 17.179688 4.679688 C 17.28125 4.597656 17.398438 4.558594 17.527344 4.554688 Z M 18.425781 5.464844 C 18.460938 5.460938 18.488281 5.4375 18.511719 5.394531 C 18.53125 5.347656 18.542969 5.296875 18.542969 5.238281 C 18.535156 4.941406 18.4375 4.695312 18.242188 4.492188 C 18.046875 4.289062 17.8125 4.183594 17.527344 4.175781 C 17.378906 4.175781 17.230469 4.210938 17.085938 4.277344 C 16.945312 4.347656 16.824219 4.4375 16.726562 4.554688 C 16.644531 4.648438 16.589844 4.757812 16.554688 4.878906 C 16.523438 5.003906 16.503906 5.148438 16.503906 5.3125 C 16.507812 5.660156 16.617188 5.933594 16.832031 6.136719 C 17.046875 6.339844 17.304688 6.445312 17.605469 6.449219 C 17.746094 6.453125 17.886719 6.414062 18.03125 6.332031 C 18.175781 6.253906 18.316406 6.128906 18.457031 5.957031 L 18.074219 5.746094 C 18 5.839844 17.925781 5.914062 17.855469 5.960938 C 17.785156 6.007812 17.703125 6.035156 17.605469 6.035156 C 17.496094 6.039062 17.375 6 17.242188 5.917969 C 17.105469 5.839844 17.035156 5.6875 17.019531 5.464844 Z M 18.425781 5.464844 "/>
<path style=" stroke:none;fill-rule:nonzero;fill:rgb(0%,0%,0%);fill-opacity:1;" d="M 19.542969 4.25 C 19.542969 4.398438 19.539062 4.574219 19.53125 4.78125 C 19.523438 4.988281 19.511719 5.183594 19.492188 5.363281 C 19.472656 5.542969 19.449219 5.667969 19.417969 5.730469 C 19.367188 5.816406 19.308594 5.882812 19.234375 5.929688 C 19.160156 5.976562 19.089844 6.007812 19.023438 6.015625 L 19.113281 6.449219 C 19.429688 6.371094 19.644531 6.234375 19.757812 6.039062 C 19.875 5.84375 19.9375 5.625 19.949219 5.382812 C 19.957031 5.140625 19.964844 4.898438 19.972656 4.667969 L 20.597656 4.667969 L 20.597656 6.375 L 21.066406 6.375 L 21.066406 4.25 Z M 19.542969 4.25 "/>
<path style=" stroke:none;fill-rule:nonzero;fill:rgb(0%,0%,0%);fill-opacity:1;" d="M 21.945312 4.25 L 21.945312 6.375 L 22.960938 6.375 C 23.230469 6.367188 23.425781 6.296875 23.546875 6.160156 C 23.667969 6.027344 23.726562 5.871094 23.722656 5.691406 C 23.726562 5.515625 23.667969 5.359375 23.546875 5.222656 C 23.425781 5.085938 23.230469 5.015625 22.960938 5.007812 L 22.414062 5.007812 L 22.414062 4.25 Z M 22.414062 5.425781 L 23 5.425781 C 23.078125 5.429688 23.144531 5.457031 23.195312 5.511719 C 23.246094 5.566406 23.269531 5.625 23.273438 5.691406 C 23.269531 5.757812 23.246094 5.816406 23.195312 5.871094 C 23.144531 5.925781 23.078125 5.953125 23 5.957031 L 22.414062 5.957031 Z M 22.414062 5.425781 "/>
<path style=" stroke:none;fill-rule:nonzero;fill:rgb(0%,0%,0%);fill-opacity:1;" d="M 24.367188 4.25 L 24.367188 6.375 L 24.835938 6.375 L 24.835938 5.464844 L 25.65625 5.464844 L 25.65625 6.375 L 26.125 6.375 L 26.125 4.25 L 25.65625 4.25 L 25.65625 5.046875 L 24.835938 5.046875 L 24.835938 4.25 Z M 24.367188 4.25 "/>
<path style=" stroke:none;fill-rule:nonzero;fill:rgb(0%,0%,0%);fill-opacity:1;" d="M 26.921875 4.25 L 26.921875 6.375 L 27.429688 6.375 L 28.328125 4.933594 L 28.328125 6.375 L 28.796875 6.375 L 28.796875 4.25 L 28.289062 4.25 L 27.390625 5.691406 L 27.390625 4.25 Z M 26.921875 4.25 "/>
<path style=" stroke:none;fill-rule:nonzero;fill:rgb(0%,0%,0%);fill-opacity:1;" d="M 29.597656 4.25 L 29.597656 6.375 L 30.066406 6.375 L 30.066406 5.386719 C 30.085938 5.386719 30.105469 5.382812 30.128906 5.382812 C 30.148438 5.378906 30.167969 5.378906 30.183594 5.378906 C 30.398438 5.390625 30.5625 5.503906 30.675781 5.714844 C 30.785156 5.921875 30.910156 6.144531 31.042969 6.375 L 31.628906 6.375 C 31.496094 6.246094 31.386719 6.09375 31.300781 5.917969 C 31.214844 5.742188 31.121094 5.585938 31.019531 5.441406 C 30.921875 5.296875 30.785156 5.203125 30.613281 5.160156 C 30.707031 5.132812 30.789062 5.078125 30.863281 4.992188 C 30.933594 4.902344 31.011719 4.820312 31.09375 4.738281 C 31.175781 4.652344 31.273438 4.605469 31.394531 4.589844 L 31.277344 4.210938 C 31.117188 4.234375 30.96875 4.308594 30.839844 4.4375 C 30.707031 4.566406 30.585938 4.691406 30.46875 4.816406 C 30.355469 4.9375 30.238281 5.003906 30.121094 5.015625 C 30.113281 5.015625 30.105469 5.015625 30.09375 5.011719 C 30.085938 5.011719 30.074219 5.011719 30.066406 5.007812 L 30.066406 4.25 Z M 29.597656 4.25 "/>
<path style=" stroke:none;fill-rule:nonzero;fill:rgb(0%,0%,0%);fill-opacity:1;" d="M 24.257812 9.609375 L 24.480469 10.097656 C 24.597656 10 24.710938 9.925781 24.820312 9.882812 C 24.929688 9.835938 25.066406 9.816406 25.230469 9.816406 C 25.34375 9.816406 25.4375 9.855469 25.523438 9.921875 C 25.605469 9.992188 25.652344 10.082031 25.65625 10.1875 C 25.648438 10.3125 25.574219 10.4375 25.433594 10.554688 C 25.289062 10.675781 25.109375 10.757812 24.894531 10.804688 L 24.894531 11.253906 C 24.9375 11.234375 24.984375 11.222656 25.035156 11.21875 C 25.085938 11.214844 25.136719 11.214844 25.191406 11.214844 C 25.457031 11.226562 25.625 11.289062 25.695312 11.402344 C 25.765625 11.515625 25.796875 11.613281 25.789062 11.695312 C 25.78125 11.886719 25.707031 12.023438 25.566406 12.113281 C 25.425781 12.199219 25.257812 12.242188 25.0625 12.242188 C 24.917969 12.242188 24.765625 12.230469 24.609375 12.203125 C 24.449219 12.175781 24.316406 12.128906 24.210938 12.0625 L 24.28125 12.636719 C 24.296875 12.644531 24.398438 12.667969 24.585938 12.707031 C 24.777344 12.75 24.964844 12.773438 25.148438 12.777344 C 25.550781 12.765625 25.859375 12.648438 26.074219 12.429688 C 26.285156 12.207031 26.390625 11.96875 26.394531 11.707031 C 26.386719 11.53125 26.332031 11.382812 26.226562 11.265625 C 26.121094 11.148438 26.007812 11.058594 25.878906 10.996094 C 25.75 10.9375 25.648438 10.898438 25.570312 10.886719 C 25.746094 10.859375 25.902344 10.773438 26.035156 10.628906 C 26.171875 10.480469 26.242188 10.292969 26.25 10.0625 C 26.238281 9.832031 26.140625 9.652344 25.953125 9.519531 C 25.769531 9.386719 25.5625 9.320312 25.339844 9.316406 C 25.160156 9.320312 24.964844 9.355469 24.75 9.417969 C 24.539062 9.480469 24.375 9.542969 24.257812 9.609375 Z M 24.257812 9.609375 "/>
<path style=" stroke:none;fill-rule:nonzero;fill:rgb(0%,0%,0%);fill-opacity:1;" d="M 28.03125 9.363281 C 27.6875 9.371094 27.410156 9.527344 27.203125 9.835938 C 27 10.144531 26.890625 10.546875 26.886719 11.050781 C 26.890625 11.550781 27 11.957031 27.203125 12.261719 C 27.410156 12.570312 27.6875 12.726562 28.03125 12.738281 C 28.375 12.726562 28.648438 12.570312 28.855469 12.261719 C 29.0625 11.957031 29.167969 11.550781 29.175781 11.050781 C 29.167969 10.570312 29.0625 10.171875 28.855469 9.855469 C 28.648438 9.539062 28.375 9.375 28.03125 9.363281 Z M 28.03125 9.875 C 28.195312 9.871094 28.328125 9.964844 28.429688 10.152344 C 28.527344 10.34375 28.578125 10.640625 28.582031 11.050781 C 28.578125 11.457031 28.527344 11.757812 28.429688 11.945312 C 28.328125 12.132812 28.195312 12.226562 28.03125 12.226562 C 27.863281 12.226562 27.730469 12.132812 27.632812 11.945312 C 27.535156 11.757812 27.484375 11.457031 27.480469 11.050781 C 27.484375 10.640625 27.535156 10.34375 27.632812 10.152344 C 27.730469 9.964844 27.863281 9.871094 28.03125 9.875 Z M 28.03125 9.875 "/>
</g>
</svg>
