<?xml version="1.0" encoding="UTF-8"?>
<svg xmlns="http://www.w3.org/2000/svg" xmlns:xlink="http://www.w3.org/1999/xlink" width="35px" height="35px" viewBox="0 0 35 17" version="1.1">
<g id="surface1">
<path style=" stroke:none;fill-rule:nonzero;fill:rgb(0%,0%,0%);fill-opacity:1;" d="M 2.625 0 L 32.375 0 C 33.824219 0 35 1.140625 35 2.550781 L 35 14.449219 C 35 15.859375 33.824219 17 32.375 17 L 2.625 17 C 1.175781 17 0 15.859375 0 14.449219 L 0 2.550781 C 0 1.140625 1.175781 0 2.625 0 Z M 2.625 0 "/>
<path style=" stroke:none;fill-rule:nonzero;fill:rgb(100%,100%,100%);fill-opacity:1;" d="M 2.625 0.566406 L 32.375 0.566406 C 33.503906 0.566406 34.417969 1.453125 34.417969 2.550781 L 34.417969 14.449219 C 34.417969 15.546875 33.503906 16.433594 32.375 16.433594 L 2.625 16.433594 C 1.496094 16.433594 0.582031 15.546875 0.582031 14.449219 L 0.582031 2.550781 C 0.582031 1.453125 1.496094 0.566406 2.625 0.566406 Z M 2.625 0.566406 "/>
<path style=" stroke:none;fill-rule:nonzero;fill:rgb(0%,0%,0%);fill-opacity:1;" d="M 19.277344 10.957031 L 19.585938 11.351562 L 20.289062 10.921875 L 20.289062 14.875 L 21.207031 14.875 L 21.207031 9.773438 L 20.421875 9.773438 Z M 19.277344 10.957031 "/>
<path style=" stroke:none;fill-rule:nonzero;fill:rgb(0%,0%,0%);fill-opacity:1;" d="M 22.292969 10.605469 L 24.722656 10.605469 C 24.347656 11.183594 23.996094 11.839844 23.664062 12.5625 C 23.332031 13.289062 23.09375 14.039062 22.949219 14.8125 L 23.933594 14.8125 C 24.136719 13.898438 24.386719 13.09375 24.6875 12.398438 C 24.988281 11.699219 25.304688 11.039062 25.640625 10.414062 L 25.640625 9.773438 L 22.488281 9.773438 Z M 22.292969 10.605469 "/>
<path style=" stroke:none;fill-rule:nonzero;fill:rgb(0%,0%,0%);fill-opacity:1;" d="M 25.855469 14.363281 C 25.851562 14.207031 25.796875 14.078125 25.6875 13.972656 C 25.582031 13.867188 25.445312 13.8125 25.285156 13.808594 C 25.121094 13.8125 24.988281 13.867188 24.878906 13.972656 C 24.773438 14.078125 24.714844 14.207031 24.710938 14.363281 C 24.714844 14.523438 24.773438 14.652344 24.878906 14.757812 C 24.988281 14.863281 25.121094 14.917969 25.285156 14.921875 C 25.445312 14.917969 25.582031 14.863281 25.6875 14.757812 C 25.796875 14.652344 25.851562 14.523438 25.855469 14.363281 Z M 25.855469 14.363281 "/>
<path style=" stroke:none;fill-rule:nonzero;fill:rgb(0%,0%,0%);fill-opacity:1;" d="M 4.433594 9.710938 C 3.992188 9.710938 3.613281 9.824219 3.292969 10.046875 C 2.976562 10.269531 2.808594 10.605469 2.792969 11.050781 C 2.804688 11.34375 2.882812 11.578125 3.03125 11.746094 C 3.179688 11.910156 3.328125 12.03125 3.472656 12.097656 C 3.621094 12.167969 3.699219 12.199219 3.710938 12.199219 C 3.699219 12.195312 3.609375 12.242188 3.441406 12.328125 C 3.269531 12.417969 3.101562 12.558594 2.933594 12.746094 C 2.765625 12.933594 2.675781 13.175781 2.660156 13.472656 C 2.652344 13.8125 2.785156 14.136719 3.054688 14.445312 C 3.328125 14.753906 3.785156 14.917969 4.433594 14.9375 C 5.082031 14.917969 5.542969 14.753906 5.8125 14.445312 C 6.082031 14.136719 6.214844 13.8125 6.207031 13.472656 C 6.191406 13.175781 6.101562 12.933594 5.933594 12.746094 C 5.765625 12.558594 5.597656 12.417969 5.429688 12.328125 C 5.257812 12.242188 5.167969 12.195312 5.15625 12.199219 C 5.167969 12.199219 5.246094 12.167969 5.394531 12.097656 C 5.542969 12.03125 5.6875 11.910156 5.835938 11.746094 C 5.984375 11.578125 6.0625 11.34375 6.074219 11.050781 C 6.058594 10.605469 5.894531 10.269531 5.574219 10.046875 C 5.253906 9.824219 4.875 9.710938 4.433594 9.710938 Z M 4.433594 10.441406 C 4.636719 10.4375 4.804688 10.484375 4.941406 10.578125 C 5.078125 10.671875 5.148438 10.828125 5.15625 11.050781 C 5.125 11.25 5.003906 11.425781 4.792969 11.574219 C 4.585938 11.726562 4.464844 11.808594 4.433594 11.816406 C 4.402344 11.808594 4.285156 11.726562 4.074219 11.574219 C 3.863281 11.425781 3.742188 11.25 3.710938 11.050781 C 3.71875 10.828125 3.789062 10.671875 3.925781 10.578125 C 4.0625 10.484375 4.230469 10.4375 4.433594 10.441406 Z M 4.433594 12.578125 C 4.445312 12.582031 4.519531 12.628906 4.65625 12.714844 C 4.792969 12.800781 4.929688 12.917969 5.066406 13.0625 C 5.203125 13.207031 5.277344 13.363281 5.285156 13.535156 C 5.277344 13.757812 5.183594 13.921875 5.007812 14.023438 C 4.832031 14.125 4.640625 14.175781 4.433594 14.171875 C 4.226562 14.175781 4.035156 14.125 3.859375 14.023438 C 3.683594 13.921875 3.589844 13.757812 3.582031 13.535156 C 3.589844 13.382812 3.664062 13.234375 3.800781 13.089844 C 3.9375 12.945312 4.074219 12.824219 4.210938 12.730469 C 4.351562 12.632812 4.421875 12.582031 4.433594 12.578125 Z M 4.433594 12.578125 "/>
<path style=" stroke:none;fill-rule:nonzero;fill:rgb(0%,0%,0%);fill-opacity:1;" d="M 7.703125 14.363281 C 7.699219 14.207031 7.644531 14.078125 7.535156 13.972656 C 7.425781 13.867188 7.292969 13.8125 7.128906 13.808594 C 6.96875 13.8125 6.835938 13.867188 6.726562 13.972656 C 6.617188 14.078125 6.5625 14.207031 6.558594 14.363281 C 6.5625 14.523438 6.617188 14.652344 6.726562 14.757812 C 6.835938 14.863281 6.96875 14.917969 7.128906 14.921875 C 7.292969 14.917969 7.425781 14.863281 7.535156 14.757812 C 7.644531 14.652344 7.699219 14.523438 7.703125 14.363281 Z M 7.703125 14.363281 "/>
<path style=" stroke:none;fill-rule:nonzero;fill:rgb(0%,0%,0%);fill-opacity:1;" d="M 18.988281 13.160156 L 15.464844 13.160156 L 15.464844 12.332031 L 18.988281 12.332031 Z M 18.988281 13.160156 "/>
<path style=" stroke:none;fill-rule:nonzero;fill:rgb(0%,0%,0%);fill-opacity:1;" d="M 9.792969 10.796875 C 9.371094 10.804688 9.03125 11 8.777344 11.375 C 8.523438 11.753906 8.394531 12.25 8.386719 12.867188 C 8.394531 13.484375 8.523438 13.980469 8.777344 14.359375 C 9.03125 14.734375 9.371094 14.929688 9.792969 14.9375 C 10.214844 14.929688 10.550781 14.734375 10.804688 14.359375 C 11.058594 13.980469 11.191406 13.484375 11.195312 12.867188 C 11.191406 12.277344 11.058594 11.789062 10.804688 11.402344 C 10.550781 11.011719 10.214844 10.808594 9.792969 10.796875 Z M 9.792969 11.421875 C 9.996094 11.421875 10.160156 11.535156 10.28125 11.765625 C 10.402344 11.996094 10.464844 12.363281 10.46875 12.867188 C 10.464844 13.371094 10.402344 13.734375 10.28125 13.96875 C 10.160156 14.199219 9.996094 14.3125 9.792969 14.3125 C 9.589844 14.3125 9.425781 14.199219 9.304688 13.96875 C 9.179688 13.734375 9.117188 13.371094 9.117188 12.867188 C 9.117188 12.363281 9.179688 11.996094 9.304688 11.765625 C 9.425781 11.535156 9.589844 11.421875 9.792969 11.421875 Z M 9.792969 11.421875 "/>
<path style=" stroke:none;fill-rule:nonzero;fill:rgb(0%,0%,0%);fill-opacity:1;" d="M 13.199219 10.796875 C 12.777344 10.804688 12.441406 11 12.1875 11.375 C 11.933594 11.753906 11.800781 12.25 11.796875 12.867188 C 11.800781 13.484375 11.933594 13.980469 12.1875 14.359375 C 12.441406 14.734375 12.777344 14.929688 13.199219 14.9375 C 13.621094 14.929688 13.960938 14.734375 14.214844 14.359375 C 14.46875 13.980469 14.597656 13.484375 14.605469 12.867188 C 14.597656 12.277344 14.46875 11.789062 14.214844 11.402344 C 13.960938 11.011719 13.621094 10.808594 13.199219 10.796875 Z M 13.199219 11.421875 C 13.402344 11.421875 13.566406 11.535156 13.6875 11.765625 C 13.8125 11.996094 13.875 12.363281 13.875 12.867188 C 13.875 13.371094 13.8125 13.734375 13.6875 13.96875 C 13.566406 14.199219 13.402344 14.3125 13.199219 14.3125 C 12.996094 14.3125 12.832031 14.199219 12.710938 13.96875 C 12.589844 13.734375 12.527344 13.371094 12.523438 12.867188 C 12.527344 12.363281 12.589844 11.996094 12.710938 11.765625 C 12.832031 11.535156 12.996094 11.421875 13.199219 11.421875 Z M 13.199219 11.421875 "/>
<path style=" stroke:none;fill-rule:nonzero;fill:rgb(0%,0%,0%);fill-opacity:1;" d="M 26.578125 11.125 L 26.851562 11.722656 C 26.996094 11.601562 27.132812 11.515625 27.269531 11.457031 C 27.402344 11.402344 27.574219 11.375 27.773438 11.378906 C 27.910156 11.378906 28.027344 11.425781 28.132812 11.511719 C 28.234375 11.59375 28.289062 11.703125 28.292969 11.832031 C 28.289062 11.988281 28.195312 12.140625 28.019531 12.285156 C 27.847656 12.433594 27.625 12.535156 27.359375 12.589844 L 27.359375 13.144531 C 27.410156 13.121094 27.46875 13.105469 27.53125 13.101562 C 27.59375 13.097656 27.660156 13.09375 27.722656 13.09375 C 28.046875 13.109375 28.257812 13.1875 28.34375 13.328125 C 28.429688 13.464844 28.46875 13.585938 28.457031 13.6875 C 28.445312 13.921875 28.355469 14.089844 28.183594 14.199219 C 28.015625 14.308594 27.808594 14.359375 27.566406 14.359375 C 27.390625 14.359375 27.203125 14.34375 27.007812 14.308594 C 26.816406 14.273438 26.652344 14.21875 26.519531 14.136719 L 26.609375 14.84375 C 26.625 14.851562 26.75 14.878906 26.984375 14.929688 C 27.214844 14.980469 27.445312 15.007812 27.671875 15.015625 C 28.167969 15 28.546875 14.855469 28.804688 14.585938 C 29.066406 14.316406 29.199219 14.023438 29.199219 13.703125 C 29.195312 13.484375 29.125 13.300781 28.996094 13.160156 C 28.867188 13.015625 28.726562 12.90625 28.566406 12.828125 C 28.410156 12.753906 28.285156 12.707031 28.191406 12.691406 C 28.40625 12.660156 28.597656 12.554688 28.761719 12.375 C 28.925781 12.195312 29.015625 11.960938 29.023438 11.679688 C 29.007812 11.398438 28.886719 11.175781 28.660156 11.015625 C 28.433594 10.851562 28.183594 10.765625 27.90625 10.765625 C 27.6875 10.769531 27.445312 10.8125 27.183594 10.886719 C 26.921875 10.964844 26.722656 11.042969 26.578125 11.125 Z M 26.578125 11.125 "/>
<path style=" stroke:none;fill-rule:nonzero;fill:rgb(0%,0%,0%);fill-opacity:1;" d="M 31.164062 10.820312 C 30.738281 10.832031 30.402344 11.027344 30.148438 11.402344 C 29.894531 11.78125 29.765625 12.277344 29.757812 12.894531 C 29.765625 13.511719 29.894531 14.007812 30.148438 14.382812 C 30.402344 14.761719 30.738281 14.953125 31.164062 14.964844 C 31.585938 14.953125 31.921875 14.761719 32.175781 14.382812 C 32.429688 14.007812 32.5625 13.511719 32.566406 12.894531 C 32.5625 12.304688 32.429688 11.816406 32.175781 11.425781 C 31.921875 11.039062 31.585938 10.835938 31.164062 10.820312 Z M 31.164062 11.449219 C 31.367188 11.445312 31.527344 11.5625 31.652344 11.792969 C 31.773438 12.023438 31.835938 12.390625 31.839844 12.894531 C 31.835938 13.394531 31.773438 13.761719 31.652344 13.996094 C 31.527344 14.226562 31.367188 14.339844 31.164062 14.335938 C 30.957031 14.339844 30.796875 14.226562 30.675781 13.996094 C 30.550781 13.761719 30.488281 13.394531 30.484375 12.894531 C 30.488281 12.390625 30.550781 12.023438 30.675781 11.792969 C 30.796875 11.5625 30.957031 11.445312 31.164062 11.449219 Z M 31.164062 11.449219 "/>
<path style=" stroke:none;fill-rule:nonzero;fill:rgb(0%,0%,0%);fill-opacity:1;" d="M 15.625 2.125 L 14.347656 3.363281 L 13.671875 4.847656 L 14.234375 5.394531 L 15.335938 4.320312 L 16.941406 5.878906 L 14.636719 8.117188 L 15.199219 8.660156 L 17.5 6.425781 L 19.800781 8.660156 L 20.363281 8.117188 L 18.058594 5.878906 L 19.664062 4.320312 L 20.765625 5.394531 L 21.328125 4.847656 L 20.652344 3.363281 L 19.375 2.125 L 18.390625 3.082031 L 19.105469 3.777344 L 17.5 5.335938 L 15.894531 3.777344 L 16.609375 3.082031 Z M 15.625 2.125 "/>
</g>
</svg>
