<?xml version="1.0" encoding="UTF-8"?>
<svg xmlns="http://www.w3.org/2000/svg" xmlns:xlink="http://www.w3.org/1999/xlink" width="35px" height="35px" viewBox="0 0 35 17" version="1.1">
<g id="surface1">
<path style=" stroke:none;fill-rule:nonzero;fill:rgb(0%,0%,0%);fill-opacity:1;" d="M 2.625 0 L 32.375 0 C 33.824219 0 35 1.140625 35 2.550781 L 35 14.449219 C 35 15.859375 33.824219 17 32.375 17 L 2.625 17 C 1.175781 17 0 15.859375 0 14.449219 L 0 2.550781 C 0 1.140625 1.175781 0 2.625 0 Z M 2.625 0 "/>
<path style=" stroke:none;fill-rule:nonzero;fill:rgb(100%,100%,100%);fill-opacity:1;" d="M 2.625 0.566406 C 1.492188 0.566406 0.582031 1.453125 0.582031 2.550781 L 0.582031 14.34375 L 24.0625 14.34375 L 24.0625 12.75 L 34.417969 12.75 L 34.417969 2.550781 C 34.417969 1.453125 33.507812 0.566406 32.375 0.566406 Z M 2.625 0.566406 "/>
<path style=" stroke:none;fill-rule:nonzero;fill:rgb(0%,0%,0%);fill-opacity:1;" d="M 14.28125 4.144531 C 14.027344 4.144531 13.757812 4.332031 13.671875 4.566406 L 13.367188 5.433594 L 12.726562 7.226562 C 12.726562 7.226562 12.726562 7.230469 12.726562 7.230469 L 12.578125 7.648438 C 12.214844 7.648438 11.921875 7.933594 11.921875 8.289062 L 11.921875 10.835938 C 11.921875 11.191406 12.214844 11.476562 12.578125 11.476562 L 22.421875 11.476562 C 22.785156 11.476562 23.078125 11.191406 23.078125 10.835938 L 23.078125 8.289062 C 23.078125 7.933594 22.785156 7.648438 22.421875 7.648438 L 22.273438 7.230469 C 22.273438 7.230469 22.273438 7.226562 22.273438 7.226562 L 21.632812 5.433594 L 21.328125 4.566406 C 21.242188 4.332031 20.972656 4.144531 20.71875 4.144531 Z M 14.484375 4.78125 L 20.515625 4.78125 C 20.644531 4.78125 20.78125 4.875 20.824219 4.992188 L 21.765625 7.648438 L 13.234375 7.648438 L 14.179688 4.992188 C 14.21875 4.875 14.355469 4.78125 14.484375 4.78125 Z M 14.484375 4.78125 "/>
<path style=" stroke:none;fill-rule:nonzero;fill:rgb(0%,0%,0%);fill-opacity:1;" d="M 12.578125 11.792969 L 12.578125 13.070312 C 12.578125 13.597656 13.019531 14.023438 13.5625 14.023438 C 14.105469 14.023438 14.546875 13.597656 14.546875 13.070312 L 14.546875 11.792969 Z M 12.578125 11.792969 "/>
<path style=" stroke:none;fill-rule:nonzero;fill:rgb(0%,0%,0%);fill-opacity:1;" d="M 20.453125 11.792969 L 20.453125 13.070312 C 20.453125 13.597656 20.894531 14.023438 21.4375 14.023438 C 21.980469 14.023438 22.421875 13.597656 22.421875 13.070312 L 22.421875 11.792969 Z M 20.453125 11.792969 "/>
</g>
</svg>
