<?xml version="1.0" encoding="UTF-8"?>
<svg xmlns="http://www.w3.org/2000/svg" xmlns:xlink="http://www.w3.org/1999/xlink" width="35px" height="35px" viewBox="0 0 35 17" version="1.1">
<g id="surface1">
<path style=" stroke:none;fill-rule:nonzero;fill:rgb(0%,0%,0%);fill-opacity:1;" d="M 2.625 0 L 32.375 0 C 33.824219 0 35 1.140625 35 2.550781 L 35 14.449219 C 35 15.859375 33.824219 17 32.375 17 L 2.625 17 C 1.175781 17 0 15.859375 0 14.449219 L 0 2.550781 C 0 1.140625 1.175781 0 2.625 0 Z M 2.625 0 "/>
<path style=" stroke:none;fill-rule:nonzero;fill:rgb(100%,100%,100%);fill-opacity:1;" d="M 2.625 0.566406 C 1.492188 0.566406 0.582031 1.453125 0.582031 2.550781 L 0.582031 14.34375 L 21.875 14.34375 L 21.875 12.75 L 34.417969 12.75 L 34.417969 2.550781 C 34.417969 1.453125 33.507812 0.566406 32.375 0.566406 Z M 2.625 0.566406 "/>
<path style=" stroke:none;fill-rule:nonzero;fill:rgb(0%,0%,0%);fill-opacity:1;" d="M 13.871094 5.3125 C 13.65625 5.3125 13.449219 5.402344 13.300781 5.554688 L 10.570312 8.398438 C 10.445312 8.527344 10.28125 8.609375 10.105469 8.632812 L 5.921875 9.203125 C 5.53125 9.257812 5.242188 9.589844 5.25 9.972656 L 5.273438 11.417969 C 5.285156 11.757812 5.570312 12.027344 5.917969 12.035156 C 6.113281 11.117188 6.957031 10.421875 7.96875 10.421875 C 9.125 10.421875 10.0625 11.328125 10.0625 12.445312 L 17.511719 12.445312 C 17.511719 11.328125 18.449219 10.421875 19.605469 10.421875 C 20.664062 10.421875 21.539062 11.183594 21.679688 12.171875 L 22.078125 12.066406 C 22.320312 12.003906 22.507812 11.8125 22.554688 11.570312 L 22.964844 9.523438 C 23.011719 9.292969 22.945312 9.058594 22.792969 8.882812 L 19.886719 5.578125 C 19.738281 5.410156 19.519531 5.3125 19.292969 5.3125 Z M 13.960938 5.914062 L 19.335938 5.914062 C 19.640625 5.914062 19.902344 6.128906 19.949219 6.421875 L 20.207031 7.984375 C 20.257812 8.3125 20.027344 8.621094 19.6875 8.671875 C 19.65625 8.675781 19.625 8.679688 19.59375 8.679688 L 12.226562 8.679688 C 11.953125 8.679688 11.730469 8.464844 11.730469 8.199219 C 11.730469 8.078125 11.78125 7.960938 11.867188 7.871094 L 13.597656 6.066406 C 13.691406 5.96875 13.824219 5.914062 13.960938 5.914062 Z M 13.960938 5.914062 "/>
<path style=" stroke:none;fill-rule:nonzero;fill:rgb(0%,0%,0%);fill-opacity:1;" d="M 7.96875 10.765625 C 7.011719 10.765625 6.234375 11.519531 6.234375 12.449219 C 6.234375 13.378906 7.011719 14.132812 7.96875 14.132812 C 8.925781 14.132812 9.703125 13.378906 9.703125 12.449219 C 9.703125 11.519531 8.925781 10.765625 7.96875 10.765625 Z M 7.96875 11.445312 C 8.539062 11.445312 9 11.894531 9 12.449219 C 9 13 8.539062 13.449219 7.96875 13.449219 C 7.398438 13.449219 6.9375 13 6.9375 12.449219 C 6.9375 11.894531 7.398438 11.445312 7.96875 11.445312 Z M 7.96875 11.445312 "/>
<path style=" stroke:none;fill-rule:nonzero;fill:rgb(0%,0%,0%);fill-opacity:1;" d="M 19.605469 10.765625 C 18.648438 10.765625 17.871094 11.519531 17.871094 12.449219 C 17.871094 13.378906 18.648438 14.132812 19.605469 14.132812 C 20.5625 14.132812 21.335938 13.378906 21.335938 12.449219 C 21.335938 11.519531 20.5625 10.765625 19.605469 10.765625 Z M 19.605469 11.445312 C 20.175781 11.445312 20.636719 11.894531 20.636719 12.449219 C 20.636719 13 20.175781 13.449219 19.605469 13.449219 C 19.035156 13.449219 18.574219 13 18.574219 12.449219 C 18.574219 11.894531 19.035156 11.445312 19.605469 11.445312 Z M 19.605469 11.445312 "/>
</g>
</svg>
