<?xml version="1.0" encoding="UTF-8"?>
<svg xmlns="http://www.w3.org/2000/svg" xmlns:xlink="http://www.w3.org/1999/xlink" width="35px" height="35px" viewBox="0 0 35 17" version="1.1">
<g id="surface1">
<path style=" stroke:none;fill-rule:nonzero;fill:rgb(0%,0%,0%);fill-opacity:1;" d="M 2.625 0 L 32.375 0 C 33.824219 0 35 1.140625 35 2.550781 L 35 14.449219 C 35 15.859375 33.824219 17 32.375 17 L 2.625 17 C 1.175781 17 0 15.859375 0 14.449219 L 0 2.550781 C 0 1.140625 1.175781 0 2.625 0 Z M 2.625 0 "/>
<path style=" stroke:none;fill-rule:nonzero;fill:rgb(100%,100%,100%);fill-opacity:1;" d="M 2.625 0.566406 C 1.492188 0.566406 0.582031 1.453125 0.582031 2.550781 L 0.582031 14.34375 L 17.5 14.34375 L 17.5 12.75 L 34.417969 12.75 L 34.417969 2.550781 C 34.417969 1.453125 33.507812 0.566406 32.375 0.566406 Z M 2.625 0.566406 "/>
<path style=" stroke:none;fill-rule:nonzero;fill:rgb(0%,0%,0%);fill-opacity:1;" d="M 21.964844 3.828125 C 21.9375 3.828125 21.90625 3.828125 21.878906 3.832031 L 16.511719 4.574219 C 16.296875 4.605469 16.105469 4.71875 15.980469 4.894531 L 13.691406 8.082031 C 13.585938 8.226562 13.4375 8.332031 13.261719 8.378906 L 9.207031 9.515625 C 8.828125 9.625 8.585938 9.988281 8.648438 10.371094 L 8.886719 11.796875 C 8.949219 12.132812 9.265625 12.359375 9.613281 12.320312 C 9.671875 11.382812 10.40625 10.582031 11.40625 10.441406 C 12.554688 10.285156 13.613281 11.054688 13.777344 12.160156 L 21.148438 11.140625 C 20.988281 10.035156 21.785156 9.007812 22.929688 8.851562 C 23.976562 8.707031 24.957031 9.339844 25.238281 10.296875 L 25.617188 10.140625 C 25.847656 10.042969 26.003906 9.828125 26.015625 9.582031 L 26.125 7.496094 C 26.136719 7.265625 26.039062 7.042969 25.859375 6.886719 L 22.507812 4.015625 C 22.355469 3.886719 22.164062 3.820312 21.964844 3.828125 Z M 22.066406 4.417969 C 22.347656 4.402344 22.605469 4.578125 22.691406 4.839844 L 23.167969 6.355469 C 23.269531 6.671875 23.085938 7.007812 22.757812 7.105469 C 22.726562 7.113281 22.695312 7.121094 22.664062 7.125 L 15.371094 8.132812 C 15.101562 8.171875 14.851562 7.988281 14.8125 7.726562 C 14.796875 7.605469 14.824219 7.484375 14.898438 7.382812 L 16.351562 5.359375 C 16.429688 5.25 16.550781 5.175781 16.6875 5.160156 L 22.011719 4.421875 C 22.03125 4.417969 22.046875 4.417969 22.066406 4.417969 Z M 22.066406 4.417969 "/>
<path style=" stroke:none;fill-rule:nonzero;fill:rgb(0%,0%,0%);fill-opacity:1;" d="M 11.457031 10.78125 C 10.511719 10.910156 9.851562 11.765625 9.988281 12.683594 C 10.121094 13.605469 11 14.246094 11.945312 14.113281 C 12.894531 13.984375 13.554688 13.128906 13.417969 12.210938 C 13.28125 11.289062 12.40625 10.648438 11.457031 10.78125 Z M 11.558594 11.457031 C 12.121094 11.378906 12.644531 11.757812 12.722656 12.304688 C 12.804688 12.855469 12.410156 13.363281 11.847656 13.441406 C 11.285156 13.519531 10.761719 13.136719 10.679688 12.589844 C 10.601562 12.039062 10.992188 11.535156 11.558594 11.457031 Z M 11.558594 11.457031 "/>
<path style=" stroke:none;fill-rule:nonzero;fill:rgb(0%,0%,0%);fill-opacity:1;" d="M 22.976562 9.1875 C 22.03125 9.320312 21.371094 10.171875 21.507812 11.09375 C 21.640625 12.011719 22.519531 12.652344 23.46875 12.523438 C 24.414062 12.390625 25.074219 11.539062 24.9375 10.617188 C 24.804688 9.695312 23.925781 9.058594 22.976562 9.1875 Z M 23.078125 9.863281 C 23.640625 9.785156 24.164062 10.164062 24.242188 10.714844 C 24.324219 11.261719 23.933594 11.769531 23.367188 11.847656 C 22.804688 11.925781 22.28125 11.542969 22.203125 10.996094 C 22.121094 10.449219 22.511719 9.941406 23.078125 9.863281 Z M 23.078125 9.863281 "/>
</g>
</svg>
