<?xml version="1.0" encoding="UTF-8"?>
<svg xmlns="http://www.w3.org/2000/svg" xmlns:xlink="http://www.w3.org/1999/xlink" width="35px" height="35px" viewBox="0 0 35 17" version="1.1">
<g id="surface1">
<path style=" stroke:none;fill-rule:nonzero;fill:rgb(0%,0%,0%);fill-opacity:1;" d="M 2.625 0 L 32.375 0 C 33.824219 0 35 1.140625 35 2.550781 L 35 14.449219 C 35 15.859375 33.824219 17 32.375 17 L 2.625 17 C 1.175781 17 0 15.859375 0 14.449219 L 0 2.550781 C 0 1.140625 1.175781 0 2.625 0 Z M 2.625 0 "/>
<path style=" stroke:none;fill-rule:nonzero;fill:rgb(100%,100%,100%);fill-opacity:1;" d="M 2.625 0.566406 C 1.492188 0.566406 0.582031 1.453125 0.582031 2.550781 L 0.582031 14.34375 L 13.125 14.34375 L 13.125 12.75 L 34.417969 12.75 L 34.417969 2.550781 C 34.417969 1.453125 33.507812 0.566406 32.375 0.566406 Z M 2.625 0.566406 "/>
<path style=" stroke:none;fill-rule:nonzero;fill:rgb(0%,0%,0%);fill-opacity:1;" d="M 28.136719 9.171875 C 29.09375 9.171875 29.871094 9.925781 29.871094 10.855469 C 29.871094 11.785156 29.09375 12.539062 28.136719 12.539062 C 27.179688 12.539062 26.402344 11.785156 26.402344 10.855469 C 26.402344 9.925781 27.179688 9.171875 28.136719 9.171875 Z M 28.136719 9.851562 C 27.566406 9.851562 27.105469 10.300781 27.105469 10.855469 C 27.105469 11.40625 27.566406 11.855469 28.136719 11.855469 C 28.707031 11.855469 29.167969 11.40625 29.167969 10.855469 C 29.167969 10.300781 28.707031 9.851562 28.136719 9.851562 Z M 28.136719 9.851562 "/>
<path style=" stroke:none;fill-rule:nonzero;fill:rgb(0%,0%,0%);fill-opacity:1;" d="M 16.5 9.171875 C 17.457031 9.171875 18.234375 9.925781 18.234375 10.855469 C 18.234375 11.785156 17.457031 12.539062 16.5 12.539062 C 15.542969 12.539062 14.765625 11.785156 14.765625 10.855469 C 14.765625 9.925781 15.542969 9.171875 16.5 9.171875 Z M 16.5 9.851562 C 15.929688 9.851562 15.46875 10.300781 15.46875 10.855469 C 15.46875 11.40625 15.929688 11.855469 16.5 11.855469 C 17.070312 11.855469 17.53125 11.40625 17.53125 10.855469 C 17.53125 10.300781 17.070312 9.851562 16.5 9.851562 Z M 16.5 9.851562 "/>
<path style=" stroke:none;fill-rule:nonzero;fill:rgb(0%,0%,0%);fill-opacity:1;" d="M 16.8125 3.71875 C 16.582031 3.71875 16.367188 3.816406 16.214844 3.984375 L 13.3125 7.289062 C 13.15625 7.464844 13.09375 7.699219 13.140625 7.929688 L 13.550781 9.976562 C 13.597656 10.21875 13.785156 10.410156 14.027344 10.472656 L 14.425781 10.578125 C 14.5625 9.589844 15.4375 8.828125 16.5 8.828125 C 17.65625 8.828125 18.59375 9.734375 18.59375 10.851562 L 26.042969 10.851562 C 26.042969 9.734375 26.980469 8.828125 28.136719 8.828125 C 29.148438 8.828125 29.992188 9.523438 30.1875 10.441406 C 30.535156 10.433594 30.820312 10.164062 30.832031 9.824219 L 30.855469 8.378906 C 30.863281 7.996094 30.574219 7.664062 30.183594 7.609375 L 26 7.039062 C 25.824219 7.015625 25.65625 6.933594 25.535156 6.804688 L 22.804688 3.960938 C 22.65625 3.808594 22.449219 3.71875 22.230469 3.71875 Z M 16.765625 4.320312 L 22.144531 4.320312 C 22.28125 4.320312 22.414062 4.375 22.507812 4.472656 L 24.238281 6.277344 C 24.324219 6.367188 24.371094 6.484375 24.371094 6.605469 C 24.371094 6.871094 24.148438 7.085938 23.875 7.085938 L 16.511719 7.085938 C 16.480469 7.085938 16.449219 7.082031 16.414062 7.078125 C 16.078125 7.027344 15.847656 6.71875 15.898438 6.390625 L 16.15625 4.828125 C 16.203125 4.535156 16.460938 4.320312 16.765625 4.320312 Z M 16.765625 4.320312 "/>
</g>
</svg>
