<?xml version="1.0" encoding="UTF-8"?>
<svg xmlns="http://www.w3.org/2000/svg" xmlns:xlink="http://www.w3.org/1999/xlink" width="35px" height="35px" viewBox="0 0 35 17" version="1.1">
<g id="surface1">
<path style=" stroke:none;fill-rule:nonzero;fill:rgb(0%,0%,0%);fill-opacity:1;" d="M 2.625 0 L 32.375 0 C 33.824219 0 35 1.140625 35 2.550781 L 35 14.449219 C 35 15.859375 33.824219 17 32.375 17 L 2.625 17 C 1.175781 17 0 15.859375 0 14.449219 L 0 2.550781 C 0 1.140625 1.175781 0 2.625 0 Z M 2.625 0 "/>
<path style=" stroke:none;fill-rule:nonzero;fill:rgb(100%,100%,100%);fill-opacity:1;" d="M 2.625 0.566406 C 1.492188 0.566406 0.582031 1.453125 0.582031 2.550781 L 0.582031 14.34375 L 17.5 14.34375 L 17.5 12.75 L 34.417969 12.75 L 34.417969 2.550781 C 34.417969 1.453125 33.507812 0.566406 32.375 0.566406 Z M 2.625 0.566406 "/>
<path style=" stroke:none;fill-rule:nonzero;fill:rgb(0%,0%,0%);fill-opacity:1;" d="M 20.953125 2.550781 C 20.699219 2.550781 20.429688 2.738281 20.34375 2.972656 L 20.039062 3.839844 L 19.398438 5.636719 L 19.25 6.054688 C 18.886719 6.054688 18.59375 6.339844 18.59375 6.695312 L 18.59375 9.242188 C 18.59375 9.597656 18.886719 9.882812 19.25 9.882812 L 29.09375 9.882812 C 29.457031 9.882812 29.75 9.597656 29.75 9.242188 L 29.75 6.695312 C 29.75 6.339844 29.457031 6.054688 29.09375 6.054688 L 28.945312 5.636719 C 28.945312 5.636719 28.945312 5.632812 28.945312 5.632812 L 28.304688 3.839844 L 28 2.972656 C 27.914062 2.738281 27.644531 2.550781 27.390625 2.550781 Z M 21.15625 3.1875 L 27.1875 3.1875 C 27.316406 3.1875 27.453125 3.28125 27.496094 3.398438 L 28.4375 6.054688 L 19.90625 6.054688 L 20.851562 3.398438 C 20.890625 3.28125 21.027344 3.1875 21.15625 3.1875 Z M 21.15625 3.1875 "/>
<path style=" stroke:none;fill-rule:nonzero;fill:rgb(0%,0%,0%);fill-opacity:1;" d="M 19.25 10.199219 L 19.25 11.476562 C 19.25 12.003906 19.691406 12.429688 20.234375 12.429688 C 20.777344 12.429688 21.21875 12.003906 21.21875 11.476562 L 21.21875 10.199219 Z M 19.25 10.199219 "/>
<path style=" stroke:none;fill-rule:nonzero;fill:rgb(0%,0%,0%);fill-opacity:1;" d="M 27.125 10.199219 L 27.125 11.476562 C 27.125 12.003906 27.566406 12.429688 28.109375 12.429688 C 28.652344 12.429688 29.09375 12.003906 29.09375 11.476562 L 29.09375 10.199219 Z M 27.125 10.199219 "/>
</g>
</svg>
