<?xml version="1.0" encoding="UTF-8"?>
<svg xmlns="http://www.w3.org/2000/svg" xmlns:xlink="http://www.w3.org/1999/xlink" width="35px" height="35px" viewBox="0 0 35 17" version="1.1">
<g id="surface1">
<path style=" stroke:none;fill-rule:nonzero;fill:rgb(0%,0%,0%);fill-opacity:1;" d="M 2.625 0 L 32.375 0 C 33.828125 0 35 1.136719 35 2.550781 L 35 14.449219 C 35 15.863281 33.828125 17 32.375 17 L 2.625 17 C 1.171875 17 0 15.863281 0 14.449219 L 0 2.550781 C 0 1.136719 1.171875 0 2.625 0 Z M 2.625 0 "/>
<path style=" stroke:none;fill-rule:nonzero;fill:rgb(100%,100%,100%);fill-opacity:1;" d="M 2.625 0.566406 L 32.375 0.566406 C 33.507812 0.566406 34.417969 1.453125 34.417969 2.550781 L 34.417969 14.449219 C 34.417969 15.546875 33.507812 16.433594 32.375 16.433594 L 2.625 16.433594 C 1.492188 16.433594 0.582031 15.546875 0.582031 14.449219 L 0.582031 2.550781 C 0.582031 1.453125 1.492188 0.566406 2.625 0.566406 Z M 2.625 0.566406 "/>
<path style=" stroke:none;fill-rule:nonzero;fill:rgb(0%,0%,0%);fill-opacity:1;" d="M 6.96875 2.992188 C 5.917969 2.992188 4.261719 3.523438 3.605469 3.90625 L 4.300781 5.421875 C 5.050781 4.800781 5.578125 4.546875 6.632812 4.546875 C 7.289062 4.546875 7.945312 5.058594 7.945312 5.695312 C 7.945312 6.464844 6.894531 7.359375 5.578125 7.613281 L 5.578125 9.019531 C 5.839844 8.894531 6.179688 8.894531 6.5 8.894531 C 8.210938 8.894531 8.359375 9.953125 8.359375 10.390625 C 8.34375 11.578125 7.289062 12.089844 6.105469 12.089844 C 5.238281 12.089844 4.09375 11.941406 3.453125 11.523438 L 3.679688 13.3125 C 3.679688 13.3125 5.316406 13.75 6.367188 13.75 C 8.867188 13.75 10.242188 11.960938 10.242188 10.425781 C 10.242188 8.765625 8.34375 7.996094 7.683594 7.871094 C 8.738281 7.742188 9.789062 6.71875 9.789062 5.3125 C 9.789062 3.90625 8.285156 2.992188 6.96875 2.992188 Z M 17.457031 5.054688 C 17.035156 5.054688 16.613281 5.101562 16.199219 5.191406 C 14.9375 5.464844 14.0625 6.265625 13.226562 7.222656 L 13.226562 9.480469 C 13.90625 8.699219 15.53125 7.515625 16.558594 7.292969 C 17.589844 7.070312 18.78125 7.046875 19.660156 7.613281 C 20.867188 8.386719 22.21875 10.324219 23.925781 11.085938 C 25.101562 11.609375 26.445312 11.75 27.707031 11.476562 C 28.96875 11.203125 29.933594 10.519531 30.769531 9.5625 L 30.769531 7.308594 C 30.085938 8.089844 28.503906 9.089844 27.472656 9.3125 C 26.445312 9.535156 25.332031 9.421875 24.371094 8.992188 C 22.964844 8.367188 21.46875 6.574219 19.976562 5.582031 C 19.308594 5.136719 18.441406 5.078125 17.636719 5.054688 C 17.578125 5.054688 17.515625 5.054688 17.457031 5.054688 Z M 17.457031 5.054688 "/>
</g>
</svg>
