<?xml version="1.0" encoding="UTF-8"?>
<svg xmlns="http://www.w3.org/2000/svg" xmlns:xlink="http://www.w3.org/1999/xlink" width="35px" height="35px" viewBox="0 0 35 17" version="1.1">
<g id="surface2">
<path style=" stroke:none;fill-rule:nonzero;fill:rgb(0%,0%,0%);fill-opacity:1;" d="M 2.625 0 L 32.375 0 C 33.824219 0 35 1.140625 35 2.550781 L 35 14.449219 C 35 15.859375 33.824219 17 32.375 17 L 2.625 17 C 1.175781 17 0 15.859375 0 14.449219 L 0 2.550781 C 0 1.140625 1.175781 0 2.625 0 Z M 2.625 0 "/>
<path style=" stroke:none;fill-rule:nonzero;fill:rgb(100%,100%,100%);fill-opacity:1;" d="M 2.625 0.566406 L 32.375 0.566406 C 33.503906 0.566406 34.417969 1.453125 34.417969 2.550781 L 34.417969 14.449219 C 34.417969 15.546875 33.503906 16.433594 32.375 16.433594 L 2.625 16.433594 C 1.496094 16.433594 0.582031 15.546875 0.582031 14.449219 L 0.582031 2.550781 C 0.582031 1.453125 1.496094 0.566406 2.625 0.566406 Z M 2.625 0.566406 "/>
<path style=" stroke:none;fill-rule:nonzero;fill:rgb(0%,0%,0%);fill-opacity:1;" d="M 4.480469 7.476562 L 4.714844 7.773438 L 5.25 7.449219 L 5.25 10.453125 L 5.949219 10.453125 L 5.949219 6.578125 L 5.351562 6.578125 Z M 4.480469 7.476562 "/>
<path style=" stroke:none;fill-rule:nonzero;fill:rgb(0%,0%,0%);fill-opacity:1;" d="M 7.921875 6.527344 C 7.515625 6.539062 7.191406 6.722656 6.949219 7.085938 C 6.707031 7.449219 6.582031 7.925781 6.574219 8.515625 C 6.582031 9.109375 6.707031 9.585938 6.949219 9.945312 C 7.191406 10.308594 7.515625 10.492188 7.921875 10.503906 C 8.328125 10.492188 8.652344 10.308594 8.894531 9.945312 C 9.136719 9.585938 9.261719 9.109375 9.269531 8.515625 C 9.261719 7.953125 9.136719 7.480469 8.894531 7.109375 C 8.652344 6.734375 8.328125 6.542969 7.921875 6.527344 Z M 7.921875 7.128906 C 8.117188 7.128906 8.273438 7.238281 8.390625 7.460938 C 8.507812 7.683594 8.566406 8.035156 8.570312 8.515625 C 8.566406 8.996094 8.507812 9.351562 8.390625 9.570312 C 8.273438 9.792969 8.117188 9.902344 7.921875 9.902344 C 7.726562 9.902344 7.570312 9.792969 7.453125 9.570312 C 7.335938 9.351562 7.277344 8.996094 7.273438 8.515625 C 7.277344 8.035156 7.335938 7.683594 7.453125 7.460938 C 7.570312 7.238281 7.726562 7.128906 7.921875 7.128906 Z M 7.921875 7.128906 "/>
<path style=" stroke:none;fill-rule:nonzero;fill:rgb(0%,0%,0%);fill-opacity:1;" d="M 11.628906 7.105469 L 11.945312 7.503906 L 12.660156 7.066406 L 12.660156 11.101562 L 13.597656 11.101562 L 13.597656 5.898438 L 12.796875 5.898438 Z M 11.628906 7.105469 "/>
<path style=" stroke:none;fill-rule:nonzero;fill:rgb(0%,0%,0%);fill-opacity:1;" d="M 17.246094 6.742188 L 17.511719 5.898438 L 14.429688 5.898438 L 14.429688 8.433594 L 15.035156 8.761719 C 15.101562 8.714844 15.199219 8.640625 15.335938 8.539062 C 15.46875 8.4375 15.636719 8.382812 15.835938 8.371094 C 16.140625 8.382812 16.371094 8.488281 16.53125 8.6875 C 16.691406 8.886719 16.773438 9.105469 16.773438 9.347656 C 16.757812 9.671875 16.625 9.914062 16.375 10.078125 C 16.121094 10.242188 15.855469 10.320312 15.570312 10.320312 C 15.34375 10.324219 15.117188 10.308594 14.890625 10.273438 C 14.664062 10.238281 14.464844 10.167969 14.296875 10.0625 L 14.429688 10.90625 C 14.445312 10.917969 14.582031 10.960938 14.839844 11.039062 C 15.097656 11.113281 15.386719 11.15625 15.703125 11.167969 C 16.347656 11.15625 16.851562 10.96875 17.21875 10.613281 C 17.585938 10.261719 17.773438 9.816406 17.78125 9.28125 C 17.757812 8.757812 17.582031 8.355469 17.253906 8.078125 C 16.921875 7.796875 16.5625 7.65625 16.171875 7.652344 C 16.015625 7.652344 15.855469 7.671875 15.699219 7.71875 C 15.539062 7.765625 15.40625 7.851562 15.300781 7.980469 L 15.300781 6.742188 Z M 17.246094 6.742188 "/>
<path style=" stroke:none;fill-rule:nonzero;fill:rgb(0%,0%,0%);fill-opacity:1;" d="M 20.734375 6.1875 L 21.390625 6.90625 C 21.597656 6.699219 21.804688 6.507812 22.019531 6.339844 C 22.230469 6.171875 22.460938 6.085938 22.703125 6.074219 C 22.996094 6.085938 23.226562 6.171875 23.394531 6.339844 C 23.5625 6.507812 23.652344 6.699219 23.652344 6.90625 C 23.648438 7.214844 23.585938 7.472656 23.457031 7.679688 C 23.332031 7.886719 23.164062 8.101562 22.960938 8.316406 C 22.597656 8.742188 22.21875 9.152344 21.828125 9.546875 C 21.4375 9.941406 21.019531 10.335938 20.570312 10.730469 L 20.570312 11.6875 L 24.507812 11.6875 C 24.589844 11.484375 24.652344 11.292969 24.695312 11.109375 C 24.734375 10.925781 24.753906 10.773438 24.753906 10.652344 L 22.046875 10.652344 C 22.472656 10.222656 22.871094 9.828125 23.238281 9.46875 C 23.605469 9.109375 23.917969 8.769531 24.179688 8.453125 C 24.390625 8.21875 24.539062 8 24.625 7.792969 C 24.714844 7.582031 24.757812 7.289062 24.753906 6.90625 C 24.734375 6.417969 24.53125 6.019531 24.152344 5.710938 C 23.769531 5.402344 23.34375 5.242188 22.867188 5.234375 C 22.378906 5.238281 21.964844 5.328125 21.617188 5.507812 C 21.273438 5.683594 20.980469 5.910156 20.734375 6.1875 Z M 20.734375 6.1875 "/>
<path style=" stroke:none;fill-rule:nonzero;fill:rgb(0%,0%,0%);fill-opacity:1;" d="M 27.929688 5.234375 C 27.265625 5.25 26.730469 5.554688 26.332031 6.148438 C 25.929688 6.742188 25.726562 7.527344 25.714844 8.5 C 25.726562 9.472656 25.929688 10.257812 26.332031 10.851562 C 26.730469 11.445312 27.265625 11.75 27.929688 11.765625 C 28.597656 11.75 29.128906 11.445312 29.53125 10.851562 C 29.929688 10.257812 30.136719 9.472656 30.144531 8.5 C 30.136719 7.570312 29.929688 6.800781 29.53125 6.1875 C 29.128906 5.574219 28.597656 5.253906 27.929688 5.234375 Z M 27.929688 6.222656 C 28.25 6.21875 28.507812 6.398438 28.699219 6.765625 C 28.894531 7.128906 28.992188 7.707031 28.996094 8.5 C 28.992188 9.292969 28.894531 9.871094 28.699219 10.234375 C 28.507812 10.601562 28.25 10.78125 27.929688 10.777344 C 27.609375 10.78125 27.351562 10.601562 27.160156 10.234375 C 26.96875 9.871094 26.867188 9.292969 26.863281 8.5 C 26.867188 7.707031 26.96875 7.128906 27.160156 6.765625 C 27.351562 6.398438 27.609375 6.21875 27.929688 6.222656 Z M 27.929688 6.222656 "/>
<path style=" stroke:none;fill-rule:nonzero;fill:rgb(0%,0%,0%);fill-opacity:1;" d="M 25.222656 2.125 C 22.460938 2.125 20.09375 3.75 19.078125 6.074219 C 18.171875 4.539062 16.472656 3.507812 14.519531 3.507812 C 12.726562 3.507812 11.140625 4.382812 10.195312 5.714844 C 9.382812 4.832031 8.203125 4.277344 6.890625 4.277344 C 4.445312 4.277344 2.460938 6.203125 2.460938 8.578125 C 2.460938 10.957031 4.445312 12.882812 6.890625 12.882812 C 8.191406 12.882812 9.363281 12.335938 10.171875 11.46875 C 11.117188 12.820312 12.710938 13.707031 14.519531 13.707031 C 16.472656 13.707031 18.171875 12.671875 19.078125 11.136719 C 20.09375 13.460938 22.460938 15.085938 25.222656 15.085938 C 28.90625 15.085938 31.894531 12.1875 31.894531 8.605469 C 31.894531 5.027344 28.90625 2.125 25.222656 2.125 Z M 25.15625 2.335938 C 28.660156 2.335938 31.5 5.097656 31.5 8.5 C 31.5 11.902344 28.660156 14.664062 25.15625 14.664062 C 22.488281 14.664062 20.199219 13.058594 19.265625 10.792969 C 19.265625 10.789062 19.265625 10.789062 19.265625 10.789062 C 19.585938 10.128906 19.769531 9.386719 19.769531 8.605469 C 19.769531 7.785156 19.570312 7.011719 19.21875 6.328125 C 20.121094 3.996094 22.441406 2.335938 25.15625 2.335938 Z M 14.328125 3.679688 C 14.371094 3.679688 14.414062 3.679688 14.457031 3.679688 C 17.203125 3.679688 19.425781 5.839844 19.425781 8.507812 C 19.425781 11.171875 17.203125 13.335938 14.457031 13.335938 C 12.761719 13.335938 11.261719 12.511719 10.363281 11.25 C 10.960938 10.515625 11.320312 9.585938 11.320312 8.578125 C 11.320312 7.542969 10.941406 6.589844 10.308594 5.84375 C 11.179688 4.570312 12.652344 3.722656 14.328125 3.679688 Z M 6.78125 4.460938 C 9.078125 4.460938 10.9375 6.269531 10.9375 8.5 C 10.9375 10.730469 9.078125 12.539062 6.78125 12.539062 C 4.484375 12.539062 2.625 10.730469 2.625 8.5 C 2.625 6.269531 4.484375 4.460938 6.78125 4.460938 Z M 6.78125 4.460938 "/>
</g>
</svg>
