<?xml version="1.0" encoding="UTF-8"?>
<svg xmlns="http://www.w3.org/2000/svg" xmlns:xlink="http://www.w3.org/1999/xlink" width="35px" height="35px" viewBox="0 0 35 17" version="1.1">
<g id="surface1">
<path style=" stroke:none;fill-rule:nonzero;fill:rgb(0%,0%,0%);fill-opacity:1;" d="M 2.625 0 L 32.375 0 C 33.824219 0 35 1.140625 35 2.550781 L 35 14.449219 C 35 15.859375 33.824219 17 32.375 17 L 2.625 17 C 1.175781 17 0 15.859375 0 14.449219 L 0 2.550781 C 0 1.140625 1.175781 0 2.625 0 Z M 2.625 0 "/>
<path style=" stroke:none;fill-rule:nonzero;fill:rgb(100%,100%,100%);fill-opacity:1;" d="M 2.625 0.566406 L 32.375 0.566406 C 33.503906 0.566406 34.417969 1.453125 34.417969 2.550781 L 34.417969 14.449219 C 34.417969 15.546875 33.503906 16.433594 32.375 16.433594 L 2.625 16.433594 C 1.496094 16.433594 0.582031 15.546875 0.582031 14.449219 L 0.582031 2.550781 C 0.582031 1.453125 1.496094 0.566406 2.625 0.566406 Z M 2.625 0.566406 "/>
<path style=" stroke:none;fill-rule:nonzero;fill:rgb(0%,0%,0%);fill-opacity:1;" d="M 5.042969 4.792969 L 5.527344 5.847656 C 5.777344 5.632812 6.023438 5.480469 6.261719 5.382812 C 6.5 5.285156 6.796875 5.238281 7.152344 5.238281 C 7.390625 5.246094 7.597656 5.320312 7.78125 5.472656 C 7.960938 5.621094 8.058594 5.8125 8.066406 6.039062 C 8.054688 6.316406 7.894531 6.585938 7.585938 6.839844 C 7.277344 7.097656 6.886719 7.273438 6.417969 7.375 L 6.417969 8.355469 C 6.511719 8.3125 6.613281 8.285156 6.722656 8.277344 C 6.835938 8.265625 6.945312 8.261719 7.058594 8.265625 C 7.632812 8.289062 8 8.425781 8.152344 8.671875 C 8.308594 8.917969 8.375 9.132812 8.355469 9.308594 C 8.335938 9.71875 8.175781 10.019531 7.875 10.210938 C 7.574219 10.398438 7.210938 10.492188 6.785156 10.492188 C 6.472656 10.492188 6.144531 10.464844 5.800781 10.402344 C 5.460938 10.34375 5.171875 10.242188 4.9375 10.097656 L 5.09375 11.34375 C 5.128906 11.355469 5.347656 11.40625 5.757812 11.496094 C 6.164062 11.585938 6.570312 11.636719 6.96875 11.648438 C 7.839844 11.617188 8.507812 11.367188 8.96875 10.890625 C 9.429688 10.417969 9.660156 9.898438 9.664062 9.332031 C 9.652344 8.949219 9.53125 8.628906 9.304688 8.378906 C 9.078125 8.125 8.828125 7.929688 8.550781 7.796875 C 8.273438 7.664062 8.050781 7.582031 7.882812 7.554688 C 8.265625 7.5 8.601562 7.316406 8.890625 6.996094 C 9.183594 6.679688 9.335938 6.269531 9.351562 5.773438 C 9.324219 5.277344 9.113281 4.886719 8.710938 4.597656 C 8.3125 4.3125 7.867188 4.164062 7.386719 4.15625 C 6.996094 4.167969 6.570312 4.238281 6.113281 4.375 C 5.652344 4.511719 5.296875 4.648438 5.042969 4.792969 Z M 5.042969 4.792969 "/>
<path style=" stroke:none;fill-rule:nonzero;fill:rgb(0%,0%,0%);fill-opacity:1;" d="M 13.363281 4.257812 C 12.617188 4.277344 12.023438 4.621094 11.574219 5.285156 C 11.128906 5.945312 10.898438 6.824219 10.886719 7.910156 C 10.898438 8.996094 11.128906 9.871094 11.574219 10.535156 C 12.023438 11.199219 12.617188 11.539062 13.363281 11.558594 C 14.105469 11.539062 14.703125 11.199219 15.148438 10.535156 C 15.597656 9.871094 15.824219 8.996094 15.835938 7.910156 C 15.824219 6.871094 15.597656 6.011719 15.148438 5.328125 C 14.703125 4.640625 14.105469 4.285156 13.363281 4.257812 Z M 13.363281 5.367188 C 13.722656 5.359375 14.007812 5.5625 14.222656 5.96875 C 14.4375 6.378906 14.546875 7.023438 14.554688 7.910156 C 14.546875 8.792969 14.4375 9.441406 14.222656 9.847656 C 14.007812 10.257812 13.722656 10.457031 13.363281 10.453125 C 13.003906 10.457031 12.71875 10.257812 12.503906 9.847656 C 12.285156 9.441406 12.175781 8.792969 12.171875 7.910156 C 12.175781 7.023438 12.285156 6.378906 12.503906 5.96875 C 12.71875 5.5625 13.003906 5.359375 13.363281 5.367188 Z M 13.363281 5.367188 "/>
<path style=" stroke:none;fill-rule:nonzero;fill:rgb(0%,0%,0%);fill-opacity:1;" d="M 18.210938 11.472656 L 18.984375 11.472656 L 19.175781 9.03125 L 20.207031 11.035156 L 21.238281 9.03125 L 21.433594 11.472656 L 22.207031 11.472656 L 21.882812 7.96875 L 21.109375 7.96875 L 20.207031 9.722656 L 19.304688 7.96875 L 18.53125 7.96875 Z M 18.210938 11.472656 "/>
<path style=" stroke:none;fill-rule:nonzero;fill:rgb(0%,0%,0%);fill-opacity:1;" d="M 23.300781 7.96875 L 23.300781 11.472656 L 24.140625 11.476562 L 25.621094 9.09375 L 25.621094 11.472656 L 26.394531 11.472656 L 26.394531 7.96875 L 25.558594 7.96875 L 24.074219 10.347656 L 24.074219 7.96875 Z M 23.300781 7.96875 "/>
<path style=" stroke:none;fill-rule:nonzero;fill:rgb(0%,0%,0%);fill-opacity:1;" d="M 27.621094 7.96875 L 27.621094 11.472656 L 28.394531 11.472656 L 28.394531 9.972656 L 29.746094 9.972656 L 29.746094 11.472656 L 30.519531 11.472656 L 30.519531 7.96875 L 29.746094 7.96875 L 29.746094 9.28125 L 28.394531 9.28125 L 28.394531 7.96875 Z M 27.621094 7.96875 "/>
</g>
</svg>
