<?xml version="1.0" encoding="UTF-8" standalone="no"?>
<!-- Created with Inkscape (http://www.inkscape.org/) -->

<svg
   xmlns:dc="http://purl.org/dc/elements/1.1/"
   xmlns:cc="http://creativecommons.org/ns#"
   xmlns:rdf="http://www.w3.org/1999/02/22-rdf-syntax-ns#"
   xmlns:svg="http://www.w3.org/2000/svg"
   xmlns="http://www.w3.org/2000/svg"
   xmlns:sodipodi="http://sodipodi.sourceforge.net/DTD/sodipodi-0.dtd"
   xmlns:inkscape="http://www.inkscape.org/namespaces/inkscape"
   width="900"
   height="1350"
   id="svg2"
   version="1.1"
   inkscape:version="0.92.4 (5da689c313, 2019-01-14)"
   sodipodi:docname="1.36_Belarusian_road_sign.svg">
  <title
     id="title3002">1.36 Контроль режима движения</title>
  <defs
     id="defs4" />
  <sodipodi:namedview
     id="base"
     pagecolor="#ffffff"
     bordercolor="#666666"
     borderopacity="1.0"
     inkscape:pageopacity="0.0"
     inkscape:pageshadow="2"
     inkscape:zoom="0.42814815"
     inkscape:cx="70.458478"
     inkscape:cy="675"
     inkscape:document-units="px"
     inkscape:current-layer="layer1"
     showgrid="true"
     inkscape:window-width="1304"
     inkscape:window-height="745"
     inkscape:window-x="-8"
     inkscape:window-y="-8"
     inkscape:window-maximized="1"
     inkscape:snap-bbox="false"
     inkscape:bbox-paths="true"
     inkscape:bbox-nodes="true"
     inkscape:snap-bbox-edge-midpoints="true"
     inkscape:snap-bbox-midpoints="true"
     showguides="true"
     inkscape:guide-bbox="true">
    <inkscape:grid
       type="xygrid"
       id="grid705" />
    <sodipodi:guide
       position="450,1220"
       orientation="1,0"
       id="guide707"
       inkscape:locked="false" />
  </sodipodi:namedview>
  <metadata
     id="metadata7">
    <rdf:RDF>
      <cc:Work
         rdf:about="">
        <dc:format>image/svg+xml</dc:format>
        <dc:type
           rdf:resource="http://purl.org/dc/dcmitype/StillImage" />
        <dc:title>1.36 Контроль режима движения</dc:title>
        <cc:license
           rdf:resource="http://creativecommons.org/licenses/by-sa/3.0/" />
        <dc:description>ГОСТ Р 52290-2004
Размеры и пропорции по типоразмеру III</dc:description>
      </cc:Work>
      <cc:License
         rdf:about="http://creativecommons.org/licenses/by-sa/3.0/">
        <cc:permits
           rdf:resource="http://creativecommons.org/ns#Reproduction" />
        <cc:permits
           rdf:resource="http://creativecommons.org/ns#Distribution" />
        <cc:requires
           rdf:resource="http://creativecommons.org/ns#Notice" />
        <cc:requires
           rdf:resource="http://creativecommons.org/ns#Attribution" />
        <cc:permits
           rdf:resource="http://creativecommons.org/ns#DerivativeWorks" />
        <cc:requires
           rdf:resource="http://creativecommons.org/ns#ShareAlike" />
      </cc:License>
    </rdf:RDF>
  </metadata>
  <g
     inkscape:label="Layer 1"
     inkscape:groupmode="layer"
     id="layer1"
     transform="translate(0,297.63782)">
    <rect
       style="color:#000000;fill:#ffffff;fill-opacity:1;fill-rule:nonzero;stroke:none;stroke-width:3.54299997999999980;marker:none;visibility:visible;display:inline;overflow:visible;enable-background:accumulate;opacity:1"
       id="rect10858"
       width="900"
       height="1350"
       x="0"
       y="-297.63782"
       rx="45"
       ry="45" />
    <path
       style="color:#000000;fill:#fc0;fill-opacity:1;fill-rule:nonzero;stroke:black;stroke-width:8;marker:none;visibility:visible;display:inline;overflow:visible;enable-background:accumulate;stroke-opacity:1;stroke-miterlimit:4;stroke-dasharray:none"
       d="M 45,20 C 31.15,20 20,31.15 20,45 V 1305 C 20,1318.85 31.15,1330 45,1330 H 855 C 868.85,1330 880,1318.85 880,1305 V 45 C 880,31.15 868.85,20 855,20 Z"
       transform="translate(0,-297.63782)"
       id="path699" />
    <rect
       rx="44"
       y="-296.63782"
       x="0.99999994"
       height="1348"
       width="898"
       id="rect10868"
       style="color:#000000;fill:none;stroke:#000000;stroke-width:2;stroke-miterlimit:4;stroke-opacity:1;stroke-dasharray:none;marker:none;visibility:visible;display:inline;overflow:visible;enable-background:accumulate;opacity:1"
       ry="44" />
    <g
       aria-label="RADAR"
       style="font-style:normal;font-variant:normal;font-weight:normal;font-stretch:normal;font-size:208.72515869px;line-height:1.25;font-family:'Russian Road Sign';-inkscape-font-specification:'Russian Road Sign';letter-spacing:0px;word-spacing:0px;fill:black;fill-opacity:1;stroke:none;stroke-width:1.08711016"
       id="text703">
      <path
         d="M 150.46147,-196.76391 H 189.91053 Q 200.13806,-196.76391 207.65217,-193.42431 215.375,-190.29343 219.13205,-185.0753 223.09783,-179.85717 224.76763,-174.63904 226.43743,-169.62964 226.43743,-164.62024 226.43743,-153.34908 220.17568,-145.41752 214.12265,-137.48597 204.52129,-133.93764 210.99177,-132.47656 216.62735,-124.33628 222.26293,-116.40473 225.60253,-107.42954 229.15086,-98.454362 233.53409,-90.105356 238.12604,-81.756349 242.50927,-79.877823 H 217.67098 Q 215.16627,-83.217425 210.57432,-94.071134 205.98237,-104.92484 203.89511,-108.89062 203.47766,-109.5168 202.85149,-110.97787 200.76424,-115.15237 199.30316,-117.23963 198.05081,-119.32688 195.75483,-121.83158 193.45886,-124.54501 190.11925,-125.58863 186.98838,-126.63226 182.60515,-126.63226 H 170.91654 V -79.877823 H 150.46147 Z M 170.91654,-179.231 V -144.16517 H 184.06622 Q 193.66758,-144.16517 199.72061,-148.5484 205.98237,-152.93163 205.98237,-161.69809 205.98237,-170.46454 199.72061,-174.84777 193.66758,-179.231 184.06622,-179.231 Z"
         style="stroke-width:1.08711016"
         id="path715" />
      <path
         d="M 308.09788,-120.78795 H 337.31941 L 322.70864,-170.46454 Z M 311.02004,-196.76391 H 334.39725 L 372.38523,-79.877823 H 350.46909 L 343.16371,-103.25504 H 302.25358 L 294.9482,-79.877823 H 273.03206 Z"
         style="stroke-width:1.08711016"
         id="path717" />
      <path
         d="M 445.27923,-196.76391 Q 468.86517,-196.76391 482.22358,-180.48335 495.79071,-164.20279 495.79071,-138.32087 495.79071,-112.43895 482.22358,-96.158385 468.86517,-79.877823 445.27923,-79.877823 H 405.83017 V -196.76391 Z M 443.81815,-179.231 H 426.28524 V -97.410736 H 443.81815 Q 456.75911,-97.410736 465.52557,-107.84699 474.50075,-118.49198 474.50075,-138.32087 474.50075,-158.14976 465.52557,-168.58602 456.75911,-179.231 443.81815,-179.231 Z"
         style="stroke-width:1.08711016"
         id="path719" />
      <path
         d="M 559.22035,-120.78795 H 588.44187 L 573.83111,-170.46454 Z M 562.1425,-196.76391 H 585.51972 L 623.5077,-79.877823 H 601.59156 L 594.28618,-103.25504 H 553.37605 L 546.07066,-79.877823 H 524.15452 Z"
         style="stroke-width:1.08711016"
         id="path721" />
      <path
         d="M 658.41368,-196.76391 H 697.86274 Q 708.09027,-196.76391 715.60438,-193.42431 723.32721,-190.29343 727.08426,-185.0753 731.05004,-179.85717 732.71984,-174.63904 734.38964,-169.62964 734.38964,-164.62024 734.38964,-153.34908 728.12789,-145.41752 722.07486,-137.48597 712.4735,-133.93764 718.94398,-132.47656 724.57956,-124.33628 730.21514,-116.40473 733.55474,-107.42954 737.10307,-98.454362 741.4863,-90.105356 746.07825,-81.756349 750.46148,-79.877823 H 725.62318 Q 723.11848,-83.217425 718.52653,-94.071134 713.93458,-104.92484 711.84732,-108.89062 711.42987,-109.5168 710.8037,-110.97787 708.71645,-115.15237 707.25537,-117.23963 706.00302,-119.32688 703.70704,-121.83158 701.41107,-124.54501 698.07146,-125.58863 694.94059,-126.63226 690.55736,-126.63226 H 678.86875 V -79.877823 H 658.41368 Z M 678.86875,-179.231 V -144.16517 H 692.01843 Q 701.61979,-144.16517 707.67282,-148.5484 713.93458,-152.93163 713.93458,-161.69809 713.93458,-170.46454 707.67282,-174.84777 701.61979,-179.231 692.01843,-179.231 Z"
         style="stroke-width:1.08711016"
         id="path723" />
    </g>
    <g
       aria-label="ФОТА
КАНТРОЛЬ"
       style="font-style:normal;font-variant:normal;font-weight:normal;font-stretch:normal;font-size:174.14299011px;line-height:1.25;font-family:'Russian Road Sign';-inkscape-font-specification:'Russian Road Sign';text-align:center;letter-spacing:0px;word-spacing:0px;text-anchor:middle;fill:black;fill-opacity:1;stroke:none;stroke-width:0.9069947"
       id="text711">
      <path
         style="font-style:normal;font-variant:normal;font-weight:normal;font-stretch:normal;font-size:167.44517517px;line-height:1.25;font-family:'Russian Road Sign';-inkscape-font-specification:'Russian Road Sign';letter-spacing:0px;word-spacing:0px;fill:black;fill-opacity:1;stroke:none;stroke-width:0.79099947"
         d="M 139.23438,883.9707 C 124.60265,885.3739 115.65375,898.76002 108.35742,909.92578 104.58067,914.88718 100.22097,921.17518 93.410156,921.62891 93.410156,909.85286 93.410156,898.07682 93.410156,886.30078 86.606771,886.30078 79.803385,886.30078 73,886.30078 73,918.89063 73,951.48047 73,984.07031 79.803385,984.07031 86.606771,984.07031 93.410156,984.07031 93.410156,969.73568 93.410156,955.40104 93.410156,941.06641 100.31194,938.99767 107.1298,942.63575 110.33594,948.72852 116.93634,960.61742 124.19582,972.1385 130.71875,984.07031 139.83594,984.07031 148.95312,984.07031 158.07031,984.07031 140.79834,972.37133 136.49979,950.04481 123.32812,934.70898 121.17763,932.69996 118.63804,930.73836 116.02148,929.64062 124.08609,922.88248 128.34082,912.54964 136.38672,905.92773 139.05352,904.18311 142.40399,904.41623 145.44336,904.31055 143.97669,897.46012 142.50852,890.61001 141.04102,883.75977 L 140.04776,883.87573 Z M 591.70117,883.9707 C 577.61164,883.67613 564.36342,892.5638 558.82031,905.43945 550.96124,922.63084 550.77198,943.09447 557.02344,960.8125 561.63617,974.2284 573.6287,985.37899 588.19727,986.19141 602.35887,988.07605 617.62838,981.82435 624.59659,968.96779 634.64623,951.90671 635.23051,930.31966 629.45508,911.71875 625.10173,897.96399 613.71743,885.53695 598.69336,884.31055 596.37585,884.01887 594.03571,883.91885 591.70117,883.9707 Z M 199.66797,887.68359 C 189.22561,919.8124 178.78564,951.94199 168.3418,984.07031 175.61068,984.07031 182.87956,984.07031 190.14844,984.07031 192.09874,977.81833 194.05374,971.56782 196.00586,965.31641 205.9668,965.31641 215.92773,965.31641 225.88867,965.31641 227.84074,971.56783 229.79586,977.81831 231.74609,984.07031 239.01497,984.07031 246.28385,984.07031 253.55273,984.07031 242.95921,951.48103 232.36909,918.89064 221.77734,886.30078 214.55729,886.30078 207.33724,886.30078 200.11719,886.30078 L 199.80822,887.25185 Z M 275.62891,888.30078 C 275.62891,920.22396 275.62891,952.14714 275.62891,984.07031 282.43229,984.07031 289.23568,984.07031 296.03906,984.07031 296.03906,970.00521 296.03906,955.9401 296.03906,941.875 306.42708,941.875 316.8151,941.875 327.20312,941.875 327.20313,955.9401 327.20312,970.00521 327.20312,984.07031 334.00651,984.07031 340.8099,984.07031 347.61328,984.07031 347.61328,951.48047 347.61328,918.89063 347.61328,886.30078 340.8099,886.30078 334.00651,886.30078 327.20312,886.30078 327.20312,898.80339 327.20313,911.30599 327.20312,923.80859 316.8151,923.80859 306.42708,923.80859 296.03906,923.80859 296.03906,911.30599 296.03906,898.80339 296.03906,886.30078 289.23568,886.30078 282.43229,886.30078 275.62891,886.30078 V 887.30078 Z M 369.38086,888.30078 C 370.55385,893.14993 366.92785,902.79806 371.38086,904.36719 379.3099,904.36719 387.23893,904.36719 395.16797,904.36719 395.16797,930.9349 395.16797,957.5026 395.16797,984.07031 401.9707,984.07031 408.77344,984.07031 415.57617,984.07031 415.57617,957.5026 415.57617,930.9349 415.57617,904.36719 424.17188,904.36719 432.76758,904.36719 441.36328,904.36719 441.36328,898.34505 441.36328,892.32292 441.36328,886.30078 417.36914,886.30078 393.375,886.30078 369.38086,886.30078 V 887.30078 Z M 463.02344,888.30078 C 463.02344,920.22396 463.02344,952.14714 463.02344,984.07031 469.82682,984.07031 476.63021,984.07031 483.43359,984.07031 483.43359,973.13086 483.43359,962.19141 483.43359,951.25195 495.55282,951.63186 509.66801,952.35737 518.99805,943.02148 534.48687,929.32401 531.98959,900.41028 513.39258,890.53711 500.74574,883.2384 485.45081,887.43515 471.67188,886.30078 469.22293,887.17203 462.2276,884.31439 463.02344,888.30078 Z M 668.21875,888.29883 C 667.77141,909.80998 669.0177,931.50421 666.68945,952.86523 664.3328,960.80638 656.45319,965.38795 648.85352,967.23047 649.95635,973.69097 651.05452,980.15226 652.1543,986.61328 662.87452,985.96469 673.21814,979.8594 679.64844,971.36523 690.62436,955.67291 687.59812,935.48484 688.5618,917.49807 690.066,913.57652 685.48961,903.60736 691.62305,904.36719 697.88672,904.36719 704.15039,904.36719 710.41406,904.36719 710.41406,930.9349 710.41406,957.5026 710.41406,984.07031 717.21745,984.07031 724.02083,984.07031 730.82422,984.07031 730.82422,951.48047 730.82422,918.89063 730.82422,886.30078 709.95638,886.30078 689.08854,886.30078 668.2207,886.30078 L 668.21973,887.30078 Z M 757.36133,888.30078 C 757.36133,920.22396 757.36133,952.14714 757.36133,984.07031 772.41095,983.34635 787.7063,985.50403 802.62305,983.05664 823.60024,979.01361 834.1068,950.74222 821.51953,933.71484 813.76845,922.14017 798.08924,922.14396 785.69727,922.63672 776.73264,925.29275 777.15564,918.56115 777.77148,911.63672 777.77148,903.19141 777.77148,894.74609 777.77148,886.30078 770.9681,886.30078 764.16471,886.30078 757.36133,886.30078 V 887.30078 Z M 593.44922,903.20508 C 605.83533,903.56796 611.94155,917.3457 612.77539,928.04883 613.98626,941.19032 612.71733,958.26995 599.96094,965.60742 590.91843,970.2665 579.97458,964.41058 576.48828,955.40039 570.99797,942.19037 570.91627,926.07311 577.41992,913.20117 580.56931,907.33246 586.52225,902.74539 593.44922,903.20508 Z M 491.95117,904.36719 C 501.2213,903.64398 511.04011,911.41541 508.56445,921.42188 507.21505,932.64726 493.92278,934.06807 484.95117,933.18555 481.43698,930.52721 484.42445,921.36722 483.43359,916.18555 483.49648,909.97565 481.28181,901.48819 490.43359,904.36719 H 491.43359 Z M 219.99609,947.25195 C 213.96354,947.25195 207.93099,947.25195 201.89844,947.25195 204.91471,936.99674 207.93099,926.74154 210.94727,916.48633 213.96354,926.74154 216.97982,936.99674 219.99609,947.25195 Z M 792.14844,940.70312 C 801.05997,939.6812 808.60358,948.1528 806.35938,956.9082 804.94327,966.92133 792.70463,966.33487 785.1543,966.00586 776.21206,968.8205 777.44721,961.45774 777.77148,955.00586 779.2816,950.41506 774.07601,939.10856 781.77148,940.70312 785.23047,940.70312 788.68945,940.70312 792.14844,940.70312 Z"
         id="text831"
         inkscape:connector-curvature="0" />
      <path
         style="font-style:normal;font-variant:normal;font-weight:normal;font-stretch:normal;font-size:170.06802368px;line-height:1.25;font-family:'Russian Road Sign';-inkscape-font-specification:'Russian Road Sign';letter-spacing:0px;word-spacing:0px;fill:black;fill-opacity:1;stroke:none;stroke-width:3.85627007"
         d="M 410.26562,733.74609 C 395.96157,733.43422 382.51865,742.45711 376.89844,755.5293 368.9243,772.98496 368.72467,793.75989 375.07617,811.74805 379.74927,825.35441 391.90167,836.67687 406.68164,837.50195 420.69498,839.33182 435.90569,833.4726 443.10938,820.88672 453.69208,803.81863 454.42596,781.95434 448.95703,763.03125 444.78047,749.03513 433.72218,735.96679 418.50195,734.24805 415.77917,733.82982 413.01825,733.68566 410.26562,733.74609 Z M 291.73633,738.11328 C 290.81135,741.07755 294.12787,748.00822 289.01172,747.00195 270.2592,747.49006 252.49426,762.64368 251.35938,781.77344 249.36387,800.74736 264.37405,819.05557 283.20312,821.39453 286.02093,821.88939 288.87766,822.1471 291.73633,822.22656 292.83014,827.17442 288.38824,837.65798 296.73633,835.35156 301.52149,833.91472 312.38734,838.55857 312.40234,832.35156 313.57613,829.12687 309.58848,821.04104 315.25391,822.08594 331.26048,821.68575 346.82799,811.17692 351.31836,795.49023 356.93695,778.40332 347.72799,758.69952 331.58008,751.20117 325.62172,748.31403 318.9884,747.05089 312.40234,746.85938 313.14143,739.87159 313.20751,733.55681 304.40234,736.11328 300.88624,737.1815 291.87605,733.81997 291.73633,738.11328 Z M 470.15625,738.11328 C 471.32525,743.03934 467.7108,752.74884 472.15625,754.39844 480.2194,754.39844 488.28255,754.39844 496.3457,754.39844 496.3457,781.38281 496.3457,808.36719 496.3457,835.35156 503.23503,835.35156 510.12435,835.35156 517.01367,835.35156 517.01367,808.36719 517.01367,781.38281 517.01367,754.39844 525.74349,754.39844 534.47331,754.39844 543.20312,754.39844 543.20313,748.30339 543.20313,742.20833 543.20312,736.11328 518.85417,736.11328 494.50521,736.11328 470.15625,736.11328 V 737.11328 Z M 592.74609,737.49414 C 582.14443,770.11325 571.54355,802.73261 560.94141,835.35156 568.30208,835.35156 575.66276,835.35156 583.02344,835.35156 585.00439,829.00129 586.98993,822.65245 588.97266,816.30273 599.10482,816.30273 609.23698,816.30273 619.36914,816.30273 621.35245,822.65247 623.33902,829.00119 625.32031,835.35156 632.68099,835.35156 640.04167,835.35156 647.40234,835.35156 636.65033,802.27237 625.90062,769.19242 615.14844,736.11328 607.83073,736.11328 600.51302,736.11328 593.19531,736.11328 L 592.88595,737.06423 Z M 411.46094,753.20898 C 424.34198,753.11363 430.87366,767.38543 431.70117,778.47852 432.9074,791.9121 431.65407,809.18885 418.66406,816.6582 409.70692,821.26431 398.79669,815.75036 395.08984,806.88867 389.24262,793.74008 389.18521,777.66933 395.11328,764.53125 398.17491,758.26956 404.11564,752.94504 411.46094,753.20898 Z M 291.73633,805.0957 C 279.52812,805.17674 268.40842,793.65299 270.95898,781.26367 272.13593,771.25936 282.04478,764.1873 291.73633,763.98828 291.73633,777.69076 291.73633,791.39323 291.73633,805.0957 Z M 312.89258,764.01562 C 325.47487,764.20019 336.46882,776.79036 332.89258,789.35547 330.93246,798.62497 321.58327,804.8667 312.40234,805.0957 312.7292,791.41828 311.74865,777.64455 312.89258,764.01562 Z M 613.4043,798.01758 C 607.2487,798.01758 601.0931,798.01758 594.9375,798.01758 598.01562,787.55404 601.09375,777.09049 604.17188,766.62695 607.24935,777.09049 610.32682,787.55404 613.4043,798.01758 Z"
         id="text835"
         inkscape:connector-curvature="0" />
    </g>
    <g
       transform="matrix(2.0975464,0,0,2.0975464,-162.46501,-1579.7081)"
       id="g797">
      <path
         id="path21141"
         d="M 364.6875,856.42467 C 323.26614,856.42467 289.6875,890.00331 289.6875,931.42467 289.6875,972.84603 323.26614,1006.4247 364.6875,1006.4247 406.10886,1006.4247 439.6875,972.84603 439.6875,931.42467 439.6875,890.00331 406.10886,856.42467 364.6875,856.42467 Z M 364.6875,871.42467 C 397.82458,871.42467 424.6875,898.28759 424.6875,931.42467 424.6875,964.56175 397.82458,991.4247 364.6875,991.4247 331.55042,991.4247 304.6875,964.56175 304.6875,931.42467 304.6875,898.28759 331.55042,871.42467 364.6875,871.42467 Z"
         style="color:black;display:inline;overflow:visible;visibility:visible;opacity:1;fill:black;fill-opacity:1;fill-rule:nonzero;stroke:none;stroke-width:1px;marker:none;enable-background:accumulate"
         inkscape:connector-curvature="0" />
      <path
         id="path21145"
         d="M 364.6875,880.79967 C 336.72808,880.79967 314.0625,903.46525 314.0625,931.42467 314.0625,959.38409 336.72808,982.04967 364.6875,982.04967 392.64692,982.04967 415.3125,959.38409 415.3125,931.42467 415.3125,903.46525 392.64692,880.79967 364.6875,880.79967 Z M 364.6875,894.86217 C 384.88041,894.86217 401.25,911.23176 401.25,931.42467 401.25,951.61759 384.88041,967.98717 364.6875,967.98717 344.49459,967.98717 328.125,951.61759 328.125,931.42467 328.125,911.23176 344.49459,894.86217 364.6875,894.86217 Z"
         style="color:black;display:inline;overflow:visible;visibility:visible;opacity:1;fill:black;fill-opacity:1;fill-rule:nonzero;stroke:none;stroke-width:1px;marker:none;enable-background:accumulate"
         inkscape:connector-curvature="0" />
      <path
         id="path10271"
         d="M 423.36914,779.78405 C 422.07473,779.78405 421.02539,780.83338 421.02539,782.1278 V 813.76842 L 393.48633,813.9442 C 392.20582,813.9603 391.17187,815.00361 391.17187,816.28795 391.17187,817.22267 391.72802,818.02104 392.51953,818.39733 V 818.42653 C 392.54593,818.43893 392.58043,818.44453 392.60733,818.45583 L 415.22452,828.79762 398.70108,845.23317 C 398.67668,845.25757 398.66568,845.29577 398.64248,845.32097 L 393.74995,842.0692 V 827.36217 H 362.81245 V 844.73522 C 343.61564,845.14481 325.95754,851.78362 311.77729,862.7235 L 151.875,862.04967 C 140.48419,862.00277 131.25,871.28376 131.25,882.67467 V 1009.2372 C 131.25,1016.4859 137.12625,1022.3622 144.375,1022.3622 H 433.125 C 444.51591,1022.3622 453.75,1013.1281 453.75,1001.7372 V 882.05944 L 431.33789,867.11803 C 431.36519,867.07823 431.40099,867.04233 431.42569,867.00084 L 444.31632,845.35045 466.31827,858.09459 C 466.69234,858.34731 467.15122,858.47545 467.63663,858.47545 468.93105,858.47545 469.98038,857.42612 469.98038,856.1317 469.98038,855.81781 469.91658,855.5264 469.8046,855.2528 L 462.59757,837.35241 478.41788,830.29186 C 479.25909,829.93606 479.85343,829.0947 479.85343,828.12389 479.85343,827.03424 479.10304,826.13057 478.09562,825.86803 V 825.83883 L 456.91398,820.56539 465.52726,803.45602 C 465.77997,803.08196 465.93741,802.62307 465.93741,802.13766 465.93741,800.84324 464.88808,799.79391 463.59366,799.79391 463.27006,799.79391 462.96587,799.88031 462.68546,799.99899 V 799.96979 L 440.50773,809.13971 425.50773,781.21979 C 425.47723,781.14779 425.45703,781.08285 425.41993,781.01471 H 425.39063 C 424.99084,780.2941 424.25163,779.78424 423.36915,779.78424 Z M 425.71289,791.5028 437.28516,813.036 C 437.64096,813.87721 438.48232,814.47155 439.45313,814.47155 439.76702,814.47155 440.05843,814.40765 440.33203,814.29576 L 458.64258,806.70787 451.43555,821.06334 C 451.27325,821.38213 451.20117,821.73579 451.20117,822.11803 451.20117,823.25064 452.00816,824.21393 453.07617,824.43248 L 470.36133,828.76842 458.61328,833.98326 V 834.01256 C 457.80396,834.38188 457.23633,835.17424 457.23633,836.12194 457.23633,836.51903 457.32563,836.90748 457.5,837.23522 L 462.91992,850.68249 444.81445,840.19421 C 444.44039,839.94149 443.9815,839.81335 443.49609,839.81335 442.52528,839.81335 441.68393,840.37839 441.32813,841.2196 L 431.68945,857.36222 431.60165,842.15714 C 431.60165,840.86273 430.55231,839.81339 429.2579,839.81339 429.06373,839.81339 428.88168,839.82749 428.70126,839.87199 L 407.19735,843.38761 420.93754,829.73527 C 421.36167,829.31113 421.64067,828.71256 421.64067,828.06535 421.64067,827.11902 421.07114,826.32605 420.26371,825.95597 L 420.20511,825.92667 C 420.19711,825.92267 420.18431,825.93067 420.17591,825.92667 L 404.12122,818.57316 423.36927,818.45597 C 424.66368,818.45597 425.71302,817.40663 425.71302,816.11222 V 791.50284 Z M 426.94336,844.911 427.06055,864.24694 403.71094,848.71959 Z M 364.6875,849.39342 C 409.99209,849.39342 446.71875,886.12008 446.71875,931.42467 446.71875,976.72926 409.99209,1013.4559 364.6875,1013.4559 319.38291,1013.4559 282.65625,976.72926 282.65625,931.42467 282.65625,886.12008 319.38291,849.39342 364.6875,849.39342 Z M 179.0625,880.79967 C 194.07778,880.79967 206.25,887.09564 206.25,894.86217 206.25,902.6287 194.07778,908.92467 179.0625,908.92467 164.04722,908.92467 151.875,902.6287 151.875,894.86217 151.875,887.09564 164.04722,880.79967 179.0625,880.79967 Z"
         style="color:black;display:inline;overflow:visible;visibility:visible;opacity:1;fill:black;fill-opacity:1;fill-rule:nonzero;stroke:none;stroke-width:1px;marker:none;enable-background:accumulate"
         inkscape:connector-curvature="0" />
      <ellipse
         ry="29.465372"
         rx="22.107042"
         cy="432.25998"
         cx="-87.720657"
         style="color:black;display:inline;overflow:visible;visibility:visible;opacity:1;fill:black;fill-opacity:1;fill-rule:nonzero;stroke:none;stroke-width:1px;marker:none;enable-background:accumulate"
         id="path21149"
         transform="matrix(1.2298118,0,0,0.92269326,472.56739,532.58125)" />
      <ellipse
         ry="29.465372"
         rx="22.107042"
         cy="432.25998"
         cx="-87.720657"
         transform="matrix(0.88825239,0,0,0.2237249,257.03145,798.18449)"
         id="path12022"
         style="color:black;display:inline;overflow:visible;visibility:visible;opacity:1;fill:black;fill-opacity:1;fill-rule:nonzero;stroke:none;stroke-width:1px;marker:none;enable-background:accumulate" />
    </g>
  </g>
</svg>
