<?xml version="1.0" encoding="UTF-8" standalone="no"?>
<!-- Created with Inkscape (http://www.inkscape.org/) -->

<svg
   xmlns:dc="http://purl.org/dc/elements/1.1/"
   xmlns:cc="http://creativecommons.org/ns#"
   xmlns:rdf="http://www.w3.org/1999/02/22-rdf-syntax-ns#"
   xmlns:svg="http://www.w3.org/2000/svg"
   xmlns="http://www.w3.org/2000/svg"
   xmlns:sodipodi="http://sodipodi.sourceforge.net/DTD/sodipodi-0.dtd"
   xmlns:inkscape="http://www.inkscape.org/namespaces/inkscape"
   width="600"
   height="600"
   id="svg2"
   version="1.1"
   inkscape:version="0.48.4 r9939"
   sodipodi:docname="6.6.svg">
  <title
     id="title3006">5.17.1 Подземный пешеходный переход</title>
  <defs
     id="defs4" />
  <sodipodi:namedview
     id="base"
     pagecolor="#ffffff"
     bordercolor="#666666"
     borderopacity="1.0"
     inkscape:pageopacity="0.0"
     inkscape:pageshadow="2"
     inkscape:zoom="1"
     inkscape:cx="126.69924"
     inkscape:cy="329.30061"
     inkscape:document-units="px"
     inkscape:current-layer="layer1"
     showgrid="false"
     inkscape:window-width="1920"
     inkscape:window-height="1024"
     inkscape:window-x="-4"
     inkscape:window-y="-4"
     inkscape:window-maximized="1"
     inkscape:snap-bbox="true"
     inkscape:bbox-paths="true"
     inkscape:bbox-nodes="true"
     inkscape:snap-bbox-edge-midpoints="true"
     inkscape:snap-bbox-midpoints="true"
     inkscape:object-paths="true"
     inkscape:snap-intersection-paths="true"
     inkscape:object-nodes="true"
     inkscape:snap-smooth-nodes="true"
     inkscape:snap-midpoints="true"
     inkscape:snap-object-midpoints="true" />
  <metadata
     id="metadata7">
    <rdf:RDF>
      <cc:Work
         rdf:about="">
        <dc:format>image/svg+xml</dc:format>
        <dc:type
           rdf:resource="http://purl.org/dc/dcmitype/StillImage" />
        <dc:title>5.17.1 Подземный пешеходный переход</dc:title>
        <cc:license
           rdf:resource="http://creativecommons.org/licenses/by-sa/3.0/" />
        <dc:description>ГОСТ 10807-78
Размеры и пропорции по типоразмеру I</dc:description>
      </cc:Work>
      <cc:License
         rdf:about="http://creativecommons.org/licenses/by-sa/3.0/">
        <cc:permits
           rdf:resource="http://creativecommons.org/ns#Reproduction" />
        <cc:permits
           rdf:resource="http://creativecommons.org/ns#Distribution" />
        <cc:requires
           rdf:resource="http://creativecommons.org/ns#Notice" />
        <cc:requires
           rdf:resource="http://creativecommons.org/ns#Attribution" />
        <cc:permits
           rdf:resource="http://creativecommons.org/ns#DerivativeWorks" />
        <cc:requires
           rdf:resource="http://creativecommons.org/ns#ShareAlike" />
      </cc:License>
    </rdf:RDF>
  </metadata>
  <g
     inkscape:label="Layer 1"
     inkscape:groupmode="layer"
     id="layer1"
     transform="translate(0,-452.36218)">
    <rect
       style="color:#000000;fill:#ffffff;fill-opacity:1;stroke:none;stroke-width:1.99999975999999990;marker:none;visibility:visible;display:inline;overflow:visible;enable-background:accumulate;opacity:1"
       id="rect6880"
       width="600"
       height="600"
       x="0"
       y="452.36218"
       ry="45"
       rx="45" />
    <path
       style="color:#000000;fill:#0d69e1;fill-opacity:1;fill-rule:nonzero;stroke:none;stroke-width:3.54299998;marker:none;visibility:visible;display:inline;overflow:visible;enable-background:accumulate"
       d="m 555,472.36218 c 13.85,0 25,11.15 25,25 l 0,495 -120,0 0,-40 -110,0 0,-40 -110,0 0,-40 -110,0 0,-40 -110,0 0,-335 c 0,-13.85 11.15,-25 25,-25 l 510,0 z m -208.5,30 c -21.9691,0 -31,16.5176 -31,30 0,23.44456 31.8583,40 44,40 17.3135,0 28,-16.47895 28,-31.59375 0,-17.80106 -15.2576,-38.40625 -41,-38.40625 z m -23.65625,69.875 c -1.8379,0.0642 -3.63395,0.6185 -5.21875,1.6875 l -66.9375,45.15625 c -1.6094,1.0856 -2.6963,2.7701 -3,4.6875 l -11.09375,70.09375 c -1.3824,8.7278 4.5848,16.9302 13.3125,18.3125 8.7278,1.3824 16.89895,-4.5847 18.28125,-13.3125 l 8.9375,-56.34375 c 0.3037,-1.9174 1.3906,-3.6019 3,-4.6875 l 32.78125,-22.125 -14.15625,89.5 c -0.3865,2.4408 0.1541,4.9274 1.5,7 l 52.6875,81.125 c 1.4337,2.2076 1.5036,5.0329 0.1875,7.3125 l -44.59375,77.21875 c -5.2467,9.0876 -2.11885,20.72205 6.96875,25.96875 9.0876,5.2467 20.72205,2.11885 25.96875,-6.96875 l 57.875,-100.28125 c 1.3161,-2.2796 1.2461,-5.1049 -0.1875,-7.3125 l -42.28125,-65.125 c -0.9078,-1.3978 -1.28,-3.06635 -1.0625,-4.71875 l 15.03125,-114.125 c 0.5279,-4.01 -1.4348,-7.94645 -4.9375,-9.96875 l -37.6875,-21.78125 c -1.6555,-0.9558 -3.5371,-1.37668 -5.375,-1.3125 z m 55.75,66 -5.65625,43.03125 35.71875,42.59375 c 5.6801,6.7692 15.7933,7.64875 22.5625,1.96875 6.7691,-5.68 7.64875,-15.76205 1.96875,-22.53125 l -54.59375,-65.0625 z m 15.875,190.8125 -24.125,41.75 25.75,63.6875 c 3.9309,9.7293 14.98945,14.4309 24.71875,10.5 9.7294,-3.9309 14.4309,-15.0207 10.5,-24.75 l -36.84375,-91.1875 z M 110,872.36218 l 0,40 110,0 0,40 110,0 0,40 110,0 0,40.00002 -395,0 c -13.85,0 -25,-11.15 -25,-25 l 0,-135.00002 90,0 z"
       id="rect9536"
       inkscape:connector-curvature="0" />
    <rect
       rx="44"
       ry="44"
       y="453.36218"
       x="1"
       height="598"
       width="598"
       id="rect3844-6"
       style="color:#000000;fill:none;stroke:#000000;stroke-width:2;stroke-miterlimit:4;stroke-opacity:1;stroke-dasharray:none;marker:none;visibility:visible;display:inline;overflow:visible;enable-background:accumulate;opacity:1" />
  </g>
</svg>
