<?xml version="1.0" encoding="UTF-8" standalone="no"?>
<svg
   xmlns:dc="http://purl.org/dc/elements/1.1/"
   xmlns:cc="http://creativecommons.org/ns#"
   xmlns:rdf="http://www.w3.org/1999/02/22-rdf-syntax-ns#"
   xmlns:svg="http://www.w3.org/2000/svg"
   xmlns="http://www.w3.org/2000/svg"
   xmlns:sodipodi="http://sodipodi.sourceforge.net/DTD/sodipodi-0.dtd"
   xmlns:inkscape="http://www.inkscape.org/namespaces/inkscape"
   width="2000"
   height="456.12744"
   id="svg2"
   version="1.1"
   inkscape:version="1.0 (4035a4fb49, 2020-05-01)"
   sodipodi:docname="5.42.svg">
  <defs
     id="defs4" />
  <sodipodi:namedview
     id="base"
     pagecolor="#ffffff"
     bordercolor="#666666"
     borderopacity="1.0"
     inkscape:pageopacity="0.0"
     inkscape:pageshadow="2"
     inkscape:zoom="0.65"
     inkscape:cx="1000"
     inkscape:cy="228.06372"
     inkscape:document-units="px"
     inkscape:current-layer="layer1"
     showgrid="false"
     inkscape:window-width="1920"
     inkscape:window-height="1001"
     inkscape:window-x="-9"
     inkscape:window-y="-9"
     inkscape:window-maximized="1"
     inkscape:document-rotation="0" />
  <metadata
     id="metadata7">
    <rdf:RDF>
      <cc:Work
         rdf:about="">
        <dc:format>image/svg+xml</dc:format>
        <dc:type
           rdf:resource="http://purl.org/dc/dcmitype/StillImage" />
        <dc:title></dc:title>
        <cc:license
           rdf:resource="http://creativecommons.org/licenses/by-sa/3.0/" />
        <dc:description>ГОСТ Р 52290-2004
Размеры и пропорции по типоразмеру II</dc:description>
      </cc:Work>
      <cc:License
         rdf:about="http://creativecommons.org/licenses/by-sa/3.0/">
        <cc:permits
           rdf:resource="http://creativecommons.org/ns#Reproduction" />
        <cc:permits
           rdf:resource="http://creativecommons.org/ns#Distribution" />
        <cc:requires
           rdf:resource="http://creativecommons.org/ns#Notice" />
        <cc:requires
           rdf:resource="http://creativecommons.org/ns#Attribution" />
        <cc:permits
           rdf:resource="http://creativecommons.org/ns#DerivativeWorks" />
        <cc:requires
           rdf:resource="http://creativecommons.org/ns#ShareAlike" />
      </cc:License>
    </rdf:RDF>
  </metadata>
  <g
     inkscape:label="Layer 1"
     inkscape:groupmode="layer"
     id="layer1"
     transform="translate(-2481.2899,-43.871623)">
    <path
       d="m 2510.613,43.872155 h 1941.3548 c 16.2442,0 29.3221,13.077827 29.3221,29.322439 V 470.67661 c 0,16.24457 -13.0779,29.32244 -29.3221,29.32244 H 2510.613 c -16.245,0 -29.3231,-13.07787 -29.3231,-29.32244 V 73.194594 c 0,-16.244612 13.0781,-29.322439 29.3231,-29.322439 z"
       style="color:#000000;display:inline;overflow:visible;visibility:visible;opacity:1;fill:#ffffff;fill-opacity:1;stroke:none;stroke-width:2;marker:none;enable-background:accumulate"
       id="rect7667"
       sodipodi:nodetypes="sssssssss" />
    <path
       id="rect9536"
       style="color:#000000;display:inline;overflow:visible;visibility:visible;opacity:1;fill:#0d69e1;fill-opacity:1;fill-rule:nonzero;stroke:none;stroke-width:3.54302;marker:none;enable-background:accumulate"
       d="m 2510.613,56.906951 c -9.0251,0 -16.2914,7.266385 -16.2914,16.291158 V 470.67375 c 0,9.02472 7.2663,16.29109 16.2914,16.29109 h 262.5982 39.5258 1639.2323 c 9.0251,0 16.2913,-7.26637 16.2913,-16.29109 V 73.198109 c 0,-9.024773 -7.2662,-16.291158 -16.2913,-16.291158 z m 76.232,53.217309 h 274.7819 c 14.309,0 25.8267,11.51766 25.8267,25.82627 v 274.78238 c 0,14.30869 -11.5177,25.82627 -25.8267,25.82627 H 2586.845 c -14.3088,0 -25.8263,-11.51758 -25.8263,-25.82627 V 135.95053 c 0,-14.30861 11.5175,-25.82627 25.8263,-25.82627 z m 1581.6057,18.65461 c 29.2768,-4e-5 43.34,25.09265 43.34,55.89042 0,30.79772 -14.0632,55.8904 -43.34,55.8904 -29.2767,0 -43.3482,-25.09268 -43.3482,-55.8904 0,-30.79777 14.0715,-55.89042 43.3482,-55.89042 z m -1214.3005,2.65676 h 77.1853 V 237.9029 h -18.6301 V 147.409 h -39.9251 v 90.4939 h -18.6301 z m 122.2287,0 h 66.5423 V 237.9029 h -18.6306 V 147.409 h -29.2814 c 0,0 0,39.9178 -1.3285,53.22548 -3.802,37.26146 -35.9319,39.92521 -35.9319,39.92521 l -3.0399,-17.87224 c 0,0 17.8704,-4.74962 20.3417,-19.38804 1.3311,-7.98462 1.3283,-47.90996 1.3283,-71.86378 z m 127.6484,0 h 21.2951 l 34.595,106.46727 h -19.9582 l -6.6585,-21.2951 h -37.26 l -6.6502,21.2951 h -19.967 z m 76.8593,0 h 77.1857 V 147.409 H 3328.79 v 90.4939 h -18.6296 V 147.409 h -29.2738 z m 102.1399,0 h 18.6379 v 42.59016 h 39.9177 v -42.59016 h 18.6296 V 237.9029 h -18.6296 v -47.91188 h -39.9177 v 47.91188 h -18.6379 z m 138.2018,0 h 21.2956 l 34.5954,106.46727 h -19.9588 l -6.6583,-21.2951 h -37.2602 l -6.6505,21.2951 h -19.9586 z m 120.7782,0 h 38.5887 V 237.9029 h -18.6299 v -42.59015 h -11.9801 c -11.9774,0 -14.826,7.41577 -19.3883,16.16076 -4.943,9.6956 -8.556,17.11404 -13.8789,26.42939 h -22.6233 c 3.6122,-1.90109 15.9666,-25.28814 19.9582,-34.60349 2.852,-6.65384 10.6506,-14.06661 15.9737,-15.20728 -13.3077,-2.66155 -22.6233,-12.73632 -22.6233,-27.37474 0,-10.64613 7.9879,-29.28176 34.6032,-29.28176 z m 175.8455,0 h 62.549 v 90.4939 h 11.9716 v 34.60349 h -15.9652 V 237.9029 h -66.542 v 18.63012 h -15.9653 v -34.60349 h 11.9799 c 5.3232,-13.30764 11.972,-48.85573 11.972,-74.52053 z m 127.428,0 h 21.2952 l 34.5949,106.46727 h -19.9582 l -6.6584,-21.2951 h -37.2606 l -6.6493,21.2951 h -19.9586 z m 82.1812,0 h 35.9319 c 25.2844,0 34.6037,19.96506 34.6037,34.60349 0,14.63846 -9.3193,34.59536 -34.6037,34.59536 h -17.3015 v 37.26842 h -18.6304 z m 209.9844,0 h 66.5418 V 147.409 h -47.9113 v 90.4939 h -18.6305 z m 120.7453,0 h 21.2952 l 34.5957,106.46727 h -19.9586 l -6.6505,-21.2951 h -37.268 l -6.6505,21.2951 h -19.9586 z m -189.7402,14.64496 c -14.6384,0 -25.2885,14.63488 -25.2885,38.5887 0,23.95376 10.6501,38.58864 25.2885,38.58864 14.6384,0 25.2805,-14.63488 25.2805,-38.58864 0,-23.95382 -10.6421,-38.5887 -25.2805,-38.5887 z M 3647.328,147.409 c -10.6463,0 -21.2951,4.55863 -21.2951,15.96519 0,11.40655 9.3123,15.97337 19.9586,15.97337 h 15.9738 V 147.409 Z m 189.154,0 c 0,25.28454 -5.3181,57.2206 -12.5422,74.52053 h 37.8307 V 147.409 Z m 209.6096,0 v 37.26029 h 11.9796 c 10.6467,0 21.2873,-5.32249 21.2873,-18.63017 0,-13.30764 -10.6406,-18.63012 -21.2873,-18.63012 z m -831.421,7.98666 -13.3084,45.23882 h 26.6167 z m 317.2015,0 -13.3086,45.23882 h 26.6172 z m 424.0513,0 -13.3085,45.23882 h 26.6166 z m 412.9197,0 -13.309,45.23882 h 26.6092 z M 3089.5652,313.22213 c 29.2768,0 43.3477,25.09268 43.3477,55.89043 0,30.79771 -14.0709,55.89039 -43.3477,55.89039 -29.2769,0 -43.3399,-25.09268 -43.3399,-55.89039 0,-30.79775 14.063,-55.89043 43.3399,-55.89043 z m 494.5134,0 c 29.2768,0 43.3479,25.09268 43.3479,55.89043 0,30.79771 -14.0711,55.89039 -43.3479,55.89039 -29.2762,0 -43.3478,-25.09268 -43.3478,-55.89039 0,-30.79775 14.0716,-55.89043 43.3478,-55.89043 z m -635.2499,2.65679 h 77.1853 v 15.97334 h -29.2739 v 90.4939 h -18.638 v -90.4939 h -29.2734 z m 209.7396,0 h 18.6301 v 90.4939 h 47.904 v 15.97334 h -66.5341 z m 91.6187,0 h 18.6384 v 90.4939 h 47.9034 v 15.97334 h -66.5418 z m 183.84,0 h 35.9319 c 26.6155,0 33.2672,18.63563 33.2672,29.28177 0,14.63839 -9.3128,23.95292 -19.9586,27.94519 17.3001,3.99232 22.6182,43.9172 34.5952,49.24028 h -22.6154 c -4.1825,-5.51318 -7.6073,-16.72828 -12.5502,-26.23377 -4.7532,-8.93516 -7.4113,-16.35637 -19.3884,-16.35637 h -10.6513 v 42.59014 h -18.6304 z m 249.6565,0 h 21.2957 l 34.5952,106.46724 h -19.9586 l -6.65,-21.29505 h -37.2685 l -6.6505,21.29505 h -19.9583 z m 82.1821,0 h 35.9315 c 29.2771,0 46.005,22.43589 46.005,53.23364 0,30.79771 -16.7279,53.2336 -46.005,53.2336 h -35.9315 z m -676.3004,14.64494 c -14.6383,0 -25.2806,14.63491 -25.2806,38.5887 0,23.95381 10.6423,38.59682 25.2806,38.59682 14.6383,0 25.288,-14.64301 25.288,-38.59682 0,-23.95379 -10.6497,-38.5887 -25.288,-38.5887 z m 494.5134,0 c -14.6379,0 -25.2796,14.63491 -25.2796,38.5887 0,23.95381 10.6417,38.59682 25.2796,38.59682 14.639,0 25.2889,-14.64301 25.2889,-38.59682 0,-23.95379 -10.6499,-38.5887 -25.2889,-38.5887 z m -131.4212,1.3284 v 31.93856 h 11.9795 c 10.6468,0 19.9586,-4.56678 19.9586,-15.97331 0,-11.40659 -9.3118,-15.96525 -19.9586,-15.96525 z m 331.8378,0 v 74.52056 h 15.9733 c 14.6388,0 27.9457,-11.97573 27.9457,-37.26026 0,-25.28457 -13.3069,-37.2603 -27.9457,-37.2603 z m -90.1678,7.98671 -13.3003,45.24693 h 26.6088 z" />
    <path
       id="path4708"
       d="m 2510.613,43.871623 c -16.2337,0 -29.3231,13.089064 -29.3231,29.322433 V 470.676 c 0,16.23336 13.0894,29.32248 29.3231,29.32248 h 1941.3548 c 16.2329,0 29.3221,-13.08912 29.3221,-29.32248 V 73.194056 c 0,-16.233369 -13.0892,-29.322433 -29.3221,-29.322433 z m 0,1.303277 h 1941.3548 c 15.5337,0 28.019,12.485312 28.019,28.019225 V 470.676 c 0,15.53392 -12.4853,28.0193 -28.019,28.0193 H 2510.613 c -15.5342,0 -28.0199,-12.48538 -28.0199,-28.0193 V 73.194056 c 0,-15.533911 12.4857,-28.01922 28.0199,-28.01922 z"
       style="color:#000000;font-style:normal;font-variant:normal;font-weight:normal;font-stretch:normal;font-size:medium;line-height:normal;font-family:sans-serif;font-variant-ligatures:normal;font-variant-position:normal;font-variant-caps:normal;font-variant-numeric:normal;font-variant-alternates:normal;font-variant-east-asian:normal;font-feature-settings:normal;font-variation-settings:normal;text-indent:0;text-align:start;text-decoration:none;text-decoration-line:none;text-decoration-style:solid;text-decoration-color:#000000;letter-spacing:normal;word-spacing:normal;text-transform:none;writing-mode:lr-tb;direction:ltr;text-orientation:mixed;dominant-baseline:auto;baseline-shift:baseline;text-anchor:start;white-space:normal;shape-padding:0;shape-margin:0;inline-size:0;clip-rule:nonzero;display:inline;overflow:visible;visibility:visible;opacity:1;isolation:auto;mix-blend-mode:normal;color-interpolation:sRGB;color-interpolation-filters:linearRGB;solid-color:#000000;solid-opacity:1;vector-effect:none;fill:#000000;fill-opacity:1;fill-rule:nonzero;stroke:none;stroke-width:2;stroke-linecap:butt;stroke-linejoin:miter;stroke-miterlimit:4;stroke-dasharray:none;stroke-dashoffset:0;stroke-opacity:1;marker:none;color-rendering:auto;image-rendering:auto;shape-rendering:auto;text-rendering:auto;enable-background:accumulate;stop-color:#000000;stop-opacity:1"
       sodipodi:nodetypes="ssssssssscssssssssc" />
    <path
       d="m 2643.3778,134.22575 -61.6947,281.57478 h 135.3425 v -66.4729 h 14.6012 v 66.4729 h 136.6473 l -67.0596,-281.57478 z m 73.6478,21.16574 h 14.6012 v 65.46699 h -14.6012 z m 0,94.68775 h 14.6012 v 70.02757 h -14.6012 z m 74.4126,54.89992 a 44.406056,44.406056 0 0 1 0.3168,0 44.406056,44.406056 0 0 1 44.4059,44.40604 44.406056,44.406056 0 0 1 -44.4059,44.40608 44.406056,44.406056 0 0 1 -44.4063,-44.40608 44.406056,44.406056 0 0 1 44.089,-44.40604 z m -131.6226,20.1179 a 34.34711,34.34711 0 0 1 0.3042,0 34.34711,34.34711 0 0 1 34.3473,34.34709 34.34711,34.34711 0 0 1 -34.3473,34.34713 34.34711,34.34711 0 0 1 -34.3465,-34.34713 34.34711,34.34711 0 0 1 34.0431,-34.34709 z m 148.5292,0.16759 c -9.7447,0 -16.4426,10.35502 -16.4426,24.9719 0,14.61685 6.6979,24.96925 16.4426,24.96925 9.7446,0 16.4452,-10.3524 16.4452,-24.96925 0,-13.83389 -6.7006,-24.9719 -16.4452,-24.9719 z m -38.3919,0.61036 -10.6138,11.30851 2.8706,3.74323 6.5255,-4.08903 v 37.75777 h 8.5261 v -48.72048 z m 38.3919,6.96005 c 4.6987,0 7.9192,5.22079 7.9192,17.40149 0,12.18071 -3.2205,17.3988 -7.9192,17.3988 -4.6982,0 -7.9162,-5.21809 -7.9162,-17.3988 0,-12.1807 3.218,-17.40149 7.9162,-17.40149 z m -162.1771,2.76365 v 23.75114 l 5.4823,3.04645 c 1.2174,-0.60898 3.6545,-3.65422 7.3088,-3.65422 5.4812,0 8.5266,4.87102 8.5266,9.13426 0,6.0904 -6.0907,9.13693 -10.9629,9.13693 -4.0021,0 -8.6147,-0.43494 -11.573,-2.43618 l 1.2177,7.91623 c 0,0 6.0916,2.43608 11.5727,2.43608 11.5723,0 18.8793,-7.91616 18.8793,-17.66075 0,-9.74458 -7.9178,-15.22733 -14.6168,-15.22733 -2.7846,0 -6.0893,0.61039 -7.9165,3.04654 v -11.57299 h 17.6608 l 2.4363,-7.91616 z"
       style="opacity:1;fill:#000000;fill-rule:evenodd;stroke-width:140;stroke-linecap:round;paint-order:stroke markers fill"
       id="rect1482-7" />
  </g>
</svg>
