<?xml version="1.0" encoding="UTF-8" standalone="no"?>
<svg
   xmlns:dc="http://purl.org/dc/elements/1.1/"
   xmlns:cc="http://creativecommons.org/ns#"
   xmlns:rdf="http://www.w3.org/1999/02/22-rdf-syntax-ns#"
   xmlns:svg="http://www.w3.org/2000/svg"
   xmlns="http://www.w3.org/2000/svg"
   xmlns:sodipodi="http://sodipodi.sourceforge.net/DTD/sodipodi-0.dtd"
   xmlns:inkscape="http://www.inkscape.org/namespaces/inkscape"
   width="700"
   height="1050"
   id="svg2"
   version="1.1"
   inkscape:version="1.0 (4035a4fb49, 2020-05-01)"
   sodipodi:docname="6.3.7.svg">
  <defs
     id="defs4" />
  <sodipodi:namedview
     id="base"
     pagecolor="#ffffff"
     bordercolor="#666666"
     borderopacity="1.0"
     inkscape:pageopacity="0.0"
     inkscape:pageshadow="2"
     inkscape:zoom="0.5"
     inkscape:cx="-412.74305"
     inkscape:cy="586.27854"
     inkscape:document-units="px"
     inkscape:current-layer="layer1"
     showgrid="false"
     inkscape:window-width="1920"
     inkscape:window-height="1001"
     inkscape:window-x="-9"
     inkscape:window-y="-9"
     inkscape:window-maximized="1"
     inkscape:document-rotation="0" />
  <metadata
     id="metadata7">
    <rdf:RDF>
      <cc:Work
         rdf:about="">
        <dc:format>image/svg+xml</dc:format>
        <dc:type
           rdf:resource="http://purl.org/dc/dcmitype/StillImage" />
        <dc:title></dc:title>
        <cc:license
           rdf:resource="http://creativecommons.org/licenses/by-sa/3.0/" />
        <dc:description>ГОСТ Р 52290-2004
Размеры и пропорции по типоразмеру II</dc:description>
      </cc:Work>
      <cc:License
         rdf:about="http://creativecommons.org/licenses/by-sa/3.0/">
        <cc:permits
           rdf:resource="http://creativecommons.org/ns#Reproduction" />
        <cc:permits
           rdf:resource="http://creativecommons.org/ns#Distribution" />
        <cc:requires
           rdf:resource="http://creativecommons.org/ns#Notice" />
        <cc:requires
           rdf:resource="http://creativecommons.org/ns#Attribution" />
        <cc:permits
           rdf:resource="http://creativecommons.org/ns#DerivativeWorks" />
        <cc:requires
           rdf:resource="http://creativecommons.org/ns#ShareAlike" />
      </cc:License>
    </rdf:RDF>
  </metadata>
  <g
     inkscape:label="Layer 1"
     inkscape:groupmode="layer"
     id="layer1"
     transform="translate(-844,10.637833)">
    <rect
       style="color:#000000;display:inline;overflow:visible;visibility:visible;opacity:1;fill:#ffffff;fill-opacity:1;fill-rule:nonzero;stroke:none;stroke-width:3.543;marker:none;enable-background:accumulate"
       id="rect1611"
       width="700"
       height="1050"
       x="844"
       y="-10.637825"
       rx="45"
       ry="45" />
    <path
       sodipodi:nodetypes="ssssssssssssssssss"
       style="color:#000000;display:inline;overflow:visible;visibility:visible;opacity:1;fill:#0d69e1;fill-opacity:1;fill-rule:nonzero;stroke:none;stroke-width:3.543;marker:none;enable-background:accumulate"
       d="m 889.00002,9.362173 c -13.85,0 -25,11.15 -25,25 V 994.3622 c 0,13.85 11.15,25 25,25 H 1499 c 13.85,0 25,-11.15 25,-25 V 34.362173 c 0,-13.85 -11.15,-25 -25,-25 z m 65.625,154.999997 H 1433.375 c 24.93,0 45,20.07 45,45 v 478.75 c 0,24.93 -20.07,45 -45,45 H 954.62502 c -24.93,0 -45,-20.07 -45,-45 v -478.75 c 0,-24.93 20.07,-45 45,-45 z"
       id="path1613" />
    <rect
       ry="44"
       rx="44"
       y="-9.6378326"
       x="845"
       height="1048"
       width="698"
       id="rect1615"
       style="color:#000000;display:inline;overflow:visible;visibility:visible;opacity:1;fill:none;stroke:#000000;stroke-width:2;stroke-miterlimit:4;stroke-dasharray:none;stroke-opacity:1;marker:none;enable-background:accumulate" />
    <path
       d="m 985.0801,395.18834 -7.6211,67.73828 h 12.70118 l 4.23242,-49.95703 17.7813,39.79688 17.7812,-39.79688 4.2344,49.95703 h 12.7011 l -7.621,-67.73828 h -11.8536 l -15.2421,33.02344 -15.24029,-33.02344 z m 80.0059,0 v 67.73828 h 11.8535 v -67.73828 z m 42.7597,0 c 0,15.24109 10e-4,40.64425 -0.8457,45.72461 -1.5725,9.314 -12.9433,12.33789 -12.9433,12.33789 l 1.9355,11.36914 c 0,0 20.4421,-1.69398 22.8613,-25.40234 0.8468,-8.46727 0.8457,-33.86719 0.8457,-33.86719 h 18.6289 v 57.57617 h 11.8536 v -67.73828 z m 64.0586,0 v 67.73828 h 11.8535 v -67.73828 z m 30.0586,0 v 67.73828 h 46.5703 v 13.54883 h 10.1602 v -23.70898 h -7.6192 v -57.57813 h -11.8554 v 57.57813 h -25.4004 v -57.57813 z m 74.1621,0 v 67.73828 h 24.5547 c 16.9346,0 22.8613,-13.5464 22.8613,-22.01367 0,-8.46727 -4.2334,-19.47656 -21.1679,-19.47656 h -14.3946 v -26.24805 z m 52.4961,0 v 67.73828 h 11.8535 v -67.73828 z m 58.1875,0 c -16.9345,0 -22.0137,11.8551 -22.0137,18.62891 0,9.314 5.9273,15.72451 14.3946,17.41797 -3.3869,0.72576 -8.3477,5.44409 -10.1621,9.67773 -2.5402,5.92709 -10.401,20.80406 -12.6993,22.01367 h 14.3946 c 3.3869,-5.92709 5.6851,-10.64349 8.8301,-16.8125 2.903,-5.5642 4.7173,-10.2832 12.3378,-10.2832 h 7.6192 v 27.0957 h 11.8555 v -67.73828 z m 3.3887,10.16211 h 9.3125 v 20.32031 h -10.1602 c -6.7738,0 -12.7011,-2.90249 -12.7011,-10.16015 0,-7.25766 6.775,-10.16016 13.5488,-10.16016 z m -102.2188,26.24805 h 11.8536 c 7.6205,0 11.8554,4.234 11.8554,11.00781 0,6.77382 -4.2349,10.16016 -11.8554,10.16016 h -11.8536 z"
       style="font-style:normal;font-variant:normal;font-weight:normal;font-stretch:normal;font-size:120.961px;line-height:97.02%;font-family:'Russian Road Sign';-inkscape-font-specification:'Russian Road Sign';text-align:center;letter-spacing:-0.338025px;text-anchor:middle;opacity:1;fill:#000000;stroke-width:1"
       id="path1634" />
  </g>
</svg>
