<?xml version="1.0" encoding="UTF-8" standalone="no"?>
<svg
   xmlns:dc="http://purl.org/dc/elements/1.1/"
   xmlns:cc="http://creativecommons.org/ns#"
   xmlns:rdf="http://www.w3.org/1999/02/22-rdf-syntax-ns#"
   xmlns:svg="http://www.w3.org/2000/svg"
   xmlns="http://www.w3.org/2000/svg"
   xmlns:sodipodi="http://sodipodi.sourceforge.net/DTD/sodipodi-0.dtd"
   xmlns:inkscape="http://www.inkscape.org/namespaces/inkscape"
   inkscape:version="1.0 (4035a4fb49, 2020-05-01)"
   sodipodi:docname="BY_road_sign_6.16.svg"
   id="6959850f-85fc-11ec-aa8d-00e04d62ac4b"
   version="1.1"
   width="700.0px"
   height="1050.0px">
  <metadata
     id="metadata114">
    <rdf:RDF>
      <cc:Work
         rdf:about="">
        <dc:format>image/svg+xml</dc:format>
        <dc:type
           rdf:resource="http://purl.org/dc/dcmitype/StillImage" />
      </cc:Work>
    </rdf:RDF>
  </metadata>
  <defs
     id="defs112" />
  <sodipodi:namedview
     inkscape:current-layer="6959850f-85fc-11ec-aa8d-00e04d62ac4b"
     inkscape:window-maximized="1"
     inkscape:window-y="-9"
     inkscape:window-x="-9"
     inkscape:cy="507.86314"
     inkscape:cx="-27.582007"
     inkscape:zoom="1.1179021"
     showgrid="false"
     id="namedview110"
     inkscape:window-height="1001"
     inkscape:window-width="1920"
     inkscape:pageshadow="2"
     inkscape:pageopacity="0"
     guidetolerance="10"
     gridtolerance="10"
     objecttolerance="10"
     borderopacity="1"
     bordercolor="#666666"
     pagecolor="#ffffff" />
  <g
     id="g107">
    <path
       id="path63"
       d="M 45.0,0.0 C 20.1514,0.0 0.0,20.1514 0.0,45.0 L 0.0,1005.0 C 0.0,1029.8486 20.1514,1050.0 45.0,1050.0 L 655.0,1050.0 C 679.8486,1050.0 700.0,1029.8486 700.0,1005.0 L 700.0,45.0 C 700.0,20.1514 679.8486,0.0 655.0,0.0 L 45.0,0.0 Z"
       style="fill:#ffffff;" />
    <path
       id="path65"
       d="M 45.0,20.0 C 31.15,20.0 20.0,31.15 20.0,45.0 L 20.0,1005.0 C 20.0,1018.85 31.15,1030.0 45.0,1030.0 L 655.0,1030.0 C 668.85,1030.0 680.0,1018.85 680.0,1005.0 L 680.0,45.0 C 680.0,31.15 668.85,20.0 655.0,20.0 L 45.0,20.0 Z M 110.625,175.0 L 589.375,175.0 C 614.305,175.0 634.375,195.07 634.375,220.0 L 634.375,698.75 C 634.375,723.68 614.305,743.75 589.375,743.75 L 110.625,743.75 C 85.695,743.75 65.625,723.68 65.625,698.75 L 65.625,220.0 C 65.625,195.07 85.695,175.0 110.625,175.0 Z"
       style="fill:#0d69e1;fill-opacity:1" />
    <path
       id="path67"
       d="M 45.0,1.0 C 20.7036,1.0 1.0,20.7036 1.0,45.0 L 1.0,1005.0 C 1.0,1029.2964 20.7036,1049.0 45.0,1049.0 L 655.0,1049.0 C 679.2964,1049.0 699.0,1029.2964 699.0,1005.0 L 699.0,45.0 C 699.0,20.7036 679.2964,1.0 655.0,1.0 L 45.0,1.0 Z"
       style="stroke:#000000;stroke-width:2.0;stroke-miterlimit:4.0;fill:none;" />
    <path
       id="path69"
       d="M 366.0494,262.3104 L 366.0494,416.7533 526.5118,416.7533 526.5118,262.3104 366.0494,262.3104 Z"
       style="fill-rule:evenodd;fill:#ffffff;" />
    <path
       id="path71"
       d="M 305.0442,296.6949 L 305.0442,435.713 465.5065,435.713 465.5065,296.6949 305.0442,296.6949 Z"
       style="fill-rule:evenodd;fill:#ffffff;" />
    <g
       id="g105">
      <g
         id="g95">
        <path
           id="path73"
           d="M 195.9627,605.7667 C 177.6179,610.6821 158.7547,599.7915 153.8392,581.4468 L 112.2978,426.4121 C 107.3824,408.0674 118.2731,389.2041 136.6178,384.2887 L 514.5062,283.0338 C 532.8509,278.1184 551.7141,289.0091 556.6296,307.3537 L 598.171,462.3884 C 603.0865,480.7332 592.1957,499.5964 573.851,504.5118 L 195.9627,605.7667 Z"
           style="stroke-width:0.2835;stroke:#2d2c2b;fill-rule:evenodd;stroke-miterlimit:10.433;fill:#000000" />
        <g
           id="g93">
          <path
             id="path75"
             d="M 274.8835,482.8687 C 273.7766,478.7377 272.9591,474.4156 272.3535,470.0367 271.5263,463.5601 271.2855,457.1534 271.4968,450.7392 272.9577,414.2454 292.0518,379.1574 320.8961,357.5779 245.7318,383.3946 197.4494,441.7437 212.2568,490.2266 224.334,529.7911 274.7248,550.9154 334.3593,545.9487 305.8605,537.4638 283.2639,514.5686 274.8835,482.8687 Z"
             style="fill:#ffffff;" />
          <path
             id="path77"
             d="M 498.9516,401.3728 C 490.5053,373.6643 463.1386,354.9989 426.9773,347.9995 450.6644,361.4067 467.3083,386.2375 470.7651,417.7807 474.4224,451.7678 461.6139,485.7393 439.0744,510.511 484.9401,480.8513 510.3192,438.2893 498.9516,401.3728 Z"
             style="fill:#ffffff;" />
          <path
             id="path79"
             d="M 316.8231,483.8922 C 312.4199,487.7968 306.4258,490.4246 301.5532,491.7302 289.2661,495.0226 281.0373,489.7345 278.0004,478.4007 274.481,465.266 280.3529,449.0474 296.0297,444.8468 304.8214,442.4911 312.4049,445.7949 314.562,453.8452 317.4854,464.7554 307.8655,471.6472 290.3804,475.8781 290.8269,477.1208 291.7615,478.9139 292.9495,479.958 295.2403,481.7283 298.4124,482.1271 302.1198,481.1337 306.7805,479.8849 310.5218,477.7471 313.4572,475.1441 L 316.8231,483.8922 Z M 296.9385,454.5938 C 291.0067,456.1832 288.9511,462.07 289.0479,466.2446 299.0332,463.6826 303.6427,460.9716 302.5642,456.9465 301.9965,454.828 299.9043,453.7991 296.9385,454.5938 Z"
             style="fill:#ffff00;" />
          <path
             id="path81"
             d="M 420.3866,430.5984 C 424.6155,446.3811 416.799,460.8502 401.9696,464.8238 391.0594,467.7471 381.7146,462.5311 378.848,451.8327 374.8461,436.8974 381.906,421.7228 397.2651,417.6073 408.8108,414.5136 417.7186,420.6415 420.3866,430.5984 Z M 391.9259,448.1015 C 393.2883,453.1858 396.6044,455.8167 401.1591,454.5962 407.9383,452.7798 409.2104,441.4266 407.252,434.1178 406.1735,430.0927 403.2374,426.3382 398.259,427.6721 390.8727,429.7648 390.1378,441.4283 391.9259,448.1015 Z"
             style="fill:#ffff00;" />
          <path
             id="path83"
             d="M 444.7632,388.532 L 449.2742,451.1268 461.9851,447.7209 457.4741,385.1261 444.7632,388.532 Z"
             style="fill:#ffff00;" />
          <path
             id="path85"
             d="M 424.002,394.0949 L 428.619,456.6614 441.3299,453.2555 436.7129,390.6891 424.002,394.0949 Z"
             style="fill:#ffff00;" />
          <path
             id="path87"
             d="M 318.925,422.2502 L 323.436,484.845 336.1469,481.4392 331.6359,418.8443 318.925,422.2502 Z"
             style="fill:#ffff00;" />
          <path
             id="path89"
             d="M 335.661,417.7658 L 336.4168,429.4839 352.0936,425.2833 355.9548,476.1317 368.6658,472.7258 364.8045,421.8774 380.6932,417.6201 379.8315,405.9304 335.661,417.7658 Z"
             style="fill:#ffff00;" />
          <path
             id="path91"
             d="M 224.2721,448.6342 C 228.2821,446.6515 233.7542,444.6176 239.58,443.0566 245.8295,441.382 250.6114,441.0089 255.1265,442.1832 259.6909,443.1173 263.6011,446.2701 264.935,451.2485 266.9502,458.7691 262.7193,465.0117 256.7404,468.5437 L 256.8256,468.8615 C 263.028,469.1295 267.8783,472.8252 269.638,479.3925 271.3693,485.8539 269.0943,491.3453 265.2567,495.6659 261.1088,500.5238 254.0632,503.8875 244.1062,506.5555 237.433,508.3436 231.9174,509.3674 228.7812,509.5265 L 224.2721,448.6342 Z M 240.5341,496.6139 C 242.0738,496.4283 243.5568,496.031 245.4635,495.5201 252.3485,493.6752 257.8601,489.2466 256.1004,482.6793 254.511,476.7475 249.0501,476.2808 243.1183,477.8703 L 239.0931,478.9488 240.5341,496.6139 Z M 238.714,469.0598 L 242.951,467.9245 C 249.942,466.0512 253.9139,461.8081 252.5232,456.6178 251.3879,452.3809 247.3814,451.4109 242.6149,452.6881 240.3904,453.2841 238.6465,453.9784 237.6157,454.3682 L 238.714,469.0598 Z"
             style="fill:#000000;" />
        </g>
      </g>
      <g
         id="g103">
        <path
           id="path97"
           d="M 571.0552,303.25 C 563.2906,274.2722 538.7957,260.1301 509.8179,267.8947"
           style="stroke-linejoin:round;stroke:#000000;stroke-width:5.0;stroke-miterlimit:4.0;fill:none;" />
        <path
           id="path99"
           d="M 580.7144,300.6618 C 571.6558,266.8544 541.0372,249.1767 507.2298,258.2354"
           style="stroke-linejoin:round;stroke:#000000;stroke-width:5.0;stroke-miterlimit:4.0;fill:none;" />
        <path
           id="path101"
           d="M 590.3737,298.0736 C 580.0209,259.4366 543.2786,238.2234 504.6416,248.5761"
           style="stroke-linejoin:round;stroke:#000000;stroke-width:5.0;stroke-miterlimit:4.0;fill:none;" />
      </g>
    </g>
  </g>
</svg>
