<?xml version="1.0" encoding="UTF-8" standalone="no"?>
<svg
   xmlns:dc="http://purl.org/dc/elements/1.1/"
   xmlns:cc="http://creativecommons.org/ns#"
   xmlns:rdf="http://www.w3.org/1999/02/22-rdf-syntax-ns#"
   xmlns:svg="http://www.w3.org/2000/svg"
   xmlns="http://www.w3.org/2000/svg"
   xmlns:sodipodi="http://sodipodi.sourceforge.net/DTD/sodipodi-0.dtd"
   xmlns:inkscape="http://www.inkscape.org/namespaces/inkscape"
   width="600"
   height="300"
   viewBox="-2 -2 333.02221 163.79744"
   id="svg4249"
   version="1.1"
   inkscape:version="1.0 (4035a4fb49, 2020-05-01)"
   sodipodi:docname="7.21.svg">
  <title
     id="title4130">7.21 Скользкая полоса наката</title>
  <metadata
     id="metadata4261">
    <rdf:RDF>
      <cc:Work
         rdf:about="">
        <dc:format>image/svg+xml</dc:format>
        <dc:type
           rdf:resource="http://purl.org/dc/dcmitype/StillImage" />
        <dc:title>7.21 Скользкая полоса наката</dc:title>
      </cc:Work>
    </rdf:RDF>
  </metadata>
  <defs
     id="defs4259">
    <inkscape:path-effect
       effect="spiro"
       id="path-effect3019"
       is_visible="true"
       lpeversion="0" />
    <inkscape:path-effect
       effect="spiro"
       id="path-effect3015"
       is_visible="true"
       lpeversion="0" />
    <pattern
       y="0"
       x="0"
       height="6"
       width="6"
       patternUnits="userSpaceOnUse"
       id="EMFhbasepattern" />
  </defs>
  <sodipodi:namedview
     pagecolor="#ffffff"
     bordercolor="#666666"
     borderopacity="1"
     objecttolerance="10"
     gridtolerance="10"
     guidetolerance="10"
     inkscape:pageopacity="0"
     inkscape:pageshadow="2"
     inkscape:window-width="1920"
     inkscape:window-height="1001"
     id="namedview4257"
     showgrid="true"
     inkscape:zoom="0.79824493"
     inkscape:cx="79.571667"
     inkscape:cy="225.77979"
     inkscape:window-x="-9"
     inkscape:window-y="-9"
     inkscape:window-maximized="1"
     inkscape:current-layer="g3789"
     fit-margin-top="0"
     fit-margin-left="0"
     fit-margin-right="0"
     fit-margin-bottom="0"
     inkscape:document-rotation="0">
    <inkscape:grid
       type="xygrid"
       id="grid2999"
       empspacing="5"
       visible="true"
       enabled="true"
       snapvisiblegridlinesonly="true"
       originx="-1089.8577"
       originy="-1096.104" />
  </sodipodi:namedview>
  <g
     inkscape:groupmode="layer"
     id="g3789"
     transform="translate(-1089.8577,-1114.2633)">
    <path
       id="path7662"
       style="color:#000000;display:inline;overflow:visible;visibility:visible;opacity:1;fill:#000000;fill-opacity:1;fill-rule:nonzero;stroke:none;stroke-width:1.9665;marker:none;enable-background:accumulate"
       d="m 1112.8343,1110.9065 h 283.0689 c 13.8371,0 24.9767,11.1394 24.9767,24.9766 v 116.5579 c 0,13.837 -11.1396,24.9766 -24.9767,24.9766 h -283.0689 c -13.8372,0 -24.9766,-11.1396 -24.9766,-24.9766 v -116.5579 c 0,-13.8372 11.1394,-24.9766 24.9766,-24.9766 z" />
    <path
       id="path7664"
       style="color:#000000;display:inline;overflow:visible;visibility:visible;opacity:1;fill:#ffffff;fill-opacity:1;fill-rule:nonzero;stroke:none;stroke-width:1.9665;marker:none;enable-background:accumulate"
       d="m 1112.8343,1116.4566 h 283.0689 c 10.7622,0 19.4264,8.6642 19.4264,19.4263 v 116.558 c 0,10.7621 -8.6642,19.4263 -19.4264,19.4263 h -283.0689 c -10.7621,0 -19.4262,-8.6642 -19.4262,-19.4263 v -116.558 c 0,-10.7621 8.6641,-19.4263 19.4262,-19.4263 z" />
    <path
       id="path3400"
       style="opacity:1;fill:#000000;stroke-width:0.555037"
       d="m 1246.7965,1122.1203 c -1.2764,0.069 -2.4997,0.666 -3.3454,1.7018 l -16.7552,20.4996 c -2.4014,-0.9132 -5.0701,0.2848 -5.9828,2.6864 l -7.5796,19.9403 c -0.9136,2.4014 0.2838,5.0698 2.6852,5.9828 l 72.8267,27.6866 c 2.4012,0.913 5.0701,-0.2865 5.9827,-2.6877 l 7.5797,-19.9403 c 0.9132,-2.4016 -0.2845,-5.0698 -2.6852,-5.9828 l 1.0932,-26.452 c 0.084,-1.9943 -1.1109,-3.8182 -2.9769,-4.5271 l -48.9563,-18.6122 c -0.2333,-0.089 -0.4696,-0.1565 -0.7082,-0.2058 -0.2088,-0.043 -0.419,-0.072 -0.6287,-0.086 -0.1835,-0.012 -0.3668,-0.014 -0.5492,0 z m 0.7739,5.9183 c 0.084,0 0.1687,5e-4 0.2525,0.017 v 0 c 0.048,0.012 0.096,0.023 0.1427,0.042 l 46.4364,17.6541 c 0.3737,0.1417 0.6162,0.5118 0.5998,0.9102 l -0.9659,23.2605 -61.8534,-23.5143 14.7302,-18.0289 c 0.1658,-0.2029 0.4061,-0.3219 0.6577,-0.3397 z m -32.388,47.8757 -3.6257,9.5366 c -1.5023,3.9504 0.483,8.3693 4.4337,9.871 3.9503,1.5015 8.3692,-0.4827 9.8711,-4.4324 l 3.6256,-9.5366 z m 57.6533,21.9173 -3.6257,9.5365 c -1.5019,3.9506 0.4833,8.3708 4.4337,9.8723 3.9504,1.5016 8.3703,-0.484 9.8723,-4.4337 l 3.6244,-9.5378 z m -54.7294,1.1955 -16.0646,4.5714 c -3.1843,0.9061 -5.3806,3.8149 -5.3806,7.1252 0,2.3907 1.1537,4.6346 3.098,6.0256 l 25.2236,18.0467 c 2.0465,1.4644 3.2609,3.826 3.2609,6.3425 0,2.5756 -1.2715,4.984 -3.3972,6.4372 l -14.5382,9.9393 h 35.0921 l 5.0876,-5.3718 c 2.3666,-2.4984 3.6864,-5.8095 3.6864,-9.2512 0,-4.864 -2.6269,-9.3481 -6.8677,-11.7293 l -34.4282,-19.328 c -1.1059,-0.6212 -1.7901,-1.7915 -1.7901,-3.0602 0,-0.8165 0.2838,-1.6078 0.8041,-2.237 z m 55.8656,20.1083 -10.6449,5.0206 c -1.7974,0.8477 -2.944,2.6562 -2.944,4.6434 0,2.0711 1.2439,3.9385 3.1548,4.7367 l 26.933,11.2471 c 2.8104,1.1737 4.6408,3.9218 4.6408,6.9675 0,2.7747 -1.5222,5.3262 -3.9641,6.6441 h 28.1234 c -1.8255,-9.1623 -8.3788,-16.6663 -17.2122,-19.708 l -28.4593,-9.7991 c -1.5842,-0.5456 -2.6472,-2.0375 -2.6472,-3.7128 0,-0.7234 0.2005,-1.4318 0.5782,-2.0489 z" />
  </g>
</svg>
