<?xml version="1.0" encoding="UTF-8" standalone="no"?>
<svg
   xmlns:dc="http://purl.org/dc/elements/1.1/"
   xmlns:cc="http://creativecommons.org/ns#"
   xmlns:rdf="http://www.w3.org/1999/02/22-rdf-syntax-ns#"
   xmlns:svg="http://www.w3.org/2000/svg"
   xmlns="http://www.w3.org/2000/svg"
   xmlns:sodipodi="http://sodipodi.sourceforge.net/DTD/sodipodi-0.dtd"
   xmlns:inkscape="http://www.inkscape.org/namespaces/inkscape"
   sodipodi:docname="7.22.1.svg"
   inkscape:version="1.0 (4035a4fb49, 2020-05-01)"
   version="1.1"
   id="svg4249"
   viewBox="-2 -2 333.0222 163.79734"
   height="299.99982"
   width="600">
  <title
     id="title4130">7.22.1 Вид опасности</title>
  <metadata
     id="metadata4261">
    <rdf:RDF>
      <cc:Work
         rdf:about="">
        <dc:format>image/svg+xml</dc:format>
        <dc:type
           rdf:resource="http://purl.org/dc/dcmitype/StillImage" />
        <dc:title>7.22.1 Вид опасности</dc:title>
      </cc:Work>
    </rdf:RDF>
  </metadata>
  <defs
     id="defs4259">
    <inkscape:path-effect
       lpeversion="0"
       is_visible="true"
       id="path-effect3019"
       effect="spiro" />
    <inkscape:path-effect
       lpeversion="0"
       is_visible="true"
       id="path-effect3015"
       effect="spiro" />
    <pattern
       id="EMFhbasepattern"
       patternUnits="userSpaceOnUse"
       width="6"
       height="6"
       x="0"
       y="0" />
  </defs>
  <sodipodi:namedview
     inkscape:document-rotation="0"
     fit-margin-bottom="0"
     fit-margin-right="0"
     fit-margin-left="0"
     fit-margin-top="0"
     inkscape:current-layer="g3789"
     inkscape:window-maximized="1"
     inkscape:window-y="-9"
     inkscape:window-x="-9"
     inkscape:cy="98.793248"
     inkscape:cx="171.7111"
     inkscape:zoom="1.1288888"
     showgrid="true"
     id="namedview4257"
     inkscape:window-height="1001"
     inkscape:window-width="1920"
     inkscape:pageshadow="2"
     inkscape:pageopacity="0"
     guidetolerance="10"
     gridtolerance="10"
     objecttolerance="10"
     borderopacity="1"
     bordercolor="#666666"
     pagecolor="#ffffff">
    <inkscape:grid
       originy="-1220.9556"
       originx="-767.26762"
       snapvisiblegridlinesonly="true"
       enabled="true"
       visible="true"
       empspacing="5"
       id="grid2999"
       type="xygrid" />
  </sodipodi:namedview>
  <g
     transform="translate(-767.26761,-1241.1834)"
     id="g3789"
     inkscape:groupmode="layer">
    <path
       id="path7666"
       style="color:#000000;display:inline;overflow:visible;visibility:visible;opacity:1;fill:#000000;fill-opacity:1;fill-rule:nonzero;stroke:none;stroke-width:1.9665;marker:none;enable-background:accumulate"
       d="m 790.24418,1237.8266 h 283.06892 c 13.8371,0 24.9767,11.1394 24.9767,24.9766 v 116.5579 c 0,13.837 -11.1396,24.9765 -24.9767,24.9765 H 790.24418 c -13.83713,0 -24.97657,-11.1395 -24.97657,-24.9765 v -116.5579 c 0,-13.8372 11.13944,-24.9766 24.97657,-24.9766 z" />
    <path
       id="path7668"
       style="color:#000000;display:inline;overflow:visible;visibility:visible;opacity:1;fill:#ffffff;fill-opacity:1;fill-rule:nonzero;stroke:none;stroke-width:1.9665;marker:none;enable-background:accumulate"
       d="m 790.24418,1243.3767 h 283.06892 c 10.7622,0 19.4264,8.6642 19.4264,19.4263 v 116.5579 c 0,10.7622 -8.6642,19.4263 -19.4264,19.4263 H 790.24418 c -10.76201,0 -19.42619,-8.6641 -19.42619,-19.4263 V 1262.803 c 0,-10.7621 8.66418,-19.4263 19.42619,-19.4263 z" />
    <path
       id="path4639"
       style="opacity:1;fill:#000000;fill-opacity:1;fill-rule:evenodd;stroke-width:77.7052;stroke-linecap:round;paint-order:stroke markers fill"
       d="m 930.46215,1284.329 c -1.24677,0 -2.25093,1.0041 -2.25093,2.2509 v 29.3645 l -22.7846,-21.0563 c -0.98694,-0.9121 -2.51672,-0.852 -3.4288,0.135 l -2.21937,2.4012 c -0.9122,0.9871 -0.85176,2.5155 0.13509,3.4276 l 30.21029,27.9189 c 0.50424,0.4661 1.14986,0.6744 1.78256,0.6388 0.63224,0.035 1.27741,-0.1743 1.78132,-0.6401 l 30.21027,-27.9176 c 0.98697,-0.9121 1.04728,-2.4405 0.13508,-3.4276 l -2.21937,-2.4012 c -0.91208,-0.987 -2.44057,-1.0471 -3.42753,-0.135 l -22.05363,20.3796 v -28.6878 c 0,-1.2468 -1.00279,-2.2509 -2.24968,-2.2509 z m -115.62219,15.3198 c -1.88122,0 -3.67541,0.8217 -4.89703,2.2522 l -23.80717,27.8798 c -1.27285,1.4902 -1.80176,3.4808 -1.42782,5.4045 l 3.36315,17.3031 c 0.39502,2.0322 1.9138,3.6529 3.91357,4.1888 l 3.26848,0.8887 c 1.14173,-8.3376 8.32446,-14.7656 17.01648,-14.7656 9.48623,0 17.17681,7.6529 17.17681,17.0923 h 61.08967 c 0,-9.4394 7.68944,-17.0923 17.17556,-17.0923 8.29313,0 15.21758,5.8389 16.82711,13.6117 2.84874,-0.083 5.16676,-2.3486 5.26691,-5.2138 l 0.21209,-12.2054 c 0.0566,-3.2478 -2.31517,-6.0305 -5.53202,-6.4826 l -34.28798,-4.8238 c -1.45896,-0.2051 -2.80276,-0.8995 -3.80754,-1.977 l -22.4008,-24.0193 c -1.21638,-1.3043 -2.92426,-2.0413 -4.70765,-2.0413 z m 189.15574,0 c -1.7834,0 -3.49,0.737 -4.70635,2.0413 l -22.40081,24.0193 c -1.00479,1.0775 -2.34858,1.7719 -3.80754,1.977 l -34.28923,4.8238 c -3.21686,0.4521 -5.58864,3.2348 -5.53204,6.4826 l 0.21209,12.2054 c 0.10015,2.8652 2.41819,5.131 5.26692,5.2138 1.60954,-7.7728 8.53397,-13.6117 16.82712,-13.6117 9.48612,0 17.17681,7.6529 17.17681,17.0923 h 61.08843 c 0,-9.4394 7.6906,-17.0923 17.1768,-17.0923 8.692,0 15.876,6.428 17.0177,14.7656 l 3.2672,-0.8887 c 1.9998,-0.5359 3.5186,-2.1566 3.9136,-4.1888 l 3.3631,-17.3031 c 0.374,-1.9237 -0.1549,-3.9143 -1.4277,-5.4045 l -23.8072,-27.8798 c -1.2217,-1.4305 -3.0158,-2.2522 -4.8971,-2.2522 z m -189.53574,5.0763 h 44.11358 c 1.12636,0 2.20366,0.4664 2.9718,1.2902 l 14.20501,15.2301 c 0.70131,0.7519 1.08823,1.7429 1.08823,2.7711 0,2.2429 -1.81811,4.0613 -4.06128,4.0613 h -60.41174 c -0.26609,0 -0.53123,-0.021 -0.79407,-0.063 -2.7692,-0.4386 -4.65766,-3.0367 -4.2191,-5.8059 l 2.09441,-13.2001 c 0.39059,-2.4666 2.51588,-4.2835 5.01316,-4.2835 z m 190.24404,0 h 44.1148 c 2.4973,0 4.6226,1.817 5.0132,4.2834 l 2.0931,13.2001 c 0.4386,2.7692 -1.4499,5.3674 -4.2191,5.8061 -0.2628,0.042 -0.528,0.063 -0.7941,0.063 h -60.4117 c -2.24316,0 -4.06128,-1.8183 -4.06128,-4.0612 0,-1.0282 0.38819,-2.0193 1.08949,-2.7711 l 14.20379,-15.2302 c 0.7681,-0.8237 1.8454,-1.2902 2.9718,-1.2902 z m -192.43186,40.9498 c -7.85062,0 -14.21512,6.3645 -14.21512,14.2151 0,7.8507 6.3645,14.2152 14.21512,14.2152 7.85051,0 14.21512,-6.3645 14.21512,-14.2152 0,-7.8506 -6.36461,-14.2151 -14.21512,-14.2151 z m 95.44203,0 c -7.8506,0 -14.21511,6.3645 -14.21511,14.2151 0,7.8507 6.36451,14.2152 14.21511,14.2152 7.8505,0 14.21387,-6.3645 14.21387,-14.2152 0,-7.8506 -6.36337,-14.2151 -14.21387,-14.2151 z m 47.84916,0 c -7.8505,0 -14.21386,6.3645 -14.21386,14.2151 0,7.8507 6.36336,14.2152 14.21386,14.2152 7.85062,0 14.21512,-6.3645 14.21512,-14.2152 0,-7.8506 -6.3645,-14.2151 -14.21512,-14.2151 z m 95.44207,0 c -7.8505,0 -14.2139,6.3645 -14.2139,14.2151 0,7.8507 6.3634,14.2152 14.2139,14.2152 7.8505,0 14.2151,-6.3645 14.2151,-14.2152 0,-7.8506 -6.3646,-14.2151 -14.2151,-14.2151 z m -238.73326,5.7543 c 4.67302,0 8.46091,3.7878 8.4609,8.4608 0,4.6731 -3.78788,8.461 -8.4609,8.461 -4.6729,0 -8.46089,-3.7879 -8.46089,-8.461 0,-4.673 3.78799,-8.4608 8.46089,-8.4608 z m 95.44203,0 c 4.6729,0 8.4609,3.7878 8.4609,8.4608 0,4.6731 -3.788,8.461 -8.4609,8.461 -4.67288,0 -8.46089,-3.7879 -8.46089,-8.461 0,-4.673 3.78801,-8.4608 8.46089,-8.4608 z m 47.84916,0 c 4.6729,0 8.46216,3.7878 8.46216,8.4608 0,4.6731 -3.78926,8.461 -8.46216,8.461 -4.67289,0 -8.4609,-3.7879 -8.4609,-8.461 0,-4.673 3.78801,-8.4608 8.4609,-8.4608 z m 95.44207,0 c 4.6729,0 8.4609,3.7878 8.4609,8.4608 0,4.6731 -3.788,8.461 -8.4609,8.461 -4.6731,0 -8.4609,-3.7879 -8.4609,-8.461 0,-4.673 3.7878,-8.4608 8.4609,-8.4608 z m -266.87692,22.8249 v 10.9695 H 1077.768 v -10.9695 z" />
  </g>
</svg>
