<?xml version="1.0" encoding="UTF-8" standalone="no"?>
<svg
   xmlns:dc="http://purl.org/dc/elements/1.1/"
   xmlns:cc="http://creativecommons.org/ns#"
   xmlns:rdf="http://www.w3.org/1999/02/22-rdf-syntax-ns#"
   xmlns:svg="http://www.w3.org/2000/svg"
   xmlns="http://www.w3.org/2000/svg"
   xmlns:sodipodi="http://sodipodi.sourceforge.net/DTD/sodipodi-0.dtd"
   xmlns:inkscape="http://www.inkscape.org/namespaces/inkscape"
   sodipodi:docname="7.22.4.svg"
   inkscape:version="1.0 (4035a4fb49, 2020-05-01)"
   version="1.1"
   id="svg4249"
   viewBox="-2 -2 333.0222 163.79744"
   height="300"
   width="600">
  <title
     id="title4130">7.22.4 Вид опасности</title>
  <metadata
     id="metadata4261">
    <rdf:RDF>
      <cc:Work
         rdf:about="">
        <dc:format>image/svg+xml</dc:format>
        <dc:type
           rdf:resource="http://purl.org/dc/dcmitype/StillImage" />
        <dc:title>7.22.4 Вид опасности</dc:title>
      </cc:Work>
    </rdf:RDF>
  </metadata>
  <defs
     id="defs4259">
    <inkscape:path-effect
       lpeversion="0"
       is_visible="true"
       id="path-effect3019"
       effect="spiro" />
    <inkscape:path-effect
       lpeversion="0"
       is_visible="true"
       id="path-effect3015"
       effect="spiro" />
    <pattern
       id="EMFhbasepattern"
       patternUnits="userSpaceOnUse"
       width="6"
       height="6"
       x="0"
       y="0" />
  </defs>
  <sodipodi:namedview
     inkscape:document-rotation="0"
     fit-margin-bottom="0"
     fit-margin-right="0"
     fit-margin-left="0"
     fit-margin-top="0"
     inkscape:current-layer="g3789"
     inkscape:window-maximized="1"
     inkscape:window-y="-9"
     inkscape:window-x="-9"
     inkscape:cy="170.84821"
     inkscape:cx="-45.190742"
     inkscape:zoom="0.79824493"
     showgrid="true"
     id="namedview4257"
     inkscape:window-height="1001"
     inkscape:window-width="1920"
     inkscape:pageshadow="2"
     inkscape:pageopacity="0"
     guidetolerance="10"
     gridtolerance="10"
     objecttolerance="10"
     borderopacity="1"
     bordercolor="#666666"
     pagecolor="#ffffff">
    <inkscape:grid
       originy="-1224.3913"
       originx="-1210.9299"
       snapvisiblegridlinesonly="true"
       enabled="true"
       visible="true"
       empspacing="5"
       id="grid2999"
       type="xygrid" />
  </sodipodi:namedview>
  <g
     transform="translate(-1210.9299,-1244.6759)"
     id="g3789"
     inkscape:groupmode="layer">
    <path
       id="path7678"
       style="color:#000000;display:inline;overflow:visible;visibility:visible;opacity:1;fill:#000000;fill-opacity:1;fill-rule:nonzero;stroke:none;stroke-width:1.9665;marker:none;enable-background:accumulate"
       d="m 1233.9065,1241.3191 h 283.0689 c 13.8372,0 24.9767,11.1394 24.9767,24.9766 v 116.5579 c 0,13.837 -11.1395,24.9766 -24.9767,24.9766 h -283.0689 c -13.8372,0 -24.9766,-11.1396 -24.9766,-24.9766 v -116.5579 c 0,-13.8372 11.1394,-24.9766 24.9766,-24.9766 z" />
    <path
       id="path7680"
       style="color:#000000;display:inline;overflow:visible;visibility:visible;opacity:1;fill:#ffffff;fill-opacity:1;fill-rule:nonzero;stroke:none;stroke-width:1.9665;marker:none;enable-background:accumulate"
       d="m 1233.9065,1246.8693 h 283.0689 c 10.7623,0 19.4264,8.6641 19.4264,19.4263 v 116.5579 c 0,10.7621 -8.6641,19.4263 -19.4264,19.4263 h -283.0689 c -10.762,0 -19.4262,-8.6642 -19.4262,-19.4263 v -116.5579 c 0,-10.7622 8.6642,-19.4263 19.4262,-19.4263 z" />
    <path
       id="rect2022"
       style="opacity:1;fill:#000000;fill-opacity:1;fill-rule:evenodd;stroke-width:77.7052;stroke-linecap:round;paint-order:stroke markers fill"
       d="m 1371.5388,1286.5283 c -1.2468,0 -2.251,1.0041 -2.251,2.251 v 29.3644 l -22.7847,-21.0564 c -0.9869,-0.912 -2.5166,-0.8519 -3.4286,0.1351 l -2.2195,2.4012 c -0.9121,0.9871 -0.8517,2.5155 0.135,3.4275 l 30.2103,27.919 c 0.5044,0.466 1.1499,0.6744 1.7826,0.6387 0.6323,0.035 1.2774,-0.1742 1.7813,-0.64 l 30.2103,-27.9177 c 0.987,-0.912 1.0472,-2.4404 0.1351,-3.4275 l -2.2194,-2.4012 c -0.9122,-0.987 -2.4405,-1.0471 -3.4275,-0.1351 l -22.0537,20.3796 v -28.6876 c 0,-1.2469 -1.0026,-2.251 -2.2496,-2.251 z m 48.5914,14.6633 c -4.2424,0 -7.6808,3.4396 -7.6808,7.682 0,2.7604 1.4813,5.3082 3.8796,6.6745 l 1.4467,0.8243 c 0.9423,0.5366 1.5238,1.5378 1.5238,2.6222 0,0.4406 -0.097,0.8758 -0.2829,1.275 l -6.8827,14.7606 c -3.2936,-1.8611 -7.012,-2.8393 -10.7952,-2.8393 -12.1205,0 -21.9463,9.8266 -21.9463,21.9475 0,12.1207 9.8258,21.9464 21.9463,21.9464 12.121,0 21.9463,-9.8253 21.9463,-21.9464 0,-6.3355 -2.7381,-12.3628 -7.5103,-16.5304 l 1.7144,-3.6762 29.8227,22.7177 c 0.43,0.3275 0.9553,0.5062 1.496,0.5063 h 11.9945 c 1.5064,10.8504 10.7831,18.9278 21.738,18.9278 12.1206,0 21.9476,-9.8255 21.9476,-21.9464 0,-12.1206 -9.827,-21.9463 -21.9476,-21.9463 -3.4174,0 -6.7873,0.7977 -9.842,2.3305 l -8.1125,-11.5855 2.1273,-5.0106 h 1.2876 c 1.8181,0 3.2925,-1.473 3.2925,-3.2913 0,-1.8182 -1.4744,-3.2924 -3.2925,-3.2924 h -15.0874 c -1.8177,0 -3.2924,1.4746 -3.2924,3.2924 0,1.8183 1.4747,3.2913 3.2924,3.2913 h 9.6274 l -1.2815,3.0184 h -37.8316 c 0.1733,-0.6355 0.2613,-1.2919 0.2613,-1.9504 0,-2.6618 -1.4276,-5.1188 -3.7405,-6.4359 l -1.4469,-0.8244 c -1.0279,-0.5856 -1.6625,-1.6776 -1.6625,-2.8607 0,-1.8182 1.473,-3.2913 3.2912,-3.2913 h 10.8367 c 1.2119,0 2.1942,-0.982 2.1942,-2.194 0,-1.212 -0.9823,-2.1954 -2.1942,-2.1954 z m -159.0427,0.6564 c -1.8812,0 -3.6741,0.823 -4.8957,2.2536 l -23.8084,27.8798 c -1.2729,1.4901 -1.8018,3.4807 -1.4279,5.4044 l 3.3631,17.3031 c 0.395,2.0323 1.9138,3.6517 3.9136,4.1875 l 3.2685,0.8888 c 1.1417,-8.3376 8.3257,-14.7643 17.0177,-14.7643 9.4863,0 17.1756,7.6516 17.1756,17.091 h 61.0896 c 0,-9.4394 7.6895,-17.091 17.1756,-17.091 8.2932,0 15.2176,5.8388 16.8271,13.6116 2.8488,-0.083 5.1681,-2.3485 5.2681,-5.2139 l 0.2109,-12.2052 c 0.057,-3.248 -2.3151,-6.0319 -5.532,-6.4839 l -34.288,-4.8226 c -1.4589,-0.2049 -2.8027,-0.9008 -3.8075,-1.9782 l -22.4009,-24.0193 c -1.2163,-1.3043 -2.9229,-2.0414 -4.7063,-2.0414 z m -0.3799,5.0776 h 44.1134 c 1.1264,0 2.2037,0.4664 2.9719,1.2902 l 14.205,15.2301 c 0.7013,0.7519 1.0895,1.743 1.0895,2.771 0,2.2431 -1.8181,4.0613 -4.0612,4.0613 h -60.4131 c -0.2661,0 -0.53,-0.021 -0.7928,-0.063 -2.7692,-0.4387 -4.659,-3.0381 -4.2204,-5.8073 l 2.0945,-13.1988 c 0.3906,-2.4665 2.5159,-4.2836 5.0132,-4.2836 z m 161.363,18.9556 h 37.093 l -10.7736,25.3827 -28.2775,-21.5412 z m 41.2351,2.8796 5.6822,8.1151 c -4.7711,3.7454 -7.7786,9.2986 -8.3093,15.3411 h -7.3298 z m -61.967,6.7225 c 3.3028,0 6.5462,0.8758 9.3989,2.54 l -4.7632,10.2157 c -0.286,0.6124 -0.7531,1.1217 -1.3383,1.4595 l -4.3945,2.5388 c -0.6791,0.3921 -1.0982,1.1157 -1.0982,1.8999 0,1.2119 0.9833,2.1954 2.1953,2.1954 0.3852,0 0.7632,-0.1013 1.0971,-0.2942 l 4.3957,-2.5374 c 1.365,-0.7881 2.4547,-1.9774 3.1208,-3.4061 l 4.363,-9.3585 c 3.6287,3.514 5.6772,8.3495 5.6772,13.4008 0,10.3028 -8.3511,18.6552 -18.6538,18.6552 -10.3025,0 -18.655,-8.3524 -18.655,-18.6552 0,-10.3025 8.3525,-18.6539 18.655,-18.6539 z m 81.2016,0 c 10.3025,0 18.6552,8.3514 18.6552,18.6539 0,10.3028 -8.3527,18.6552 -18.6552,18.6552 -9.1381,0 -16.931,-6.6193 -18.4089,-15.6366 h 18.953 c 1.6666,0 3.0173,-1.3517 3.0173,-3.0186 0,-0.6191 -0.1903,-1.2234 -0.5454,-1.7308 l -10.6928,-15.2705 c 2.4128,-1.0893 5.0296,-1.6526 7.6768,-1.6526 z m -11.8733,4.2671 8.7286,12.4666 h -15.4107 c 0.5042,-4.8715 2.905,-9.349 6.6821,-12.4666 z m -212.1473,8.1251 c -7.8506,0 -14.2139,6.3632 -14.2139,14.2138 0,7.8505 6.3633,14.2152 14.2139,14.2152 7.8505,0 14.2151,-6.3647 14.2151,-14.2152 0,-7.8506 -6.3646,-14.2138 -14.2151,-14.2138 z m 95.442,0 c -7.8507,0 -14.2151,6.3632 -14.2151,14.2138 0,7.8505 6.3644,14.2152 14.2151,14.2152 7.8505,0 14.2151,-6.3647 14.2151,-14.2152 0,-7.8506 -6.3646,-14.2138 -14.2151,-14.2138 z m -95.442,5.753 c 4.673,0 8.4621,3.7878 8.4621,8.4608 0,4.673 -3.7891,8.4623 -8.4621,8.4623 -4.6729,0 -8.461,-3.7893 -8.461,-8.4623 0,-4.673 3.7881,-8.4608 8.461,-8.4608 z m 95.442,0 c 4.6728,0 8.4609,3.7878 8.4609,8.4608 0,4.673 -3.7881,8.4623 -8.4609,8.4623 -4.6728,0 -8.4609,-3.7893 -8.4609,-8.4623 0,-4.673 3.7881,-8.4608 8.4609,-8.4608 z m -123.5819,23.08 v 10.9694 h 293.6382 v -10.9694 z" />
  </g>
</svg>
