<?xml version="1.0" encoding="UTF-8" standalone="no"?>
<svg
   xmlns:dc="http://purl.org/dc/elements/1.1/"
   xmlns:cc="http://creativecommons.org/ns#"
   xmlns:rdf="http://www.w3.org/1999/02/22-rdf-syntax-ns#"
   xmlns:svg="http://www.w3.org/2000/svg"
   xmlns="http://www.w3.org/2000/svg"
   xmlns:sodipodi="http://sodipodi.sourceforge.net/DTD/sodipodi-0.dtd"
   xmlns:inkscape="http://www.inkscape.org/namespaces/inkscape"
   sodipodi:docname="7.22.2.svg"
   inkscape:version="1.0 (4035a4fb49, 2020-05-01)"
   version="1.1"
   id="svg4249"
   viewBox="-2 -2 333.0222 163.79744"
   height="300"
   width="600">
  <title
     id="title4130">7.22.2 Вид опасности</title>
  <metadata
     id="metadata4261">
    <rdf:RDF>
      <cc:Work
         rdf:about="">
        <dc:format>image/svg+xml</dc:format>
        <dc:type
           rdf:resource="http://purl.org/dc/dcmitype/StillImage" />
        <dc:title>7.22.2 Вид опасности</dc:title>
      </cc:Work>
    </rdf:RDF>
  </metadata>
  <defs
     id="defs4259">
    <inkscape:path-effect
       lpeversion="0"
       is_visible="true"
       id="path-effect3019"
       effect="spiro" />
    <inkscape:path-effect
       lpeversion="0"
       is_visible="true"
       id="path-effect3015"
       effect="spiro" />
    <pattern
       id="EMFhbasepattern"
       patternUnits="userSpaceOnUse"
       width="6"
       height="6"
       x="0"
       y="0" />
  </defs>
  <sodipodi:namedview
     inkscape:document-rotation="0"
     fit-margin-bottom="0"
     fit-margin-right="0"
     fit-margin-left="0"
     fit-margin-top="0"
     inkscape:current-layer="g3789"
     inkscape:window-maximized="1"
     inkscape:window-y="-9"
     inkscape:window-x="-9"
     inkscape:cy="198.61421"
     inkscape:cx="-99.687719"
     inkscape:zoom="0.79824493"
     showgrid="true"
     id="namedview4257"
     inkscape:window-height="1001"
     inkscape:window-width="1920"
     inkscape:pageshadow="2"
     inkscape:pageopacity="0"
     guidetolerance="10"
     gridtolerance="10"
     objecttolerance="10"
     borderopacity="1"
     bordercolor="#666666"
     pagecolor="#ffffff">
    <inkscape:grid
       originy="-1209.2313"
       originx="-1134.0982"
       snapvisiblegridlinesonly="true"
       enabled="true"
       visible="true"
       empspacing="5"
       id="grid2999"
       type="xygrid" />
  </sodipodi:namedview>
  <g
     transform="translate(-1134.0982,-1229.2648)"
     id="g3789"
     inkscape:groupmode="layer">
    <path
       d="m 1157.0748,1225.908 h 283.0689 c 13.8371,0 24.9767,11.1394 24.9767,24.9766 v 116.5579 c 0,13.837 -11.1396,24.9766 -24.9767,24.9766 h -283.0689 c -13.8372,0 -24.9766,-11.1396 -24.9766,-24.9766 v -116.5579 c 0,-13.8372 11.1394,-24.9766 24.9766,-24.9766 z"
       style="color:#000000;display:inline;overflow:visible;visibility:visible;opacity:1;fill:#000000;fill-opacity:1;fill-rule:nonzero;stroke:none;stroke-width:1.9665;marker:none;enable-background:accumulate"
       id="path7670" />
    <path
       d="m 1157.0748,1231.4582 h 283.0689 c 10.7623,0 19.4264,8.6641 19.4264,19.4263 v 116.5579 c 0,10.7621 -8.6641,19.4263 -19.4264,19.4263 h -283.0689 c -10.762,0 -19.4262,-8.6642 -19.4262,-19.4263 v -116.5579 c 0,-10.7622 8.6642,-19.4263 19.4262,-19.4263 z"
       style="color:#000000;display:inline;overflow:visible;visibility:visible;opacity:1;fill:#ffffff;fill-opacity:1;fill-rule:nonzero;stroke:none;stroke-width:1.9665;marker:none;enable-background:accumulate"
       id="path7672" />
    <path
       id="rect6268"
       style="opacity:1;fill:#000000;fill-rule:evenodd;stroke-width:77.7052;stroke-linecap:round;paint-order:stroke markers fill"
       d="m 1268.2664,1245.4219 c -4.062,0.069 -7.7816,2.7514 -8.9823,6.855 l -3.5664,12.1952 18.2915,5.3504 3.569,-12.1953 c 1.4779,-5.0518 -1.4194,-10.3441 -6.4713,-11.8215 -0.947,-0.277 -1.9031,-0.3998 -2.8405,-0.3838 z m 73.7254,21.5638 c -4.062,0.069 -7.7816,2.7513 -8.9823,6.8551 l -3.5676,12.1952 18.2927,5.3515 3.5677,-12.1953 c 1.478,-5.0517 -1.4194,-10.3439 -6.4713,-11.8215 -0.9471,-0.277 -1.9018,-0.4009 -2.8392,-0.385 z m -89.6082,0.6918 c -2.4638,0.038 -4.7092,1.6612 -5.4387,4.156 l -7.4597,25.5001 c -0.8983,3.071 0.8506,6.2661 3.9211,7.1643 l 1.2321,32.9485 c 0.093,2.4842 1.7537,4.6315 4.1396,5.3288 l 62.6046,18.3131 c 0.298,0.087 0.5991,0.1494 0.9002,0.1868 0.1578,0.02 0.3145,0.02 0.4721,0.027 H 1153.548 v 10.9693 h 293.6383 v -10.9693 h -133.8974 c 1.7522,-0.09 3.4107,-0.9703 4.4513,-2.4719 l 18.7941,-27.0908 c 3.0709,0.8984 6.2664,-0.8501 7.1643,-3.9212 l 7.4586,-25.5 c 0.8987,-3.0709 -0.8507,-6.2661 -3.9212,-7.1645 l -93.1279,-27.2409 c -0.5759,-0.1685 -1.1559,-0.2439 -1.7245,-0.2349 z m -1.9606,38.8719 79.0959,23.1355 -16.5229,23.8262 c -0.2481,0.3573 -0.6755,0.5426 -1.0982,0.4899 v 0 c -0.061,-0.012 -0.1214,-0.02 -0.1807,-0.039 l -59.3827,-17.3699 c -0.4774,-0.1398 -0.8147,-0.5744 -0.8333,-1.0706 z" />
  </g>
</svg>
