<?xml version="1.0" encoding="UTF-8" standalone="no"?>
<svg
   xmlns:dc="http://purl.org/dc/elements/1.1/"
   xmlns:cc="http://creativecommons.org/ns#"
   xmlns:rdf="http://www.w3.org/1999/02/22-rdf-syntax-ns#"
   xmlns:svg="http://www.w3.org/2000/svg"
   xmlns="http://www.w3.org/2000/svg"
   xmlns:sodipodi="http://sodipodi.sourceforge.net/DTD/sodipodi-0.dtd"
   xmlns:inkscape="http://www.inkscape.org/namespaces/inkscape"
   sodipodi:docname="7.22.3.svg"
   inkscape:version="1.0 (4035a4fb49, 2020-05-01)"
   version="1.1"
   id="svg4249"
   viewBox="-2 -2 333.0222 163.79744"
   height="300"
   width="600">
  <title
     id="title4130">7.22.3 Вид опасности</title>
  <metadata
     id="metadata4261">
    <rdf:RDF>
      <cc:Work
         rdf:about="">
        <dc:format>image/svg+xml</dc:format>
        <dc:type
           rdf:resource="http://purl.org/dc/dcmitype/StillImage" />
        <dc:title>7.22.3 Вид опасности</dc:title>
      </cc:Work>
    </rdf:RDF>
  </metadata>
  <defs
     id="defs4259">
    <inkscape:path-effect
       lpeversion="0"
       is_visible="true"
       id="path-effect3019"
       effect="spiro" />
    <inkscape:path-effect
       lpeversion="0"
       is_visible="true"
       id="path-effect3015"
       effect="spiro" />
    <pattern
       id="EMFhbasepattern"
       patternUnits="userSpaceOnUse"
       width="6"
       height="6"
       x="0"
       y="0" />
  </defs>
  <sodipodi:namedview
     inkscape:document-rotation="0"
     fit-margin-bottom="0"
     fit-margin-right="0"
     fit-margin-left="0"
     fit-margin-top="0"
     inkscape:current-layer="g3789"
     inkscape:window-maximized="1"
     inkscape:window-y="-9"
     inkscape:window-x="-9"
     inkscape:cy="274.73125"
     inkscape:cx="434.10715"
     inkscape:zoom="0.79824493"
     showgrid="true"
     id="namedview4257"
     inkscape:window-height="1001"
     inkscape:window-width="1920"
     inkscape:pageshadow="2"
     inkscape:pageopacity="0"
     guidetolerance="10"
     gridtolerance="10"
     objecttolerance="10"
     borderopacity="1"
     bordercolor="#666666"
     pagecolor="#ffffff">
    <inkscape:grid
       originy="-1167.672"
       originx="-837.8223"
       snapvisiblegridlinesonly="true"
       enabled="true"
       visible="true"
       empspacing="5"
       id="grid2999"
       type="xygrid" />
  </sodipodi:namedview>
  <g
     transform="translate(-837.8223,-1187.017)"
     id="g3789"
     inkscape:groupmode="layer">
    <path
       d="m 860.79887,1183.6602 h 283.06893 c 13.8371,0 24.9767,11.1394 24.9767,24.9766 v 116.5579 c 0,13.837 -11.1396,24.9766 -24.9767,24.9766 H 860.79887 c -13.83713,0 -24.97657,-11.1396 -24.97657,-24.9766 v -116.5579 c 0,-13.8372 11.13944,-24.9766 24.97657,-24.9766 z"
       style="color:#000000;display:inline;overflow:visible;visibility:visible;opacity:1;fill:#000000;fill-opacity:1;fill-rule:nonzero;stroke:none;stroke-width:1.9665;marker:none;enable-background:accumulate"
       id="path7674" />
    <path
       d="m 860.79887,1189.2104 h 283.06893 c 10.7623,0 19.4264,8.6641 19.4264,19.4263 v 116.5579 c 0,10.7621 -8.6641,19.4263 -19.4264,19.4263 H 860.79887 c -10.762,0 -19.42618,-8.6642 -19.42618,-19.4263 v -116.5579 c 0,-10.7622 8.66418,-19.4263 19.42618,-19.4263 z"
       style="color:#000000;display:inline;overflow:visible;visibility:visible;opacity:1;fill:#ffffff;fill-opacity:1;fill-rule:nonzero;stroke:none;stroke-width:1.9665;marker:none;enable-background:accumulate"
       id="path7676" />
    <path
       id="path4637"
       style="opacity:1;fill:#000000;fill-opacity:1;fill-rule:evenodd;stroke-width:77.7052;stroke-linecap:round;paint-order:stroke markers fill"
       d="m 1077.4123,1213.5787 c -6.392,0 -10.6436,4.8959 -10.6436,9.7927 0,4.2517 3.0191,8.0342 6.8311,8.0342 4.1929,0 11.4364,-4.2509 11.4364,-10.3204 0,-4.3399 -3.6066,-7.5065 -7.6239,-7.5065 z m -45.3696,15.2907 c -1.2468,0 -2.251,1.0041 -2.251,2.251 v 29.3644 l -22.7845,-21.0564 c -0.987,-0.912 -2.5167,-0.852 -3.4288,0.1351 l -2.2194,2.4012 c -0.9122,0.9871 -0.8518,2.5155 0.1351,3.4275 l 30.2103,27.919 c 0.5042,0.466 1.1498,0.6744 1.7825,0.6387 0.6323,0.035 1.2774,-0.1742 1.7814,-0.64 l 30.2102,-27.9177 c 0.9869,-0.912 1.0472,-2.4404 0.135,-3.4275 l -2.2193,-2.4012 c -0.912,-0.9871 -2.4405,-1.0471 -3.4275,-0.1351 l -22.0536,20.3796 v -28.6876 c 0,-1.2469 -1.0028,-2.251 -2.2497,-2.251 z m 51.4724,1.5957 c -0.9314,0 -1.8621,0.2399 -2.6967,0.7208 l -6.9635,4.021 c -0.8347,0.4835 -1.3484,1.3722 -1.3484,2.3367 v 28.6726 l -13.5699,13.5689 c -0.277,0.2769 -0.4723,0.6235 -0.5669,1.0036 l -7.5065,30.1029 c -0.1014,0.4054 -0.1515,0.8218 -0.1515,1.2397 0,2.8305 2.2938,5.1255 5.1242,5.1255 2.3529,0 4.4046,-1.6026 4.9741,-3.8857 l 5.9271,-23.7769 c 0.094,-0.3802 0.2913,-0.7268 0.5682,-1.0036 l 21.5386,-21.5387 c 0.5058,-0.5057 0.7902,-1.1919 0.7902,-1.9074 v -22.637 l 7.283,4.2065 c 0.6673,0.3852 1.0782,1.0977 1.0782,1.8684 v 16.076 c 0,2.2346 1.8128,4.0461 4.0474,4.0461 2.2348,0 4.0461,-1.8119 4.0461,-4.0461 v -18.881 c 0,-1.9261 -1.0284,-3.7093 -2.6978,-4.6712 l -17.1781,-9.9203 c -0.8346,-0.4809 -1.7664,-0.7208 -2.6978,-0.7208 z m -165.80056,13.724 c -1.88134,0 -3.67546,0.823 -4.89707,2.2536 l -23.80713,27.8798 c -1.27286,1.4901 -1.8018,3.4807 -1.42786,5.4044 l 3.36312,17.3031 c 0.39502,2.0323 1.91255,3.6517 3.91232,4.1875 l 3.26845,0.8888 c 1.14173,-8.3376 8.32575,-14.7643 17.01776,-14.7643 9.48624,0 17.17556,7.6516 17.17556,17.091 h 61.08967 c 0,-9.4394 7.69074,-17.091 17.17684,-17.091 8.2931,0 15.2176,5.8388 16.8271,13.6116 2.8488,-0.083 5.1668,-2.3485 5.267,-5.2139 l 0.2107,-12.2052 c 0.057,-3.248 -2.3139,-6.0319 -5.5308,-6.4839 l -34.28915,-4.8226 c -1.45895,-0.2049 -2.80273,-0.9008 -3.80751,-1.9782 l -22.40081,-24.0193 c -1.21637,-1.3043 -2.92303,-2.0414 -4.70643,-2.0414 z m 152.09416,4.767 -15.4031,15.4044 c -0.7589,0.7586 -1.1854,1.7875 -1.1854,2.8608 0,2.2344 1.8114,4.046 4.0462,4.046 1.0731,0 2.1016,-0.4265 2.8606,-1.1854 l 9.6817,-9.6817 z m -152.47544,0.3106 h 44.11476 c 1.12636,0 2.20369,0.4664 2.97183,1.2902 l 14.20373,15.2301 c 0.70129,0.7519 1.08956,1.743 1.08956,2.771 0,2.2431 -1.81811,4.0613 -4.06127,4.0613 h -60.41306 c -0.2661,0 -0.52999,-0.021 -0.79283,-0.063 -2.7692,-0.4387 -4.65892,-3.0381 -4.22035,-5.8073 l 2.09445,-13.1988 c 0.3906,-2.4665 2.51591,-4.2836 5.01318,-4.2836 z m 170.79974,22.3099 -7.5026,7.504 20.5614,35.6148 c 0.9155,1.5854 2.6077,2.5614 4.4388,2.5614 2.8302,0 5.1243,-2.295 5.1243,-5.1255 0,-0.8996 -0.237,-1.7837 -0.6869,-2.5627 z m -172.98631,18.64 c -7.85061,0 -14.21514,6.3632 -14.21514,14.2138 0,7.8505 6.36453,14.2152 14.21514,14.2152 7.8505,0 14.21387,-6.3647 14.21387,-14.2152 0,-7.8506 -6.36337,-14.2138 -14.21387,-14.2138 z m 95.44081,0 c -7.8506,0 -14.21388,6.3632 -14.21388,14.2138 0,7.8505 6.36328,14.2152 14.21388,14.2152 7.8505,0 14.215,-6.3647 14.215,-14.2152 0,-7.8506 -6.3645,-14.2138 -14.215,-14.2138 z m -95.44081,5.753 c 4.67301,0 8.46085,3.7878 8.46085,8.4608 0,4.673 -3.78784,8.4623 -8.46085,8.4623 -4.67289,0 -8.46096,-3.7893 -8.46096,-8.4623 0,-4.673 3.78807,-8.4608 8.46096,-8.4608 z m 95.44081,0 c 4.6729,0 8.4621,3.7878 8.4621,8.4608 0,4.673 -3.7892,8.4623 -8.4621,8.4623 -4.6729,0 -8.461,-3.7893 -8.461,-8.4623 0,-4.673 3.7881,-8.4608 8.461,-8.4608 z m -155.90429,22.8212 v 10.9693 h 293.63939 v -10.9693 z" />
  </g>
</svg>
