<?xml version="1.0" encoding="UTF-8" standalone="no"?>
<svg
   xmlns:dc="http://purl.org/dc/elements/1.1/"
   xmlns:cc="http://creativecommons.org/ns#"
   xmlns:rdf="http://www.w3.org/1999/02/22-rdf-syntax-ns#"
   xmlns:svg="http://www.w3.org/2000/svg"
   xmlns="http://www.w3.org/2000/svg"
   xmlns:sodipodi="http://sodipodi.sourceforge.net/DTD/sodipodi-0.dtd"
   xmlns:inkscape="http://www.inkscape.org/namespaces/inkscape"
   width="600"
   height="299.99982"
   viewBox="-2 -2 333.0222 163.79734"
   id="svg4249"
   version="1.1"
   inkscape:version="1.0 (4035a4fb49, 2020-05-01)"
   sodipodi:docname="7.24.svg">
  <title
     id="title4130">7.24 Служыце прыкладам свайму дзіцяці</title>
  <metadata
     id="metadata4261">
    <rdf:RDF>
      <cc:Work
         rdf:about="">
        <dc:format>image/svg+xml</dc:format>
        <dc:type
           rdf:resource="http://purl.org/dc/dcmitype/StillImage" />
        <dc:title>7.24 Служыце прыкладам свайму дзіцяці</dc:title>
      </cc:Work>
    </rdf:RDF>
  </metadata>
  <defs
     id="defs4259">
    <inkscape:path-effect
       effect="spiro"
       id="path-effect3019"
       is_visible="true"
       lpeversion="0" />
    <inkscape:path-effect
       effect="spiro"
       id="path-effect3015"
       is_visible="true"
       lpeversion="0" />
    <pattern
       y="0"
       x="0"
       height="6"
       width="6"
       patternUnits="userSpaceOnUse"
       id="EMFhbasepattern" />
  </defs>
  <sodipodi:namedview
     pagecolor="#ffffff"
     bordercolor="#666666"
     borderopacity="1"
     objecttolerance="10"
     gridtolerance="10"
     guidetolerance="10"
     inkscape:pageopacity="0"
     inkscape:pageshadow="2"
     inkscape:window-width="1920"
     inkscape:window-height="1001"
     id="namedview4257"
     showgrid="true"
     inkscape:zoom="0.79824493"
     inkscape:cx="559.67148"
     inkscape:cy="83.362837"
     inkscape:window-x="-9"
     inkscape:window-y="-9"
     inkscape:window-maximized="1"
     inkscape:current-layer="g3789"
     fit-margin-top="0"
     fit-margin-left="0"
     fit-margin-right="0"
     fit-margin-bottom="0"
     inkscape:document-rotation="0">
    <inkscape:grid
       type="xygrid"
       id="grid2999"
       empspacing="5"
       visible="true"
       enabled="true"
       snapvisiblegridlinesonly="true"
       originx="-990.4067"
       originy="-1190.0161" />
  </sodipodi:namedview>
  <g
     id="g3789"
     transform="translate(-990.40669,-1209.7313)">
    <path
       d="m 1013.3833,1206.3745 h 283.0689 c 13.8371,0 24.9767,11.1395 24.9767,24.9766 v 116.5579 c 0,13.837 -11.1396,24.9765 -24.9767,24.9765 h -283.0689 c -13.83706,0 -24.97661,-11.1395 -24.97661,-24.9765 v -116.5579 c 0,-13.8371 11.13955,-24.9766 24.97661,-24.9766 z"
       style="color:#000000;display:inline;overflow:visible;visibility:visible;opacity:1;fill:#000000;fill-opacity:1;fill-rule:nonzero;stroke:none;stroke-width:1.9665;marker:none;enable-background:accumulate"
       id="path4132" />
    <path
       d="m 1013.3833,1211.9247 h 283.0689 c 10.7622,0 19.4264,8.6642 19.4264,19.4263 v 116.5579 c 0,10.7621 -8.6642,19.4263 -19.4264,19.4263 h -283.0689 c -10.7621,0 -19.42615,-8.6642 -19.42615,-19.4263 V 1231.351 c 0,-10.7621 8.66405,-19.4263 19.42615,-19.4263 z"
       style="color:#000000;display:inline;overflow:visible;visibility:visible;opacity:1;fill:#ffcc00;fill-opacity:1;fill-rule:nonzero;stroke:none;stroke-width:1.9665;marker:none;enable-background:accumulate"
       id="path4134" />
    <g
       aria-label="!"
       id="text10977"
       style="font-size:120.807px;line-height:97.02%;font-family:BywayEMod;-inkscape-font-specification:BywayEMod;text-align:center;text-anchor:middle;opacity:1;fill:#075739;fill-opacity:1;stroke-width:0.293334"
       transform="matrix(1.8921714,0,0,1.8921714,985.29989,1205.546)">
      <path
         id="path938"
         style="font-style:normal;font-variant:normal;font-weight:normal;font-stretch:normal;font-family:'Russian Road Sign';-inkscape-font-specification:'Russian Road Sign';opacity:1;fill:#075739;fill-opacity:1;stroke-width:0.293334"
         d="m 20.449219,10.917969 a 5.7110953,5.7110953 0 0 0 -5.583985,5.710937 5.7110953,5.7110953 0 0 0 5.710938,5.710938 5.7110953,5.7110953 0 0 0 5.71289,-5.710938 5.7110953,5.7110953 0 0 0 -5.71289,-5.710937 5.7110953,5.7110953 0 0 0 -0.126953,0 z m 139.380861,0.224609 c -5.91955,0 -7.12696,4.590006 -7.12696,7.126953 0,5.073894 4.56055,43.701172 4.56055,43.701172 h 5.53321 c 0,0 4.16015,-38.627278 4.16015,-43.701172 0,-2.536947 -1.20741,-7.126953 -7.12695,-7.126953 z M 16.214844,24.033203 c -0.162209,-0.0012 -0.353963,0.0086 -0.472656,0.05664 -0.17958,0.07212 -0.156876,0.104069 -0.417969,0.361328 -0.735612,0.724658 -2.289058,2.345228 -3.421875,4.164062 -1.372036,2.20292 -2.002499,4.666628 -1.855469,6.638672 0.133112,1.785384 0.331861,4.806571 1.498047,6.820313 0.358481,0.619022 1.028312,1.266477 1.58789,1.441406 1.244717,0.389121 2.490235,-0.277344 2.490235,-0.277344 0,0 -3.568362,-3.378101 -3.568359,-7.585937 0.119379,-5.184352 3.687497,-7.308594 3.6875,-7.308594 l 0.02148,14.935547 c -3.205967,1.054854 -5.572128,3.937931 -5.7832032,7.453125 -0.0047,0.04283 -0.025391,0.08091 -0.025391,0.125 v 0.390625 7.216797 c 0,0.67165 0.5392872,1.210937 1.2109382,1.210937 h 7.21875 5.02539 7.216797 c 0.671651,0 1.212891,-0.539287 1.212891,-1.210937 v -7.216797 -0.390625 c 0,-0.0473 -0.02216,-0.0889 -0.02734,-0.134766 -0.211803,-3.466177 -2.497032,-6.34624 -5.636719,-7.433594 V 28.386719 c 0,0 3.256027,1.629902 4.189453,3.09375 2.322382,3.642082 3.279027,11.665886 2.580078,12.701172 -0.09895,0.146585 0.0048,0.561755 0.123047,0.992187 l 7.142579,6.595703 v 2.675781 1.097657 3.617187 c -1.486214,0.489016 -2.572074,1.839187 -2.669922,3.46875 -0.0023,0.01989 -0.01172,0.03813 -0.01172,0.05859 v 0.179688 3.345703 c 0,0.311357 0.249179,0.5625 0.560547,0.5625 h 3.345703 4.683594 3.347656 c 0.311358,0 0.739653,-0.307821 0.560547,-0.5625 V 62.867188 62.6875 c 0,-0.02188 -0.0094,-0.04121 -0.01172,-0.0625 -0.09825,-1.606842 -1.157788,-2.94319 -2.613281,-3.447266 v -4.316406 l 5.060547,4.884766 0.917968,-0.56836 -5.978515,-8.527343 c 0,0 -0.06984,-0.202687 -0.16211,-0.294922 -0.123602,-0.123605 -0.365234,-0.0957 -0.365234,-0.0957 h -6.353516 c 0,0 -0.201969,-0.03182 -0.269531,0.04102 -0.02235,0.203015 -6.109145,-5.468603 -6.283203,-5.630859 0.101185,-0.08142 0.211229,-0.147775 0.302734,-0.248047 0.850393,-0.931897 1.29377,-5.502544 0.585938,-8.125 -0.60609,-2.245526 -1.326428,-4.940153 -2.751953,-6.828125 -1.44268,-1.910705 -3.596402,-3.015164 -5.167969,-4.767578 -0.223546,-0.249267 -0.44962,-0.53627 -0.763672,-0.652344 -0.102719,-0.03801 -0.328125,0 -0.328125,0 H 16.50781 c 0,0 -0.130758,-0.01399 -0.292968,-0.01563 z M 43.46875,40.925781 a 3.6862197,3.6862197 0 0 0 -3.685547,3.685547 3.6862197,3.6862197 0 0 0 3.685547,3.6875 3.6862197,3.6862197 0 0 0 3.6875,-3.6875 3.6862197,3.6862197 0 0 0 -3.6875,-3.685547 z M 13,60 v 18.5 c 0,0.831 0.669,1.5 1.5,1.5 0.831,0 1.5,-0.669 1.5,-1.5 V 60 Z m 11.400391,0 v 18.5 c 0,0.831 0.669,1.5 1.5,1.5 0.831,0 1.5,-0.669 1.5,-1.5 V 60 Z m 15.548828,7.003906 v 12.021485 c 0,0.540012 0.434597,0.974609 0.974609,0.974609 0.540012,0 0.976563,-0.434597 0.976563,-0.974609 V 67.003906 Z m 6,0 v 12.021485 c 0,0.540012 0.434597,0.974609 0.974609,0.974609 0.540012,0 0.976563,-0.434597 0.976563,-0.974609 V 67.003906 Z m 114.066401,0.08984 a 6.0199008,6.0199008 0 0 0 -6.01953,6.021484 6.0199008,6.0199008 0 0 0 6.01953,6.019532 6.0199008,6.0199008 0 0 0 6.01954,-6.019532 6.0199008,6.0199008 0 0 0 -6.01954,-6.021484 z"
         transform="translate(1.641791,0.43781095)" />
      <g
         aria-label="СЛУЖЫЦЕ  ПРЫКЛАДАМ  СВАЙМУ   ДЗІЦЯЦІ"
         id="text4531"
         style="font-size:19.7949px;line-height:97.02%;font-family:BywayEMod;-inkscape-font-specification:BywayEMod;text-align:center;letter-spacing:-1.5px;text-anchor:middle;fill:#075739;fill-opacity:1;stroke-width:0.293333">
        <path
           sodipodi:nodetypes="sssccsssccsccccccccsccccsccccccccsssccccssscccccccccccccssccsccccccccssscccccccccccccccccccccccccccccccccccssscccsccccccscccccccccccccccccccccssscccssscccccccccccccccccccccccccccccscccccccccccccccccccccccccccccccccccsssccccccccccccccccssscccsccsccsssccsssccsccsscsscccccccccccccccccccccccccccccccccccssccscccccccssscccccccsssccsccsssccsssccsscsscsccccccccccccccccccccccccccccccsscscccsccccscccccccccccccccccccccccsccsss"
           transform="matrix(0.29333336,0,0,0.29333336,1.6419231,0.43784132)"
           d="m 226.52539,35.064453 c -10.39232,0 -15.38672,8.907661 -15.38672,19.839844 0,10.999666 4.9944,19.841797 15.38672,19.841797 7.15316,0 11.33733,-4.251661 13.69922,-10.392578 l -6.34375,-2.363282 c -1.41714,4.723783 -3.91386,6.613282 -7.35547,6.613282 -5.19616,0 -8.97656,-5.196409 -8.97656,-13.699219 0,-8.502807 3.7804,-13.697266 8.97656,-13.697266 3.44161,0 5.93833,1.8895 7.35547,6.613281 l 6.34375,-2.363281 c -2.36189,-6.140917 -6.54606,-10.392578 -13.69922,-10.392578 z m 90.09766,0.472656 -1.88867,6.34375 c 3.64404,0 4.72376,1.687215 6.61328,4.521485 1.61958,2.496855 4.72309,6.613957 6.41015,6.816406 -4.52133,0.269932 -5.93889,3.779169 -8.30078,7.828125 -2.76679,4.791265 -4.72265,10.189568 -8.0293,12.753906 h 8.50196 c 1.41713,-2.361889 4.72405,-8.502501 7.08593,-12.753906 1.68707,-2.969233 3.30581,-4.724609 5.19532,-4.724609 0.94476,0 2.83594,0.203125 2.83594,0.203125 v 17.27539 h 6.61328 v -17.27539 c 0,0 1.88922,-0.203125 2.83398,-0.203125 1.88952,0 3.50822,1.755376 5.19531,4.724609 2.36189,4.251405 5.66882,10.392017 7.08594,12.753906 h 8.50391 c -3.30665,-2.564338 -5.26444,-7.962641 -8.03125,-12.753906 -2.36189,-4.048956 -3.77944,-7.558197 -8.30078,-7.828125 1.68705,-0.202466 4.79251,-4.319551 6.41211,-6.816406 1.88947,-2.83427 2.9692,-4.521485 6.61328,-4.521485 l -1.89063,-6.34375 c -2.36188,0.134966 -4.52103,0.946147 -6.14062,2.363282 -4.85874,4.251405 -6.54622,12.550781 -11.60743,12.550781 h -0.20312 c -0.27,0 -0.33581,-0.0673 -0.4707,-0.134766 v -14.30664 h -6.61328 v 14.30664 c -0.13497,0.0675 -0.20272,0.134766 -0.47266,0.134766 h -0.20313 c -5.06119,0 -6.74867,-8.299376 -11.60742,-12.550781 -1.61958,-1.417135 -3.77873,-2.228319 -6.14062,-2.363282 z m -65.88672,0.472657 c 0,8.502807 -2.8e-4,22.675495 -0.47266,25.509765 -0.87727,5.19616 -7.2207,6.882813 -7.2207,6.882813 l 1.08008,6.34375 c 0,0 11.40425,-0.945286 12.7539,-14.171875 0.47238,-4.723783 0.47266,-18.896485 0.47266,-18.896485 h 10.39062 v 32.123047 h 6.61329 V 36.009766 Z m 28.44922,0 c 0,0 13.02539,26.926615 13.02539,28.34375 0,1.417135 -2.15959,3.779296 -4.52149,3.779296 -1.88951,0 -3.77929,-0.472656 -3.77929,-0.472656 l 1.41601,5.9375 c 0.47238,0.202432 1.41713,0.337891 3.30664,0.337891 3.30665,0 7.62691,-2.698812 8.97657,-6.275391 l 12.28124,-31.65039 h -7.08593 l -7.5586,19.839843 -8.97461,-19.839843 z m 90.45898,0 v 37.791015 h 13.69922 c 9.44754,0 12.75391,-7.557467 12.75391,-12.28125 0,-4.723786 -2.36105,-10.865234 -11.8086,-10.865234 h -8.03125 V 36.009766 Z m 29.28711,0 v 37.791015 h 6.61328 V 36.009766 Z m 11.94922,0 v 37.791015 h 25.98047 v 7.558594 h 5.66992 V 68.132812 H 438.2793 V 36.009766 h -6.61328 V 68.132812 H 417.49414 V 36.009766 Z m 36.44922,0 v 37.791015 h 24.0918 v -5.667969 h -17.47852 v -11.33789 h 13.69922 v -5.667969 h -13.69922 v -8.976562 h 17.00586 v -6.140625 z m -71.07227,20.3125 h 6.61328 c 4.25141,0 6.61329,2.3616 6.61329,6.140625 0,3.779028 -2.36188,5.669921 -6.61329,5.669921 h -6.61328 z m -60.76562,44.214844 c -9.78498,0.94476 -11.74178,15.18359 -18.625,15.18359 -0.3374,0 -0.60722,2e-4 -0.74219,-0.13476 v -14.10352 h -6.61328 v 37.78906 h 6.61328 v -17.27539 c 0,0 1.88923,-0.20117 2.83398,-0.20117 2.83427,0 4.45357,1.75342 6.14063,4.72266 2.36189,4.2514 6.14078,10.39201 7.35547,12.7539 h 8.23242 c -3.30665,-2.56433 -5.73517,-7.96264 -8.50195,-12.7539 -2.3619,-4.04896 -3.78013,-7.55692 -8.50391,-8.0293 1.82203,0 4.79125,-4.25139 6.61328,-6.61328 2.02448,-2.6993 2.96922,-4.72461 6.61328,-4.72461 z m -135.90625,0.94531 v 37.78906 h 6.61328 v -32.12109 h 14.16992 v 32.12109 h 6.61328 v -37.78906 z m 34.55859,0 v 37.78906 h 6.61328 v -13.22656 h 6.14063 c 8.97519,0 12.28125,-7.08509 12.28125,-12.28125 0,-5.19616 -3.30606,-12.28125 -12.28125,-12.28125 z m 32.71289,0 v 37.78906 h 13.69922 c 9.44757,0 12.75391,-7.55746 12.75391,-12.28125 0,-4.72378 -2.36103,-10.86523 -11.8086,-10.86523 h -8.03125 v -14.64258 z m 29.28711,0 v 37.78906 h 6.61328 v -37.78906 z m 53.59375,0 c 0,8.50281 -2.8e-4,22.67354 -0.47266,25.50781 -0.87726,5.19617 -7.2207,6.88282 -7.2207,6.88282 l 1.08008,6.34375 c 0,0 11.40427,-0.94529 12.75391,-14.17188 0.47239,-4.72378 0.47265,-18.89453 0.47265,-18.89453 h 10.39258 v 32.12109 h 6.61328 v -37.78906 z m 41.67774,0 -12.28321,37.78906 h 7.08594 l 2.36328,-7.55664 h 13.22656 l 2.36133,7.55664 h 7.08594 l -12.2832,-37.78906 z m 31.20703,0 v 5.66797 c 0,9.11015 -2.36247,21.72934 -4.25196,26.45313 h -4.25 v 12.28125 h 5.66797 v -6.61329 h 23.61914 v 6.61329 h 5.66797 v -12.28125 h -4.25195 v -32.1211 z m 41.59961,0 -12.28125,37.78906 h 7.08593 l 2.36133,-7.55664 h 13.22656 l 2.36133,7.55664 h 7.08594 l -12.28125,-37.78906 z m 27.90234,0 -4.25195,37.78906 h 7.08593 l 2.36133,-27.86914 9.91992,22.20118 9.91993,-22.20118 2.36132,27.86914 h 7.08594 l -4.25,-37.78906 h -6.61328 l -8.50391,18.42188 -8.50195,-18.42188 z m -251.36719,5.66797 h 4.25 c 3.77903,0 7.5586,1.8895 7.5586,6.61328 0,4.72378 -3.77957,6.61328 -7.5586,6.61328 h -4.25 z m 188.47852,0 h 8.97461 v 26.45313 H 404.7832 c 2.56436,-6.14092 4.45313,-17.47794 4.45313,-26.45313 z m -34.04102,2.83399 4.72266,16.06054 h -9.44727 z m 72.80664,0 4.72461,16.06054 H 443.2793 Z M 253.4707,121.79492 h 6.61328 c 4.25141,0 6.61329,2.3616 6.61329,6.14063 0,3.77902 -2.36188,5.66797 -6.61329,5.66797 h -6.61328 z m 77.47461,32.87696 c 0,3.77901 3.77929,9.44726 10.39258,9.44726 6.6133,0 9.91992,-5.66825 9.91992,-9.44726 h -4.25 c 0,2.83426 -1.89091,5.19531 -5.66992,5.19531 -3.77901,0 -5.66797,-2.36105 -5.66797,-5.19531 z m -91.4375,11.33593 c -10.39232,0 -15.38672,8.90766 -15.38672,19.83985 0,10.99966 4.9944,19.83984 15.38672,19.83984 7.15316,0 11.33733,-4.24972 13.69922,-10.39062 l -6.34375,-2.36329 c -1.41713,4.72379 -3.91385,6.61328 -7.35547,6.61329 -5.19616,0 -8.97656,-5.19642 -8.97656,-13.69922 0,-8.50281 3.7804,-13.69727 8.97656,-13.69727 3.44162,0 5.93834,1.8895 7.35547,6.61328 l 6.34375,-2.36328 c -2.36189,-6.14092 -6.54606,-10.39258 -13.69922,-10.39258 z m 19.01367,0.94531 v 37.79102 h 14.71094 c 7.01819,0 12.21485,-5.19697 12.21485,-11.33789 0,-4.25141 -2.83426,-7.08482 -6.61329,-8.50195 3.30665,-1.41714 5.39844,-4.72433 5.39844,-7.5586 0,-4.99371 -3.98073,-10.39257 -11.0664,-10.39258 z m 43.57813,0 -12.28125,37.79102 h 7.08594 l 2.36132,-7.55859 h 13.22657 l 2.36133,7.55859 h 7.08593 L 309.6582,166.95312 Z m 25.53906,0 v 37.79102 h 7.08594 l 13.69922,-25.98047 v 25.98047 h 6.61328 v -37.79102 h -7.08594 l -13.69922,25.98047 v -25.98047 z m 36.92188,0 -4.25196,37.79102 h 7.08594 l 2.36133,-27.87109 9.91992,22.20117 9.91992,-22.20117 2.36133,27.87109 h 7.08594 l -4.25,-37.79102 h -6.61328 l -8.50391,18.42383 -8.50195,-18.42383 z m 37.34765,0 c 0,0 13.02344,26.92662 13.02344,28.34376 0,1.41712 -2.1596,3.77734 -4.52148,3.77734 -1.88953,0 -3.7793,-0.4707 -3.7793,-0.4707 l 1.41797,5.9375 c 0.4724,0.20243 1.41715,0.33789 3.30664,0.33789 3.30665,0 7.62495,-2.69882 8.97461,-6.27539 l 12.2832,-31.6504 h -7.08594 l -7.55859,19.83985 -8.97461,-19.83985 z m -136.77343,5.66797 h 7.55859 c 2.36189,0 4.72461,1.55273 4.72461,4.85938 0,2.83427 -1.89034,4.85937 -4.72461,4.85937 h -7.55859 z m 40.74414,2.83594 4.72461,16.06055 h -9.44727 z m -40.74414,12.28125 h 8.03125 c 3.77902,0 5.66796,2.96867 5.66796,5.66797 0,2.6993 -1.88894,5.66797 -5.66796,5.66797 h -8.03125 z m 11.39648,43.74219 c -7.55805,0 -13.02344,4.25195 -13.02344,4.25195 l 3.57617,5.5332 c 0,0 2.83397,-3.64453 9.44727,-3.64453 5.19616,0 6.00586,3.77818 6.00586,5.19532 0,1.41713 -1.28152,4.72461 -5.06055,4.72461 h -4.25195 v 5.66796 h 4.25195 c 3.30665,0 5.73633,2.3616 5.73633,6.14063 0,3.30665 -2.90262,5.66992 -6.68164,5.66992 -7.08568,0 -10.39258,-4.25195 -10.39258,-4.25195 l -3.98047,5.33203 c 0,0 5.86996,5.06055 13.90039,5.06055 9.44757,0 13.90235,-6.88404 13.90235,-11.33789 0,-8.30037 -7.76172,-9.44727 -7.76172,-9.44727 0,0 6.47851,-1.41628 6.47851,-8.50195 0,-5.66854 -4.52095,-10.39258 -12.14648,-10.39258 z m -42.27539,0.94531 v 5.66797 c 0,9.11015 -2.36048,21.72934 -4.25,26.45313 h -4.25195 v 12.28124 h 5.66797 v -6.61328 h 23.61914 v 6.61328 h 5.66796 v -12.28124 h -4.25 v -32.1211 z m 60.94531,0 v 37.78906 h 6.61328 v -37.78906 z m 11.84375,0 v 37.78906 h 25.98242 v 7.5586 h 5.66797 v -13.22656 h -4.25195 v -32.1211 h -6.61328 v 32.1211 H 313.6582 v -32.1211 z m 50.14844,0 c -9.44755,0 -12.2832,6.6116 -12.2832,10.39063 0,5.19616 3.30744,8.77399 8.03125,9.71875 -1.88953,0.40489 -4.65571,3.03654 -5.66797,5.39843 -1.41713,3.30665 -5.80378,11.60643 -7.08594,12.28125 h 8.0293 c 1.88952,-3.30665 3.17317,-5.93729 4.92773,-9.3789 1.61959,-3.1042 2.63141,-5.73633 6.88281,-5.73633 h 4.25196 v 15.11523 h 6.61328 v -37.78906 z m 18.9707,0 v 37.78906 h 25.98047 v 7.5586 h 5.66797 v -13.22656 h -4.25195 v -32.1211 h -6.61328 v 32.1211 h -14.16993 v -32.1211 z m 36.44727,0 v 37.78906 h 6.61328 v -37.78906 z m -171.74219,5.66797 h 8.97656 v 26.45313 h -13.42968 c 2.56433,-6.14092 4.45312,-17.47794 4.45312,-26.45313 z m 118.21289,0 h 5.19727 v 11.33594 h -5.66992 c -3.77905,0 -7.08594,-1.61901 -7.08594,-5.66797 0,-4.04896 3.77958,-5.66797 7.55859,-5.66797 z"
           style="font-style:normal;font-variant:normal;font-weight:normal;font-stretch:normal;font-family:'Russian Road Sign';-inkscape-font-specification:'Russian Road Sign';fill:#000000;fill-opacity:1;stroke-width:0.999999"
           id="path4539" />
      </g>
    </g>
  </g>
</svg>
