<?xml version="1.0" encoding="UTF-8" standalone="no"?>
<svg
   xmlns:dc="http://purl.org/dc/elements/1.1/"
   xmlns:cc="http://creativecommons.org/ns#"
   xmlns:rdf="http://www.w3.org/1999/02/22-rdf-syntax-ns#"
   xmlns:svg="http://www.w3.org/2000/svg"
   xmlns="http://www.w3.org/2000/svg"
   xmlns:sodipodi="http://sodipodi.sourceforge.net/DTD/sodipodi-0.dtd"
   xmlns:inkscape="http://www.inkscape.org/namespaces/inkscape"
   width="599.99927"
   height="300"
   viewBox="-2 -2 333.02179 163.79744"
   id="svg4249"
   version="1.1"
   inkscape:version="1.0 (4035a4fb49, 2020-05-01)"
   sodipodi:docname="7.7_(Road_sign).svg">
  <title
     id="title4130">7.7 Количество опасных поворотов</title>
  <metadata
     id="metadata4261">
    <rdf:RDF>
      <cc:Work
         rdf:about="">
        <dc:format>image/svg+xml</dc:format>
        <dc:type
           rdf:resource="http://purl.org/dc/dcmitype/StillImage" />
        <dc:title>7.7 Количество опасных поворотов</dc:title>
      </cc:Work>
    </rdf:RDF>
  </metadata>
  <defs
     id="defs4259">
    <inkscape:path-effect
       effect="spiro"
       id="path-effect3019"
       is_visible="true"
       lpeversion="0" />
    <inkscape:path-effect
       effect="spiro"
       id="path-effect3015"
       is_visible="true"
       lpeversion="0" />
  </defs>
  <sodipodi:namedview
     pagecolor="#ffffff"
     bordercolor="#666666"
     borderopacity="1"
     objecttolerance="10"
     gridtolerance="10"
     guidetolerance="10"
     inkscape:pageopacity="0"
     inkscape:pageshadow="2"
     inkscape:window-width="1920"
     inkscape:window-height="1001"
     id="namedview4257"
     showgrid="true"
     inkscape:zoom="2.1666693"
     inkscape:cx="299.99963"
     inkscape:cy="155.05897"
     inkscape:window-x="-9"
     inkscape:window-y="-9"
     inkscape:window-maximized="1"
     inkscape:current-layer="g3789"
     fit-margin-top="0"
     fit-margin-left="0"
     fit-margin-right="0"
     fit-margin-bottom="0"
     inkscape:document-rotation="0">
    <inkscape:grid
       type="xygrid"
       id="grid2999"
       empspacing="5"
       visible="true"
       enabled="true"
       snapvisiblegridlinesonly="true"
       originx="-1238.953"
       originy="-75.73817" />
  </sodipodi:namedview>
  <g
     id="g3789"
     transform="translate(-1238.953,-76.992936)">
    <path
       d="m 1261.9293,73.636107 h 283.0689 c 13.837,0 24.9766,11.139643 24.9766,24.976763 v 116.55779 c 0,13.83694 -11.1396,24.97655 -24.9766,24.97655 h -283.0689 c -13.8368,0 -24.9763,-11.13961 -24.9763,-24.97655 V 98.61287 c 0,-13.83712 11.1395,-24.976763 24.9763,-24.976763 z"
       style="color:#000000;display:inline;overflow:visible;visibility:visible;opacity:1;fill:#000000;fill-opacity:1;fill-rule:nonzero;stroke:none;stroke-width:1.9665;marker:none;enable-background:accumulate"
       id="path4105" />
    <path
       d="m 1261.9293,79.18638 h 283.0689 c 10.7622,0 19.4264,8.664212 19.4264,19.426374 V 215.17054 c 0,10.7621 -8.6642,19.42629 -19.4264,19.42629 h -283.0689 c -10.7618,0 -19.426,-8.66419 -19.426,-19.42629 V 98.612754 c 0,-10.762162 8.6642,-19.426374 19.426,-19.426374 z"
       style="color:#000000;display:inline;overflow:visible;visibility:visible;opacity:1;fill:#ffffff;fill-opacity:1;fill-rule:nonzero;stroke:none;stroke-width:1.9665;marker:none;enable-background:accumulate"
       id="path4107" />
    <path
       sodipodi:nodetypes="sccssccscsccsscssssccssssccsssss"
       d="m 1303.2659,102.9524 c -10.0184,0 -25.762,5.18812 -32.0236,8.9451 l 6.6188,14.848 c 7.1562,-6.08272 12.1664,-8.5872 22.185,-8.5872 6.2616,0 12.523,5.00985 12.523,11.27149 0,7.51396 -10.0186,16.28031 -22.5418,18.78496 v 13.77555 c 2.5046,-1.25232 5.7248,-1.25266 8.7662,-1.25266 16.2802,0 17.7112,10.37663 17.7112,14.6703 -0.178,11.62873 -10.197,16.63752 -21.468,16.63752 -8.2296,0 -19.1434,-1.4302 -25.226,-5.54499 l 2.1474,17.5323 c 0,0 15.5642,4.29359 25.5826,4.29359 23.7944,0 36.8541,-17.53262 36.8541,-32.56052 0,-16.2802 -18.0681,-23.79471 -24.3299,-25.04703 10.0186,-1.25232 20.0363,-11.27017 20.0363,-25.04576 0,-13.77558 -14.3119,-22.72065 -26.8353,-22.72065 z m 99.7897,20.19119 c -4.0192,0.0182 -8.04,0.46096 -11.9798,1.33644 -12.0066,2.66815 -20.3226,10.52926 -28.2782,19.90943 v 22.09369 c 6.4882,-7.64991 21.9196,-19.25014 31.7114,-21.42609 9.792,-2.17598 21.1399,-2.39582 29.5107,3.13103 11.4884,7.58531 24.3336,26.58151 40.6032,34.04416 11.1796,5.12794 23.9374,6.48074 35.9442,3.8126 12.0065,-2.66816 21.1997,-9.36163 29.1553,-18.74182 v -22.09367 c -6.488,7.64989 -21.5654,17.46694 -31.3573,19.64291 -9.792,2.17598 -20.3934,1.05096 -29.5108,-3.13103 -13.3744,-6.13464 -27.615,-23.70798 -41.833,-33.42736 -6.3462,-4.33817 -14.5917,-4.93542 -22.2435,-5.13124 -0.5738,-0.0146 -1.148,-0.0217 -1.7222,-0.019 z"
       style="color:#000000;font-style:normal;font-variant:normal;font-weight:normal;font-stretch:normal;font-size:medium;line-height:normal;font-family:sans-serif;font-variant-ligatures:normal;font-variant-position:normal;font-variant-caps:normal;font-variant-numeric:normal;font-variant-alternates:normal;font-variant-east-asian:normal;font-feature-settings:normal;font-variation-settings:normal;text-indent:0;text-align:start;text-decoration:none;text-decoration-line:none;text-decoration-style:solid;text-decoration-color:#000000;letter-spacing:normal;word-spacing:normal;text-transform:none;writing-mode:lr-tb;direction:ltr;text-orientation:mixed;dominant-baseline:auto;baseline-shift:baseline;text-anchor:start;white-space:normal;shape-padding:0;shape-margin:0;inline-size:0;clip-rule:nonzero;display:inline;overflow:visible;visibility:visible;opacity:1;isolation:auto;mix-blend-mode:normal;color-interpolation:sRGB;color-interpolation-filters:linearRGB;solid-color:#000000;solid-opacity:1;vector-effect:none;fill:#000000;fill-opacity:1;fill-rule:nonzero;stroke:none;stroke-width:33.3022;stroke-linecap:butt;stroke-linejoin:miter;stroke-miterlimit:4;stroke-dasharray:none;stroke-dashoffset:0;stroke-opacity:1;color-rendering:auto;image-rendering:auto;shape-rendering:auto;text-rendering:auto;enable-background:accumulate;stop-color:#000000;stop-opacity:1"
       id="path4094" />
  </g>
</svg>
