<?xml version="1.0" encoding="UTF-8" standalone="no"?>
<!-- Created with Inkscape (http://www.inkscape.org/) -->

<svg
   xmlns:dc="http://purl.org/dc/elements/1.1/"
   xmlns:cc="http://creativecommons.org/ns#"
   xmlns:rdf="http://www.w3.org/1999/02/22-rdf-syntax-ns#"
   xmlns:svg="http://www.w3.org/2000/svg"
   xmlns="http://www.w3.org/2000/svg"
   xmlns:sodipodi="http://sodipodi.sourceforge.net/DTD/sodipodi-0.dtd"
   xmlns:inkscape="http://www.inkscape.org/namespaces/inkscape"
   width="634.14001"
   height="561.22998"
   id="svg2"
   version="1.1"
   inkscape:version="0.48.5 r10040">
  <title
     id="title3002">1.33 Гололедица</title>
  <defs
     id="defs4" />
  <metadata
     id="metadata7">
    <rdf:RDF>
      <cc:Work
         rdf:about="">
        <dc:format>image/svg+xml</dc:format>
        <dc:type
           rdf:resource="http://purl.org/dc/dcmitype/StillImage" />
        <dc:title>1.33 Гололедица</dc:title>
        <cc:license
           rdf:resource="http://creativecommons.org/licenses/by-sa/3.0/" />
        <dc:description>СТБ 1140-99
Размеры и пропорции по типоразмеру 2</dc:description>
      </cc:Work>
      <cc:License
         rdf:about="http://creativecommons.org/licenses/by-sa/3.0/">
        <cc:permits
           rdf:resource="http://creativecommons.org/ns#Reproduction" />
        <cc:permits
           rdf:resource="http://creativecommons.org/ns#Distribution" />
        <cc:requires
           rdf:resource="http://creativecommons.org/ns#Notice" />
        <cc:requires
           rdf:resource="http://creativecommons.org/ns#Attribution" />
        <cc:permits
           rdf:resource="http://creativecommons.org/ns#DerivativeWorks" />
        <cc:requires
           rdf:resource="http://creativecommons.org/ns#ShareAlike" />
      </cc:License>
    </rdf:RDF>
  </metadata>
  <g
     inkscape:label="Layer 1"
     inkscape:groupmode="layer"
     id="layer1"
     transform="translate(0,-491.13214)">
    <path
       sodipodi:nodetypes="sccsccsccs"
       inkscape:connector-curvature="0"
       d="m 339.56535,497.17249 c -21.5231,-12.42634 -49.04475,-5.052 -61.47117,16.47128 L 6.0363923,984.86205 c -12.42642,21.52305 -5.05209,49.04465 16.4710997,61.47105 6.84091,3.9496 14.60091,6.029 22.50008,6.029 l 544.115668,-10e-5 c 7.89925,0 15.65925,-2.0794 22.50007,-6.029 21.52319,-12.4264 28.89761,-39.948 16.47119,-61.47104 L 356.03654,513.64377 c -3.94963,-6.84091 -9.63028,-12.52166 -16.47119,-16.47128 z"
       style="opacity:1;color:#000000;fill:#ffcc00;fill-opacity:1;fill-rule:nonzero;stroke:none;stroke-width:1px;marker:none;visibility:visible;display:inline;overflow:visible;enable-background:accumulate"
       id="path9630" />
    <path
       id="path5791"
       style="opacity:1;fill:none;fill-opacity:1;stroke:#000000;stroke-opacity:1;stroke-width:2;stroke-miterlimit:4;stroke-dasharray:none"
       d="m 1.0074138,1007.3622 c 5.7e-5,-7.72358 2.033128,-15.31118 5.894964,-21.99998 L 278.96019,514.14412 c 12.15026,-21.0448 39.06025,-28.2554 60.10512,-16.1052 6.68883,3.8618 12.2433,9.4163 16.10512,16.1052 l 272.05769,471.2181 c 3.86184,6.6888 5.89491,14.2764 5.89497,21.99998 -7e-5,24.3005 -19.69961,43.9999 -44.00009,44 l -544.115503,0 c -24.300475,-10e-5 -44.0000132,-19.6995 -44.0000832,-44 z"
       inkscape:connector-curvature="0"
       sodipodi:nodetypes="cccscccccc" />
    <path
       style="opacity:1;fill:#ff0000;fill-opacity:1;stroke:none"
       d="M 316.3125 10 C 304.49402 10.264781 293.09264 16.514178 286.75 27.5 L 14.6875 498.71875 C 5.0225195 515.45903 10.75976 536.86625 27.5 546.53125 C 32.82067 549.60315 38.85622 551.21875 45 551.21875 L 589.125 551.21875 C 595.26878 551.21875 601.30433 549.60315 606.625 546.53125 C 623.36524 536.86625 629.10248 515.45903 619.4375 498.71875 L 347.375 27.5 C 344.30311 22.1793 339.88318 17.7594 334.5625 14.6875 C 328.80805 11.365156 322.50313 9.8613054 316.3125 10 z M 316.375 70.25 C 318.29628 70.114265 320.2689 70.558188 322.0625 71.59375 C 323.58269 72.47135 324.84108 73.7283 325.71875 75.25 L 567.28125 493.625 C 570.04221 498.40555 568.40793 504.51975 563.625 507.28125 C 562.10481 508.15885 560.38027 508.625 558.625 508.625 L 75.53125 508.625 C 70.008436 508.625 65.53125 504.1479 65.53125 498.625 C 65.53125 496.86955 65.967441 495.1428 66.84375 493.625 L 308.40625 75.25 C 310.13186 72.261187 313.17286 70.476225 316.375 70.25 z "
       transform="translate(0,491.13214)"
       id="path4410" />
    <path
       id="path13802"
       style="opacity:1;color:#000000;fill:#000000;fill-opacity:1;fill-rule:evenodd;stroke:none;stroke-width:1px;marker:none;visibility:visible;display:inline;overflow:visible;enable-background:accumulate"
       d="m 290.86191,919.20539 c -4.19422,2.42152 -9.55734,0.98447 -11.97888,-3.20975 -2.42154,-4.19423 -0.98449,-9.55735 3.20972,-11.97889 l 23.57274,-13.60962 0,-47.17496 -40.85472,23.58748 1e-4,27.21937 c 0,4.84307 -3.92608,8.76915 -8.76915,8.76915 -4.84308,0 -8.76916,-3.92608 -8.76916,-8.76915 l -9e-5,-17.09363 -10.323,5.96003 c -5.45249,3.14799 -12.42457,1.27982 -15.57256,-4.17267 -3.14801,-5.45249 -1.27985,-12.42457 4.17263,-15.57258 l 10.32341,-5.96023 -14.80354,-8.54695 c -4.19422,-2.42154 -5.63127,-7.78468 -3.20972,-11.97889 2.42152,-4.19423 7.78465,-5.63127 11.97887,-3.20974 l 23.57269,13.60984 40.85415,-23.58716 -40.85438,-23.58729 -23.57263,13.60979 c -4.19422,2.42153 -9.55736,0.98449 -11.97889,-3.20974 -2.42153,-4.19422 -0.98449,-9.55735 3.20973,-11.97889 l 14.80349,-8.5469 -10.32302,-5.95996 c -5.45249,-3.148 -7.32064,-10.12008 -4.17265,-15.57257 3.148,-5.45249 10.12008,-7.32067 15.57257,-4.17266 l 10.32343,5.96021 10e-5,-17.09375 c 0,-4.84306 3.92608,-8.76915 8.76915,-8.76915 4.84308,0 8.76916,3.92609 8.76916,8.76915 l -1.1e-4,27.21949 40.85414,23.58715 0,-47.17485 -23.57274,-13.60958 c -4.19421,-2.42154 -5.63126,-7.78468 -3.20972,-11.97889 2.42154,-4.19423 7.78466,-5.63128 11.97888,-3.20974 l 14.80358,8.54671 -2e-5,-11.91993 c 0,-6.29598 5.10391,-11.39988 11.39991,-11.39988 6.296,0 11.39992,5.1039 11.39992,11.39988 l 0,11.92045 14.80368,-8.5468 c 4.19421,-2.42153 9.55734,-0.98447 11.97888,3.20974 2.42153,4.19423 0.98449,9.55736 -3.20973,11.97889 l -23.57283,13.60967 0,47.17413 40.85395,-23.58704 -4e-5,-27.21951 c 0,-4.84306 3.92608,-8.76914 8.76915,-8.76914 4.84307,0 8.76916,3.92608 8.76916,8.76914 l 4e-5,17.09377 10.32344,-5.96019 c 5.45249,-3.148 12.42456,-1.27983 15.57257,4.17266 3.14799,5.45249 1.27984,12.42458 -4.17265,15.57256 l -10.32298,5.95992 14.80351,8.54692 c 4.19422,2.42153 5.63126,7.78466 3.20973,11.97889 -2.42154,4.19421 -7.78467,5.63127 -11.97888,3.20974 l -23.57267,-13.60981 -40.85459,23.58741 40.85429,23.58723 23.57278,-13.60981 c 4.19421,-2.42153 9.55734,-0.98447 11.97888,3.20974 2.42152,4.19423 0.98449,9.55736 -3.20973,11.97889 l -14.80362,8.54693 10.3234,5.96023 c 5.45248,3.148 7.32065,10.12007 4.17264,15.57257 -3.14799,5.45249 -10.12007,7.32066 -15.57256,4.17266 l -10.32291,-5.95996 -9e-5,17.09368 c 0,4.84306 -3.92608,8.76915 -8.76915,8.76915 -4.84308,0 -8.76916,-3.92609 -8.76916,-8.76915 l 8e-5,-27.21942 -40.85459,-23.58742 0,47.17419 23.57283,13.60974 c 4.19422,2.42152 5.63126,7.78466 3.20973,11.97888 -2.42154,4.19422 -7.78467,5.63127 -11.97888,3.20974 l -14.80368,-8.54686 0,11.92053 c 0,6.296 -5.10392,11.3999 -11.39992,11.3999 -6.296,0 -11.39991,-5.1039 -11.39991,-11.3999 l 2e-5,-11.91995 z"
       inkscape:connector-curvature="0"
       sodipodi:nodetypes="cscccccscccscccscccccscccscccscccccscccscccscccccscccscccscccccscccscccscccccscccsccc" />
  </g>
</svg>
