<?xml version="1.0" encoding="UTF-8" standalone="no"?>
<!-- Created with Inkscape (http://www.inkscape.org/) -->

<svg
   xmlns:dc="http://purl.org/dc/elements/1.1/"
   xmlns:cc="http://creativecommons.org/ns#"
   xmlns:rdf="http://www.w3.org/1999/02/22-rdf-syntax-ns#"
   xmlns:svg="http://www.w3.org/2000/svg"
   xmlns="http://www.w3.org/2000/svg"
   xmlns:sodipodi="http://sodipodi.sourceforge.net/DTD/sodipodi-0.dtd"
   xmlns:inkscape="http://www.inkscape.org/namespaces/inkscape"
   width="634.14001"
   height="561.22998"
   id="svg2"
   version="1.1"
   inkscape:version="0.48.5 r10040">
  <title
     id="title3002">1.35 Сезонные миграции земноводных</title>
  <defs
     id="defs4" />
  <metadata
     id="metadata7">
    <rdf:RDF>
      <cc:Work
         rdf:about="">
        <dc:format>image/svg+xml</dc:format>
        <dc:type
           rdf:resource="http://purl.org/dc/dcmitype/StillImage" />
        <dc:title>1.35 Сезонные миграции земноводных</dc:title>
        <cc:license
           rdf:resource="http://creativecommons.org/licenses/by-sa/3.0/" />
        <dc:description>СТБ 1140-99
Размеры и пропорции по типоразмеру 2</dc:description>
      </cc:Work>
      <cc:License
         rdf:about="http://creativecommons.org/licenses/by-sa/3.0/">
        <cc:permits
           rdf:resource="http://creativecommons.org/ns#Reproduction" />
        <cc:permits
           rdf:resource="http://creativecommons.org/ns#Distribution" />
        <cc:requires
           rdf:resource="http://creativecommons.org/ns#Notice" />
        <cc:requires
           rdf:resource="http://creativecommons.org/ns#Attribution" />
        <cc:permits
           rdf:resource="http://creativecommons.org/ns#DerivativeWorks" />
        <cc:requires
           rdf:resource="http://creativecommons.org/ns#ShareAlike" />
      </cc:License>
    </rdf:RDF>
  </metadata>
  <g
     inkscape:label="Layer 1"
     inkscape:groupmode="layer"
     id="layer1"
     transform="translate(0,-491.13214)">
    <path
       sodipodi:nodetypes="sccsccsccs"
       inkscape:connector-curvature="0"
       d="m 339.56535,497.17249 c -21.5231,-12.42634 -49.04475,-5.052 -61.47117,16.47128 L 6.0363908,984.86202 c -12.426419,21.52308 -5.052086,49.04468 16.4711052,61.47108 6.840906,3.9496 14.600907,6.029 22.500074,6.029 l 544.11567,-10e-5 c 7.89925,0 15.65925,-2.0794 22.50007,-6.029 21.52319,-12.4264 28.89761,-39.948 16.47119,-61.47108 L 356.03654,513.64377 c -3.94963,-6.84091 -9.63028,-12.52166 -16.47119,-16.47128 z"
       style="opacity:1;color:#000000;fill:#ffcc00;fill-opacity:1;fill-rule:nonzero;stroke:none;stroke-width:1px;marker:none;visibility:visible;display:inline;overflow:visible;enable-background:accumulate"
       id="path10050" />
    <path
       id="path5791"
       style="opacity:1;fill:none;fill-opacity:1;stroke:#000000;stroke-opacity:1;stroke-width:2;stroke-miterlimit:4;stroke-dasharray:none"
       d="m 1.0074138,1007.3622 c 5.7e-5,-7.72358 2.033128,-15.31118 5.894964,-21.99998 L 278.96019,514.14412 c 12.15026,-21.0448 39.06025,-28.2554 60.10512,-16.1052 6.68883,3.8618 12.2433,9.4163 16.10512,16.1052 l 272.05769,471.2181 c 3.86184,6.6888 5.89491,14.2764 5.89497,21.99998 -7e-5,24.3005 -19.69961,43.9999 -44.00009,44 l -544.115503,0 c -24.300475,-10e-5 -44.0000132,-19.6995 -44.0000832,-44 z"
       inkscape:connector-curvature="0"
       sodipodi:nodetypes="cccscccccc" />
    <path
       style="opacity:1;fill:#ff0000;fill-opacity:1;stroke:none"
       d="M 316.3125 10 C 304.49402 10.264781 293.09264 16.514178 286.75 27.5 L 14.6875 498.71875 C 5.0225195 515.45903 10.75976 536.86625 27.5 546.53125 C 32.82067 549.60315 38.85622 551.21875 45 551.21875 L 589.125 551.21875 C 595.26878 551.21875 601.30433 549.60315 606.625 546.53125 C 623.36524 536.86625 629.10248 515.45903 619.4375 498.71875 L 347.375 27.5 C 344.30311 22.1793 339.88318 17.7594 334.5625 14.6875 C 328.80805 11.365156 322.50313 9.8613054 316.3125 10 z M 316.375 70.25 C 318.29628 70.114265 320.2689 70.558188 322.0625 71.59375 C 323.58269 72.47135 324.84108 73.7283 325.71875 75.25 L 567.28125 493.625 C 570.04221 498.40555 568.40793 504.51975 563.625 507.28125 C 562.10481 508.15885 560.38027 508.625 558.625 508.625 L 75.53125 508.625 C 70.008436 508.625 65.53125 504.1479 65.53125 498.625 C 65.53125 496.86955 65.967441 495.1428 66.84375 493.625 L 308.40625 75.25 C 310.13186 72.261187 313.17286 70.476225 316.375 70.25 z "
       transform="translate(0,491.13214)"
       id="path4410" />
    <path
       style="opacity:1;fill:#000000;fill-opacity:1;stroke:none"
       d="m 359.15732,767.36459 c 8.1628,0 12.0569,7.12839 14.9076,7.89224 12.0976,3.24153 37.7074,0.68309 37.7074,15.78448 0,10.33181 -17.0193,33.68069 -24.5537,41.21503 -12.0585,12.0586 -20.169,20.65158 -20.169,34.19971 0,7.06855 1.1032,22.14917 4.3845,25.43055 1.7755,1.77544 20.1692,2.63074 28.9383,2.63074 -0.9607,-0.96072 -5.2615,-6.05236 -5.2615,-9.64607 0,-1.97292 0.558,-2.63075 1.7538,-2.63075 2.7114,0 5.5623,8.76916 11.3999,8.76916 3.3225,0 4.2668,-7.8051 5.6999,-13.15373 2.1268,-7.93701 3.6996,-13.15374 8.3307,-13.15374 1.0593,0.1489 1.7046,1.03354 1.7539,2.19229 0,1.90424 -2.4741,2.83696 -3.9461,8.3307 -1.2437,4.64152 -1.5997,11.3999 -0.4385,11.3999 3.5808,0 4.2921,-13.15373 13.1537,-13.15373 2.0062,0 3.5077,0.81432 3.5077,2.19229 0,2.33881 -2.5692,0.99075 -6.4015,4.82303 -4.8332,4.83329 -2.5796,15.66386 -12.4142,25.49848 -8.2614,8.26139 -49.7847,10.45506 -50.4606,10.45506 -12.9052,0 -15.5407,-9.38671 -21.4845,-31.56896 -8.8137,8.81377 -18.7295,15.32737 -30.2536,18.41523 21.7693,12.56847 21.4845,18.2754 21.4845,30.77425 11.5084,0 15.7845,-0.41685 15.7845,2.987 0,4.5687 -14.0307,-0.0761 -14.0307,5.69992 0,1.95964 11.3881,0.0342 27.6229,4.38458 7.289,1.95315 28.9382,9.40658 28.9382,13.59219 0,1.41438 -0.6285,2.19229 -2.6308,2.19229 -2.9773,0 -23.0686,-12.27682 -47.3534,-12.27682 -7.9094,0 -9.2076,0.66374 -9.2076,3.50766 0,4.29277 10.5237,8.71996 10.523,12.27682 0,1.44314 -0.8142,2.19229 -2.1923,2.19229 -1.3796,0 -0.8092,-0.8329 -12.2769,-7.45378 -6.7965,-3.92394 -22.3683,-10.08453 -32.4458,-10.08453 l -44.2295,0 c -11.851,0 -23.072,-9.4856 -25.9238,-11.83836 l -17.53828,-14.46908 c -5.9775,-4.93149 -8.93349,-7.5077 -8.76916,-12.71528 0,-13.20698 8.76916,-9.19283 8.76916,-16.66139 -0.0298,-5.70447 -15.78448,5.33185 -15.78448,-14.90757 0,-11.76792 27.46306,-31.84756 33.32276,-37.70736 1.2346,-1.23458 8.4082,-19.46762 17.9768,-24.9921 15.483,-8.93907 22.2371,-2.49457 34.1997,-5.69995 4.6334,-1.24148 18.3075,-10.79343 35.5151,-19.7306 13.1025,-6.80508 27.8135,-12.46753 28.9382,-13.59219 1.2822,-1.28216 2.0353,-11.3999 13.1537,-11.3999 z"
       id="path12614"
       inkscape:connector-curvature="0"
       sodipodi:nodetypes="cccccccsccsccsccccsccccccscsscccsccssccccscscc" />
  </g>
</svg>
