<?xml version="1.0" encoding="UTF-8" standalone="no"?>
<!-- Created with Inkscape (http://www.inkscape.org/) -->

<svg
   xmlns:dc="http://purl.org/dc/elements/1.1/"
   xmlns:cc="http://creativecommons.org/ns#"
   xmlns:rdf="http://www.w3.org/1999/02/22-rdf-syntax-ns#"
   xmlns:svg="http://www.w3.org/2000/svg"
   xmlns="http://www.w3.org/2000/svg"
   xmlns:sodipodi="http://sodipodi.sourceforge.net/DTD/sodipodi-0.dtd"
   xmlns:inkscape="http://www.inkscape.org/namespaces/inkscape"
   width="600.30896"
   height="600"
   id="svg3562"
   version="1.1"
   inkscape:version="0.92.4 (5da689c313, 2019-01-14)"
   sodipodi:docname="3.20.3_(Road_sign).svg">
  <defs
     id="defs3564">
    <inkscape:perspective
       sodipodi:type="inkscape:persp3d"
       inkscape:vp_x="0 : 526.18109 : 1"
       inkscape:vp_y="0 : 1000 : 0"
       inkscape:vp_z="744.09448 : 526.18109 : 1"
       inkscape:persp3d-origin="372.04724 : 350.78739 : 1"
       id="perspective3570" />
    <inkscape:perspective
       id="perspective3595"
       inkscape:persp3d-origin="301.91901 : 198.427 : 1"
       inkscape:vp_z="603.83801 : 297.6405 : 1"
       inkscape:vp_y="0 : 1000 : 0"
       inkscape:vp_x="0 : 297.6405 : 1"
       sodipodi:type="inkscape:persp3d" />
    <inkscape:perspective
       id="perspective3615"
       inkscape:persp3d-origin="0.5 : 0.33333333 : 1"
       inkscape:vp_z="1 : 0.5 : 1"
       inkscape:vp_y="0 : 1000 : 0"
       inkscape:vp_x="0 : 0.5 : 1"
       sodipodi:type="inkscape:persp3d" />
    <inkscape:perspective
       id="perspective4061"
       inkscape:persp3d-origin="0.5 : 0.33333333 : 1"
       inkscape:vp_z="1 : 0.5 : 1"
       inkscape:vp_y="0 : 1000 : 0"
       inkscape:vp_x="0 : 0.5 : 1"
       sodipodi:type="inkscape:persp3d" />
    <inkscape:perspective
       id="perspective4872"
       inkscape:persp3d-origin="263 : 175.33333 : 1"
       inkscape:vp_z="526 : 263 : 1"
       inkscape:vp_y="0 : 1000 : 0"
       inkscape:vp_x="0 : 263 : 1"
       sodipodi:type="inkscape:persp3d" />
    <inkscape:perspective
       id="perspective4933"
       inkscape:persp3d-origin="0.5 : 0.33333333 : 1"
       inkscape:vp_z="1 : 0.5 : 1"
       inkscape:vp_y="0 : 1000 : 0"
       inkscape:vp_x="0 : 0.5 : 1"
       sodipodi:type="inkscape:persp3d" />
    <inkscape:perspective
       id="perspective4966"
       inkscape:persp3d-origin="0.5 : 0.33333333 : 1"
       inkscape:vp_z="1 : 0.5 : 1"
       inkscape:vp_y="0 : 1000 : 0"
       inkscape:vp_x="0 : 0.5 : 1"
       sodipodi:type="inkscape:persp3d" />
    <inkscape:perspective
       id="perspective3614"
       inkscape:persp3d-origin="0.5 : 0.33333333 : 1"
       inkscape:vp_z="1 : 0.5 : 1"
       inkscape:vp_y="0 : 1000 : 0"
       inkscape:vp_x="0 : 0.5 : 1"
       sodipodi:type="inkscape:persp3d" />
    <inkscape:perspective
       id="perspective3653"
       inkscape:persp3d-origin="0.5 : 0.33333333 : 1"
       inkscape:vp_z="1 : 0.5 : 1"
       inkscape:vp_y="0 : 1000 : 0"
       inkscape:vp_x="0 : 0.5 : 1"
       sodipodi:type="inkscape:persp3d" />
    <inkscape:perspective
       id="perspective3701"
       inkscape:persp3d-origin="0.5 : 0.33333333 : 1"
       inkscape:vp_z="1 : 0.5 : 1"
       inkscape:vp_y="0 : 1000 : 0"
       inkscape:vp_x="0 : 0.5 : 1"
       sodipodi:type="inkscape:persp3d" />
    <inkscape:perspective
       id="perspective4525"
       inkscape:persp3d-origin="0.5 : 0.33333333 : 1"
       inkscape:vp_z="1 : 0.5 : 1"
       inkscape:vp_y="0 : 1000 : 0"
       inkscape:vp_x="0 : 0.5 : 1"
       sodipodi:type="inkscape:persp3d" />
    <inkscape:perspective
       id="perspective4729"
       inkscape:persp3d-origin="301.91901 : 198.427 : 1"
       inkscape:vp_z="603.83801 : 297.6405 : 1"
       inkscape:vp_y="0 : 1000 : 0"
       inkscape:vp_x="0 : 297.6405 : 1"
       sodipodi:type="inkscape:persp3d" />
    <inkscape:perspective
       id="perspective4759"
       inkscape:persp3d-origin="0.5 : 0.33333333 : 1"
       inkscape:vp_z="1 : 0.5 : 1"
       inkscape:vp_y="0 : 1000 : 0"
       inkscape:vp_x="0 : 0.5 : 1"
       sodipodi:type="inkscape:persp3d" />
    <inkscape:perspective
       id="perspective4793"
       inkscape:persp3d-origin="0.5 : 0.33333333 : 1"
       inkscape:vp_z="1 : 0.5 : 1"
       inkscape:vp_y="0 : 1000 : 0"
       inkscape:vp_x="0 : 0.5 : 1"
       sodipodi:type="inkscape:persp3d" />
    <inkscape:perspective
       id="perspective4824"
       inkscape:persp3d-origin="0.5 : 0.33333333 : 1"
       inkscape:vp_z="1 : 0.5 : 1"
       inkscape:vp_y="0 : 1000 : 0"
       inkscape:vp_x="0 : 0.5 : 1"
       sodipodi:type="inkscape:persp3d" />
    <inkscape:perspective
       id="perspective4872-4"
       inkscape:persp3d-origin="301.91901 : 198.427 : 1"
       inkscape:vp_z="603.83801 : 297.6405 : 1"
       inkscape:vp_y="0 : 1000 : 0"
       inkscape:vp_x="0 : 297.6405 : 1"
       sodipodi:type="inkscape:persp3d" />
    <inkscape:perspective
       id="perspective4945"
       inkscape:persp3d-origin="0.5 : 0.33333333 : 1"
       inkscape:vp_z="1 : 0.5 : 1"
       inkscape:vp_y="0 : 1000 : 0"
       inkscape:vp_x="0 : 0.5 : 1"
       sodipodi:type="inkscape:persp3d" />
  </defs>
  <sodipodi:namedview
     id="base"
     pagecolor="#ffffff"
     bordercolor="#666666"
     borderopacity="1.0"
     inkscape:pageopacity="0.0"
     inkscape:pageshadow="2"
     inkscape:zoom="0.49843731"
     inkscape:cx="12.634312"
     inkscape:cy="309.38771"
     inkscape:document-units="px"
     inkscape:current-layer="layer1-8"
     showgrid="false"
     inkscape:window-width="1920"
     inkscape:window-height="1027"
     inkscape:window-x="-8"
     inkscape:window-y="-8"
     inkscape:window-maximized="1" />
  <metadata
     id="metadata3567">
    <rdf:RDF>
      <cc:Work
         rdf:about="">
        <dc:format>image/svg+xml</dc:format>
        <dc:type
           rdf:resource="http://purl.org/dc/dcmitype/StillImage" />
        <dc:title />
      </cc:Work>
    </rdf:RDF>
  </metadata>
  <g
     inkscape:label="Livello 1"
     inkscape:groupmode="layer"
     id="layer1"
     transform="translate(661.38094,-21.140434)">
    <g
       display="none"
       id="Layer_1_1_"
       style="display:none"
       transform="translate(-179.26841,166.65141)">
      <path
         id="path3574"
         enable-background="new    "
         d=""
         display="inline"
         style="display:inline;fill:none"
         inkscape:connector-curvature="0" />
    </g>
    <g
       display="none"
       id="Layer_3"
       transform="translate(-859.87637,144.75832)"
       style="display:none">
      <line
         y2="395.00101"
         x2="154.05701"
         y1="342.67899"
         x1="207.533"
         display="inline"
         id="line7934"
         style="display:inline;fill:none" />
    </g>
    <g
       display="none"
       id="Layer_3-0"
       transform="translate(-1263.7446,12.643972)"
       style="display:none">
      <line
         y2="395.00101"
         x2="154.05701"
         y1="342.67899"
         x1="207.533"
         display="inline"
         id="line3017"
         style="display:inline;fill:none" />
    </g>
    <g
       transform="translate(-661.22641,-431.2218)"
       id="layer1-8"
       inkscape:label="Layer 1">
      <ellipse
         transform="matrix(13.570336,0,0,10.181443,1490.3988,-3648.6681)"
         id="path5334"
         style="color:#000000;display:inline;overflow:visible;visibility:visible;opacity:1;fill:#ffffff;fill-opacity:1;fill-rule:nonzero;stroke:none;stroke-width:1px;marker:none;enable-background:accumulate"
         cx="-87.720657"
         cy="432.25998"
         rx="22.107042"
         ry="29.465372" />
      <ellipse
         style="color:#000000;display:inline;overflow:visible;visibility:visible;opacity:1;fill:none;stroke:#000000;stroke-width:0.17071831;stroke-miterlimit:4;stroke-dasharray:none;stroke-opacity:1;marker:none;enable-background:accumulate"
         id="path3003"
         transform="matrix(13.525102,0,0,10.147505,1486.4308,-3633.998)"
         cx="-87.720657"
         cy="432.25998"
         rx="22.107042"
         ry="29.465372" />
      <path
         id="path4775-9"
         transform="translate(0,452.36218)"
         d="M 300,10 C 139.83742,10 10,139.83742 10,300 10,460.16258 139.83742,590 300,590 460.16258,590 590,460.16258 590,300 590,139.83742 460.16258,10 300,10 Z m 0,49.03125 C 433.0828,59.03125 540.96875,166.91719 540.96875,300 540.96875,433.08281 433.0828,540.96875 300,540.96875 166.9172,540.96875 59.03125,433.08281 59.03125,300 59.03125,166.91719 166.9172,59.03125 300,59.03125 Z"
         style="color:#000000;display:inline;overflow:visible;visibility:visible;opacity:1;fill:#ff0000;fill-opacity:1;fill-rule:nonzero;stroke:none;stroke-width:1px;marker:none;enable-background:accumulate"
         inkscape:connector-curvature="0" />
      <path
         inkscape:connector-curvature="0"
         id="path13111"
         d="m 145.31008,599.80913 c -3.91909,0 -8.102,2.99018 -9.37959,6.69518 l -4.73717,13.73778 -9.82171,28.45459 c -0.01,0.0262 -0.008,0.053 -0.0158,0.079 l -2.28965,6.61625 c -5.59869,0 -10.10595,4.50724 -10.10595,10.10593 v 40.42383 c 0,5.59871 4.50726,10.10595 10.10595,10.10595 h 151.58929 c 5.59869,0 10.10596,-4.50724 10.10596,-10.10595 v -40.42383 c 0,-5.59869 -4.50727,-10.10593 -10.10596,-10.10593 l -2.28965,-6.61625 c -0.008,-0.026 -0.006,-0.0528 -0.0157,-0.079 l -9.82174,-28.45459 -4.73717,-13.73778 c -1.27774,-3.705 -5.46049,-6.69518 -9.37958,-6.69518 h -49.55074 -49.55076 z m 3.07918,10.10594 h 46.47157 46.47156 c 1.95945,0 4.05104,1.49511 4.68982,3.3476 l 14.52731,42.1292 h -65.68869 -65.68868 l 14.52729,-42.1292 c 0.63879,-1.85249 2.73037,-3.3476 4.68982,-3.3476 z"
         style="color:#000000;display:inline;overflow:visible;visibility:visible;opacity:1;fill:#ff0000;fill-opacity:1;fill-rule:nonzero;stroke:none;stroke-width:3.3456459;marker:none;enable-background:accumulate" />
      <path
         id="path13113"
         d="m 119.06366,721.07951 v 20.2119 c 0,8.37204 6.7869,15.15894 15.15892,15.15894 8.37203,0 15.15893,-6.7869 15.15893,-15.15894 v -20.2119 z"
         style="color:#000000;display:inline;overflow:visible;visibility:visible;opacity:1;fill:#ff0000;fill-opacity:1;fill-rule:nonzero;stroke:none;stroke-width:0.94429737px;marker:none;enable-background:accumulate"
         inkscape:connector-curvature="0" />
      <path
         inkscape:connector-curvature="0"
         style="color:#000000;display:inline;overflow:visible;visibility:visible;opacity:1;fill:#ff0000;fill-opacity:1;fill-rule:nonzero;stroke:none;stroke-width:0.94429737px;marker:none;enable-background:accumulate"
         d="m 240.3351,721.07951 v 20.2119 c 0,8.37204 6.78689,15.15894 15.15893,15.15894 8.372,0 15.15893,-6.7869 15.15893,-15.15894 v -20.2119 z"
         id="path13117" />
      <path
         style="color:#000000;display:inline;overflow:visible;visibility:visible;opacity:1;fill:#000000;fill-opacity:1;fill-rule:nonzero;stroke:none;stroke-width:3.34564161;marker:none;enable-background:accumulate"
         d="m 360.5512,599.16947 c -3.91909,0 -8.10198,2.99018 -9.37958,6.69518 l -4.73714,13.73776 -9.82172,28.45455 c -0.01,0.0262 -0.008,0.053 -0.0158,0.079 l -2.28967,6.61624 c -5.59867,0 -10.10594,4.50724 -10.10594,10.10593 v 40.42377 c 0,5.5987 4.50727,10.10594 10.10594,10.10594 h 151.58913 c 5.59866,0 10.10593,-4.50724 10.10593,-10.10594 v -40.42377 c 0,-5.59869 -4.50727,-10.10593 -10.10593,-10.10593 l -2.28968,-6.61624 c -0.008,-0.026 -0.006,-0.0528 -0.0157,-0.079 l -9.82171,-28.45455 -4.73717,-13.73776 c -1.27774,-3.705 -5.46049,-6.69518 -9.37957,-6.69518 h -49.55068 -49.5507 z m 3.07918,10.10593 h 46.47151 46.4715 c 1.95945,0 4.05103,1.49511 4.68982,3.3476 l 14.52729,42.12914 h -65.68861 -65.6886 L 358.94058,612.623 c 0.63879,-1.85249 2.73037,-3.3476 4.6898,-3.3476 z"
         id="path13130"
         inkscape:connector-curvature="0" />
      <path
         inkscape:connector-curvature="0"
         style="color:#000000;display:inline;overflow:visible;visibility:visible;opacity:1;fill:#000000;fill-opacity:1;fill-rule:nonzero;stroke:none;stroke-width:0.94429618px;marker:none;enable-background:accumulate"
         d="m 334.30481,720.4397 v 20.21188 c 0,8.37202 6.7869,15.15891 15.15891,15.15891 8.37202,0 15.15891,-6.78689 15.15891,-15.15891 V 720.4397 Z"
         id="path13132" />
      <path
         id="path13134"
         d="m 455.57609,720.4397 v 20.21188 c 0,8.37202 6.78689,15.15891 15.15892,15.15891 8.37201,0 15.15889,-6.78689 15.15889,-15.15891 V 720.4397 Z"
         style="color:#000000;display:inline;overflow:visible;visibility:visible;opacity:1;fill:#000000;fill-opacity:1;fill-rule:nonzero;stroke:none;stroke-width:0.94429618px;marker:none;enable-background:accumulate"
         inkscape:connector-curvature="0" />
    </g>
    <path
       inkscape:connector-curvature="0"
       d="m -553.7446,333.92497 h 400"
       style="fill:none;stroke:#000000;stroke-width:10;stroke-linecap:round;stroke-linejoin:round;stroke-miterlimit:4;stroke-dasharray:none;stroke-opacity:1"
       id="path3825" />
    <g
       transform="matrix(0.63846074,0,0,0.63846074,-855.6212,-176.22767)"
       id="layer1-89"
       inkscape:label="Layer 1">
      <g
         id="text9499"
         style="font-style:normal;font-variant:normal;font-weight:normal;font-stretch:normal;font-size:380.18783569px;line-height:125%;font-family:Arial;-inkscape-font-specification:Arial;letter-spacing:-21.29032135px;word-spacing:0px;fill:#000000;fill-opacity:1;stroke:none"
         transform="translate(479.41184,213.52875)">
        <path
           id="path9882"
           style="font-family:'Russian Road Sign';-inkscape-font-specification:'Russian Road Sign';fill:#000000"
           d="m 266.61261,680.5078 10.64513,-34.59665 H 154.83883 v 103.78994 l 23.95152,13.30641 c 2.66122,-1.82954 6.65314,-4.82348 11.97576,-8.98183 5.3225,-4.15814 11.97569,-6.48676 19.95961,-6.98586 12.03111,0.49911 21.23469,4.82369 27.61078,12.97375 6.37586,8.15026 9.59158,17.13207 9.64715,26.94546 -0.66544,13.30646 -5.988,23.28626 -15.96768,29.93941 -9.9799,6.65324 -20.62502,9.97983 -31.93537,9.9798 -8.95021,0.103 -17.94786,-0.57816 -26.99299,-2.04348 -9.04522,-1.46526 -16.90233,-4.33247 -23.57134,-8.60164 l 5.32256,34.59665 c 0.60985,0.44355 6.04329,2.21774 16.30035,5.32256 10.25696,3.10482 21.67827,4.87901 34.26398,5.32256 25.55927,-0.55443 45.62974,-8.09472 60.21147,-22.62089 14.58144,-14.52613 22.01085,-32.71153 22.28823,-54.55625 -0.83181,-21.40103 -7.81767,-37.81225 -20.95759,-49.23369 -13.14021,-11.4212 -27.44458,-17.1873 -42.91315,-17.29832 -6.26519,-0.11075 -12.55404,0.77634 -18.86658,2.66128 -6.31269,1.88521 -11.55604,5.43358 -15.73006,10.64512 V 680.5078 Z"
           inkscape:connector-curvature="0" />
        <path
           id="path9884"
           style="font-family:'Russian Road Sign';-inkscape-font-specification:'Russian Road Sign';fill:#000000"
           d="m 387.20422,643.24987 c -21.62298,0.55465 -38.92129,10.75621 -51.89498,30.60472 -12.97377,19.84888 -19.62697,46.01812 -19.9596,78.50779 0.33263,32.48987 6.98583,58.6591 19.9596,78.50777 12.97369,19.84872 30.272,30.05029 51.89498,30.60473 21.62278,-0.55443 38.92109,-10.756 51.89496,-30.60473 12.97359,-19.84868 19.62678,-46.01791 19.95961,-78.50777 -0.33283,-30.9927 -6.98602,-56.73423 -19.95961,-77.22467 -12.97387,-20.49007 -30.27218,-31.11934 -51.89496,-31.88784 z m 0,33.07592 c 10.42324,-0.15823 18.75557,5.86133 24.99703,18.05868 6.24121,12.19768 9.44108,31.52363 9.59962,57.97791 -0.15855,26.45447 -3.35842,45.78042 -9.59963,57.97789 -6.24145,12.19756 -14.57378,18.21712 -24.99702,18.05869 -10.42344,0.15844 -18.75578,-5.86112 -24.99704,-18.05869 -6.2414,-12.19748 -9.44126,-31.52342 -9.59961,-57.97789 0.15835,-26.45427 3.35822,-45.78022 9.59962,-57.97791 6.24126,-12.19736 14.5736,-18.21692 24.99703,-18.05868 z"
           inkscape:connector-curvature="0" />
      </g>
    </g>
  </g>
</svg>
