<?xml version="1.0" encoding="UTF-8" standalone="no"?>
<!-- Created with Inkscape (http://www.inkscape.org/) -->

<svg
   xmlns:dc="http://purl.org/dc/elements/1.1/"
   xmlns:cc="http://creativecommons.org/ns#"
   xmlns:rdf="http://www.w3.org/1999/02/22-rdf-syntax-ns#"
   xmlns:svg="http://www.w3.org/2000/svg"
   xmlns="http://www.w3.org/2000/svg"
   xmlns:sodipodi="http://sodipodi.sourceforge.net/DTD/sodipodi-0.dtd"
   xmlns:inkscape="http://www.inkscape.org/namespaces/inkscape"
   width="600"
   height="600"
   id="svg2"
   version="1.1"
   inkscape:version="0.48.4 r9939"
   sodipodi:docname="3.7.svg">
  <title
     id="title3002">3.7 Движение с прицепом запрещено</title>
  <defs
     id="defs4" />
  <sodipodi:namedview
     id="base"
     pagecolor="#ffffff"
     bordercolor="#666666"
     borderopacity="1.0"
     inkscape:pageopacity="0.0"
     inkscape:pageshadow="2"
     inkscape:zoom="1"
     inkscape:cx="283.24807"
     inkscape:cy="331.02545"
     inkscape:document-units="px"
     inkscape:current-layer="layer1"
     showgrid="false"
     inkscape:window-width="1920"
     inkscape:window-height="1024"
     inkscape:window-x="-4"
     inkscape:window-y="-4"
     inkscape:window-maximized="1" />
  <metadata
     id="metadata7">
    <rdf:RDF>
      <cc:Work
         rdf:about="">
        <dc:format>image/svg+xml</dc:format>
        <dc:type
           rdf:resource="http://purl.org/dc/dcmitype/StillImage" />
        <dc:title>3.7 Движение с прицепом запрещено</dc:title>
        <cc:license
           rdf:resource="http://creativecommons.org/licenses/by-sa/3.0/" />
        <dc:description>ГОСТ 10807-78
Размеры и пропорции по типоразмеру I</dc:description>
      </cc:Work>
      <cc:License
         rdf:about="http://creativecommons.org/licenses/by-sa/3.0/">
        <cc:permits
           rdf:resource="http://creativecommons.org/ns#Reproduction" />
        <cc:permits
           rdf:resource="http://creativecommons.org/ns#Distribution" />
        <cc:requires
           rdf:resource="http://creativecommons.org/ns#Notice" />
        <cc:requires
           rdf:resource="http://creativecommons.org/ns#Attribution" />
        <cc:permits
           rdf:resource="http://creativecommons.org/ns#DerivativeWorks" />
        <cc:requires
           rdf:resource="http://creativecommons.org/ns#ShareAlike" />
      </cc:License>
    </rdf:RDF>
  </metadata>
  <g
     inkscape:label="Layer 1"
     inkscape:groupmode="layer"
     id="layer1"
     transform="translate(0,-452.36218)">
    <path
       sodipodi:type="arc"
       style="opacity:1;color:#000000;fill:#ffffff;fill-opacity:1;fill-rule:nonzero;stroke:none;stroke-width:1px;marker:none;visibility:visible;display:inline;overflow:visible;enable-background:accumulate"
       id="path5334"
       sodipodi:cx="-87.720657"
       sodipodi:cy="432.25998"
       sodipodi:rx="22.107042"
       sodipodi:ry="29.465372"
       d="m -65.613615,432.25998 c 0,16.27327 -9.89766,29.46537 -22.107042,29.46537 -12.209383,0 -22.107043,-13.1921 -22.107043,-29.46537 0,-16.27328 9.89766,-29.46537 22.107043,-29.46537 12.209382,0 22.107042,13.19209 22.107042,29.46537 z"
       transform="matrix(13.570336,0,0,10.181443,1490.3988,-3648.6681)" />
    <path
       transform="matrix(13.525102,0,0,10.147505,1486.4308,-3633.998)"
       d="m -65.613615,432.25998 c 0,16.27327 -9.89766,29.46537 -22.107042,29.46537 -12.209383,0 -22.107043,-13.1921 -22.107043,-29.46537 0,-16.27328 9.89766,-29.46537 22.107043,-29.46537 12.209382,0 22.107042,13.19209 22.107042,29.46537 z"
       sodipodi:ry="29.465372"
       sodipodi:rx="22.107042"
       sodipodi:cy="432.25998"
       sodipodi:cx="-87.720657"
       id="path3003"
       style="color:#000000;fill:none;stroke:#000000;stroke-width:0.17071831000000001;stroke-miterlimit:4;stroke-opacity:1;stroke-dasharray:none;marker:none;visibility:visible;display:inline;overflow:visible;enable-background:accumulate;opacity:1"
       sodipodi:type="arc" />
    <path
       style="opacity:1;color:#000000;fill:#ff0000;fill-opacity:1;fill-rule:nonzero;stroke:none;stroke-width:1px;marker:none;visibility:visible;display:inline;overflow:visible;enable-background:accumulate"
       d="M 300 10 C 139.83742 10 10 139.83742 10 300 C 10 460.16258 139.83742 590 300 590 C 460.16258 590 590 460.16258 590 300 C 590 139.83742 460.16258 10 300 10 z M 300 59.03125 C 433.0828 59.03125 540.96875 166.91719 540.96875 300 C 540.96875 433.08281 433.0828 540.96875 300 540.96875 C 166.9172 540.96875 59.03125 433.08281 59.03125 300 C 59.03125 166.91719 166.9172 59.03125 300 59.03125 z "
       transform="translate(0,452.36218)"
       id="path4775-9" />
    <rect
       y="703.97516"
       x="270.96771"
       height="58.064514"
       width="232.25806"
       id="rect17548"
       style="color:#000000;fill:#000000;fill-opacity:1;fill-rule:nonzero;stroke:none;stroke-width:3.54299998;marker:none;visibility:visible;display:inline;overflow:visible;enable-background:accumulate" />
    <path
       inkscape:connector-curvature="0"
       style="color:#000000;fill:#000000;fill-opacity:1;fill-rule:nonzero;stroke:none;stroke-width:1px;marker:none;visibility:visible;display:inline;overflow:visible;enable-background:accumulate"
       d="m 309.6774,773.80098 c -19.28468,0 -34.91801,15.63329 -34.91801,34.918 0,19.28467 15.63333,34.91804 34.91801,34.91804 19.28467,0 34.91797,-15.63337 34.91797,-34.91804 0,-19.28471 -15.6333,-34.918 -34.91797,-34.918 z m 0,16.432 c 10.20938,0 18.486,8.27649 18.486,18.486 0,10.2095 -8.27662,18.48603 -18.486,18.48603 -10.20949,0 -18.4861,-8.27653 -18.4861,-18.48603 0,-10.20951 8.27661,-18.486 18.4861,-18.486 z"
       id="path17648" />
    <path
       id="path17652"
       d="m 474.19353,773.80098 c -19.28468,0 -34.91797,15.63329 -34.91797,34.918 0,19.28467 15.63329,34.91804 34.91797,34.91804 19.28467,0 34.91796,-15.63337 34.91796,-34.91804 0,-19.28471 -15.63329,-34.918 -34.91796,-34.918 z m 0,16.432 c 10.20938,0 18.486,8.27649 18.486,18.486 0,10.2095 -8.27662,18.48603 -18.486,18.48603 -10.20949,0 -18.4861,-8.27653 -18.4861,-18.48603 0,-10.20951 8.27661,-18.486 18.4861,-18.486 z"
       style="color:#000000;fill:#000000;fill-opacity:1;fill-rule:nonzero;stroke:none;stroke-width:1px;marker:none;visibility:visible;display:inline;overflow:visible;enable-background:accumulate"
       inkscape:connector-curvature="0" />
    <path
       inkscape:connector-curvature="0"
       style="color:#000000;fill:#000000;fill-opacity:1;stroke:none;stroke-width:1px;marker:none;visibility:visible;display:inline;overflow:visible;enable-background:accumulate"
       d="m 69.344736,769.69095 c 0.936842,12.63921 2.919464,24.99339 5.806452,36.98589 l 12.520161,0 c 0.770129,-16.37787 10.649374,-30.36634 24.707661,-36.98589 l -43.034274,0 z"
       id="path17654" />
    <path
       inkscape:connector-curvature="0"
       style="color:#000000;fill:#000000;fill-opacity:1;fill-rule:nonzero;stroke:none;stroke-width:3.54299998;marker:none;visibility:visible;display:inline;overflow:visible;enable-background:accumulate"
       d="m 103.24595,630.72926 c -21.89234,35.3379 -34.536295,77.00764 -34.536295,121.63306 0,3.24209 0.07955,6.46779 0.211694,9.67742 l 143.981851,0 0,-110.77621 c 0,-11.37913 -9.15517,-20.53427 -20.53427,-20.53427 l -89.12298,0 z"
       id="path17656" />
    <path
       id="path17658"
       d="m 130.74314,773.80092 c -19.28467,0 -34.917966,15.63328 -34.917966,34.91797 0,19.28466 15.633296,34.91803 34.917966,34.91803 19.28468,0 34.91797,-15.63337 34.91797,-34.91803 0,-19.28469 -15.63329,-34.91797 -34.91797,-34.91797 z m 0,16.43199 c 10.20939,0 18.486,8.27649 18.486,18.48598 0,10.2095 -8.27661,18.48602 -18.486,18.48602 -10.20948,0 -18.48609,-8.27652 -18.48609,-18.48602 0,-10.20949 8.27661,-18.48598 18.48609,-18.48598 z"
       style="color:#000000;fill:#000000;fill-opacity:1;fill-rule:nonzero;stroke:none;stroke-width:1px;marker:none;visibility:visible;display:inline;overflow:visible;enable-background:accumulate"
       inkscape:connector-curvature="0" />
    <path
       inkscape:connector-curvature="0"
       style="color:#000000;fill:#000000;fill-opacity:1;stroke:none;stroke-width:3.54299998;marker:none;visibility:visible;display:inline;overflow:visible;enable-background:accumulate"
       d="m 149.09272,769.69095 c 14.05839,6.61954 23.93763,20.60802 24.70766,36.98589 l 48.78024,0 0,-17.63105 48.71976,0 c 4.34538,-8.45738 11.39938,-15.29078 20.02011,-19.35484 l -68.73987,0 -73.4879,0 z m 178.94158,0 c 8.62065,4.06406 15.67481,10.89746 20.02007,19.35484 l 87.76219,0 c 4.34535,-8.45738 11.39932,-15.29078 20.02006,-19.35484 l -127.80232,0 z"
       id="path17660" />
  </g>
</svg>
