<?xml version="1.0" encoding="UTF-8" standalone="no"?>
<svg xmlns="http://www.w3.org/2000/svg" width="571" height="571">
  <g transform="translate(24.532032 -216.19583)">
    <circle cx="285.5" cy="285.5" r="285" fill="#fff" stroke="#010101" transform="translate(-24.532032 216.19583)"/>
    <circle cx="285.25" cy="285.25" r="267.28601" fill="#29a6df" transform="translate(-24.532032 216.19583)"/>
    <path fill="#fff" fill-rule="evenodd" d="M234.64257 327.32381c10.59607 0 18.99664 8.79225 18.99664 19.59446 0 10.59605-8.40057 19.20278-18.99664 19.20278-10.59606 0-19.39862-8.60673-19.39862-19.20278 0-10.80221 8.80256-19.59446 19.39862-19.59446"/>
    <path fill="#fff" fill-rule="evenodd" d="m270.53313 544.06888.2886.44282c-15.39933 0-46.85768.68029-62.25701-2.72116.19543 18.80078 3.40145 36.60175 7.99858 52.80506 5.4011 11.19389 16.00747 19.13063 22.21256 33.12815-2.40164 1.3915 6.74107 6.07108 4.53528 7.86459 1.8038 9.80239 6.99876 12.20401 6.20509 21.80025-9.80239.20615-21.20243-.40157-30.79868 0 1.59766-7.59659 8.99841-9.59624 12.79155-14.99734-8.97778-8.3078-30.45851-18.84202-29.28346-34.12797-11.41036-10.5239-23.367-21.14058-16.66716-44.07465-2.19549-5.19496-11.59589-19.06879-11.59589-24.87188-13.59552 2.60778-25.20171 14.6778-38.79724 17.47112-.79409 9.80238-3.5973 15.80133-6.80293 23.79991l1.40182 24.33589-19.00694-2.12333c-12.399873-3.20562-.79327-9.20457-.79327-18.21327 1.59766-10.19407-.79408-18.39881-.79408-27.3972 0-8.99841 3.79314-10.19408 9.79209-14.19337 16.20331-17.60512 28.80932-16.39915 42.40485-23.39791-9.957-21.53227-6.68953-99.95136-23.98544-103.20851-4.76204 5.6691-11.72988 6.06078-19.87277 9.66838 1.8038 5.99895-2.73148 2.73148-3.13346 8.73042-3.5973 2.99947-12.20403 5.14342-16.997003 4.33944-11.60619-7.19461-5.5351-7.59659-3.32931-14.80151l18.862653-40.66289 6.15355-19.67692 8.18412 10.00853c39.44662-18.84202 82.41839 46.95044 72.78091 55.42316 22.6764-15.36841 23.43915-18.89355 37.0553-43.33252 9.99823-13.39968 16.38884-28.0775 23.98544-8.47273 5.6691 16.53315 25.15018 26.92306 30.80898 43.45622 2.07179 20.05831 16.07962 17.92467 4.67958 25.53156-1.33997.74214-2.70055 1.49459-4.04052 2.24702 31.09759 1.1029 65.31832 6.00925 79.84152 20.15107.39169 0 .99983-.80398.99983-.80398 21.20243-18.3988 57.39189.99982 66.19446 18.80079l12.87401 53.51628-32.37571 1.36059c4.5559-58.58756-26.06754-74.63625-37.29236-62.08178 0 .20615-.60855 1.20598-.40241 1.60797 11.40005 18.59464 2.70056 11.33819.36117 42.63162 3.79315 12.5957 31.88095 41.35348 33.28277 46.14645 4.13329 44.56942-11.53404 39.52907 4.60743 64.72048 4.19513 5.99895-5.94739 13.86353 1.05136 20.66645-12.04941.68029-12.39987 3.19531-23.68653-2.88609-3.80344 0 .78337-20.28507-3.02008-20.28507-6.07109-14.20366 2.38103-34.49903-1.9378-51.09403-3.80345-7.40075-39.25077-30.89143-47.23906-38.29217-13.008 4.20543 16.36824 45.77538 13.9666 55.96944-1.60796 0-4.80327 2.40164-6.40093 2.40164-11.2042 13.59553-18.3988 26.79938-28.20119 40.19906-1.99964 1.19567-6.40092 0-9.40039 1.59766-.59784 5.60726.59783 8.59641 1.8038 13.80167-8.99841 0-20.80043-.19624-29.603-.19624.99982-5.40112 8.82318-13.49246 15.62609-20.69737 3.60762-10.7919 6.30817-15.48179 9.50348-19.48108 5.80309-13.39969 9.70962-23.72776 16.70838-36.72545-7.31829-9.2767-26.34585-17.82158-24.22252-40.61136-3.61791 1.58735-16.95576-1.74195-26.08816.033-2.15425 2.56656-5.34957 4.31882-8.93655 4.77235zM217.5219 443.73616c5.1228 3.70037 9.52408 6.97814 10.87436 9.34886 13.19354-7.16368 15.63641-9.71992 28.81963-16.88361-6.52461-9.40039-9.99823-11.12174-16.52285-20.52213-16.67745 11.84325-23.50098 11.95663-23.17114 28.05688"/>
  </g>
</svg>