<?xml version="1.0" encoding="UTF-8" standalone="no"?>
<!-- Created with Inkscape (http://www.inkscape.org/) -->

<svg
   xmlns:svg="http://www.w3.org/2000/svg"
   xmlns="http://www.w3.org/2000/svg"
   version="1.1"
   width="156.29614"
   height="75.769226"
   id="svg3919">
  <defs
     id="defs3921">
    <clipPath
       id="clipPath6526">
      <path
         d="m 151.922,277.557 36.798,0 c 2.193,0 3.987,-1.187 3.987,-2.638 l 0,-39.54 c 0,-1.451 -1.794,-2.638 -3.987,-2.638 l -36.798,0 c -2.193,0 -3.987,1.187 -3.987,2.638 l 0,39.54 c 0,1.451 1.794,2.638 3.987,2.638"
         id="path6528" />
    </clipPath>
    <clipPath
       id="clipPath5562">
      <path
         d="m 297.2,490.259 c -13.46,0 -24.437,-10.978 -24.437,-24.437 0,-13.46 10.977,-24.437 24.437,-24.437 13.459,0 24.437,10.977 24.437,24.437 0,13.459 -10.978,24.437 -24.437,24.437"
         id="path5564" />
    </clipPath>
  </defs>
  <g
     transform="translate(-39.029469,-305.73312)"
     id="layer1">
    <rect
       width="155.29614"
       height="74.769226"
       rx="5.521337"
       ry="5.2912302"
       x="39.529469"
       y="306.23312"
       id="rect3943"
       style="color:#000000;fill:#ffffff;fill-opacity:1;fill-rule:evenodd;stroke:#000000;stroke-width:1;stroke-linecap:round;stroke-linejoin:round;stroke-miterlimit:4;stroke-opacity:1;stroke-dasharray:none;stroke-dashoffset:0;marker:none;visibility:visible;display:inline;overflow:visible;enable-background:accumulate" />
    <rect
       width="150.97258"
       height="70.703354"
       rx="3.5915337"
       ry="3.3901298"
       x="41.800575"
       y="308.35443"
       id="rect4455"
       style="color:#000000;fill:#38ae42;fill-opacity:1;fill-rule:evenodd;stroke:none;stroke-width:1;marker:none;visibility:visible;display:inline;overflow:visible;enable-background:accumulate" />
    <g
       id="text4457"
       style="font-size:10px;font-style:normal;font-variant:normal;font-weight:normal;font-stretch:normal;text-align:start;line-height:100%;writing-mode:lr-tb;text-anchor:start;fill:#ffffff;fill-opacity:1;stroke:none;font-family:Drogowskaz;-inkscape-font-specification:Drogowskaz">
      <path
         d="m 69.383916,363.28659 25.703669,0 0,-6.04792 -18.647759,0 0,-12.09585 14.615811,0 0,-6.04792 -14.615811,0 0,-9.57587 18.143766,0 0,-6.55192 -25.199676,0 z"
         id="path7923"
         style="font-size:72px;fill:#ffffff;font-family:Russian Road Sign;-inkscape-font-specification:Russian Road Sign" />
      <path
         d="m 106.18044,325.48708 2.66397,5.97592 c 1.37997,-1.21495 2.72395,-2.09694 4.03195,-2.64597 1.30797,-0.54895 2.93994,-0.81895 4.89593,-0.80999 1.31247,0.0315 2.46745,0.47253 3.46496,1.32299 0.99746,0.85052 1.52246,1.9215 1.57498,3.21296 -0.063,1.575 -0.94501,3.08698 -2.64597,4.53594 -1.70099,1.449 -3.84296,2.45699 -6.42591,3.02396 l 0,5.54393 c 0.51147,-0.24148 1.07247,-0.38848 1.68297,-0.441 0.61048,-0.0525 1.22547,-0.0735 1.84498,-0.063 3.16344,0.13802 5.17041,0.90601 6.02092,2.30397 0.85047,1.398 1.21946,2.59798 1.10699,3.59996 -0.10802,2.32648 -0.99001,4.02745 -2.64597,5.10293 -1.65599,1.07549 -3.65397,1.60649 -5.99392,1.59298 -1.71899,0.0105 -3.51897,-0.15449 -5.39993,-0.49499 -1.88098,-0.34049 -3.46496,-0.91948 -4.75194,-1.73698 l 0.86399,7.05591 c 0.17699,0.072 1.38897,0.36 3.63595,0.86399 2.24696,0.50399 4.46693,0.79199 6.65992,0.86399 4.80741,-0.168 8.47636,-1.59598 11.00685,-4.28395 2.53044,-2.68796 3.80542,-5.62792 3.82496,-8.81988 -0.0743,-2.17774 -0.7338,-3.98216 -1.97865,-5.41327 -1.2449,-1.43107 -2.62977,-2.52617 -4.15461,-3.28529 -1.52489,-0.75908 -2.74443,-1.21952 -3.65862,-1.38131 2.09995,-0.29398 3.94793,-1.34396 5.54393,-3.14996 1.59595,-1.80595 2.43594,-4.11592 2.51997,-6.92991 -0.13503,-2.80643 -1.30501,-5.0234 -3.50996,-6.65092 -2.20499,-1.62744 -4.63496,-2.45843 -7.2899,-2.49297 -2.14349,0.0555 -4.48046,0.46654 -7.01091,1.23299 -2.53048,0.76653 -4.48945,1.55552 -5.87693,2.36697 z"
         id="path7925"
         style="font-size:72px;fill:#ffffff;font-family:Russian Road Sign;-inkscape-font-specification:Russian Road Sign" />
      <path
         d="m 154.94452,322.46312 c -4.09496,0.10503 -7.37092,2.03701 -9.82788,5.79592 -2.45697,3.75898 -3.71695,8.71491 -3.77995,14.86781 0.063,6.15293 1.32298,11.10887 3.77995,14.86781 2.45696,3.75895 5.73292,5.69092 9.82788,5.79592 4.09492,-0.10499 7.37088,-2.03697 9.82787,-5.79592 2.45694,-3.75895 3.71692,-8.71488 3.77995,-14.86781 -0.063,-5.8694 -1.32301,-10.74433 -3.77995,-14.62481 -2.45699,-3.88041 -5.73295,-5.89339 -9.82787,-6.03892 z m 0,6.26392 c 1.97395,-0.03 3.55193,1.11001 4.73394,3.41995 1.18196,2.31 1.78795,5.96995 1.81797,10.97986 -0.03,5.00995 -0.63601,8.6699 -1.81797,10.97986 -1.18201,2.30997 -2.75999,3.44996 -4.73394,3.41995 -1.97399,0.03 -3.55197,-1.10997 -4.73394,-3.41995 -1.182,-2.30996 -1.78799,-5.96991 -1.81798,-10.97986 0.03,-5.00991 0.63598,-8.66986 1.81798,-10.97986 1.18197,-2.30994 2.75995,-3.44992 4.73394,-3.41995 z"
         id="path7927"
         style="font-size:72px;fill:#ffffff;font-family:Russian Road Sign;-inkscape-font-specification:Russian Road Sign" />
    </g>
  </g>
</svg>
