<?xml version="1.0" encoding="UTF-8" standalone="no"?>
<svg
   xmlns:dc="http://purl.org/dc/elements/1.1/"
   xmlns:cc="http://creativecommons.org/ns#"
   xmlns:rdf="http://www.w3.org/1999/02/22-rdf-syntax-ns#"
   xmlns:svg="http://www.w3.org/2000/svg"
   xmlns="http://www.w3.org/2000/svg"
   xmlns:sodipodi="http://sodipodi.sourceforge.net/DTD/sodipodi-0.dtd"
   xmlns:inkscape="http://www.inkscape.org/namespaces/inkscape"
   sodipodi:docname="6.3.3.svg"
   inkscape:version="1.0 (4035a4fb49, 2020-05-01)"
   version="1.1"
   id="svg2"
   height="1050"
   width="700">
  <defs
     id="defs4" />
  <sodipodi:namedview
     inkscape:document-rotation="0"
     inkscape:window-maximized="1"
     inkscape:window-y="-9"
     inkscape:window-x="-9"
     inkscape:window-height="1001"
     inkscape:window-width="1920"
     showgrid="false"
     inkscape:current-layer="layer1"
     inkscape:document-units="px"
     inkscape:cy="452.64418"
     inkscape:cx="288.48682"
     inkscape:zoom="0.70710678"
     inkscape:pageshadow="2"
     inkscape:pageopacity="0.0"
     borderopacity="1.0"
     bordercolor="#666666"
     pagecolor="#ffffff"
     id="base" />
  <metadata
     id="metadata7">
    <rdf:RDF>
      <cc:Work
         rdf:about="">
        <dc:format>image/svg+xml</dc:format>
        <dc:type
           rdf:resource="http://purl.org/dc/dcmitype/StillImage" />
        <dc:title></dc:title>
        <cc:license
           rdf:resource="http://creativecommons.org/licenses/by-sa/3.0/" />
        <dc:description>ГОСТ Р 52290-2004
Размеры и пропорции по типоразмеру II</dc:description>
      </cc:Work>
      <cc:License
         rdf:about="http://creativecommons.org/licenses/by-sa/3.0/">
        <cc:permits
           rdf:resource="http://creativecommons.org/ns#Reproduction" />
        <cc:permits
           rdf:resource="http://creativecommons.org/ns#Distribution" />
        <cc:requires
           rdf:resource="http://creativecommons.org/ns#Notice" />
        <cc:requires
           rdf:resource="http://creativecommons.org/ns#Attribution" />
        <cc:permits
           rdf:resource="http://creativecommons.org/ns#DerivativeWorks" />
        <cc:requires
           rdf:resource="http://creativecommons.org/ns#ShareAlike" />
      </cc:License>
    </rdf:RDF>
  </metadata>
  <g
     transform="translate(0,-2.3621678)"
     id="layer1"
     inkscape:groupmode="layer"
     inkscape:label="Layer 1">
    <rect
       ry="45"
       rx="45"
       y="2.3621831"
       x="0"
       height="1050"
       width="700"
       id="rect10481"
       style="color:#000000;display:inline;overflow:visible;visibility:visible;opacity:1;fill:#ffffff;fill-opacity:1;fill-rule:nonzero;stroke:none;stroke-width:3.543;marker:none;enable-background:accumulate" />
    <path
       id="rect10483"
       d="m 45.000009,22.362155 c -13.85,0 -25,11.15 -25,25 V 1007.3622 c 0,13.85 11.15,25 25,25 H 655.00001 c 13.85,0 25,-11.15 25,-25 V 47.362155 c 0,-13.85 -11.15,-25 -25,-25 z M 110.62501,177.36216 h 478.75 c 24.93,0 45,20.07 45,45 v 478.75 c 0,24.93 -20.07,45 -45,45 h -478.75 c -24.930001,0 -45.000001,-20.07 -45.000001,-45 v -478.75 c 0,-24.93 20.07,-45 45.000001,-45 z"
       style="color:#000000;display:inline;overflow:visible;visibility:visible;opacity:1;fill:#0d69e1;fill-opacity:1;fill-rule:nonzero;stroke:none;stroke-width:3.543;marker:none;enable-background:accumulate"
       inkscape:connector-curvature="0" />
    <rect
       style="color:#000000;display:inline;overflow:visible;visibility:visible;opacity:1;fill:none;stroke:#000000;stroke-width:2;stroke-miterlimit:4;stroke-dasharray:none;stroke-opacity:1;marker:none;enable-background:accumulate"
       id="rect10490"
       width="698"
       height="1048"
       x="1.0000153"
       y="3.3621678"
       rx="44"
       ry="44" />
    <g
       id="text10249"
       style="font-style:normal;font-variant:normal;font-weight:normal;font-stretch:normal;font-size:195.314px;line-height:125%;font-family:Arial;-inkscape-font-specification:Arial;letter-spacing:0px;word-spacing:0px;opacity:1;fill:#ffffff;fill-opacity:1;stroke:none">
      <path
         id="path11194"
         style="font-family:'Russian Road Sign';-inkscape-font-specification:'Russian Road Sign';fill:#ffffff"
         d="m 190.85916,832.2454 c -9.20004,1.1e-4 -17.1183,2.39268 -23.7548,7.17771 -6.63654,4.78524 -10.11146,11.96294 -10.42476,21.53312 0.23629,6.32963 1.89041,11.29199 4.96237,14.8871 3.07192,3.59525 6.14385,6.12707 9.21582,7.59546 3.07191,1.46851 4.72603,2.17742 4.96237,2.12673 -0.2701,-0.0168 -2.16052,0.92839 -5.67128,2.83563 -3.51082,1.90736 -7.0216,4.87802 -10.53237,8.912 -3.5108,4.03408 -5.40123,9.23275 -5.67127,15.59602 -0.17091,7.29166 2.56345,14.2415 8.20309,20.84953 5.6396,6.60805 15.20987,10.13994 28.71083,10.59567 13.50087,-0.45573 23.07114,-3.98762 28.71084,-10.59567 5.63954,-6.60804 8.3739,-13.55787 8.20309,-20.84953 -0.27015,-6.36327 -2.16057,-11.56194 -5.67128,-15.59601 -3.51087,-4.03399 -7.02165,-7.00465 -10.53237,-8.91201 -3.51085,-1.90724 -5.40127,-2.85246 -5.67127,-2.83563 0.23624,0.0507 1.89036,-0.65822 4.96237,-2.12673 3.07187,-1.4684 6.1438,-4.00022 9.21582,-7.59546 3.07186,-3.59511 4.72598,-8.55747 4.96237,-14.8871 -0.3134,-9.57019 -3.78832,-16.74789 -10.42477,-21.53313 -6.6366,-4.78503 -14.55486,-7.17759 -23.7548,-7.1777 z m 0,15.62494 c 4.21543,-0.0528 7.74731,0.9319 10.59567,2.9541 2.84823,2.02238 4.32935,5.39964 4.44334,10.13179 -0.62669,4.27253 -3.13319,8.03228 -7.5195,11.27926 -4.38643,3.24712 -6.89293,4.9561 -7.51951,5.12693 -0.62667,-0.17083 -3.13317,-1.87981 -7.5195,-5.12693 -4.38642,-3.24699 -6.89291,-7.00674 -7.5195,-11.27926 0.1139,-4.73215 1.59501,-8.10942 4.44334,-10.1318 2.84826,-2.0222 6.38014,-3.00689 10.59566,-2.95409 z m 0,45.89827 c 0.21938,0.0507 1.75535,1.01278 4.60792,2.88628 2.85246,1.87359 5.70497,4.35477 8.55754,7.44355 2.85246,3.08885 4.38842,6.48149 4.60792,10.17791 -0.22793,4.75668 -2.16477,8.23159 -5.81053,10.42476 -3.64588,2.19321 -7.63349,3.27556 -11.96285,3.24707 -4.32945,0.0285 -8.31707,-1.05386 -11.96285,-3.24706 -3.64585,-2.19317 -5.58269,-5.66809 -5.81052,-10.42477 0.2194,-3.26601 1.75537,-6.4561 4.60791,-9.57028 2.85248,-3.11409 5.70499,-5.69655 8.55755,-7.74737 2.85247,-2.05073 4.38844,-3.11409 4.60791,-3.19009 z" />
      <path
         id="path11196"
         style="font-family:'Russian Road Sign';-inkscape-font-specification:'Russian Road Sign';fill:#ffffff"
         d="m 289.27926,832.2454 c -11.1084,0.28494 -19.99507,5.5258 -26.66006,15.7226 -6.66503,10.19698 -10.08298,23.64093 -10.25387,40.33188 0.17089,16.69106 3.58884,30.13501 10.25387,40.33188 6.66499,10.19691 15.55166,15.43777 26.66006,15.72261 11.1083,-0.28483 19.99497,-5.5257 26.66006,-15.72261 6.66493,-10.19688 10.08288,-23.64083 10.25387,-40.33188 -0.17099,-15.92191 -3.58894,-29.14613 -10.25387,-39.67271 -6.66509,-10.52638 -15.55176,-15.98697 -26.66006,-16.38177 z m 0,16.99213 c 5.35474,-0.0813 9.63532,3.01114 12.84175,9.2773 3.20631,6.26633 4.85018,16.19467 4.93162,29.78505 -0.0815,13.59049 -1.72532,23.51883 -4.93162,29.78505 -3.20643,6.26627 -7.48701,9.3587 -12.84175,9.27731 -5.35484,0.0814 -9.63542,-3.01104 -12.84175,-9.27731 -3.2064,-6.26623 -4.85027,-16.19456 -4.93162,-29.78505 0.0813,-13.59038 1.72522,-23.51872 4.93162,-29.78505 3.20633,-6.26616 7.48691,-9.35859 12.84175,-9.2773 z" />
      <path
         id="path11198"
         style="font-family:'Russian Road Sign';-inkscape-font-specification:'Russian Road Sign';fill:#ffffff"
         d="m 387.69936,832.2454 c -11.1084,0.28494 -19.99508,5.5258 -26.66006,15.7226 -6.66503,10.19698 -10.08299,23.64093 -10.25387,40.33188 0.17088,16.69106 3.58884,30.13501 10.25387,40.33188 6.66498,10.19691 15.55166,15.43777 26.66006,15.72261 11.10829,-0.28483 19.99497,-5.5257 26.66006,-15.72261 6.66493,-10.19688 10.08288,-23.64083 10.25387,-40.33188 -0.17099,-15.92191 -3.58894,-29.14613 -10.25387,-39.67271 -6.66509,-10.52638 -15.55177,-15.98697 -26.66006,-16.38177 z m 0,16.99213 c 5.35474,-0.0813 9.63532,3.01114 12.84175,9.2773 3.2063,6.26633 4.85018,16.19467 4.93162,29.78505 -0.0815,13.59049 -1.72532,23.51883 -4.93162,29.78505 -3.20643,6.26627 -7.48701,9.3587 -12.84175,9.27731 -5.35485,0.0814 -9.63543,-3.01104 -12.84175,-9.27731 -3.2064,-6.26623 -4.85028,-16.19456 -4.93162,-29.78505 0.0813,-13.59038 1.72522,-23.51872 4.93162,-29.78505 3.20633,-6.26616 7.48691,-9.35859 12.84175,-9.2773 z" />
      <path
         id="path11200"
         style="font-family:'Russian Road Sign';-inkscape-font-specification:'Russian Road Sign';fill:#ffffff"
         d="m 461.45551,942.98718 h 16.40619 l 4.10155,-53.32011 21.87492,43.74984 21.87492,-43.74984 4.10155,53.32011 h 16.40619 l -6.83592,-76.56222 h -16.40619 l -19.14055,38.28111 -19.14056,-38.28111 h -16.40619 z" />
    </g>
    <path
       id="path2926"
       d="m 419.72142,195.14992 c -13.52078,0 -24.40577,10.88498 -24.40577,24.40579 V 638.89126 H 617.1863 V 219.55571 c 0,-13.52081 -10.885,-24.40579 -24.40577,-24.40579 z m 19.96836,44.37416 h 133.12239 c 6.14583,0 11.09354,4.94771 11.09354,11.09353 v 110.93532 c 0,6.14582 -4.94771,11.09353 -11.09354,11.09353 H 439.68978 c -6.14584,0 -11.09354,-4.94771 -11.09354,-11.09353 V 250.61761 c 0,-6.14582 4.94769,-11.09353 11.09354,-11.09353 z"
       style="color:#000000;display:inline;overflow:visible;visibility:visible;opacity:1;fill:#0d69e1;fill-opacity:1;fill-rule:nonzero;stroke:none;stroke-width:3.543;marker:none;enable-background:accumulate" />
    <path
       id="path11135-0"
       style="color:#000000;display:inline;overflow:visible;visibility:visible;opacity:1;fill:#000000;fill-opacity:1;fill-rule:nonzero;stroke:none;stroke-width:2;marker:none;enable-background:accumulate"
       d="m 284.84496,448.67491 c 0,-6.1268 4.96673,-11.09354 11.09352,-11.09354 v -22.18706 c -18.38026,0 -33.2806,14.90023 -33.2806,33.2806 V 581.7973 c 0,42.88752 -34.7672,77.65473 -77.65472,77.65473 -42.88753,0 -77.65473,-34.76721 -77.65473,-77.65473 0,-19.325 7.20561,-37.9557 20.20887,-52.25157 L 241.00554,404.81698 c 13.93208,-15.31702 21.65234,-35.2785 21.65234,-55.98387 v -44.37413 c 0,-6.12679 4.96675,-11.09355 11.09355,-11.09355 h 22.18706 v -22.18705 h -22.18707 c -18.38027,0 -33.2806,14.90024 -33.2806,33.2806 v 44.37413 c 0,15.18395 -5.66149,29.82236 -15.87831,41.05485 L 111.14417,514.61669 c -16.71852,18.38043 -25.98281,42.33417 -25.98281,67.18061 0,55.1411 44.70069,99.8418 99.8418,99.8418 55.1411,0 99.8418,-44.7007 99.8418,-99.8418 z"
       inkscape:connector-curvature="0"
       sodipodi:nodetypes="cccccssccccccccccccsscc" />
    <rect
       y="265.11676"
       x="328.12466"
       height="169.53571"
       width="195.82031"
       id="rect2928"
       style="opacity:1;fill:#ffffff;fill-opacity:1;fill-rule:evenodd;stroke-width:140;stroke-linecap:round;paint-order:stroke markers fill" />
    <path
       style="color:#000000;display:inline;overflow:visible;visibility:visible;opacity:1;fill:#000000;fill-opacity:1;fill-rule:nonzero;stroke:none;stroke-width:3.543;marker:none;enable-background:accumulate"
       d="m 331.43779,237.89778 c -13.52077,0 -24.40577,10.88497 -24.40577,24.40578 V 681.63911 H 528.9027 V 262.30356 c 0,-13.52081 -10.885,-24.40578 -24.40578,-24.40578 z m 19.96838,44.37415 h 133.12238 c 6.14585,0 11.09354,4.94772 11.09354,11.09352 v 110.93533 c 0,6.14582 -4.94769,11.09354 -11.09354,11.09354 H 351.40617 c -6.14586,0 -11.09356,-4.94772 -11.09356,-11.09354 V 293.36545 c 0,-6.1458 4.9477,-11.09352 11.09356,-11.09352 z"
       id="rect10216-1" />
  </g>
</svg>
