<?xml version="1.0" encoding="UTF-8" standalone="no"?>
<svg
   xmlns:dc="http://purl.org/dc/elements/1.1/"
   xmlns:cc="http://creativecommons.org/ns#"
   xmlns:rdf="http://www.w3.org/1999/02/22-rdf-syntax-ns#"
   xmlns:svg="http://www.w3.org/2000/svg"
   xmlns="http://www.w3.org/2000/svg"
   xmlns:sodipodi="http://sodipodi.sourceforge.net/DTD/sodipodi-0.dtd"
   xmlns:inkscape="http://www.inkscape.org/namespaces/inkscape"
   sodipodi:docname="7.12.svg"
   inkscape:version="1.0 (4035a4fb49, 2020-05-01)"
   version="1.1"
   id="svg4249"
   viewBox="-2 -2 333.0222 163.79734"
   height="299.99982"
   width="600">
  <title
     id="title4130">7.12 Нанесение разметки</title>
  <metadata
     id="metadata4261">
    <rdf:RDF>
      <cc:Work
         rdf:about="">
        <dc:format>image/svg+xml</dc:format>
        <dc:type
           rdf:resource="http://purl.org/dc/dcmitype/StillImage" />
        <dc:title>7.12 Нанесение разметки</dc:title>
      </cc:Work>
    </rdf:RDF>
  </metadata>
  <defs
     id="defs4259">
    <inkscape:path-effect
       lpeversion="0"
       is_visible="true"
       id="path-effect3019"
       effect="spiro" />
    <inkscape:path-effect
       lpeversion="0"
       is_visible="true"
       id="path-effect3015"
       effect="spiro" />
    <pattern
       id="EMFhbasepattern"
       patternUnits="userSpaceOnUse"
       width="6"
       height="6"
       x="0"
       y="0" />
  </defs>
  <sodipodi:namedview
     inkscape:document-rotation="0"
     fit-margin-bottom="0"
     fit-margin-right="0"
     fit-margin-left="0"
     fit-margin-top="0"
     inkscape:current-layer="g3789"
     inkscape:window-maximized="1"
     inkscape:window-y="-9"
     inkscape:window-x="-9"
     inkscape:cy="118.78643"
     inkscape:cx="327.14205"
     inkscape:zoom="1.0833333"
     showgrid="false"
     id="namedview4257"
     inkscape:window-height="1001"
     inkscape:window-width="1920"
     inkscape:pageshadow="2"
     inkscape:pageopacity="0"
     guidetolerance="10"
     gridtolerance="10"
     objecttolerance="10"
     borderopacity="1"
     bordercolor="#666666"
     pagecolor="#ffffff">
    <inkscape:grid
       originy="-595.1877"
       originx="-271.16022"
       snapvisiblegridlinesonly="true"
       enabled="true"
       visible="true"
       empspacing="5"
       id="grid2999"
       type="xygrid" />
  </sodipodi:namedview>
  <g
     transform="translate(-271.16021,-605.04831)"
     id="g3789">
    <path
       id="path4132"
       style="color:#000000;display:inline;overflow:visible;visibility:visible;opacity:1;fill:#000000;fill-opacity:1;fill-rule:nonzero;stroke:none;stroke-width:1.9665;marker:none;enable-background:accumulate"
       d="m 294.13681,601.69148 h 283.0689 c 13.83709,0 24.9767,11.1395 24.9767,24.9766 v 116.5579 c 0,13.837 -11.13961,24.9765 -24.9767,24.9765 h -283.0689 c -13.83705,0 -24.9766,-11.1395 -24.9766,-24.9765 v -116.5579 c 0,-13.8371 11.13955,-24.9766 24.9766,-24.9766 z" />
    <path
       id="path4134"
       style="color:#000000;display:inline;overflow:visible;visibility:visible;opacity:1;fill:#ffcc00;fill-opacity:1;fill-rule:nonzero;stroke:none;stroke-width:1.9665;marker:none;enable-background:accumulate"
       d="m 294.13681,607.24169 h 283.0689 c 10.76219,0 19.42639,8.66419 19.42639,19.42629 v 116.55789 c 0,10.7621 -8.6642,19.4263 -19.42639,19.4263 h -283.0689 c -10.76209,0 -19.42614,-8.6642 -19.42614,-19.4263 V 626.66798 c 0,-10.7621 8.66405,-19.42629 19.42614,-19.42629 z" />
    <path
       d="m 546.28159,623.44829 v 33.96099 l -6.76578,-0.0838 v 27.18753 l 20.29861,20.68966 v -26.9933 l -6.76578,-13.90102 v -33.96857 z m -36.91662,68.56054 -43.46149,4.85121 10.61272,20.1196 43.51989,-7.30791 z m -72.92418,7.56311 -54.77505,5.1686 11.56999,27.10757 54.97566,-9.84968 z m -83.42519,10.03123 -54.04752,5.42507 v 32.56818 l 64.85065,-10.85648 z"
       style="opacity:1;fill:#000000;fill-opacity:1;fill-rule:evenodd;stroke:none;stroke-width:0.14986;stroke-linecap:butt;stroke-linejoin:miter;stroke-miterlimit:22.926;stroke-dasharray:none;stroke-opacity:1"
       id="path3658" />
  </g>
</svg>
