<?xml version="1.0" encoding="UTF-8" standalone="no"?>
<!-- Created with Inkscape (http://www.inkscape.org/) -->

<svg
   xmlns:dc="http://purl.org/dc/elements/1.1/"
   xmlns:cc="http://creativecommons.org/ns#"
   xmlns:rdf="http://www.w3.org/1999/02/22-rdf-syntax-ns#"
   xmlns:svg="http://www.w3.org/2000/svg"
   xmlns="http://www.w3.org/2000/svg"
   xmlns:sodipodi="http://sodipodi.sourceforge.net/DTD/sodipodi-0.dtd"
   xmlns:inkscape="http://www.inkscape.org/namespaces/inkscape"
   version="1.1"
   width="1821.6816"
   height="920.84082"
   viewBox="-2 -2 1011.1007 502.77123"
   id="svg4249"
   sodipodi:docname="7.23_(Road_sign) 1.svg"
   inkscape:version="0.92.4 (5da689c313, 2019-01-14)">
  <title
     id="title1795">7.23 Экстренная помощь</title>
  <sodipodi:namedview
     pagecolor="#ffffff"
     bordercolor="#666666"
     borderopacity="1"
     objecttolerance="10"
     gridtolerance="10"
     guidetolerance="10"
     inkscape:pageopacity="0"
     inkscape:pageshadow="2"
     inkscape:window-width="1304"
     inkscape:window-height="745"
     id="namedview1791"
     showgrid="true"
     inkscape:zoom="0.6276872"
     inkscape:cx="910.84082"
     inkscape:cy="460.42041"
     inkscape:window-x="-8"
     inkscape:window-y="-8"
     inkscape:window-maximized="1"
     inkscape:current-layer="text6852">
    <inkscape:grid
       type="xygrid"
       id="grid1793" />
  </sodipodi:namedview>
  <metadata
     id="metadata4261">
    <rdf:RDF>
      <cc:Work
         rdf:about="">
        <dc:format>image/svg+xml</dc:format>
        <dc:type
           rdf:resource="http://purl.org/dc/dcmitype/StillImage" />
        <dc:title>7.23 Экстренная помощь</dc:title>
        <dc:creator>
          <cc:Agent>
            <dc:title>KorneySan</dc:title>
          </cc:Agent>
        </dc:creator>
        <dc:description>СТБ 1300-2013</dc:description>
      </cc:Work>
    </rdf:RDF>
  </metadata>
  <defs
     id="defs4259" />
  <g
     id="g3817">
    <g
       transform="translate(3.5503702,-0.61628416)"
       id="g4251"
       style="fill:#ffffff;fill-opacity:1;stroke:#000000;stroke-width:11.10074043;stroke-linecap:round;stroke-linejoin:round;stroke-miterlimit:4;stroke-opacity:1;stroke-dasharray:none">
      <rect
         width="1000"
         height="500"
         rx="90"
         ry="90"
         x="0"
         y="0"
         id="rect4253"
         style="fill:#ffffff;fill-opacity:1;stroke:#000000;stroke-width:11.10074043;stroke-linecap:round;stroke-linejoin:round;stroke-miterlimit:4;stroke-opacity:1;stroke-dasharray:none" />
      <rect
         width="1000"
         height="500"
         rx="90"
         ry="90"
         x="0"
         y="0"
         id="rect4255"
         style="fill:#ffffff;fill-opacity:1;stroke:#000000;stroke-width:11.10074043;stroke-linecap:round;stroke-linejoin:round;stroke-miterlimit:4;stroke-opacity:1;stroke-dasharray:none" />
    </g>
    <g
       aria-label="SOS"
       style="font-style:normal;font-variant:normal;font-weight:bold;font-stretch:normal;font-size:560.62683105px;line-height:125%;font-family:Sans;-inkscape-font-specification:'Sans Bold';text-align:center;letter-spacing:0px;word-spacing:0px;writing-mode:lr-tb;text-anchor:middle;fill:black;fill-opacity:1;stroke:none;stroke-width:1.34676147"
       id="text6852">
      <path
         d="M 52.082116,359.63974 90.765367,326.56275 Q 94.129128,330.48714 100.85665,336.65404 107.58417,342.82093 129.44862,353.47284 151.87369,363.56413 176.54127,363.56413 207.93637,363.56413 223.0733,348.98783 238.21022,333.8509 238.21022,320.39586 V 319.83523 Q 238.21022,313.10771 236.52834,308.06207 235.40709,303.01643 229.24019,295.16765 223.63393,286.75825 207.93637,280.59135 192.23882,274.42446 167.57124,271.0607 136.73677,266.57568 115.43295,255.92377 94.689755,244.71124 85.159099,230.69557 76.189069,216.6799 72.825308,205.46736 69.461547,194.25482 69.461547,183.04229 69.461547,141.5559 101.41728,113.52456 133.93363,84.93259 183.26879,84.93259 207.93637,84.93259 234.28584,95.5845 260.6353,106.23641 275.21159,117.44895 L 289.22727,128.10086 252.78652,167.34473 Q 249.42276,163.98097 243.25587,158.93533 237.6496,153.32906 219.14891,144.91966 201.20885,135.94963 183.26879,135.94963 151.87369,135.94963 137.85802,151.08656 124.40298,166.22348 124.40298,181.92103 124.40298,189.76981 128.32736,196.49733 132.25175,202.66422 137.85802,206.58861 144.02492,210.513 154.1162,213.87676 164.76811,217.24052 173.17751,219.48303 181.58691,221.16491 195.60258,223.96804 202.89073,225.64992 206.81512,226.21055 248.86213,235.18058 272.40846,258.72691 295.95479,281.71261 295.95479,316.47147 295.95479,350.66971 262.8778,382.62544 229.80082,414.58117 175.42002,414.58117 144.02492,414.58117 113.19044,401.12612 82.355965,387.11045 67.21904,373.09478 Z"
         style="font-style:normal;font-variant:normal;font-weight:bold;font-stretch:normal;font-size:560.62683105px;line-height:125%;font-family:'Russian Road Sign';-inkscape-font-specification:'Russian Road Sign Bold';text-align:center;writing-mode:lr-tb;text-anchor:middle;stroke-width:1.34676147"
         id="path1797" />
      <path
         d="M 400.75696,131.46462 Q 433.83394,84.93259 496.06352,84.93259 558.2931,84.93259 590.80946,131.46462 623.88644,177.99664 623.88644,249.75688 623.88644,321.51711 590.80946,368.04914 558.2931,414.58117 496.06352,414.58117 433.83394,414.58117 400.75696,368.04914 368.2406,321.51711 368.2406,249.75688 368.2406,177.99664 400.75696,131.46462 Z M 549.8837,166.78411 Q 529.1405,135.94963 496.06352,135.94963 462.98654,135.94963 442.24335,166.78411 421.50015,197.61858 421.50015,249.75688 421.50015,301.89517 442.24335,332.72965 462.98654,363.56413 496.06352,363.56413 529.1405,363.56413 549.8837,332.72965 570.62689,301.89517 570.62689,249.75688 570.62689,197.61858 549.8837,166.78411 Z"
         style="font-style:normal;font-variant:normal;font-weight:bold;font-stretch:normal;font-size:560.62683105px;line-height:125%;font-family:'Russian Road Sign';-inkscape-font-specification:'Russian Road Sign Bold';text-align:center;writing-mode:lr-tb;text-anchor:middle;stroke-width:1.34676147"
         id="path1799" />
      <path
         d="M 710.16164,359.63974 748.8449,326.56275 Q 752.20866,330.48714 758.93618,336.65404 765.6637,342.82093 787.52815,353.47284 809.95322,363.56413 834.6208,363.56413 866.0159,363.56413 881.15283,348.98783 896.28975,333.8509 896.28975,320.39586 V 319.83523 Q 896.28975,313.10771 894.60787,308.06207 893.48662,303.01643 887.31972,295.16765 881.71345,286.75825 866.0159,280.59135 850.31835,274.42446 825.65077,271.0607 794.8163,266.57568 773.51248,255.92377 752.76928,244.71124 743.23863,230.69557 734.2686,216.6799 730.90484,205.46736 727.54108,194.25482 727.54108,183.04229 727.54108,141.5559 759.49681,113.52456 792.01316,84.93259 841.34832,84.93259 866.0159,84.93259 892.36536,95.5845 918.71483,106.23641 933.29112,117.44895 L 947.30679,128.10086 910.86605,167.34473 Q 907.50229,163.98097 901.33539,158.93533 895.72913,153.32906 877.22844,144.91966 859.28838,135.94963 841.34832,135.94963 809.95322,135.94963 795.93755,151.08656 782.48251,166.22348 782.48251,181.92103 782.48251,189.76981 786.40689,196.49733 790.33128,202.66422 795.93755,206.58861 802.10444,210.513 812.19573,213.87676 822.84764,217.24052 831.25704,219.48303 839.66644,221.16491 853.68211,223.96804 860.97026,225.64992 864.89465,226.21055 906.94166,235.18058 930.48799,258.72691 954.03432,281.71261 954.03432,316.47147 954.03432,350.66971 920.95733,382.62544 887.88035,414.58117 833.49955,414.58117 802.10444,414.58117 771.26997,401.12612 740.43549,387.11045 725.29857,373.09478 Z"
         style="font-style:normal;font-variant:normal;font-weight:bold;font-stretch:normal;font-size:560.62683105px;line-height:125%;font-family:'Russian Road Sign';-inkscape-font-specification:'Russian Road Sign Bold';text-align:center;writing-mode:lr-tb;text-anchor:middle;stroke-width:1.34676147"
         id="path1801" />
    </g>
  </g>
</svg>
