<?xml version="1.0" encoding="UTF-8" standalone="no"?>
<svg
   xmlns:dc="http://purl.org/dc/elements/1.1/"
   xmlns:cc="http://creativecommons.org/ns#"
   xmlns:rdf="http://www.w3.org/1999/02/22-rdf-syntax-ns#"
   xmlns:svg="http://www.w3.org/2000/svg"
   xmlns="http://www.w3.org/2000/svg"
   xmlns:sodipodi="http://sodipodi.sourceforge.net/DTD/sodipodi-0.dtd"
   xmlns:inkscape="http://www.inkscape.org/namespaces/inkscape"
   width="600"
   height="300"
   viewBox="-2 -2 333.0222 163.79744"
   id="svg4249"
   version="1.1"
   inkscape:version="1.0 (4035a4fb49, 2020-05-01)"
   sodipodi:docname="7.25_Belarus_road_sign.svg">
  <title
     id="title4130">7.25 Колькасьць дазволеных месцаў для стаянкі</title>
  <metadata
     id="metadata4261">
    <rdf:RDF>
      <cc:Work
         rdf:about="">
        <dc:format>image/svg+xml</dc:format>
        <dc:type
           rdf:resource="http://purl.org/dc/dcmitype/StillImage" />
        <dc:title>7.25 Колькасьць дазволеных месцаў для стаянкі</dc:title>
      </cc:Work>
    </rdf:RDF>
  </metadata>
  <defs
     id="defs4259">
    <inkscape:path-effect
       effect="spiro"
       id="path-effect3019"
       is_visible="true"
       lpeversion="0" />
    <inkscape:path-effect
       effect="spiro"
       id="path-effect3015"
       is_visible="true"
       lpeversion="0" />
    <pattern
       y="0"
       x="0"
       height="6"
       width="6"
       patternUnits="userSpaceOnUse"
       id="EMFhbasepattern" />
  </defs>
  <sodipodi:namedview
     pagecolor="#ffffff"
     bordercolor="#666666"
     borderopacity="1"
     objecttolerance="10"
     gridtolerance="10"
     guidetolerance="10"
     inkscape:pageopacity="0"
     inkscape:pageshadow="2"
     inkscape:window-width="1920"
     inkscape:window-height="1001"
     id="namedview4257"
     showgrid="true"
     inkscape:zoom="0.79824493"
     inkscape:cx="-31.308965"
     inkscape:cy="375.8722"
     inkscape:window-x="-9"
     inkscape:window-y="-9"
     inkscape:window-maximized="1"
     inkscape:current-layer="g3789"
     fit-margin-top="0"
     fit-margin-left="0"
     fit-margin-right="0"
     fit-margin-bottom="0"
     inkscape:document-rotation="0">
    <inkscape:grid
       type="xygrid"
       id="grid2999"
       empspacing="5"
       visible="true"
       enabled="true"
       snapvisiblegridlinesonly="true"
       originx="-1203.225"
       originy="-1003.0116" />
  </sodipodi:namedview>
  <g
     inkscape:groupmode="layer"
     id="g3789"
     transform="translate(-1203.225,-1019.6285)">
    <path
       d="m 1226.2016,1016.2717 h 283.069 c 13.8372,0 24.9766,11.1394 24.9766,24.9766 v 116.5579 c 0,13.8369 -11.1394,24.9766 -24.9766,24.9766 h -283.069 c -13.8372,0 -24.9766,-11.1397 -24.9766,-24.9766 v -116.5579 c 0,-13.8372 11.1394,-24.9766 24.9766,-24.9766 z"
       style="color:#000000;font-size:117.724px;line-height:97.02%;font-family:BywayEMod;-inkscape-font-specification:BywayEMod;text-align:center;text-anchor:middle;display:inline;overflow:visible;visibility:visible;opacity:1;fill:#000000;fill-opacity:1;fill-rule:nonzero;stroke:none;stroke-width:1.9665;marker:none;enable-background:accumulate"
       id="path7678-8" />
    <path
       d="m 1226.2016,1021.8219 h 283.069 c 10.7623,0 19.4264,8.6641 19.4264,19.4262 v 116.558 c 0,10.7621 -8.6641,19.4262 -19.4264,19.4262 h -283.069 c -10.762,0 -19.4263,-8.6641 -19.4263,-19.4262 v -116.558 c 0,-10.7621 8.6643,-19.4262 19.4263,-19.4262 z"
       style="color:#000000;font-size:117.724px;line-height:97.02%;font-family:BywayEMod;-inkscape-font-specification:BywayEMod;text-align:center;text-anchor:middle;display:inline;overflow:visible;visibility:visible;opacity:1;fill:#ffffff;fill-opacity:1;fill-rule:nonzero;stroke:none;stroke-width:1.9665;marker:none;enable-background:accumulate"
       id="path7680-3" />
    <path
       id="path9548"
       style="font-style:normal;font-variant:normal;font-weight:normal;font-stretch:normal;font-size:117.724px;line-height:97.02%;font-family:'Russian Road Sign';-inkscape-font-specification:'Russian Road Sign';text-align:center;text-anchor:middle;opacity:1;stroke-width:0.555037"
       d="m 1281.9321,1077.7698 2.5036,-8.1366 h -28.7908 v 24.4097 l 5.633,3.1293 c 1.2518,-0.6259 3.7554,-3.7552 7.5107,-3.7552 5.633,0 8.7623,5.0071 8.7623,9.3882 0,6.2589 -6.2589,9.3883 -11.2659,9.3883 -4.113,0 -8.8518,-0.447 -11.8918,-2.5035 l 1.2517,8.1365 c 0,0 6.2589,2.5036 11.8919,2.5036 11.8918,0 19.4025,-8.1366 19.4025,-18.1508 0,-10.0141 -8.1366,-15.6471 -15.0214,-15.6471 -2.8611,0 -6.2587,0.6259 -8.1364,3.1294 v -11.8918 z" />
    <path
       id="path9550"
       style="font-style:normal;font-variant:normal;font-weight:normal;font-stretch:normal;font-size:117.724px;line-height:97.02%;font-family:'Russian Road Sign';-inkscape-font-specification:'Russian Road Sign';text-align:center;text-anchor:middle;opacity:1;stroke-width:0.555037"
       d="m 1315.4974,1119.7042 h 7.5107 l 1.8776,-24.4097 10.0143,20.0285 10.0142,-20.0285 1.8775,24.4097 h 7.5107 l -3.1293,-35.0497 h -7.5107 l -8.7624,17.5248 -8.7625,-17.5248 h -7.5106 z" />
    <path
       id="path9552"
       style="font-style:normal;font-variant:normal;font-weight:normal;font-stretch:normal;font-size:117.724px;line-height:97.02%;font-family:'Russian Road Sign';-inkscape-font-specification:'Russian Road Sign';text-align:center;text-anchor:middle;opacity:1;stroke-width:0.555037"
       d="m 1383.7093,1089.6616 c 3.7553,0 8.1365,3.8447 8.1365,7.5106 0,0.626 -0.1787,1.2519 -0.6258,1.2519 h -15.6473 c 0,-5.0071 4.3814,-8.7625 8.1366,-8.7625 z m 14.3954,15.0212 c 1.073,0 1.8777,-1.8776 1.8777,-3.7553 0,-9.3882 -7.5107,-17.5247 -16.2731,-17.5247 -4.7388,0 -9.8353,2.5035 -12.8753,6.2588 -2.593,3.1295 -3.5766,7.2424 -3.5766,12.8754 0,11.0872 7.7789,18.4189 17.0778,18.4189 4.3812,0 10.6401,-1.8776 14.3954,-8.1365 l -6.2589,-3.4871 c -2.5035,3.1294 -4.3812,4.7389 -7.5106,4.7389 -3.1295,0 -9.3884,-1.8777 -9.3884,-9.3884 z" />
    <path
       id="path9554"
       style="font-style:normal;font-variant:normal;font-weight:normal;font-stretch:normal;font-size:117.724px;line-height:97.02%;font-family:'Russian Road Sign';-inkscape-font-specification:'Russian Road Sign';text-align:center;text-anchor:middle;opacity:1;stroke-width:0.555037"
       d="m 1428.7648,1083.4028 c -9.3883,0 -16.899,7.5106 -16.899,18.7765 0,11.266 7.5107,18.7766 16.899,18.7766 6.9741,0 12.6071,-3.9342 15.0212,-10.6401 l -7.0635,-2.6823 c -1.3411,4.56 -4.2025,7.0636 -7.9577,7.0636 -5.0071,0 -8.7624,-5.0071 -8.7624,-12.5178 0,-7.5107 3.7553,-12.5177 8.7624,-12.5177 3.7552,0 6.6166,2.5036 7.9577,7.0636 l 7.0635,-2.6823 c -2.4141,-6.706 -8.0471,-10.6401 -15.0212,-10.6401 z" />
    <path
       id="path9556"
       style="font-style:normal;font-variant:normal;font-weight:normal;font-stretch:normal;font-size:117.724px;line-height:97.02%;font-family:'Russian Road Sign';-inkscape-font-specification:'Russian Road Sign';text-align:center;text-anchor:middle;opacity:1;stroke-width:0.555037"
       d="m 1456.3542,1119.7042 h 27.5389 v 7.5106 h 7.5107 v -14.3954 h -6.8848 v -28.1649 h -7.5106 v 28.1649 h -13.1437 v -28.1649 h -7.5105 z" />
  </g>
</svg>
