<?xml version="1.0" encoding="UTF-8"?>
<svg xmlns="http://www.w3.org/2000/svg" xmlns:xlink="http://www.w3.org/1999/xlink" width="35px" height="35px" viewBox="0 0 35 30" version="1.1">
<g id="surface1">
<path style=" stroke:none;fill-rule:nonzero;fill:rgb(100%,100%,100%);fill-opacity:1;" d="M 0 28.179688 C 0 29.195312 0.84375 30.015625 1.886719 30.015625 L 33.117188 30.015625 C 34.160156 30.015625 35.003906 29.195312 35.003906 28.179688 C 35.003906 27.855469 34.917969 27.539062 34.75 27.257812 L 19.136719 0.917969 C 18.800781 0.351562 18.175781 0 17.503906 0 C 16.828125 0 16.203125 0.351562 15.867188 0.917969 L 0.253906 27.257812 C 0.0859375 27.539062 0 27.855469 0 28.179688 Z M 0 28.179688 "/>
<path style="fill:none;stroke-width:2;stroke-linecap:butt;stroke-linejoin:miter;stroke:rgb(0%,0%,0%);stroke-opacity:1;stroke-miterlimit:4;" d="M 1.023884 689.463021 C 1.023884 713.738542 20.663839 733.426562 44.957812 733.426562 L 789.135268 733.426562 C 813.429241 733.426562 833.162277 713.738542 833.162277 689.463021 C 833.162277 681.721615 831.114509 674.075781 827.205134 667.385677 L 455.162946 23.033073 C 447.344196 9.366146 432.823661 0.955729 417.09308 0.955729 C 401.3625 0.955729 386.841964 9.366146 378.930134 23.033073 L 6.887946 667.385677 C 3.071652 674.075781 1.023884 681.721615 1.023884 689.463021 Z M 1.023884 689.463021 " transform="matrix(0.0419664,0,0,0.0408719,0,0)"/>
<path style=" stroke:none;fill-rule:nonzero;fill:rgb(100%,0%,0%);fill-opacity:1;" d="M 0.417969 28.179688 C 0.417969 28.96875 1.078125 29.609375 1.886719 29.609375 L 33.117188 29.609375 C 33.925781 29.609375 34.585938 28.96875 34.585938 28.179688 C 34.585938 27.925781 34.515625 27.679688 34.386719 27.460938 L 18.773438 1.125 C 18.511719 0.679688 18.027344 0.410156 17.503906 0.410156 C 16.976562 0.410156 16.492188 0.679688 16.230469 1.125 L 0.617188 27.460938 C 0.488281 27.679688 0.417969 27.925781 0.417969 28.179688 Z M 3.929688 26.792969 C 3.929688 26.722656 3.949219 26.652344 3.984375 26.589844 L 17.140625 4.402344 C 17.214844 4.277344 17.351562 4.199219 17.503906 4.199219 C 17.652344 4.199219 17.789062 4.277344 17.867188 4.402344 L 31.019531 26.589844 C 31.054688 26.652344 31.074219 26.722656 31.074219 26.792969 C 31.074219 27.019531 30.886719 27.203125 30.65625 27.203125 L 4.347656 27.203125 C 4.117188 27.203125 3.929688 27.019531 3.929688 26.792969 Z M 3.929688 26.792969 "/>
<path style=" stroke:none;fill-rule:nonzero;fill:rgb(0%,0%,0%);fill-opacity:1;" d="M 14.613281 26.265625 C 15.226562 26.070312 15.839844 25.890625 16.453125 25.890625 C 16.859375 25.890625 17.265625 25.984375 17.671875 26.085938 C 18.078125 26.191406 18.484375 26.285156 18.890625 26.285156 C 19.296875 26.285156 19.703125 26.191406 20.109375 26.085938 C 20.519531 25.984375 20.925781 25.890625 21.332031 25.890625 C 21.738281 25.890625 22.144531 25.984375 22.550781 26.085938 C 22.957031 26.191406 23.363281 26.285156 23.769531 26.285156 C 24.175781 26.285156 24.582031 26.191406 24.988281 26.085938 C 25.394531 25.984375 25.800781 25.890625 26.210938 25.890625 C 26.617188 25.890625 27.023438 25.984375 27.429688 26.085938 C 27.835938 26.191406 28.242188 26.285156 28.648438 26.285156 C 29.054688 26.285156 29.460938 26.191406 29.867188 26.085938 C 29.9375 26.070312 30.007812 26.050781 30.078125 26.035156 L 29.738281 25.464844 C 29.375 25.554688 29.011719 25.628906 28.648438 25.628906 C 28.242188 25.628906 27.835938 25.535156 27.429688 25.429688 C 27.023438 25.328125 26.617188 25.234375 26.210938 25.234375 C 25.800781 25.234375 25.394531 25.328125 24.988281 25.429688 C 24.582031 25.535156 24.175781 25.628906 23.769531 25.628906 C 23.363281 25.628906 22.957031 25.535156 22.550781 25.429688 C 22.144531 25.328125 21.738281 25.234375 21.332031 25.234375 C 20.925781 25.234375 20.519531 25.328125 20.109375 25.429688 C 19.703125 25.535156 19.296875 25.628906 18.890625 25.628906 C 18.484375 25.628906 18.078125 25.535156 17.671875 25.429688 C 17.265625 25.328125 16.859375 25.234375 16.453125 25.234375 C 15.839844 25.234375 15.226562 25.429688 14.613281 25.609375 L 14.613281 24.953125 C 15.226562 24.757812 15.839844 24.578125 16.453125 24.578125 C 16.859375 24.578125 17.265625 24.671875 17.671875 24.773438 C 18.078125 24.878906 18.484375 24.972656 18.890625 24.972656 C 19.296875 24.972656 19.703125 24.878906 20.109375 24.773438 C 20.519531 24.671875 20.925781 24.578125 21.332031 24.578125 C 21.738281 24.578125 22.144531 24.671875 22.550781 24.773438 C 22.957031 24.878906 23.363281 24.972656 23.769531 24.972656 C 24.175781 24.972656 24.582031 24.878906 24.988281 24.773438 C 25.394531 24.671875 25.800781 24.578125 26.210938 24.578125 C 26.617188 24.578125 27.023438 24.671875 27.429688 24.773438 C 27.835938 24.878906 28.242188 24.972656 28.648438 24.972656 C 28.898438 24.972656 29.148438 24.9375 29.394531 24.886719 L 29.042969 24.289062 C 28.910156 24.304688 28.78125 24.316406 28.648438 24.316406 C 28.242188 24.316406 27.835938 24.222656 27.429688 24.117188 C 27.023438 24.015625 26.617188 23.921875 26.210938 23.921875 C 25.800781 23.921875 25.394531 24.015625 24.988281 24.117188 C 24.582031 24.222656 24.175781 24.316406 23.769531 24.316406 C 23.363281 24.316406 22.957031 24.222656 22.550781 24.117188 C 22.144531 24.015625 21.738281 23.921875 21.332031 23.921875 C 20.925781 23.921875 20.519531 24.015625 20.109375 24.117188 C 19.703125 24.222656 19.296875 24.316406 18.890625 24.316406 C 18.484375 24.316406 18.078125 24.222656 17.671875 24.117188 C 17.265625 24.015625 16.859375 23.921875 16.453125 23.921875 C 15.839844 23.921875 15.226562 24.117188 14.613281 24.296875 L 14.613281 23.640625 C 15.226562 23.441406 15.839844 23.265625 16.453125 23.265625 C 16.859375 23.265625 17.265625 23.359375 17.671875 23.460938 C 18.078125 23.5625 18.484375 23.65625 18.890625 23.65625 C 19.296875 23.65625 19.703125 23.5625 20.109375 23.460938 C 20.519531 23.359375 20.925781 23.265625 21.332031 23.265625 C 21.738281 23.265625 22.144531 23.359375 22.550781 23.460938 C 22.957031 23.5625 23.363281 23.65625 23.769531 23.65625 C 24.175781 23.65625 24.582031 23.5625 24.988281 23.460938 C 25.394531 23.359375 25.800781 23.265625 26.210938 23.265625 C 26.617188 23.265625 27.023438 23.359375 27.429688 23.460938 C 27.835938 23.5625 28.242188 23.65625 28.648438 23.65625 C 28.65625 23.65625 28.660156 23.65625 28.667969 23.65625 L 28.265625 22.976562 C 27.984375 22.941406 27.707031 22.875 27.429688 22.804688 C 27.023438 22.703125 26.617188 22.609375 26.210938 22.609375 C 25.800781 22.609375 25.394531 22.703125 24.988281 22.804688 C 24.582031 22.90625 24.175781 23 23.769531 23 C 23.363281 23 22.957031 22.90625 22.550781 22.804688 C 22.144531 22.703125 21.738281 22.609375 21.332031 22.609375 C 20.925781 22.609375 20.519531 22.703125 20.109375 22.804688 C 19.703125 22.90625 19.296875 23 18.890625 23 C 18.484375 23 18.078125 22.90625 17.671875 22.804688 C 17.265625 22.703125 16.859375 22.609375 16.453125 22.609375 C 15.839844 22.609375 15.226562 22.804688 14.613281 22.984375 L 14.613281 17.824219 L 9.792969 17.824219 L 4.789062 26.265625 Z M 14.613281 26.265625 "/>
<path style=" stroke:none;fill-rule:nonzero;fill:rgb(0%,0%,0%);fill-opacity:1;" d="M 12.636719 16.839844 C 12.636719 17.382812 13.089844 17.824219 13.648438 17.824219 C 14.207031 17.824219 14.660156 17.382812 14.660156 16.839844 C 14.660156 16.292969 14.207031 15.851562 13.648438 15.851562 C 13.089844 15.851562 12.636719 16.292969 12.636719 16.839844 Z M 13.046875 16.839844 C 13.046875 16.515625 13.316406 16.253906 13.648438 16.253906 C 13.980469 16.253906 14.25 16.515625 14.25 16.839844 C 14.25 17.160156 13.980469 17.425781 13.648438 17.425781 C 13.316406 17.425781 13.046875 17.160156 13.046875 16.839844 Z M 13.046875 16.839844 "/>
<path style=" stroke:none;fill-rule:nonzero;fill:rgb(0%,0%,0%);fill-opacity:1;" d="M 19.199219 18.550781 C 19.199219 19.09375 19.648438 19.535156 20.207031 19.535156 C 20.765625 19.535156 21.21875 19.09375 21.21875 18.550781 C 21.21875 18.007812 20.765625 17.566406 20.207031 17.566406 C 19.648438 17.566406 19.199219 18.007812 19.199219 18.550781 Z M 19.605469 18.550781 C 19.605469 18.226562 19.875 17.964844 20.207031 17.964844 C 20.542969 17.964844 20.8125 18.226562 20.8125 18.550781 C 20.8125 18.875 20.542969 19.136719 20.207031 19.136719 C 19.875 19.136719 19.605469 18.875 19.605469 18.550781 Z M 19.605469 18.550781 "/>
<path style=" stroke:none;fill-rule:nonzero;fill:rgb(0%,0%,0%);fill-opacity:1;" d="M 14.824219 17.144531 C 15 16.511719 14.613281 15.863281 13.964844 15.695312 C 13.375 15.539062 12.761719 15.835938 12.527344 16.382812 L 12.308594 16.261719 C 12.183594 16.1875 12.109375 16.050781 12.117188 15.910156 L 12.207031 14.691406 C 12.207031 14.664062 12.210938 14.636719 12.21875 14.609375 C 12.25 14.503906 12.3125 14.417969 12.402344 14.355469 L 14.554688 12.914062 C 14.667969 12.839844 14.804688 12.816406 14.933594 12.851562 L 17.992188 13.648438 C 18.113281 13.683594 18.21875 13.761719 18.277344 13.871094 L 19.375 15.878906 C 19.421875 15.96875 19.503906 16.039062 19.597656 16.082031 L 21.863281 17.015625 C 22.078125 17.105469 22.1875 17.332031 22.125 17.550781 L 21.886719 18.363281 C 21.828125 18.554688 21.625 18.671875 21.421875 18.621094 C 21.457031 18.058594 21.082031 17.550781 20.523438 17.40625 C 19.875 17.238281 19.207031 17.613281 19.035156 18.242188 Z M 18.394531 15.792969 C 18.550781 15.835938 18.707031 15.746094 18.75 15.59375 C 18.769531 15.527344 18.757812 15.453125 18.726562 15.390625 L 18.03125 14.117188 C 17.992188 14.046875 17.925781 13.996094 17.847656 13.976562 L 14.816406 13.183594 C 14.644531 13.140625 14.464844 13.222656 14.394531 13.382812 L 14.007812 14.226562 C 14 14.246094 13.992188 14.261719 13.988281 14.28125 C 13.9375 14.46875 14.050781 14.660156 14.242188 14.710938 Z M 18.394531 15.792969 "/>
</g>
</svg>
