<?xml version="1.0" encoding="UTF-8"?>
<svg xmlns="http://www.w3.org/2000/svg" xmlns:xlink="http://www.w3.org/1999/xlink" width="35px" height="35px" viewBox="0 0 35 30" version="1.1">
<g id="surface1">
<path style=" stroke:none;fill-rule:nonzero;fill:rgb(100%,100%,100%);fill-opacity:1;" d="M 0 28.179688 C 0 29.195312 0.84375 30.015625 1.886719 30.015625 L 33.117188 30.015625 C 34.160156 30.015625 35.003906 29.195312 35.003906 28.179688 C 35.003906 27.855469 34.917969 27.539062 34.75 27.257812 L 19.136719 0.917969 C 18.800781 0.351562 18.175781 0 17.503906 0 C 16.828125 0 16.203125 0.351562 15.867188 0.917969 L 0.253906 27.257812 C 0.0859375 27.539062 0 27.855469 0 28.179688 Z M 0 28.179688 "/>
<path style="fill:none;stroke-width:2;stroke-linecap:butt;stroke-linejoin:miter;stroke:rgb(0%,0%,0%);stroke-opacity:1;stroke-miterlimit:4;" d="M 1.023884 689.463021 C 1.023884 713.738542 20.663839 733.426562 44.957812 733.426562 L 789.135268 733.426562 C 813.429241 733.426562 833.162277 713.738542 833.162277 689.463021 C 833.162277 681.721615 831.114509 674.075781 827.205134 667.385677 L 455.162946 23.033073 C 447.344196 9.366146 432.823661 0.955729 417.09308 0.955729 C 401.3625 0.955729 386.841964 9.366146 378.930134 23.033073 L 6.887946 667.385677 C 3.071652 674.075781 1.023884 681.721615 1.023884 689.463021 Z M 1.023884 689.463021 " transform="matrix(0.0419664,0,0,0.0408719,0,0)"/>
<path style=" stroke:none;fill-rule:nonzero;fill:rgb(100%,0%,0%);fill-opacity:1;" d="M 0.417969 28.179688 C 0.417969 28.96875 1.078125 29.609375 1.886719 29.609375 L 33.117188 29.609375 C 33.925781 29.609375 34.585938 28.96875 34.585938 28.179688 C 34.585938 27.925781 34.515625 27.679688 34.386719 27.460938 L 18.773438 1.125 C 18.511719 0.679688 18.027344 0.410156 17.503906 0.410156 C 16.976562 0.410156 16.492188 0.679688 16.230469 1.125 L 0.617188 27.460938 C 0.488281 27.679688 0.417969 27.925781 0.417969 28.179688 Z M 3.929688 26.792969 C 3.929688 26.722656 3.949219 26.652344 3.984375 26.589844 L 17.140625 4.402344 C 17.214844 4.277344 17.351562 4.199219 17.503906 4.199219 C 17.652344 4.199219 17.789062 4.277344 17.867188 4.402344 L 31.019531 26.589844 C 31.054688 26.652344 31.074219 26.722656 31.074219 26.792969 C 31.074219 27.019531 30.886719 27.203125 30.65625 27.203125 L 4.347656 27.203125 C 4.117188 27.203125 3.929688 27.019531 3.929688 26.792969 Z M 3.929688 26.792969 "/>
<path style=" stroke:none;fill-rule:nonzero;fill:rgb(0%,0%,0%);fill-opacity:1;" d="M 4.707031 26.59375 L 9.9375 17.765625 L 30.296875 26.59375 Z M 4.707031 26.59375 "/>
<path style=" stroke:none;fill-rule:nonzero;fill:rgb(0%,0%,0%);fill-opacity:1;" d="M 13.425781 13.820312 L 13.433594 14.324219 L 14.335938 14.246094 L 12.6875 17.855469 L 13.535156 18.222656 L 15.660156 13.570312 L 14.839844 13.214844 Z M 13.425781 13.820312 "/>
<path style=" stroke:none;fill-rule:nonzero;fill:rgb(0%,0%,0%);fill-opacity:1;" d="M 16.382812 18.527344 L 18.382812 19.398438 L 17.859375 20.097656 L 14.945312 18.832031 L 15.300781 18.058594 C 15.929688 17.835938 16.554688 17.613281 17.183594 17.390625 C 18.070312 17.03125 18.585938 16.695312 18.730469 16.375 C 18.820312 16.179688 18.835938 15.992188 18.769531 15.8125 C 18.707031 15.636719 18.578125 15.503906 18.375 15.417969 C 18.121094 15.308594 17.707031 15.378906 17.140625 15.632812 L 16.914062 14.863281 C 17.527344 14.578125 18.109375 14.554688 18.660156 14.792969 C 19.636719 15.21875 19.929688 15.855469 19.539062 16.710938 C 19.382812 17.050781 19.09375 17.34375 18.675781 17.585938 C 18.46875 17.699219 18.082031 17.867188 17.515625 18.085938 C 17.261719 18.183594 16.886719 18.332031 16.382812 18.527344 Z M 16.382812 18.527344 "/>
<path style=" stroke:none;fill-rule:nonzero;fill:rgb(0%,0%,0%);fill-opacity:1;" d="M 20.933594 17.183594 C 20.933594 17.703125 21.363281 18.121094 21.894531 18.121094 C 22.425781 18.121094 22.859375 17.703125 22.859375 17.183594 C 22.859375 16.667969 22.425781 16.246094 21.894531 16.246094 C 21.363281 16.246094 20.933594 16.667969 20.933594 17.183594 Z M 21.460938 17.183594 C 21.460938 16.953125 21.65625 16.761719 21.894531 16.761719 C 22.136719 16.761719 22.328125 16.953125 22.328125 17.183594 C 22.328125 17.417969 22.136719 17.605469 21.894531 17.605469 C 21.65625 17.605469 21.460938 17.417969 21.460938 17.183594 Z M 21.460938 17.183594 "/>
<path style=" stroke:none;fill-rule:nonzero;fill:rgb(0%,0%,0%);fill-opacity:1;" d="M 20.503906 21.242188 L 19.894531 20.980469 L 23.757812 17.082031 L 24.367188 17.347656 Z M 20.503906 21.242188 "/>
<path style=" stroke:none;fill-rule:nonzero;fill:rgb(0%,0%,0%);fill-opacity:1;" d="M 21.402344 21.140625 C 21.402344 21.660156 21.832031 22.078125 22.363281 22.078125 C 22.894531 22.078125 23.328125 21.660156 23.328125 21.140625 C 23.328125 20.621094 22.894531 20.203125 22.363281 20.203125 C 21.832031 20.203125 21.402344 20.621094 21.402344 21.140625 Z M 21.929688 21.140625 C 21.929688 20.90625 22.125 20.71875 22.363281 20.71875 C 22.605469 20.71875 22.796875 20.90625 22.796875 21.140625 C 22.796875 21.375 22.605469 21.5625 22.363281 21.5625 C 22.125 21.5625 21.929688 21.375 21.929688 21.140625 Z M 21.929688 21.140625 "/>
</g>
</svg>
