<?xml version="1.0" encoding="UTF-8"?>
<svg xmlns="http://www.w3.org/2000/svg" xmlns:xlink="http://www.w3.org/1999/xlink" width="35px" height="35px" viewBox="0 0 35 30" version="1.1">
<g id="surface1">
<path style=" stroke:none;fill-rule:nonzero;fill:rgb(100%,100%,100%);fill-opacity:1;" d="M 0 28.179688 C 0 29.195312 0.84375 30.015625 1.886719 30.015625 L 33.117188 30.015625 C 34.160156 30.015625 35.003906 29.195312 35.003906 28.179688 C 35.003906 27.855469 34.917969 27.539062 34.75 27.257812 L 19.136719 0.917969 C 18.800781 0.351562 18.175781 0 17.503906 0 C 16.828125 0 16.203125 0.351562 15.867188 0.917969 L 0.253906 27.257812 C 0.0859375 27.539062 0 27.855469 0 28.179688 Z M 0 28.179688 "/>
<path style="fill:none;stroke-width:2;stroke-linecap:butt;stroke-linejoin:miter;stroke:rgb(0%,0%,0%);stroke-opacity:1;stroke-miterlimit:4;" d="M 1.023884 689.463021 C 1.023884 713.738542 20.663839 733.426562 44.957812 733.426562 L 789.135268 733.426562 C 813.429241 733.426562 833.162277 713.738542 833.162277 689.463021 C 833.162277 681.721615 831.114509 674.075781 827.205134 667.385677 L 455.162946 23.033073 C 447.344196 9.366146 432.823661 0.955729 417.09308 0.955729 C 401.3625 0.955729 386.841964 9.366146 378.930134 23.033073 L 6.887946 667.385677 C 3.071652 674.075781 1.023884 681.721615 1.023884 689.463021 Z M 1.023884 689.463021 " transform="matrix(0.0419664,0,0,0.0408719,0,0)"/>
<path style=" stroke:none;fill-rule:nonzero;fill:rgb(100%,0%,0%);fill-opacity:1;" d="M 0.417969 28.179688 C 0.417969 28.96875 1.078125 29.609375 1.886719 29.609375 L 33.117188 29.609375 C 33.925781 29.609375 34.585938 28.96875 34.585938 28.179688 C 34.585938 27.925781 34.515625 27.679688 34.386719 27.460938 L 18.773438 1.125 C 18.511719 0.679688 18.027344 0.410156 17.503906 0.410156 C 16.976562 0.410156 16.492188 0.679688 16.230469 1.125 L 0.617188 27.460938 C 0.488281 27.679688 0.417969 27.925781 0.417969 28.179688 Z M 3.929688 26.792969 C 3.929688 26.722656 3.949219 26.652344 3.984375 26.589844 L 17.140625 4.402344 C 17.214844 4.277344 17.351562 4.199219 17.503906 4.199219 C 17.652344 4.199219 17.789062 4.277344 17.867188 4.402344 L 31.019531 26.589844 C 31.054688 26.652344 31.074219 26.722656 31.074219 26.792969 C 31.074219 27.019531 30.886719 27.203125 30.65625 27.203125 L 4.347656 27.203125 C 4.117188 27.203125 3.929688 27.019531 3.929688 26.792969 Z M 3.929688 26.792969 "/>
<path style=" stroke:none;fill-rule:nonzero;fill:rgb(0%,0%,0%);fill-opacity:1;" d="M 4.707031 26.59375 L 25.066406 17.765625 L 30.296875 26.59375 Z M 4.707031 26.59375 "/>
<path style=" stroke:none;fill-rule:nonzero;fill:rgb(0%,0%,0%);fill-opacity:1;" d="M 10.105469 18.792969 L 10.496094 19.125 L 11.042969 18.417969 L 12.691406 22.027344 L 13.539062 21.660156 L 11.414062 17.011719 L 10.59375 17.367188 Z M 10.105469 18.792969 "/>
<path style=" stroke:none;fill-rule:nonzero;fill:rgb(0%,0%,0%);fill-opacity:1;" d="M 17.101562 17.328125 C 17.398438 17.976562 17.5 18.601562 17.40625 19.195312 C 17.3125 19.792969 17.050781 20.183594 16.621094 20.371094 C 16.199219 20.550781 15.726562 20.476562 15.199219 20.148438 C 14.675781 19.816406 14.265625 19.328125 13.972656 18.683594 C 13.675781 18.035156 13.574219 17.410156 13.667969 16.816406 C 13.761719 16.222656 14.023438 15.828125 14.457031 15.640625 C 14.882812 15.457031 15.355469 15.53125 15.875 15.859375 C 16.394531 16.1875 16.804688 16.675781 17.101562 17.328125 Z M 16.324219 17.664062 C 16.113281 17.207031 15.863281 16.859375 15.566406 16.621094 C 15.273438 16.378906 15.019531 16.304688 14.804688 16.398438 C 14.59375 16.492188 14.480469 16.726562 14.464844 17.101562 C 14.449219 17.480469 14.542969 17.894531 14.75 18.34375 C 14.863281 18.59375 14.976562 18.796875 15.09375 18.953125 C 15.210938 19.113281 15.347656 19.257812 15.507812 19.394531 C 15.800781 19.632812 16.054688 19.707031 16.273438 19.613281 C 16.480469 19.519531 16.59375 19.285156 16.605469 18.90625 C 16.621094 18.523438 16.527344 18.109375 16.324219 17.664062 Z M 16.324219 17.664062 "/>
<path style=" stroke:none;fill-rule:nonzero;fill:rgb(0%,0%,0%);fill-opacity:1;" d="M 17.386719 14.914062 C 17.386719 15.429688 17.816406 15.851562 18.347656 15.851562 C 18.878906 15.851562 19.3125 15.429688 19.3125 14.914062 C 19.3125 14.394531 18.878906 13.976562 18.347656 13.976562 C 17.816406 13.976562 17.386719 14.394531 17.386719 14.914062 Z M 17.914062 14.914062 C 17.914062 14.679688 18.109375 14.492188 18.347656 14.492188 C 18.585938 14.492188 18.78125 14.679688 18.78125 14.914062 C 18.78125 15.144531 18.585938 15.335938 18.347656 15.335938 C 18.109375 15.335938 17.914062 15.144531 17.914062 14.914062 Z M 17.914062 14.914062 "/>
<path style=" stroke:none;fill-rule:nonzero;fill:rgb(0%,0%,0%);fill-opacity:1;" d="M 20.511719 18.636719 L 19.902344 18.898438 L 19.515625 13.496094 L 20.125 13.234375 Z M 20.511719 18.636719 "/>
<path style=" stroke:none;fill-rule:nonzero;fill:rgb(0%,0%,0%);fill-opacity:1;" d="M 20.71875 17.222656 C 20.71875 17.738281 21.148438 18.160156 21.679688 18.160156 C 22.210938 18.160156 22.644531 17.738281 22.644531 17.222656 C 22.644531 16.703125 22.210938 16.28125 21.679688 16.28125 C 21.148438 16.28125 20.71875 16.703125 20.71875 17.222656 Z M 21.246094 17.222656 C 21.246094 16.988281 21.441406 16.796875 21.679688 16.796875 C 21.917969 16.796875 22.113281 16.988281 22.113281 17.222656 C 22.113281 17.453125 21.917969 17.644531 21.679688 17.644531 C 21.441406 17.644531 21.246094 17.453125 21.246094 17.222656 Z M 21.246094 17.222656 "/>
</g>
</svg>
