<?xml version="1.0" encoding="UTF-8"?>
<svg xmlns="http://www.w3.org/2000/svg" xmlns:xlink="http://www.w3.org/1999/xlink" width="35px" height="35px" viewBox="0 0 35 30" version="1.1">
<g id="surface1">
<path style=" stroke:none;fill-rule:nonzero;fill:rgb(100%,80%,0%);fill-opacity:1;" d="M 33.117188 30.015625 C 34.160156 30.015625 35.003906 29.195312 35.003906 28.179688 C 35.003906 27.855469 34.917969 27.539062 34.753906 27.257812 L 19.136719 0.917969 C 18.800781 0.351562 18.175781 0 17.503906 0 C 16.828125 0 16.203125 0.351562 15.867188 0.917969 L 0.253906 27.257812 C 0.0859375 27.539062 0 27.855469 0 28.179688 C 0 29.195312 0.84375 30.015625 1.886719 30.015625 Z M 33.117188 30.015625 "/>
<path style="fill:none;stroke-width:2;stroke-linecap:butt;stroke-linejoin:miter;stroke:rgb(0%,0%,0%);stroke-opacity:1;stroke-miterlimit:4;" d="M 789.135268 733.426562 C 813.429241 733.426562 833.162277 713.738542 833.162277 689.463021 C 833.162277 681.721615 831.114509 674.075781 827.205134 667.385677 L 455.162946 23.033073 C 447.344196 9.366146 432.823661 0.955729 417.09308 0.955729 C 401.3625 0.955729 386.841964 9.366146 378.930134 23.033073 L 6.887946 667.385677 C 3.071652 674.075781 1.023884 681.721615 1.023884 689.463021 C 1.023884 713.738542 20.663839 733.426562 44.957812 733.426562 Z M 789.135268 733.426562 " transform="matrix(0.0419664,0,0,0.0408719,0,0)"/>
<path style=" stroke:none;fill-rule:nonzero;fill:rgb(100%,0%,0%);fill-opacity:1;" d="M 33.117188 29.609375 C 33.929688 29.609375 34.585938 28.96875 34.585938 28.179688 C 34.585938 27.925781 34.515625 27.679688 34.386719 27.460938 L 18.773438 1.125 C 18.511719 0.679688 18.027344 0.410156 17.503906 0.410156 C 16.976562 0.410156 16.492188 0.679688 16.230469 1.125 L 0.617188 27.460938 C 0.488281 27.679688 0.417969 27.925781 0.417969 28.179688 C 0.417969 28.96875 1.078125 29.609375 1.886719 29.609375 Z M 4.347656 27.203125 C 4.117188 27.203125 3.929688 27.019531 3.929688 26.792969 C 3.929688 26.722656 3.949219 26.652344 3.984375 26.589844 L 17.140625 4.402344 C 17.214844 4.277344 17.351562 4.199219 17.503906 4.199219 C 17.652344 4.199219 17.789062 4.277344 17.867188 4.402344 L 31.019531 26.589844 C 31.054688 26.652344 31.074219 26.722656 31.074219 26.792969 C 31.074219 27.019531 30.886719 27.203125 30.65625 27.203125 Z M 4.347656 27.203125 "/>
<path style=" stroke:none;fill-rule:nonzero;fill:rgb(0%,0%,0%);fill-opacity:1;" d="M 13.9375 26.265625 L 13.9375 21.574219 C 13.9375 20.667969 14.320312 19.800781 14.996094 19.175781 C 16.164062 18.089844 16.828125 16.582031 16.828125 15.007812 L 16.828125 10.320312 L 14.324219 10.320312 L 14.324219 15.007812 C 14.324219 15.914062 13.941406 16.78125 13.269531 17.410156 C 12.097656 18.496094 11.433594 20 11.433594 21.574219 L 11.433594 26.265625 Z M 13.9375 26.265625 "/>
<path style=" stroke:none;fill-rule:nonzero;fill:rgb(0%,0%,0%);fill-opacity:1;" d="M 18.175781 10.320312 L 20.679688 10.320312 L 20.679688 26.265625 L 18.175781 26.265625 Z M 18.175781 10.320312 "/>
</g>
</svg>
