<?xml version="1.0" encoding="UTF-8"?>
<svg xmlns="http://www.w3.org/2000/svg" xmlns:xlink="http://www.w3.org/1999/xlink" width="35px" height="35px" viewBox="0 0 35 30" version="1.1">
<g id="surface1">
<path style=" stroke:none;fill-rule:nonzero;fill:rgb(100%,100%,100%);fill-opacity:1;" d="M 0 28.179688 C 0 29.195312 0.84375 30.015625 1.886719 30.015625 L 33.117188 30.015625 C 34.160156 30.015625 35.003906 29.195312 35.003906 28.179688 C 35.003906 27.855469 34.917969 27.539062 34.75 27.257812 L 19.136719 0.917969 C 18.800781 0.351562 18.175781 0 17.503906 0 C 16.828125 0 16.203125 0.351562 15.867188 0.917969 L 0.253906 27.257812 C 0.0859375 27.539062 0 27.855469 0 28.179688 Z M 0 28.179688 "/>
<path style="fill:none;stroke-width:2;stroke-linecap:butt;stroke-linejoin:miter;stroke:rgb(0%,0%,0%);stroke-opacity:1;stroke-miterlimit:4;" d="M 1.023884 689.463021 C 1.023884 713.738542 20.663839 733.426562 44.957812 733.426562 L 789.135268 733.426562 C 813.429241 733.426562 833.162277 713.738542 833.162277 689.463021 C 833.162277 681.721615 831.114509 674.075781 827.205134 667.385677 L 455.162946 23.033073 C 447.344196 9.366146 432.823661 0.955729 417.09308 0.955729 C 401.3625 0.955729 386.841964 9.366146 378.930134 23.033073 L 6.887946 667.385677 C 3.071652 674.075781 1.023884 681.721615 1.023884 689.463021 Z M 1.023884 689.463021 " transform="matrix(0.0419664,0,0,0.0408719,0,0)"/>
<path style=" stroke:none;fill-rule:nonzero;fill:rgb(100%,0%,0%);fill-opacity:1;" d="M 0.417969 28.179688 C 0.417969 28.96875 1.078125 29.609375 1.886719 29.609375 L 33.117188 29.609375 C 33.925781 29.609375 34.585938 28.96875 34.585938 28.179688 C 34.585938 27.925781 34.515625 27.679688 34.386719 27.460938 L 18.773438 1.125 C 18.511719 0.679688 18.027344 0.410156 17.503906 0.410156 C 16.976562 0.410156 16.492188 0.679688 16.230469 1.125 L 0.617188 27.460938 C 0.488281 27.679688 0.417969 27.925781 0.417969 28.179688 Z M 3.929688 26.792969 C 3.929688 26.722656 3.949219 26.652344 3.984375 26.589844 L 17.140625 4.402344 C 17.214844 4.277344 17.351562 4.199219 17.503906 4.199219 C 17.652344 4.199219 17.789062 4.277344 17.867188 4.402344 L 31.019531 26.589844 C 31.054688 26.652344 31.074219 26.722656 31.074219 26.792969 C 31.074219 27.019531 30.886719 27.203125 30.65625 27.203125 L 4.347656 27.203125 C 4.117188 27.203125 3.929688 27.019531 3.929688 26.792969 Z M 3.929688 26.792969 "/>
<path style=" stroke:none;fill-rule:nonzero;fill:rgb(0%,0%,0%);fill-opacity:1;" d="M 8.835938 25.328125 L 11.199219 25.328125 C 11.40625 25.957031 12.007812 26.382812 12.6875 26.382812 C 13.550781 26.382812 14.25 25.699219 14.25 24.859375 C 14.25 24.828125 14.25 24.796875 14.25 24.765625 L 14.976562 24.765625 C 14.976562 24.796875 14.972656 24.828125 14.972656 24.859375 C 14.972656 25.699219 15.675781 26.382812 16.539062 26.382812 C 17.402344 26.382812 18.105469 25.699219 18.105469 24.859375 C 18.105469 24.828125 18.101562 24.796875 18.101562 24.765625 L 18.828125 24.765625 C 18.828125 24.796875 18.828125 24.828125 18.828125 24.859375 C 18.828125 25.699219 19.527344 26.382812 20.390625 26.382812 C 21.257812 26.382812 21.957031 25.699219 21.957031 24.859375 C 21.957031 24.828125 21.957031 24.796875 21.953125 24.765625 L 24.050781 24.765625 L 24.050781 22.792969 L 10.132812 22.792969 L 10.132812 23.449219 L 8.832031 23.449219 Z M 11.363281 24.859375 C 11.363281 24.144531 11.957031 23.566406 12.6875 23.566406 C 13.417969 23.566406 14.011719 24.144531 14.011719 24.859375 C 14.011719 25.570312 13.417969 26.148438 12.6875 26.148438 C 11.957031 26.148438 11.363281 25.570312 11.363281 24.859375 Z M 15.214844 24.859375 C 15.214844 24.144531 15.808594 23.566406 16.539062 23.566406 C 17.269531 23.566406 17.863281 24.144531 17.863281 24.859375 C 17.863281 25.570312 17.269531 26.148438 16.539062 26.148438 C 15.808594 26.148438 15.214844 25.570312 15.214844 24.859375 Z M 19.066406 24.859375 C 19.066406 24.144531 19.660156 23.566406 20.390625 23.566406 C 21.125 23.566406 21.714844 24.144531 21.714844 24.859375 C 21.714844 25.570312 21.125 26.148438 20.390625 26.148438 C 19.660156 26.148438 19.066406 25.570312 19.066406 24.859375 Z M 19.066406 24.859375 "/>
<path style=" stroke:none;fill-rule:nonzero;fill:rgb(0%,0%,0%);fill-opacity:1;" d="M 13.167969 24.859375 C 13.167969 25.117188 12.953125 25.328125 12.6875 25.328125 C 12.421875 25.328125 12.207031 25.117188 12.207031 24.859375 C 12.207031 24.597656 12.421875 24.390625 12.6875 24.390625 C 12.953125 24.390625 13.167969 24.597656 13.167969 24.859375 Z M 13.167969 24.859375 "/>
<path style=" stroke:none;fill-rule:nonzero;fill:rgb(0%,0%,0%);fill-opacity:1;" d="M 17.019531 24.859375 C 17.019531 25.117188 16.804688 25.328125 16.539062 25.328125 C 16.273438 25.328125 16.058594 25.117188 16.058594 24.859375 C 16.058594 24.597656 16.273438 24.390625 16.539062 24.390625 C 16.804688 24.390625 17.019531 24.597656 17.019531 24.859375 Z M 17.019531 24.859375 "/>
<path style=" stroke:none;fill-rule:nonzero;fill:rgb(0%,0%,0%);fill-opacity:1;" d="M 20.875 24.859375 C 20.875 25.117188 20.65625 25.328125 20.390625 25.328125 C 20.125 25.328125 19.910156 25.117188 19.910156 24.859375 C 19.910156 24.597656 20.125 24.390625 20.390625 24.390625 C 20.65625 24.390625 20.875 24.597656 20.875 24.859375 Z M 20.875 24.859375 "/>
<path style=" stroke:none;fill-rule:nonzero;fill:rgb(0%,0%,0%);fill-opacity:1;" d="M 19.621094 18.574219 L 12.6875 18.574219 L 12.6875 16.648438 L 11.242188 16.648438 L 11.242188 18.574219 L 10.628906 18.574219 C 10.097656 19.058594 9.796875 19.738281 9.796875 20.449219 C 9.796875 21.160156 10.097656 21.839844 10.628906 22.324219 L 19.621094 22.324219 Z M 19.621094 18.574219 "/>
<path style=" stroke:none;fill-rule:nonzero;fill:rgb(0%,0%,0%);fill-opacity:1;" d="M 20.101562 16.882812 L 20.101562 22.324219 L 24.050781 22.324219 L 24.050781 17.824219 L 24.535156 17.824219 L 24.535156 16.882812 Z M 21.066406 17.730469 L 22.894531 17.730469 L 22.894531 19.699219 L 21.066406 19.699219 Z M 21.066406 17.730469 "/>
<path style=" stroke:none;fill-rule:nonzero;fill:rgb(0%,0%,0%);fill-opacity:1;" d="M 12.6875 16.226562 C 12.984375 15.492188 13.710938 15.007812 14.523438 15.007812 L 15.574219 15.007812 C 16.601562 15.007812 17.449219 14.226562 17.5 13.226562 C 17.5 13.226562 17.5 13.226562 17.503906 13.226562 C 18.621094 13.226562 19.523438 12.34375 19.523438 11.257812 C 19.523438 10.425781 18.992188 9.6875 18.191406 9.402344 C 18.683594 9.152344 18.996094 8.65625 18.996094 8.113281 C 18.996094 7.3125 18.328125 6.660156 17.503906 6.660156 C 16.679688 6.660156 16.007812 7.3125 16.007812 8.113281 C 16.007812 8.65625 16.320312 9.152344 16.8125 9.402344 C 16.011719 9.6875 15.480469 10.425781 15.480469 11.257812 C 14.453125 11.308594 13.648438 12.132812 13.648438 13.132812 C 12.226562 13.523438 11.242188 14.789062 11.242188 16.226562 Z M 12.6875 16.226562 "/>
</g>
</svg>
