<?xml version="1.0" encoding="UTF-8"?>
<svg xmlns="http://www.w3.org/2000/svg" xmlns:xlink="http://www.w3.org/1999/xlink" width="35px" height="35px" viewBox="0 0 35 30" version="1.1">
<g id="surface1">
<path style=" stroke:none;fill-rule:nonzero;fill:rgb(100%,100%,100%);fill-opacity:1;" d="M 0 28.179688 C 0 29.195312 0.84375 30.015625 1.886719 30.015625 L 33.117188 30.015625 C 34.160156 30.015625 35.003906 29.195312 35.003906 28.179688 C 35.003906 27.855469 34.917969 27.539062 34.75 27.257812 L 19.136719 0.917969 C 18.800781 0.351562 18.175781 0 17.503906 0 C 16.828125 0 16.203125 0.351562 15.867188 0.917969 L 0.253906 27.257812 C 0.0859375 27.539062 0 27.855469 0 28.179688 Z M 0 28.179688 "/>
<path style="fill:none;stroke-width:2;stroke-linecap:butt;stroke-linejoin:miter;stroke:rgb(0%,0%,0%);stroke-opacity:1;stroke-miterlimit:4;" d="M 1.023884 689.463021 C 1.023884 713.738542 20.663839 733.426562 44.957812 733.426562 L 789.135268 733.426562 C 813.429241 733.426562 833.162277 713.738542 833.162277 689.463021 C 833.162277 681.721615 831.114509 674.075781 827.205134 667.385677 L 455.162946 23.033073 C 447.344196 9.366146 432.823661 0.955729 417.09308 0.955729 C 401.3625 0.955729 386.841964 9.366146 378.930134 23.033073 L 6.887946 667.385677 C 3.071652 674.075781 1.023884 681.721615 1.023884 689.463021 Z M 1.023884 689.463021 " transform="matrix(0.0419664,0,0,0.0408719,0,0)"/>
<path style=" stroke:none;fill-rule:nonzero;fill:rgb(100%,0%,0%);fill-opacity:1;" d="M 0.417969 28.179688 C 0.417969 28.96875 1.078125 29.609375 1.886719 29.609375 L 33.117188 29.609375 C 33.925781 29.609375 34.585938 28.96875 34.585938 28.179688 C 34.585938 27.925781 34.515625 27.679688 34.386719 27.460938 L 18.773438 1.125 C 18.511719 0.679688 18.027344 0.410156 17.503906 0.410156 C 16.976562 0.410156 16.492188 0.679688 16.230469 1.125 L 0.617188 27.460938 C 0.488281 27.679688 0.417969 27.925781 0.417969 28.179688 Z M 3.929688 26.792969 C 3.929688 26.722656 3.949219 26.652344 3.984375 26.589844 L 17.140625 4.402344 C 17.214844 4.277344 17.351562 4.199219 17.503906 4.199219 C 17.652344 4.199219 17.789062 4.277344 17.867188 4.402344 L 31.019531 26.589844 C 31.054688 26.652344 31.074219 26.722656 31.074219 26.792969 C 31.074219 27.019531 30.886719 27.203125 30.65625 27.203125 L 4.347656 27.203125 C 4.117188 27.203125 3.929688 27.019531 3.929688 26.792969 Z M 3.929688 26.792969 "/>
<path style=" stroke:none;fill-rule:nonzero;fill:rgb(0%,0%,0%);fill-opacity:1;" d="M 9.796875 23.449219 L 7.871094 26.265625 L 10.566406 26.265625 L 11.722656 23.449219 Z M 9.796875 23.449219 "/>
<path style=" stroke:none;fill-rule:nonzero;fill:rgb(0%,0%,0%);fill-opacity:1;" d="M 16.636719 23.449219 L 16.25 26.265625 L 18.753906 26.265625 L 18.371094 23.449219 Z M 16.636719 23.449219 "/>
<path style=" stroke:none;fill-rule:nonzero;fill:rgb(0%,0%,0%);fill-opacity:1;" d="M 23.28125 23.449219 L 24.4375 26.265625 L 27.132812 26.265625 L 25.207031 23.449219 Z M 23.28125 23.449219 "/>
<path style=" stroke:none;fill-rule:nonzero;fill:rgb(0%,0%,0%);fill-opacity:1;" d="M 14.570312 24.597656 C 14.476562 24.972656 14.132812 25.234375 13.734375 25.234375 C 13.257812 25.234375 12.875 24.859375 12.875 24.394531 C 12.875 24.324219 12.882812 24.257812 12.898438 24.191406 L 14.160156 19.261719 C 14.175781 19.199219 14.210938 19.140625 14.257812 19.09375 L 16.539062 16.875 L 16.539062 12.175781 C 16.539062 12.019531 16.625 11.871094 16.765625 11.792969 L 17.9375 11.136719 C 18.21875 10.976562 18.5625 10.976562 18.84375 11.136719 L 21.734375 12.761719 C 22.015625 12.917969 22.1875 13.210938 22.1875 13.523438 L 22.1875 16.617188 C 22.1875 16.984375 21.882812 17.28125 21.507812 17.28125 C 21.128906 17.28125 20.828125 16.984375 20.828125 16.617188 L 20.828125 13.984375 C 20.828125 13.859375 20.757812 13.742188 20.644531 13.679688 L 19.417969 12.988281 L 19.417969 16.699219 C 19.417969 16.816406 19.371094 16.925781 19.285156 17.011719 L 15.664062 20.539062 C 15.617188 20.582031 15.585938 20.640625 15.570312 20.703125 Z M 14.570312 24.597656 "/>
<path style=" stroke:none;fill-rule:nonzero;fill:rgb(0%,0%,0%);fill-opacity:1;" d="M 19.167969 17.75 L 17.90625 18.980469 L 21.363281 24.8125 C 21.515625 25.074219 21.800781 25.234375 22.109375 25.234375 C 22.585938 25.234375 22.972656 24.859375 22.972656 24.394531 C 22.972656 24.246094 22.933594 24.101562 22.855469 23.972656 Z M 19.167969 17.75 "/>
<path style=" stroke:none;fill-rule:nonzero;fill:rgb(0%,0%,0%);fill-opacity:1;" d="M 16.085938 15.921875 L 16.085938 14.046875 L 13.496094 16.570312 C 13.367188 16.691406 13.296875 16.863281 13.296875 17.039062 C 13.296875 17.402344 13.601562 17.699219 13.976562 17.699219 C 14.15625 17.699219 14.328125 17.628906 14.457031 17.507812 Z M 16.085938 15.921875 "/>
<path style=" stroke:none;fill-rule:nonzero;fill:rgb(0%,0%,0%);fill-opacity:1;" d="M 18.058594 7.714844 C 18.558594 7.714844 19.386719 8 19.386719 8.910156 C 19.386719 9.949219 17.652344 10.785156 17.105469 10.785156 C 16.339844 10.785156 15.984375 9.925781 15.984375 9.394531 C 15.984375 8.085938 17.636719 7.714844 18.058594 7.714844 Z M 18.058594 7.714844 "/>
</g>
</svg>
