<?xml version="1.0" encoding="UTF-8"?>
<svg xmlns="http://www.w3.org/2000/svg" xmlns:xlink="http://www.w3.org/1999/xlink" width="35px" height="35px" viewBox="0 0 35 30" version="1.1">
<g id="surface1">
<path style=" stroke:none;fill-rule:nonzero;fill:rgb(100%,100%,100%);fill-opacity:1;" d="M 0 28.179688 C 0 29.195312 0.84375 30.015625 1.886719 30.015625 L 33.117188 30.015625 C 34.160156 30.015625 35.003906 29.195312 35.003906 28.179688 C 35.003906 27.855469 34.917969 27.539062 34.75 27.257812 L 19.136719 0.917969 C 18.800781 0.351562 18.175781 0 17.503906 0 C 16.828125 0 16.203125 0.351562 15.867188 0.917969 L 0.253906 27.257812 C 0.0859375 27.539062 0 27.855469 0 28.179688 Z M 0 28.179688 "/>
<path style="fill:none;stroke-width:2;stroke-linecap:butt;stroke-linejoin:miter;stroke:rgb(0%,0%,0%);stroke-opacity:1;stroke-miterlimit:4;" d="M 1.023884 689.463021 C 1.023884 713.738542 20.663839 733.426562 44.957812 733.426562 L 789.135268 733.426562 C 813.429241 733.426562 833.162277 713.738542 833.162277 689.463021 C 833.162277 681.721615 831.114509 674.075781 827.205134 667.385677 L 455.162946 23.033073 C 447.344196 9.366146 432.823661 0.955729 417.09308 0.955729 C 401.3625 0.955729 386.841964 9.366146 378.930134 23.033073 L 6.887946 667.385677 C 3.071652 674.075781 1.023884 681.721615 1.023884 689.463021 Z M 1.023884 689.463021 " transform="matrix(0.0419664,0,0,0.0408719,0,0)"/>
<path style=" stroke:none;fill-rule:nonzero;fill:rgb(100%,0%,0%);fill-opacity:1;" d="M 0.417969 28.179688 C 0.417969 28.96875 1.078125 29.609375 1.886719 29.609375 L 33.117188 29.609375 C 33.925781 29.609375 34.585938 28.96875 34.585938 28.179688 C 34.585938 27.925781 34.515625 27.679688 34.386719 27.460938 L 18.773438 1.125 C 18.511719 0.679688 18.027344 0.410156 17.503906 0.410156 C 16.976562 0.410156 16.492188 0.679688 16.230469 1.125 L 0.617188 27.460938 C 0.488281 27.679688 0.417969 27.925781 0.417969 28.179688 Z M 3.929688 26.792969 C 3.929688 26.722656 3.949219 26.652344 3.984375 26.589844 L 17.140625 4.402344 C 17.214844 4.277344 17.351562 4.199219 17.503906 4.199219 C 17.652344 4.199219 17.789062 4.277344 17.867188 4.402344 L 31.019531 26.589844 C 31.054688 26.652344 31.074219 26.722656 31.074219 26.792969 C 31.074219 27.019531 30.886719 27.203125 30.65625 27.203125 L 4.347656 27.203125 C 4.117188 27.203125 3.929688 27.019531 3.929688 26.792969 Z M 3.929688 26.792969 "/>
<path style=" stroke:none;fill-rule:nonzero;fill:rgb(0%,0%,0%);fill-opacity:1;" d="M 10.539062 24.273438 C 10.476562 24.378906 10.441406 24.5 10.441406 24.625 C 10.441406 25.011719 10.765625 25.328125 11.164062 25.328125 C 11.421875 25.328125 11.660156 25.191406 11.789062 24.976562 L 13.78125 21.617188 L 15.859375 20.402344 C 16.035156 20.300781 16.140625 20.117188 16.140625 19.917969 C 16.140625 19.820312 16.113281 19.722656 16.0625 19.636719 L 14.734375 17.394531 C 14.683594 17.308594 14.65625 17.210938 14.65625 17.113281 C 14.65625 17.011719 14.683594 16.914062 14.734375 16.828125 L 16.601562 13.679688 C 16.65625 13.589844 16.683594 13.484375 16.683594 13.375 C 16.683594 13.039062 16.402344 12.765625 16.058594 12.765625 C 15.835938 12.765625 15.628906 12.882812 15.515625 13.070312 L 12.785156 17.675781 C 12.738281 17.761719 12.710938 17.855469 12.710938 17.957031 C 12.710938 18.054688 12.738281 18.152344 12.785156 18.238281 L 13.753906 19.863281 L 12.847656 20.480469 C 12.78125 20.527344 12.722656 20.589844 12.679688 20.660156 Z M 10.539062 24.273438 "/>
<path style=" stroke:none;fill-rule:nonzero;fill:rgb(0%,0%,0%);fill-opacity:1;" d="M 14.757812 21.539062 L 15.988281 23.613281 C 16.089844 23.789062 16.28125 23.898438 16.488281 23.898438 L 17.792969 23.898438 L 17.792969 22.488281 L 16.988281 22.488281 L 15.996094 20.816406 Z M 14.757812 21.539062 "/>
<path style=" stroke:none;fill-rule:nonzero;fill:rgb(0%,0%,0%);fill-opacity:1;" d="M 12.414062 18.359375 L 11.375 18.945312 L 10.652344 17.722656 C 10.539062 17.535156 10.332031 17.417969 10.109375 17.417969 C 9.765625 17.417969 9.484375 17.691406 9.484375 18.027344 C 9.484375 18.136719 9.511719 18.242188 9.566406 18.335938 L 10.628906 20.121094 C 10.730469 20.296875 10.921875 20.402344 11.128906 20.402344 C 11.230469 20.402344 11.328125 20.378906 11.417969 20.328125 L 13.042969 19.414062 Z M 12.414062 18.359375 "/>
<path style=" stroke:none;fill-rule:nonzero;fill:rgb(0%,0%,0%);fill-opacity:1;" d="M 11.164062 15.558594 C 11.164062 16.289062 11.789062 16.851562 12.394531 16.851562 C 13.316406 16.851562 13.6875 15.261719 13.6875 14.953125 C 13.6875 14.363281 13.386719 13.882812 12.746094 13.882812 C 12.089844 13.882812 11.164062 14.730469 11.164062 15.558594 Z M 11.164062 15.558594 "/>
<path style=" stroke:none;fill-rule:nonzero;fill:rgb(0%,0%,0%);fill-opacity:1;" d="M 18.175781 24.578125 C 18.175781 24.992188 18.523438 25.328125 18.945312 25.328125 C 19.371094 25.328125 19.71875 24.992188 19.71875 24.578125 L 19.71875 20.605469 L 23.101562 18.703125 C 23.402344 18.535156 23.585938 18.226562 23.585938 17.890625 C 23.585938 17.726562 23.539062 17.566406 23.457031 17.421875 L 21.800781 14.632812 L 23.515625 14.632812 L 22.734375 13.320312 L 20.480469 13.320312 C 20.292969 13.320312 20.117188 13.410156 20.007812 13.558594 L 19.390625 14.417969 C 19.324219 14.511719 19.285156 14.625 19.285156 14.742188 C 19.285156 14.839844 19.3125 14.9375 19.363281 15.023438 L 21.164062 18.058594 L 18.464844 19.578125 C 18.285156 19.679688 18.175781 19.863281 18.175781 20.066406 Z M 18.175781 24.578125 "/>
<path style=" stroke:none;fill-rule:nonzero;fill:rgb(0%,0%,0%);fill-opacity:1;" d="M 22.164062 19.773438 L 23.695312 22.351562 C 23.78125 22.496094 23.941406 22.585938 24.113281 22.585938 C 24.195312 22.585938 24.28125 22.566406 24.351562 22.523438 L 27.234375 20.90625 L 26.460938 19.605469 L 24.5 20.710938 L 23.5 19.023438 Z M 22.164062 19.773438 "/>
<path style=" stroke:none;fill-rule:nonzero;fill:rgb(0%,0%,0%);fill-opacity:1;" d="M 19.019531 15.285156 L 17.972656 17.046875 L 16.351562 16.132812 C 16.242188 16.074219 16.117188 16.039062 15.992188 16.039062 C 15.589844 16.039062 15.269531 16.355469 15.269531 16.742188 C 15.269531 16.996094 15.40625 17.226562 15.628906 17.351562 L 18 18.6875 C 18.074219 18.730469 18.15625 18.75 18.242188 18.75 C 18.414062 18.75 18.574219 18.660156 18.660156 18.515625 L 19.796875 16.597656 Z M 19.019531 15.285156 "/>
<path style=" stroke:none;fill-rule:nonzero;fill:rgb(0%,0%,0%);fill-opacity:1;" d="M 17.484375 12.464844 C 17.484375 13.433594 18.402344 13.949219 18.859375 13.949219 C 19.5625 13.949219 20.347656 12.511719 20.347656 11.714844 C 20.328125 11.054688 19.9375 10.613281 19.34375 10.613281 C 18.527344 10.613281 17.484375 11.492188 17.484375 12.464844 Z M 17.484375 12.464844 "/>
</g>
</svg>
