<?xml version="1.0" encoding="UTF-8"?>
<svg xmlns="http://www.w3.org/2000/svg" xmlns:xlink="http://www.w3.org/1999/xlink" width="35px" height="35px" viewBox="0 0 35 30" version="1.1">
<g id="surface1">
<path style=" stroke:none;fill-rule:nonzero;fill:rgb(100%,100%,100%);fill-opacity:1;" d="M 0 28.179688 C 0 29.195312 0.84375 30.015625 1.886719 30.015625 L 33.117188 30.015625 C 34.160156 30.015625 35.003906 29.195312 35.003906 28.179688 C 35.003906 27.855469 34.917969 27.539062 34.75 27.257812 L 19.136719 0.917969 C 18.800781 0.351562 18.175781 0 17.503906 0 C 16.828125 0 16.203125 0.351562 15.867188 0.917969 L 0.253906 27.257812 C 0.0859375 27.539062 0 27.855469 0 28.179688 Z M 0 28.179688 "/>
<path style="fill:none;stroke-width:2;stroke-linecap:butt;stroke-linejoin:miter;stroke:rgb(0%,0%,0%);stroke-opacity:1;stroke-miterlimit:4;" d="M 1.023884 689.463021 C 1.023884 713.738542 20.663839 733.426562 44.957812 733.426562 L 789.135268 733.426562 C 813.429241 733.426562 833.162277 713.738542 833.162277 689.463021 C 833.162277 681.721615 831.114509 674.075781 827.205134 667.385677 L 455.162946 23.033073 C 447.344196 9.366146 432.823661 0.955729 417.09308 0.955729 C 401.3625 0.955729 386.841964 9.366146 378.930134 23.033073 L 6.887946 667.385677 C 3.071652 674.075781 1.023884 681.721615 1.023884 689.463021 Z M 1.023884 689.463021 " transform="matrix(0.0419664,0,0,0.0408719,0,0)"/>
<path style=" stroke:none;fill-rule:nonzero;fill:rgb(100%,0%,0%);fill-opacity:1;" d="M 0.417969 28.179688 C 0.417969 28.96875 1.078125 29.609375 1.886719 29.609375 L 33.117188 29.609375 C 33.925781 29.609375 34.585938 28.96875 34.585938 28.179688 C 34.585938 27.925781 34.515625 27.679688 34.386719 27.460938 L 18.773438 1.125 C 18.511719 0.679688 18.027344 0.410156 17.503906 0.410156 C 16.976562 0.410156 16.492188 0.679688 16.230469 1.125 L 0.617188 27.460938 C 0.488281 27.679688 0.417969 27.925781 0.417969 28.179688 Z M 3.929688 26.792969 C 3.929688 26.722656 3.949219 26.652344 3.984375 26.589844 L 17.140625 4.402344 C 17.214844 4.277344 17.351562 4.199219 17.503906 4.199219 C 17.652344 4.199219 17.789062 4.277344 17.867188 4.402344 L 31.019531 26.589844 C 31.054688 26.652344 31.074219 26.722656 31.074219 26.792969 C 31.074219 27.019531 30.886719 27.203125 30.65625 27.203125 L 4.347656 27.203125 C 4.117188 27.203125 3.929688 27.019531 3.929688 26.792969 Z M 3.929688 26.792969 "/>
<path style=" stroke:none;fill-rule:nonzero;fill:rgb(0%,0%,0%);fill-opacity:1;" d="M 18.355469 23.257812 C 18.425781 23.304688 18.507812 23.335938 18.59375 23.335938 L 20.5 23.335938 C 20.742188 25.015625 22.214844 26.265625 23.957031 26.265625 C 25.886719 26.265625 27.445312 24.742188 27.445312 22.867188 C 27.445312 20.988281 25.886719 19.46875 23.957031 19.46875 C 23.414062 19.46875 22.878906 19.59375 22.394531 19.828125 L 21.101562 18.035156 L 21.441406 17.257812 L 21.644531 17.257812 C 21.933594 17.257812 22.167969 17.03125 22.167969 16.75 C 22.167969 16.46875 21.933594 16.238281 21.644531 16.238281 L 19.246094 16.238281 C 18.957031 16.238281 18.722656 16.46875 18.722656 16.75 C 18.722656 17.03125 18.957031 17.257812 19.246094 17.257812 L 20.777344 17.257812 L 20.574219 17.726562 L 14.558594 17.726562 C 14.585938 17.628906 14.601562 17.527344 14.601562 17.425781 C 14.601562 17.011719 14.375 16.632812 14.007812 16.429688 L 13.777344 16.300781 C 13.613281 16.210938 13.511719 16.039062 13.511719 15.859375 C 13.511719 15.574219 13.746094 15.347656 14.035156 15.347656 L 15.757812 15.347656 C 15.949219 15.347656 16.105469 15.195312 16.105469 15.007812 C 16.105469 14.820312 15.949219 14.667969 15.757812 14.667969 L 14.035156 14.667969 C 13.359375 14.667969 12.8125 15.199219 12.8125 15.859375 C 12.8125 16.285156 13.050781 16.679688 13.429688 16.890625 L 13.660156 17.019531 C 13.808594 17.101562 13.902344 17.257812 13.902344 17.425781 C 13.902344 17.492188 13.886719 17.558594 13.859375 17.621094 L 12.761719 19.90625 C 12.238281 19.621094 11.648438 19.46875 11.046875 19.46875 C 9.121094 19.46875 7.558594 20.988281 7.558594 22.867188 C 7.558594 24.742188 9.121094 26.265625 11.046875 26.265625 C 12.972656 26.265625 14.535156 24.742188 14.535156 22.867188 C 14.535156 21.886719 14.101562 20.953125 13.34375 20.308594 L 13.613281 19.738281 Z M 11.046875 25.753906 C 9.410156 25.753906 8.082031 24.460938 8.082031 22.867188 C 8.082031 21.269531 9.410156 19.976562 11.046875 19.976562 C 11.570312 19.976562 12.089844 20.113281 12.542969 20.371094 L 11.785156 21.953125 C 11.738281 22.046875 11.664062 22.128906 11.570312 22.179688 L 10.871094 22.574219 C 10.765625 22.632812 10.699219 22.746094 10.699219 22.867188 C 10.699219 23.054688 10.855469 23.207031 11.046875 23.207031 C 11.109375 23.207031 11.167969 23.191406 11.222656 23.160156 L 11.921875 22.769531 C 12.136719 22.644531 12.3125 22.460938 12.417969 22.242188 L 13.109375 20.792969 C 13.6875 21.335938 14.011719 22.085938 14.011719 22.867188 C 14.011719 24.460938 12.683594 25.753906 11.046875 25.753906 Z M 23.957031 25.753906 C 22.503906 25.753906 21.265625 24.730469 21.03125 23.335938 L 24.042969 23.335938 C 24.308594 23.335938 24.523438 23.125 24.523438 22.867188 C 24.523438 22.769531 24.492188 22.675781 24.4375 22.597656 L 22.738281 20.234375 C 23.121094 20.066406 23.535156 19.976562 23.957031 19.976562 C 25.597656 19.976562 26.921875 21.269531 26.921875 22.867188 C 26.921875 24.460938 25.597656 25.753906 23.957031 25.753906 Z M 21.007812 22.570312 C 21.085938 21.816406 21.46875 21.121094 22.070312 20.640625 L 23.457031 22.570312 Z M 19.316406 22.570312 L 20.898438 18.9375 L 21.804688 20.195312 C 21.042969 20.773438 20.566406 21.632812 20.480469 22.570312 Z M 18.527344 22.421875 L 14.03125 19.085938 L 14.34375 18.492188 L 20.242188 18.492188 Z M 18.527344 22.421875 "/>
</g>
</svg>
