<?xml version="1.0" encoding="UTF-8"?>
<svg xmlns="http://www.w3.org/2000/svg" xmlns:xlink="http://www.w3.org/1999/xlink" width="35px" height="35px" viewBox="0 0 35 30" version="1.1">
<g id="surface1">
<path style=" stroke:none;fill-rule:nonzero;fill:rgb(100%,80%,0%);fill-opacity:1;" d="M 0 28.179688 C 0 29.195312 0.84375 30.015625 1.886719 30.015625 L 33.117188 30.015625 C 34.160156 30.015625 35.003906 29.195312 35.003906 28.179688 C 35.003906 27.855469 34.917969 27.539062 34.75 27.257812 L 19.136719 0.917969 C 18.800781 0.351562 18.175781 0 17.503906 0 C 16.828125 0 16.203125 0.351562 15.867188 0.917969 L 0.253906 27.257812 C 0.0859375 27.539062 0 27.855469 0 28.179688 Z M 0 28.179688 "/>
<path style="fill:none;stroke-width:2;stroke-linecap:butt;stroke-linejoin:miter;stroke:rgb(0%,0%,0%);stroke-opacity:1;stroke-miterlimit:4;" d="M 1.023884 689.463021 C 1.023884 713.738542 20.663839 733.426562 44.957812 733.426562 L 789.135268 733.426562 C 813.429241 733.426562 833.162277 713.738542 833.162277 689.463021 C 833.162277 681.721615 831.114509 674.075781 827.205134 667.385677 L 455.162946 23.033073 C 447.344196 9.366146 432.823661 0.955729 417.09308 0.955729 C 401.3625 0.955729 386.841964 9.366146 378.930134 23.033073 L 6.887946 667.385677 C 3.071652 674.075781 1.023884 681.721615 1.023884 689.463021 Z M 1.023884 689.463021 " transform="matrix(0.0419664,0,0,0.0408719,0,0)"/>
<path style=" stroke:none;fill-rule:nonzero;fill:rgb(100%,0%,0%);fill-opacity:1;" d="M 0.417969 28.179688 C 0.417969 28.96875 1.078125 29.609375 1.886719 29.609375 L 33.117188 29.609375 C 33.925781 29.609375 34.585938 28.96875 34.585938 28.179688 C 34.585938 27.925781 34.515625 27.679688 34.386719 27.460938 L 18.773438 1.125 C 18.511719 0.679688 18.027344 0.410156 17.503906 0.410156 C 16.976562 0.410156 16.492188 0.679688 16.230469 1.125 L 0.617188 27.460938 C 0.488281 27.679688 0.417969 27.925781 0.417969 28.179688 Z M 3.929688 26.792969 C 3.929688 26.722656 3.949219 26.652344 3.984375 26.589844 L 17.140625 4.402344 C 17.214844 4.277344 17.351562 4.199219 17.503906 4.199219 C 17.652344 4.199219 17.789062 4.277344 17.867188 4.402344 L 31.019531 26.589844 C 31.054688 26.652344 31.074219 26.722656 31.074219 26.792969 C 31.074219 27.019531 30.886719 27.203125 30.65625 27.203125 L 4.347656 27.203125 C 4.117188 27.203125 3.929688 27.019531 3.929688 26.792969 Z M 3.929688 26.792969 "/>
<path style=" stroke:none;fill-rule:nonzero;fill:rgb(0%,0%,0%);fill-opacity:1;" d="M 18.996094 10.671875 C 18.289062 10.671875 17.863281 11.1875 17.863281 11.871094 C 17.863281 12.925781 18.828125 14.398438 19.554688 14.398438 C 20.28125 14.398438 21.089844 13.683594 21.089844 12.714844 C 21.089844 11.910156 20.253906 10.671875 18.996094 10.671875 Z M 18.996094 10.671875 "/>
<path style=" stroke:none;fill-rule:nonzero;fill:rgb(0%,0%,0%);fill-opacity:1;" d="M 18.082031 25.421875 C 18.082031 25.886719 18.46875 26.265625 18.945312 26.265625 C 19.425781 26.265625 19.8125 25.886719 19.8125 25.421875 L 19.8125 21.667969 C 19.832031 21.667969 19.847656 21.667969 19.863281 21.667969 C 20.121094 21.667969 20.367188 21.539062 20.507812 21.328125 L 24.136719 23.367188 C 22.707031 24.300781 21.925781 23.804688 20.054688 26.265625 L 29.714844 26.265625 L 26.339844 20.570312 C 25.621094 21.363281 25.484375 22.0625 24.613281 22.988281 L 20.609375 20.738281 L 19.027344 14.980469 C 19.007812 14.90625 18.964844 14.835938 18.910156 14.78125 L 17.359375 13.183594 C 17.269531 13.089844 17.144531 13.039062 17.011719 13.039062 L 13.957031 13.039062 C 13.785156 13.039062 13.628906 13.128906 13.539062 13.273438 L 11.507812 16.703125 C 11.441406 16.816406 11.40625 16.945312 11.40625 17.078125 C 11.40625 17.492188 11.75 17.828125 12.175781 17.828125 C 12.453125 17.828125 12.707031 17.683594 12.84375 17.453125 L 13.035156 17.128906 L 14.128906 17.742188 L 13.792969 18.308594 C 13.75 18.382812 13.726562 18.460938 13.726562 18.546875 C 13.726562 18.710938 13.820312 18.867188 13.96875 18.949219 L 18.082031 21.261719 Z M 13.324219 16.640625 L 14.570312 14.539062 L 16.027344 14.539062 L 14.417969 17.253906 Z M 16.765625 18.453125 L 17.871094 16.585938 L 18.683594 19.535156 Z M 16.765625 18.453125 "/>
<path style=" stroke:none;fill-rule:nonzero;fill:rgb(0%,0%,0%);fill-opacity:1;" d="M 11.9375 25 C 11.859375 25.128906 11.820312 25.273438 11.820312 25.421875 C 11.820312 25.886719 12.207031 26.265625 12.6875 26.265625 C 12.996094 26.265625 13.28125 26.105469 13.4375 25.84375 L 15.847656 21.761719 C 15.890625 21.691406 15.914062 21.609375 15.914062 21.527344 C 15.914062 21.507812 15.910156 21.488281 15.910156 21.472656 L 15.773438 20.398438 L 13.828125 19.304688 L 14.089844 21.367188 Z M 11.9375 25 "/>
</g>
</svg>
