<?xml version="1.0" encoding="UTF-8"?>
<svg xmlns="http://www.w3.org/2000/svg" xmlns:xlink="http://www.w3.org/1999/xlink" width="35px" height="35px" viewBox="0 0 35 30" version="1.1">
<g id="surface1">
<path style=" stroke:none;fill-rule:nonzero;fill:rgb(100%,100%,100%);fill-opacity:1;" d="M 33.117188 30.015625 C 34.160156 30.015625 35.003906 29.195312 35.003906 28.179688 C 35.003906 27.855469 34.917969 27.539062 34.753906 27.257812 L 19.136719 0.917969 C 18.800781 0.351562 18.175781 0 17.503906 0 C 16.828125 0 16.203125 0.351562 15.867188 0.917969 L 0.253906 27.257812 C 0.0859375 27.539062 0 27.855469 0 28.179688 C 0 29.195312 0.84375 30.015625 1.886719 30.015625 Z M 33.117188 30.015625 "/>
<path style="fill:none;stroke-width:2;stroke-linecap:butt;stroke-linejoin:miter;stroke:rgb(0%,0%,0%);stroke-opacity:1;stroke-miterlimit:4;" d="M 789.135268 733.426562 C 813.429241 733.426562 833.162277 713.738542 833.162277 689.463021 C 833.162277 681.721615 831.114509 674.075781 827.205134 667.385677 L 455.162946 23.033073 C 447.344196 9.366146 432.823661 0.955729 417.09308 0.955729 C 401.3625 0.955729 386.841964 9.366146 378.930134 23.033073 L 6.887946 667.385677 C 3.071652 674.075781 1.023884 681.721615 1.023884 689.463021 C 1.023884 713.738542 20.663839 733.426562 44.957812 733.426562 Z M 789.135268 733.426562 " transform="matrix(0.0419664,0,0,0.0408719,0,0)"/>
<path style=" stroke:none;fill-rule:nonzero;fill:rgb(100%,0%,0%);fill-opacity:1;" d="M 33.117188 29.609375 C 33.929688 29.609375 34.585938 28.96875 34.585938 28.179688 C 34.585938 27.925781 34.515625 27.679688 34.386719 27.460938 L 18.773438 1.125 C 18.511719 0.679688 18.027344 0.410156 17.503906 0.410156 C 16.976562 0.410156 16.492188 0.679688 16.230469 1.125 L 0.617188 27.460938 C 0.488281 27.679688 0.417969 27.925781 0.417969 28.179688 C 0.417969 28.96875 1.078125 29.609375 1.886719 29.609375 Z M 4.347656 27.203125 C 4.117188 27.203125 3.929688 27.019531 3.929688 26.792969 C 3.929688 26.722656 3.949219 26.652344 3.984375 26.589844 L 17.140625 4.402344 C 17.214844 4.277344 17.351562 4.199219 17.503906 4.199219 C 17.652344 4.199219 17.789062 4.277344 17.867188 4.402344 L 31.019531 26.589844 C 31.054688 26.652344 31.074219 26.722656 31.074219 26.792969 C 31.074219 27.019531 30.886719 27.203125 30.65625 27.203125 Z M 4.347656 27.203125 "/>
<path style=" stroke:none;fill-rule:nonzero;fill:rgb(0%,0%,0%);fill-opacity:1;" d="M 16.539062 16.414062 L 16.117188 18.75 C 16.050781 19.109375 15.730469 19.371094 15.359375 19.371094 L 13.410156 19.371094 L 14.140625 21.851562 C 14.289062 22.355469 14.761719 22.699219 15.296875 22.699219 L 16.660156 22.699219 C 17.085938 22.699219 17.429688 23.035156 17.429688 23.449219 L 17.429688 25.632812 C 17.429688 25.878906 17.636719 26.078125 17.886719 26.078125 C 18.140625 26.078125 18.34375 25.878906 18.34375 25.632812 L 18.34375 22.792969 C 18.34375 22.640625 18.441406 22.503906 18.585938 22.445312 L 21.296875 21.390625 C 22.203125 21.039062 22.144531 22.230469 22.550781 22.457031 C 22.933594 22.671875 24.386719 22.707031 24.515625 23.472656 L 24.902344 25.710938 C 24.941406 25.921875 25.128906 26.078125 25.351562 26.078125 C 25.605469 26.078125 25.808594 25.878906 25.808594 25.632812 C 25.808594 25.621094 25.808594 25.609375 25.808594 25.601562 L 25.542969 21.886719 C 25.527344 21.695312 25.457031 21.511719 25.332031 21.363281 L 24.402344 20.230469 C 24.300781 20.105469 24.246094 19.953125 24.246094 19.792969 L 24.246094 17.355469 C 24.246094 16.835938 23.8125 16.414062 23.28125 16.414062 Z M 16.539062 16.414062 "/>
<path style=" stroke:none;fill-rule:nonzero;fill:rgb(0%,0%,0%);fill-opacity:1;" d="M 15.335938 18.785156 C 15.429688 18.785156 15.511719 18.71875 15.527344 18.628906 L 16.042969 15.78125 L 16.324219 15.78125 C 16.523438 15.78125 16.683594 15.625 16.683594 15.429688 C 16.683594 15.261719 16.558594 15.113281 16.386719 15.085938 L 16.328125 15.074219 C 16.109375 15.035156 15.929688 14.878906 15.871094 14.667969 L 15.667969 13.929688 C 15.65625 13.886719 15.621094 13.859375 15.578125 13.859375 C 15.53125 13.859375 15.496094 13.886719 15.484375 13.929688 L 15.1875 15.007812 L 13.078125 15.007812 L 12.78125 13.929688 C 12.769531 13.886719 12.730469 13.859375 12.6875 13.859375 C 12.644531 13.859375 12.605469 13.886719 12.59375 13.929688 L 12.390625 14.667969 C 12.332031 14.878906 12.152344 15.035156 11.933594 15.074219 L 11.878906 15.085938 C 11.703125 15.113281 11.578125 15.261719 11.578125 15.429688 C 11.578125 15.625 11.742188 15.78125 11.941406 15.78125 L 12.21875 15.78125 L 12.734375 18.628906 C 12.753906 18.71875 12.832031 18.785156 12.925781 18.785156 Z M 15.335938 18.785156 "/>
<path style=" stroke:none;fill-rule:nonzero;fill:rgb(0%,0%,0%);fill-opacity:1;" d="M 15.394531 23.261719 L 14.523438 25.472656 C 14.503906 25.523438 14.492188 25.578125 14.492188 25.632812 C 14.492188 25.878906 14.699219 26.078125 14.949219 26.078125 C 15.140625 26.078125 15.308594 25.964844 15.378906 25.792969 L 16.375 23.261719 Z M 15.394531 23.261719 "/>
<path style=" stroke:none;fill-rule:nonzero;fill:rgb(0%,0%,0%);fill-opacity:1;" d="M 22.074219 22.550781 L 20.835938 25.460938 C 20.8125 25.515625 20.800781 25.574219 20.800781 25.632812 C 20.800781 25.878906 21.007812 26.078125 21.257812 26.078125 C 21.445312 26.078125 21.609375 25.96875 21.683594 25.800781 L 22.773438 23.230469 Z M 22.074219 22.550781 "/>
</g>
</svg>
