<?xml version="1.0" encoding="UTF-8"?>
<svg xmlns="http://www.w3.org/2000/svg" xmlns:xlink="http://www.w3.org/1999/xlink" width="35px" height="35px" viewBox="0 0 35 30" version="1.1">
<g id="surface1">
<path style=" stroke:none;fill-rule:nonzero;fill:rgb(100%,100%,100%);fill-opacity:1;" d="M 18.746094 0.324219 C 17.558594 -0.339844 16.039062 0.0546875 15.351562 1.203125 L 0.332031 26.402344 C -0.351562 27.554688 0.0546875 29.023438 1.242188 29.691406 C 1.621094 29.902344 2.046875 30.011719 2.484375 30.011719 L 32.523438 30.011719 C 32.957031 30.011719 33.386719 29.902344 33.765625 29.691406 C 34.953125 29.023438 35.359375 27.554688 34.675781 26.402344 L 19.65625 1.203125 C 19.4375 0.839844 19.125 0.535156 18.746094 0.324219 Z M 18.746094 0.324219 "/>
<path style=" stroke:none;fill-rule:nonzero;fill:rgb(0%,0%,0%);fill-opacity:1;" d="M 12.613281 23.703125 C 12.613281 24.742188 11.746094 25.582031 10.679688 25.582031 C 9.609375 25.582031 8.742188 24.742188 8.742188 23.703125 C 8.742188 22.667969 9.609375 21.828125 10.679688 21.828125 C 11.746094 21.828125 12.613281 22.667969 12.613281 23.703125 Z M 12.613281 23.703125 "/>
<path style=" stroke:none;fill-rule:nonzero;fill:rgb(0%,0%,0%);fill-opacity:1;" d="M 16.050781 21.265625 C 16.050781 21.953125 15.476562 22.507812 14.769531 22.507812 C 14.058594 22.507812 13.484375 21.953125 13.484375 21.265625 C 13.484375 20.582031 14.058594 20.023438 14.769531 20.023438 C 15.476562 20.023438 16.050781 20.582031 16.050781 21.265625 Z M 16.050781 21.265625 "/>
<path style=" stroke:none;fill-rule:nonzero;fill:rgb(0%,0%,0%);fill-opacity:1;" d="M 17.042969 17.070312 C 17.042969 17.546875 16.644531 17.9375 16.148438 17.9375 C 15.652344 17.9375 15.253906 17.546875 15.253906 17.070312 C 15.253906 16.589844 15.652344 16.203125 16.148438 16.203125 C 16.644531 16.203125 17.042969 16.589844 17.042969 17.070312 Z M 17.042969 17.070312 "/>
<path style=" stroke:none;fill-rule:nonzero;fill:rgb(0%,0%,0%);fill-opacity:1;" d="M 18.980469 15.570312 C 18.980469 15.96875 18.644531 16.296875 18.230469 16.296875 C 17.816406 16.296875 17.480469 15.96875 17.480469 15.570312 C 17.480469 15.167969 17.816406 14.84375 18.230469 14.84375 C 18.644531 14.84375 18.980469 15.167969 18.980469 15.570312 Z M 18.980469 15.570312 "/>
<path style=" stroke:none;fill-rule:nonzero;fill:rgb(0%,0%,0%);fill-opacity:1;" d="M 13.921875 18.546875 C 13.921875 18.949219 13.585938 19.273438 13.171875 19.273438 C 12.757812 19.273438 12.421875 18.949219 12.421875 18.546875 C 12.421875 18.144531 12.757812 17.820312 13.171875 17.820312 C 13.585938 17.820312 13.921875 18.144531 13.921875 18.546875 Z M 13.921875 18.546875 "/>
<path style=" stroke:none;fill-rule:nonzero;fill:rgb(0%,0%,0%);fill-opacity:1;" d="M 19.898438 12.636719 C 19.898438 12.9375 19.652344 13.175781 19.34375 13.175781 C 19.035156 13.175781 18.785156 12.9375 18.785156 12.636719 C 18.785156 12.339844 19.035156 12.097656 19.34375 12.097656 C 19.652344 12.097656 19.898438 12.339844 19.898438 12.636719 Z M 19.898438 12.636719 "/>
<path style="fill:none;stroke-width:2;stroke-linecap:butt;stroke-linejoin:miter;stroke:rgb(0%,0%,0%);stroke-opacity:1;stroke-miterlimit:4;" d="M 0.990625 1007.354406 C 0.990625 999.611437 3.042634 992.014562 6.934375 985.367296 L 278.931696 514.141906 C 291.102232 493.104406 317.990625 485.872765 339.076786 498.071593 C 345.728125 501.870031 351.31808 507.421593 355.139062 514.141906 L 627.207143 985.367296 C 631.098884 992.014562 633.150893 999.611437 633.150893 1007.354406 C 633.150893 1031.679015 613.409152 1051.328624 589.138839 1051.328624 L 45.002679 1051.328624 C 20.732366 1051.328624 0.990625 1031.679015 0.990625 1007.354406 Z M 0.990625 1007.354406 " transform="matrix(0.055205,0,0,0.0534759,0,-26.263751)"/>
<path style=" stroke:none;fill-rule:nonzero;fill:rgb(100%,0%,0%);fill-opacity:1;" d="M 17.460938 0.535156 C 16.808594 0.550781 16.179688 0.882812 15.828125 1.46875 L 0.8125 26.667969 C 0.277344 27.566406 0.59375 28.710938 1.519531 29.226562 C 1.8125 29.390625 2.144531 29.476562 2.484375 29.476562 L 32.523438 29.476562 C 32.863281 29.476562 33.195312 29.390625 33.488281 29.226562 C 34.414062 28.710938 34.730469 27.566406 34.195312 26.667969 L 19.175781 1.46875 C 19.007812 1.1875 18.761719 0.949219 18.46875 0.785156 C 18.152344 0.609375 17.804688 0.527344 17.460938 0.535156 Z M 17.464844 3.757812 C 17.570312 3.75 17.679688 3.773438 17.78125 3.828125 C 17.863281 3.875 17.933594 3.941406 17.980469 4.023438 L 31.316406 26.398438 C 31.46875 26.652344 31.378906 26.980469 31.113281 27.128906 C 31.03125 27.175781 30.9375 27.199219 30.839844 27.199219 L 4.167969 27.199219 C 3.863281 27.199219 3.617188 26.960938 3.617188 26.664062 C 3.617188 26.570312 3.640625 26.476562 3.691406 26.398438 L 17.027344 4.023438 C 17.121094 3.863281 17.289062 3.769531 17.464844 3.757812 Z M 17.464844 3.757812 "/>
<path style=" stroke:none;fill-rule:nonzero;fill:rgb(0%,0%,0%);fill-opacity:1;" d="M 12.179688 26.261719 L 30.117188 26.261719 L 21.433594 11.691406 C 20.183594 13.472656 19.664062 15.195312 19.539062 16.882812 L 18.863281 18.289062 C 17.953125 19.375 17.296875 20.148438 16.609375 21.570312 L 15.59375 22.742188 C 13.402344 23.800781 12.519531 25.058594 12.179688 26.261719 Z M 12.179688 26.261719 "/>
</g>
</svg>
