<?xml version="1.0" encoding="UTF-8"?>
<svg xmlns="http://www.w3.org/2000/svg" xmlns:xlink="http://www.w3.org/1999/xlink" width="35px" height="35px" viewBox="0 0 35 7" version="1.1">
<g id="surface1">
<rect x="0" y="0" width="35" height="7" style="fill:rgb(100%,100%,100%);fill-opacity:1;stroke:none;"/>
<path style=" stroke:none;fill-rule:nonzero;fill:rgb(100%,0%,0%);fill-opacity:1;" d="M 0.566406 0.582031 L 0.566406 6.417969 L 3.386719 6.417969 L 6.210938 3.5 L 3.386719 0.582031 Z M 0.566406 0.582031 "/>
<path style=" stroke:none;fill-rule:nonzero;fill:rgb(100%,0%,0%);fill-opacity:1;" d="M 6.210938 0.582031 L 9.03125 3.5 L 6.210938 6.417969 L 11.855469 6.417969 L 14.675781 3.5 L 11.855469 0.582031 Z M 6.210938 0.582031 "/>
<path style=" stroke:none;fill-rule:nonzero;fill:rgb(100%,0%,0%);fill-opacity:1;" d="M 14.675781 0.582031 L 17.5 3.5 L 14.675781 6.417969 L 20.324219 6.417969 L 23.144531 3.5 L 20.324219 0.582031 Z M 14.675781 0.582031 "/>
<path style=" stroke:none;fill-rule:nonzero;fill:rgb(100%,0%,0%);fill-opacity:1;" d="M 23.144531 0.582031 L 25.96875 3.5 L 23.144531 6.417969 L 28.789062 6.417969 L 31.613281 3.5 L 28.789062 0.582031 Z M 23.144531 0.582031 "/>
<path style=" stroke:none;fill-rule:nonzero;fill:rgb(100%,0%,0%);fill-opacity:1;" d="M 31.613281 0.582031 L 34.433594 3.5 L 31.613281 6.417969 L 34.433594 6.417969 L 34.433594 0.582031 Z M 31.613281 0.582031 "/>
<path style="fill:none;stroke-width:2;stroke-linecap:butt;stroke-linejoin:miter;stroke:rgb(0%,0%,0%);stroke-opacity:1;stroke-miterlimit:4;" d="M 1.004464 553.478191 L 2248.995536 553.478191 L 2248.995536 1051.246049 L 1.004464 1051.246049 Z M 1.004464 553.478191 " transform="matrix(0.0155556,0,0,0.014,0,-7.73307)"/>
</g>
</svg>
