<?xml version="1.0" encoding="UTF-8"?>
<svg xmlns="http://www.w3.org/2000/svg" xmlns:xlink="http://www.w3.org/1999/xlink" width="35px" height="35px" viewBox="0 0 35 30" version="1.1">
<g id="surface1">
<path style=" stroke:none;fill-rule:nonzero;fill:rgb(100%,80%,0%);fill-opacity:1;" d="M 18.746094 0.324219 C 17.558594 -0.339844 16.039062 0.0546875 15.351562 1.203125 L 0.332031 26.402344 C -0.351562 27.554688 0.0546875 29.023438 1.242188 29.691406 C 1.621094 29.902344 2.046875 30.011719 2.484375 30.011719 L 32.523438 30.011719 C 32.957031 30.011719 33.386719 29.902344 33.765625 29.691406 C 34.953125 29.023438 35.359375 27.554688 34.675781 26.402344 L 19.65625 1.203125 C 19.4375 0.839844 19.125 0.535156 18.746094 0.324219 Z M 18.746094 0.324219 "/>
<path style=" stroke:none;fill-rule:nonzero;fill:rgb(0%,0%,0%);fill-opacity:1;" d="M 12.457031 15.007812 C 12.296875 15.007812 12.121094 15.125 12.066406 15.277344 L 11.871094 15.832031 L 11.460938 16.980469 L 11.363281 17.25 C 11.132812 17.25 10.945312 17.429688 10.945312 17.65625 L 10.945312 19.289062 C 10.945312 19.515625 11.132812 19.695312 11.363281 19.695312 L 14.167969 19.695312 C 14.167969 19.71875 14.164062 19.738281 14.164062 19.761719 L 14.164062 21.589844 C 14.164062 21.84375 14.375 22.042969 14.636719 22.042969 L 17.308594 22.042969 L 17.308594 23.855469 C 17.308594 24.136719 17.542969 24.363281 17.832031 24.363281 L 25.664062 24.363281 C 25.953125 24.363281 26.183594 24.136719 26.183594 23.855469 L 26.183594 21.832031 C 26.183594 21.554688 25.953125 21.328125 25.664062 21.328125 L 25.542969 20.996094 C 25.542969 20.996094 25.542969 20.992188 25.542969 20.992188 L 25.035156 19.570312 L 24.789062 18.882812 C 24.726562 18.695312 24.507812 18.546875 24.308594 18.546875 L 21.4375 18.546875 L 21.140625 17.714844 L 20.917969 17.097656 C 20.859375 16.929688 20.664062 16.792969 20.480469 16.792969 L 17.515625 16.792969 L 17.171875 15.832031 L 16.976562 15.277344 C 16.925781 15.125 16.75 15.007812 16.585938 15.007812 Z M 12.585938 15.414062 L 16.457031 15.414062 C 16.539062 15.414062 16.625 15.472656 16.652344 15.546875 L 17.097656 16.792969 L 15.859375 16.792969 C 15.675781 16.792969 15.480469 16.929688 15.421875 17.097656 L 15.367188 17.25 L 11.785156 17.25 L 12.390625 15.546875 C 12.417969 15.472656 12.503906 15.414062 12.585938 15.414062 Z M 16 17.25 L 20.339844 17.25 C 20.429688 17.25 20.527344 17.316406 20.558594 17.402344 L 20.964844 18.546875 L 19.1875 18.546875 C 18.984375 18.546875 18.769531 18.695312 18.703125 18.882812 L 18.554688 19.304688 L 15.105469 19.304688 L 15.785156 17.402344 C 15.789062 17.378906 15.800781 17.359375 15.816406 17.34375 C 15.824219 17.332031 15.832031 17.324219 15.84375 17.316406 C 15.851562 17.308594 15.859375 17.300781 15.871094 17.292969 C 15.878906 17.289062 15.890625 17.28125 15.898438 17.277344 C 15.933594 17.261719 15.96875 17.25 16 17.25 Z M 19.347656 19.050781 L 24.148438 19.050781 C 24.25 19.050781 24.355469 19.125 24.390625 19.21875 L 25.140625 21.328125 L 18.355469 21.328125 L 19.074219 19.304688 L 19.105469 19.21875 C 19.136719 19.125 19.246094 19.050781 19.347656 19.050781 Z M 19.347656 19.050781 "/>
<path style=" stroke:none;fill-rule:nonzero;fill:rgb(0%,0%,0%);fill-opacity:1;" d="M 11.363281 19.898438 L 11.363281 20.714844 C 11.363281 21.054688 11.648438 21.328125 11.996094 21.328125 C 12.34375 21.328125 12.628906 21.054688 12.628906 20.714844 L 12.628906 19.898438 Z M 11.363281 19.898438 "/>
<path style=" stroke:none;fill-rule:nonzero;fill:rgb(0%,0%,0%);fill-opacity:1;" d="M 14.636719 22.269531 L 14.636719 23.183594 C 14.636719 23.558594 14.953125 23.867188 15.34375 23.867188 C 15.734375 23.867188 16.050781 23.558594 16.050781 23.183594 L 16.050781 22.269531 Z M 14.636719 22.269531 "/>
<path style=" stroke:none;fill-rule:nonzero;fill:rgb(0%,0%,0%);fill-opacity:1;" d="M 17.832031 24.613281 L 17.832031 25.625 C 17.832031 26.042969 18.183594 26.382812 18.613281 26.382812 C 19.046875 26.382812 19.398438 26.042969 19.398438 25.625 L 19.398438 24.613281 Z M 17.832031 24.613281 "/>
<path style=" stroke:none;fill-rule:nonzero;fill:rgb(0%,0%,0%);fill-opacity:1;" d="M 24.097656 24.613281 L 24.097656 25.625 C 24.097656 26.042969 24.445312 26.382812 24.878906 26.382812 C 25.3125 26.382812 25.660156 26.042969 25.660156 25.625 L 25.660156 24.613281 Z M 24.097656 24.613281 "/>
<path style="fill:none;stroke-width:2;stroke-linecap:butt;stroke-linejoin:miter;stroke:rgb(0%,0%,0%);stroke-opacity:1;stroke-miterlimit:4;" d="M 0.990625 1007.354406 C 0.990625 999.611437 3.042634 992.014562 6.934375 985.367296 L 278.931696 514.141906 C 291.102232 493.104406 317.990625 485.872765 339.076786 498.071593 C 345.728125 501.870031 351.31808 507.421593 355.139062 514.141906 L 627.207143 985.367296 C 631.098884 992.014562 633.150893 999.611437 633.150893 1007.354406 C 633.150893 1031.679015 613.409152 1051.328624 589.138839 1051.328624 L 45.002679 1051.328624 C 20.732366 1051.328624 0.990625 1031.679015 0.990625 1007.354406 Z M 0.990625 1007.354406 " transform="matrix(0.055205,0,0,0.0534759,0,-26.263751)"/>
<path style=" stroke:none;fill-rule:nonzero;fill:rgb(100%,0%,0%);fill-opacity:1;" d="M 17.460938 0.535156 C 16.808594 0.550781 16.179688 0.882812 15.828125 1.46875 L 0.8125 26.667969 C 0.277344 27.566406 0.59375 28.710938 1.519531 29.226562 C 1.8125 29.390625 2.144531 29.476562 2.484375 29.476562 L 32.523438 29.476562 C 32.863281 29.476562 33.195312 29.390625 33.488281 29.226562 C 34.414062 28.710938 34.730469 27.566406 34.195312 26.667969 L 19.175781 1.46875 C 19.007812 1.1875 18.761719 0.949219 18.46875 0.785156 C 18.152344 0.609375 17.804688 0.527344 17.460938 0.535156 Z M 17.464844 3.757812 C 17.570312 3.75 17.679688 3.773438 17.78125 3.828125 C 17.863281 3.875 17.933594 3.941406 17.980469 4.023438 L 31.316406 26.398438 C 31.46875 26.652344 31.378906 26.980469 31.113281 27.128906 C 31.03125 27.175781 30.9375 27.199219 30.839844 27.199219 L 4.167969 27.199219 C 3.863281 27.199219 3.617188 26.960938 3.617188 26.664062 C 3.617188 26.570312 3.640625 26.476562 3.691406 26.398438 L 17.027344 4.023438 C 17.121094 3.863281 17.289062 3.769531 17.464844 3.757812 Z M 17.464844 3.757812 "/>
</g>
</svg>
