<?xml version="1.0" encoding="UTF-8"?>
<svg xmlns="http://www.w3.org/2000/svg" xmlns:xlink="http://www.w3.org/1999/xlink" width="35px" height="35px" viewBox="0 0 35 70" version="1.1">
<g id="surface1">
<path style=" stroke:none;fill-rule:nonzero;fill:rgb(100%,100%,100%);fill-opacity:1;" d="M 5.25 0 L 29.75 0 C 32.648438 0 35 2.351562 35 5.25 L 35 64.75 C 35 67.648438 32.648438 70 29.75 70 L 5.25 70 C 2.351562 70 0 67.648438 0 64.75 L 0 5.25 C 0 2.351562 2.351562 0 5.25 0 Z M 5.25 0 "/>
<path style="fill:none;stroke-width:2;stroke-linecap:butt;stroke-linejoin:miter;stroke:rgb(0%,0%,0%);stroke-opacity:1;stroke-miterlimit:4;" d="M 45 453.366644 L 255 453.366644 C 279.308036 453.366644 298.995536 473.054144 298.995536 497.36218 L 298.995536 1007.36218 C 298.995536 1031.670216 279.308036 1051.357716 255 1051.357716 L 45 1051.357716 C 20.691964 1051.357716 1.004464 1031.670216 1.004464 1007.36218 L 1.004464 497.36218 C 1.004464 473.054144 20.691964 453.366644 45 453.366644 Z M 45 453.366644 " transform="matrix(0.116667,0,0,0.116667,0,-52.775588)"/>
<path style=" stroke:none;fill-rule:nonzero;fill:rgb(0%,0%,0%);fill-opacity:1;" d="M 5.25 1.167969 C 2.988281 1.167969 1.167969 2.988281 1.167969 5.25 L 1.167969 64.75 C 1.167969 67.011719 2.988281 68.832031 5.25 68.832031 L 29.75 68.832031 C 32.011719 68.832031 33.832031 67.011719 33.832031 64.75 L 33.832031 5.25 C 33.832031 2.988281 32.011719 1.167969 29.75 1.167969 Z M 5.25 2.332031 L 29.75 2.332031 C 31.367188 2.332031 32.667969 3.632812 32.667969 5.25 L 32.667969 64.75 C 32.667969 66.367188 31.367188 67.667969 29.75 67.667969 L 5.25 67.667969 C 3.632812 67.667969 2.332031 66.367188 2.332031 64.75 L 2.332031 5.25 C 2.332031 3.632812 3.632812 2.332031 5.25 2.332031 Z M 5.25 2.332031 "/>
<path style=" stroke:none;fill-rule:nonzero;fill:rgb(100%,0%,0%);fill-opacity:1;" d="M 2.332031 40.15625 L 2.332031 47.355469 L 32.667969 29.84375 L 32.667969 22.644531 Z M 2.332031 40.15625 "/>
</g>
</svg>
