<?xml version="1.0" encoding="UTF-8"?>
<svg xmlns="http://www.w3.org/2000/svg" xmlns:xlink="http://www.w3.org/1999/xlink" width="35px" height="35px" viewBox="0 0 35 30" version="1.1">
<g id="surface1">
<path style=" stroke:none;fill-rule:nonzero;fill:rgb(100%,100%,100%);fill-opacity:1;" d="M 0 28.179688 C 0 29.195312 0.84375 30.015625 1.886719 30.015625 L 33.117188 30.015625 C 34.160156 30.015625 35.003906 29.195312 35.003906 28.179688 C 35.003906 27.855469 34.917969 27.539062 34.75 27.257812 L 19.136719 0.917969 C 18.800781 0.351562 18.175781 0 17.503906 0 C 16.828125 0 16.203125 0.351562 15.867188 0.917969 L 0.253906 27.257812 C 0.0859375 27.539062 0 27.855469 0 28.179688 Z M 0 28.179688 "/>
<path style="fill:none;stroke-width:2;stroke-linecap:butt;stroke-linejoin:miter;stroke:rgb(0%,0%,0%);stroke-opacity:1;stroke-miterlimit:4;" d="M 1.023884 689.463021 C 1.023884 713.738542 20.663839 733.426562 44.957812 733.426562 L 789.135268 733.426562 C 813.429241 733.426562 833.162277 713.738542 833.162277 689.463021 C 833.162277 681.721615 831.114509 674.075781 827.205134 667.385677 L 455.162946 23.033073 C 447.344196 9.366146 432.823661 0.955729 417.09308 0.955729 C 401.3625 0.955729 386.841964 9.366146 378.930134 23.033073 L 6.887946 667.385677 C 3.071652 674.075781 1.023884 681.721615 1.023884 689.463021 Z M 1.023884 689.463021 " transform="matrix(0.0419664,0,0,0.0408719,0,0)"/>
<path style=" stroke:none;fill-rule:nonzero;fill:rgb(100%,0%,0%);fill-opacity:1;" d="M 0.417969 28.179688 C 0.417969 28.96875 1.078125 29.609375 1.886719 29.609375 L 33.117188 29.609375 C 33.925781 29.609375 34.585938 28.96875 34.585938 28.179688 C 34.585938 27.925781 34.515625 27.679688 34.386719 27.460938 L 18.773438 1.125 C 18.511719 0.679688 18.027344 0.410156 17.503906 0.410156 C 16.976562 0.410156 16.492188 0.679688 16.230469 1.125 L 0.617188 27.460938 C 0.488281 27.679688 0.417969 27.925781 0.417969 28.179688 Z M 3.929688 26.792969 C 3.929688 26.722656 3.949219 26.652344 3.984375 26.589844 L 17.140625 4.402344 C 17.214844 4.277344 17.351562 4.199219 17.503906 4.199219 C 17.652344 4.199219 17.789062 4.277344 17.867188 4.402344 L 31.019531 26.589844 C 31.054688 26.652344 31.074219 26.722656 31.074219 26.792969 C 31.074219 27.019531 30.886719 27.203125 30.65625 27.203125 L 4.347656 27.203125 C 4.117188 27.203125 3.929688 27.019531 3.929688 26.792969 Z M 3.929688 26.792969 "/>
<path style=" stroke:none;fill-rule:nonzero;fill:rgb(0%,0%,0%);fill-opacity:1;" d="M 15.933594 17.710938 L 19.070312 17.710938 L 20.246094 16.375 L 17.699219 14.085938 L 17.699219 13.320312 L 17.304688 13.320312 L 17.304688 14.085938 L 14.757812 16.375 Z M 16.117188 17.328125 L 15.304688 16.40625 L 17.503906 14.429688 L 19.703125 16.40625 L 18.890625 17.328125 Z M 16.117188 17.328125 "/>
<path style=" stroke:none;fill-rule:nonzero;fill:rgb(0%,0%,0%);fill-opacity:1;" d="M 10.703125 24.390625 C 10.703125 23.757812 11.292969 23.246094 12.015625 23.246094 L 22.988281 23.246094 C 23.714844 23.246094 24.300781 23.757812 24.300781 24.390625 L 24.945312 24.390625 C 25.597656 24.390625 26.121094 23.875 26.121094 23.246094 L 26.121094 21.296875 C 26.121094 21.097656 26.070312 20.898438 25.964844 20.726562 L 24.609375 18.4375 C 24.496094 18.246094 24.289062 18.128906 24.066406 18.128906 L 10.941406 18.128906 C 10.714844 18.128906 10.507812 18.246094 10.398438 18.4375 L 9.039062 20.726562 C 8.9375 20.898438 8.882812 21.097656 8.882812 21.296875 L 8.882812 23.246094 C 8.882812 23.875 9.410156 24.390625 10.058594 24.390625 Z M 9.550781 20.574219 C 9.550781 20.507812 9.570312 20.441406 9.605469 20.382812 L 10.511719 18.855469 C 10.578125 18.738281 10.710938 18.664062 10.847656 18.664062 L 11.78125 18.664062 C 12 18.664062 12.171875 18.835938 12.171875 19.046875 L 12.171875 20.574219 C 12.171875 20.785156 12 20.953125 11.78125 20.953125 L 9.945312 20.953125 C 9.726562 20.953125 9.550781 20.785156 9.550781 20.574219 Z M 12.488281 20.574219 L 12.488281 19.046875 C 12.488281 18.835938 12.664062 18.664062 12.878906 18.664062 L 15.230469 18.664062 C 15.445312 18.664062 15.621094 18.835938 15.621094 19.046875 L 15.621094 20.574219 C 15.621094 20.785156 15.445312 20.953125 15.230469 20.953125 L 12.878906 20.953125 C 12.664062 20.953125 12.488281 20.785156 12.488281 20.574219 Z M 15.933594 20.574219 L 15.933594 19.046875 C 15.933594 18.835938 16.109375 18.664062 16.328125 18.664062 L 18.679688 18.664062 C 18.894531 18.664062 19.070312 18.835938 19.070312 19.046875 L 19.070312 20.574219 C 19.070312 20.785156 18.894531 20.953125 18.679688 20.953125 L 16.328125 20.953125 C 16.109375 20.953125 15.933594 20.785156 15.933594 20.574219 Z M 19.382812 20.574219 L 19.382812 19.046875 C 19.382812 18.835938 19.558594 18.664062 19.773438 18.664062 L 22.125 18.664062 C 22.34375 18.664062 22.519531 18.835938 22.519531 19.046875 L 22.519531 20.574219 C 22.519531 20.785156 22.34375 20.953125 22.125 20.953125 L 19.773438 20.953125 C 19.558594 20.953125 19.382812 20.785156 19.382812 20.574219 Z M 22.832031 20.574219 L 22.832031 19.046875 C 22.832031 18.835938 23.007812 18.664062 23.222656 18.664062 L 24.15625 18.664062 C 24.296875 18.664062 24.425781 18.738281 24.496094 18.855469 L 25.398438 20.382812 C 25.433594 20.441406 25.453125 20.507812 25.453125 20.574219 C 25.453125 20.785156 25.277344 20.953125 25.058594 20.953125 L 23.222656 20.953125 C 23.007812 20.953125 22.832031 20.785156 22.832031 20.574219 Z M 22.832031 20.574219 "/>
<path style=" stroke:none;fill-rule:nonzero;fill:rgb(0%,0%,0%);fill-opacity:1;" d="M 15.289062 24.390625 L 15.289062 24.464844 L 19.714844 24.464844 L 19.714844 24.390625 C 19.714844 24.003906 19.914062 23.648438 20.242188 23.433594 L 14.761719 23.433594 C 15.089844 23.648438 15.289062 24.003906 15.289062 24.390625 Z M 15.289062 24.390625 "/>
<path style=" stroke:none;fill-rule:nonzero;fill:rgb(0%,0%,0%);fill-opacity:1;" d="M 12.996094 24.523438 C 12.996094 25.082031 12.53125 25.535156 11.957031 25.535156 C 11.382812 25.535156 10.917969 25.082031 10.917969 24.523438 C 10.917969 23.964844 11.382812 23.511719 11.957031 23.511719 C 12.53125 23.511719 12.996094 23.964844 12.996094 24.523438 Z M 12.996094 24.523438 "/>
<path style=" stroke:none;fill-rule:nonzero;fill:rgb(0%,0%,0%);fill-opacity:1;" d="M 15.074219 24.523438 C 15.074219 25.082031 14.609375 25.535156 14.035156 25.535156 C 13.460938 25.535156 12.996094 25.082031 12.996094 24.523438 C 12.996094 23.964844 13.460938 23.511719 14.035156 23.511719 C 14.609375 23.511719 15.074219 23.964844 15.074219 24.523438 Z M 15.074219 24.523438 "/>
<path style=" stroke:none;fill-rule:nonzero;fill:rgb(0%,0%,0%);fill-opacity:1;" d="M 22.007812 24.523438 C 22.007812 25.082031 21.542969 25.535156 20.96875 25.535156 C 20.398438 25.535156 19.933594 25.082031 19.933594 24.523438 C 19.933594 23.964844 20.398438 23.511719 20.96875 23.511719 C 21.542969 23.511719 22.007812 23.964844 22.007812 24.523438 Z M 22.007812 24.523438 "/>
<path style=" stroke:none;fill-rule:nonzero;fill:rgb(0%,0%,0%);fill-opacity:1;" d="M 24.085938 24.523438 C 24.085938 25.082031 23.621094 25.535156 23.046875 25.535156 C 22.472656 25.535156 22.007812 25.082031 22.007812 24.523438 C 22.007812 23.964844 22.472656 23.511719 23.046875 23.511719 C 23.621094 23.511719 24.085938 23.964844 24.085938 24.523438 Z M 24.085938 24.523438 "/>
</g>
</svg>
