<?xml version="1.0" encoding="UTF-8"?>
<svg xmlns="http://www.w3.org/2000/svg" xmlns:xlink="http://www.w3.org/1999/xlink" width="35px" height="35px" viewBox="0 0 35 35" version="1.1">
<g id="surface1">
<path style=" stroke:none;fill-rule:nonzero;fill:rgb(100%,100%,100%);fill-opacity:1;" d="M 10.25 0 L 0 10.25 L 0 24.75 L 10.25 35 L 24.75 35 L 35 24.75 L 35 10.25 L 24.75 0 Z M 10.25 0 "/>
<path style="fill:none;stroke-width:2;stroke-linecap:butt;stroke-linejoin:miter;stroke:rgb(0%,0%,0%);stroke-opacity:1;stroke-miterlimit:4;" d="M 1.015625 494.53125 L 1.015625 205.46875 L 205.46875 1.015625 L 494.53125 1.015625 L 698.984375 205.46875 L 698.984375 494.53125 L 494.53125 698.984375 L 205.46875 698.984375 Z M 1.015625 494.53125 " transform="matrix(0.05,0,0,0.05,0,0)"/>
<path style=" stroke:none;fill-rule:nonzero;fill:rgb(100%,0%,0%);fill-opacity:1;" d="M 10.664062 1 L 1 10.664062 L 1 24.335938 L 10.664062 34 L 24.335938 34 L 34 24.335938 L 34 10.664062 L 24.335938 1 Z M 6.296875 12.34375 C 7.050781 12.398438 7.703125 12.625 8.25 13.019531 C 8.792969 13.414062 9.082031 13.636719 9.105469 13.695312 L 8.171875 14.921875 C 8.171875 14.882812 8.015625 14.714844 7.703125 14.429688 C 7.390625 14.144531 6.921875 13.980469 6.296875 13.9375 C 5.6875 13.96875 5.273438 14.15625 5.050781 14.492188 C 4.832031 14.828125 4.726562 15.136719 4.738281 15.414062 C 4.757812 15.828125 4.980469 16.125 5.402344 16.304688 C 5.824219 16.484375 6.332031 16.640625 6.921875 16.765625 C 7.660156 16.949219 8.238281 17.28125 8.664062 17.761719 C 9.089844 18.238281 9.304688 18.847656 9.3125 19.585938 C 9.308594 20.253906 9.03125 20.917969 8.484375 21.582031 C 7.933594 22.246094 7.136719 22.605469 6.089844 22.65625 C 5.460938 22.636719 4.902344 22.488281 4.410156 22.210938 C 3.921875 21.933594 3.535156 21.660156 3.253906 21.382812 C 2.972656 21.105469 2.828125 20.957031 2.820312 20.9375 L 3.847656 19.9375 C 3.847656 19.984375 4.042969 20.171875 4.421875 20.5 C 4.804688 20.828125 5.359375 21.015625 6.089844 21.0625 C 6.75 21.027344 7.199219 20.847656 7.429688 20.523438 C 7.660156 20.199219 7.769531 19.925781 7.753906 19.710938 C 7.769531 19.582031 7.761719 19.421875 7.734375 19.226562 C 7.707031 19.03125 7.558594 18.832031 7.296875 18.632812 C 7.035156 18.433594 6.566406 18.257812 5.882812 18.113281 C 4.726562 17.839844 3.996094 17.4375 3.6875 16.902344 C 3.375 16.367188 3.242188 15.871094 3.28125 15.414062 C 3.296875 14.53125 3.578125 13.804688 4.128906 13.234375 C 4.675781 12.660156 5.398438 12.363281 6.296875 12.34375 Z M 20.886719 12.34375 C 22.179688 12.382812 23.144531 12.886719 23.777344 13.855469 C 24.410156 14.828125 24.722656 16.042969 24.722656 17.5 C 24.722656 18.957031 24.410156 20.171875 23.777344 21.144531 C 23.144531 22.113281 22.179688 22.617188 20.886719 22.65625 C 19.59375 22.617188 18.632812 22.113281 18 21.144531 C 17.367188 20.171875 17.050781 18.957031 17.050781 17.5 C 17.050781 16.042969 17.367188 14.828125 18 13.855469 C 18.632812 12.886719 19.59375 12.382812 20.886719 12.34375 Z M 10.058594 12.589844 L 16.601562 12.589844 L 16.601562 14.0625 L 14.117188 14.0625 L 14.117188 22.410156 L 12.539062 22.410156 L 12.539062 14.0625 L 10.058594 14.0625 Z M 25.96875 12.589844 L 29.28125 12.589844 C 30.496094 12.644531 31.355469 13.023438 31.859375 13.726562 C 32.367188 14.425781 32.613281 15.109375 32.597656 15.78125 C 32.582031 16.453125 32.273438 17.136719 31.675781 17.835938 C 31.078125 18.539062 30.28125 18.917969 29.28125 18.972656 L 27.6875 18.972656 L 27.6875 22.410156 L 25.96875 22.410156 Z M 20.886719 13.9375 C 20.226562 13.949219 19.691406 14.265625 19.28125 14.890625 C 18.875 15.515625 18.664062 16.382812 18.648438 17.5 C 18.664062 18.617188 18.875 19.484375 19.28125 20.109375 C 19.691406 20.734375 20.226562 21.050781 20.886719 21.0625 C 21.546875 21.050781 22.082031 20.734375 22.492188 20.109375 C 22.902344 19.484375 23.113281 18.617188 23.125 17.5 C 23.113281 16.382812 22.902344 15.515625 22.492188 14.890625 C 22.082031 14.265625 21.546875 13.949219 20.886719 13.9375 Z M 27.6875 14.0625 L 27.6875 17.5 L 28.792969 17.5 C 29.304688 17.503906 29.753906 17.371094 30.140625 17.101562 C 30.53125 16.832031 30.734375 16.390625 30.757812 15.78125 C 30.734375 15.171875 30.53125 14.730469 30.140625 14.460938 C 29.753906 14.191406 29.304688 14.058594 28.792969 14.0625 Z M 27.6875 14.0625 "/>
</g>
</svg>
