<?xml version="1.0" encoding="UTF-8"?>
<svg xmlns="http://www.w3.org/2000/svg" xmlns:xlink="http://www.w3.org/1999/xlink" width="35px" height="35px" viewBox="0 0 35 35" version="1.1">
<defs>
<clipPath id="clip1">
  <path d="M 1 1 L 34 1 L 34 34 L 1 34 Z M 1 1 "/>
</clipPath>
<clipPath id="clip2">
  <path d="M 2.25 1 L 32.75 1 C 33.441406 1 34 1.558594 34 2.25 L 34 32.75 C 34 33.441406 33.441406 34 32.75 34 L 2.25 34 C 1.558594 34 1 33.441406 1 32.75 L 1 2.25 C 1 1.558594 1.558594 1 2.25 1 Z M 2.25 1 "/>
</clipPath>
<clipPath id="clip3">
  <path d="M 11 1 L 19 1 L 19 16 L 11 16 Z M 11 1 "/>
</clipPath>
<clipPath id="clip4">
  <path d="M 2.25 1 L 32.75 1 C 33.441406 1 34 1.558594 34 2.25 L 34 32.75 C 34 33.441406 33.441406 34 32.75 34 L 2.25 34 C 1.558594 34 1 33.441406 1 32.75 L 1 2.25 C 1 1.558594 1.558594 1 2.25 1 Z M 2.25 1 "/>
</clipPath>
</defs>
<g id="surface1">
<path style=" stroke:none;fill-rule:nonzero;fill:rgb(100%,100%,100%);fill-opacity:1;" d="M 2.25 0 L 32.75 0 C 33.992188 0 35 1.007812 35 2.25 L 35 32.75 C 35 33.992188 33.992188 35 32.75 35 L 2.25 35 C 1.007812 35 0 33.992188 0 32.75 L 0 2.25 C 0 1.007812 1.007812 0 2.25 0 Z M 2.25 0 "/>
<path style="fill:none;stroke-width:2;stroke-linecap:butt;stroke-linejoin:miter;stroke:rgb(0%,0%,0%);stroke-opacity:1;stroke-miterlimit:4;" d="M 45 1.015625 L 655 1.015625 C 679.296875 1.015625 698.984375 20.703125 698.984375 45 L 698.984375 655 C 698.984375 679.296875 679.296875 698.984375 655 698.984375 L 45 698.984375 C 20.703125 698.984375 1.015625 679.296875 1.015625 655 L 1.015625 45 C 1.015625 20.703125 20.703125 1.015625 45 1.015625 Z M 45 1.015625 " transform="matrix(0.05,0,0,0.05,0,0)"/>
<g clip-path="url(#clip1)" clip-rule="nonzero">
<g clip-path="url(#clip2)" clip-rule="nonzero">
<path style=" stroke:none;fill-rule:nonzero;fill:rgb(5.098039%,41.176471%,88.235294%);fill-opacity:1;" d="M 0 0 L 0 35 L 18.667969 35 L 18.667969 18.667969 L 15.75 18.667969 L 20.417969 10.5 L 25.082031 18.667969 L 22.167969 18.667969 L 22.167969 35 L 35 35 L 35 0 L 16.917969 0 L 16.917969 8.167969 L 19.832031 8.167969 L 15.167969 16.332031 L 10.5 8.167969 L 13.417969 8.167969 L 13.417969 0 Z M 0 0 "/>
</g>
</g>
<g clip-path="url(#clip3)" clip-rule="nonzero">
<g clip-path="url(#clip4)" clip-rule="nonzero">
<path style=" stroke:none;fill-rule:nonzero;fill:rgb(100%,0%,0%);fill-opacity:1;" d="M 14 0 L 14 8.75 L 11.503906 8.75 L 15.167969 15.15625 L 18.828125 8.75 L 16.332031 8.75 L 16.332031 0 Z M 14 0 "/>
</g>
</g>
</g>
</svg>
