<?xml version="1.0" encoding="UTF-8"?>
<svg xmlns="http://www.w3.org/2000/svg" xmlns:xlink="http://www.w3.org/1999/xlink" width="35px" height="35px" viewBox="0 0 35 35" version="1.1">
<g id="surface1">
<path style=" stroke:none;fill-rule:nonzero;fill:rgb(100%,100%,100%);fill-opacity:1;" d="M 35 17.5 C 35 27.164062 27.164062 35 17.5 35 C 7.835938 35 0 27.164062 0 17.5 C 0 7.835938 7.835938 0 17.5 0 C 27.164062 0 35 7.835938 35 17.5 Z M 35 17.5 "/>
<path style="fill:none;stroke-width:2;stroke-linecap:butt;stroke-linejoin:miter;stroke:rgb(0%,0%,0%);stroke-opacity:1;stroke-miterlimit:4;" d="M 698.984375 350 C 698.984375 542.734375 542.734375 698.984375 350 698.984375 C 157.265625 698.984375 1.015625 542.734375 1.015625 350 C 1.015625 157.265625 157.265625 1.015625 350 1.015625 C 542.734375 1.015625 698.984375 157.265625 698.984375 350 Z M 698.984375 350 " transform="matrix(0.05,0,0,0.05,0,0)"/>
<path style=" stroke:none;fill-rule:nonzero;fill:rgb(100%,0%,0%);fill-opacity:1;" d="M 17.5 34.5 C 26.890625 34.5 34.5 26.890625 34.5 17.5 C 34.5 8.109375 26.890625 0.5 17.5 0.5 C 8.109375 0.5 0.5 8.109375 0.5 17.5 C 0.5 26.890625 8.109375 34.5 17.5 34.5 Z M 26.570312 28.164062 C 24.039062 30.316406 20.824219 31.5 17.5 31.5 C 9.769531 31.5 3.5 25.230469 3.5 17.5 C 3.5 14.175781 4.683594 10.960938 6.835938 8.429688 Z M 8.429688 6.835938 C 10.960938 4.683594 14.175781 3.5 17.5 3.5 C 25.230469 3.5 31.5 9.769531 31.5 17.5 C 31.5 20.824219 30.316406 24.039062 28.164062 26.570312 Z M 8.429688 6.835938 "/>
<path style=" stroke:none;fill-rule:nonzero;fill:rgb(0%,0%,0%);fill-opacity:1;" d="M 16.035156 18.429688 L 11.3125 26.613281 C 11.21875 26.777344 11.167969 26.960938 11.167969 27.152344 C 11.167969 27.746094 11.648438 28.226562 12.242188 28.226562 C 12.628906 28.226562 12.984375 28.019531 13.175781 27.6875 L 17.609375 20.003906 Z M 16.035156 18.429688 "/>
<path style=" stroke:none;fill-rule:nonzero;fill:rgb(0%,0%,0%);fill-opacity:1;" d="M 20.527344 22.925781 L 21.648438 27.410156 C 21.765625 27.890625 22.199219 28.226562 22.691406 28.226562 C 23.285156 28.226562 23.765625 27.746094 23.765625 27.152344 C 23.765625 27.0625 23.753906 26.976562 23.734375 26.890625 L 23.480469 25.875 Z M 20.527344 22.925781 "/>
<path style=" stroke:none;fill-rule:nonzero;fill:rgb(0%,0%,0%);fill-opacity:1;" d="M 12.148438 14.542969 L 12.148438 17.191406 C 12.148438 17.660156 12.527344 18.039062 12.996094 18.039062 C 13.464844 18.039062 13.84375 17.660156 13.84375 17.191406 L 13.84375 16.242188 Z M 12.148438 14.542969 "/>
<path style=" stroke:none;fill-rule:nonzero;fill:rgb(0%,0%,0%);fill-opacity:1;" d="M 19.195312 16.796875 L 19.195312 11.5 C 19.195312 11.296875 19.085938 11.113281 18.910156 11.011719 L 17.449219 10.167969 C 17.097656 9.964844 16.667969 9.964844 16.316406 10.167969 L 13.9375 11.542969 L 15.179688 12.785156 L 15.601562 12.542969 L 15.601562 13.203125 Z M 19.195312 16.796875 "/>
<path style=" stroke:none;fill-rule:nonzero;fill:rgb(0%,0%,0%);fill-opacity:1;" d="M 19.757812 16.296875 L 21.789062 18.328125 C 21.949219 18.488281 22.164062 18.578125 22.390625 18.578125 C 22.859375 18.578125 23.238281 18.195312 23.238281 17.726562 C 23.238281 17.503906 23.152344 17.285156 22.992188 17.128906 L 19.757812 13.894531 Z M 19.757812 16.296875 "/>
<path style=" stroke:none;fill-rule:nonzero;fill:rgb(0%,0%,0%);fill-opacity:1;" d="M 17.296875 5.785156 C 17.824219 5.785156 19.882812 6.261719 19.882812 7.9375 C 19.882812 8.617188 19.441406 9.71875 18.484375 9.71875 C 17.808594 9.71875 15.640625 8.648438 15.640625 7.3125 C 15.640625 6.148438 16.675781 5.785156 17.296875 5.785156 Z M 17.296875 5.785156 "/>
</g>
</svg>
