<?xml version="1.0" encoding="UTF-8"?>
<svg xmlns="http://www.w3.org/2000/svg" xmlns:xlink="http://www.w3.org/1999/xlink" width="35px" height="35px" viewBox="0 0 35 35" version="1.1">
<g id="surface1">
<path style=" stroke:none;fill-rule:nonzero;fill:rgb(100%,100%,100%);fill-opacity:1;" d="M 35 17.5 C 35 27.164062 27.164062 35 17.5 35 C 7.835938 35 0 27.164062 0 17.5 C 0 7.835938 7.835938 0 17.5 0 C 27.164062 0 35 7.835938 35 17.5 Z M 35 17.5 "/>
<path style="fill:none;stroke-width:0.170718;stroke-linecap:butt;stroke-linejoin:miter;stroke:rgb(0%,0%,0%);stroke-opacity:1;stroke-miterlimit:4;" d="M -65.613942 432.259967 C -65.613942 448.53332 -75.511214 461.724898 -87.720655 461.724898 C -99.930095 461.724898 -109.827367 448.53332 -109.827367 432.259967 C -109.827367 415.986615 -99.930095 402.795036 -87.720655 402.795036 C -75.511214 402.795036 -65.613942 415.986615 -65.613942 432.259967 Z M -65.613942 432.259967 " transform="matrix(0.788964,0,0,0.591938,86.708463,-238.371011)"/>
<path style=" stroke:none;fill-rule:nonzero;fill:rgb(100%,0%,0%);fill-opacity:1;" d="M 17.5 0.582031 C 8.15625 0.582031 0.582031 8.15625 0.582031 17.5 C 0.582031 26.84375 8.15625 34.417969 17.5 34.417969 C 26.84375 34.417969 34.417969 26.84375 34.417969 17.5 C 34.417969 8.15625 26.84375 0.582031 17.5 0.582031 Z M 17.5 3.445312 C 25.261719 3.445312 31.554688 9.738281 31.554688 17.5 C 31.554688 25.261719 25.261719 31.554688 17.5 31.554688 C 9.738281 31.554688 3.445312 25.261719 3.445312 17.5 C 3.445312 9.738281 9.738281 3.445312 17.5 3.445312 Z M 17.5 3.445312 "/>
<path style=" stroke:none;fill-rule:nonzero;fill:rgb(0%,0%,0%);fill-opacity:1;" d="M 17.5 19.195312 C 16.761719 19.195312 16.105469 19.546875 15.695312 20.097656 C 15.488281 20.371094 15.160156 20.546875 14.789062 20.546875 L 10.160156 20.546875 L 10.160156 18.628906 C 10.160156 18.003906 9.65625 17.5 9.03125 17.5 C 8.410156 17.5 7.902344 18.003906 7.902344 18.628906 L 7.902344 24.273438 C 7.902344 24.898438 8.410156 25.402344 9.03125 25.402344 C 9.65625 25.402344 10.160156 24.898438 10.160156 24.273438 L 10.160156 22.355469 L 14.789062 22.355469 C 15.160156 22.355469 15.488281 22.53125 15.691406 22.804688 C 16.105469 23.355469 16.761719 23.710938 17.5 23.710938 C 18.238281 23.710938 18.894531 23.355469 19.304688 22.804688 C 19.511719 22.53125 19.839844 22.355469 20.210938 22.355469 L 24.839844 22.355469 L 24.839844 24.273438 C 24.839844 24.898438 25.34375 25.402344 25.96875 25.402344 C 26.589844 25.402344 27.097656 24.898438 27.097656 24.273438 L 27.097656 18.628906 C 27.097656 18.003906 26.589844 17.5 25.96875 17.5 C 25.34375 17.5 24.839844 18.003906 24.839844 18.628906 L 24.839844 20.546875 L 20.210938 20.546875 C 19.839844 20.546875 19.511719 20.371094 19.308594 20.097656 C 18.894531 19.546875 18.238281 19.195312 17.5 19.195312 Z M 17.5 19.195312 "/>
<path style=" stroke:none;fill-rule:nonzero;fill:rgb(0%,0%,0%);fill-opacity:1;" d="M 13.625 9.066406 L 10.78125 9.066406 L 10.78125 10.929688 C 11.023438 10.601562 11.449219 10.4375 12.054688 10.4375 C 12.644531 10.4375 13.179688 10.664062 13.664062 11.113281 C 14.160156 11.558594 14.40625 12.152344 14.40625 12.890625 C 14.40625 13.691406 14.128906 14.367188 13.566406 14.917969 C 13.007812 15.460938 12.273438 15.730469 11.371094 15.730469 C 11.109375 15.730469 10.824219 15.699219 10.515625 15.632812 C 10.207031 15.566406 9.960938 15.503906 9.773438 15.4375 L 9.507812 15.339844 L 9.3125 14.066406 C 9.695312 14.328125 10.316406 14.457031 11.171875 14.457031 C 11.613281 14.457031 12.011719 14.328125 12.378906 14.066406 C 12.75 13.804688 12.9375 13.445312 12.9375 12.988281 C 12.9375 12.613281 12.8125 12.277344 12.558594 11.980469 C 12.308594 11.671875 11.976562 11.515625 11.566406 11.515625 C 11.386719 11.515625 11.21875 11.558594 11.0625 11.644531 C 10.902344 11.71875 10.757812 11.8125 10.628906 11.921875 C 10.496094 12.027344 10.417969 12.085938 10.390625 12.105469 L 9.507812 11.617188 L 9.507812 7.792969 L 14.015625 7.792969 Z M 13.625 9.066406 "/>
<path style=" stroke:none;fill-rule:nonzero;fill:rgb(0%,0%,0%);fill-opacity:1;" d="M 16.984375 11.289062 L 16.984375 10.199219 L 21.5 10.199219 L 21.5 11.289062 L 19.84375 11.289062 L 19.84375 15.75 L 18.652344 15.75 L 18.652344 11.289062 Z M 16.984375 11.289062 "/>
<path style=" stroke:none;fill-rule:nonzero;fill:rgb(0%,0%,0%);fill-opacity:1;" d="M 24.652344 10.207031 C 25.171875 10.207031 25.625 10.347656 26.015625 10.628906 C 26.410156 10.902344 26.699219 11.285156 26.875 11.78125 L 25.828125 12.175781 C 25.625 11.480469 25.234375 11.132812 24.652344 11.132812 C 24.273438 11.132812 23.960938 11.304688 23.714844 11.648438 C 23.476562 11.992188 23.355469 12.4375 23.355469 12.984375 C 23.355469 13.53125 23.476562 13.976562 23.714844 14.320312 C 23.960938 14.664062 24.273438 14.835938 24.652344 14.835938 C 25.234375 14.835938 25.625 14.488281 25.828125 13.789062 L 26.875 14.1875 C 26.699219 14.679688 26.410156 15.066406 26.015625 15.351562 C 25.625 15.625 25.171875 15.761719 24.652344 15.761719 C 23.949219 15.761719 23.351562 15.503906 22.867188 14.992188 C 22.390625 14.472656 22.152344 13.804688 22.152344 12.984375 C 22.152344 12.164062 22.390625 11.5 22.867188 10.988281 C 23.351562 10.46875 23.949219 10.207031 24.652344 10.207031 Z M 24.652344 10.207031 "/>
</g>
</svg>
