<?xml version="1.0" encoding="UTF-8"?>
<svg xmlns="http://www.w3.org/2000/svg" xmlns:xlink="http://www.w3.org/1999/xlink" width="35px" height="35px" viewBox="0 0 35 35" version="1.1">
<g id="surface1">
<path style=" stroke:none;fill-rule:nonzero;fill:rgb(100%,100%,100%);fill-opacity:1;" d="M 35 17.5 C 35 27.164062 27.164062 35 17.5 35 C 7.835938 35 0 27.164062 0 17.5 C 0 7.835938 7.835938 0 17.5 0 C 27.164062 0 35 7.835938 35 17.5 Z M 35 17.5 "/>
<path style="fill:none;stroke-width:0.170718;stroke-linecap:butt;stroke-linejoin:miter;stroke:rgb(0%,0%,0%);stroke-opacity:1;stroke-miterlimit:4;" d="M -65.613942 432.259967 C -65.613942 448.53332 -75.511214 461.724898 -87.720655 461.724898 C -99.930095 461.724898 -109.827367 448.53332 -109.827367 432.259967 C -109.827367 415.986615 -99.930095 402.795036 -87.720655 402.795036 C -75.511214 402.795036 -65.613942 415.986615 -65.613942 432.259967 Z M -65.613942 432.259967 " transform="matrix(0.788964,0,0,0.591938,86.708463,-238.371011)"/>
<path style=" stroke:none;fill-rule:nonzero;fill:rgb(100%,0%,0%);fill-opacity:1;" d="M 17.5 0.582031 C 8.15625 0.582031 0.582031 8.15625 0.582031 17.5 C 0.582031 26.84375 8.15625 34.417969 17.5 34.417969 C 26.84375 34.417969 34.417969 26.84375 34.417969 17.5 C 34.417969 8.15625 26.84375 0.582031 17.5 0.582031 Z M 17.5 3.445312 C 25.261719 3.445312 31.554688 9.738281 31.554688 17.5 C 31.554688 25.261719 25.261719 31.554688 17.5 31.554688 C 9.738281 31.554688 3.445312 25.261719 3.445312 17.5 C 3.445312 9.738281 9.738281 3.445312 17.5 3.445312 Z M 17.5 3.445312 "/>
<path style=" stroke:none;fill-rule:nonzero;fill:rgb(0%,0%,0%);fill-opacity:1;" d="M 10.296875 10.625 C 9.984375 10.625 9.695312 10.777344 9.523438 11.035156 L 8.0625 13.199219 C 7.957031 13.355469 7.902344 13.535156 7.902344 13.722656 L 7.902344 16.585938 C 7.902344 17.101562 8.320312 17.515625 8.835938 17.515625 L 9.675781 17.515625 C 9.726562 16.480469 10.578125 15.652344 11.628906 15.652344 C 12.679688 15.652344 13.535156 16.480469 13.582031 17.515625 L 20.851562 17.515625 C 20.886719 16.773438 21.335938 16.140625 21.972656 15.839844 L 13.863281 15.839844 L 13.863281 11.554688 C 13.863281 11.042969 13.449219 10.625 12.933594 10.625 Z M 10.34375 11.183594 L 12.46875 11.183594 C 12.722656 11.183594 12.933594 11.390625 12.933594 11.648438 L 12.933594 12.953125 C 12.933594 13.210938 12.722656 13.417969 12.46875 13.417969 L 9.464844 13.417969 C 9.207031 13.417969 9 13.210938 9 12.953125 C 9 12.859375 9.027344 12.769531 9.078125 12.691406 L 9.957031 11.386719 C 10.042969 11.261719 10.191406 11.183594 10.34375 11.183594 Z M 10.34375 11.183594 "/>
<path style=" stroke:none;fill-rule:nonzero;fill:rgb(0%,0%,0%);fill-opacity:1;" d="M 15.355469 7.828125 C 14.839844 7.828125 14.421875 8.246094 14.421875 8.761719 L 14.421875 15.28125 L 26.53125 15.28125 L 26.53125 8.761719 C 26.53125 8.246094 26.117188 7.828125 25.601562 7.828125 Z M 15.355469 7.828125 "/>
<path style=" stroke:none;fill-rule:nonzero;fill:rgb(0%,0%,0%);fill-opacity:1;" d="M 22.804688 16.027344 C 21.933594 16.027344 21.222656 16.734375 21.222656 17.609375 C 21.222656 18.484375 21.933594 19.195312 22.804688 19.195312 C 23.679688 19.195312 24.390625 18.484375 24.390625 17.609375 C 24.390625 16.734375 23.679688 16.027344 22.804688 16.027344 Z M 22.804688 16.773438 C 23.269531 16.773438 23.644531 17.148438 23.644531 17.609375 C 23.644531 18.074219 23.269531 18.449219 22.804688 18.449219 C 22.34375 18.449219 21.96875 18.074219 21.96875 17.609375 C 21.96875 17.148438 22.34375 16.773438 22.804688 16.773438 Z M 22.804688 16.773438 "/>
<path style=" stroke:none;fill-rule:nonzero;fill:rgb(0%,0%,0%);fill-opacity:1;" d="M 24.757812 17.515625 C 24.726562 16.773438 24.277344 16.140625 23.640625 15.839844 L 26.53125 15.839844 L 26.53125 17.515625 Z M 24.757812 17.515625 "/>
<path style=" stroke:none;fill-rule:nonzero;fill:rgb(0%,0%,0%);fill-opacity:1;" d="M 11.628906 16.027344 C 10.753906 16.027344 10.046875 16.734375 10.046875 17.609375 C 10.046875 18.484375 10.753906 19.195312 11.628906 19.195312 C 12.503906 19.195312 13.210938 18.484375 13.210938 17.609375 C 13.210938 16.734375 12.503906 16.027344 11.628906 16.027344 Z M 11.628906 16.773438 C 12.09375 16.773438 12.46875 17.148438 12.46875 17.609375 C 12.46875 18.074219 12.09375 18.449219 11.628906 18.449219 C 11.167969 18.449219 10.789062 18.074219 10.789062 17.609375 C 10.789062 17.148438 11.167969 16.773438 11.628906 16.773438 Z M 11.628906 16.773438 "/>
<path style=" stroke:none;fill-rule:nonzero;fill:rgb(0%,0%,0%);fill-opacity:1;" d="M 23.144531 21.453125 L 23.144531 28.226562 L 26.53125 24.839844 Z M 23.144531 21.453125 "/>
<path style=" stroke:none;fill-rule:nonzero;fill:rgb(0%,0%,0%);fill-opacity:1;" d="M 11.289062 21.453125 L 11.289062 28.226562 L 7.902344 24.839844 Z M 11.289062 21.453125 "/>
<path style=" stroke:none;fill-rule:nonzero;fill:rgb(0%,0%,0%);fill-opacity:1;" d="M 13.71875 21.5625 L 14.050781 21.996094 L 14.804688 21.523438 L 14.804688 25.898438 L 15.792969 25.898438 L 15.792969 20.253906 L 14.949219 20.253906 Z M 13.71875 21.5625 "/>
<path style=" stroke:none;fill-rule:nonzero;fill:rgb(0%,0%,0%);fill-opacity:1;" d="M 18.894531 20.179688 C 18.320312 20.195312 17.863281 20.464844 17.515625 20.992188 C 17.171875 21.519531 16.996094 22.214844 16.988281 23.074219 C 16.996094 23.9375 17.171875 24.628906 17.515625 25.15625 C 17.863281 25.683594 18.320312 25.953125 18.894531 25.96875 C 19.464844 25.953125 19.925781 25.683594 20.269531 25.15625 C 20.613281 24.628906 20.789062 23.9375 20.796875 23.074219 C 20.789062 22.253906 20.613281 21.570312 20.269531 21.027344 C 19.925781 20.484375 19.464844 20.203125 18.894531 20.179688 Z M 18.894531 21.058594 C 19.167969 21.054688 19.390625 21.214844 19.554688 21.539062 C 19.722656 21.859375 19.804688 22.375 19.8125 23.074219 C 19.804688 23.777344 19.722656 24.289062 19.554688 24.613281 C 19.390625 24.933594 19.167969 25.09375 18.894531 25.089844 C 18.617188 25.09375 18.394531 24.933594 18.230469 24.613281 C 18.066406 24.289062 17.980469 23.777344 17.976562 23.074219 C 17.980469 22.375 18.066406 21.859375 18.230469 21.539062 C 18.394531 21.214844 18.617188 21.054688 18.894531 21.058594 Z M 18.894531 21.058594 "/>
<path style=" stroke:none;fill-rule:nonzero;fill:rgb(0%,0%,0%);fill-opacity:1;" d="M 15.84375 29.863281 L 16.484375 29.863281 L 16.644531 27.777344 L 17.5 29.488281 L 18.355469 27.777344 L 18.515625 29.863281 L 19.15625 29.863281 L 18.890625 26.871094 L 18.246094 26.871094 L 17.5 28.367188 L 16.753906 26.871094 L 16.109375 26.871094 Z M 15.84375 29.863281 "/>
</g>
</svg>
