<?xml version="1.0" encoding="UTF-8"?>
<svg xmlns="http://www.w3.org/2000/svg" xmlns:xlink="http://www.w3.org/1999/xlink" width="35px" height="35px" viewBox="0 0 35 35" version="1.1">
<g id="surface1">
<path style=" stroke:none;fill-rule:nonzero;fill:rgb(100%,100%,100%);fill-opacity:1;" d="M 35 17.5 C 35 27.164062 27.164062 35 17.5 35 C 7.835938 35 0 27.164062 0 17.5 C 0 7.835938 7.835938 0 17.5 0 C 27.164062 0 35 7.835938 35 17.5 Z M 35 17.5 "/>
<path style="fill:none;stroke-width:0.170718;stroke-linecap:butt;stroke-linejoin:miter;stroke:rgb(0%,0%,0%);stroke-opacity:1;stroke-miterlimit:4;" d="M -65.613942 432.259967 C -65.613942 448.53332 -75.511214 461.724898 -87.720655 461.724898 C -99.930095 461.724898 -109.827367 448.53332 -109.827367 432.259967 C -109.827367 415.986615 -99.930095 402.795036 -87.720655 402.795036 C -75.511214 402.795036 -65.613942 415.986615 -65.613942 432.259967 Z M -65.613942 432.259967 " transform="matrix(0.788964,0,0,0.591938,86.708463,-238.371011)"/>
<path style=" stroke:none;fill-rule:nonzero;fill:rgb(100%,0%,0%);fill-opacity:1;" d="M 17.5 0.582031 C 8.15625 0.582031 0.582031 8.15625 0.582031 17.5 C 0.582031 26.84375 8.15625 34.417969 17.5 34.417969 C 26.84375 34.417969 34.417969 26.84375 34.417969 17.5 C 34.417969 8.15625 26.84375 0.582031 17.5 0.582031 Z M 17.5 3.445312 C 25.261719 3.445312 31.554688 9.738281 31.554688 17.5 C 31.554688 25.261719 25.261719 31.554688 17.5 31.554688 C 9.738281 31.554688 3.445312 25.261719 3.445312 17.5 C 3.445312 9.738281 9.738281 3.445312 17.5 3.445312 Z M 17.5 3.445312 "/>
<path style=" stroke:none;fill-rule:nonzero;fill:rgb(0%,0%,0%);fill-opacity:1;" d="M 30.457031 13.730469 C 30.390625 13.777344 30.324219 13.828125 30.269531 13.890625 L 26.53125 17.894531 C 26.363281 18.074219 26.140625 18.191406 25.898438 18.226562 L 20.179688 19.03125 C 19.640625 19.105469 19.246094 19.570312 19.253906 20.109375 L 19.289062 22.148438 C 19.308594 22.625 19.695312 23.003906 20.167969 23.019531 C 20.4375 21.722656 21.59375 20.746094 22.976562 20.746094 C 24.558594 20.746094 25.839844 22.023438 25.839844 23.597656 L 29.539062 23.597656 C 30.355469 21.988281 30.859375 20.191406 30.96875 18.289062 L 28.800781 18.289062 C 28.429688 18.289062 28.125 17.988281 28.125 17.613281 C 28.125 17.441406 28.191406 17.277344 28.308594 17.152344 L 30.675781 14.609375 C 30.675781 14.609375 30.679688 14.609375 30.679688 14.605469 C 30.613281 14.3125 30.542969 14.019531 30.457031 13.730469 Z M 30.457031 13.730469 "/>
<path style=" stroke:none;fill-rule:nonzero;fill:rgb(0%,0%,0%);fill-opacity:1;" d="M 22.976562 21.226562 C 21.667969 21.226562 20.605469 22.289062 20.605469 23.597656 C 20.605469 24.90625 21.667969 25.96875 22.976562 25.96875 C 24.285156 25.96875 25.347656 24.90625 25.347656 23.597656 C 25.347656 22.289062 24.285156 21.226562 22.976562 21.226562 Z M 22.976562 22.183594 C 23.753906 22.183594 24.386719 22.816406 24.386719 23.597656 C 24.386719 24.375 23.753906 25.007812 22.976562 25.007812 C 22.195312 25.007812 21.566406 24.375 21.566406 23.597656 C 21.566406 22.816406 22.195312 22.183594 22.976562 22.183594 Z M 22.976562 22.183594 "/>
<path style=" stroke:none;fill-rule:nonzero;fill:rgb(0%,0%,0%);fill-opacity:1;" d="M 4.597656 13.546875 C 4.511719 13.828125 4.433594 14.109375 4.367188 14.394531 L 9.34375 14.394531 C 9.761719 14.394531 10.117188 14.699219 10.179688 15.109375 L 10.53125 17.3125 C 10.601562 17.773438 10.289062 18.207031 9.824219 18.28125 C 9.78125 18.285156 9.738281 18.289062 9.695312 18.289062 L 4.03125 18.289062 C 4.140625 20.191406 4.644531 21.988281 5.460938 23.597656 L 6.84375 23.597656 C 6.84375 22.023438 8.128906 20.746094 9.710938 20.746094 C 11.160156 20.746094 12.359375 21.816406 12.546875 23.207031 L 13.09375 23.0625 C 13.425781 22.972656 13.679688 22.699219 13.746094 22.363281 L 14.308594 19.476562 C 14.371094 19.15625 14.28125 18.824219 14.070312 18.574219 L 10.097656 13.925781 C 9.894531 13.683594 9.59375 13.546875 9.28125 13.546875 Z M 4.597656 13.546875 "/>
<path style=" stroke:none;fill-rule:nonzero;fill:rgb(0%,0%,0%);fill-opacity:1;" d="M 9.710938 21.226562 C 8.398438 21.226562 7.339844 22.289062 7.339844 23.597656 C 7.339844 24.90625 8.398438 25.96875 9.710938 25.96875 C 11.019531 25.96875 12.082031 24.90625 12.082031 23.597656 C 12.082031 22.289062 11.019531 21.226562 9.710938 21.226562 Z M 9.710938 22.183594 C 10.488281 22.183594 11.121094 22.816406 11.121094 23.597656 C 11.121094 24.375 10.488281 25.007812 9.710938 25.007812 C 8.929688 25.007812 8.296875 24.375 8.296875 23.597656 C 8.296875 22.816406 8.929688 22.183594 9.710938 22.183594 Z M 9.710938 22.183594 "/>
<path style=" stroke:none;fill-rule:nonzero;fill:rgb(0%,0%,0%);fill-opacity:1;" d="M 21.21875 12.417969 L 21.914062 12.417969 L 22.171875 10.007812 L 23.128906 12.035156 L 24.085938 9.976562 L 24.375 12.417969 L 25.058594 12.417969 L 24.703125 9.03125 L 23.964844 9.03125 L 23.152344 10.71875 L 22.277344 9.03125 L 21.550781 9.03125 Z M 21.21875 12.417969 "/>
<path style=" stroke:none;fill-rule:nonzero;fill:rgb(0%,0%,0%);fill-opacity:1;" d="M 11.363281 7.691406 L 13.972656 7.691406 C 13.574219 8.335938 13.195312 9.058594 12.835938 9.863281 C 12.480469 10.664062 12.222656 11.492188 12.070312 12.347656 L 13.128906 12.347656 C 13.34375 11.339844 13.617188 10.449219 13.9375 9.675781 C 14.261719 8.90625 14.605469 8.171875 14.960938 7.480469 L 14.960938 6.773438 L 11.574219 6.773438 Z M 11.363281 7.691406 "/>
<path style=" stroke:none;fill-rule:nonzero;fill:rgb(0%,0%,0%);fill-opacity:1;" d="M 17.742188 6.703125 C 17.167969 6.71875 16.707031 6.988281 16.363281 7.515625 C 16.019531 8.042969 15.84375 8.734375 15.835938 9.597656 C 15.84375 10.457031 16.019531 11.152344 16.363281 11.679688 C 16.707031 12.203125 17.167969 12.476562 17.742188 12.488281 C 18.3125 12.476562 18.773438 12.203125 19.117188 11.679688 C 19.460938 11.152344 19.636719 10.457031 19.644531 9.597656 C 19.636719 8.773438 19.460938 8.09375 19.117188 7.550781 C 18.773438 7.003906 18.3125 6.722656 17.742188 6.703125 Z M 17.742188 7.582031 C 18.015625 7.578125 18.238281 7.734375 18.402344 8.058594 C 18.570312 8.382812 18.652344 8.894531 18.660156 9.597656 C 18.652344 10.296875 18.570312 10.8125 18.402344 11.132812 C 18.238281 11.457031 18.015625 11.617188 17.742188 11.613281 C 17.464844 11.617188 17.242188 11.457031 17.078125 11.132812 C 16.914062 10.8125 16.828125 10.296875 16.824219 9.597656 C 16.828125 8.894531 16.914062 8.382812 17.078125 8.058594 C 17.242188 7.734375 17.464844 7.578125 17.742188 7.582031 Z M 17.742188 7.582031 "/>
</g>
</svg>
