<?xml version="1.0" encoding="UTF-8"?>
<svg xmlns="http://www.w3.org/2000/svg" xmlns:xlink="http://www.w3.org/1999/xlink" width="35px" height="35px" viewBox="0 0 35 35" version="1.1">
<g id="surface1">
<path style=" stroke:none;fill-rule:nonzero;fill:rgb(100%,100%,100%);fill-opacity:1;" d="M 35 17.5 C 35.003906 27.167969 27.167969 35.003906 17.5 35.003906 C 7.832031 35.003906 -0.00390625 27.167969 0 17.5 C -0.00390625 7.832031 7.832031 -0.00390625 17.5 -0.00390625 C 27.167969 -0.00390625 35.003906 7.832031 35 17.5 Z M 35 17.5 "/>
<path style="fill:none;stroke-width:0.612715;stroke-linecap:butt;stroke-linejoin:miter;stroke:rgb(0%,0%,0%);stroke-opacity:1;stroke-miterlimit:4;" d="M -199.117906 803.424321 C -199.117906 854.97005 -253.951058 896.758238 -321.587751 896.758238 C -389.224443 896.758238 -444.057595 854.97005 -444.057595 803.424321 C -444.057595 751.878591 -389.224443 710.090403 -321.587751 710.090403 C -253.951058 710.090403 -199.117906 751.878591 -199.117906 803.424321 Z M -199.117906 803.424321 " transform="matrix(0.142478,0,0,0.186955,63.319075,-132.703989)"/>
<path style=" stroke:none;fill-rule:nonzero;fill:rgb(0%,0%,0%);fill-opacity:1;" d="M 6.859375 18.882812 C 6.09375 18.882812 5.476562 18.265625 5.476562 17.5 C 5.476562 16.734375 6.09375 16.117188 6.859375 16.117188 L 28.140625 16.117188 C 28.90625 16.117188 29.523438 16.734375 29.523438 17.5 C 29.523438 18.265625 28.90625 18.882812 28.140625 18.882812 Z M 6.859375 18.882812 "/>
<path style=" stroke:none;fill-rule:nonzero;fill:rgb(100%,0%,0%);fill-opacity:1;" d="M 17.5 0.5 C 8.109375 0.5 0.5 8.109375 0.5 17.5 C 0.5 26.890625 8.109375 34.5 17.5 34.5 C 26.886719 34.5 34.5 26.890625 34.5 17.5 C 34.5 8.109375 26.886719 0.5 17.5 0.5 Z M 17.5 3.445312 C 25.261719 3.445312 31.554688 9.738281 31.554688 17.5 C 31.554688 25.261719 25.261719 31.554688 17.5 31.554688 C 9.738281 31.554688 3.445312 25.261719 3.445312 17.5 C 3.445312 9.738281 9.738281 3.445312 17.5 3.445312 Z M 17.5 3.445312 "/>
<path style=" stroke:none;fill-rule:nonzero;fill:rgb(0%,0%,0%);fill-opacity:1;" d="M 13 10.726562 C 13 10.242188 13.132812 9.824219 13.394531 9.480469 C 13.65625 9.136719 13.972656 8.964844 14.339844 8.964844 C 14.613281 8.964844 14.859375 9.066406 15.085938 9.261719 C 15.304688 9.453125 15.464844 9.707031 15.570312 10.023438 L 15.023438 10.253906 C 14.96875 10.035156 14.878906 9.855469 14.757812 9.722656 C 14.632812 9.589844 14.496094 9.523438 14.34375 9.523438 C 14.140625 9.523438 13.964844 9.640625 13.820312 9.875 C 13.675781 10.109375 13.601562 10.394531 13.601562 10.730469 C 13.601562 11.066406 13.675781 11.351562 13.820312 11.585938 C 13.964844 11.824219 14.140625 11.941406 14.34375 11.941406 C 14.492188 11.941406 14.625 11.878906 14.746094 11.75 C 14.867188 11.621094 14.957031 11.453125 15.019531 11.242188 L 15.5625 11.449219 C 15.457031 11.761719 15.296875 12.011719 15.078125 12.199219 C 14.855469 12.394531 14.609375 12.492188 14.339844 12.492188 C 13.972656 12.492188 13.65625 12.320312 13.394531 11.972656 C 13.132812 11.628906 13 11.214844 13 10.726562 Z M 13 10.726562 "/>
<path style=" stroke:none;fill-rule:nonzero;fill:rgb(0%,0%,0%);fill-opacity:1;" d="M 17 9.03125 L 16.382812 9.03125 L 16.382812 12.417969 L 18.496094 12.417969 L 18.496094 11.902344 L 17 11.902344 Z M 17 9.03125 "/>
<path style=" stroke:none;fill-rule:nonzero;fill:rgb(0%,0%,0%);fill-opacity:1;" d="M 19.914062 10.726562 C 19.914062 11.0625 19.984375 11.347656 20.128906 11.585938 C 20.273438 11.820312 20.449219 11.9375 20.660156 11.9375 C 20.863281 11.9375 21.039062 11.820312 21.183594 11.585938 C 21.332031 11.347656 21.40625 11.0625 21.40625 10.726562 C 21.40625 10.394531 21.332031 10.109375 21.183594 9.871094 C 21.039062 9.632812 20.863281 9.511719 20.660156 9.511719 C 20.449219 9.511719 20.273438 9.632812 20.128906 9.871094 C 19.984375 10.109375 19.914062 10.394531 19.914062 10.726562 Z M 19.308594 10.726562 C 19.308594 10.234375 19.441406 9.820312 19.703125 9.472656 C 19.964844 9.128906 20.28125 8.957031 20.652344 8.957031 C 21.023438 8.957031 21.34375 9.128906 21.605469 9.472656 C 21.867188 9.820312 22 10.234375 22 10.726562 C 22 11.210938 21.867188 11.628906 21.605469 11.972656 C 21.34375 12.320312 21.023438 12.492188 20.652344 12.492188 C 20.28125 12.492188 19.964844 12.320312 19.703125 11.972656 C 19.441406 11.628906 19.308594 11.210938 19.308594 10.726562 Z M 19.308594 10.726562 "/>
<path style=" stroke:none;fill-rule:nonzero;fill:rgb(0%,0%,0%);fill-opacity:1;" d="M 7.285156 22.582031 L 9.40625 22.582031 L 9.40625 23 L 8.574219 23 L 8.574219 25.402344 L 8.121094 25.402344 L 8.121094 23 L 7.285156 23 Z M 7.285156 22.582031 "/>
<path style=" stroke:none;fill-rule:nonzero;fill:rgb(0%,0%,0%);fill-opacity:1;" d="M 11.03125 23.230469 L 10.675781 24.417969 L 11.398438 24.417969 Z M 10.746094 22.582031 L 11.3125 22.582031 L 12.21875 25.402344 L 11.683594 25.402344 L 11.507812 24.84375 L 10.558594 24.84375 L 10.386719 25.402344 L 9.8125 25.402344 Z M 10.746094 22.582031 "/>
<path style=" stroke:none;fill-rule:nonzero;fill:rgb(0%,0%,0%);fill-opacity:1;" d="M 13.121094 25.402344 L 12.628906 25.402344 L 12.914062 22.582031 L 13.394531 22.582031 L 14.054688 23.851562 L 14.675781 22.582031 L 15.171875 22.582031 L 15.457031 25.402344 L 14.960938 25.402344 L 14.769531 23.292969 L 14.054688 24.839844 L 13.316406 23.289062 Z M 13.121094 25.402344 "/>
<path style=" stroke:none;fill-rule:nonzero;fill:rgb(0%,0%,0%);fill-opacity:1;" d="M 16.367188 23.992188 C 16.367188 24.273438 16.425781 24.511719 16.546875 24.707031 C 16.667969 24.902344 16.816406 25.003906 16.988281 25.003906 C 17.160156 25.003906 17.304688 24.902344 17.429688 24.707031 C 17.550781 24.511719 17.609375 24.273438 17.609375 23.992188 C 17.609375 23.714844 17.550781 23.476562 17.429688 23.277344 C 17.304688 23.082031 17.160156 22.980469 16.988281 22.980469 C 16.816406 22.980469 16.667969 23.082031 16.546875 23.277344 C 16.425781 23.476562 16.367188 23.714844 16.367188 23.992188 Z M 15.863281 23.992188 C 15.863281 23.582031 15.972656 23.234375 16.191406 22.949219 C 16.410156 22.660156 16.675781 22.515625 16.984375 22.515625 C 17.292969 22.515625 17.558594 22.660156 17.777344 22.949219 C 17.996094 23.234375 18.105469 23.582031 18.105469 23.992188 C 18.105469 24.398438 17.996094 24.742188 17.777344 25.03125 C 17.558594 25.320312 17.292969 25.460938 16.984375 25.460938 C 16.675781 25.460938 16.410156 25.320312 16.191406 25.03125 C 15.972656 24.742188 15.863281 24.398438 15.863281 23.992188 Z M 15.863281 23.992188 "/>
<path style=" stroke:none;fill-rule:nonzero;fill:rgb(0%,0%,0%);fill-opacity:1;" d="M 19.117188 25.410156 L 18.507812 25.390625 C 18.550781 25.367188 18.679688 25.179688 18.898438 24.820312 C 19.167969 24.378906 19.308594 24.148438 19.324219 24.128906 C 19.4375 23.964844 19.582031 23.871094 19.761719 23.839844 C 19.683594 23.828125 19.601562 23.761719 19.511719 23.644531 L 19.117188 23.140625 C 19.070312 23.078125 19.015625 23.035156 18.960938 23.019531 C 18.933594 23.011719 18.867188 23 18.761719 22.992188 L 18.90625 22.511719 C 19.117188 22.523438 19.304688 22.625 19.472656 22.8125 C 19.597656 22.984375 19.722656 23.15625 19.847656 23.328125 C 19.988281 23.515625 20.132812 23.613281 20.28125 23.621094 L 20.28125 22.582031 L 20.761719 22.582031 L 20.761719 23.621094 C 20.914062 23.613281 21.0625 23.519531 21.203125 23.332031 C 21.328125 23.160156 21.453125 22.988281 21.574219 22.8125 C 21.742188 22.625 21.933594 22.523438 22.144531 22.511719 L 22.285156 22.992188 C 22.179688 23 22.113281 23.011719 22.089844 23.019531 C 22.035156 23.035156 21.980469 23.078125 21.933594 23.140625 L 21.542969 23.644531 C 21.492188 23.703125 21.457031 23.746094 21.429688 23.769531 C 21.386719 23.808594 21.339844 23.832031 21.285156 23.839844 C 21.464844 23.871094 21.613281 23.964844 21.726562 24.128906 C 21.738281 24.148438 21.878906 24.378906 22.152344 24.820312 C 22.367188 25.179688 22.5 25.367188 22.542969 25.390625 L 21.933594 25.410156 C 21.886719 25.363281 21.789062 25.203125 21.636719 24.925781 C 21.449219 24.585938 21.351562 24.40625 21.339844 24.386719 C 21.265625 24.265625 21.1875 24.183594 21.105469 24.140625 C 21.03125 24.105469 20.917969 24.082031 20.761719 24.078125 L 20.769531 25.402344 L 20.28125 25.402344 L 20.28125 24.078125 C 20.128906 24.082031 20.015625 24.105469 19.941406 24.140625 C 19.859375 24.183594 19.78125 24.265625 19.707031 24.386719 C 19.546875 24.691406 19.351562 25.03125 19.117188 25.410156 Z M 19.117188 25.410156 "/>
<path style=" stroke:none;fill-rule:nonzero;fill:rgb(0%,0%,0%);fill-opacity:1;" d="M 24.515625 22.582031 L 24.984375 22.582031 L 24.984375 25.40625 L 24.515625 25.40625 L 24.515625 24.109375 L 23.414062 24.109375 L 23.414062 25.40625 L 22.949219 25.40625 L 22.949219 22.582031 L 23.414062 22.582031 L 23.414062 23.695312 L 24.515625 23.695312 Z M 24.515625 22.582031 "/>
<path style=" stroke:none;fill-rule:nonzero;fill:rgb(0%,0%,0%);fill-opacity:1;" d="M 26.628906 23.007812 C 26.496094 23.007812 26.390625 23.050781 26.316406 23.132812 C 26.25 23.207031 26.214844 23.308594 26.214844 23.433594 C 26.214844 23.5625 26.265625 23.664062 26.359375 23.742188 C 26.457031 23.816406 26.585938 23.855469 26.75 23.855469 L 27.214844 23.855469 L 27.214844 23.007812 Z M 27.714844 22.582031 L 27.714844 25.402344 L 27.214844 25.402344 L 27.214844 24.257812 L 26.816406 24.257812 C 26.675781 24.257812 26.558594 24.339844 26.464844 24.503906 C 26.3125 24.804688 26.160156 25.101562 26.011719 25.402344 L 25.382812 25.402344 C 25.46875 25.324219 25.542969 25.226562 25.605469 25.113281 L 26.027344 24.355469 C 26.105469 24.214844 26.199219 24.132812 26.300781 24.105469 C 26.199219 24.085938 26.085938 24.011719 25.96875 23.875 C 25.835938 23.726562 25.769531 23.570312 25.769531 23.414062 C 25.769531 23.171875 25.847656 22.972656 26.007812 22.816406 C 26.171875 22.660156 26.375 22.582031 26.628906 22.582031 Z M 27.714844 22.582031 "/>
</g>
</svg>
