<?xml version="1.0" encoding="UTF-8"?>
<svg xmlns="http://www.w3.org/2000/svg" xmlns:xlink="http://www.w3.org/1999/xlink" width="35px" height="35px" viewBox="0 0 35 35" version="1.1">
<g id="surface1">
<path style=" stroke:none;fill-rule:nonzero;fill:rgb(100%,100%,100%);fill-opacity:1;" d="M 35 17.5 C 35 27.164062 27.164062 35 17.5 35 C 7.835938 35 0 27.164062 0 17.5 C 0 7.835938 7.835938 0 17.5 0 C 27.164062 0 35 7.835938 35 17.5 Z M 35 17.5 "/>
<path style="fill:none;stroke-width:2;stroke-linecap:butt;stroke-linejoin:miter;stroke:rgb(0%,0%,0%);stroke-opacity:1;stroke-miterlimit:4;" d="M 698.984375 350 C 698.984375 542.734375 542.734375 698.984375 350 698.984375 C 157.265625 698.984375 1.015625 542.734375 1.015625 350 C 1.015625 157.265625 157.265625 1.015625 350 1.015625 C 542.734375 1.015625 698.984375 157.265625 698.984375 350 Z M 698.984375 350 " transform="matrix(0.05,0,0,0.05,0,0)"/>
<path style=" stroke:none;fill-rule:nonzero;fill:rgb(100%,0%,0%);fill-opacity:1;" d="M 17.5 34.5 C 26.890625 34.5 34.5 26.890625 34.5 17.5 C 34.5 8.109375 26.890625 0.5 17.5 0.5 C 8.109375 0.5 0.5 8.109375 0.5 17.5 C 0.5 26.890625 8.109375 34.5 17.5 34.5 Z M 17.5 31.613281 C 9.707031 31.613281 3.386719 25.292969 3.386719 17.5 C 3.386719 9.707031 9.707031 3.386719 17.5 3.386719 C 25.292969 3.386719 31.613281 9.707031 31.613281 17.5 C 31.613281 25.292969 25.292969 31.613281 17.5 31.613281 Z M 17.5 31.613281 "/>
</g>
</svg>
