<?xml version="1.0" encoding="UTF-8"?>
<svg xmlns="http://www.w3.org/2000/svg" xmlns:xlink="http://www.w3.org/1999/xlink" width="35px" height="35px" viewBox="0 0 35 35" version="1.1">
<g id="surface1">
<path style=" stroke:none;fill-rule:nonzero;fill:rgb(100%,80%,0%);fill-opacity:1;" d="M 35 17.5 C 35 27.164062 27.164062 35 17.5 35 C 7.835938 35 0 27.164062 0 17.5 C 0 7.835938 7.835938 0 17.5 0 C 27.164062 0 35 7.835938 35 17.5 Z M 35 17.5 "/>
<path style=" stroke:none;fill-rule:nonzero;fill:rgb(0%,0%,0%);fill-opacity:1;" d="M 7.691406 13.496094 C 7.449219 13.496094 7.191406 13.683594 7.113281 13.910156 L 6.820312 14.757812 L 6.214844 16.515625 C 6.214844 16.519531 6.214844 16.519531 6.214844 16.523438 L 6.070312 16.929688 C 5.726562 16.929688 5.449219 17.210938 5.449219 17.554688 L 5.449219 20.050781 C 5.449219 20.398438 5.726562 20.675781 6.070312 20.675781 L 15.4375 20.675781 C 15.78125 20.675781 16.058594 20.398438 16.058594 20.050781 L 16.058594 17.554688 C 16.058594 17.210938 15.78125 16.929688 15.4375 16.929688 L 15.292969 16.523438 C 15.292969 16.519531 15.292969 16.519531 15.292969 16.515625 L 14.6875 14.757812 L 14.394531 13.910156 C 14.316406 13.683594 14.058594 13.496094 13.816406 13.496094 Z M 7.882812 14.121094 L 13.625 14.121094 C 13.746094 14.121094 13.875 14.214844 13.914062 14.328125 L 14.8125 16.929688 L 6.695312 16.929688 L 7.59375 14.328125 C 7.632812 14.214844 7.761719 14.121094 7.882812 14.121094 Z M 7.882812 14.121094 "/>
<path style=" stroke:none;fill-rule:nonzero;fill:rgb(0%,0%,0%);fill-opacity:1;" d="M 6.070312 20.988281 L 6.070312 22.238281 C 6.070312 22.753906 6.492188 23.171875 7.007812 23.171875 C 7.523438 23.171875 7.945312 22.753906 7.945312 22.238281 L 7.945312 20.988281 Z M 6.070312 20.988281 "/>
<path style=" stroke:none;fill-rule:nonzero;fill:rgb(0%,0%,0%);fill-opacity:1;" d="M 13.5625 20.988281 L 13.5625 22.238281 C 13.5625 22.753906 13.984375 23.171875 14.5 23.171875 C 15.015625 23.171875 15.4375 22.753906 15.4375 22.238281 L 15.4375 20.988281 Z M 13.5625 20.988281 "/>
<path style=" stroke:none;fill-rule:nonzero;fill:rgb(0%,0%,0%);fill-opacity:1;" d="M 21.183594 13.496094 C 20.941406 13.496094 20.683594 13.683594 20.605469 13.910156 L 20.3125 14.757812 L 19.707031 16.515625 C 19.707031 16.519531 19.707031 16.519531 19.707031 16.523438 L 19.5625 16.929688 C 19.21875 16.929688 18.941406 17.210938 18.941406 17.554688 L 18.941406 20.050781 C 18.941406 20.398438 19.21875 20.675781 19.5625 20.675781 L 28.929688 20.675781 C 29.273438 20.675781 29.550781 20.398438 29.550781 20.050781 L 29.550781 17.554688 C 29.550781 17.210938 29.273438 16.929688 28.929688 16.929688 L 28.785156 16.523438 C 28.785156 16.519531 28.785156 16.519531 28.785156 16.515625 L 28.179688 14.757812 L 27.886719 13.910156 C 27.808594 13.683594 27.550781 13.496094 27.308594 13.496094 Z M 21.375 14.121094 L 27.117188 14.121094 C 27.238281 14.121094 27.367188 14.214844 27.40625 14.328125 L 28.304688 16.929688 L 20.1875 16.929688 L 21.085938 14.328125 C 21.125 14.214844 21.253906 14.121094 21.375 14.121094 Z M 21.375 14.121094 "/>
<path style=" stroke:none;fill-rule:nonzero;fill:rgb(0%,0%,0%);fill-opacity:1;" d="M 19.5625 20.988281 L 19.5625 22.238281 C 19.5625 22.753906 19.984375 23.171875 20.5 23.171875 C 21.015625 23.171875 21.4375 22.753906 21.4375 22.238281 L 21.4375 20.988281 Z M 19.5625 20.988281 "/>
<path style=" stroke:none;fill-rule:nonzero;fill:rgb(0%,0%,0%);fill-opacity:1;" d="M 27.054688 20.988281 L 27.054688 22.238281 C 27.054688 22.753906 27.472656 23.171875 27.992188 23.171875 C 28.507812 23.171875 28.929688 22.753906 28.929688 22.238281 L 28.929688 20.988281 Z M 27.054688 20.988281 "/>
<path style="fill:none;stroke-width:0.170718;stroke-linecap:butt;stroke-linejoin:miter;stroke:rgb(0%,0%,0%);stroke-opacity:1;stroke-miterlimit:4;" d="M -65.613942 432.259967 C -65.613942 448.53332 -75.511214 461.724898 -87.720655 461.724898 C -99.930095 461.724898 -109.827367 448.53332 -109.827367 432.259967 C -109.827367 415.986615 -99.930095 402.795036 -87.720655 402.795036 C -75.511214 402.795036 -65.613942 415.986615 -65.613942 432.259967 Z M -65.613942 432.259967 " transform="matrix(0.788964,0,0,0.591938,86.708463,-238.371011)"/>
<path style=" stroke:none;fill-rule:nonzero;fill:rgb(0%,0%,0%);fill-opacity:1;" d="M 17.5 0.582031 C 8.15625 0.582031 0.582031 8.15625 0.582031 17.5 C 0.582031 26.84375 8.15625 34.417969 17.5 34.417969 C 26.84375 34.417969 34.417969 26.84375 34.417969 17.5 C 34.417969 8.15625 26.84375 0.582031 17.5 0.582031 Z M 17.5 1.167969 C 21.023438 1.167969 24.285156 2.28125 26.953125 4.175781 L 4.175781 26.953125 C 2.28125 24.285156 1.167969 21.023438 1.167969 17.5 C 1.167969 8.480469 8.480469 1.167969 17.5 1.167969 Z M 27.363281 4.484375 C 27.558594 4.632812 27.753906 4.785156 27.941406 4.941406 L 4.941406 27.941406 C 4.785156 27.753906 4.632812 27.558594 4.484375 27.363281 Z M 28.328125 5.273438 C 28.511719 5.4375 28.691406 5.601562 28.867188 5.773438 L 5.773438 28.867188 C 5.601562 28.691406 5.4375 28.511719 5.273438 28.328125 Z M 29.226562 6.132812 C 29.398438 6.308594 29.5625 6.488281 29.726562 6.671875 L 6.671875 29.726562 C 6.488281 29.5625 6.308594 29.398438 6.132812 29.226562 Z M 30.058594 7.058594 C 30.214844 7.246094 30.367188 7.441406 30.515625 7.636719 L 7.636719 30.515625 C 7.441406 30.367188 7.246094 30.214844 7.058594 30.058594 Z M 30.824219 8.046875 C 32.71875 10.714844 33.832031 13.976562 33.832031 17.5 C 33.832031 26.519531 26.519531 33.832031 17.5 33.832031 C 13.976562 33.832031 10.714844 32.71875 8.046875 30.824219 Z M 30.824219 8.046875 "/>
</g>
</svg>
