<?xml version="1.0" encoding="UTF-8"?>
<svg xmlns="http://www.w3.org/2000/svg" xmlns:xlink="http://www.w3.org/1999/xlink" width="35px" height="35px" viewBox="0 0 35 35" version="1.1">
<g id="surface1">
<path style=" stroke:none;fill-rule:nonzero;fill:rgb(100%,100%,100%);fill-opacity:1;" d="M 35 17.5 C 35 27.164062 27.164062 35 17.5 35 C 7.835938 35 0 27.164062 0 17.5 C 0 7.835938 7.835938 0 17.5 0 C 27.164062 0 35 7.835938 35 17.5 Z M 35 17.5 "/>
<path style="fill:none;stroke-width:0.170718;stroke-linecap:butt;stroke-linejoin:miter;stroke:rgb(0%,0%,0%);stroke-opacity:1;stroke-miterlimit:4;" d="M -65.613942 432.259967 C -65.613942 448.53332 -75.511214 461.724898 -87.720655 461.724898 C -99.930095 461.724898 -109.827367 448.53332 -109.827367 432.259967 C -109.827367 415.986615 -99.930095 402.795036 -87.720655 402.795036 C -75.511214 402.795036 -65.613942 415.986615 -65.613942 432.259967 Z M -65.613942 432.259967 " transform="matrix(0.788964,0,0,0.591938,86.708463,-238.371011)"/>
<path style=" stroke:none;fill-rule:nonzero;fill:rgb(0%,0%,0%);fill-opacity:1;" d="M 6.8125 9.597656 C 6.066406 10.933594 5.644531 12.472656 5.644531 14.113281 C 5.644531 15.75 6.066406 17.292969 6.8125 18.628906 C 7.257812 16.375 9.246094 14.675781 11.628906 14.675781 L 12.359375 14.675781 L 11.214844 13.53125 C 9.015625 13.347656 7.230469 11.71875 6.8125 9.597656 Z M 6.8125 9.597656 "/>
<path style=" stroke:none;fill-rule:nonzero;fill:rgb(0%,0%,0%);fill-opacity:1;" d="M 15.863281 13.546875 L 16.992188 14.675781 L 19.195312 14.675781 C 20.667969 14.675781 21.921875 15.621094 22.386719 16.933594 L 19.25 16.933594 L 20.378906 18.066406 L 22.582031 18.066406 C 22.582031 18.695312 22.40625 19.285156 22.109375 19.792969 L 22.925781 20.609375 C 23.417969 19.882812 23.710938 19.007812 23.710938 18.066406 L 25.472656 18.066406 C 25.722656 19.039062 26.609375 19.757812 27.660156 19.757812 C 28.910156 19.757812 29.917969 18.746094 29.917969 17.5 C 29.917969 16.253906 28.910156 15.242188 27.660156 15.242188 C 26.609375 15.242188 25.722656 15.960938 25.472656 16.933594 L 23.566406 16.933594 C 23.066406 14.988281 21.296875 13.546875 19.195312 13.546875 Z M 15.863281 13.546875 "/>
<path style=" stroke:none;fill-rule:nonzero;fill:rgb(0%,0%,0%);fill-opacity:1;" d="M 12.417969 16.933594 C 10.859375 16.933594 9.597656 18.199219 9.597656 19.757812 C 9.597656 21.316406 10.859375 22.582031 12.417969 22.582031 L 19.195312 22.582031 C 19.523438 22.582031 19.847656 22.542969 20.160156 22.476562 L 19.136719 21.453125 L 12.417969 21.453125 C 11.484375 21.453125 10.726562 20.695312 10.726562 19.757812 C 10.726562 18.824219 11.484375 18.066406 12.417969 18.066406 L 15.75 18.066406 L 14.621094 16.933594 Z M 12.417969 16.933594 "/>
<path style=" stroke:none;fill-rule:nonzero;fill:rgb(100%,0%,0%);fill-opacity:1;" d="M 17.5 0.582031 C 8.15625 0.582031 0.582031 8.15625 0.582031 17.5 C 0.582031 26.84375 8.15625 34.417969 17.5 34.417969 C 26.84375 34.417969 34.417969 26.84375 34.417969 17.5 C 34.417969 8.15625 26.84375 0.582031 17.5 0.582031 Z M 17.5 3.445312 C 25.261719 3.445312 31.554688 9.738281 31.554688 17.5 C 31.554688 20.976562 30.296875 24.15625 28.207031 26.609375 L 8.390625 6.792969 C 10.84375 4.703125 14.023438 3.445312 17.5 3.445312 Z M 6.792969 8.390625 L 26.609375 28.207031 C 24.15625 30.296875 20.976562 31.554688 17.5 31.554688 C 9.738281 31.554688 3.445312 25.261719 3.445312 17.5 C 3.445312 14.023438 4.703125 10.84375 6.792969 8.390625 Z M 6.792969 8.390625 "/>
</g>
</svg>
