<?xml version="1.0" encoding="UTF-8"?>
<svg xmlns="http://www.w3.org/2000/svg" xmlns:xlink="http://www.w3.org/1999/xlink" width="35px" height="35px" viewBox="0 0 35 35" version="1.1">
<g id="surface1">
<path style=" stroke:none;fill-rule:nonzero;fill:rgb(100%,100%,100%);fill-opacity:1;" d="M 35 17.5 C 35 27.164062 27.164062 35 17.5 35 C 7.835938 35 0 27.164062 0 17.5 C 0 7.835938 7.835938 0 17.5 0 C 27.164062 0 35 7.835938 35 17.5 Z M 35 17.5 "/>
<path style="fill:none;stroke-width:2;stroke-linecap:butt;stroke-linejoin:miter;stroke:rgb(0%,0%,0%);stroke-opacity:1;stroke-miterlimit:4;" d="M 698.984375 350 C 698.984375 542.734375 542.734375 698.984375 350 698.984375 C 157.265625 698.984375 1.015625 542.734375 1.015625 350 C 1.015625 157.265625 157.265625 1.015625 350 1.015625 C 542.734375 1.015625 698.984375 157.265625 698.984375 350 Z M 698.984375 350 " transform="matrix(0.05,0,0,0.05,0,0)"/>
<path style=" stroke:none;fill-rule:nonzero;fill:rgb(100%,0%,0%);fill-opacity:1;" d="M 17.5 34.5 C 26.890625 34.5 34.5 26.890625 34.5 17.5 C 34.5 8.109375 26.890625 0.5 17.5 0.5 C 8.109375 0.5 0.5 8.109375 0.5 17.5 C 0.5 26.890625 8.109375 34.5 17.5 34.5 Z M 26.570312 28.164062 C 24.039062 30.316406 20.824219 31.5 17.5 31.5 C 14.175781 31.5 10.960938 30.316406 8.429688 28.164062 L 17.5 19.089844 Z M 6.835938 26.570312 C 4.683594 24.039062 3.5 20.824219 3.5 17.5 C 3.5 14.175781 4.683594 10.960938 6.835938 8.429688 L 15.910156 17.5 Z M 8.429688 6.835938 C 10.960938 4.683594 14.175781 3.5 17.5 3.5 C 20.824219 3.5 24.039062 4.683594 26.570312 6.835938 L 17.5 15.910156 Z M 28.164062 8.429688 C 30.316406 10.960938 31.5 14.175781 31.5 17.5 C 31.5 20.824219 30.316406 24.039062 28.164062 26.570312 L 19.089844 17.5 Z M 28.164062 8.429688 "/>
<path style=" stroke:none;fill-rule:nonzero;fill:rgb(5.098039%,41.176471%,88.235294%);fill-opacity:1;" d="M 6.875 9.171875 C 5.011719 11.546875 4 14.480469 4 17.5 C 4 20.519531 5.011719 23.449219 6.875 25.828125 L 15.203125 17.5 Z M 6.875 9.171875 "/>
<path style=" stroke:none;fill-rule:nonzero;fill:rgb(5.098039%,41.176471%,88.235294%);fill-opacity:1;" d="M 9.171875 28.125 C 11.546875 29.988281 14.480469 31 17.5 31 C 20.519531 31 23.449219 29.988281 25.828125 28.125 L 17.5 19.796875 Z M 9.171875 28.125 "/>
<path style=" stroke:none;fill-rule:nonzero;fill:rgb(5.098039%,41.176471%,88.235294%);fill-opacity:1;" d="M 28.125 25.828125 C 29.988281 23.453125 31 20.519531 31 17.5 C 31 14.480469 29.988281 11.550781 28.125 9.171875 L 19.796875 17.5 Z M 28.125 25.828125 "/>
<path style=" stroke:none;fill-rule:nonzero;fill:rgb(5.098039%,41.176471%,88.235294%);fill-opacity:1;" d="M 25.828125 6.875 C 23.453125 5.011719 20.519531 4 17.5 4 C 14.480469 4 11.550781 5.011719 9.171875 6.875 L 17.5 15.203125 Z M 25.828125 6.875 "/>
</g>
</svg>
