<?xml version="1.0" encoding="UTF-8"?>
<svg xmlns="http://www.w3.org/2000/svg" xmlns:xlink="http://www.w3.org/1999/xlink" width="35px" height="35px" viewBox="0 0 35 35" version="1.1">
<g id="surface1">
<path style=" stroke:none;fill-rule:nonzero;fill:rgb(100%,100%,100%);fill-opacity:1;" d="M 35 17.5 C 35 27.164062 27.164062 35 17.5 35 C 7.835938 35 0 27.164062 0 17.5 C 0 7.835938 7.835938 0 17.5 0 C 27.164062 0 35 7.835938 35 17.5 Z M 35 17.5 "/>
<path style="fill:none;stroke-width:2;stroke-linecap:butt;stroke-linejoin:miter;stroke:rgb(0%,0%,0%);stroke-opacity:1;stroke-miterlimit:4;" d="M 698.984375 350 C 698.984375 542.734375 542.734375 698.984375 350 698.984375 C 157.265625 698.984375 1.015625 542.734375 1.015625 350 C 1.015625 157.265625 157.265625 1.015625 350 1.015625 C 542.734375 1.015625 698.984375 157.265625 698.984375 350 Z M 698.984375 350 " transform="matrix(0.05,0,0,0.05,0,0)"/>
<path style=" stroke:none;fill-rule:nonzero;fill:rgb(100%,0%,0%);fill-opacity:1;" d="M 17.5 34.5 C 26.890625 34.5 34.5 26.890625 34.5 17.5 C 34.5 8.109375 26.890625 0.5 17.5 0.5 C 8.109375 0.5 0.5 8.109375 0.5 17.5 C 0.5 26.890625 8.109375 34.5 17.5 34.5 Z M 17.5 31.613281 C 9.707031 31.613281 3.386719 25.292969 3.386719 17.5 C 3.386719 9.707031 9.707031 3.386719 17.5 3.386719 C 25.292969 3.386719 31.613281 9.707031 31.613281 17.5 C 31.613281 25.292969 25.292969 31.613281 17.5 31.613281 Z M 17.5 31.613281 "/>
<path style=" stroke:none;fill-rule:nonzero;fill:rgb(0%,0%,0%);fill-opacity:1;" d="M 25.96875 21.453125 C 26.589844 21.453125 27.097656 20.945312 27.097656 20.324219 L 27.097656 15.804688 C 27.097656 15.183594 26.589844 14.675781 25.96875 14.675781 L 24.09375 9.144531 C 23.953125 8.742188 23.574219 8.46875 23.144531 8.46875 L 11.855469 8.46875 C 11.425781 8.46875 11.046875 8.742188 10.90625 9.144531 L 9.03125 14.675781 C 8.410156 14.675781 7.902344 15.183594 7.902344 15.804688 L 7.902344 20.324219 C 7.902344 20.945312 8.410156 21.453125 9.03125 21.453125 Z M 10.160156 14.675781 L 11.769531 9.9375 C 11.839844 9.734375 12.027344 9.597656 12.242188 9.597656 L 22.757812 9.597656 C 22.972656 9.597656 23.160156 9.734375 23.230469 9.9375 L 24.839844 14.675781 Z M 10.726562 19.195312 C 9.789062 19.195312 9.03125 18.433594 9.03125 17.5 C 9.03125 16.566406 9.789062 15.804688 10.726562 15.804688 C 11.660156 15.804688 12.417969 16.566406 12.417969 17.5 C 12.417969 18.433594 11.660156 19.195312 10.726562 19.195312 Z M 24.273438 19.195312 C 23.339844 19.195312 22.582031 18.433594 22.582031 17.5 C 22.582031 16.566406 23.339844 15.804688 24.273438 15.804688 C 25.210938 15.804688 25.96875 16.566406 25.96875 17.5 C 25.96875 18.433594 25.210938 19.195312 24.273438 19.195312 Z M 24.273438 19.195312 "/>
<path style=" stroke:none;fill-rule:nonzero;fill:rgb(0%,0%,0%);fill-opacity:1;" d="M 9.03125 22.015625 L 9.03125 24.273438 C 9.03125 25.210938 9.789062 25.96875 10.726562 25.96875 C 11.660156 25.96875 12.417969 25.210938 12.417969 24.273438 L 12.417969 22.015625 Z M 9.03125 22.015625 "/>
<path style=" stroke:none;fill-rule:nonzero;fill:rgb(0%,0%,0%);fill-opacity:1;" d="M 22.582031 22.015625 L 22.582031 24.273438 C 22.582031 25.210938 23.339844 25.96875 24.273438 25.96875 C 25.210938 25.96875 25.96875 25.210938 25.96875 24.273438 L 25.96875 22.015625 Z M 22.582031 22.015625 "/>
</g>
</svg>
