<?xml version="1.0" encoding="UTF-8"?>
<svg xmlns="http://www.w3.org/2000/svg" xmlns:xlink="http://www.w3.org/1999/xlink" width="35px" height="35px" viewBox="0 0 35 35" version="1.1">
<g id="surface1">
<path style=" stroke:none;fill-rule:nonzero;fill:rgb(100%,100%,100%);fill-opacity:1;" d="M 35 17.5 C 35 27.164062 27.164062 35 17.5 35 C 7.835938 35 0 27.164062 0 17.5 C 0 7.835938 7.835938 0 17.5 0 C 27.164062 0 35 7.835938 35 17.5 Z M 35 17.5 "/>
<path style="fill:none;stroke-width:0.170718;stroke-linecap:butt;stroke-linejoin:miter;stroke:rgb(0%,0%,0%);stroke-opacity:1;stroke-miterlimit:4;" d="M -65.613942 432.259967 C -65.613942 448.53332 -75.511214 461.724898 -87.720655 461.724898 C -99.930095 461.724898 -109.827367 448.53332 -109.827367 432.259967 C -109.827367 415.986615 -99.930095 402.795036 -87.720655 402.795036 C -75.511214 402.795036 -65.613942 415.986615 -65.613942 432.259967 Z M -65.613942 432.259967 " transform="matrix(0.788964,0,0,0.591938,86.708463,-238.371011)"/>
<path style=" stroke:none;fill-rule:nonzero;fill:rgb(100%,0%,0%);fill-opacity:1;" d="M 17.5 0.582031 C 8.15625 0.582031 0.582031 8.15625 0.582031 17.5 C 0.582031 26.84375 8.15625 34.417969 17.5 34.417969 C 26.84375 34.417969 34.417969 26.84375 34.417969 17.5 C 34.417969 8.15625 26.84375 0.582031 17.5 0.582031 Z M 17.5 3.445312 C 25.261719 3.445312 31.554688 9.738281 31.554688 17.5 C 31.554688 25.261719 25.261719 31.554688 17.5 31.554688 C 9.738281 31.554688 3.445312 25.261719 3.445312 17.5 C 3.445312 9.738281 9.738281 3.445312 17.5 3.445312 Z M 17.5 3.445312 "/>
<path style=" stroke:none;fill-rule:nonzero;fill:rgb(0%,0%,0%);fill-opacity:1;" d="M 11.289062 24.273438 L 11.289062 27.660156 L 12.925781 27.660156 L 12.925781 26.25 L 16.40625 26.25 C 16.535156 26.738281 16.972656 27.097656 17.5 27.097656 C 18.027344 27.097656 18.464844 26.738281 18.59375 26.25 L 22.074219 26.25 L 22.074219 27.660156 L 23.710938 27.660156 L 23.710938 24.273438 L 22.074219 24.273438 L 22.074219 25.683594 L 18.59375 25.683594 C 18.464844 25.199219 18.027344 24.839844 17.5 24.839844 C 16.972656 24.839844 16.535156 25.199219 16.40625 25.683594 L 12.925781 25.683594 L 12.925781 24.273438 Z M 11.289062 24.273438 "/>
<path style=" stroke:none;fill-rule:nonzero;fill:rgb(0%,0%,0%);fill-opacity:1;" d="M 11.347656 23.144531 L 23.765625 23.144531 L 23.765625 23.710938 L 11.347656 23.710938 Z M 11.347656 23.144531 "/>
<path style=" stroke:none;fill-rule:nonzero;fill:rgb(100%,50.196078%,0%);fill-opacity:1;" d="M 12.304688 8.015625 C 11.742188 8.015625 11.289062 8.46875 11.289062 9.03125 L 11.289062 22.582031 L 23.710938 22.582031 L 23.710938 9.03125 C 23.710938 8.46875 23.257812 8.015625 22.695312 8.015625 Z M 12.304688 8.015625 "/>
</g>
</svg>
