<?xml version="1.0" encoding="UTF-8"?>
<svg xmlns="http://www.w3.org/2000/svg" xmlns:xlink="http://www.w3.org/1999/xlink" width="35px" height="35px" viewBox="0 0 35 35" version="1.1">
<g id="surface1">
<path style=" stroke:none;fill-rule:nonzero;fill:rgb(100%,100%,100%);fill-opacity:1;" d="M 35 17.5 C 35 27.164062 27.164062 35 17.5 35 C 7.835938 35 0 27.164062 0 17.5 C 0 7.835938 7.835938 0 17.5 0 C 27.164062 0 35 7.835938 35 17.5 Z M 35 17.5 "/>
<path style="fill:none;stroke-width:0.170718;stroke-linecap:butt;stroke-linejoin:miter;stroke:rgb(0%,0%,0%);stroke-opacity:1;stroke-miterlimit:4;" d="M -65.613942 432.259967 C -65.613942 448.53332 -75.511214 461.724898 -87.720655 461.724898 C -99.930095 461.724898 -109.827367 448.53332 -109.827367 432.259967 C -109.827367 415.986615 -99.930095 402.795036 -87.720655 402.795036 C -75.511214 402.795036 -65.613942 415.986615 -65.613942 432.259967 Z M -65.613942 432.259967 " transform="matrix(0.788964,0,0,0.591938,86.708463,-238.371011)"/>
<path style=" stroke:none;fill-rule:nonzero;fill:rgb(100%,0%,0%);fill-opacity:1;" d="M 17.5 0.582031 C 8.15625 0.582031 0.582031 8.15625 0.582031 17.5 C 0.582031 26.84375 8.15625 34.417969 17.5 34.417969 C 26.84375 34.417969 34.417969 26.84375 34.417969 17.5 C 34.417969 8.15625 26.84375 0.582031 17.5 0.582031 Z M 17.5 3.445312 C 25.261719 3.445312 31.554688 9.738281 31.554688 17.5 C 31.554688 25.261719 25.261719 31.554688 17.5 31.554688 C 9.738281 31.554688 3.445312 25.261719 3.445312 17.5 C 3.445312 9.738281 9.738281 3.445312 17.5 3.445312 Z M 17.5 3.445312 "/>
<path style=" stroke:none;fill-rule:nonzero;fill:rgb(0%,0%,0%);fill-opacity:1;" d="M 9.058594 19.757812 C 7.5 19.757812 6.238281 21.023438 6.238281 22.582031 C 6.238281 24.140625 7.5 25.402344 9.058594 25.402344 C 10.621094 25.402344 11.882812 24.140625 11.882812 22.582031 C 11.882812 21.023438 10.621094 19.757812 9.058594 19.757812 Z M 9.058594 21.226562 C 9.808594 21.226562 10.414062 21.832031 10.414062 22.582031 C 10.414062 23.328125 9.808594 23.933594 9.058594 23.933594 C 8.3125 23.933594 7.707031 23.328125 7.707031 22.582031 C 7.707031 21.832031 8.3125 21.226562 9.058594 21.226562 Z M 9.058594 21.226562 "/>
<path style=" stroke:none;fill-rule:nonzero;fill:rgb(0%,0%,0%);fill-opacity:1;" d="M 24.273438 17.5 C 22.089844 17.5 20.324219 19.269531 20.324219 21.453125 C 20.324219 23.632812 22.089844 25.402344 24.273438 25.402344 C 26.457031 25.402344 28.226562 23.632812 28.226562 21.453125 C 28.226562 19.269531 26.457031 17.5 24.273438 17.5 Z M 24.273438 19.195312 C 25.519531 19.195312 26.53125 20.203125 26.53125 21.453125 C 26.53125 22.699219 25.519531 23.710938 24.273438 23.710938 C 23.027344 23.710938 22.015625 22.699219 22.015625 21.453125 C 22.015625 20.203125 23.027344 19.195312 24.273438 19.195312 Z M 24.273438 19.195312 "/>
<path style=" stroke:none;fill-rule:nonzero;fill:rgb(0%,0%,0%);fill-opacity:1;" d="M 19.957031 9.03125 C 19.496094 9.03125 19.082031 9.3125 18.910156 9.742188 L 16.933594 14.675781 L 14.113281 14.675781 L 14.113281 10.160156 L 12.984375 10.160156 L 12.984375 14.675781 L 9.03125 14.675781 C 8.40625 14.675781 7.902344 15.179688 7.902344 15.804688 L 7.902344 19.398438 C 8.265625 19.265625 8.652344 19.195312 9.058594 19.195312 C 10.535156 19.195312 11.789062 20.136719 12.253906 21.453125 L 19.757812 21.453125 C 19.757812 18.957031 21.78125 16.933594 24.273438 16.933594 C 24.820312 16.933594 25.34375 17.035156 25.832031 17.210938 L 26.53125 15.804688 L 25.96875 14.675781 L 25.96875 10.160156 C 25.96875 9.539062 25.460938 9.03125 24.839844 9.03125 Z M 20.339844 10.160156 L 23.710938 10.160156 C 24.019531 10.160156 24.273438 10.414062 24.273438 10.726562 L 24.273438 14.113281 C 24.273438 14.425781 24.019531 14.675781 23.710938 14.675781 L 18.984375 14.675781 C 18.671875 14.675781 18.421875 14.425781 18.421875 14.113281 C 18.421875 14.042969 18.433594 13.96875 18.460938 13.902344 L 19.816406 10.515625 C 19.902344 10.300781 20.109375 10.160156 20.339844 10.160156 Z M 20.339844 10.160156 "/>
</g>
</svg>
