<?xml version="1.0" encoding="UTF-8"?>
<svg xmlns="http://www.w3.org/2000/svg" xmlns:xlink="http://www.w3.org/1999/xlink" width="35px" height="35px" viewBox="0 0 35 35" version="1.1">
<g id="surface1">
<path style=" stroke:none;fill-rule:nonzero;fill:rgb(100%,100%,100%);fill-opacity:1;" d="M 35 17.5 C 35 27.164062 27.164062 35 17.5 35 C 7.835938 35 0 27.164062 0 17.5 C 0 7.835938 7.835938 0 17.5 0 C 27.164062 0 35 7.835938 35 17.5 Z M 35 17.5 "/>
<path style="fill:none;stroke-width:0.170718;stroke-linecap:butt;stroke-linejoin:miter;stroke:rgb(0%,0%,0%);stroke-opacity:1;stroke-miterlimit:4;" d="M -65.613942 432.259967 C -65.613942 448.53332 -75.511214 461.724898 -87.720655 461.724898 C -99.930095 461.724898 -109.827367 448.53332 -109.827367 432.259967 C -109.827367 415.986615 -99.930095 402.795036 -87.720655 402.795036 C -75.511214 402.795036 -65.613942 415.986615 -65.613942 432.259967 Z M -65.613942 432.259967 " transform="matrix(0.788964,0,0,0.591938,86.708463,-238.371011)"/>
<path style=" stroke:none;fill-rule:nonzero;fill:rgb(100%,0%,0%);fill-opacity:1;" d="M 17.5 0.582031 C 8.15625 0.582031 0.582031 8.15625 0.582031 17.5 C 0.582031 26.84375 8.15625 34.417969 17.5 34.417969 C 26.84375 34.417969 34.417969 26.84375 34.417969 17.5 C 34.417969 8.15625 26.84375 0.582031 17.5 0.582031 Z M 17.5 3.445312 C 25.261719 3.445312 31.554688 9.738281 31.554688 17.5 C 31.554688 25.261719 25.261719 31.554688 17.5 31.554688 C 9.738281 31.554688 3.445312 25.261719 3.445312 17.5 C 3.445312 9.738281 9.738281 3.445312 17.5 3.445312 Z M 17.5 3.445312 "/>
<path style=" stroke:none;fill-rule:nonzero;fill:rgb(0%,0%,0%);fill-opacity:1;" d="M 15.804688 14.675781 L 29.355469 14.675781 L 29.355469 18.066406 L 15.804688 18.066406 Z M 15.804688 14.675781 "/>
<path style=" stroke:none;fill-rule:nonzero;fill:rgb(0%,0%,0%);fill-opacity:1;" d="M 18.066406 18.75 C 16.941406 18.75 16.027344 19.664062 16.027344 20.789062 C 16.027344 21.914062 16.941406 22.824219 18.066406 22.824219 C 19.191406 22.824219 20.101562 21.914062 20.101562 20.789062 C 20.101562 19.664062 19.191406 18.75 18.066406 18.75 Z M 18.066406 19.710938 C 18.660156 19.710938 19.144531 20.191406 19.144531 20.789062 C 19.144531 21.382812 18.660156 21.867188 18.066406 21.867188 C 17.46875 21.867188 16.984375 21.382812 16.984375 20.789062 C 16.984375 20.191406 17.46875 19.710938 18.066406 19.710938 Z M 18.066406 19.710938 "/>
<path style=" stroke:none;fill-rule:nonzero;fill:rgb(0%,0%,0%);fill-opacity:1;" d="M 27.660156 18.75 C 26.535156 18.75 25.625 19.664062 25.625 20.789062 C 25.625 21.914062 26.535156 22.824219 27.660156 22.824219 C 28.785156 22.824219 29.699219 21.914062 29.699219 20.789062 C 29.699219 19.664062 28.785156 18.75 27.660156 18.75 Z M 27.660156 19.710938 C 28.257812 19.710938 28.738281 20.191406 28.738281 20.789062 C 28.738281 21.382812 28.257812 21.867188 27.660156 21.867188 C 27.066406 21.867188 26.582031 21.382812 26.582031 20.789062 C 26.582031 20.191406 27.066406 19.710938 27.660156 19.710938 Z M 27.660156 19.710938 "/>
<path style=" stroke:none;fill-rule:nonzero;fill:rgb(0%,0%,0%);fill-opacity:1;" d="M 4.046875 18.511719 C 4.101562 19.25 4.214844 19.96875 4.382812 20.667969 L 5.113281 20.667969 C 5.160156 19.714844 5.734375 18.898438 6.554688 18.511719 Z M 4.046875 18.511719 "/>
<path style=" stroke:none;fill-rule:nonzero;fill:rgb(0%,0%,0%);fill-opacity:1;" d="M 6.023438 10.40625 C 4.746094 12.464844 4.007812 14.898438 4.007812 17.5 C 4.007812 17.6875 4.011719 17.878906 4.019531 18.066406 L 12.417969 18.066406 L 12.417969 11.601562 C 12.417969 10.9375 11.886719 10.40625 11.222656 10.40625 Z M 6.023438 10.40625 "/>
<path style=" stroke:none;fill-rule:nonzero;fill:rgb(0%,0%,0%);fill-opacity:1;" d="M 7.625 18.75 C 6.5 18.75 5.589844 19.664062 5.589844 20.789062 C 5.589844 21.914062 6.5 22.824219 7.625 22.824219 C 8.75 22.824219 9.664062 21.914062 9.664062 20.789062 C 9.664062 19.664062 8.75 18.75 7.625 18.75 Z M 7.625 19.710938 C 8.222656 19.710938 8.703125 20.191406 8.703125 20.789062 C 8.703125 21.382812 8.222656 21.867188 7.625 21.867188 C 7.03125 21.867188 6.546875 21.382812 6.546875 20.789062 C 6.546875 20.191406 7.03125 19.710938 7.625 19.710938 Z M 7.625 19.710938 "/>
<path style=" stroke:none;fill-rule:nonzero;fill:rgb(0%,0%,0%);fill-opacity:1;" d="M 8.695312 18.511719 C 9.515625 18.898438 10.09375 19.714844 10.136719 20.667969 L 12.984375 20.667969 L 12.984375 19.640625 L 15.824219 19.640625 C 16.078125 19.148438 16.492188 18.746094 16.992188 18.511719 Z M 19.136719 18.511719 C 19.636719 18.746094 20.050781 19.148438 20.304688 19.640625 L 25.421875 19.640625 C 25.675781 19.148438 26.085938 18.746094 26.589844 18.511719 Z M 19.136719 18.511719 "/>
</g>
</svg>
