<?xml version="1.0" encoding="UTF-8"?>
<svg xmlns="http://www.w3.org/2000/svg" xmlns:xlink="http://www.w3.org/1999/xlink" width="35px" height="35px" viewBox="0 0 35 35" version="1.1">
<g id="surface1">
<path style=" stroke:none;fill-rule:nonzero;fill:rgb(100%,100%,100%);fill-opacity:1;" d="M 35 17.5 C 35 27.164062 27.164062 35 17.5 35 C 7.835938 35 0 27.164062 0 17.5 C 0 7.835938 7.835938 0 17.5 0 C 27.164062 0 35 7.835938 35 17.5 Z M 35 17.5 "/>
<path style="fill:none;stroke-width:0.170718;stroke-linecap:butt;stroke-linejoin:miter;stroke:rgb(0%,0%,0%);stroke-opacity:1;stroke-miterlimit:4;" d="M -65.613942 432.259967 C -65.613942 448.53332 -75.511214 461.724898 -87.720655 461.724898 C -99.930095 461.724898 -109.827367 448.53332 -109.827367 432.259967 C -109.827367 415.986615 -99.930095 402.795036 -87.720655 402.795036 C -75.511214 402.795036 -65.613942 415.986615 -65.613942 432.259967 Z M -65.613942 432.259967 " transform="matrix(0.788964,0,0,0.591938,86.708463,-238.371011)"/>
<path style=" stroke:none;fill-rule:nonzero;fill:rgb(100%,0%,0%);fill-opacity:1;" d="M 17.5 0.582031 C 8.15625 0.582031 0.582031 8.15625 0.582031 17.5 C 0.582031 26.84375 8.15625 34.417969 17.5 34.417969 C 26.84375 34.417969 34.417969 26.84375 34.417969 17.5 C 34.417969 8.15625 26.84375 0.582031 17.5 0.582031 Z M 17.5 3.445312 C 25.261719 3.445312 31.554688 9.738281 31.554688 17.5 C 31.554688 25.261719 25.261719 31.554688 17.5 31.554688 C 9.738281 31.554688 3.445312 25.261719 3.445312 17.5 C 3.445312 9.738281 9.738281 3.445312 17.5 3.445312 Z M 17.5 3.445312 "/>
<path style=" stroke:none;fill-rule:nonzero;fill:rgb(0%,0%,0%);fill-opacity:1;" d="M 27.578125 19.082031 C 26.453125 19.082031 25.542969 19.992188 25.542969 21.113281 C 25.542969 22.234375 26.453125 23.144531 27.578125 23.144531 C 28.699219 23.144531 29.609375 22.234375 29.609375 21.113281 C 29.609375 19.992188 28.699219 19.082031 27.578125 19.082031 Z M 27.578125 20.097656 C 28.136719 20.097656 28.59375 20.550781 28.59375 21.113281 C 28.59375 21.675781 28.136719 22.128906 27.578125 22.128906 C 27.015625 22.128906 26.558594 21.675781 26.558594 21.113281 C 26.558594 20.550781 27.015625 20.097656 27.578125 20.097656 Z M 27.578125 20.097656 "/>
<path style=" stroke:none;fill-rule:nonzero;fill:rgb(0%,0%,0%);fill-opacity:1;" d="M 27.097656 15.804688 L 27.097656 18.617188 C 27.253906 18.589844 27.414062 18.574219 27.578125 18.574219 C 28.902344 18.574219 29.992188 19.589844 30.105469 20.886719 L 30.5625 20.886719 C 30.84375 19.804688 30.992188 18.671875 30.992188 17.5 C 30.992188 16.925781 30.957031 16.359375 30.886719 15.804688 Z M 27.097656 15.804688 "/>
<path style=" stroke:none;fill-rule:nonzero;fill:rgb(0%,0%,0%);fill-opacity:1;" d="M 19.570312 19.164062 L 18.105469 22.3125 L 18.089844 22.34375 C 18.054688 22.414062 18.035156 22.496094 18.035156 22.582031 C 18.035156 22.890625 18.289062 23.144531 18.601562 23.144531 C 18.828125 23.144531 19.023438 23.011719 19.113281 22.820312 L 19.121094 22.800781 C 19.121094 22.800781 19.121094 22.796875 19.121094 22.796875 L 20.734375 19.339844 Z M 19.570312 19.164062 "/>
<path style=" stroke:none;fill-rule:nonzero;fill:rgb(0%,0%,0%);fill-opacity:1;" d="M 12.417969 18.097656 L 12.417969 22.582031 C 12.417969 22.890625 12.671875 23.144531 12.984375 23.144531 C 13.296875 23.144531 13.546875 22.890625 13.546875 22.582031 L 13.546875 18.265625 Z M 12.417969 18.097656 "/>
<path style=" stroke:none;fill-rule:nonzero;fill:rgb(0%,0%,0%);fill-opacity:1;" d="M 11.582031 11.519531 L 12.054688 11.046875 C 12.230469 10.871094 12.515625 10.871094 12.691406 11.046875 C 12.867188 11.222656 12.867188 11.507812 12.691406 11.683594 L 12.277344 12.097656 L 13.480469 13.300781 C 13.640625 13.460938 13.855469 13.546875 14.082031 13.546875 L 20.492188 13.546875 C 21.148438 13.546875 21.675781 14.078125 21.675781 14.734375 L 21.675781 17.351562 C 21.210938 17.351562 20.832031 16.972656 20.832031 16.503906 L 20.832031 14.789062 C 20.832031 14.507812 20.601562 14.28125 20.324219 14.28125 L 20.324219 16.1875 C 20.324219 17.113281 20.996094 17.894531 21.910156 18.03125 L 25.914062 18.628906 L 25.1875 19.433594 L 22.582031 19.046875 L 22.582031 22.582031 C 22.582031 22.890625 22.328125 23.144531 22.015625 23.144531 C 21.703125 23.144531 21.453125 22.890625 21.453125 22.582031 L 21.453125 19.605469 C 21.453125 19.1875 21.144531 18.832031 20.730469 18.769531 L 12.0625 17.472656 L 10.03125 19.890625 L 10.839844 21.796875 C 10.960938 22.082031 10.828125 22.414062 10.539062 22.535156 C 10.253906 22.65625 9.921875 22.523438 9.800781 22.238281 L 8.855469 20.015625 C 8.773438 19.820312 8.808594 19.59375 8.945312 19.429688 L 10.75 17.277344 L 9.410156 17.078125 L 9.542969 16.183594 L 10.851562 16.378906 L 9.390625 12.46875 L 8.097656 13.480469 C 7.898438 13.632812 7.617188 13.597656 7.460938 13.402344 C 7.363281 13.277344 7.339844 13.105469 7.398438 12.957031 L 8.269531 10.800781 L 8.480469 10.285156 L 8.078125 10.214844 C 7.941406 10.191406 7.847656 10.058594 7.875 9.917969 C 7.898438 9.78125 8.03125 9.6875 8.167969 9.714844 L 9.945312 10.027344 C 10.0625 10.046875 10.167969 10.101562 10.246094 10.183594 Z M 11.582031 11.519531 "/>
</g>
</svg>
