<?xml version="1.0" encoding="UTF-8"?>
<svg xmlns="http://www.w3.org/2000/svg" xmlns:xlink="http://www.w3.org/1999/xlink" width="35px" height="35px" viewBox="0 0 35 35" version="1.1">
<g id="surface1">
<path style=" stroke:none;fill-rule:nonzero;fill:rgb(100%,100%,100%);fill-opacity:1;" d="M 35 17.5 C 35 27.164062 27.164062 35 17.5 35 C 7.835938 35 0 27.164062 0 17.5 C 0 7.835938 7.835938 0 17.5 0 C 27.164062 0 35 7.835938 35 17.5 Z M 35 17.5 "/>
<path style="fill:none;stroke-width:2;stroke-linecap:butt;stroke-linejoin:miter;stroke:rgb(0%,0%,0%);stroke-opacity:1;stroke-miterlimit:4;" d="M 698.984375 350 C 698.984375 542.734375 542.734375 698.984375 350 698.984375 C 157.265625 698.984375 1.015625 542.734375 1.015625 350 C 1.015625 157.265625 157.265625 1.015625 350 1.015625 C 542.734375 1.015625 698.984375 157.265625 698.984375 350 Z M 698.984375 350 " transform="matrix(0.05,0,0,0.05,0,0)"/>
<path style=" stroke:none;fill-rule:nonzero;fill:rgb(100%,0%,0%);fill-opacity:1;" d="M 17.5 34.5 C 26.890625 34.5 34.5 26.890625 34.5 17.5 C 34.5 8.109375 26.890625 0.5 17.5 0.5 C 8.109375 0.5 0.5 8.109375 0.5 17.5 C 0.5 26.890625 8.109375 34.5 17.5 34.5 Z M 17.5 31.5 C 9.769531 31.5 3.5 25.230469 3.5 17.5 C 3.5 9.769531 9.769531 3.5 17.5 3.5 C 25.230469 3.5 31.5 9.769531 31.5 17.5 C 31.5 25.230469 25.230469 31.5 17.5 31.5 Z M 17.5 31.5 "/>
<path style=" stroke:none;fill-rule:nonzero;fill:rgb(0%,0%,0%);fill-opacity:1;" d="M 18.46875 20.210938 C 18.542969 20.269531 18.640625 20.300781 18.738281 20.300781 L 20.894531 20.300781 C 21.167969 22.253906 22.839844 23.710938 24.808594 23.710938 C 26.992188 23.710938 28.761719 21.941406 28.761719 19.757812 C 28.761719 17.574219 26.992188 15.804688 24.808594 15.804688 C 24.195312 15.804688 23.589844 15.949219 23.039062 16.226562 L 21.578125 14.140625 L 21.960938 13.238281 L 22.191406 13.238281 C 22.519531 13.238281 22.785156 12.972656 22.785156 12.644531 C 22.785156 12.316406 22.519531 12.050781 22.191406 12.050781 L 19.476562 12.050781 C 19.148438 12.050781 18.882812 12.316406 18.882812 12.644531 C 18.882812 12.972656 19.148438 13.238281 19.476562 13.238281 L 21.210938 13.238281 L 20.980469 13.78125 L 14.167969 13.78125 C 14.199219 13.667969 14.214844 13.546875 14.214844 13.429688 C 14.214844 12.949219 13.957031 12.507812 13.539062 12.269531 L 13.28125 12.121094 C 13.09375 12.015625 12.980469 11.820312 12.980469 11.609375 C 12.980469 11.28125 13.246094 11.015625 13.574219 11.015625 L 15.523438 11.015625 C 15.742188 11.015625 15.917969 10.839844 15.917969 10.621094 C 15.917969 10.402344 15.742188 10.226562 15.523438 10.226562 L 13.574219 10.226562 C 12.808594 10.226562 12.191406 10.84375 12.191406 11.609375 C 12.191406 12.105469 12.457031 12.5625 12.886719 12.808594 L 13.148438 12.957031 C 13.320312 13.054688 13.421875 13.234375 13.421875 13.429688 C 13.421875 13.507812 13.40625 13.589844 13.371094 13.660156 L 12.132812 16.316406 C 11.539062 15.984375 10.871094 15.804688 10.191406 15.804688 C 8.007812 15.804688 6.238281 17.574219 6.238281 19.757812 C 6.238281 21.941406 8.007812 23.710938 10.191406 23.710938 C 12.371094 23.710938 14.140625 21.941406 14.140625 19.757812 C 14.140625 18.617188 13.648438 17.53125 12.789062 16.78125 L 13.097656 16.121094 Z M 10.191406 23.117188 C 8.335938 23.117188 6.832031 21.613281 6.832031 19.757812 C 6.832031 17.902344 8.335938 16.398438 10.191406 16.398438 C 10.785156 16.398438 11.367188 16.558594 11.882812 16.855469 L 11.023438 18.695312 C 10.972656 18.804688 10.886719 18.898438 10.785156 18.957031 L 9.992188 19.414062 C 9.871094 19.488281 9.792969 19.617188 9.792969 19.757812 C 9.792969 19.976562 9.972656 20.152344 10.191406 20.152344 C 10.257812 20.152344 10.328125 20.136719 10.386719 20.101562 L 11.179688 19.644531 C 11.425781 19.5 11.621094 19.289062 11.742188 19.03125 L 12.527344 17.34375 C 13.179688 17.976562 13.546875 18.847656 13.546875 19.757812 C 13.546875 21.613281 12.042969 23.117188 10.191406 23.117188 Z M 24.808594 23.117188 C 23.164062 23.117188 21.761719 21.925781 21.496094 20.300781 L 24.910156 20.300781 C 25.207031 20.300781 25.453125 20.058594 25.453125 19.757812 C 25.453125 19.648438 25.417969 19.539062 25.351562 19.445312 L 23.429688 16.695312 C 23.863281 16.5 24.332031 16.398438 24.808594 16.398438 C 26.664062 16.398438 28.167969 17.902344 28.167969 19.757812 C 28.167969 21.613281 26.664062 23.117188 24.808594 23.117188 Z M 21.46875 19.414062 C 21.558594 18.535156 21.992188 17.730469 22.671875 17.167969 L 24.246094 19.414062 Z M 19.554688 19.414062 L 21.347656 15.1875 L 22.371094 16.648438 C 21.511719 17.324219 20.96875 18.324219 20.875 19.414062 Z M 18.660156 19.242188 L 13.570312 15.363281 L 13.921875 14.671875 L 20.601562 14.671875 Z M 18.660156 19.242188 "/>
</g>
</svg>
