<?xml version="1.0" encoding="UTF-8"?>
<svg xmlns="http://www.w3.org/2000/svg" xmlns:xlink="http://www.w3.org/1999/xlink" width="35px" height="35px" viewBox="0 0 35 35" version="1.1">
<g id="surface1">
<path style=" stroke:none;fill-rule:nonzero;fill:rgb(100%,100%,100%);fill-opacity:1;" d="M 35 17.5 C 35 27.164062 27.164062 35 17.5 35 C 7.835938 35 0 27.164062 0 17.5 C 0 7.835938 7.835938 0 17.5 0 C 27.164062 0 35 7.835938 35 17.5 Z M 35 17.5 "/>
<path style=" stroke:none;fill-rule:nonzero;fill:rgb(5.098039%,41.176471%,88.235294%);fill-opacity:1;" d="M 17.5 1.167969 C 8.480469 1.167969 1.167969 8.480469 1.167969 17.5 C 1.167969 26.519531 8.480469 33.832031 17.5 33.832031 C 19.273438 33.832031 20.980469 33.546875 22.582031 33.027344 L 22.582031 19.195312 C 22.582031 17.945312 21.570312 16.933594 20.320312 16.933594 L 12.417969 16.933594 L 12.417969 19.804688 L 4.515625 15.242188 L 12.417969 10.679688 L 12.417969 13.546875 L 20.320312 13.546875 C 23.441406 13.546875 25.96875 16.074219 25.96875 19.195312 L 25.96875 31.472656 C 30.683594 28.605469 33.832031 23.421875 33.832031 17.5 C 33.832031 8.480469 26.519531 1.167969 17.5 1.167969 Z M 17.5 1.167969 "/>
<path style="fill:none;stroke-width:0.170718;stroke-linecap:butt;stroke-linejoin:miter;stroke:rgb(0%,0%,0%);stroke-opacity:1;stroke-miterlimit:4;" d="M -65.613942 432.259967 C -65.613942 448.53332 -75.511214 461.724898 -87.720655 461.724898 C -99.930095 461.724898 -109.827367 448.53332 -109.827367 432.259967 C -109.827367 415.986615 -99.930095 402.795036 -87.720655 402.795036 C -75.511214 402.795036 -65.613942 415.986615 -65.613942 432.259967 Z M -65.613942 432.259967 " transform="matrix(0.788964,0,0,0.591938,86.708463,-238.371011)"/>
</g>
</svg>
