<?xml version="1.0" encoding="UTF-8"?>
<svg xmlns="http://www.w3.org/2000/svg" xmlns:xlink="http://www.w3.org/1999/xlink" width="35px" height="35px" viewBox="0 0 35 35" version="1.1">
<g id="surface1">
<path style=" stroke:none;fill-rule:nonzero;fill:rgb(100%,100%,100%);fill-opacity:1;" d="M 35 17.5 C 35 27.164062 27.164062 35 17.5 35 C 7.835938 35 0 27.164062 0 17.5 C 0 7.835938 7.835938 0 17.5 0 C 27.164062 0 35 7.835938 35 17.5 Z M 35 17.5 "/>
<path style="fill:none;stroke-width:0.170718;stroke-linecap:butt;stroke-linejoin:miter;stroke:rgb(0%,0%,0%);stroke-opacity:1;stroke-miterlimit:4;" d="M -65.613942 432.259967 C -65.613942 448.53332 -75.511214 461.724898 -87.720655 461.724898 C -99.930095 461.724898 -109.827367 448.53332 -109.827367 432.259967 C -109.827367 415.986615 -99.930095 402.795036 -87.720655 402.795036 C -75.511214 402.795036 -65.613942 415.986615 -65.613942 432.259967 Z M -65.613942 432.259967 " transform="matrix(0.788964,0,0,0.591938,86.708463,-238.371011)"/>
<path style=" stroke:none;fill-rule:nonzero;fill:rgb(5.098039%,41.176471%,88.235294%);fill-opacity:1;" d="M 17.5 1.167969 C 8.480469 1.167969 1.167969 8.480469 1.167969 17.5 C 1.167969 26.519531 8.480469 33.832031 17.5 33.832031 C 26.519531 33.832031 33.832031 26.519531 33.832031 17.5 C 33.832031 8.480469 26.519531 1.167969 17.5 1.167969 Z M 16.679688 11.292969 L 23.757812 11.292969 C 24.058594 11.292969 24.34375 11.421875 24.539062 11.648438 L 28.328125 16.089844 C 28.53125 16.328125 28.617188 16.644531 28.554688 16.949219 L 28.019531 19.703125 C 27.957031 20.027344 27.714844 20.285156 27.398438 20.371094 L 26.878906 20.511719 C 26.695312 19.183594 25.550781 18.160156 24.167969 18.160156 C 22.65625 18.160156 21.433594 19.378906 21.433594 20.882812 L 11.703125 20.882812 C 11.703125 19.378906 10.480469 18.160156 8.96875 18.160156 C 7.648438 18.160156 6.550781 19.089844 6.292969 20.328125 C 5.839844 20.316406 5.46875 19.953125 5.453125 19.496094 L 5.417969 17.554688 C 5.410156 17.039062 5.789062 16.59375 6.300781 16.523438 L 11.757812 15.753906 C 11.992188 15.722656 12.207031 15.613281 12.367188 15.441406 L 15.933594 11.617188 C 16.125 11.40625 16.398438 11.292969 16.679688 11.292969 Z M 16.792969 12.097656 C 16.613281 12.097656 16.445312 12.171875 16.324219 12.304688 L 14.0625 14.730469 C 13.949219 14.847656 13.886719 15.007812 13.886719 15.171875 C 13.886719 15.527344 14.175781 15.816406 14.535156 15.816406 L 24.152344 15.816406 C 24.195312 15.816406 24.234375 15.8125 24.277344 15.804688 C 24.71875 15.738281 25.019531 15.324219 24.949219 14.882812 L 24.617188 12.78125 C 24.554688 12.386719 24.214844 12.097656 23.816406 12.097656 Z M 8.96875 18.621094 C 10.21875 18.621094 11.234375 19.632812 11.234375 20.882812 C 11.234375 22.132812 10.21875 23.144531 8.96875 23.144531 C 7.71875 23.144531 6.707031 22.132812 6.707031 20.882812 C 6.707031 19.632812 7.71875 18.621094 8.96875 18.621094 Z M 24.167969 18.621094 C 25.417969 18.621094 26.429688 19.632812 26.429688 20.882812 C 26.429688 22.132812 25.417969 23.144531 24.167969 23.144531 C 22.917969 23.144531 21.902344 22.132812 21.902344 20.882812 C 21.902344 19.632812 22.917969 18.621094 24.167969 18.621094 Z M 8.96875 19.535156 C 8.226562 19.535156 7.625 20.136719 7.625 20.882812 C 7.625 21.625 8.226562 22.230469 8.96875 22.230469 C 9.714844 22.230469 10.316406 21.625 10.316406 20.882812 C 10.316406 20.136719 9.714844 19.535156 8.96875 19.535156 Z M 24.167969 19.535156 C 23.421875 19.535156 22.820312 20.136719 22.820312 20.882812 C 22.820312 21.625 23.421875 22.230469 24.167969 22.230469 C 24.910156 22.230469 25.511719 21.625 25.511719 20.882812 C 25.511719 20.136719 24.910156 19.535156 24.167969 19.535156 Z M 24.167969 19.535156 "/>
</g>
</svg>
