<?xml version="1.0" encoding="UTF-8"?>
<svg xmlns="http://www.w3.org/2000/svg" xmlns:xlink="http://www.w3.org/1999/xlink" width="35px" height="35px" viewBox="0 0 35 35" version="1.1">
<g id="surface1">
<path style=" stroke:none;fill-rule:nonzero;fill:rgb(100%,100%,100%);fill-opacity:1;" d="M 35 17.5 C 35 27.164062 27.164062 35 17.5 35 C 7.835938 35 0 27.164062 0 17.5 C 0 7.835938 7.835938 0 17.5 0 C 27.164062 0 35 7.835938 35 17.5 Z M 35 17.5 "/>
<path style="fill:none;stroke-width:0.14626;stroke-linecap:butt;stroke-linejoin:miter;stroke:rgb(0%,0%,0%);stroke-opacity:1;stroke-miterlimit:4;" d="M -65.614601 432.25997 C -65.614601 448.532148 -75.512095 461.724023 -87.720653 461.724023 C -99.929212 461.724023 -109.826705 448.532148 -109.826705 432.25997 C -109.826705 415.987793 -99.929212 402.795918 -87.720653 402.795918 C -75.512095 402.795918 -65.614601 415.987793 -65.614601 432.25997 Z M -65.614601 432.25997 " transform="matrix(0.789341,0,0,0.592221,86.74153,-238.493259)"/>
<path style=" stroke:none;fill-rule:nonzero;fill:rgb(0%,0%,50.196078%);fill-opacity:1;" d="M 17.5 1 C 8.386719 1 1 8.386719 1 17.5 C 1 26.613281 8.386719 34 17.5 34 C 26.613281 34 34 26.613281 34 17.5 C 34 8.386719 26.613281 1 17.5 1 Z M 17.5 1 "/>
<path style=" stroke:none;fill-rule:nonzero;fill:rgb(100%,100%,100%);fill-opacity:1;" d="M 16.472656 26.382812 L 13.632812 30.554688 C 13.535156 30.65625 13.476562 30.785156 13.476562 30.925781 C 13.476562 31.242188 13.777344 31.5 14.152344 31.5 C 14.40625 31.5 14.625 31.382812 14.742188 31.207031 L 14.75 31.210938 L 17.464844 27.222656 Z M 18.917969 23.863281 L 18.917969 25.148438 L 20.164062 26.207031 C 20.261719 26.289062 20.394531 26.339844 20.542969 26.339844 C 20.835938 26.339844 21.074219 26.136719 21.074219 25.886719 C 21.074219 25.761719 21.015625 25.648438 20.917969 25.566406 Z M 17.074219 21.761719 C 16.953125 21.761719 16.828125 21.789062 16.71875 21.84375 L 14.449219 22.957031 C 14.226562 23.0625 14.09375 23.265625 14.09375 23.480469 L 14.09375 25.597656 C 14.09375 25.847656 14.332031 26.050781 14.628906 26.050781 C 14.921875 26.050781 15.160156 25.847656 15.160156 25.597656 L 15.160156 23.65625 L 16.265625 23.113281 L 16.265625 25.652344 C 16.265625 25.734375 16.304688 25.808594 16.371094 25.867188 L 19.265625 28.328125 L 20.074219 31.0625 C 20.164062 31.371094 20.53125 31.558594 20.894531 31.480469 C 21.257812 31.40625 21.476562 31.09375 21.386719 30.785156 L 20.398438 27.421875 C 20.378906 27.367188 20.34375 27.316406 20.296875 27.277344 L 18.527344 25.773438 L 18.527344 22.554688 C 18.527344 22.445312 18.460938 22.347656 18.351562 22.292969 L 17.429688 21.84375 C 17.320312 21.789062 17.199219 21.761719 17.074219 21.761719 Z M 17.335938 19.5 C 16.941406 19.5 16.289062 19.695312 16.289062 20.316406 C 16.289062 21.035156 17.65625 21.601562 18.082031 21.601562 C 18.6875 21.601562 18.960938 21.015625 18.960938 20.652344 C 18.960938 19.753906 17.667969 19.5 17.335938 19.5 Z M 17.335938 19.5 "/>
<path style=" stroke:none;fill-rule:nonzero;fill:rgb(100%,100%,100%);fill-opacity:1;" d="M 23.667969 11.722656 C 22.875 12.371094 22.332031 13.324219 22.222656 14.402344 L 25.542969 14.402344 Z M 26.1875 10.828125 C 25.609375 10.828125 25.0625 10.949219 24.566406 11.167969 L 26.859375 14.441406 C 27.0625 14.734375 26.992188 15.136719 26.699219 15.339844 C 26.59375 15.414062 26.464844 15.457031 26.332031 15.457031 L 22.253906 15.457031 C 22.5625 17.351562 24.207031 18.796875 26.1875 18.796875 C 28.386719 18.796875 30.171875 17.011719 30.171875 14.8125 C 30.171875 12.609375 28.386719 10.828125 26.1875 10.828125 Z M 8.734375 10.828125 C 6.582031 10.882812 4.851562 12.644531 4.851562 14.8125 C 4.851562 17.011719 6.636719 18.796875 8.839844 18.796875 C 11.039062 18.796875 12.824219 17.011719 12.824219 14.8125 C 12.824219 13.699219 12.371094 12.699219 11.640625 11.976562 L 10.742188 13.898438 C 10.59375 14.214844 10.351562 14.476562 10.050781 14.652344 L 9.074219 15.21875 C 8.847656 15.347656 8.558594 15.269531 8.429688 15.046875 C 8.300781 14.820312 8.378906 14.535156 8.601562 14.40625 L 9.582031 13.839844 C 9.71875 13.761719 9.824219 13.644531 9.890625 13.503906 L 10.878906 11.386719 C 10.28125 11.03125 9.585938 10.828125 8.839844 10.828125 C 8.804688 10.828125 8.769531 10.824219 8.734375 10.828125 Z M 22.066406 9.433594 L 19.945312 14.402344 L 21.515625 14.402344 C 21.628906 13.085938 22.289062 11.925781 23.265625 11.148438 Z M 13.257812 8.773438 L 12.78125 9.527344 L 18.886719 14.195312 L 21.203125 8.773438 Z M 12.824219 3.5 C 12.851562 3.5 12.882812 3.5 12.914062 3.5 L 15.167969 3.5 C 15.429688 3.5 15.640625 3.707031 15.640625 3.96875 C 15.640625 4.226562 15.429688 4.4375 15.167969 4.4375 L 12.914062 4.4375 C 12.492188 4.4375 12.148438 4.777344 12.148438 5.199219 C 12.148438 5.472656 12.324219 5.71875 12.585938 5.808594 C 13.222656 6.027344 13.652344 6.628906 13.652344 7.304688 C 13.652344 7.445312 13.632812 7.585938 13.59375 7.71875 L 21.648438 7.71875 L 21.925781 7.074219 L 19.855469 7.074219 C 19.46875 7.074219 19.152344 6.757812 19.152344 6.371094 C 19.152344 5.980469 19.46875 5.667969 19.855469 5.667969 L 23.082031 5.667969 C 23.46875 5.667969 23.785156 5.980469 23.785156 6.371094 C 23.785156 6.757812 23.46875 7.074219 23.082031 7.074219 L 22.816406 7.074219 L 22.394531 8.066406 L 24.160156 10.582031 C 24.773438 10.289062 25.460938 10.121094 26.1875 10.121094 C 28.777344 10.121094 30.875 12.222656 30.875 14.8125 C 30.875 17.402344 28.777344 19.5 26.1875 19.5 C 23.816406 19.5 21.855469 17.742188 21.542969 15.457031 L 18.792969 15.457031 L 12.320312 10.507812 L 11.949219 11.304688 C 12.917969 12.164062 13.527344 13.414062 13.527344 14.8125 C 13.527344 17.402344 11.429688 19.5 8.839844 19.5 C 6.25 19.5 4.148438 17.402344 4.148438 14.8125 C 4.148438 12.222656 6.25 10.121094 8.839844 10.121094 C 9.691406 10.121094 10.488281 10.351562 11.175781 10.746094 L 12.585938 7.71875 L 12.65625 7.578125 C 12.695312 7.492188 12.714844 7.398438 12.714844 7.304688 C 12.714844 7.03125 12.539062 6.785156 12.28125 6.695312 C 11.640625 6.476562 11.210938 5.875 11.210938 5.199219 C 11.210938 4.289062 11.925781 3.546875 12.824219 3.5 Z M 12.824219 3.5 "/>
<path style=" stroke:none;fill-rule:nonzero;fill:rgb(100%,0%,0%);fill-opacity:1;" d="M 27.984375 4.757812 L 4.757812 27.984375 C 5.425781 28.796875 6.171875 29.539062 6.980469 30.210938 L 30.242188 7.015625 C 29.5625 6.191406 28.808594 5.4375 27.984375 4.757812 Z M 27.984375 4.757812 "/>
</g>
</svg>
