<?xml version="1.0" encoding="UTF-8"?>
<svg xmlns="http://www.w3.org/2000/svg" xmlns:xlink="http://www.w3.org/1999/xlink" width="35px" height="35px" viewBox="0 0 35 52" version="1.1">
<g id="surface1">
<path style=" stroke:none;fill-rule:nonzero;fill:rgb(100%,100%,100%);fill-opacity:1;" d="M 2.625 0 L 32.375 0 C 33.824219 0 35 1.164062 35 2.601562 L 35 49.398438 C 35 50.835938 33.824219 52 32.375 52 L 2.625 52 C 1.175781 52 0 50.835938 0 49.398438 L 0 2.601562 C 0 1.164062 1.175781 0 2.625 0 Z M 2.625 0 "/>
<path style=" stroke:none;fill-rule:nonzero;fill:rgb(0%,0%,0%);fill-opacity:1;" d="M 2.625 0.578125 C 1.492188 0.578125 0.582031 1.480469 0.582031 2.601562 L 0.582031 49.398438 C 0.582031 50.519531 1.492188 51.421875 2.625 51.421875 L 32.375 51.421875 C 33.507812 51.421875 34.417969 50.519531 34.417969 49.398438 L 34.417969 2.601562 C 34.417969 1.480469 33.507812 0.578125 32.375 0.578125 Z M 2.625 1.15625 L 32.375 1.15625 C 33.183594 1.15625 33.832031 1.800781 33.832031 2.601562 L 33.832031 49.398438 C 33.832031 50.199219 33.183594 50.84375 32.375 50.84375 L 2.625 50.84375 C 1.816406 50.84375 1.167969 50.199219 1.167969 49.398438 L 1.167969 2.601562 C 1.167969 1.800781 1.816406 1.15625 2.625 1.15625 Z M 2.625 1.15625 "/>
<path style="fill:none;stroke-width:2;stroke-linecap:butt;stroke-linejoin:miter;stroke:rgb(0%,0%,0%);stroke-opacity:1;stroke-miterlimit:4;" d="M 45 153.376303 L 555 153.376303 C 579.308036 153.376303 598.995536 173.050281 598.995536 197.389223 L 598.995536 1007.335137 C 598.995536 1031.674079 579.308036 1051.348057 555 1051.348057 L 45 1051.348057 C 20.691964 1051.348057 1.004464 1031.674079 1.004464 1007.335137 L 1.004464 197.389223 C 1.004464 173.050281 20.691964 153.376303 45 153.376303 Z M 45 153.376303 " transform="matrix(0.0583333,0,0,0.0577778,0,-8.803148)"/>
<path style=" stroke:none;fill-rule:nonzero;fill:rgb(0%,0%,0%);fill-opacity:1;" d="M 10.9375 22.195312 L 24.0625 22.195312 L 24.0625 22.796875 L 10.9375 22.796875 Z M 10.9375 22.195312 "/>
<path style=" stroke:none;fill-rule:nonzero;fill:rgb(0%,0%,0%);fill-opacity:1;" d="M 10.9375 23.308594 L 10.9375 27.082031 L 12.582031 27.082031 L 12.582031 25.476562 L 16.410156 25.476562 C 16.535156 25.957031 16.976562 26.3125 17.5 26.3125 C 18.027344 26.3125 18.464844 25.957031 18.589844 25.476562 L 22.417969 25.476562 L 22.417969 27.082031 L 24.0625 27.082031 L 24.0625 23.308594 L 22.417969 23.308594 L 22.417969 24.917969 L 18.589844 24.917969 C 18.464844 24.4375 18.027344 24.082031 17.5 24.082031 C 16.976562 24.082031 16.535156 24.4375 16.410156 24.917969 L 12.582031 24.917969 L 12.582031 23.308594 Z M 10.9375 23.308594 "/>
<path style=" stroke:none;fill-rule:nonzero;fill:rgb(100%,50.196078%,0%);fill-opacity:1;" d="M 12.234375 6.5 C 11.515625 6.5 10.9375 7.074219 10.9375 7.785156 L 10.9375 21.679688 L 24.0625 21.679688 L 24.0625 7.785156 C 24.0625 7.074219 23.484375 6.5 22.761719 6.5 Z M 12.234375 6.5 "/>
<path style=" stroke:none;fill-rule:nonzero;fill:rgb(5.098039%,41.176471%,88.235294%);fill-opacity:1;" d="M 17.5 31.199219 C 22.03125 31.199219 25.703125 34.835938 25.703125 39.324219 C 25.703125 43.8125 22.03125 47.449219 17.5 47.449219 C 16.609375 47.449219 15.75 47.308594 14.949219 47.046875 L 14.949219 40.167969 C 14.949219 39.546875 15.457031 39.042969 16.082031 39.042969 L 20.050781 39.042969 L 20.050781 40.472656 L 24.019531 38.203125 L 20.050781 35.929688 L 20.050781 37.359375 L 16.082031 37.359375 C 14.515625 37.359375 13.246094 38.617188 13.246094 40.167969 L 13.246094 46.273438 C 10.878906 44.851562 9.296875 42.269531 9.296875 39.324219 C 9.296875 34.835938 12.96875 31.199219 17.5 31.199219 Z M 17.5 31.199219 "/>
</g>
</svg>
