<?xml version="1.0" encoding="UTF-8"?>
<svg xmlns="http://www.w3.org/2000/svg" xmlns:xlink="http://www.w3.org/1999/xlink" width="35px" height="35px" viewBox="0 0 35 52" version="1.1">
<g id="surface1">
<path style=" stroke:none;fill-rule:nonzero;fill:rgb(100%,100%,100%);fill-opacity:1;" d="M 1.75 0 L 33.25 0 C 34.214844 0 35 0.777344 35 1.734375 L 35 50.265625 C 35 51.222656 34.214844 52 33.25 52 L 1.75 52 C 0.785156 52 0 51.222656 0 50.265625 L 0 1.734375 C 0 0.777344 0.785156 0 1.75 0 Z M 1.75 0 "/>
<path style=" stroke:none;fill-rule:nonzero;fill:rgb(0%,64.705882%,0%);fill-opacity:1;" d="M 1.75 0.769531 C 1.210938 0.769531 0.777344 1.199219 0.777344 1.734375 L 0.777344 14.625 L 34.222656 14.625 L 34.222656 1.734375 C 34.222656 1.199219 33.789062 0.769531 33.25 0.769531 L 19.6875 0.769531 L 22.421875 13 L 18.59375 13 L 18.046875 0.769531 L 16.953125 0.769531 L 16.40625 13 L 12.578125 13 L 15.3125 0.769531 Z M 0.777344 16.792969 L 0.777344 50.265625 C 0.777344 50.800781 1.210938 51.230469 1.75 51.230469 L 2.1875 51.230469 L 10.9375 18.417969 L 16.40625 18.417969 L 15.3125 51.230469 L 19.6875 51.230469 L 18.59375 18.417969 L 24.0625 18.417969 L 32.8125 51.230469 L 33.25 51.230469 C 33.789062 51.230469 34.222656 50.800781 34.222656 50.265625 L 34.222656 16.792969 L 29.53125 16.792969 L 29.53125 20.582031 L 27.34375 20.582031 L 26.25 16.792969 L 8.75 16.792969 L 7.65625 20.582031 L 5.46875 20.582031 L 5.46875 16.792969 Z M 0.777344 16.792969 "/>
<path style="fill:none;stroke-width:2;stroke-linecap:butt;stroke-linejoin:miter;stroke:rgb(0%,0%,0%);stroke-opacity:1;stroke-miterlimit:4;" d="M 45 -296.623697 L 855 -296.623697 C 879.308036 -296.623697 898.995536 -276.949719 898.995536 -252.610777 L 898.995536 1007.335137 C 898.995536 1031.674079 879.308036 1051.348057 855 1051.348057 L 45 1051.348057 C 20.691964 1051.348057 1.004464 1031.674079 1.004464 1007.335137 L 1.004464 -252.610777 C 1.004464 -276.949719 20.691964 -296.623697 45 -296.623697 Z M 45 -296.623697 " transform="matrix(0.0388889,0,0,0.0385185,0,11.464568)"/>
</g>
</svg>
