<?xml version="1.0" encoding="UTF-8"?>
<svg xmlns="http://www.w3.org/2000/svg" xmlns:xlink="http://www.w3.org/1999/xlink" width="35px" height="35px" viewBox="0 0 35 35" version="1.1">
<g id="surface1">
<path style=" stroke:none;fill-rule:nonzero;fill:rgb(100%,100%,100%);fill-opacity:1;" d="M 2.25 0 L 32.75 0 C 33.992188 0 35 1.007812 35 2.25 L 35 32.75 C 35 33.992188 33.992188 35 32.75 35 L 2.25 35 C 1.007812 35 0 33.992188 0 32.75 L 0 2.25 C 0 1.007812 1.007812 0 2.25 0 Z M 2.25 0 "/>
<path style=" stroke:none;fill-rule:nonzero;fill:rgb(5.098039%,41.176471%,88.235294%);fill-opacity:1;" d="M 2.25 1 C 1.558594 1 1 1.558594 1 2.25 L 1 16.917969 L 34 16.917969 L 34 13.648438 L 26.25 13.648438 C 26.25 12.039062 24.945312 10.734375 23.332031 10.734375 C 21.722656 10.734375 20.417969 12.039062 20.417969 13.648438 L 19.832031 13.648438 C 19.1875 13.648438 18.667969 13.128906 18.667969 12.484375 L 18.667969 8.203125 C 18.667969 8 18.722656 7.796875 18.824219 7.621094 L 20.867188 4.082031 C 21.074219 3.722656 21.457031 3.5 21.875 3.5 L 34 3.5 L 34 2.25 C 34 1.558594 33.441406 1 32.75 1 Z M 21.96875 4.316406 C 21.777344 4.328125 21.601562 4.4375 21.503906 4.609375 L 20.15625 6.941406 C 20.105469 7.03125 20.078125 7.128906 20.078125 7.234375 C 20.078125 7.554688 20.339844 7.816406 20.664062 7.816406 L 23.332031 7.816406 C 23.65625 7.816406 23.917969 7.554688 23.917969 7.234375 L 23.917969 4.898438 C 23.917969 4.578125 23.65625 4.316406 23.332031 4.316406 L 22.007812 4.316406 C 21.996094 4.316406 21.984375 4.316406 21.96875 4.316406 Z M 25.667969 4.316406 C 25.34375 4.316406 25.082031 4.578125 25.082031 4.898438 L 25.082031 7.234375 C 25.082031 7.554688 25.34375 7.816406 25.667969 7.816406 L 29.167969 7.816406 C 29.492188 7.816406 29.75 7.554688 29.75 7.234375 L 29.75 4.898438 C 29.75 4.578125 29.492188 4.316406 29.167969 4.316406 Z M 31.5 4.316406 C 31.175781 4.316406 30.917969 4.578125 30.917969 4.898438 L 30.917969 7.234375 C 30.917969 7.554688 31.175781 7.816406 31.5 7.816406 L 34 7.816406 L 34 4.316406 Z M 11.667969 4.667969 L 11.667969 7.582031 L 17.5 7.582031 L 17.5 11.082031 L 11.667969 11.082031 L 11.667969 14 L 3.5 9.332031 Z M 23.332031 11.316406 C 24.621094 11.316406 25.667969 12.363281 25.667969 13.648438 C 25.667969 14.9375 24.621094 15.984375 23.332031 15.984375 C 22.042969 15.984375 21 14.9375 21 13.648438 C 21 12.363281 22.042969 11.316406 23.332031 11.316406 Z M 23.332031 12.484375 C 22.6875 12.484375 22.167969 13.003906 22.167969 13.648438 C 22.167969 14.292969 22.6875 14.816406 23.332031 14.816406 C 23.976562 14.816406 24.5 14.292969 24.5 13.648438 C 24.5 13.003906 23.976562 12.484375 23.332031 12.484375 Z M 1 18.082031 L 1 24.5 L 23.332031 24.5 L 23.332031 21.582031 L 31.5 26.25 L 23.332031 30.917969 L 23.332031 28 L 1 28 L 1 32.75 C 1 33.441406 1.558594 34 2.25 34 L 32.75 34 C 33.441406 34 34 33.441406 34 32.75 L 34 18.082031 Z M 1 18.082031 "/>
<path style="fill:none;stroke-width:2;stroke-linecap:butt;stroke-linejoin:miter;stroke:rgb(0%,0%,0%);stroke-opacity:1;stroke-miterlimit:4;" d="M 45 353.377805 L 655 353.377805 C 679.296875 353.377805 698.984375 373.065305 698.984375 397.36218 L 698.984375 1007.36218 C 698.984375 1031.659055 679.296875 1051.346555 655 1051.346555 L 45 1051.346555 C 20.703125 1051.346555 1.015625 1031.659055 1.015625 1007.36218 L 1.015625 397.36218 C 1.015625 373.065305 20.703125 353.377805 45 353.377805 Z M 45 353.377805 " transform="matrix(0.05,0,0,0.05,0,-17.618109)"/>
</g>
</svg>
