<?xml version="1.0" encoding="UTF-8"?>
<svg xmlns="http://www.w3.org/2000/svg" xmlns:xlink="http://www.w3.org/1999/xlink" width="35px" height="35px" viewBox="0 0 35 32" version="1.1">
<g id="surface1">
<path style="fill-rule:nonzero;fill:rgb(100%,100%,100%);fill-opacity:1;stroke-width:1.925;stroke-linecap:butt;stroke-linejoin:miter;stroke:rgb(13.72549%,12.156863%,12.54902%);stroke-opacity:1;stroke-miterlimit:22.926001;" d="M -42.12197 -8.155098 L 256.012405 -8.155098 C 270.472673 -8.155098 282.325352 -3.844795 282.325352 1.432305 L 282.325352 169.856377 C 282.325352 175.133477 270.472673 179.443779 256.012405 179.443779 L -42.12197 179.443779 C -56.582237 179.443779 -68.434916 175.133477 -68.434916 169.856377 L -68.434916 1.432305 C -68.434916 -3.844795 -56.582237 -8.155098 -42.12197 -8.155098 Z M -42.12197 -8.155098 " transform="matrix(0.0988701,0,0,0.0969697,6.984914,0.884547)"/>
<path style="fill-rule:evenodd;fill:rgb(0%,65.882353%,92.156863%);fill-opacity:1;stroke-width:0.26875;stroke-linecap:butt;stroke-linejoin:miter;stroke:rgb(0%,67.843137%,93.72549%);stroke-opacity:1;stroke-miterlimit:22.926001;" d="M -26.120854 6.346856 L 247.755039 6.346856 C 261.069548 6.346856 271.934504 10.05291 271.934504 14.564629 L 271.934504 159.181328 C 271.934504 163.73333 261.069548 167.399102 247.755039 167.399102 L -26.120854 167.399102 C -39.395854 167.399102 -50.260809 163.73333 -50.260809 159.181328 L -50.260809 14.564629 C -50.260809 10.05291 -39.395854 6.346856 -26.120854 6.346856 Z M -26.120854 6.346856 " transform="matrix(0.0988701,0,0,0.0969697,6.984914,0.884547)"/>
<path style="fill-rule:evenodd;fill:rgb(100%,100%,100%);fill-opacity:1;stroke-width:0.26875;stroke-linecap:butt;stroke-linejoin:miter;stroke:rgb(100%,100%,100%);stroke-opacity:1;stroke-miterlimit:22.926001;" d="M -12.569291 17.948418 L 236.29745 17.948418 C 246.648789 17.948418 255.143209 22.62127 255.143209 28.381768 L 255.143209 146.693535 C 255.143209 152.41375 246.648789 157.126885 236.29745 157.126885 L -12.569291 157.126885 C -22.92063 157.126885 -31.375541 152.41375 -31.375541 146.693535 L -31.375541 28.381768 C -31.375541 22.62127 -22.92063 17.948418 -12.569291 17.948418 Z M -12.569291 17.948418 " transform="matrix(0.0988701,0,0,0.0969697,6.984914,0.884547)"/>
<path style="fill-rule:evenodd;fill:rgb(13.72549%,12.156863%,12.54902%);fill-opacity:1;stroke-width:0.27;stroke-linecap:butt;stroke-linejoin:miter;stroke:rgb(13.72549%,12.156863%,12.54902%);stroke-opacity:1;stroke-miterlimit:22.926001;" d="M 208.838745 73.136406 L 190.427584 36.236992 L 40.767763 35.95501 L 18.800798 71.847344 L 18.800798 119.784356 L 208.838745 120.267754 Z M 208.838745 73.136406 " transform="matrix(0.0988701,0,0,0.0969697,6.984914,0.884547)"/>
<path style="fill-rule:evenodd;fill:rgb(100%,100%,100%);fill-opacity:1;stroke-width:0.27;stroke-linecap:butt;stroke-linejoin:miter;stroke:rgb(13.72549%,12.156863%,12.54902%);stroke-opacity:1;stroke-miterlimit:22.926001;" d="M 182.170218 43.568535 L 145.22937 43.568535 L 145.22937 72.491875 L 182.170218 72.491875 Z M 182.170218 43.568535 " transform="matrix(0.0988701,0,0,0.0969697,6.984914,0.884547)"/>
<path style="fill-rule:evenodd;fill:rgb(100%,100%,100%);fill-opacity:1;stroke-width:0.27;stroke-linecap:butt;stroke-linejoin:miter;stroke:rgb(13.72549%,12.156863%,12.54902%);stroke-opacity:1;stroke-miterlimit:22.926001;" d="M 139.461066 43.568535 L 95.329593 43.568535 L 95.329593 72.491875 L 139.461066 72.491875 Z M 139.461066 43.568535 " transform="matrix(0.0988701,0,0,0.0969697,6.984914,0.884547)"/>
<path style="fill-rule:evenodd;fill:rgb(100%,100%,100%);fill-opacity:1;stroke-width:0.27;stroke-linecap:butt;stroke-linejoin:miter;stroke:rgb(13.72549%,12.156863%,12.54902%);stroke-opacity:1;stroke-miterlimit:22.926001;" d="M 90.074905 43.568535 L 51.19812 43.568535 L 51.672227 72.491875 L 90.074905 72.491875 Z M 90.074905 43.568535 " transform="matrix(0.0988701,0,0,0.0969697,6.984914,0.884547)"/>
<path style="fill-rule:evenodd;fill:rgb(100%,100%,100%);fill-opacity:1;stroke-width:0.27;stroke-linecap:butt;stroke-linejoin:miter;stroke:rgb(13.72549%,12.156863%,12.54902%);stroke-opacity:1;stroke-miterlimit:22.926001;" d="M 187.424905 43.568535 L 187.424905 72.93499 L 203.742093 72.93499 Z M 187.424905 43.568535 " transform="matrix(0.0988701,0,0,0.0969697,6.984914,0.884547)"/>
<path style="fill-rule:evenodd;fill:rgb(100%,100%,100%);fill-opacity:1;stroke-width:0.27;stroke-linecap:butt;stroke-linejoin:miter;stroke:rgb(13.72549%,12.156863%,12.54902%);stroke-opacity:1;stroke-miterlimit:22.926001;" d="M 45.429816 43.568535 L 45.429816 72.491875 L 23.857941 72.491875 Z M 45.429816 43.568535 " transform="matrix(0.0988701,0,0,0.0969697,6.984914,0.884547)"/>
<path style="fill-rule:evenodd;fill:rgb(100%,100%,100%);fill-opacity:1;stroke-width:0.895;stroke-linecap:butt;stroke-linejoin:miter;stroke:rgb(100%,100%,100%);stroke-opacity:1;stroke-miterlimit:22.926001;" d="M 176.164861 101.374932 C 164.470218 101.374932 154.909057 110.962334 154.909057 122.725029 C 154.909057 134.447442 164.470218 144.034844 176.164861 144.034844 C 187.859504 144.034844 197.420664 134.447442 197.420664 122.725029 C 197.420664 110.962334 187.859504 101.374932 176.164861 101.374932 Z M 176.164861 101.374932 " transform="matrix(0.0988701,0,0,0.0969697,6.984914,0.884547)"/>
<path style="fill-rule:evenodd;fill:rgb(13.72549%,12.156863%,12.54902%);fill-opacity:1;stroke-width:0.27;stroke-linecap:butt;stroke-linejoin:miter;stroke:rgb(13.72549%,12.156863%,12.54902%);stroke-opacity:1;stroke-miterlimit:22.926001;" d="M 175.967316 105.685235 C 167.038298 105.685235 159.729146 113.29876 159.729146 122.644463 C 159.729146 131.990166 167.038298 139.603692 175.967316 139.603692 C 184.896334 139.603692 192.165977 131.990166 192.165977 122.644463 C 192.165977 113.29876 184.896334 105.685235 175.967316 105.685235 Z M 175.967316 105.685235 " transform="matrix(0.0988701,0,0,0.0969697,6.984914,0.884547)"/>
<path style="fill-rule:evenodd;fill:rgb(100%,100%,100%);fill-opacity:1;stroke-width:0.27;stroke-linecap:butt;stroke-linejoin:miter;stroke:rgb(13.72549%,12.156863%,12.54902%);stroke-opacity:1;stroke-miterlimit:22.926001;" d="M 176.085843 113.258477 C 170.831155 113.258477 166.564191 117.568779 166.564191 122.845879 C 166.564191 128.122979 170.831155 132.392998 176.085843 132.392998 C 181.34053 132.392998 185.607495 128.122979 185.607495 122.845879 C 185.607495 117.568779 181.34053 113.258477 176.085843 113.258477 Z M 176.085843 113.258477 " transform="matrix(0.0988701,0,0,0.0969697,6.984914,0.884547)"/>
<path style="fill-rule:evenodd;fill:rgb(100%,100%,100%);fill-opacity:1;stroke-width:0.895;stroke-linecap:butt;stroke-linejoin:miter;stroke:rgb(100%,100%,100%);stroke-opacity:1;stroke-miterlimit:22.926001;" d="M 54.595888 102.422295 C 42.901245 102.422295 33.340084 112.009697 33.340084 123.772393 C 33.340084 135.535088 42.901245 145.082207 54.595888 145.082207 C 66.29053 145.082207 75.851691 135.535088 75.851691 123.772393 C 75.851691 112.009697 66.29053 102.422295 54.595888 102.422295 Z M 54.595888 102.422295 " transform="matrix(0.0988701,0,0,0.0969697,6.984914,0.884547)"/>
<path style="fill-rule:evenodd;fill:rgb(13.72549%,12.156863%,12.54902%);fill-opacity:1;stroke-width:0.27;stroke-linecap:butt;stroke-linejoin:miter;stroke:rgb(13.72549%,12.156863%,12.54902%);stroke-opacity:1;stroke-miterlimit:22.926001;" d="M 54.398343 106.772881 C 45.469325 106.772881 38.160173 114.386406 38.160173 123.73211 C 38.160173 133.037529 45.469325 140.651055 54.398343 140.651055 C 63.327361 140.651055 70.597004 133.037529 70.597004 123.73211 C 70.597004 114.386406 63.327361 106.772881 54.398343 106.772881 Z M 54.398343 106.772881 " transform="matrix(0.0988701,0,0,0.0969697,6.984914,0.884547)"/>
<path style="fill-rule:evenodd;fill:rgb(100%,100%,100%);fill-opacity:1;stroke-width:0.27;stroke-linecap:butt;stroke-linejoin:miter;stroke:rgb(13.72549%,12.156863%,12.54902%);stroke-opacity:1;stroke-miterlimit:22.926001;" d="M 54.51687 114.346123 C 49.262182 114.346123 44.995218 118.616143 44.995218 123.893242 C 44.995218 129.170342 49.262182 133.440361 54.51687 133.440361 C 59.771557 133.440361 64.038521 129.170342 64.038521 123.893242 C 64.038521 118.616143 59.771557 114.346123 54.51687 114.346123 Z M 54.51687 114.346123 " transform="matrix(0.0988701,0,0,0.0969697,6.984914,0.884547)"/>
<path style="fill-rule:nonzero;fill:rgb(100%,100%,100%);fill-opacity:1;stroke-width:1.925;stroke-linecap:butt;stroke-linejoin:miter;stroke:rgb(13.72549%,12.156863%,12.54902%);stroke-opacity:1;stroke-miterlimit:22.926001;" d="M -43.465273 184.962578 L 253.602361 184.962578 C 268.02312 184.962578 279.79678 188.064385 279.79678 191.851006 L 279.79678 312.942315 C 279.79678 316.728936 268.02312 319.830742 253.602361 319.830742 L -43.465273 319.830742 C -57.886032 319.830742 -69.699202 316.728936 -69.699202 312.942315 L -69.699202 191.851006 C -69.699202 188.064385 -57.886032 184.962578 -43.465273 184.962578 Z M -43.465273 184.962578 " transform="matrix(0.0988701,0,0,0.0969697,6.984914,0.884547)"/>
<path style=" stroke:none;fill-rule:nonzero;fill:rgb(0%,0%,0%);fill-opacity:1;" d="M 5.339844 22.222656 L 5.339844 23.21875 C 5.339844 23.414062 5.351562 23.539062 5.378906 23.585938 C 5.402344 23.636719 5.445312 23.679688 5.507812 23.707031 C 5.570312 23.738281 5.683594 23.753906 5.847656 23.753906 L 5.847656 23.851562 L 3.984375 23.851562 L 3.984375 23.753906 C 4.15625 23.753906 4.269531 23.738281 4.332031 23.707031 C 4.390625 23.675781 4.433594 23.636719 4.457031 23.585938 C 4.480469 23.535156 4.496094 23.414062 4.496094 23.21875 L 4.496094 20.886719 C 4.496094 20.691406 4.480469 20.570312 4.457031 20.519531 C 4.433594 20.46875 4.390625 20.429688 4.328125 20.398438 C 4.269531 20.371094 4.152344 20.355469 3.984375 20.355469 L 3.984375 20.257812 L 5.585938 20.257812 C 6.109375 20.257812 6.488281 20.347656 6.71875 20.53125 C 6.945312 20.714844 7.058594 20.945312 7.058594 21.222656 C 7.058594 21.453125 6.984375 21.652344 6.839844 21.820312 C 6.691406 21.988281 6.488281 22.101562 6.226562 22.160156 C 6.050781 22.203125 5.757812 22.222656 5.339844 22.222656 Z M 5.339844 20.460938 L 5.339844 22.015625 C 5.398438 22.019531 5.445312 22.023438 5.476562 22.023438 C 5.695312 22.023438 5.863281 21.957031 5.984375 21.828125 C 6.101562 21.703125 6.164062 21.503906 6.164062 21.234375 C 6.164062 20.96875 6.101562 20.773438 5.984375 20.648438 C 5.863281 20.523438 5.6875 20.460938 5.453125 20.460938 Z M 5.339844 20.460938 "/>
<path style=" stroke:none;fill-rule:nonzero;fill:rgb(0%,0%,0%);fill-opacity:1;" d="M 8.8125 23.484375 C 8.503906 23.753906 8.226562 23.886719 7.980469 23.886719 C 7.835938 23.886719 7.71875 23.839844 7.621094 23.746094 C 7.527344 23.652344 7.480469 23.539062 7.480469 23.398438 C 7.480469 23.207031 7.5625 23.039062 7.726562 22.886719 C 7.894531 22.738281 8.253906 22.535156 8.8125 22.285156 L 8.8125 22.035156 C 8.8125 21.847656 8.800781 21.730469 8.78125 21.679688 C 8.761719 21.632812 8.722656 21.589844 8.664062 21.554688 C 8.605469 21.519531 8.539062 21.5 8.46875 21.5 C 8.351562 21.5 8.253906 21.523438 8.179688 21.578125 C 8.132812 21.609375 8.109375 21.644531 8.109375 21.6875 C 8.109375 21.726562 8.132812 21.769531 8.183594 21.824219 C 8.253906 21.902344 8.289062 21.976562 8.289062 22.046875 C 8.289062 22.132812 8.253906 22.207031 8.1875 22.265625 C 8.125 22.328125 8.035156 22.359375 7.929688 22.359375 C 7.816406 22.359375 7.722656 22.324219 7.644531 22.257812 C 7.570312 22.191406 7.53125 22.113281 7.53125 22.023438 C 7.53125 21.894531 7.582031 21.773438 7.683594 21.65625 C 7.789062 21.542969 7.929688 21.453125 8.113281 21.390625 C 8.296875 21.328125 8.488281 21.296875 8.6875 21.296875 C 8.925781 21.296875 9.117188 21.347656 9.257812 21.449219 C 9.394531 21.546875 9.488281 21.65625 9.527344 21.773438 C 9.554688 21.847656 9.566406 22.015625 9.566406 22.285156 L 9.566406 23.246094 C 9.566406 23.359375 9.570312 23.429688 9.578125 23.460938 C 9.589844 23.488281 9.601562 23.511719 9.621094 23.523438 C 9.636719 23.539062 9.660156 23.546875 9.683594 23.546875 C 9.730469 23.546875 9.777344 23.515625 9.824219 23.449219 L 9.90625 23.511719 C 9.816406 23.644531 9.722656 23.738281 9.628906 23.796875 C 9.53125 23.855469 9.421875 23.886719 9.296875 23.886719 C 9.15625 23.886719 9.042969 23.851562 8.960938 23.785156 C 8.878906 23.71875 8.828125 23.621094 8.8125 23.484375 Z M 8.8125 23.292969 L 8.8125 22.460938 C 8.59375 22.585938 8.433594 22.722656 8.324219 22.863281 C 8.253906 22.960938 8.21875 23.058594 8.21875 23.152344 C 8.21875 23.234375 8.25 23.308594 8.308594 23.367188 C 8.355469 23.417969 8.417969 23.441406 8.5 23.441406 C 8.589844 23.441406 8.691406 23.390625 8.8125 23.292969 Z M 8.8125 23.292969 "/>
<path style=" stroke:none;fill-rule:nonzero;fill:rgb(0%,0%,0%);fill-opacity:1;" d="M 12.25 23.210938 L 12.332031 23.277344 C 12.214844 23.496094 12.066406 23.660156 11.886719 23.765625 C 11.710938 23.871094 11.519531 23.925781 11.320312 23.925781 C 10.984375 23.925781 10.714844 23.800781 10.511719 23.550781 C 10.3125 23.300781 10.210938 23.003906 10.210938 22.652344 C 10.210938 22.316406 10.300781 22.019531 10.484375 21.761719 C 10.707031 21.453125 11.011719 21.296875 11.402344 21.296875 C 11.664062 21.296875 11.871094 21.363281 12.023438 21.492188 C 12.179688 21.621094 12.257812 21.765625 12.257812 21.925781 C 12.257812 22.023438 12.226562 22.105469 12.164062 22.164062 C 12.101562 22.226562 12.019531 22.253906 11.917969 22.253906 C 11.8125 22.253906 11.722656 22.222656 11.65625 22.152344 C 11.585938 22.082031 11.542969 21.960938 11.527344 21.785156 C 11.515625 21.671875 11.488281 21.59375 11.449219 21.550781 C 11.40625 21.503906 11.359375 21.484375 11.300781 21.484375 C 11.214844 21.484375 11.140625 21.527344 11.082031 21.617188 C 10.988281 21.753906 10.941406 21.964844 10.941406 22.246094 C 10.941406 22.476562 10.976562 22.703125 11.054688 22.914062 C 11.128906 23.128906 11.234375 23.285156 11.363281 23.390625 C 11.464844 23.464844 11.582031 23.503906 11.714844 23.503906 C 11.804688 23.503906 11.886719 23.484375 11.96875 23.441406 C 12.046875 23.402344 12.140625 23.324219 12.25 23.210938 Z M 12.25 23.210938 "/>
<path style=" stroke:none;fill-rule:nonzero;fill:rgb(0%,0%,0%);fill-opacity:1;" d="M 15.453125 21.371094 L 15.453125 21.46875 C 15.332031 21.484375 15.253906 21.515625 15.21875 21.566406 C 15.183594 21.613281 15.164062 21.722656 15.164062 21.882812 L 15.164062 23.359375 C 15.164062 23.515625 15.183594 23.621094 15.226562 23.671875 C 15.265625 23.722656 15.339844 23.75 15.453125 23.753906 L 15.453125 23.851562 L 14.164062 23.851562 L 14.164062 23.753906 C 14.277344 23.753906 14.34375 23.722656 14.371094 23.664062 C 14.394531 23.609375 14.410156 23.511719 14.410156 23.378906 L 14.410156 21.539062 L 13.683594 21.539062 L 13.683594 23.359375 C 13.683594 23.523438 13.699219 23.628906 13.730469 23.679688 C 13.765625 23.730469 13.832031 23.753906 13.929688 23.753906 L 13.929688 23.851562 L 12.644531 23.851562 L 12.644531 23.753906 C 12.753906 23.75 12.828125 23.722656 12.867188 23.671875 C 12.90625 23.617188 12.925781 23.503906 12.925781 23.332031 L 12.925781 21.847656 C 12.925781 21.6875 12.90625 21.582031 12.859375 21.539062 C 12.816406 21.492188 12.742188 21.46875 12.644531 21.46875 L 12.644531 21.371094 Z M 15.453125 21.371094 "/>
<path style=" stroke:none;fill-rule:nonzero;fill:rgb(0%,0%,0%);fill-opacity:1;" d="M 17.355469 23.851562 L 17.355469 23.753906 C 17.515625 23.753906 17.597656 23.636719 17.597656 23.398438 L 17.597656 22.183594 L 16.875 23.398438 C 16.875 23.628906 16.957031 23.75 17.121094 23.753906 L 17.121094 23.851562 L 15.832031 23.851562 L 15.832031 23.753906 C 15.9375 23.753906 16.007812 23.726562 16.050781 23.667969 C 16.09375 23.613281 16.117188 23.511719 16.117188 23.371094 L 16.117188 21.839844 C 16.117188 21.59375 16.023438 21.46875 15.832031 21.46875 L 15.832031 21.371094 L 17.121094 21.371094 L 17.121094 21.46875 C 17.027344 21.472656 16.960938 21.5 16.925781 21.550781 C 16.890625 21.597656 16.875 21.695312 16.875 21.839844 L 16.875 23.050781 L 17.597656 21.820312 C 17.597656 21.691406 17.578125 21.597656 17.539062 21.546875 C 17.5 21.496094 17.441406 21.46875 17.355469 21.46875 L 17.355469 21.371094 L 18.640625 21.371094 L 18.640625 21.46875 C 18.542969 21.472656 18.472656 21.496094 18.425781 21.542969 C 18.378906 21.589844 18.355469 21.675781 18.355469 21.808594 L 18.355469 23.386719 C 18.355469 23.53125 18.375 23.628906 18.417969 23.679688 C 18.460938 23.730469 18.535156 23.753906 18.640625 23.753906 L 18.640625 23.851562 Z M 17.355469 23.851562 "/>
<path style=" stroke:none;fill-rule:nonzero;fill:rgb(0%,0%,0%);fill-opacity:1;" d="M 21.082031 23.210938 L 21.167969 23.277344 C 21.046875 23.496094 20.898438 23.660156 20.722656 23.765625 C 20.542969 23.871094 20.355469 23.925781 20.15625 23.925781 C 19.820312 23.925781 19.550781 23.800781 19.347656 23.550781 C 19.144531 23.300781 19.042969 23.003906 19.042969 22.652344 C 19.042969 22.316406 19.136719 22.019531 19.320312 21.761719 C 19.542969 21.453125 19.847656 21.296875 20.238281 21.296875 C 20.5 21.296875 20.707031 21.363281 20.859375 21.492188 C 21.015625 21.621094 21.089844 21.765625 21.089844 21.925781 C 21.089844 22.023438 21.058594 22.105469 20.996094 22.164062 C 20.9375 22.226562 20.855469 22.253906 20.753906 22.253906 C 20.648438 22.253906 20.558594 22.222656 20.488281 22.152344 C 20.421875 22.082031 20.378906 21.960938 20.359375 21.785156 C 20.351562 21.671875 20.324219 21.59375 20.28125 21.550781 C 20.242188 21.503906 20.191406 21.484375 20.136719 21.484375 C 20.050781 21.484375 19.976562 21.527344 19.914062 21.617188 C 19.820312 21.753906 19.773438 21.964844 19.773438 22.246094 C 19.773438 22.476562 19.8125 22.703125 19.886719 22.914062 C 19.964844 23.128906 20.066406 23.285156 20.199219 23.390625 C 20.296875 23.464844 20.414062 23.503906 20.550781 23.503906 C 20.640625 23.503906 20.722656 23.484375 20.800781 23.441406 C 20.882812 23.402344 20.976562 23.324219 21.082031 23.210938 Z M 21.082031 23.210938 "/>
<path style=" stroke:none;fill-rule:nonzero;fill:rgb(0%,0%,0%);fill-opacity:1;" d="M 22.871094 23.484375 C 22.5625 23.753906 22.285156 23.886719 22.039062 23.886719 C 21.894531 23.886719 21.777344 23.839844 21.679688 23.746094 C 21.585938 23.652344 21.539062 23.539062 21.539062 23.398438 C 21.539062 23.207031 21.621094 23.039062 21.785156 22.886719 C 21.953125 22.738281 22.3125 22.535156 22.871094 22.285156 L 22.871094 22.035156 C 22.871094 21.847656 22.859375 21.730469 22.839844 21.679688 C 22.816406 21.632812 22.777344 21.589844 22.722656 21.554688 C 22.664062 21.519531 22.597656 21.5 22.527344 21.5 C 22.410156 21.5 22.3125 21.523438 22.238281 21.578125 C 22.191406 21.609375 22.167969 21.644531 22.167969 21.6875 C 22.167969 21.726562 22.191406 21.769531 22.242188 21.824219 C 22.3125 21.902344 22.34375 21.976562 22.34375 22.046875 C 22.34375 22.132812 22.3125 22.207031 22.246094 22.265625 C 22.179688 22.328125 22.09375 22.359375 21.988281 22.359375 C 21.875 22.359375 21.78125 22.324219 21.703125 22.257812 C 21.625 22.191406 21.589844 22.113281 21.589844 22.023438 C 21.589844 21.894531 21.640625 21.773438 21.742188 21.65625 C 21.84375 21.542969 21.988281 21.453125 22.171875 21.390625 C 22.355469 21.328125 22.546875 21.296875 22.746094 21.296875 C 22.984375 21.296875 23.175781 21.347656 23.316406 21.449219 C 23.453125 21.546875 23.546875 21.65625 23.585938 21.773438 C 23.613281 21.847656 23.625 22.015625 23.625 22.285156 L 23.625 23.246094 C 23.625 23.359375 23.628906 23.429688 23.636719 23.460938 C 23.648438 23.488281 23.660156 23.511719 23.679688 23.523438 C 23.695312 23.539062 23.71875 23.546875 23.742188 23.546875 C 23.789062 23.546875 23.835938 23.515625 23.882812 23.449219 L 23.964844 23.511719 C 23.875 23.644531 23.78125 23.738281 23.683594 23.796875 C 23.589844 23.855469 23.480469 23.886719 23.355469 23.886719 C 23.210938 23.886719 23.101562 23.851562 23.019531 23.785156 C 22.9375 23.71875 22.886719 23.621094 22.871094 23.484375 Z M 22.871094 23.292969 L 22.871094 22.460938 C 22.652344 22.585938 22.488281 22.722656 22.382812 22.863281 C 22.3125 22.960938 22.277344 23.058594 22.277344 23.152344 C 22.277344 23.234375 22.308594 23.308594 22.367188 23.367188 C 22.414062 23.417969 22.476562 23.441406 22.554688 23.441406 C 22.648438 23.441406 22.75 23.390625 22.871094 23.292969 Z M 22.871094 23.292969 "/>
<path style=" stroke:none;fill-rule:nonzero;fill:rgb(0%,0%,0%);fill-opacity:1;" d="M 24.246094 23.851562 L 24.246094 23.753906 C 24.351562 23.753906 24.425781 23.726562 24.464844 23.675781 C 24.507812 23.621094 24.53125 23.523438 24.53125 23.375 L 24.53125 21.855469 C 24.53125 21.699219 24.507812 21.597656 24.46875 21.546875 C 24.425781 21.496094 24.351562 21.46875 24.246094 21.46875 L 24.246094 21.371094 L 25.53125 21.371094 L 25.53125 21.46875 C 25.441406 21.472656 25.378906 21.496094 25.34375 21.539062 C 25.304688 21.582031 25.285156 21.679688 25.285156 21.828125 L 25.285156 22.484375 L 26.011719 22.484375 L 26.011719 21.828125 C 26.011719 21.703125 25.996094 21.613281 25.972656 21.554688 C 25.945312 21.5 25.875 21.46875 25.769531 21.46875 L 25.769531 21.371094 L 27.050781 21.371094 L 27.050781 21.46875 C 26.949219 21.46875 26.875 21.496094 26.832031 21.546875 C 26.789062 21.597656 26.769531 21.679688 26.769531 21.800781 L 26.769531 23.375 C 26.769531 23.53125 26.789062 23.632812 26.832031 23.679688 C 26.871094 23.726562 26.945312 23.75 27.050781 23.753906 L 27.050781 23.851562 L 25.769531 23.851562 L 25.769531 23.753906 C 25.859375 23.75 25.921875 23.730469 25.957031 23.691406 C 25.992188 23.652344 26.011719 23.554688 26.011719 23.394531 L 26.011719 22.648438 L 25.285156 22.648438 L 25.285156 23.375 C 25.285156 23.535156 25.304688 23.636719 25.34375 23.683594 C 25.378906 23.730469 25.441406 23.753906 25.53125 23.753906 L 25.53125 23.851562 Z M 24.246094 23.851562 "/>
<path style=" stroke:none;fill-rule:nonzero;fill:rgb(0%,0%,0%);fill-opacity:1;" d="M 28.957031 23.851562 L 28.957031 23.753906 C 29.121094 23.753906 29.203125 23.636719 29.203125 23.398438 L 29.203125 22.183594 L 28.476562 23.398438 C 28.480469 23.628906 28.5625 23.75 28.722656 23.753906 L 28.722656 23.851562 L 27.4375 23.851562 L 27.4375 23.753906 C 27.539062 23.753906 27.613281 23.726562 27.65625 23.667969 C 27.699219 23.613281 27.71875 23.511719 27.71875 23.371094 L 27.71875 21.839844 C 27.71875 21.59375 27.625 21.46875 27.4375 21.46875 L 27.4375 21.371094 L 28.722656 21.371094 L 28.722656 21.46875 C 28.628906 21.472656 28.566406 21.5 28.53125 21.550781 C 28.496094 21.597656 28.476562 21.695312 28.476562 21.839844 L 28.476562 23.050781 L 29.203125 21.820312 C 29.199219 21.691406 29.179688 21.597656 29.140625 21.546875 C 29.105469 21.496094 29.042969 21.46875 28.957031 21.46875 L 28.957031 21.371094 L 30.246094 21.371094 L 30.246094 21.46875 C 30.148438 21.472656 30.074219 21.496094 30.027344 21.542969 C 29.980469 21.589844 29.957031 21.675781 29.957031 21.808594 L 29.957031 23.386719 C 29.957031 23.53125 29.980469 23.628906 30.023438 23.679688 C 30.066406 23.730469 30.140625 23.753906 30.246094 23.753906 L 30.246094 23.851562 Z M 28.957031 23.851562 "/>
<path style=" stroke:none;fill-rule:nonzero;fill:rgb(0%,0%,0%);fill-opacity:1;" d="M 32.765625 22.523438 L 31.378906 22.523438 C 31.394531 22.851562 31.484375 23.113281 31.644531 23.300781 C 31.769531 23.449219 31.917969 23.523438 32.09375 23.523438 C 32.203125 23.523438 32.300781 23.492188 32.390625 23.433594 C 32.476562 23.375 32.570312 23.269531 32.671875 23.113281 L 32.765625 23.171875 C 32.628906 23.445312 32.476562 23.640625 32.3125 23.753906 C 32.144531 23.867188 31.953125 23.925781 31.734375 23.925781 C 31.359375 23.925781 31.074219 23.785156 30.882812 23.5 C 30.726562 23.273438 30.652344 22.992188 30.652344 22.652344 C 30.652344 22.238281 30.765625 21.910156 30.992188 21.664062 C 31.21875 21.421875 31.488281 21.296875 31.792969 21.296875 C 32.050781 21.296875 32.273438 21.402344 32.460938 21.605469 C 32.648438 21.8125 32.75 22.117188 32.765625 22.523438 Z M 32.101562 22.34375 C 32.101562 22.0625 32.085938 21.867188 32.050781 21.757812 C 32.019531 21.652344 31.972656 21.574219 31.90625 21.519531 C 31.867188 21.488281 31.816406 21.46875 31.753906 21.46875 C 31.660156 21.46875 31.582031 21.515625 31.523438 21.605469 C 31.417969 21.761719 31.363281 21.980469 31.363281 22.253906 L 31.363281 22.34375 Z M 32.101562 22.34375 "/>
<path style=" stroke:none;fill-rule:nonzero;fill:rgb(0%,0%,0%);fill-opacity:1;" d="M 7.859375 26.738281 L 7.859375 26.835938 C 7.738281 26.835938 7.664062 26.867188 7.628906 26.929688 C 7.597656 26.988281 7.582031 27.066406 7.582031 27.167969 L 7.582031 28.769531 C 7.582031 28.914062 7.601562 29.007812 7.648438 29.050781 C 7.691406 29.09375 7.761719 29.117188 7.859375 29.121094 L 7.859375 29.871094 L 7.757812 29.871094 C 7.71875 29.4375 7.4375 29.21875 6.917969 29.21875 L 6.183594 29.21875 C 5.683594 29.21875 5.40625 29.4375 5.355469 29.871094 L 5.253906 29.871094 L 5.253906 29.121094 C 5.480469 29.101562 5.65625 28.902344 5.785156 28.519531 C 5.910156 28.140625 5.976562 27.730469 5.976562 27.300781 C 5.976562 27.167969 5.964844 27.070312 5.945312 27.003906 C 5.925781 26.9375 5.898438 26.894531 5.859375 26.871094 C 5.824219 26.851562 5.753906 26.839844 5.660156 26.835938 L 5.660156 26.738281 Z M 6.828125 26.90625 L 6.160156 26.90625 L 6.160156 27.296875 C 6.160156 28.058594 6.015625 28.644531 5.730469 29.054688 L 6.5625 29.054688 C 6.738281 29.054688 6.828125 28.949219 6.828125 28.738281 Z M 6.828125 26.90625 "/>
<path style=" stroke:none;fill-rule:nonzero;fill:rgb(0%,0%,0%);fill-opacity:1;" d="M 8.253906 26.738281 L 9.648438 26.738281 C 9.941406 26.738281 10.179688 26.792969 10.363281 26.894531 C 10.550781 27 10.644531 27.152344 10.644531 27.355469 C 10.644531 27.628906 10.449219 27.8125 10.066406 27.910156 C 10.585938 27.96875 10.847656 28.183594 10.847656 28.550781 C 10.847656 28.773438 10.742188 28.941406 10.53125 29.050781 C 10.320312 29.164062 10.03125 29.21875 9.664062 29.21875 L 8.253906 29.21875 L 8.253906 29.121094 C 8.378906 29.109375 8.457031 29.078125 8.484375 29.035156 C 8.515625 28.992188 8.53125 28.90625 8.53125 28.777344 L 8.53125 27.300781 C 8.53125 27.097656 8.511719 26.976562 8.480469 26.925781 C 8.445312 26.875 8.371094 26.847656 8.253906 26.835938 Z M 9.324219 27.84375 C 9.753906 27.832031 9.96875 27.675781 9.96875 27.375 C 9.96875 27.070312 9.753906 26.910156 9.324219 26.90625 Z M 9.324219 28.011719 L 9.324219 28.828125 C 9.324219 28.910156 9.335938 28.96875 9.363281 29.003906 C 9.390625 29.039062 9.449219 29.054688 9.539062 29.054688 C 9.691406 29.054688 9.820312 29.003906 9.925781 28.898438 C 10.035156 28.792969 10.085938 28.660156 10.085938 28.5 C 10.085938 28.332031 10.027344 28.207031 9.910156 28.128906 C 9.792969 28.050781 9.597656 28.011719 9.324219 28.011719 Z M 9.324219 28.011719 "/>
<path style=" stroke:none;fill-rule:nonzero;fill:rgb(0%,0%,0%);fill-opacity:1;" d="M 12.761719 29.21875 L 12.761719 29.121094 C 12.925781 29.121094 13.007812 29.003906 13.007812 28.765625 L 13.007812 27.550781 L 12.28125 28.765625 C 12.285156 28.996094 12.367188 29.117188 12.527344 29.121094 L 12.527344 29.21875 L 11.242188 29.21875 L 11.242188 29.121094 C 11.34375 29.121094 11.417969 29.09375 11.460938 29.035156 C 11.503906 28.980469 11.523438 28.878906 11.523438 28.738281 L 11.523438 27.207031 C 11.523438 26.960938 11.429688 26.835938 11.242188 26.835938 L 11.242188 26.738281 L 12.527344 26.738281 L 12.527344 26.835938 C 12.433594 26.839844 12.371094 26.867188 12.335938 26.917969 C 12.300781 26.964844 12.28125 27.0625 12.28125 27.207031 L 12.28125 28.417969 L 13.007812 27.1875 C 13.003906 27.058594 12.984375 26.964844 12.945312 26.914062 C 12.910156 26.863281 12.847656 26.835938 12.761719 26.835938 L 12.761719 26.738281 L 14.050781 26.738281 L 14.050781 26.835938 C 13.953125 26.839844 13.878906 26.863281 13.832031 26.910156 C 13.785156 26.957031 13.761719 27.042969 13.761719 27.175781 L 13.761719 28.753906 C 13.761719 28.898438 13.785156 28.996094 13.828125 29.046875 C 13.871094 29.097656 13.945312 29.121094 14.050781 29.121094 L 14.050781 29.21875 Z M 12.761719 29.21875 "/>
<path style=" stroke:none;fill-rule:nonzero;fill:rgb(0%,0%,0%);fill-opacity:1;" d="M 15.597656 29.21875 L 15.597656 29.121094 C 15.695312 29.117188 15.765625 29.09375 15.808594 29.039062 C 15.851562 28.988281 15.871094 28.890625 15.871094 28.753906 L 15.871094 28.011719 C 15.804688 28.011719 15.746094 28.0625 15.695312 28.160156 L 15.160156 29.21875 L 14.273438 29.21875 L 14.273438 29.121094 C 14.347656 29.121094 14.398438 29.109375 14.433594 29.085938 C 14.464844 29.066406 14.503906 29.011719 14.546875 28.929688 L 14.898438 28.230469 C 14.964844 28.101562 15.035156 28.011719 15.105469 27.96875 C 15.179688 27.921875 15.292969 27.890625 15.449219 27.867188 C 15.351562 27.761719 15.265625 27.578125 15.183594 27.320312 C 15.136719 27.171875 15.101562 27.074219 15.074219 27.03125 C 15.046875 26.988281 15.015625 26.96875 14.980469 26.96875 C 14.933594 26.96875 14.910156 27.023438 14.902344 27.136719 C 14.890625 27.257812 14.867188 27.34375 14.832031 27.394531 C 14.792969 27.445312 14.730469 27.472656 14.640625 27.472656 C 14.566406 27.472656 14.5 27.445312 14.4375 27.386719 C 14.378906 27.332031 14.347656 27.242188 14.347656 27.121094 C 14.347656 27.007812 14.386719 26.910156 14.46875 26.824219 C 14.550781 26.738281 14.660156 26.695312 14.796875 26.695312 C 14.925781 26.695312 15.035156 26.742188 15.113281 26.828125 C 15.195312 26.917969 15.269531 27.0625 15.339844 27.261719 C 15.429688 27.519531 15.503906 27.679688 15.5625 27.746094 C 15.621094 27.8125 15.726562 27.84375 15.871094 27.84375 L 15.871094 27.191406 C 15.871094 27.0625 15.847656 26.972656 15.804688 26.917969 C 15.757812 26.867188 15.691406 26.839844 15.597656 26.835938 L 15.597656 26.738281 L 16.90625 26.738281 L 16.90625 26.835938 C 16.792969 26.84375 16.722656 26.871094 16.683594 26.917969 C 16.648438 26.964844 16.628906 27.0625 16.628906 27.21875 L 16.628906 27.84375 C 16.71875 27.84375 16.796875 27.828125 16.863281 27.789062 C 16.929688 27.753906 16.976562 27.703125 17.011719 27.640625 C 17.042969 27.578125 17.097656 27.433594 17.179688 27.207031 C 17.25 27.003906 17.328125 26.863281 17.414062 26.796875 C 17.503906 26.730469 17.597656 26.695312 17.703125 26.695312 C 17.824219 26.695312 17.929688 26.734375 18.019531 26.8125 C 18.109375 26.890625 18.152344 26.992188 18.152344 27.121094 C 18.152344 27.222656 18.125 27.308594 18.070312 27.371094 C 18.015625 27.4375 17.941406 27.46875 17.855469 27.46875 C 17.683594 27.46875 17.597656 27.351562 17.59375 27.113281 C 17.59375 27.015625 17.570312 26.96875 17.527344 26.96875 C 17.453125 26.96875 17.382812 27.089844 17.308594 27.339844 C 17.230469 27.59375 17.144531 27.769531 17.054688 27.867188 C 17.21875 27.890625 17.335938 27.925781 17.40625 27.976562 C 17.476562 28.027344 17.546875 28.128906 17.625 28.28125 L 17.953125 28.929688 C 17.992188 29.007812 18.027344 29.058594 18.0625 29.082031 C 18.09375 29.105469 18.148438 29.117188 18.222656 29.121094 L 18.222656 29.21875 L 17.335938 29.21875 L 16.800781 28.160156 C 16.753906 28.0625 16.695312 28.015625 16.628906 28.011719 L 16.628906 28.800781 C 16.628906 28.929688 16.644531 29.007812 16.679688 29.046875 C 16.714844 29.082031 16.789062 29.105469 16.90625 29.121094 L 16.90625 29.21875 Z M 15.597656 29.21875 "/>
<path style=" stroke:none;fill-rule:nonzero;fill:rgb(0%,0%,0%);fill-opacity:1;" d="M 20.582031 27.890625 L 19.195312 27.890625 C 19.210938 28.21875 19.300781 28.480469 19.460938 28.667969 C 19.585938 28.816406 19.734375 28.890625 19.910156 28.890625 C 20.019531 28.890625 20.117188 28.859375 20.207031 28.800781 C 20.292969 28.742188 20.390625 28.636719 20.488281 28.480469 L 20.582031 28.539062 C 20.445312 28.8125 20.292969 29.007812 20.128906 29.121094 C 19.960938 29.234375 19.769531 29.292969 19.550781 29.292969 C 19.175781 29.292969 18.894531 29.152344 18.699219 28.867188 C 18.546875 28.640625 18.46875 28.359375 18.46875 28.019531 C 18.46875 27.605469 18.582031 27.277344 18.808594 27.03125 C 19.039062 26.789062 19.304688 26.664062 19.609375 26.664062 C 19.867188 26.664062 20.089844 26.769531 20.277344 26.972656 C 20.464844 27.179688 20.566406 27.484375 20.582031 27.890625 Z M 19.917969 27.710938 C 19.917969 27.429688 19.902344 27.234375 19.871094 27.125 C 19.835938 27.019531 19.789062 26.941406 19.722656 26.886719 C 19.683594 26.855469 19.632812 26.835938 19.570312 26.835938 C 19.476562 26.835938 19.398438 26.882812 19.339844 26.972656 C 19.234375 27.128906 19.179688 27.347656 19.179688 27.621094 L 19.179688 27.710938 Z M 19.917969 27.710938 "/>
<path style=" stroke:none;fill-rule:nonzero;fill:rgb(0%,0%,0%);fill-opacity:1;" d="M 20.898438 29.21875 L 20.898438 29.121094 C 21.003906 29.121094 21.074219 29.09375 21.117188 29.042969 C 21.160156 28.992188 21.183594 28.890625 21.183594 28.742188 L 21.183594 27.222656 C 21.183594 27.066406 21.160156 26.964844 21.121094 26.914062 C 21.078125 26.863281 21.003906 26.835938 20.898438 26.835938 L 20.898438 26.738281 L 22.183594 26.738281 L 22.183594 26.835938 C 22.09375 26.839844 22.03125 26.863281 21.992188 26.90625 C 21.957031 26.949219 21.9375 27.046875 21.9375 27.195312 L 21.9375 27.851562 L 22.664062 27.851562 L 22.664062 27.195312 C 22.664062 27.070312 22.648438 26.980469 22.621094 26.925781 C 22.59375 26.867188 22.527344 26.835938 22.417969 26.835938 L 22.417969 26.738281 L 23.703125 26.738281 L 23.703125 26.835938 C 23.597656 26.835938 23.527344 26.863281 23.484375 26.914062 C 23.441406 26.964844 23.421875 27.046875 23.421875 27.167969 L 23.421875 28.742188 C 23.421875 28.898438 23.441406 29 23.480469 29.046875 C 23.523438 29.09375 23.597656 29.117188 23.703125 29.121094 L 23.703125 29.21875 L 22.417969 29.21875 L 22.417969 29.121094 C 22.511719 29.117188 22.574219 29.097656 22.609375 29.058594 C 22.644531 29.019531 22.664062 28.921875 22.664062 28.761719 L 22.664062 28.019531 L 21.9375 28.019531 L 21.9375 28.742188 C 21.9375 28.902344 21.957031 29.003906 21.992188 29.050781 C 22.03125 29.097656 22.09375 29.121094 22.183594 29.121094 L 22.183594 29.21875 Z M 20.898438 29.21875 "/>
<path style=" stroke:none;fill-rule:nonzero;fill:rgb(0%,0%,0%);fill-opacity:1;" d="M 25.609375 29.21875 L 25.609375 29.121094 C 25.773438 29.121094 25.851562 29.003906 25.851562 28.765625 L 25.851562 27.550781 L 25.128906 28.765625 C 25.128906 28.996094 25.210938 29.117188 25.375 29.121094 L 25.375 29.21875 L 24.089844 29.21875 L 24.089844 29.121094 C 24.191406 29.121094 24.265625 29.09375 24.308594 29.035156 C 24.351562 28.980469 24.371094 28.878906 24.371094 28.738281 L 24.371094 27.207031 C 24.371094 26.960938 24.277344 26.835938 24.089844 26.835938 L 24.089844 26.738281 L 25.375 26.738281 L 25.375 26.835938 C 25.28125 26.839844 25.214844 26.867188 25.179688 26.917969 C 25.144531 26.964844 25.128906 27.0625 25.128906 27.207031 L 25.128906 28.417969 L 25.851562 27.1875 C 25.851562 27.058594 25.832031 26.964844 25.792969 26.914062 C 25.757812 26.863281 25.695312 26.835938 25.609375 26.835938 L 25.609375 26.738281 L 26.898438 26.738281 L 26.898438 26.835938 C 26.800781 26.839844 26.726562 26.863281 26.679688 26.910156 C 26.632812 26.957031 26.609375 27.042969 26.609375 27.175781 L 26.609375 28.753906 C 26.609375 28.898438 26.632812 28.996094 26.675781 29.046875 C 26.714844 29.097656 26.789062 29.121094 26.898438 29.121094 L 26.898438 29.21875 Z M 25.609375 29.21875 "/>
<path style=" stroke:none;fill-rule:nonzero;fill:rgb(0%,0%,0%);fill-opacity:1;" d="M 29.875 26.738281 L 29.875 26.835938 C 29.789062 26.835938 29.722656 26.859375 29.675781 26.902344 C 29.632812 26.949219 29.609375 27.054688 29.609375 27.222656 L 29.609375 28.636719 C 29.609375 28.820312 29.628906 28.945312 29.667969 29.011719 C 29.707031 29.078125 29.777344 29.113281 29.875 29.121094 L 29.875 29.21875 L 28.582031 29.21875 L 28.582031 29.121094 C 28.761719 29.113281 28.851562 28.964844 28.851562 28.675781 L 28.851562 28.101562 C 28.785156 28.101562 28.75 28.105469 28.742188 28.105469 C 28.714844 28.105469 28.671875 28.101562 28.613281 28.101562 L 28.183594 29.21875 L 27.183594 29.21875 L 27.183594 29.121094 C 27.378906 29.117188 27.519531 29.007812 27.601562 28.792969 L 27.894531 28.019531 C 27.511719 27.902344 27.320312 27.691406 27.320312 27.390625 C 27.320312 27.234375 27.371094 27.101562 27.472656 26.992188 C 27.574219 26.882812 27.691406 26.8125 27.828125 26.785156 C 27.964844 26.753906 28.207031 26.738281 28.550781 26.738281 Z M 28.851562 26.945312 C 28.746094 26.917969 28.65625 26.90625 28.582031 26.90625 C 28.429688 26.90625 28.316406 26.953125 28.238281 27.042969 C 28.15625 27.132812 28.117188 27.25 28.117188 27.386719 C 28.117188 27.554688 28.171875 27.691406 28.28125 27.789062 C 28.390625 27.890625 28.550781 27.941406 28.765625 27.941406 C 28.785156 27.941406 28.8125 27.941406 28.851562 27.9375 Z M 28.851562 26.945312 "/>
</g>
</svg>
