<?xml version="1.0" encoding="UTF-8"?>
<svg xmlns="http://www.w3.org/2000/svg" xmlns:xlink="http://www.w3.org/1999/xlink" width="35px" height="35px" viewBox="0 0 35 52" version="1.1">
<g id="surface1">
<path style=" stroke:none;fill-rule:nonzero;fill:rgb(100%,100%,100%);fill-opacity:1;" d="M 2.625 0 L 32.375 0 C 33.824219 0 35 1.164062 35 2.601562 L 35 49.398438 C 35 50.835938 33.824219 52 32.375 52 L 2.625 52 C 1.175781 52 0 50.835938 0 49.398438 L 0 2.601562 C 0 1.164062 1.175781 0 2.625 0 Z M 2.625 0 "/>
<path style="fill:none;stroke-width:2;stroke-linecap:butt;stroke-linejoin:miter;stroke:rgb(0%,0%,0%);stroke-opacity:1;stroke-miterlimit:4;" d="M 45 1.014123 L 555 1.014123 C 579.308036 1.014123 598.995536 20.688101 598.995536 45.027043 L 598.995536 854.972957 C 598.995536 879.311899 579.308036 898.985877 555 898.985877 L 45 898.985877 C 20.691964 898.985877 1.004464 879.311899 1.004464 854.972957 L 1.004464 45.027043 C 1.004464 20.688101 20.691964 1.014123 45 1.014123 Z M 45 1.014123 " transform="matrix(0.0583333,0,0,0.0577778,0,0)"/>
<path style=" stroke:none;fill-rule:nonzero;fill:rgb(5.098039%,41.176471%,88.235294%);fill-opacity:1;" d="M 1.167969 49.398438 C 1.167969 50.199219 1.820312 50.84375 2.625 50.84375 L 32.375 50.84375 C 33.179688 50.84375 33.832031 50.199219 33.832031 49.398438 L 33.832031 2.601562 C 33.832031 1.800781 33.179688 1.15625 32.375 1.15625 L 2.625 1.15625 C 1.820312 1.15625 1.167969 1.84375 1.167969 2.601562 Z M 3.28125 34.558594 L 3.28125 10.941406 C 3.28125 9.683594 4.308594 8.667969 5.578125 8.667969 L 29.421875 8.667969 C 30.691406 8.667969 31.71875 9.683594 31.71875 10.941406 L 31.71875 34.558594 C 31.71875 35.816406 30.691406 36.832031 29.421875 36.832031 L 5.578125 36.832031 C 4.308594 36.832031 3.28125 35.816406 3.28125 34.558594 Z M 3.28125 34.558594 "/>
<path style=" stroke:none;fill-rule:nonzero;fill:rgb(0%,0%,0%);fill-opacity:1;" d="M 15.3125 19.230469 L 19.6875 19.230469 L 21.328125 17.332031 L 17.773438 14.082031 L 17.773438 13 L 17.226562 13 L 17.226562 14.082031 L 13.671875 17.332031 Z M 15.5625 18.6875 L 14.429688 17.378906 L 17.5 14.570312 L 20.570312 17.378906 L 19.4375 18.6875 Z M 15.5625 18.6875 "/>
<path style=" stroke:none;fill-rule:nonzero;fill:rgb(0%,0%,0%);fill-opacity:1;" d="M 7.109375 28.707031 L 8.011719 28.707031 C 8.011719 27.8125 8.832031 27.082031 9.84375 27.082031 L 25.15625 27.082031 C 26.167969 27.082031 26.988281 27.8125 26.988281 28.707031 L 27.890625 28.707031 C 28.796875 28.707031 29.53125 27.980469 29.53125 27.082031 L 29.53125 24.320312 C 29.53125 24.035156 29.457031 23.753906 29.3125 23.507812 L 27.417969 20.257812 C 27.261719 19.988281 26.972656 19.824219 26.660156 19.824219 L 8.339844 19.824219 C 8.027344 19.824219 7.738281 19.988281 7.582031 20.257812 L 5.6875 23.507812 C 5.542969 23.753906 5.46875 24.035156 5.46875 24.320312 L 5.46875 27.082031 C 5.46875 27.980469 6.203125 28.707031 7.109375 28.707031 Z M 6.40625 23.292969 C 6.40625 23.195312 6.429688 23.101562 6.476562 23.019531 L 7.742188 20.855469 C 7.839844 20.6875 8.019531 20.582031 8.214844 20.582031 L 9.515625 20.582031 C 9.816406 20.582031 10.0625 20.824219 10.0625 21.125 L 10.0625 23.292969 C 10.0625 23.589844 9.816406 23.832031 9.515625 23.832031 L 6.953125 23.832031 C 6.648438 23.832031 6.40625 23.589844 6.40625 23.292969 Z M 10.5 23.292969 L 10.5 21.125 C 10.5 20.824219 10.746094 20.582031 11.046875 20.582031 L 14.328125 20.582031 C 14.628906 20.582031 14.875 20.824219 14.875 21.125 L 14.875 23.292969 C 14.875 23.589844 14.628906 23.832031 14.328125 23.832031 L 11.046875 23.832031 C 10.746094 23.832031 10.5 23.589844 10.5 23.292969 Z M 15.3125 23.292969 L 15.3125 21.125 C 15.3125 20.824219 15.558594 20.582031 15.859375 20.582031 L 19.140625 20.582031 C 19.441406 20.582031 19.6875 20.824219 19.6875 21.125 L 19.6875 23.292969 C 19.6875 23.589844 19.441406 23.832031 19.140625 23.832031 L 15.859375 23.832031 C 15.558594 23.832031 15.3125 23.589844 15.3125 23.292969 Z M 20.125 23.292969 L 20.125 21.125 C 20.125 20.824219 20.371094 20.582031 20.671875 20.582031 L 23.953125 20.582031 C 24.253906 20.582031 24.5 20.824219 24.5 21.125 L 24.5 23.292969 C 24.5 23.589844 24.253906 23.832031 23.953125 23.832031 L 20.671875 23.832031 C 20.371094 23.832031 20.125 23.589844 20.125 23.292969 Z M 24.9375 23.292969 L 24.9375 21.125 C 24.9375 20.824219 25.183594 20.582031 25.484375 20.582031 L 26.785156 20.582031 C 26.980469 20.582031 27.160156 20.6875 27.257812 20.855469 L 28.523438 23.019531 C 28.570312 23.101562 28.59375 23.195312 28.59375 23.292969 C 28.59375 23.589844 28.351562 23.832031 28.046875 23.832031 L 25.484375 23.832031 C 25.183594 23.832031 24.9375 23.589844 24.9375 23.292969 Z M 24.9375 23.292969 "/>
<path style=" stroke:none;fill-rule:nonzero;fill:rgb(0%,0%,0%);fill-opacity:1;" d="M 14.410156 28.707031 L 14.410156 28.816406 L 20.589844 28.816406 L 20.589844 28.707031 C 20.589844 28.164062 20.867188 27.65625 21.324219 27.355469 L 13.675781 27.355469 C 14.132812 27.65625 14.410156 28.164062 14.410156 28.707031 Z M 14.410156 28.707031 "/>
<path style=" stroke:none;fill-rule:nonzero;fill:rgb(0%,0%,0%);fill-opacity:1;" d="M 11.210938 28.898438 C 11.210938 29.691406 10.5625 30.332031 9.761719 30.332031 C 8.960938 30.332031 8.3125 29.691406 8.3125 28.898438 C 8.3125 28.105469 8.960938 27.460938 9.761719 27.460938 C 10.5625 27.460938 11.210938 28.105469 11.210938 28.898438 Z M 11.210938 28.898438 "/>
<path style=" stroke:none;fill-rule:nonzero;fill:rgb(0%,0%,0%);fill-opacity:1;" d="M 14.109375 28.898438 C 14.109375 29.691406 13.460938 30.332031 12.660156 30.332031 C 11.859375 30.332031 11.210938 29.691406 11.210938 28.898438 C 11.210938 28.105469 11.859375 27.460938 12.660156 27.460938 C 13.460938 27.460938 14.109375 28.105469 14.109375 28.898438 Z M 14.109375 28.898438 "/>
<path style=" stroke:none;fill-rule:nonzero;fill:rgb(0%,0%,0%);fill-opacity:1;" d="M 23.789062 28.898438 C 23.789062 29.691406 23.140625 30.332031 22.339844 30.332031 C 21.539062 30.332031 20.890625 29.691406 20.890625 28.898438 C 20.890625 28.105469 21.539062 27.460938 22.339844 27.460938 C 23.140625 27.460938 23.789062 28.105469 23.789062 28.898438 Z M 23.789062 28.898438 "/>
<path style=" stroke:none;fill-rule:nonzero;fill:rgb(0%,0%,0%);fill-opacity:1;" d="M 26.6875 28.898438 C 26.6875 29.691406 26.039062 30.332031 25.238281 30.332031 C 24.4375 30.332031 23.789062 29.691406 23.789062 28.898438 C 23.789062 28.105469 24.4375 27.460938 25.238281 27.460938 C 26.039062 27.460938 26.6875 28.105469 26.6875 28.898438 Z M 26.6875 28.898438 "/>
</g>
</svg>
