<?xml version="1.0" encoding="UTF-8"?>
<svg xmlns="http://www.w3.org/2000/svg" xmlns:xlink="http://www.w3.org/1999/xlink" width="35px" height="35px" viewBox="0 0 35 46" version="1.1">
<g id="surface1">
<path style="fill-rule:nonzero;fill:rgb(100%,100%,100%);fill-opacity:1;stroke-width:1.925;stroke-linecap:butt;stroke-linejoin:miter;stroke:rgb(13.72549%,12.156863%,12.54902%);stroke-opacity:1;stroke-miterlimit:22.926001;" d="M -580.148884 202.296595 L -279.326117 202.296595 C -264.741742 202.296595 -252.761719 205.750908 -252.761719 209.968385 L -252.761719 344.887457 C -252.761719 349.104934 -264.741742 352.559247 -279.326117 352.559247 L -580.148884 352.559247 C -594.773326 352.559247 -606.713282 349.104934 -606.713282 344.887457 L -606.713282 209.968385 C -606.713282 205.750908 -594.773326 202.296595 -580.148884 202.296595 Z M -580.148884 202.296595 " transform="matrix(0.097493,0,0,0.0972516,59.564382,11.584148)"/>
<path style="fill-rule:nonzero;fill:rgb(100%,100%,100%);fill-opacity:1;stroke-width:1.925;stroke-linecap:butt;stroke-linejoin:miter;stroke:rgb(13.72549%,12.156863%,12.54902%);stroke-opacity:1;stroke-miterlimit:22.926001;" d="M -583.434376 -118.151265 L -282.611608 -118.151265 C -268.027233 -118.151265 -256.087277 -110.921306 -256.087277 -102.124856 L -256.087277 179.803388 C -256.087277 188.640005 -268.027233 195.829798 -282.611608 195.829798 L -583.434376 195.829798 C -598.058818 195.829798 -609.998773 188.640005 -609.998773 179.803388 L -609.998773 -102.124856 C -609.998773 -110.921306 -598.058818 -118.151265 -583.434376 -118.151265 Z M -583.434376 -118.151265 " transform="matrix(0.097493,0,0,0.0972516,59.564382,11.584148)"/>
<path style=" stroke:none;fill-rule:nonzero;fill:rgb(0%,0%,0%);fill-opacity:1;" d="M 5.050781 35.746094 L 5.050781 36.746094 C 5.050781 36.9375 5.066406 37.0625 5.089844 37.113281 C 5.113281 37.164062 5.15625 37.203125 5.214844 37.234375 C 5.277344 37.265625 5.390625 37.277344 5.554688 37.277344 L 5.554688 37.378906 L 3.71875 37.378906 L 3.71875 37.277344 C 3.882812 37.277344 3.996094 37.261719 4.058594 37.230469 C 4.117188 37.203125 4.160156 37.160156 4.183594 37.109375 C 4.207031 37.0625 4.21875 36.9375 4.21875 36.746094 L 4.21875 34.402344 C 4.21875 34.210938 4.207031 34.085938 4.183594 34.035156 C 4.160156 33.984375 4.117188 33.945312 4.054688 33.914062 C 3.996094 33.882812 3.882812 33.871094 3.71875 33.871094 L 3.71875 33.769531 L 5.292969 33.769531 C 5.8125 33.769531 6.183594 33.863281 6.410156 34.046875 C 6.636719 34.230469 6.75 34.460938 6.75 34.738281 C 6.75 34.972656 6.675781 35.171875 6.53125 35.339844 C 6.382812 35.507812 6.183594 35.621094 5.925781 35.679688 C 5.753906 35.722656 5.464844 35.746094 5.050781 35.746094 Z M 5.050781 33.980469 L 5.050781 35.535156 C 5.113281 35.539062 5.15625 35.542969 5.1875 35.542969 C 5.402344 35.542969 5.570312 35.476562 5.6875 35.347656 C 5.804688 35.222656 5.863281 35.023438 5.863281 34.753906 C 5.863281 34.484375 5.804688 34.289062 5.6875 34.164062 C 5.570312 34.039062 5.394531 33.980469 5.160156 33.980469 Z M 5.050781 33.980469 "/>
<path style=" stroke:none;fill-rule:nonzero;fill:rgb(0%,0%,0%);fill-opacity:1;" d="M 8.476562 37.011719 C 8.171875 37.277344 7.898438 37.410156 7.65625 37.410156 C 7.515625 37.410156 7.398438 37.363281 7.300781 37.273438 C 7.207031 37.179688 7.160156 37.0625 7.160156 36.921875 C 7.160156 36.734375 7.242188 36.5625 7.40625 36.410156 C 7.570312 36.257812 7.925781 36.058594 8.476562 35.804688 L 8.476562 35.554688 C 8.476562 35.367188 8.464844 35.25 8.445312 35.199219 C 8.425781 35.152344 8.386719 35.109375 8.328125 35.074219 C 8.273438 35.035156 8.207031 35.019531 8.136719 35.019531 C 8.023438 35.019531 7.925781 35.042969 7.851562 35.09375 C 7.804688 35.128906 7.78125 35.164062 7.78125 35.207031 C 7.78125 35.246094 7.808594 35.289062 7.855469 35.34375 C 7.925781 35.421875 7.957031 35.496094 7.957031 35.566406 C 7.957031 35.652344 7.925781 35.726562 7.859375 35.789062 C 7.796875 35.847656 7.710938 35.878906 7.605469 35.878906 C 7.496094 35.878906 7.402344 35.847656 7.324219 35.777344 C 7.25 35.710938 7.210938 35.632812 7.210938 35.542969 C 7.210938 35.414062 7.261719 35.292969 7.363281 35.175781 C 7.464844 35.058594 7.605469 34.972656 7.789062 34.910156 C 7.96875 34.847656 8.15625 34.816406 8.351562 34.816406 C 8.589844 34.816406 8.777344 34.867188 8.914062 34.964844 C 9.050781 35.066406 9.140625 35.175781 9.183594 35.292969 C 9.207031 35.367188 9.21875 35.539062 9.21875 35.804688 L 9.21875 36.769531 C 9.21875 36.882812 9.222656 36.957031 9.234375 36.984375 C 9.242188 37.015625 9.253906 37.035156 9.273438 37.050781 C 9.289062 37.0625 9.3125 37.070312 9.335938 37.070312 C 9.378906 37.070312 9.425781 37.039062 9.476562 36.972656 L 9.554688 37.035156 C 9.464844 37.167969 9.375 37.261719 9.28125 37.324219 C 9.183594 37.382812 9.078125 37.410156 8.957031 37.410156 C 8.8125 37.410156 8.703125 37.378906 8.621094 37.3125 C 8.542969 37.246094 8.492188 37.144531 8.476562 37.011719 Z M 8.476562 36.816406 L 8.476562 35.984375 C 8.261719 36.109375 8.101562 36.246094 7.996094 36.386719 C 7.925781 36.484375 7.890625 36.582031 7.890625 36.679688 C 7.890625 36.757812 7.921875 36.832031 7.980469 36.894531 C 8.023438 36.941406 8.085938 36.964844 8.167969 36.964844 C 8.253906 36.964844 8.359375 36.914062 8.476562 36.816406 Z M 8.476562 36.816406 "/>
<path style=" stroke:none;fill-rule:nonzero;fill:rgb(0%,0%,0%);fill-opacity:1;" d="M 11.863281 36.734375 L 11.945312 36.800781 C 11.828125 37.019531 11.683594 37.183594 11.507812 37.289062 C 11.332031 37.398438 11.148438 37.453125 10.949219 37.453125 C 10.617188 37.453125 10.351562 37.328125 10.152344 37.078125 C 9.953125 36.828125 9.855469 36.527344 9.855469 36.175781 C 9.855469 35.835938 9.945312 35.539062 10.125 35.28125 C 10.34375 34.972656 10.644531 34.816406 11.03125 34.816406 C 11.289062 34.816406 11.492188 34.882812 11.644531 35.011719 C 11.796875 35.140625 11.871094 35.285156 11.871094 35.445312 C 11.871094 35.546875 11.839844 35.625 11.78125 35.6875 C 11.71875 35.746094 11.636719 35.777344 11.539062 35.777344 C 11.433594 35.777344 11.347656 35.742188 11.277344 35.671875 C 11.210938 35.601562 11.167969 35.480469 11.152344 35.304688 C 11.140625 35.191406 11.117188 35.113281 11.074219 35.070312 C 11.035156 35.023438 10.984375 35.003906 10.929688 35.003906 C 10.84375 35.003906 10.773438 35.046875 10.710938 35.136719 C 10.621094 35.273438 10.574219 35.484375 10.574219 35.765625 C 10.574219 36 10.609375 36.222656 10.6875 36.4375 C 10.761719 36.652344 10.863281 36.808594 10.992188 36.914062 C 11.089844 36.992188 11.207031 37.027344 11.339844 37.027344 C 11.425781 37.027344 11.507812 37.007812 11.585938 36.96875 C 11.664062 36.925781 11.757812 36.851562 11.863281 36.734375 Z M 11.863281 36.734375 "/>
<path style=" stroke:none;fill-rule:nonzero;fill:rgb(0%,0%,0%);fill-opacity:1;" d="M 15.023438 34.890625 L 15.023438 34.988281 C 14.90625 35 14.828125 35.03125 14.792969 35.082031 C 14.757812 35.132812 14.742188 35.242188 14.742188 35.402344 L 14.742188 36.886719 C 14.742188 37.042969 14.761719 37.144531 14.800781 37.195312 C 14.839844 37.246094 14.914062 37.273438 15.023438 37.277344 L 15.023438 37.378906 L 13.753906 37.378906 L 13.753906 37.277344 C 13.863281 37.277344 13.933594 37.25 13.957031 37.191406 C 13.980469 37.132812 13.992188 37.035156 13.992188 36.902344 L 13.992188 35.058594 L 13.28125 35.058594 L 13.28125 36.886719 C 13.28125 37.046875 13.296875 37.15625 13.328125 37.203125 C 13.359375 37.253906 13.425781 37.277344 13.523438 37.277344 L 13.523438 37.378906 L 12.253906 37.378906 L 12.253906 37.277344 C 12.363281 37.277344 12.433594 37.25 12.472656 37.195312 C 12.511719 37.144531 12.53125 37.03125 12.53125 36.855469 L 12.53125 35.371094 C 12.53125 35.207031 12.511719 35.101562 12.46875 35.058594 C 12.425781 35.011719 12.351562 34.988281 12.253906 34.988281 L 12.253906 34.890625 Z M 15.023438 34.890625 "/>
<path style=" stroke:none;fill-rule:nonzero;fill:rgb(0%,0%,0%);fill-opacity:1;" d="M 16.898438 37.378906 L 16.898438 37.277344 C 17.058594 37.277344 17.140625 37.160156 17.140625 36.921875 L 17.140625 35.703125 L 16.425781 36.921875 C 16.425781 37.15625 16.507812 37.273438 16.667969 37.277344 L 16.667969 37.378906 L 15.398438 37.378906 L 15.398438 37.277344 C 15.5 37.277344 15.570312 37.25 15.613281 37.195312 C 15.65625 37.136719 15.679688 37.039062 15.679688 36.894531 L 15.679688 35.363281 C 15.679688 35.113281 15.585938 34.988281 15.398438 34.988281 L 15.398438 34.890625 L 16.667969 34.890625 L 16.667969 34.988281 C 16.574219 34.992188 16.511719 35.019531 16.476562 35.070312 C 16.441406 35.117188 16.425781 35.214844 16.425781 35.363281 L 16.425781 36.574219 L 17.140625 35.339844 C 17.136719 35.210938 17.117188 35.117188 17.082031 35.066406 C 17.042969 35.015625 16.984375 34.988281 16.898438 34.988281 L 16.898438 34.890625 L 18.167969 34.890625 L 18.167969 34.988281 C 18.074219 34.992188 18 35.015625 17.957031 35.0625 C 17.910156 35.105469 17.886719 35.195312 17.886719 35.328125 L 17.886719 36.910156 C 17.886719 37.054688 17.90625 37.15625 17.949219 37.203125 C 17.992188 37.253906 18.0625 37.277344 18.167969 37.277344 L 18.167969 37.378906 Z M 16.898438 37.378906 "/>
<path style=" stroke:none;fill-rule:nonzero;fill:rgb(0%,0%,0%);fill-opacity:1;" d="M 20.574219 36.734375 L 20.660156 36.800781 C 20.542969 37.019531 20.394531 37.183594 20.21875 37.289062 C 20.042969 37.398438 19.859375 37.453125 19.660156 37.453125 C 19.328125 37.453125 19.0625 37.328125 18.863281 37.078125 C 18.664062 36.828125 18.566406 36.527344 18.566406 36.175781 C 18.566406 35.835938 18.65625 35.539062 18.835938 35.28125 C 19.054688 34.972656 19.359375 34.816406 19.742188 34.816406 C 20 34.816406 20.203125 34.882812 20.355469 35.011719 C 20.507812 35.140625 20.582031 35.285156 20.582031 35.445312 C 20.582031 35.546875 20.554688 35.625 20.492188 35.6875 C 20.429688 35.746094 20.351562 35.777344 20.25 35.777344 C 20.144531 35.777344 20.058594 35.742188 19.992188 35.671875 C 19.921875 35.601562 19.878906 35.480469 19.863281 35.304688 C 19.851562 35.191406 19.828125 35.113281 19.785156 35.070312 C 19.746094 35.023438 19.699219 35.003906 19.644531 35.003906 C 19.558594 35.003906 19.484375 35.046875 19.425781 35.136719 C 19.332031 35.273438 19.285156 35.484375 19.285156 35.765625 C 19.285156 36 19.324219 36.222656 19.398438 36.4375 C 19.472656 36.652344 19.574219 36.808594 19.703125 36.914062 C 19.800781 36.992188 19.917969 37.027344 20.050781 37.027344 C 20.136719 37.027344 20.21875 37.007812 20.296875 36.96875 C 20.375 36.925781 20.46875 36.851562 20.574219 36.734375 Z M 20.574219 36.734375 "/>
<path style=" stroke:none;fill-rule:nonzero;fill:rgb(0%,0%,0%);fill-opacity:1;" d="M 22.339844 37.011719 C 22.035156 37.277344 21.761719 37.410156 21.519531 37.410156 C 21.378906 37.410156 21.257812 37.363281 21.164062 37.273438 C 21.070312 37.179688 21.023438 37.0625 21.023438 36.921875 C 21.023438 36.734375 21.105469 36.5625 21.269531 36.410156 C 21.433594 36.257812 21.789062 36.058594 22.339844 35.804688 L 22.339844 35.554688 C 22.339844 35.367188 22.328125 35.25 22.308594 35.199219 C 22.285156 35.152344 22.25 35.109375 22.191406 35.074219 C 22.132812 35.035156 22.070312 35.019531 22 35.019531 C 21.882812 35.019531 21.789062 35.042969 21.714844 35.09375 C 21.667969 35.128906 21.644531 35.164062 21.644531 35.207031 C 21.644531 35.246094 21.667969 35.289062 21.71875 35.34375 C 21.785156 35.421875 21.820312 35.496094 21.820312 35.566406 C 21.820312 35.652344 21.789062 35.726562 21.722656 35.789062 C 21.660156 35.847656 21.574219 35.878906 21.46875 35.878906 C 21.355469 35.878906 21.261719 35.847656 21.1875 35.777344 C 21.113281 35.710938 21.074219 35.632812 21.074219 35.542969 C 21.074219 35.414062 21.125 35.292969 21.226562 35.175781 C 21.328125 35.058594 21.46875 34.972656 21.648438 34.910156 C 21.832031 34.847656 22.019531 34.816406 22.214844 34.816406 C 22.453125 34.816406 22.640625 34.867188 22.777344 34.964844 C 22.914062 35.066406 23.003906 35.175781 23.042969 35.292969 C 23.070312 35.367188 23.082031 35.539062 23.082031 35.804688 L 23.082031 36.769531 C 23.082031 36.882812 23.085938 36.957031 23.09375 36.984375 C 23.105469 37.015625 23.117188 37.035156 23.136719 37.050781 C 23.152344 37.0625 23.171875 37.070312 23.195312 37.070312 C 23.242188 37.070312 23.289062 37.039062 23.335938 36.972656 L 23.417969 37.035156 C 23.328125 37.167969 23.238281 37.261719 23.140625 37.324219 C 23.046875 37.382812 22.9375 37.410156 22.816406 37.410156 C 22.675781 37.410156 22.566406 37.378906 22.484375 37.3125 C 22.40625 37.246094 22.355469 37.144531 22.339844 37.011719 Z M 22.339844 36.816406 L 22.339844 35.984375 C 22.121094 36.109375 21.964844 36.246094 21.859375 36.386719 C 21.789062 36.484375 21.753906 36.582031 21.753906 36.679688 C 21.753906 36.757812 21.785156 36.832031 21.84375 36.894531 C 21.886719 36.941406 21.949219 36.964844 22.027344 36.964844 C 22.117188 36.964844 22.21875 36.914062 22.339844 36.816406 Z M 22.339844 36.816406 "/>
<path style=" stroke:none;fill-rule:nonzero;fill:rgb(0%,0%,0%);fill-opacity:1;" d="M 23.695312 37.378906 L 23.695312 37.277344 C 23.796875 37.277344 23.871094 37.253906 23.910156 37.199219 C 23.953125 37.148438 23.976562 37.046875 23.976562 36.902344 L 23.976562 35.375 C 23.976562 35.21875 23.953125 35.117188 23.914062 35.066406 C 23.871094 35.015625 23.800781 34.988281 23.695312 34.988281 L 23.695312 34.890625 L 24.964844 34.890625 L 24.964844 34.988281 C 24.875 34.992188 24.8125 35.015625 24.777344 35.058594 C 24.738281 35.101562 24.722656 35.199219 24.722656 35.347656 L 24.722656 36.003906 L 25.4375 36.003906 L 25.4375 35.347656 C 25.4375 35.222656 25.421875 35.132812 25.394531 35.074219 C 25.367188 35.019531 25.300781 34.988281 25.195312 34.988281 L 25.195312 34.890625 L 26.460938 34.890625 L 26.460938 34.988281 C 26.359375 34.988281 26.285156 35.015625 26.246094 35.066406 C 26.203125 35.117188 26.183594 35.199219 26.183594 35.320312 L 26.183594 36.902344 C 26.183594 37.058594 26.203125 37.160156 26.242188 37.203125 C 26.285156 37.25 26.355469 37.273438 26.460938 37.277344 L 26.460938 37.378906 L 25.195312 37.378906 L 25.195312 37.277344 C 25.285156 37.277344 25.347656 37.257812 25.382812 37.214844 C 25.417969 37.175781 25.4375 37.078125 25.4375 36.917969 L 25.4375 36.171875 L 24.722656 36.171875 L 24.722656 36.902344 C 24.722656 37.058594 24.738281 37.160156 24.777344 37.207031 C 24.8125 37.253906 24.875 37.277344 24.964844 37.277344 L 24.964844 37.378906 Z M 23.695312 37.378906 "/>
<path style=" stroke:none;fill-rule:nonzero;fill:rgb(0%,0%,0%);fill-opacity:1;" d="M 28.339844 37.378906 L 28.339844 37.277344 C 28.5 37.277344 28.582031 37.160156 28.582031 36.921875 L 28.582031 35.703125 L 27.867188 36.921875 C 27.867188 37.15625 27.949219 37.273438 28.109375 37.277344 L 28.109375 37.378906 L 26.839844 37.378906 L 26.839844 37.277344 C 26.941406 37.277344 27.015625 37.25 27.054688 37.195312 C 27.097656 37.136719 27.121094 37.039062 27.121094 36.894531 L 27.121094 35.363281 C 27.121094 35.113281 27.027344 34.988281 26.839844 34.988281 L 26.839844 34.890625 L 28.109375 34.890625 L 28.109375 34.988281 C 28.015625 34.992188 27.953125 35.019531 27.917969 35.070312 C 27.882812 35.117188 27.867188 35.214844 27.867188 35.363281 L 27.867188 36.574219 L 28.582031 35.339844 C 28.578125 35.210938 28.558594 35.117188 28.523438 35.066406 C 28.484375 35.015625 28.425781 34.988281 28.339844 34.988281 L 28.339844 34.890625 L 29.609375 34.890625 L 29.609375 34.988281 C 29.515625 34.992188 29.441406 35.015625 29.398438 35.0625 C 29.351562 35.105469 29.328125 35.195312 29.328125 35.328125 L 29.328125 36.910156 C 29.328125 37.054688 29.347656 37.15625 29.390625 37.203125 C 29.433594 37.253906 29.503906 37.277344 29.609375 37.277344 L 29.609375 37.378906 Z M 28.339844 37.378906 "/>
<path style=" stroke:none;fill-rule:nonzero;fill:rgb(0%,0%,0%);fill-opacity:1;" d="M 32.09375 36.042969 L 30.726562 36.042969 C 30.742188 36.375 30.832031 36.636719 30.992188 36.828125 C 31.113281 36.972656 31.261719 37.046875 31.433594 37.046875 C 31.539062 37.046875 31.636719 37.019531 31.722656 36.957031 C 31.8125 36.898438 31.90625 36.792969 32.003906 36.636719 L 32.09375 36.695312 C 31.960938 36.972656 31.808594 37.164062 31.648438 37.28125 C 31.484375 37.394531 31.292969 37.453125 31.078125 37.453125 C 30.710938 37.453125 30.429688 37.308594 30.238281 37.027344 C 30.085938 36.796875 30.011719 36.515625 30.011719 36.175781 C 30.011719 35.761719 30.121094 35.429688 30.347656 35.183594 C 30.570312 34.9375 30.835938 34.816406 31.136719 34.816406 C 31.390625 34.816406 31.609375 34.917969 31.792969 35.125 C 31.980469 35.332031 32.082031 35.640625 32.09375 36.042969 Z M 31.4375 35.867188 C 31.4375 35.582031 31.421875 35.386719 31.390625 35.277344 C 31.359375 35.171875 31.3125 35.09375 31.246094 35.035156 C 31.210938 35.003906 31.160156 34.988281 31.097656 34.988281 C 31.003906 34.988281 30.929688 35.035156 30.871094 35.125 C 30.765625 35.28125 30.714844 35.5 30.714844 35.773438 L 30.714844 35.867188 Z M 31.4375 35.867188 "/>
<path style=" stroke:none;fill-rule:nonzero;fill:rgb(0%,0%,0%);fill-opacity:1;" d="M 7.535156 40.273438 L 7.535156 40.371094 C 7.417969 40.371094 7.34375 40.402344 7.3125 40.460938 C 7.277344 40.523438 7.261719 40.601562 7.261719 40.703125 L 7.261719 42.3125 C 7.261719 42.453125 7.28125 42.546875 7.328125 42.589844 C 7.371094 42.632812 7.441406 42.65625 7.535156 42.660156 L 7.535156 43.414062 L 7.4375 43.414062 C 7.394531 42.976562 7.121094 42.761719 6.609375 42.761719 L 5.886719 42.761719 C 5.390625 42.761719 5.117188 42.976562 5.066406 43.414062 L 4.96875 43.414062 L 4.96875 42.660156 C 5.191406 42.644531 5.363281 42.445312 5.488281 42.0625 C 5.613281 41.679688 5.679688 41.269531 5.679688 40.835938 C 5.679688 40.703125 5.667969 40.605469 5.648438 40.539062 C 5.628906 40.472656 5.601562 40.429688 5.566406 40.40625 C 5.527344 40.386719 5.460938 40.375 5.367188 40.371094 L 5.367188 40.273438 Z M 6.515625 40.441406 L 5.859375 40.441406 L 5.859375 40.832031 C 5.859375 41.597656 5.71875 42.183594 5.4375 42.59375 L 6.257812 42.59375 C 6.429688 42.59375 6.515625 42.488281 6.515625 42.277344 Z M 6.515625 40.441406 "/>
<path style=" stroke:none;fill-rule:nonzero;fill:rgb(0%,0%,0%);fill-opacity:1;" d="M 7.925781 40.273438 L 9.300781 40.273438 C 9.589844 40.273438 9.824219 40.324219 10.007812 40.429688 C 10.191406 40.53125 10.28125 40.6875 10.28125 40.890625 C 10.28125 41.164062 10.089844 41.351562 9.710938 41.445312 C 10.226562 41.507812 10.480469 41.722656 10.480469 42.089844 C 10.480469 42.3125 10.378906 42.480469 10.167969 42.59375 C 9.960938 42.703125 9.675781 42.761719 9.3125 42.761719 L 7.925781 42.761719 L 7.925781 42.660156 C 8.046875 42.648438 8.125 42.621094 8.152344 42.578125 C 8.183594 42.53125 8.195312 42.445312 8.195312 42.316406 L 8.195312 40.835938 C 8.195312 40.632812 8.179688 40.507812 8.148438 40.460938 C 8.113281 40.410156 8.039062 40.382812 7.925781 40.371094 Z M 8.980469 41.382812 C 9.402344 41.371094 9.613281 41.214844 9.613281 40.910156 C 9.613281 40.601562 9.402344 40.445312 8.980469 40.441406 Z M 8.980469 41.550781 L 8.980469 42.367188 C 8.980469 42.449219 8.992188 42.507812 9.019531 42.542969 C 9.046875 42.578125 9.105469 42.59375 9.195312 42.59375 C 9.34375 42.59375 9.46875 42.542969 9.574219 42.4375 C 9.679688 42.332031 9.734375 42.199219 9.734375 42.039062 C 9.734375 41.871094 9.675781 41.746094 9.558594 41.667969 C 9.441406 41.589844 9.25 41.550781 8.980469 41.550781 Z M 8.980469 41.550781 "/>
<path style=" stroke:none;fill-rule:nonzero;fill:rgb(0%,0%,0%);fill-opacity:1;" d="M 12.371094 42.761719 L 12.371094 42.660156 C 12.53125 42.660156 12.613281 42.542969 12.613281 42.304688 L 12.613281 41.085938 L 11.898438 42.304688 C 11.898438 42.539062 11.980469 42.65625 12.140625 42.660156 L 12.140625 42.761719 L 10.871094 42.761719 L 10.871094 42.660156 C 10.972656 42.660156 11.042969 42.632812 11.085938 42.578125 C 11.128906 42.519531 11.152344 42.421875 11.152344 42.277344 L 11.152344 40.746094 C 11.152344 40.496094 11.058594 40.371094 10.871094 40.371094 L 10.871094 40.273438 L 12.140625 40.273438 L 12.140625 40.371094 C 12.046875 40.375 11.984375 40.402344 11.949219 40.453125 C 11.914062 40.5 11.898438 40.597656 11.898438 40.746094 L 11.898438 41.957031 L 12.613281 40.722656 C 12.609375 40.59375 12.589844 40.5 12.554688 40.449219 C 12.515625 40.398438 12.457031 40.371094 12.371094 40.371094 L 12.371094 40.273438 L 13.640625 40.273438 L 13.640625 40.371094 C 13.542969 40.375 13.472656 40.398438 13.425781 40.445312 C 13.382812 40.488281 13.359375 40.578125 13.359375 40.710938 L 13.359375 42.292969 C 13.359375 42.4375 13.378906 42.539062 13.421875 42.585938 C 13.460938 42.636719 13.535156 42.660156 13.640625 42.660156 L 13.640625 42.761719 Z M 12.371094 42.761719 "/>
<path style=" stroke:none;fill-rule:nonzero;fill:rgb(0%,0%,0%);fill-opacity:1;" d="M 15.164062 42.761719 L 15.164062 42.660156 C 15.261719 42.660156 15.332031 42.632812 15.375 42.582031 C 15.417969 42.527344 15.4375 42.433594 15.4375 42.292969 L 15.4375 41.550781 C 15.371094 41.550781 15.3125 41.601562 15.265625 41.699219 L 14.734375 42.761719 L 13.863281 42.761719 L 13.863281 42.660156 C 13.933594 42.660156 13.984375 42.652344 14.019531 42.628906 C 14.050781 42.605469 14.089844 42.554688 14.132812 42.46875 L 14.476562 41.769531 C 14.542969 41.640625 14.613281 41.550781 14.683594 41.507812 C 14.753906 41.460938 14.867188 41.425781 15.019531 41.402344 C 14.925781 41.296875 14.835938 41.113281 14.757812 40.855469 C 14.714844 40.707031 14.675781 40.609375 14.652344 40.566406 C 14.625 40.523438 14.59375 40.503906 14.558594 40.503906 C 14.511719 40.503906 14.488281 40.558594 14.480469 40.671875 C 14.472656 40.792969 14.449219 40.878906 14.410156 40.929688 C 14.375 40.980469 14.3125 41.007812 14.222656 41.007812 C 14.152344 41.007812 14.085938 40.980469 14.023438 40.925781 C 13.964844 40.867188 13.933594 40.777344 13.933594 40.65625 C 13.933594 40.542969 13.972656 40.445312 14.054688 40.359375 C 14.132812 40.273438 14.242188 40.230469 14.375 40.230469 C 14.507812 40.230469 14.609375 40.277344 14.691406 40.363281 C 14.769531 40.453125 14.84375 40.597656 14.914062 40.796875 C 15 41.054688 15.074219 41.214844 15.132812 41.28125 C 15.191406 41.347656 15.292969 41.382812 15.4375 41.382812 L 15.4375 40.726562 C 15.4375 40.597656 15.414062 40.507812 15.371094 40.453125 C 15.328125 40.402344 15.257812 40.375 15.164062 40.371094 L 15.164062 40.273438 L 16.457031 40.273438 L 16.457031 40.371094 C 16.347656 40.378906 16.273438 40.40625 16.238281 40.453125 C 16.203125 40.496094 16.183594 40.597656 16.183594 40.753906 L 16.183594 41.382812 C 16.273438 41.382812 16.347656 41.363281 16.414062 41.328125 C 16.480469 41.289062 16.527344 41.238281 16.558594 41.179688 C 16.589844 41.117188 16.648438 40.972656 16.726562 40.746094 C 16.796875 40.535156 16.875 40.398438 16.960938 40.332031 C 17.042969 40.265625 17.140625 40.230469 17.246094 40.230469 C 17.363281 40.230469 17.464844 40.269531 17.554688 40.347656 C 17.644531 40.425781 17.6875 40.527344 17.6875 40.65625 C 17.6875 40.757812 17.660156 40.84375 17.605469 40.90625 C 17.550781 40.972656 17.480469 41.003906 17.394531 41.003906 C 17.226562 41.003906 17.140625 40.886719 17.136719 40.648438 C 17.136719 40.550781 17.113281 40.503906 17.070312 40.503906 C 16.996094 40.503906 16.925781 40.625 16.851562 40.875 C 16.777344 41.132812 16.691406 41.308594 16.601562 41.402344 C 16.765625 41.425781 16.878906 41.464844 16.949219 41.515625 C 17.019531 41.566406 17.089844 41.667969 17.164062 41.820312 L 17.488281 42.46875 C 17.527344 42.546875 17.5625 42.597656 17.59375 42.621094 C 17.628906 42.644531 17.683594 42.65625 17.757812 42.660156 L 17.757812 42.761719 L 16.882812 42.761719 L 16.355469 41.699219 C 16.304688 41.601562 16.25 41.550781 16.183594 41.550781 L 16.183594 42.34375 C 16.183594 42.46875 16.199219 42.550781 16.234375 42.585938 C 16.269531 42.621094 16.34375 42.648438 16.457031 42.660156 L 16.457031 42.761719 Z M 15.164062 42.761719 "/>
<path style=" stroke:none;fill-rule:nonzero;fill:rgb(0%,0%,0%);fill-opacity:1;" d="M 20.082031 41.429688 L 18.714844 41.429688 C 18.730469 41.757812 18.816406 42.019531 18.976562 42.210938 C 19.101562 42.355469 19.246094 42.429688 19.421875 42.429688 C 19.527344 42.429688 19.625 42.402344 19.710938 42.339844 C 19.796875 42.28125 19.890625 42.175781 19.992188 42.019531 L 20.082031 42.078125 C 19.945312 42.355469 19.796875 42.546875 19.632812 42.664062 C 19.46875 42.777344 19.28125 42.835938 19.066406 42.835938 C 18.695312 42.835938 18.414062 42.691406 18.226562 42.410156 C 18.074219 42.179688 17.996094 41.898438 17.996094 41.558594 C 17.996094 41.144531 18.109375 40.8125 18.332031 40.566406 C 18.558594 40.320312 18.820312 40.199219 19.125 40.199219 C 19.375 40.199219 19.59375 40.300781 19.78125 40.507812 C 19.96875 40.714844 20.066406 41.023438 20.082031 41.429688 Z M 19.425781 41.25 C 19.425781 40.964844 19.410156 40.769531 19.378906 40.660156 C 19.347656 40.554688 19.300781 40.476562 19.234375 40.417969 C 19.195312 40.386719 19.144531 40.371094 19.085938 40.371094 C 18.992188 40.371094 18.917969 40.417969 18.859375 40.507812 C 18.753906 40.664062 18.699219 40.882812 18.699219 41.15625 L 18.699219 41.25 Z M 19.425781 41.25 "/>
<path style=" stroke:none;fill-rule:nonzero;fill:rgb(0%,0%,0%);fill-opacity:1;" d="M 20.394531 42.761719 L 20.394531 42.660156 C 20.496094 42.660156 20.570312 42.636719 20.609375 42.582031 C 20.652344 42.53125 20.671875 42.429688 20.671875 42.285156 L 20.671875 40.757812 C 20.671875 40.601562 20.652344 40.5 20.613281 40.449219 C 20.570312 40.398438 20.496094 40.371094 20.394531 40.371094 L 20.394531 40.273438 L 21.660156 40.273438 L 21.660156 40.371094 C 21.574219 40.375 21.511719 40.398438 21.472656 40.441406 C 21.4375 40.484375 21.417969 40.582031 21.417969 40.730469 L 21.417969 41.386719 L 22.132812 41.386719 L 22.132812 40.730469 C 22.132812 40.605469 22.121094 40.515625 22.09375 40.457031 C 22.066406 40.402344 22 40.371094 21.894531 40.371094 L 21.894531 40.273438 L 23.160156 40.273438 L 23.160156 40.371094 C 23.058594 40.371094 22.984375 40.398438 22.941406 40.449219 C 22.902344 40.5 22.878906 40.582031 22.878906 40.703125 L 22.878906 42.285156 C 22.878906 42.441406 22.902344 42.542969 22.941406 42.585938 C 22.984375 42.632812 23.054688 42.65625 23.160156 42.660156 L 23.160156 42.761719 L 21.894531 42.761719 L 21.894531 42.660156 C 21.984375 42.660156 22.046875 42.640625 22.082031 42.597656 C 22.117188 42.558594 22.132812 42.460938 22.132812 42.300781 L 22.132812 41.554688 L 21.417969 41.554688 L 21.417969 42.285156 C 21.417969 42.441406 21.4375 42.542969 21.472656 42.589844 C 21.511719 42.636719 21.574219 42.660156 21.660156 42.660156 L 21.660156 42.761719 Z M 20.394531 42.761719 "/>
<path style=" stroke:none;fill-rule:nonzero;fill:rgb(0%,0%,0%);fill-opacity:1;" d="M 25.039062 42.761719 L 25.039062 42.660156 C 25.199219 42.660156 25.28125 42.542969 25.28125 42.304688 L 25.28125 41.085938 L 24.566406 42.304688 C 24.566406 42.539062 24.648438 42.65625 24.808594 42.660156 L 24.808594 42.761719 L 23.539062 42.761719 L 23.539062 42.660156 C 23.640625 42.660156 23.710938 42.632812 23.753906 42.578125 C 23.796875 42.519531 23.820312 42.421875 23.820312 42.277344 L 23.820312 40.746094 C 23.820312 40.496094 23.726562 40.371094 23.539062 40.371094 L 23.539062 40.273438 L 24.808594 40.273438 L 24.808594 40.371094 C 24.714844 40.375 24.652344 40.402344 24.617188 40.453125 C 24.582031 40.5 24.566406 40.597656 24.566406 40.746094 L 24.566406 41.957031 L 25.28125 40.722656 C 25.277344 40.59375 25.257812 40.5 25.222656 40.449219 C 25.183594 40.398438 25.125 40.371094 25.039062 40.371094 L 25.039062 40.273438 L 26.308594 40.273438 L 26.308594 40.371094 C 26.210938 40.375 26.140625 40.398438 26.09375 40.445312 C 26.050781 40.488281 26.027344 40.578125 26.027344 40.710938 L 26.027344 42.292969 C 26.027344 42.4375 26.046875 42.539062 26.089844 42.585938 C 26.128906 42.636719 26.203125 42.660156 26.308594 42.660156 L 26.308594 42.761719 Z M 25.039062 42.761719 "/>
<path style=" stroke:none;fill-rule:nonzero;fill:rgb(0%,0%,0%);fill-opacity:1;" d="M 29.242188 40.273438 L 29.242188 40.371094 C 29.160156 40.371094 29.097656 40.394531 29.050781 40.4375 C 29.003906 40.484375 28.980469 40.589844 28.980469 40.757812 L 28.980469 42.175781 C 28.980469 42.359375 29.003906 42.484375 29.042969 42.550781 C 29.082031 42.617188 29.148438 42.65625 29.242188 42.660156 L 29.242188 42.761719 L 27.972656 42.761719 L 27.972656 42.660156 C 28.148438 42.652344 28.234375 42.503906 28.234375 42.214844 L 28.234375 41.636719 C 28.171875 41.640625 28.136719 41.644531 28.125 41.644531 C 28.101562 41.644531 28.058594 41.640625 28 41.636719 L 27.578125 42.761719 L 26.589844 42.761719 L 26.589844 42.660156 C 26.785156 42.660156 26.921875 42.550781 27.003906 42.332031 L 27.292969 41.558594 C 26.914062 41.441406 26.726562 41.230469 26.726562 40.925781 C 26.726562 40.769531 26.777344 40.636719 26.875 40.527344 C 26.976562 40.417969 27.09375 40.347656 27.226562 40.316406 C 27.359375 40.289062 27.597656 40.273438 27.941406 40.273438 Z M 28.234375 40.476562 C 28.132812 40.453125 28.042969 40.441406 27.972656 40.441406 C 27.820312 40.441406 27.707031 40.488281 27.628906 40.578125 C 27.550781 40.667969 27.511719 40.785156 27.511719 40.921875 C 27.511719 41.09375 27.566406 41.226562 27.671875 41.328125 C 27.78125 41.429688 27.9375 41.476562 28.152344 41.476562 C 28.171875 41.476562 28.199219 41.476562 28.234375 41.476562 Z M 28.234375 40.476562 "/>
<path style="fill-rule:evenodd;fill:rgb(0%,65.882353%,92.156863%);fill-opacity:1;stroke-width:0.26875;stroke-linecap:butt;stroke-linejoin:miter;stroke:rgb(0%,67.843137%,93.72549%);stroke-opacity:1;stroke-miterlimit:22.926001;" d="M -568.930134 -101.281361 L -296.83538 -101.281361 C -283.653349 -101.281361 -272.835268 -94.653898 -272.835268 -86.580443 L -272.835268 171.569268 C -272.835268 179.642722 -283.653349 186.270185 -296.83538 186.270185 L -568.930134 186.270185 C -582.112166 186.270185 -592.930246 179.642722 -592.930246 171.569268 L -592.930246 -86.580443 C -592.930246 -94.653898 -582.112166 -101.281361 -568.930134 -101.281361 Z M -568.930134 -101.281361 " transform="matrix(0.097493,0,0,0.0972516,59.564382,11.584148)"/>
<path style="fill-rule:evenodd;fill:rgb(100%,100%,100%);fill-opacity:1;stroke-width:0.26875;stroke-linecap:butt;stroke-linejoin:miter;stroke:rgb(100%,100%,100%);stroke-opacity:1;stroke-miterlimit:22.926001;" d="M -551.541072 -77.824159 L -312.9423 -77.824159 C -303.045759 -77.824159 -294.912166 -69.831038 -294.912166 -60.110759 L -294.912166 140.761608 C -294.912166 150.522053 -303.045759 158.515175 -312.9423 158.515175 L -551.541072 158.515175 C -561.477679 158.515175 -569.611273 150.522053 -569.611273 140.761608 L -569.611273 -60.110759 C -569.611273 -69.831038 -561.477679 -77.824159 -551.541072 -77.824159 Z M -551.541072 -77.824159 " transform="matrix(0.097493,0,0,0.0972516,59.564382,11.584148)"/>
<path style=" stroke:none;fill-rule:evenodd;fill:rgb(13.72549%,12.156863%,12.54902%);fill-opacity:1;" d="M 14.761719 21.496094 L 15.207031 22.972656 L 20.566406 22.972656 L 21.019531 21.496094 L 14.761719 21.496094 "/>
<path style=" stroke:none;fill-rule:evenodd;fill:rgb(13.72549%,12.156863%,12.54902%);fill-opacity:1;" d="M 9.875 21.367188 C 10.707031 21.367188 11.382812 22.042969 11.382812 22.871094 C 11.382812 23.699219 10.707031 24.375 9.875 24.375 C 9.042969 24.375 8.363281 23.699219 8.363281 22.871094 C 8.363281 22.042969 9.042969 21.367188 9.875 21.367188 "/>
<path style=" stroke:none;fill-rule:evenodd;fill:rgb(13.72549%,12.156863%,12.54902%);fill-opacity:1;" d="M 25.761719 21.367188 C 26.589844 21.367188 27.269531 22.042969 27.269531 22.871094 C 27.269531 23.699219 26.589844 24.375 25.761719 24.375 C 24.929688 24.375 24.25 23.699219 24.25 22.871094 C 24.25 22.042969 24.929688 21.367188 25.761719 21.367188 "/>
<path style=" stroke:none;fill-rule:evenodd;fill:rgb(13.72549%,12.156863%,12.54902%);fill-opacity:1;" d="M 22.933594 21.367188 C 23.765625 21.367188 24.445312 22.042969 24.445312 22.871094 C 24.445312 23.699219 23.765625 24.375 22.933594 24.375 C 22.101562 24.375 21.421875 23.699219 21.421875 22.871094 C 21.421875 22.042969 22.101562 21.367188 22.933594 21.367188 "/>
<path style=" stroke:none;fill-rule:evenodd;fill:rgb(13.72549%,12.156863%,12.54902%);fill-opacity:1;" d="M 12.679688 21.367188 C 13.511719 21.367188 14.191406 22.042969 14.191406 22.871094 C 14.191406 23.699219 13.511719 24.375 12.679688 24.375 C 11.847656 24.375 11.167969 23.699219 11.167969 22.871094 C 11.167969 22.042969 11.847656 21.367188 12.679688 21.367188 "/>
<path style=" stroke:none;fill-rule:evenodd;fill:rgb(13.72549%,12.156863%,12.54902%);fill-opacity:1;" d="M 6.921875 22.972656 C 6.921875 21.160156 6.921875 19.34375 6.921875 17.53125 C 7.507812 16.367188 8.089844 15.207031 8.675781 14.042969 C 10.984375 14.042969 13.292969 14.042969 15.601562 14.042969 C 15.601562 13.75 15.601562 13.457031 15.601562 13.160156 C 15.078125 12.644531 14.558594 12.128906 14.035156 11.613281 C 15.042969 10.613281 16.050781 9.609375 17.058594 8.605469 C 17.058594 8.28125 17.058594 7.957031 17.058594 7.636719 C 17.414062 7.636719 17.773438 7.636719 18.128906 7.636719 C 18.128906 7.957031 18.128906 8.28125 18.128906 8.605469 C 19.191406 9.609375 20.257812 10.613281 21.320312 11.613281 C 20.746094 12.128906 20.171875 12.644531 19.597656 13.160156 C 19.597656 13.457031 19.597656 13.75 19.597656 14.042969 C 21.871094 14.042969 24.144531 14.042969 26.417969 14.042969 C 27.066406 15.109375 27.714844 16.175781 28.363281 17.246094 C 28.429688 19.152344 28.492188 21.0625 28.558594 22.972656 C 28.265625 22.972656 27.972656 22.972656 27.679688 22.972656 C 27.679688 22.550781 27.679688 22.128906 27.679688 21.710938 C 27.417969 21.167969 27.09375 20.875 26.707031 20.835938 C 20.921875 20.835938 15.140625 20.835938 9.359375 20.835938 C 8.652344 21.160156 8.199219 21.550781 7.992188 22 C 7.992188 22.324219 7.992188 22.648438 7.992188 22.972656 C 7.636719 22.972656 7.277344 22.972656 6.921875 22.972656 Z M 10.371094 15.269531 C 10.371094 16.097656 10.371094 16.972656 10.371094 17.800781 C 9.714844 17.769531 9.054688 17.832031 8.394531 17.800781 C 8.128906 17.300781 8.113281 16.738281 8.347656 16.113281 C 8.550781 15.847656 8.757812 15.535156 8.960938 15.269531 C 9.429688 15.300781 9.902344 15.238281 10.371094 15.269531 Z M 20.820312 15.285156 L 23.738281 15.285156 C 23.894531 15.285156 24.019531 15.410156 24.019531 15.566406 L 24.019531 17.535156 C 24.019531 17.6875 23.894531 17.816406 23.738281 17.816406 L 20.820312 17.816406 C 20.664062 17.816406 20.539062 17.6875 20.539062 17.535156 L 20.539062 15.566406 C 20.539062 15.410156 20.664062 15.285156 20.820312 15.285156 Z M 16.347656 15.285156 L 19.265625 15.285156 C 19.421875 15.285156 19.550781 15.410156 19.550781 15.566406 L 19.550781 17.535156 C 19.550781 17.6875 19.421875 17.816406 19.265625 17.816406 L 16.347656 17.816406 C 16.195312 17.816406 16.066406 17.6875 16.066406 17.535156 L 16.066406 15.566406 C 16.066406 15.410156 16.195312 15.285156 16.347656 15.285156 Z M 25.007812 15.269531 C 25.007812 16.097656 25.007812 16.972656 25.007812 17.800781 C 25.667969 17.769531 26.324219 17.832031 26.984375 17.800781 C 27.1875 17.238281 27.203125 16.675781 27.03125 16.113281 C 26.828125 15.847656 26.625 15.535156 26.421875 15.269531 C 25.949219 15.300781 25.480469 15.238281 25.007812 15.269531 Z M 11.878906 15.285156 L 14.796875 15.285156 C 14.953125 15.285156 15.078125 15.410156 15.078125 15.566406 L 15.078125 17.535156 C 15.078125 17.6875 14.953125 17.816406 14.796875 17.816406 L 11.878906 17.816406 C 11.722656 17.816406 11.597656 17.6875 11.597656 17.535156 L 11.597656 15.566406 C 11.597656 15.410156 11.722656 15.285156 11.878906 15.285156 Z M 16.703125 13.160156 C 17.300781 13.160156 17.890625 13.160156 18.488281 13.160156 C 19.042969 12.644531 19.601562 12.128906 20.160156 11.613281 C 19.320312 10.902344 18.480469 10.191406 17.640625 9.480469 C 16.832031 10.191406 16.015625 10.902344 15.207031 11.613281 C 15.707031 12.128906 16.207031 12.644531 16.703125 13.160156 "/>
</g>
</svg>
