<?xml version="1.0" encoding="UTF-8"?>
<svg xmlns="http://www.w3.org/2000/svg" xmlns:xlink="http://www.w3.org/1999/xlink" width="35px" height="35px" viewBox="0 0 35 52" version="1.1">
<g id="surface1">
<path style=" stroke:none;fill-rule:nonzero;fill:rgb(100%,100%,100%);fill-opacity:1;" d="M 2.625 0 L 32.375 0 C 33.824219 0 35 1.164062 35 2.601562 L 35 49.398438 C 35 50.835938 33.824219 52 32.375 52 L 2.625 52 C 1.175781 52 0 50.835938 0 49.398438 L 0 2.601562 C 0 1.164062 1.175781 0 2.625 0 Z M 2.625 0 "/>
<path style=" stroke:none;fill-rule:nonzero;fill:rgb(5.098039%,41.176471%,88.235294%);fill-opacity:1;" d="M 2.625 1.15625 C 1.816406 1.15625 1.167969 1.800781 1.167969 2.601562 L 1.167969 49.398438 C 1.167969 50.199219 1.816406 50.84375 2.625 50.84375 L 32.375 50.84375 C 33.183594 50.84375 33.832031 50.199219 33.832031 49.398438 L 33.832031 2.601562 C 33.832031 1.800781 33.183594 1.15625 32.375 1.15625 Z M 5.90625 8.667969 L 29.09375 8.667969 C 30.546875 8.667969 31.71875 9.828125 31.71875 11.265625 L 31.71875 34.234375 C 31.71875 35.671875 30.546875 36.832031 29.09375 36.832031 L 5.90625 36.832031 C 4.453125 36.832031 3.28125 35.671875 3.28125 34.234375 L 3.28125 11.265625 C 3.28125 9.828125 4.453125 8.667969 5.90625 8.667969 Z M 5.90625 8.667969 "/>
<path style="fill:none;stroke-width:2;stroke-linecap:butt;stroke-linejoin:miter;stroke:rgb(0%,0%,0%);stroke-opacity:1;stroke-miterlimit:4;" d="M 45 153.376303 L 555 153.376303 C 579.308036 153.376303 598.995536 173.050281 598.995536 197.389223 L 598.995536 1007.335137 C 598.995536 1031.674079 579.308036 1051.348057 555 1051.348057 L 45 1051.348057 C 20.691964 1051.348057 1.004464 1031.674079 1.004464 1007.335137 L 1.004464 197.389223 C 1.004464 173.050281 20.691964 153.376303 45 153.376303 Z M 45 153.376303 " transform="matrix(0.0583333,0,0,0.0577778,0,-8.803148)"/>
<path style=" stroke:none;fill-rule:nonzero;fill:rgb(0%,0%,0%);fill-opacity:1;" d="M 15.941406 21.125 L 15.3125 22.207031 L 13.527344 22.207031 C 13.210938 22.207031 12.875 22.445312 12.773438 22.742188 L 12.390625 23.832031 L 11.605469 26.09375 C 11.605469 26.09375 11.605469 26.097656 11.601562 26.097656 L 11.421875 26.625 C 10.972656 26.625 10.609375 26.984375 10.609375 27.429688 L 10.609375 30.636719 C 10.609375 31.082031 10.972656 31.441406 11.421875 31.441406 L 23.578125 31.441406 C 24.027344 31.441406 24.390625 31.082031 24.390625 30.636719 L 24.390625 27.429688 C 24.390625 26.984375 24.027344 26.625 23.578125 26.625 L 23.398438 26.097656 C 23.394531 26.097656 23.394531 26.09375 23.394531 26.09375 L 22.609375 23.832031 L 22.226562 22.742188 C 22.125 22.445312 21.789062 22.207031 21.472656 22.207031 L 19.6875 22.207031 L 19.058594 21.125 Z M 13.773438 23.011719 L 21.226562 23.011719 C 21.386719 23.011719 21.550781 23.128906 21.601562 23.277344 L 22.769531 26.625 L 12.230469 26.625 L 13.398438 23.277344 C 13.449219 23.128906 13.613281 23.011719 13.773438 23.011719 Z M 22.363281 27.386719 C 23.035156 27.386719 23.578125 27.925781 23.578125 28.589844 C 23.578125 29.257812 23.035156 29.796875 22.363281 29.796875 C 21.691406 29.796875 21.148438 29.257812 21.148438 28.589844 C 21.148438 27.925781 21.691406 27.386719 22.363281 27.386719 Z M 12.574219 27.429688 C 12.59375 27.425781 12.617188 27.429688 12.636719 27.429688 C 13.308594 27.429688 13.851562 27.96875 13.851562 28.632812 C 13.851562 29.296875 13.308594 29.835938 12.636719 29.835938 C 11.964844 29.835938 11.421875 29.296875 11.421875 28.632812 C 11.421875 27.988281 11.929688 27.460938 12.574219 27.429688 Z M 12.574219 27.429688 "/>
<path style=" stroke:none;fill-rule:nonzero;fill:rgb(0%,0%,0%);fill-opacity:1;" d="M 11.421875 31.84375 L 11.421875 33.449219 C 11.421875 34.113281 11.964844 34.652344 12.636719 34.652344 C 13.308594 34.652344 13.851562 34.113281 13.851562 33.449219 L 13.851562 31.84375 Z M 11.421875 31.84375 "/>
<path style=" stroke:none;fill-rule:nonzero;fill:rgb(0%,0%,0%);fill-opacity:1;" d="M 21.148438 31.84375 L 21.148438 33.449219 C 21.148438 34.113281 21.691406 34.652344 22.363281 34.652344 C 23.035156 34.652344 23.578125 34.113281 23.578125 33.449219 L 23.578125 31.84375 Z M 21.148438 31.84375 "/>
<path style=" stroke:none;fill-rule:nonzero;fill:rgb(0%,0%,0%);fill-opacity:1;" d="M 8.75 14.082031 L 8.75 14.722656 L 9.738281 14.722656 L 9.738281 17.332031 L 10.441406 17.332031 L 10.441406 14.722656 L 11.421875 14.722656 L 11.421875 14.082031 Z M 8.75 14.082031 "/>
<path style=" stroke:none;fill-rule:nonzero;fill:rgb(0%,0%,0%);fill-opacity:1;" d="M 13.394531 13.96875 C 13.105469 13.972656 12.863281 14.019531 12.667969 14.105469 C 12.476562 14.191406 12.308594 14.28125 12.164062 14.375 L 12.515625 14.953125 C 12.605469 14.859375 12.730469 14.769531 12.890625 14.683594 C 13.046875 14.601562 13.214844 14.554688 13.394531 14.546875 C 13.578125 14.554688 13.738281 14.613281 13.878906 14.714844 C 14.015625 14.816406 14.089844 14.917969 14.097656 15.011719 L 14.097656 15.242188 C 14.074219 15.238281 13.902344 15.257812 13.582031 15.300781 C 13.261719 15.34375 12.941406 15.449219 12.621094 15.613281 C 12.300781 15.78125 12.128906 16.042969 12.105469 16.40625 C 12.121094 16.753906 12.238281 17.015625 12.457031 17.1875 C 12.675781 17.363281 12.910156 17.449219 13.160156 17.449219 C 13.398438 17.441406 13.597656 17.382812 13.761719 17.273438 C 13.925781 17.167969 14.035156 17.050781 14.097656 16.925781 C 14.125 17.152344 14.199219 17.296875 14.316406 17.363281 C 14.433594 17.425781 14.59375 17.457031 14.800781 17.449219 L 15.09375 16.867188 C 15.03125 16.875 14.964844 16.863281 14.902344 16.832031 C 14.839844 16.800781 14.804688 16.71875 14.800781 16.578125 L 14.800781 15.011719 C 14.777344 14.714844 14.617188 14.46875 14.316406 14.273438 C 14.015625 14.074219 13.710938 13.972656 13.394531 13.96875 Z M 14.097656 15.765625 L 14.097656 16.347656 C 14.085938 16.394531 14.003906 16.488281 13.847656 16.628906 C 13.691406 16.769531 13.519531 16.851562 13.335938 16.867188 C 13.265625 16.871094 13.171875 16.835938 13.058594 16.761719 C 12.941406 16.683594 12.878906 16.546875 12.867188 16.347656 C 12.875 16.175781 12.960938 16.058594 13.121094 15.988281 C 13.28125 15.921875 13.457031 15.875 13.648438 15.851562 C 13.839844 15.828125 13.988281 15.800781 14.097656 15.765625 Z M 14.097656 15.765625 "/>
<path style=" stroke:none;fill-rule:nonzero;fill:rgb(0%,0%,0%);fill-opacity:1;" d="M 15.941406 14.082031 L 15.941406 17.332031 L 16.644531 17.332031 L 16.644531 15.824219 C 16.675781 15.820312 16.707031 15.816406 16.738281 15.8125 C 16.769531 15.808594 16.796875 15.808594 16.820312 15.808594 C 17.144531 15.828125 17.390625 16 17.558594 16.320312 C 17.726562 16.640625 17.910156 16.980469 18.109375 17.332031 L 18.988281 17.332031 C 18.789062 17.132812 18.625 16.902344 18.496094 16.632812 C 18.367188 16.367188 18.226562 16.125 18.078125 15.902344 C 17.929688 15.683594 17.722656 15.539062 17.464844 15.476562 C 17.609375 15.433594 17.734375 15.347656 17.839844 15.214844 C 17.949219 15.082031 18.0625 14.953125 18.1875 14.828125 C 18.308594 14.703125 18.457031 14.628906 18.636719 14.605469 L 18.460938 14.023438 C 18.21875 14.058594 18 14.171875 17.804688 14.371094 C 17.605469 14.566406 17.421875 14.757812 17.25 14.945312 C 17.078125 15.136719 16.902344 15.238281 16.730469 15.253906 C 16.71875 15.253906 16.703125 15.253906 16.6875 15.25 C 16.671875 15.25 16.660156 15.246094 16.644531 15.242188 L 16.644531 14.082031 Z M 15.941406 14.082031 "/>
<path style=" stroke:none;fill-rule:nonzero;fill:rgb(0%,0%,0%);fill-opacity:1;" d="M 21.183594 13.96875 C 20.730469 13.972656 20.359375 14.132812 20.0625 14.445312 C 19.765625 14.757812 19.609375 15.179688 19.601562 15.707031 C 19.609375 16.238281 19.765625 16.660156 20.0625 16.96875 C 20.359375 17.28125 20.730469 17.441406 21.183594 17.449219 C 21.511719 17.445312 21.800781 17.359375 22.046875 17.1875 C 22.289062 17.019531 22.472656 16.777344 22.589844 16.460938 L 21.925781 16.214844 C 21.863281 16.425781 21.765625 16.589844 21.640625 16.699219 C 21.511719 16.8125 21.359375 16.867188 21.183594 16.867188 C 20.941406 16.863281 20.746094 16.757812 20.597656 16.550781 C 20.445312 16.34375 20.367188 16.0625 20.363281 15.707031 C 20.367188 15.355469 20.445312 15.074219 20.597656 14.867188 C 20.746094 14.660156 20.941406 14.550781 21.183594 14.546875 C 21.359375 14.546875 21.511719 14.605469 21.640625 14.714844 C 21.765625 14.828125 21.863281 14.992188 21.925781 15.203125 L 22.589844 14.953125 C 22.472656 14.640625 22.289062 14.398438 22.046875 14.226562 C 21.800781 14.054688 21.511719 13.96875 21.183594 13.96875 Z M 21.183594 13.96875 "/>
<path style=" stroke:none;fill-rule:nonzero;fill:rgb(0%,0%,0%);fill-opacity:1;" d="M 23.4375 14.082031 L 23.4375 17.332031 L 24.199219 17.335938 L 25.546875 15.128906 L 25.546875 17.332031 L 26.25 17.332031 L 26.25 14.082031 L 25.488281 14.082031 L 24.140625 16.289062 L 24.140625 14.082031 Z M 23.4375 14.082031 "/>
</g>
</svg>
