<?xml version="1.0" encoding="UTF-8"?>
<svg xmlns="http://www.w3.org/2000/svg" xmlns:xlink="http://www.w3.org/1999/xlink" width="35px" height="35px" viewBox="0 0 35 35" version="1.1">
<g id="surface1">
<path style=" stroke:none;fill-rule:nonzero;fill:rgb(100%,100%,100%);fill-opacity:1;" d="M 2.625 0 L 32.375 0 C 33.824219 0 35 1.175781 35 2.625 L 35 32.375 C 35 33.824219 33.824219 35 32.375 35 L 2.625 35 C 1.175781 35 0 33.824219 0 32.375 L 0 2.625 C 0 1.175781 1.175781 0 2.625 0 Z M 2.625 0 "/>
<path style="fill:none;stroke-width:2;stroke-linecap:butt;stroke-linejoin:miter;stroke:rgb(0%,0%,0%);stroke-opacity:1;stroke-miterlimit:4;" d="M 45 453.366644 L 555 453.366644 C 579.308036 453.366644 598.995536 473.054144 598.995536 497.36218 L 598.995536 1007.36218 C 598.995536 1031.670216 579.308036 1051.357716 555 1051.357716 L 45 1051.357716 C 20.691964 1051.357716 1.004464 1031.670216 1.004464 1007.36218 L 1.004464 497.36218 C 1.004464 473.054144 20.691964 453.366644 45 453.366644 Z M 45 453.366644 " transform="matrix(0.0583333,0,0,0.0583333,0,-26.387794)"/>
<path style=" stroke:none;fill-rule:nonzero;fill:rgb(5.098039%,41.176471%,88.235294%);fill-opacity:1;" d="M 2.625 1.167969 C 1.816406 1.167969 1.167969 1.816406 1.167969 2.625 L 1.167969 32.375 C 1.167969 33.183594 1.816406 33.832031 2.625 33.832031 L 32.375 33.832031 C 33.183594 33.832031 33.832031 33.183594 33.832031 32.375 L 33.832031 2.625 C 33.832031 1.816406 33.183594 1.167969 32.375 1.167969 Z M 10.5 4.667969 L 19.832031 4.667969 C 24.34375 4.667969 28 8.324219 28 12.832031 C 28 17.34375 24.34375 21 19.832031 21 L 14 21 L 14 30.332031 L 10.5 30.332031 Z M 14 8.167969 L 14 17.5 L 19.832031 17.5 C 22.410156 17.5 24.5 15.410156 24.5 12.832031 C 24.5 10.257812 22.410156 8.167969 19.832031 8.167969 Z M 14 8.167969 "/>
</g>
</svg>
