<?xml version="1.0" encoding="UTF-8"?>
<svg xmlns="http://www.w3.org/2000/svg" xmlns:xlink="http://www.w3.org/1999/xlink" width="35px" height="35px" viewBox="0 0 35 35" version="1.1">
<g id="surface1">
<path style=" stroke:none;fill-rule:nonzero;fill:rgb(100%,100%,100%);fill-opacity:1;" d="M 2.625 0 L 32.375 0 C 33.824219 0 35 1.175781 35 2.625 L 35 32.375 C 35 33.824219 33.824219 35 32.375 35 L 2.625 35 C 1.175781 35 0 33.824219 0 32.375 L 0 2.625 C 0 1.175781 1.175781 0 2.625 0 Z M 2.625 0 "/>
<path style="fill:none;stroke-width:2;stroke-linecap:butt;stroke-linejoin:miter;stroke:rgb(0%,0%,0%);stroke-opacity:1;stroke-miterlimit:4;" d="M 45 453.366644 L 555 453.366644 C 579.308036 453.366644 598.995536 473.054144 598.995536 497.36218 L 598.995536 1007.36218 C 598.995536 1031.670216 579.308036 1051.357716 555 1051.357716 L 45 1051.357716 C 20.691964 1051.357716 1.004464 1031.670216 1.004464 1007.36218 L 1.004464 497.36218 C 1.004464 473.054144 20.691964 453.366644 45 453.366644 Z M 45 453.366644 " transform="matrix(0.0583333,0,0,0.0583333,0,-26.387794)"/>
<path style=" stroke:none;fill-rule:nonzero;fill:rgb(5.098039%,41.176471%,88.235294%);fill-opacity:1;" d="M 2.625 1.167969 C 1.816406 1.167969 1.167969 1.816406 1.167969 2.625 L 1.167969 22.167969 L 7.582031 22.167969 L 7.582031 24.5 L 14 24.5 L 14 26.832031 L 20.417969 26.832031 L 20.417969 29.167969 L 26.832031 29.167969 L 26.832031 31.5 L 33.832031 31.5 L 33.832031 2.625 C 33.832031 1.816406 33.183594 1.167969 32.375 1.167969 Z M 16.117188 2.867188 C 17.710938 2.867188 18.132812 3.996094 18.132812 4.65625 C 18.132812 6.222656 16.132812 6.789062 15.347656 6.789062 C 14.257812 6.789062 13.8125 5.796875 13.8125 5.035156 C 13.8125 4.15625 14.554688 2.867188 16.117188 2.867188 Z M 17.210938 7.070312 C 17.410156 7.066406 17.605469 7.117188 17.785156 7.214844 L 21.609375 9.335938 C 21.710938 9.390625 21.78125 9.484375 21.808594 9.59375 L 22.808594 13.605469 C 22.933594 14.105469 22.628906 14.613281 22.128906 14.738281 C 21.628906 14.859375 21.121094 14.558594 21 14.054688 L 20.195312 10.832031 C 20.167969 10.722656 20.097656 10.628906 19.996094 10.574219 L 17.992188 9.464844 L 18.804688 14.578125 C 18.847656 14.851562 18.707031 15.125 18.460938 15.25 L 12.773438 18.148438 L 12.773438 23.070312 C 12.773438 23.652344 12.304688 24.121094 11.726562 24.121094 C 11.144531 24.121094 10.675781 23.652344 10.675781 23.070312 L 10.675781 17.183594 C 10.675781 16.984375 10.785156 16.804688 10.960938 16.714844 L 15.054688 14.628906 C 15.210938 14.550781 15.296875 14.382812 15.273438 14.210938 L 14.566406 8.835938 C 14.535156 8.601562 14.648438 8.371094 14.851562 8.253906 L 16.636719 7.222656 C 16.8125 7.121094 17.011719 7.070312 17.210938 7.070312 Z M 14.085938 10.542969 L 14.355469 12.578125 L 11.964844 14.070312 C 11.527344 14.34375 10.953125 14.210938 10.679688 13.773438 C 10.40625 13.335938 10.539062 12.761719 10.976562 12.488281 Z M 18.164062 16.1875 L 19.757812 25.222656 C 19.859375 25.792969 19.476562 26.335938 18.90625 26.4375 C 18.335938 26.539062 17.792969 26.15625 17.691406 25.585938 L 16.210938 17.183594 Z M 1.167969 24.5 L 1.167969 32.375 C 1.167969 33.183594 1.816406 33.832031 2.625 33.832031 L 25.667969 33.832031 L 25.667969 31.5 L 19.25 31.5 L 19.25 29.167969 L 12.832031 29.167969 L 12.832031 26.832031 L 6.417969 26.832031 L 6.417969 24.5 Z M 1.167969 24.5 "/>
</g>
</svg>
