<?xml version="1.0" encoding="UTF-8"?>
<svg xmlns="http://www.w3.org/2000/svg" xmlns:xlink="http://www.w3.org/1999/xlink" width="35px" height="35px" viewBox="0 0 35 35" version="1.1">
<g id="surface1">
<path style=" stroke:none;fill-rule:nonzero;fill:rgb(100%,100%,100%);fill-opacity:1;" d="M 2.625 0 L 32.375 0 C 33.824219 0 35 1.175781 35 2.625 L 35 32.375 C 35 33.824219 33.824219 35 32.375 35 L 2.625 35 C 1.175781 35 0 33.824219 0 32.375 L 0 2.625 C 0 1.175781 1.175781 0 2.625 0 Z M 2.625 0 "/>
<path style=" stroke:none;fill-rule:nonzero;fill:rgb(5.098039%,41.176471%,88.235294%);fill-opacity:1;" d="M 32.375 1.167969 C 33.183594 1.167969 33.832031 1.816406 33.832031 2.625 L 33.832031 31.5 L 26.832031 31.5 L 26.832031 29.167969 L 20.417969 29.167969 L 20.417969 26.832031 L 14 26.832031 L 14 24.5 L 7.582031 24.5 L 7.582031 22.167969 L 1.167969 22.167969 L 1.167969 2.625 C 1.167969 1.816406 1.816406 1.167969 2.625 1.167969 Z M 20.210938 2.917969 C 18.929688 2.917969 18.402344 3.878906 18.402344 4.667969 C 18.402344 6.035156 20.261719 7 20.972656 7 C 21.980469 7 22.605469 6.039062 22.605469 5.15625 C 22.605469 4.117188 21.714844 2.917969 20.210938 2.917969 Z M 18.832031 6.992188 C 18.726562 6.996094 18.621094 7.027344 18.527344 7.089844 L 14.625 9.726562 C 14.53125 9.789062 14.464844 9.886719 14.449219 10 L 13.800781 14.085938 C 13.71875 14.597656 14.070312 15.074219 14.578125 15.15625 C 15.085938 15.238281 15.5625 14.886719 15.644531 14.378906 L 16.164062 11.09375 C 16.183594 10.980469 16.246094 10.882812 16.339844 10.820312 L 18.253906 9.527344 L 17.425781 14.75 C 17.40625 14.890625 17.4375 15.035156 17.515625 15.15625 L 20.589844 19.890625 C 20.671875 20.019531 20.675781 20.183594 20.597656 20.316406 L 17.996094 24.820312 C 17.691406 25.351562 17.875 26.03125 18.402344 26.335938 C 18.933594 26.640625 19.613281 26.460938 19.917969 25.929688 L 23.296875 20.078125 C 23.371094 19.945312 23.367188 19.78125 23.285156 19.652344 L 20.816406 15.855469 C 20.765625 15.773438 20.742188 15.675781 20.753906 15.578125 L 21.632812 8.921875 C 21.664062 8.6875 21.550781 8.457031 21.34375 8.339844 L 19.144531 7.070312 C 19.050781 7.011719 18.941406 6.988281 18.832031 6.992188 Z M 22.085938 10.84375 L 21.753906 13.351562 L 23.839844 15.835938 C 24.167969 16.230469 24.757812 16.285156 25.15625 15.953125 C 25.550781 15.621094 25.601562 15.03125 25.269531 14.636719 Z M 23.011719 21.972656 L 21.601562 24.410156 L 23.105469 28.125 C 23.335938 28.691406 23.980469 28.964844 24.546875 28.738281 C 25.113281 28.507812 25.390625 27.859375 25.160156 27.292969 Z M 6.417969 24.5 L 6.417969 26.832031 L 12.832031 26.832031 L 12.832031 29.167969 L 19.25 29.167969 L 19.25 31.5 L 25.667969 31.5 L 25.667969 33.832031 L 2.625 33.832031 C 1.816406 33.832031 1.167969 33.183594 1.167969 32.375 L 1.167969 24.5 Z M 6.417969 24.5 "/>
<path style="fill:none;stroke-width:2;stroke-linecap:butt;stroke-linejoin:miter;stroke:rgb(0%,0%,0%);stroke-opacity:1;stroke-miterlimit:4;" d="M 45 453.366644 L 555 453.366644 C 579.308036 453.366644 598.995536 473.054144 598.995536 497.36218 L 598.995536 1007.36218 C 598.995536 1031.670216 579.308036 1051.357716 555 1051.357716 L 45 1051.357716 C 20.691964 1051.357716 1.004464 1031.670216 1.004464 1007.36218 L 1.004464 497.36218 C 1.004464 473.054144 20.691964 453.366644 45 453.366644 Z M 45 453.366644 " transform="matrix(0.0583333,0,0,0.0583333,0,-26.387794)"/>
</g>
</svg>
