<?xml version="1.0" encoding="UTF-8"?>
<svg xmlns="http://www.w3.org/2000/svg" xmlns:xlink="http://www.w3.org/1999/xlink" width="35px" height="35px" viewBox="0 0 35 35" version="1.1">
<g id="surface1">
<path style=" stroke:none;fill-rule:nonzero;fill:rgb(100%,100%,100%);fill-opacity:1;" d="M 2.25 0 L 32.75 0 C 33.992188 0 35 1.007812 35 2.25 L 35 32.75 C 35 33.992188 33.992188 35 32.75 35 L 2.25 35 C 1.007812 35 0 33.992188 0 32.75 L 0 2.25 C 0 1.007812 1.007812 0 2.25 0 Z M 2.25 0 "/>
<path style="fill:none;stroke-width:2;stroke-linecap:butt;stroke-linejoin:miter;stroke:rgb(0%,0%,0%);stroke-opacity:1;stroke-miterlimit:4;" d="M 45 1.015625 L 655 1.015625 C 679.296875 1.015625 698.984375 20.703125 698.984375 45 L 698.984375 655 C 698.984375 679.296875 679.296875 698.984375 655 698.984375 L 45 698.984375 C 20.703125 698.984375 1.015625 679.296875 1.015625 655 L 1.015625 45 C 1.015625 20.703125 20.703125 1.015625 45 1.015625 Z M 45 1.015625 " transform="matrix(0.05,0,0,0.05,0,0)"/>
<path style=" stroke:none;fill-rule:nonzero;fill:rgb(5.098039%,41.176471%,88.235294%);fill-opacity:1;" d="M 2.25 1 L 32.75 1 C 33.441406 1 34 1.558594 34 2.25 L 34 32.75 C 34 33.441406 33.441406 34 32.75 34 L 2.25 34 C 1.558594 34 1 33.441406 1 32.75 L 1 2.25 C 1 1.558594 1.558594 1 2.25 1 Z M 2.25 1 "/>
<path style=" stroke:none;fill-rule:nonzero;fill:rgb(100%,100%,100%);fill-opacity:1;" d="M 15.019531 12.554688 L 15.652344 10.5 L 8.386719 10.5 L 8.386719 16.660156 L 9.808594 17.449219 C 10.125 17.292969 10.757812 16.5 11.703125 16.5 C 13.125 16.5 13.914062 17.765625 13.914062 18.871094 C 13.914062 20.449219 12.335938 21.238281 11.070312 21.238281 C 10.035156 21.238281 8.839844 21.128906 8.070312 20.609375 L 8.386719 22.660156 C 8.386719 22.660156 9.964844 23.292969 11.386719 23.292969 C 14.386719 23.292969 16.285156 21.238281 16.285156 18.714844 C 16.285156 16.1875 14.230469 14.765625 12.492188 14.765625 C 11.769531 14.765625 10.914062 14.921875 10.441406 15.554688 L 10.441406 12.554688 Z M 15.019531 12.554688 "/>
<path style=" stroke:none;fill-rule:nonzero;fill:rgb(100%,100%,100%);fill-opacity:1;" d="M 23.320312 10.34375 C 20.792969 10.34375 19.054688 13.027344 19.054688 16.816406 C 19.054688 20.609375 20.792969 23.292969 23.320312 23.292969 C 25.847656 23.292969 27.582031 20.609375 27.582031 16.816406 C 27.582031 13.230469 25.847656 10.34375 23.320312 10.34375 Z M 23.320312 12.304688 C 24.539062 12.304688 25.371094 13.660156 25.371094 16.816406 C 25.371094 19.976562 24.539062 21.328125 23.320312 21.328125 C 22.101562 21.328125 21.265625 19.976562 21.265625 16.816406 C 21.265625 13.660156 22.101562 12.304688 23.320312 12.304688 Z M 23.320312 12.304688 "/>
<path style=" stroke:none;fill-rule:nonzero;fill:rgb(100%,0%,0%);fill-opacity:1;" d="M 1 32.75 C 1 33.441406 1.558594 34 2.25 34 L 3.761719 34 L 34 3.761719 L 34 2.25 C 34 1.558594 33.441406 1 32.75 1 L 31.238281 1 L 1 31.238281 Z M 1 32.75 "/>
</g>
</svg>
