<?xml version="1.0" encoding="UTF-8"?>
<svg xmlns="http://www.w3.org/2000/svg" xmlns:xlink="http://www.w3.org/1999/xlink" width="35px" height="35px" viewBox="0 0 35 26" version="1.1">
<g id="surface1">
<path style=" stroke:none;fill-rule:nonzero;fill:rgb(100%,100%,100%);fill-opacity:1;" d="M 1.050781 0 L 33.949219 0 C 34.53125 0 35 0.457031 35 1.015625 L 35 24.984375 C 35 25.542969 34.53125 26 33.949219 26 L 1.050781 26 C 0.46875 26 0 25.542969 0 24.984375 L 0 1.015625 C 0 0.457031 0.46875 0 1.050781 0 Z M 1.050781 0 "/>
<path style=" stroke:none;fill-rule:nonzero;fill:rgb(0%,0%,0%);fill-opacity:1;" d="M 1.050781 0.269531 C 0.625 0.269531 0.28125 0.605469 0.28125 1.015625 L 0.28125 24.984375 C 0.28125 25.394531 0.625 25.730469 1.050781 25.730469 L 33.949219 25.730469 C 34.375 25.730469 34.71875 25.394531 34.71875 24.984375 L 34.71875 1.015625 C 34.71875 0.605469 34.375 0.269531 33.949219 0.269531 Z M 1.050781 0.40625 L 33.949219 0.40625 C 34.300781 0.40625 34.578125 0.679688 34.578125 1.015625 L 34.578125 24.984375 C 34.578125 25.320312 34.300781 25.59375 33.949219 25.59375 L 4.617188 25.59375 L 4.617188 21.132812 L 23.265625 11.527344 L 23.789062 12.484375 L 25.644531 9.609375 L 22.148438 9.488281 L 22.671875 10.449219 L 4.617188 19.75 L 4.617188 5.878906 L 5.738281 5.878906 L 3.988281 2.941406 L 2.238281 5.878906 L 3.355469 5.878906 L 3.355469 25.59375 L 1.050781 25.59375 C 0.699219 25.59375 0.421875 25.320312 0.421875 24.984375 L 0.421875 1.015625 C 0.421875 0.679688 0.699219 0.40625 1.050781 0.40625 Z M 1.050781 0.40625 "/>
<path style=" stroke:none;fill-rule:nonzero;fill:rgb(100%,100%,100%);fill-opacity:1;" d="M 12.125 18.085938 C 12.125 19.644531 10.824219 20.90625 9.214844 20.90625 C 7.609375 20.90625 6.308594 19.644531 6.308594 18.085938 C 6.308594 16.53125 7.609375 15.269531 9.214844 15.269531 C 10.824219 15.269531 12.125 16.53125 12.125 18.085938 Z M 12.125 18.085938 "/>
<path style=" stroke:none;fill-rule:nonzero;fill:rgb(0%,0%,0%);fill-opacity:1;" d="M 6.765625 3.617188 L 6.765625 5.199219 L 7.117188 5.199219 L 7.117188 3.929688 L 7.730469 3.929688 L 7.730469 5.199219 L 8.078125 5.199219 L 8.078125 3.617188 Z M 6.765625 3.617188 "/>
<path style=" stroke:none;fill-rule:nonzero;fill:rgb(0%,0%,0%);fill-opacity:1;" d="M 8.945312 3.617188 C 8.945312 3.726562 8.941406 3.859375 8.9375 4.011719 C 8.929688 4.167969 8.921875 4.3125 8.90625 4.449219 C 8.894531 4.582031 8.875 4.671875 8.851562 4.71875 C 8.816406 4.785156 8.769531 4.832031 8.714844 4.867188 C 8.660156 4.902344 8.605469 4.925781 8.558594 4.933594 L 8.625 5.257812 C 8.859375 5.195312 9.023438 5.09375 9.109375 4.949219 C 9.195312 4.804688 9.238281 4.644531 9.25 4.460938 C 9.257812 4.277344 9.261719 4.101562 9.265625 3.929688 L 9.730469 3.929688 L 9.730469 5.199219 L 10.082031 5.199219 L 10.082031 3.617188 Z M 8.945312 3.617188 "/>
<path style=" stroke:none;fill-rule:nonzero;fill:rgb(0%,0%,0%);fill-opacity:1;" d="M 11.089844 4.972656 C 11.085938 4.902344 11.0625 4.847656 11.015625 4.800781 C 10.964844 4.753906 10.90625 4.730469 10.835938 4.726562 C 10.761719 4.730469 10.703125 4.753906 10.65625 4.800781 C 10.605469 4.847656 10.582031 4.902344 10.578125 4.972656 C 10.582031 5.042969 10.605469 5.101562 10.65625 5.148438 C 10.703125 5.195312 10.761719 5.21875 10.835938 5.21875 C 10.90625 5.21875 10.964844 5.195312 11.015625 5.148438 C 11.0625 5.101562 11.085938 5.042969 11.089844 4.972656 Z M 11.089844 4.972656 "/>
<path style=" stroke:none;fill-rule:nonzero;fill:rgb(0%,0%,0%);fill-opacity:1;" d="M 12.40625 2.9375 L 12.40625 5.199219 L 12.8125 5.199219 L 12.8125 3.277344 L 13.6875 3.277344 L 13.6875 5.199219 L 14.097656 5.199219 L 14.097656 2.9375 Z M 12.40625 2.9375 "/>
<path style=" stroke:none;fill-rule:nonzero;fill:rgb(0%,0%,0%);fill-opacity:1;" d="M 14.996094 5.1875 C 15.007812 5.195312 15.03125 5.199219 15.066406 5.203125 C 15.097656 5.207031 15.140625 5.207031 15.199219 5.207031 C 15.308594 5.207031 15.414062 5.167969 15.519531 5.101562 C 15.628906 5.03125 15.707031 4.941406 15.753906 4.832031 L 16.511719 2.9375 L 16.074219 2.9375 L 15.609375 4.125 L 15.054688 2.9375 L 14.617188 2.9375 C 14.621094 2.949219 14.664062 3.03125 14.742188 3.191406 C 14.820312 3.351562 14.914062 3.539062 15.019531 3.753906 C 15.125 3.96875 15.214844 4.164062 15.292969 4.335938 C 15.375 4.503906 15.417969 4.605469 15.421875 4.636719 C 15.417969 4.679688 15.390625 4.730469 15.335938 4.78125 C 15.28125 4.828125 15.214844 4.855469 15.140625 4.859375 C 15.082031 4.859375 15.027344 4.855469 14.980469 4.847656 C 14.933594 4.839844 14.910156 4.832031 14.90625 4.832031 Z M 14.996094 5.1875 "/>
<path style=" stroke:none;fill-rule:nonzero;fill:rgb(0%,0%,0%);fill-opacity:1;" d="M 16.976562 5.199219 L 19.542969 5.199219 L 19.542969 2.9375 L 19.132812 2.9375 L 19.132812 4.859375 L 18.460938 4.859375 L 18.460938 2.9375 L 18.054688 2.9375 L 18.054688 4.855469 L 17.382812 4.859375 L 17.382812 2.9375 L 16.976562 2.9375 Z M 16.976562 5.199219 "/>
<path style=" stroke:none;fill-rule:nonzero;fill:rgb(0%,0%,0%);fill-opacity:1;" d="M 20.144531 2.9375 L 20.144531 5.199219 L 20.554688 5.199219 L 20.554688 4.167969 C 20.558594 4.164062 20.578125 4.164062 20.621094 4.160156 C 20.660156 4.15625 20.695312 4.15625 20.730469 4.15625 C 20.816406 4.15625 20.886719 4.179688 20.945312 4.230469 C 21.003906 4.277344 21.058594 4.347656 21.109375 4.4375 C 21.1875 4.570312 21.269531 4.710938 21.363281 4.859375 C 21.453125 5.007812 21.519531 5.121094 21.5625 5.199219 L 22.070312 5.199219 C 21.96875 5.117188 21.878906 5.007812 21.792969 4.867188 C 21.710938 4.730469 21.628906 4.585938 21.546875 4.4375 C 21.480469 4.3125 21.410156 4.207031 21.339844 4.117188 C 21.265625 4.027344 21.160156 3.972656 21.019531 3.957031 C 21.078125 3.949219 21.148438 3.902344 21.226562 3.8125 C 21.300781 3.722656 21.371094 3.640625 21.429688 3.5625 C 21.488281 3.476562 21.542969 3.410156 21.597656 3.359375 C 21.648438 3.308594 21.730469 3.28125 21.835938 3.277344 L 21.75 2.882812 C 21.550781 2.910156 21.390625 3 21.273438 3.148438 C 21.152344 3.296875 21.042969 3.441406 20.945312 3.578125 C 20.84375 3.71875 20.722656 3.789062 20.582031 3.789062 C 20.574219 3.789062 20.566406 3.789062 20.566406 3.789062 C 20.5625 3.789062 20.558594 3.785156 20.554688 3.78125 L 20.554688 2.9375 Z M 20.144531 2.9375 "/>
<path style=" stroke:none;fill-rule:nonzero;fill:rgb(0%,0%,0%);fill-opacity:1;" d="M 24.222656 5.199219 L 24.222656 2.9375 L 23.785156 2.9375 L 22.9375 4.492188 L 22.9375 2.9375 L 22.53125 2.9375 L 22.53125 5.199219 L 22.96875 5.199219 L 23.8125 3.644531 L 23.8125 5.199219 Z M 24.222656 5.199219 "/>
<path style=" stroke:none;fill-rule:nonzero;fill:rgb(0%,0%,0%);fill-opacity:1;" d="M 24.886719 5.199219 L 25.296875 5.199219 L 25.296875 4.183594 L 26.171875 4.183594 L 26.171875 5.199219 L 26.578125 5.199219 L 26.578125 2.9375 L 26.171875 2.9375 L 26.171875 3.84375 L 25.296875 3.84375 L 25.296875 2.9375 L 24.886719 2.9375 Z M 24.886719 5.199219 "/>
<path style=" stroke:none;fill-rule:nonzero;fill:rgb(0%,0%,0%);fill-opacity:1;" d="M 27.855469 4.410156 L 28.148438 3.449219 L 28.4375 4.410156 Z M 27.914062 2.9375 L 27.15625 5.199219 L 27.59375 5.199219 L 27.738281 4.746094 L 28.554688 4.746094 L 28.703125 5.199219 L 29.140625 5.199219 L 28.378906 2.9375 Z M 27.914062 2.9375 "/>
<path style=" stroke:none;fill-rule:nonzero;fill:rgb(0%,0%,0%);fill-opacity:1;" d="M 14.613281 19.105469 L 14.726562 19.425781 C 14.769531 19.433594 14.796875 19.441406 14.808594 19.441406 C 14.820312 19.441406 14.832031 19.445312 14.847656 19.445312 C 14.9375 19.441406 15.023438 19.414062 15.113281 19.363281 C 15.199219 19.308594 15.265625 19.230469 15.3125 19.132812 L 15.984375 17.183594 L 15.574219 17.183594 L 15.253906 18.226562 L 14.875 17.183594 L 14.464844 17.183594 L 15.089844 18.765625 C 15.070312 18.851562 15.035156 18.933594 14.984375 19.007812 C 14.933594 19.085938 14.859375 19.128906 14.757812 19.132812 C 14.742188 19.132812 14.722656 19.132812 14.695312 19.128906 C 14.671875 19.125 14.640625 19.117188 14.613281 19.105469 Z M 14.613281 19.105469 "/>
<path style=" stroke:none;fill-rule:nonzero;fill:rgb(0%,0%,0%);fill-opacity:1;" d="M 16.632812 17.183594 C 16.632812 17.292969 16.632812 17.421875 16.625 17.578125 C 16.621094 17.734375 16.609375 17.878906 16.597656 18.011719 C 16.582031 18.148438 16.566406 18.238281 16.542969 18.285156 C 16.503906 18.347656 16.457031 18.398438 16.402344 18.433594 C 16.347656 18.46875 16.296875 18.492188 16.246094 18.5 L 16.3125 18.820312 C 16.550781 18.761719 16.710938 18.660156 16.796875 18.515625 C 16.882812 18.371094 16.929688 18.207031 16.9375 18.027344 C 16.945312 17.84375 16.949219 17.667969 16.953125 17.492188 L 17.421875 17.492188 L 17.421875 18.765625 L 17.769531 18.765625 L 17.769531 17.183594 Z M 16.632812 17.183594 "/>
<path style=" stroke:none;fill-rule:nonzero;fill:rgb(0%,0%,0%);fill-opacity:1;" d="M 18.765625 18.539062 C 18.765625 18.46875 18.738281 18.410156 18.691406 18.363281 C 18.644531 18.320312 18.582031 18.292969 18.511719 18.292969 C 18.441406 18.292969 18.378906 18.320312 18.332031 18.363281 C 18.285156 18.410156 18.257812 18.46875 18.257812 18.539062 C 18.257812 18.609375 18.285156 18.667969 18.332031 18.714844 C 18.378906 18.757812 18.441406 18.785156 18.511719 18.785156 C 18.582031 18.785156 18.644531 18.757812 18.691406 18.714844 C 18.738281 18.667969 18.765625 18.609375 18.765625 18.539062 Z M 18.765625 18.539062 "/>
<path style=" stroke:none;fill-rule:nonzero;fill:rgb(0%,0%,0%);fill-opacity:1;" d="M 20.070312 18.765625 L 20.480469 18.765625 L 20.480469 16.84375 L 21.53125 16.84375 L 21.53125 16.503906 L 20.070312 16.503906 Z M 20.070312 18.765625 "/>
<path style=" stroke:none;fill-rule:nonzero;fill:rgb(0%,0%,0%);fill-opacity:1;" d="M 22.878906 16.449219 C 22.558594 16.457031 22.320312 16.574219 22.164062 16.796875 C 22.007812 17.019531 21.929688 17.300781 21.929688 17.636719 C 21.929688 17.96875 22.007812 18.25 22.164062 18.472656 C 22.320312 18.695312 22.558594 18.8125 22.878906 18.820312 C 23.199219 18.8125 23.4375 18.695312 23.59375 18.472656 C 23.75 18.25 23.828125 17.96875 23.828125 17.636719 C 23.828125 17.300781 23.75 17.019531 23.59375 16.796875 C 23.4375 16.574219 23.199219 16.457031 22.878906 16.449219 Z M 22.878906 16.816406 C 23.042969 16.816406 23.175781 16.890625 23.277344 17.035156 C 23.378906 17.179688 23.429688 17.378906 23.433594 17.636719 C 23.429688 17.890625 23.378906 18.089844 23.277344 18.234375 C 23.175781 18.378906 23.042969 18.453125 22.878906 18.453125 C 22.714844 18.453125 22.582031 18.378906 22.480469 18.234375 C 22.378906 18.089844 22.328125 17.890625 22.324219 17.636719 C 22.328125 17.378906 22.378906 17.179688 22.480469 17.035156 C 22.582031 16.890625 22.714844 16.816406 22.878906 16.816406 Z M 22.878906 16.816406 "/>
<path style=" stroke:none;fill-rule:nonzero;fill:rgb(0%,0%,0%);fill-opacity:1;" d="M 24.378906 18.765625 L 24.785156 18.765625 L 24.785156 16.84375 L 25.835938 16.84375 L 25.835938 16.503906 L 24.378906 16.503906 Z M 24.378906 18.765625 "/>
<path style=" stroke:none;fill-rule:nonzero;fill:rgb(0%,0%,0%);fill-opacity:1;" d="M 27.1875 16.449219 C 26.867188 16.457031 26.628906 16.574219 26.46875 16.796875 C 26.3125 17.019531 26.234375 17.300781 26.234375 17.636719 C 26.234375 17.96875 26.3125 18.25 26.46875 18.472656 C 26.628906 18.695312 26.867188 18.8125 27.1875 18.820312 C 27.507812 18.8125 27.746094 18.695312 27.902344 18.472656 C 28.058594 18.25 28.136719 17.96875 28.136719 17.636719 C 28.136719 17.300781 28.058594 17.019531 27.902344 16.796875 C 27.746094 16.574219 27.507812 16.457031 27.1875 16.449219 Z M 27.1875 16.816406 C 27.351562 16.816406 27.480469 16.890625 27.582031 17.035156 C 27.683594 17.179688 27.738281 17.378906 27.742188 17.636719 C 27.738281 17.890625 27.683594 18.089844 27.582031 18.234375 C 27.480469 18.378906 27.351562 18.453125 27.1875 18.453125 C 27.023438 18.453125 26.890625 18.378906 26.789062 18.234375 C 26.6875 18.089844 26.636719 17.890625 26.632812 17.636719 C 26.636719 17.378906 26.6875 17.179688 26.789062 17.035156 C 26.890625 16.890625 27.023438 16.816406 27.1875 16.816406 Z M 27.1875 16.816406 "/>
<path style=" stroke:none;fill-rule:nonzero;fill:rgb(0%,0%,0%);fill-opacity:1;" d="M 29.003906 16.503906 C 29.007812 16.679688 29.003906 16.875 29.003906 17.089844 C 29.003906 17.300781 29 17.496094 28.996094 17.671875 C 28.992188 17.847656 28.984375 17.96875 28.976562 18.03125 C 28.953125 18.132812 28.90625 18.214844 28.835938 18.273438 C 28.765625 18.335938 28.699219 18.378906 28.632812 18.40625 C 28.570312 18.429688 28.535156 18.441406 28.53125 18.441406 L 28.597656 18.820312 C 28.605469 18.824219 28.667969 18.8125 28.78125 18.777344 C 28.898438 18.746094 29.019531 18.667969 29.144531 18.546875 C 29.269531 18.425781 29.347656 18.234375 29.386719 17.972656 C 29.394531 17.871094 29.402344 17.730469 29.40625 17.554688 C 29.410156 17.378906 29.410156 17.21875 29.414062 17.074219 C 29.414062 16.929688 29.414062 16.851562 29.414062 16.84375 L 30.054688 16.84375 L 30.054688 18.765625 L 30.464844 18.765625 L 30.464844 16.503906 Z M 29.003906 16.503906 "/>
<path style=" stroke:none;fill-rule:nonzero;fill:rgb(0%,0%,0%);fill-opacity:1;" d="M 32.8125 16.503906 L 31.964844 16.503906 C 31.679688 16.515625 31.480469 16.589844 31.367188 16.730469 C 31.253906 16.871094 31.203125 17 31.207031 17.125 C 31.207031 17.28125 31.253906 17.410156 31.34375 17.511719 C 31.433594 17.613281 31.554688 17.679688 31.703125 17.707031 C 31.640625 17.722656 31.574219 17.761719 31.507812 17.824219 C 31.4375 17.890625 31.386719 17.957031 31.351562 18.03125 C 31.320312 18.101562 31.277344 18.191406 31.21875 18.300781 C 31.160156 18.410156 31.101562 18.507812 31.042969 18.601562 C 30.988281 18.691406 30.945312 18.746094 30.914062 18.765625 L 31.410156 18.765625 C 31.46875 18.667969 31.519531 18.574219 31.566406 18.488281 C 31.613281 18.398438 31.660156 18.304688 31.714844 18.203125 C 31.761719 18.109375 31.808594 18.027344 31.867188 17.960938 C 31.921875 17.898438 32.011719 17.863281 32.140625 17.859375 L 32.402344 17.859375 L 32.402344 18.765625 L 32.8125 18.765625 Z M 32.402344 16.84375 L 32.402344 17.523438 L 32.050781 17.523438 C 31.933594 17.523438 31.828125 17.496094 31.746094 17.441406 C 31.664062 17.390625 31.617188 17.300781 31.613281 17.183594 C 31.621094 17.0625 31.667969 16.976562 31.761719 16.921875 C 31.851562 16.867188 31.960938 16.84375 32.082031 16.84375 Z M 32.402344 16.84375 "/>
<path style=" stroke:none;fill-rule:nonzero;fill:rgb(0%,0%,0%);fill-opacity:1;" d="M 16.125 22.65625 L 16.210938 22.382812 L 15.207031 22.382812 L 15.207031 23.210938 L 15.402344 23.316406 C 15.425781 23.300781 15.457031 23.277344 15.5 23.242188 C 15.542969 23.210938 15.597656 23.191406 15.664062 23.1875 C 15.765625 23.191406 15.839844 23.226562 15.890625 23.292969 C 15.945312 23.355469 15.972656 23.429688 15.972656 23.507812 C 15.964844 23.613281 15.921875 23.691406 15.839844 23.746094 C 15.757812 23.796875 15.671875 23.824219 15.578125 23.824219 C 15.503906 23.824219 15.429688 23.820312 15.355469 23.808594 C 15.28125 23.796875 15.214844 23.773438 15.160156 23.738281 L 15.207031 24.015625 C 15.210938 24.019531 15.253906 24.03125 15.339844 24.058594 C 15.425781 24.082031 15.519531 24.097656 15.621094 24.097656 C 15.832031 24.09375 15.996094 24.035156 16.117188 23.917969 C 16.234375 23.804688 16.296875 23.660156 16.300781 23.484375 C 16.292969 23.3125 16.234375 23.183594 16.128906 23.09375 C 16.019531 23 15.902344 22.957031 15.773438 22.953125 C 15.722656 22.953125 15.671875 22.960938 15.621094 22.976562 C 15.566406 22.992188 15.523438 23.019531 15.488281 23.0625 L 15.488281 22.65625 Z M 16.125 22.65625 "/>
<path style=" stroke:none;fill-rule:nonzero;fill:rgb(0%,0%,0%);fill-opacity:1;" d="M 17.199219 22.363281 C 17.019531 22.367188 16.878906 22.445312 16.769531 22.605469 C 16.664062 22.761719 16.609375 22.972656 16.605469 23.230469 C 16.609375 23.488281 16.664062 23.699219 16.769531 23.855469 C 16.878906 24.015625 17.019531 24.09375 17.199219 24.097656 C 17.375 24.09375 17.515625 24.015625 17.625 23.855469 C 17.730469 23.699219 17.785156 23.488281 17.789062 23.230469 C 17.785156 22.984375 17.730469 22.777344 17.625 22.617188 C 17.515625 22.453125 17.375 22.367188 17.199219 22.363281 Z M 17.199219 22.625 C 17.28125 22.625 17.351562 22.671875 17.402344 22.769531 C 17.453125 22.867188 17.480469 23.019531 17.480469 23.230469 C 17.480469 23.441406 17.453125 23.59375 17.402344 23.691406 C 17.351562 23.789062 17.28125 23.835938 17.199219 23.835938 C 17.113281 23.835938 17.042969 23.789062 16.992188 23.691406 C 16.941406 23.59375 16.914062 23.441406 16.914062 23.230469 C 16.914062 23.019531 16.941406 22.867188 16.992188 22.769531 C 17.042969 22.671875 17.113281 22.625 17.199219 22.625 Z M 17.199219 22.625 "/>
<path style=" stroke:none;fill-rule:nonzero;fill:rgb(0%,0%,0%);fill-opacity:1;" d="M 18.480469 24.078125 L 18.746094 24.078125 L 18.808594 23.25 L 19.160156 23.929688 L 19.511719 23.25 L 19.574219 24.078125 L 19.839844 24.078125 L 19.730469 22.890625 L 19.464844 22.890625 L 19.160156 23.484375 L 18.855469 22.890625 L 18.589844 22.890625 Z M 18.480469 24.078125 "/>
<path style=" stroke:none;fill-rule:nonzero;fill:rgb(0%,0%,0%);fill-opacity:1;" d="M 7.363281 17.292969 C 7.285156 17.292969 7.214844 17.332031 7.171875 17.394531 L 6.804688 17.921875 C 6.777344 17.957031 6.765625 18.003906 6.765625 18.046875 L 6.765625 18.742188 C 6.765625 18.867188 6.867188 18.96875 6.996094 18.96875 L 7.207031 18.96875 C 7.222656 18.71875 7.433594 18.515625 7.699219 18.515625 C 7.960938 18.515625 8.175781 18.71875 8.1875 18.96875 L 10.011719 18.96875 C 10.019531 18.789062 10.132812 18.636719 10.292969 18.5625 L 8.257812 18.5625 L 8.257812 17.519531 C 8.257812 17.394531 8.15625 17.292969 8.023438 17.292969 Z M 7.375 17.429688 L 7.910156 17.429688 C 7.972656 17.429688 8.023438 17.480469 8.023438 17.542969 L 8.023438 17.859375 C 8.023438 17.921875 7.972656 17.972656 7.910156 17.972656 L 7.15625 17.972656 C 7.089844 17.972656 7.039062 17.921875 7.039062 17.859375 C 7.039062 17.839844 7.046875 17.816406 7.058594 17.796875 L 7.28125 17.480469 C 7.300781 17.449219 7.335938 17.429688 7.375 17.429688 Z M 7.375 17.429688 "/>
<path style=" stroke:none;fill-rule:nonzero;fill:rgb(0%,0%,0%);fill-opacity:1;" d="M 8.632812 16.617188 C 8.503906 16.617188 8.398438 16.714844 8.398438 16.84375 L 8.398438 18.425781 L 11.4375 18.425781 L 11.4375 16.84375 C 11.4375 16.714844 11.332031 16.617188 11.203125 16.617188 Z M 8.632812 16.617188 "/>
<path style=" stroke:none;fill-rule:nonzero;fill:rgb(0%,0%,0%);fill-opacity:1;" d="M 10.5 18.609375 C 10.28125 18.609375 10.105469 18.78125 10.105469 18.992188 C 10.105469 19.203125 10.28125 19.378906 10.5 19.378906 C 10.722656 19.378906 10.898438 19.203125 10.898438 18.992188 C 10.898438 18.78125 10.722656 18.609375 10.5 18.609375 Z M 10.5 18.789062 C 10.617188 18.789062 10.710938 18.878906 10.710938 18.992188 C 10.710938 19.105469 10.617188 19.195312 10.5 19.195312 C 10.386719 19.195312 10.292969 19.105469 10.292969 18.992188 C 10.292969 18.878906 10.386719 18.789062 10.5 18.789062 Z M 10.5 18.789062 "/>
<path style=" stroke:none;fill-rule:nonzero;fill:rgb(0%,0%,0%);fill-opacity:1;" d="M 10.992188 18.96875 C 10.984375 18.789062 10.871094 18.636719 10.710938 18.5625 L 11.4375 18.5625 L 11.4375 18.96875 Z M 10.992188 18.96875 "/>
<path style=" stroke:none;fill-rule:nonzero;fill:rgb(0%,0%,0%);fill-opacity:1;" d="M 7.699219 18.609375 C 7.480469 18.609375 7.300781 18.78125 7.300781 18.992188 C 7.300781 19.203125 7.480469 19.378906 7.699219 19.378906 C 7.917969 19.378906 8.09375 19.203125 8.09375 18.992188 C 8.09375 18.78125 7.917969 18.609375 7.699219 18.609375 Z M 7.699219 18.789062 C 7.8125 18.789062 7.910156 18.878906 7.910156 18.992188 C 7.910156 19.105469 7.8125 19.195312 7.699219 19.195312 C 7.582031 19.195312 7.488281 19.105469 7.488281 18.992188 C 7.488281 18.878906 7.582031 18.789062 7.699219 18.789062 Z M 7.699219 18.789062 "/>
<path style=" stroke:none;fill-rule:nonzero;fill:rgb(100%,0%,0%);fill-opacity:1;" d="M 9.214844 14.695312 C 7.285156 14.695312 5.714844 16.214844 5.714844 18.085938 C 5.714844 19.960938 7.285156 21.476562 9.214844 21.476562 C 11.148438 21.476562 12.714844 19.960938 12.714844 18.085938 C 12.714844 16.214844 11.148438 14.695312 9.214844 14.695312 Z M 9.214844 15.269531 C 10.824219 15.269531 12.125 16.53125 12.125 18.085938 C 12.125 19.644531 10.824219 20.90625 9.214844 20.90625 C 7.609375 20.90625 6.308594 19.644531 6.308594 18.085938 C 6.308594 16.53125 7.609375 15.269531 9.214844 15.269531 Z M 9.214844 15.269531 "/>
<path style="fill:none;stroke-width:2;stroke-linecap:butt;stroke-linejoin:miter;stroke:rgb(0%,0%,0%);stroke-opacity:1;stroke-miterlimit:4;" d="M 45.033482 -96.601161 L 1454.966518 -96.601161 C 1479.241071 -96.601161 1498.995536 -76.904647 1498.995536 -52.715945 L 1498.995536 1007.440305 C 1498.995536 1031.629007 1479.241071 1051.325521 1454.966518 1051.325521 L 45.033482 1051.325521 C 20.758929 1051.325521 1.004464 1031.629007 1.004464 1007.440305 L 1.004464 -52.715945 C 1.004464 -76.904647 20.758929 -96.601161 45.033482 -96.601161 Z M 45.033482 -96.601161 " transform="matrix(0.0233333,0,0,0.0226087,0,2.207464)"/>
</g>
</svg>
