<?xml version="1.0" encoding="UTF-8"?>
<svg xmlns="http://www.w3.org/2000/svg" xmlns:xlink="http://www.w3.org/1999/xlink" width="35px" height="35px" viewBox="0 0 35 11" version="1.1">
<g id="surface1">
<path style=" stroke:none;fill-rule:nonzero;fill:rgb(100%,100%,100%);fill-opacity:1;" d="M 1.5 0 L 33.5 0 C 34.328125 0 35 0.632812 35 1.414062 L 35 9.585938 C 35 10.367188 34.328125 11 33.5 11 L 1.5 11 C 0.671875 11 0 10.367188 0 9.585938 L 0 1.414062 C 0 0.632812 0.671875 0 1.5 0 Z M 1.5 0 "/>
<path style=" stroke:none;fill-rule:nonzero;fill:rgb(10.196078%,10.196078%,10.196078%);fill-opacity:1;" d="M 1.5 0.3125 C 0.855469 0.3125 0.332031 0.804688 0.332031 1.414062 L 0.332031 9.585938 C 0.332031 10.195312 0.855469 10.6875 1.5 10.6875 L 33.5 10.6875 C 34.144531 10.6875 34.667969 10.195312 34.667969 9.585938 L 34.667969 1.414062 C 34.667969 0.804688 34.144531 0.3125 33.5 0.3125 Z M 1.5 0.628906 L 33.5 0.628906 C 33.960938 0.628906 34.332031 0.980469 34.332031 1.414062 L 34.332031 9.585938 C 34.332031 10.019531 33.960938 10.371094 33.5 10.371094 L 1.5 10.371094 C 1.039062 10.371094 0.667969 10.019531 0.667969 9.585938 L 0.667969 1.414062 C 0.667969 0.980469 1.039062 0.628906 1.5 0.628906 Z M 1.5 0.628906 "/>
<path style="fill:none;stroke-width:2;stroke-linecap:butt;stroke-linejoin:miter;stroke:rgb(0%,0%,0%);stroke-opacity:1;stroke-miterlimit:4;" d="M 45 703.356498 L 1005 703.356498 C 1029.257812 703.356498 1048.945312 723.118572 1048.945312 747.355078 L 1048.945312 1007.369282 C 1048.945312 1031.605788 1029.257812 1051.367862 1005 1051.367862 L 45 1051.367862 C 20.742188 1051.367862 1.054688 1031.605788 1.054688 1007.369282 L 1.054688 747.355078 C 1.054688 723.118572 20.742188 703.356498 45 703.356498 Z M 45 703.356498 " transform="matrix(0.0333333,0,0,0.0314286,0,-22.07424)"/>
<path style=" stroke:none;fill-rule:nonzero;fill:rgb(0%,0%,0%);fill-opacity:1;" d="M 2.332031 6.050781 L 2.332031 9.351562 L 32.667969 9.351562 L 32.667969 3.300781 L 30.625 2.75 L 28.582031 3.300781 L 28.582031 7.148438 L 28 7.148438 L 28 6.050781 L 25.082031 4.675781 L 22.167969 6.050781 L 22.167969 7.148438 L 21.582031 7.148438 L 21.582031 6.601562 L 20.125 5.5 L 18.375 5.5 L 18.375 5.226562 L 16.625 5.226562 L 16.625 5.5 L 14.875 5.5 L 13.417969 6.601562 L 13.417969 7.148438 L 12.832031 7.148438 L 12.832031 6.324219 L 10.5 1.648438 L 8.167969 6.324219 L 8.167969 7.148438 L 7.582031 7.148438 L 7.582031 6.050781 L 4.957031 5.226562 Z M 2.332031 6.050781 "/>
</g>
</svg>
