<?xml version="1.0" encoding="UTF-8"?>
<svg xmlns="http://www.w3.org/2000/svg" xmlns:xlink="http://www.w3.org/1999/xlink" width="35px" height="35px" viewBox="0 0 35 12" version="1.1">
<g id="surface1">
<path style=" stroke:none;fill-rule:nonzero;fill:rgb(100%,100%,100%);fill-opacity:1;" d="M 0.71875 0 L 34.28125 0 C 34.675781 0 35 0.300781 35 0.675781 L 35 11.324219 C 35 11.699219 34.675781 12 34.28125 12 L 0.71875 12 C 0.324219 12 0 11.699219 0 11.324219 L 0 0.675781 C 0 0.300781 0.324219 0 0.71875 0 Z M 0.71875 0 "/>
<path style=" stroke:none;fill-rule:nonzero;fill:rgb(5.098039%,41.176471%,88.235294%);fill-opacity:1;" d="M 0.847656 0.238281 C 0.539062 0.238281 0.289062 0.472656 0.289062 0.761719 L 0.289062 11.171875 C 0.289062 11.464844 0.539062 11.699219 0.847656 11.699219 L 34.152344 11.699219 C 34.460938 11.699219 34.710938 11.464844 34.710938 11.171875 L 34.710938 0.761719 C 34.710938 0.472656 34.460938 0.238281 34.152344 0.238281 Z M 33.003906 1.1875 C 33.164062 1.191406 33.308594 1.234375 33.4375 1.328125 C 33.570312 1.417969 33.640625 1.542969 33.648438 1.699219 C 33.644531 1.855469 33.59375 1.984375 33.496094 2.082031 C 33.402344 2.183594 33.292969 2.242188 33.167969 2.257812 C 33.222656 2.269531 33.296875 2.292969 33.386719 2.335938 C 33.476562 2.378906 33.558594 2.441406 33.632812 2.519531 C 33.707031 2.597656 33.746094 2.699219 33.75 2.820312 C 33.75 3 33.675781 3.164062 33.523438 3.3125 C 33.371094 3.460938 33.152344 3.542969 32.867188 3.550781 C 32.738281 3.546875 32.605469 3.53125 32.472656 3.503906 C 32.335938 3.476562 32.265625 3.460938 32.253906 3.457031 L 32.203125 3.0625 C 32.28125 3.109375 32.375 3.140625 32.484375 3.160156 C 32.597656 3.175781 32.707031 3.1875 32.808594 3.1875 C 32.945312 3.1875 33.066406 3.15625 33.164062 3.097656 C 33.261719 3.039062 33.316406 2.941406 33.324219 2.8125 C 33.328125 2.757812 33.308594 2.691406 33.257812 2.613281 C 33.207031 2.535156 33.085938 2.492188 32.898438 2.484375 C 32.859375 2.484375 32.824219 2.484375 32.789062 2.488281 C 32.75 2.492188 32.71875 2.5 32.6875 2.511719 L 32.6875 2.203125 C 32.839844 2.171875 32.96875 2.117188 33.070312 2.035156 C 33.171875 1.953125 33.222656 1.871094 33.226562 1.78125 C 33.226562 1.710938 33.195312 1.652344 33.132812 1.601562 C 33.074219 1.554688 33.003906 1.53125 32.925781 1.527344 C 32.8125 1.527344 32.714844 1.542969 32.636719 1.574219 C 32.558594 1.605469 32.476562 1.652344 32.394531 1.722656 L 32.238281 1.386719 C 32.320312 1.34375 32.4375 1.300781 32.585938 1.257812 C 32.738281 1.214844 32.878906 1.191406 33.003906 1.1875 Z M 2.179688 1.191406 C 2.421875 1.195312 2.613281 1.257812 2.75 1.375 C 2.886719 1.492188 2.957031 1.636719 2.960938 1.808594 C 2.953125 1.949219 2.917969 2.054688 2.851562 2.128906 C 2.785156 2.203125 2.714844 2.25 2.648438 2.277344 C 2.582031 2.304688 2.546875 2.316406 2.539062 2.316406 C 2.546875 2.3125 2.589844 2.328125 2.671875 2.363281 C 2.753906 2.394531 2.835938 2.449219 2.917969 2.53125 C 3 2.613281 3.042969 2.730469 3.050781 2.878906 C 3.046875 3.027344 2.96875 3.175781 2.8125 3.320312 C 2.65625 3.464844 2.4375 3.539062 2.148438 3.550781 C 1.886719 3.539062 1.675781 3.488281 1.507812 3.398438 C 1.339844 3.308594 1.253906 3.253906 1.25 3.242188 L 1.519531 2.933594 C 1.519531 2.945312 1.574219 2.984375 1.679688 3.058594 C 1.789062 3.132812 1.953125 3.175781 2.179688 3.1875 C 2.304688 3.183594 2.410156 3.152344 2.496094 3.089844 C 2.582031 3.03125 2.625 2.949219 2.628906 2.847656 C 2.625 2.734375 2.589844 2.648438 2.515625 2.582031 C 2.4375 2.519531 2.347656 2.484375 2.238281 2.484375 L 1.96875 2.484375 L 1.96875 2.148438 L 2.238281 2.148438 C 2.359375 2.140625 2.445312 2.105469 2.496094 2.039062 C 2.546875 1.972656 2.570312 1.914062 2.570312 1.867188 C 2.574219 1.816406 2.550781 1.753906 2.5 1.679688 C 2.445312 1.605469 2.339844 1.566406 2.179688 1.558594 C 1.96875 1.566406 1.816406 1.601562 1.722656 1.664062 C 1.625 1.730469 1.578125 1.765625 1.578125 1.773438 L 1.351562 1.445312 C 1.355469 1.433594 1.433594 1.390625 1.585938 1.316406 C 1.738281 1.246094 1.933594 1.203125 2.179688 1.191406 Z M 14.335938 1.191406 C 14.667969 1.199219 14.910156 1.316406 15.074219 1.539062 C 15.234375 1.761719 15.316406 2.039062 15.316406 2.371094 C 15.316406 2.707031 15.234375 2.984375 15.074219 3.207031 C 14.910156 3.429688 14.667969 3.542969 14.335938 3.550781 C 14.007812 3.542969 13.761719 3.429688 13.601562 3.207031 C 13.4375 2.984375 13.359375 2.707031 13.359375 2.371094 C 13.359375 2.039062 13.4375 1.761719 13.601562 1.539062 C 13.761719 1.316406 14.007812 1.199219 14.335938 1.191406 Z M 30.945312 1.21875 C 31.117188 1.222656 31.273438 1.28125 31.414062 1.386719 C 31.554688 1.496094 31.628906 1.636719 31.636719 1.808594 C 31.636719 1.945312 31.621094 2.046875 31.589844 2.121094 C 31.554688 2.195312 31.5 2.273438 31.425781 2.355469 C 31.328125 2.46875 31.214844 2.585938 31.082031 2.714844 C 30.945312 2.839844 30.800781 2.976562 30.644531 3.128906 L 31.636719 3.128906 C 31.636719 3.171875 31.628906 3.226562 31.613281 3.292969 C 31.597656 3.355469 31.574219 3.425781 31.546875 3.496094 L 30.105469 3.496094 L 30.105469 3.160156 C 30.269531 3.019531 30.421875 2.878906 30.566406 2.742188 C 30.707031 2.601562 30.847656 2.457031 30.980469 2.308594 C 31.054688 2.230469 31.113281 2.15625 31.160156 2.082031 C 31.207031 2.011719 31.230469 1.917969 31.234375 1.808594 C 31.230469 1.734375 31.199219 1.671875 31.136719 1.609375 C 31.074219 1.550781 30.992188 1.519531 30.886719 1.515625 C 30.796875 1.519531 30.710938 1.550781 30.632812 1.609375 C 30.554688 1.671875 30.480469 1.734375 30.40625 1.808594 L 30.164062 1.558594 C 30.253906 1.457031 30.359375 1.378906 30.488281 1.316406 C 30.613281 1.253906 30.765625 1.222656 30.945312 1.21875 Z M 3.707031 1.25 L 5.207031 1.25 L 5.207031 1.613281 L 4.128906 1.613281 L 4.128906 2.148438 L 5 2.148438 L 5 2.484375 L 4.128906 2.484375 L 4.128906 3.160156 L 5.238281 3.160156 L 5.238281 3.496094 L 3.707031 3.496094 Z M 6.347656 1.25 L 7.851562 1.25 L 7.851562 3.496094 L 7.429688 3.496094 L 7.429688 1.585938 L 6.769531 1.585938 C 6.769531 1.59375 6.769531 1.671875 6.769531 1.8125 C 6.769531 1.957031 6.765625 2.117188 6.761719 2.292969 C 6.757812 2.46875 6.75 2.605469 6.738281 2.707031 C 6.703125 2.96875 6.621094 3.15625 6.492188 3.277344 C 6.363281 3.398438 6.238281 3.476562 6.121094 3.507812 C 6 3.542969 5.9375 3.554688 5.929688 3.550781 L 5.859375 3.175781 C 5.863281 3.175781 5.902344 3.164062 5.96875 3.136719 C 6.035156 3.113281 6.101562 3.070312 6.175781 3.007812 C 6.25 2.949219 6.296875 2.867188 6.320312 2.765625 C 6.328125 2.703125 6.335938 2.582031 6.339844 2.410156 C 6.34375 2.234375 6.347656 2.039062 6.347656 1.828125 C 6.347656 1.617188 6.347656 1.421875 6.347656 1.25 Z M 8.632812 1.25 L 10.132812 1.25 L 10.132812 1.613281 L 9.054688 1.613281 L 9.054688 2.148438 L 9.921875 2.148438 L 9.921875 2.484375 L 9.054688 2.484375 L 9.054688 3.160156 L 10.164062 3.160156 L 10.164062 3.496094 L 8.632812 3.496094 Z M 10.945312 1.25 L 11.363281 1.25 L 11.363281 2.148438 L 12.265625 2.148438 L 12.265625 1.25 L 12.6875 1.25 L 12.6875 3.496094 L 12.265625 3.496094 L 12.265625 2.484375 L 11.363281 2.484375 L 11.363281 3.496094 L 10.945312 3.496094 Z M 15.988281 1.25 L 17.488281 1.25 L 17.488281 1.585938 L 16.40625 1.585938 L 16.40625 3.496094 L 15.988281 3.496094 Z M 18.113281 1.25 L 18.925781 1.25 C 19.222656 1.261719 19.433594 1.347656 19.554688 1.507812 C 19.679688 1.667969 19.738281 1.824219 19.734375 1.976562 C 19.730469 2.132812 19.65625 2.289062 19.511719 2.449219 C 19.363281 2.609375 19.167969 2.695312 18.925781 2.707031 L 18.535156 2.707031 L 18.535156 3.496094 L 18.113281 3.496094 Z M 21.210938 1.25 L 21.6875 1.25 L 22.46875 3.496094 L 22.019531 3.496094 L 21.871094 3.046875 L 21.027344 3.046875 L 20.878906 3.496094 L 20.429688 3.496094 Z M 23.519531 1.25 L 24.929688 1.25 L 24.929688 3.160156 L 25.199219 3.160156 L 25.199219 3.886719 L 24.839844 3.886719 L 24.839844 3.496094 L 23.335938 3.496094 L 23.335938 3.886719 L 22.976562 3.886719 L 22.976562 3.160156 L 23.246094 3.160156 C 23.289062 3.058594 23.328125 2.921875 23.371094 2.746094 C 23.414062 2.570312 23.445312 2.378906 23.472656 2.171875 C 23.5 1.964844 23.515625 1.769531 23.519531 1.585938 Z M 14.335938 1.558594 C 14.167969 1.558594 14.03125 1.632812 13.925781 1.773438 C 13.824219 1.917969 13.769531 2.117188 13.765625 2.371094 C 13.769531 2.625 13.824219 2.824219 13.925781 2.96875 C 14.03125 3.113281 14.167969 3.183594 14.335938 3.1875 C 14.503906 3.183594 14.640625 3.113281 14.746094 2.96875 C 14.851562 2.824219 14.902344 2.625 14.90625 2.371094 C 14.902344 2.117188 14.851562 1.917969 14.746094 1.773438 C 14.640625 1.632812 14.503906 1.558594 14.335938 1.558594 Z M 18.535156 1.585938 L 18.535156 2.371094 L 18.804688 2.371094 C 18.929688 2.371094 19.039062 2.34375 19.136719 2.28125 C 19.230469 2.21875 19.28125 2.117188 19.285156 1.976562 C 19.28125 1.839844 19.230469 1.738281 19.136719 1.675781 C 19.039062 1.613281 18.929688 1.585938 18.804688 1.585938 Z M 23.9375 1.585938 C 23.9375 1.863281 23.910156 2.144531 23.855469 2.433594 C 23.804688 2.726562 23.738281 2.964844 23.65625 3.160156 L 24.507812 3.160156 L 24.507812 1.585938 Z M 21.449219 1.753906 L 21.148438 2.707031 L 21.75 2.707031 Z M 30.921875 4.785156 C 31.082031 4.785156 31.226562 4.832031 31.355469 4.921875 C 31.488281 5.011719 31.558594 5.136719 31.566406 5.292969 C 31.5625 5.449219 31.511719 5.578125 31.414062 5.679688 C 31.320312 5.78125 31.210938 5.839844 31.085938 5.855469 C 31.140625 5.863281 31.210938 5.890625 31.304688 5.933594 C 31.394531 5.972656 31.476562 6.035156 31.550781 6.113281 C 31.625 6.195312 31.664062 6.296875 31.667969 6.417969 C 31.667969 6.59375 31.589844 6.757812 31.441406 6.910156 C 31.289062 7.058594 31.070312 7.136719 30.785156 7.148438 C 30.65625 7.144531 30.523438 7.125 30.386719 7.097656 C 30.253906 7.070312 30.183594 7.054688 30.171875 7.050781 L 30.121094 6.65625 C 30.195312 6.703125 30.292969 6.734375 30.402344 6.753906 C 30.515625 6.773438 30.621094 6.78125 30.726562 6.78125 C 30.863281 6.78125 30.984375 6.753906 31.082031 6.691406 C 31.179688 6.632812 31.234375 6.539062 31.238281 6.410156 C 31.246094 6.351562 31.222656 6.285156 31.175781 6.207031 C 31.125 6.128906 31.003906 6.085938 30.816406 6.078125 C 30.777344 6.078125 30.742188 6.082031 30.703125 6.082031 C 30.667969 6.085938 30.636719 6.09375 30.605469 6.109375 L 30.605469 5.796875 C 30.757812 5.765625 30.886719 5.710938 30.988281 5.628906 C 31.089844 5.550781 31.140625 5.464844 31.144531 5.378906 C 31.140625 5.304688 31.109375 5.246094 31.050781 5.199219 C 30.992188 5.152344 30.921875 5.125 30.84375 5.125 C 30.730469 5.125 30.632812 5.140625 30.554688 5.171875 C 30.476562 5.199219 30.394531 5.25 30.3125 5.316406 L 30.15625 4.984375 C 30.238281 4.9375 30.355469 4.894531 30.503906 4.851562 C 30.65625 4.808594 30.792969 4.785156 30.921875 4.785156 Z M 33.058594 4.816406 C 33.230469 4.820312 33.390625 4.875 33.527344 4.984375 C 33.667969 5.09375 33.742188 5.234375 33.75 5.40625 C 33.75 5.539062 33.734375 5.644531 33.703125 5.71875 C 33.671875 5.792969 33.617188 5.867188 33.539062 5.953125 C 33.445312 6.0625 33.328125 6.183594 33.195312 6.308594 C 33.058594 6.433594 32.914062 6.574219 32.757812 6.726562 L 33.75 6.726562 C 33.75 6.769531 33.742188 6.824219 33.726562 6.886719 C 33.710938 6.953125 33.691406 7.019531 33.660156 7.089844 L 32.21875 7.089844 L 32.21875 6.753906 C 32.382812 6.613281 32.535156 6.476562 32.679688 6.335938 C 32.820312 6.195312 32.960938 6.050781 33.09375 5.902344 C 33.167969 5.828125 33.226562 5.75 33.273438 5.679688 C 33.320312 5.605469 33.34375 5.515625 33.347656 5.40625 C 33.34375 5.332031 33.3125 5.265625 33.25 5.207031 C 33.191406 5.148438 33.105469 5.117188 33 5.113281 C 32.910156 5.117188 32.824219 5.148438 32.746094 5.207031 C 32.667969 5.265625 32.59375 5.332031 32.519531 5.40625 L 32.277344 5.152344 C 32.367188 5.054688 32.476562 4.972656 32.601562 4.910156 C 32.726562 4.851562 32.878906 4.816406 33.058594 4.816406 Z M 1.25 4.84375 L 2.988281 4.84375 L 2.988281 5.179688 L 2.328125 5.179688 L 2.328125 7.089844 L 1.910156 7.089844 L 1.910156 5.179688 L 1.25 5.179688 Z M 3.648438 4.84375 L 4.578125 4.84375 C 4.804688 4.851562 4.976562 4.917969 5.097656 5.042969 C 5.21875 5.164062 5.28125 5.304688 5.28125 5.460938 C 5.28125 5.546875 5.25 5.632812 5.1875 5.71875 C 5.128906 5.800781 5.042969 5.867188 4.9375 5.910156 C 5.0625 5.953125 5.160156 6.015625 5.238281 6.101562 C 5.316406 6.183594 5.355469 6.289062 5.359375 6.417969 C 5.355469 6.605469 5.28125 6.761719 5.136719 6.890625 C 4.996094 7.019531 4.808594 7.085938 4.582031 7.089844 L 3.648438 7.089844 Z M 6.050781 4.84375 L 7.550781 4.84375 L 7.550781 5.207031 L 6.472656 5.207031 L 6.472656 5.742188 L 7.34375 5.742188 L 7.34375 6.078125 L 6.472656 6.078125 L 6.472656 6.753906 L 7.582031 6.753906 L 7.582031 7.089844 L 6.050781 7.089844 Z M 8.363281 4.84375 L 9.171875 4.84375 C 9.46875 4.855469 9.679688 4.941406 9.804688 5.101562 C 9.929688 5.265625 9.988281 5.421875 9.984375 5.574219 C 9.980469 5.726562 9.90625 5.882812 9.757812 6.042969 C 9.613281 6.203125 9.417969 6.292969 9.171875 6.304688 L 8.785156 6.304688 L 8.785156 7.089844 L 8.363281 7.089844 Z M 10.765625 4.84375 L 11.1875 4.84375 L 11.1875 5.714844 L 11.699219 5.714844 C 11.992188 5.722656 12.191406 5.796875 12.296875 5.933594 C 12.40625 6.066406 12.453125 6.210938 12.449219 6.359375 C 12.453125 6.515625 12.390625 6.671875 12.269531 6.832031 C 12.144531 6.992188 11.933594 7.078125 11.636719 7.089844 L 10.765625 7.089844 Z M 29.074219 4.84375 L 29.433594 4.84375 L 29.433594 7.089844 L 29.011719 7.089844 L 29.011719 5.347656 L 28.691406 5.539062 L 28.550781 5.367188 Z M 4.066406 5.179688 L 4.066406 5.757812 L 4.546875 5.757812 C 4.640625 5.757812 4.710938 5.730469 4.765625 5.675781 C 4.820312 5.625 4.847656 5.554688 4.847656 5.46875 C 4.84375 5.371094 4.8125 5.296875 4.753906 5.25 C 4.695312 5.203125 4.625 5.179688 4.546875 5.179688 Z M 8.785156 5.179688 L 8.785156 5.96875 L 9.054688 5.96875 C 9.179688 5.96875 9.289062 5.9375 9.382812 5.875 C 9.480469 5.8125 9.527344 5.714844 9.535156 5.574219 C 9.527344 5.433594 9.480469 5.335938 9.382812 5.273438 C 9.289062 5.210938 9.179688 5.179688 9.054688 5.179688 Z M 11.1875 6.050781 L 11.1875 6.753906 L 11.609375 6.753906 C 11.742188 6.753906 11.847656 6.726562 11.917969 6.667969 C 11.992188 6.613281 12.027344 6.527344 12.027344 6.417969 C 12.027344 6.304688 11.992188 6.214844 11.917969 6.148438 C 11.847656 6.085938 11.742188 6.050781 11.609375 6.050781 Z M 4.066406 6.078125 L 4.066406 6.753906 L 4.578125 6.753906 C 4.699219 6.75 4.789062 6.714844 4.847656 6.644531 C 4.910156 6.578125 4.9375 6.5 4.9375 6.417969 C 4.9375 6.332031 4.910156 6.257812 4.847656 6.1875 C 4.789062 6.121094 4.699219 6.082031 4.578125 6.078125 Z M 2.226562 8.382812 C 2.453125 8.386719 2.636719 8.445312 2.777344 8.554688 C 2.917969 8.667969 3.023438 8.816406 3.097656 9 L 2.695312 9.140625 C 2.648438 9.003906 2.589844 8.902344 2.511719 8.839844 C 2.433594 8.777344 2.339844 8.746094 2.226562 8.75 C 2.058594 8.75 1.921875 8.824219 1.816406 8.964844 C 1.714844 9.109375 1.660156 9.308594 1.65625 9.5625 C 1.660156 9.816406 1.714844 10.015625 1.816406 10.160156 C 1.921875 10.300781 2.058594 10.375 2.226562 10.378906 C 2.339844 10.378906 2.433594 10.347656 2.511719 10.285156 C 2.589844 10.222656 2.648438 10.125 2.695312 9.984375 L 3.097656 10.125 C 3.023438 10.308594 2.917969 10.457031 2.777344 10.570312 C 2.636719 10.683594 2.453125 10.738281 2.226562 10.742188 C 1.898438 10.734375 1.652344 10.617188 1.492188 10.398438 C 1.328125 10.175781 1.25 9.898438 1.25 9.5625 C 1.25 9.226562 1.328125 8.949219 1.492188 8.726562 C 1.652344 8.507812 1.898438 8.390625 2.226562 8.382812 Z M 32.875 8.386719 C 33.136719 8.386719 33.34375 8.476562 33.503906 8.65625 C 33.660156 8.832031 33.742188 9.097656 33.746094 9.449219 C 33.75 9.796875 33.675781 10.09375 33.523438 10.339844 C 33.375 10.585938 33.128906 10.714844 32.785156 10.726562 C 32.660156 10.722656 32.542969 10.699219 32.441406 10.664062 C 32.335938 10.628906 32.28125 10.605469 32.277344 10.601562 L 32.226562 10.257812 C 32.234375 10.261719 32.289062 10.285156 32.390625 10.324219 C 32.492188 10.363281 32.617188 10.382812 32.757812 10.390625 C 32.933594 10.378906 33.0625 10.316406 33.144531 10.195312 C 33.226562 10.078125 33.277344 9.957031 33.296875 9.839844 C 33.320312 9.71875 33.328125 9.65625 33.328125 9.648438 C 33.25 9.707031 33.164062 9.757812 33.0625 9.800781 C 32.964844 9.847656 32.863281 9.871094 32.757812 9.871094 C 32.652344 9.878906 32.53125 9.835938 32.386719 9.75 C 32.246094 9.660156 32.167969 9.484375 32.15625 9.226562 C 32.160156 8.992188 32.230469 8.796875 32.371094 8.636719 C 32.507812 8.476562 32.675781 8.394531 32.875 8.386719 Z M 28.964844 8.402344 C 29.089844 8.40625 29.207031 8.421875 29.308594 8.449219 C 29.414062 8.476562 29.46875 8.492188 29.476562 8.496094 L 29.535156 8.835938 C 29.53125 8.832031 29.480469 8.8125 29.382812 8.777344 C 29.28125 8.746094 29.164062 8.726562 29.023438 8.71875 C 28.847656 8.730469 28.71875 8.796875 28.636719 8.917969 C 28.558594 9.039062 28.507812 9.160156 28.484375 9.28125 C 28.464844 9.402344 28.457031 9.46875 28.457031 9.476562 C 28.53125 9.417969 28.621094 9.363281 28.71875 9.316406 C 28.816406 9.265625 28.917969 9.242188 29.023438 9.238281 C 29.089844 9.234375 29.171875 9.253906 29.269531 9.289062 C 29.367188 9.328125 29.453125 9.394531 29.53125 9.492188 C 29.609375 9.585938 29.652344 9.722656 29.65625 9.898438 C 29.648438 10.128906 29.570312 10.324219 29.425781 10.476562 C 29.28125 10.628906 29.105469 10.707031 28.90625 10.714844 C 28.648438 10.710938 28.441406 10.617188 28.292969 10.429688 C 28.144531 10.242188 28.066406 9.972656 28.0625 9.617188 C 28.0625 9.296875 28.132812 9.019531 28.277344 8.78125 C 28.421875 8.539062 28.652344 8.414062 28.964844 8.402344 Z M 6.164062 8.4375 L 7.90625 8.4375 L 7.90625 10.6875 L 7.484375 10.6875 L 7.484375 8.777344 L 6.585938 8.777344 L 6.585938 10.6875 L 6.164062 10.6875 Z M 8.6875 8.4375 L 10.1875 8.4375 L 10.1875 8.804688 L 9.105469 8.804688 L 9.105469 9.339844 L 9.976562 9.339844 L 9.976562 9.675781 L 9.105469 9.675781 L 9.105469 10.347656 L 10.21875 10.347656 L 10.21875 10.6875 L 8.6875 10.6875 Z M 10.878906 8.4375 L 12.621094 8.4375 L 12.621094 8.777344 L 11.957031 8.777344 L 11.957031 10.6875 L 11.539062 10.6875 L 11.539062 8.777344 L 10.878906 8.777344 Z M 13.277344 8.4375 L 14.777344 8.4375 L 14.777344 8.804688 L 13.695312 8.804688 L 13.695312 9.339844 L 14.566406 9.339844 L 14.566406 9.675781 L 13.695312 9.675781 L 13.695312 10.347656 L 14.808594 10.347656 L 14.808594 10.6875 L 13.277344 10.6875 Z M 15.589844 8.4375 L 16.398438 8.4375 C 16.695312 8.453125 16.90625 8.539062 17.027344 8.699219 C 17.152344 8.859375 17.214844 9.015625 17.210938 9.167969 C 17.207031 9.324219 17.128906 9.480469 16.984375 9.640625 C 16.835938 9.800781 16.644531 9.886719 16.398438 9.898438 L 16.007812 9.898438 L 16.007812 10.6875 L 15.589844 10.6875 Z M 17.992188 8.4375 L 19.523438 8.4375 L 19.523438 8.777344 L 18.414062 8.777344 L 18.414062 9.339844 L 18.921875 9.339844 C 19.21875 9.347656 19.421875 9.425781 19.539062 9.570312 C 19.652344 9.714844 19.707031 9.859375 19.703125 10.011719 C 19.707031 10.164062 19.640625 10.3125 19.507812 10.453125 C 19.375 10.597656 19.160156 10.675781 18.863281 10.6875 L 17.992188 10.6875 Z M 20.269531 8.4375 L 20.722656 8.4375 L 21.292969 9.617188 L 21.773438 8.4375 L 22.222656 8.4375 L 21.441406 10.320312 C 21.394531 10.429688 21.3125 10.519531 21.203125 10.585938 C 21.09375 10.65625 20.980469 10.691406 20.871094 10.695312 C 20.8125 10.695312 20.765625 10.691406 20.734375 10.6875 C 20.699219 10.683594 20.675781 10.679688 20.660156 10.675781 L 20.570312 10.320312 C 20.574219 10.324219 20.597656 10.328125 20.648438 10.335938 C 20.695312 10.34375 20.75 10.347656 20.8125 10.347656 C 20.890625 10.34375 20.957031 10.320312 21.011719 10.269531 C 21.066406 10.21875 21.097656 10.171875 21.097656 10.125 C 21.09375 10.09375 21.050781 9.996094 20.96875 9.824219 C 20.886719 9.65625 20.792969 9.464844 20.683594 9.25 C 20.578125 9.035156 20.484375 8.851562 20.402344 8.691406 C 20.320312 8.53125 20.277344 8.445312 20.269531 8.4375 Z M 22.824219 8.4375 L 23.636719 8.4375 C 23.933594 8.453125 24.144531 8.539062 24.265625 8.699219 C 24.390625 8.859375 24.449219 9.015625 24.445312 9.167969 C 24.441406 9.324219 24.367188 9.480469 24.222656 9.640625 C 24.074219 9.800781 23.878906 9.886719 23.636719 9.898438 L 23.246094 9.898438 L 23.246094 10.6875 L 22.824219 10.6875 Z M 25.230469 8.4375 L 26.730469 8.4375 L 26.730469 8.777344 L 25.648438 8.777344 L 25.648438 10.6875 L 25.230469 10.6875 Z M 30.257812 8.4375 L 31.699219 8.4375 L 31.699219 8.71875 C 31.546875 8.996094 31.402344 9.289062 31.265625 9.59375 C 31.125 9.902344 31.011719 10.257812 30.917969 10.660156 L 30.46875 10.660156 C 30.535156 10.316406 30.644531 9.988281 30.796875 9.667969 C 30.949219 9.347656 31.109375 9.0625 31.28125 8.804688 L 30.167969 8.804688 Z M 32.9375 8.75 C 32.804688 8.757812 32.703125 8.808594 32.640625 8.902344 C 32.578125 8.996094 32.546875 9.09375 32.546875 9.199219 C 32.550781 9.308594 32.585938 9.394531 32.652344 9.449219 C 32.714844 9.507812 32.78125 9.535156 32.847656 9.535156 C 32.996094 9.523438 33.113281 9.476562 33.191406 9.398438 C 33.273438 9.316406 33.3125 9.269531 33.3125 9.257812 C 33.308594 9.214844 33.292969 9.152344 33.273438 9.074219 C 33.25 8.992188 33.210938 8.917969 33.15625 8.851562 C 33.105469 8.785156 33.03125 8.75 32.9375 8.75 Z M 16.007812 8.777344 L 16.007812 9.5625 L 16.277344 9.5625 C 16.402344 9.5625 16.515625 9.535156 16.609375 9.472656 C 16.703125 9.410156 16.753906 9.308594 16.757812 9.167969 C 16.753906 9.03125 16.703125 8.929688 16.609375 8.867188 C 16.515625 8.804688 16.402344 8.773438 16.277344 8.777344 Z M 23.246094 8.777344 L 23.246094 9.5625 L 23.515625 9.5625 C 23.640625 9.5625 23.75 9.535156 23.847656 9.472656 C 23.941406 9.410156 23.992188 9.308594 23.996094 9.167969 C 23.992188 9.03125 23.941406 8.929688 23.847656 8.867188 C 23.75 8.804688 23.640625 8.773438 23.515625 8.777344 Z M 28.964844 9.5625 C 28.851562 9.574219 28.742188 9.621094 28.636719 9.703125 C 28.53125 9.785156 28.476562 9.832031 28.46875 9.84375 C 28.46875 9.851562 28.480469 9.894531 28.503906 9.976562 C 28.53125 10.054688 28.570312 10.136719 28.628906 10.21875 C 28.683594 10.300781 28.757812 10.34375 28.847656 10.347656 C 28.984375 10.34375 29.085938 10.292969 29.15625 10.199219 C 29.226562 10.105469 29.265625 10.003906 29.265625 9.898438 C 29.261719 9.789062 29.226562 9.703125 29.160156 9.648438 C 29.09375 9.589844 29.03125 9.5625 28.964844 9.5625 Z M 18.414062 9.675781 L 18.414062 10.347656 L 18.832031 10.347656 C 18.96875 10.347656 19.078125 10.320312 19.160156 10.265625 C 19.242188 10.207031 19.28125 10.125 19.285156 10.011719 C 19.28125 9.898438 19.242188 9.816406 19.160156 9.757812 C 19.078125 9.703125 18.96875 9.675781 18.832031 9.675781 Z M 4.632812 9.730469 L 5.476562 9.730469 L 5.476562 10.097656 L 4.632812 10.097656 Z M 3.851562 10.214844 C 3.925781 10.21875 3.988281 10.242188 4.035156 10.289062 C 4.085938 10.335938 4.109375 10.390625 4.113281 10.460938 C 4.109375 10.53125 4.085938 10.589844 4.035156 10.636719 C 3.988281 10.679688 3.925781 10.703125 3.851562 10.707031 C 3.777344 10.703125 3.714844 10.679688 3.664062 10.636719 C 3.617188 10.589844 3.589844 10.53125 3.589844 10.460938 C 3.589844 10.390625 3.617188 10.335938 3.664062 10.289062 C 3.714844 10.242188 3.777344 10.21875 3.851562 10.214844 Z M 3.851562 10.214844 "/>
<path style="fill:none;stroke-width:2;stroke-linecap:butt;stroke-linejoin:miter;stroke:rgb(0%,0%,0%);stroke-opacity:1;stroke-miterlimit:4;" d="M 44.891071 252.405149 L 2141.108929 252.405149 C 2165.262277 252.405149 2185.024107 271.960813 2185.024107 296.470578 L 2185.024107 1007.253782 C 2185.024107 1031.763547 2165.262277 1051.319211 2141.108929 1051.319211 L 44.891071 1051.319211 C 20.737723 1051.319211 0.975893 1031.763547 0.975893 1007.253782 L 0.975893 296.470578 C 0.975893 271.960813 20.737723 252.405149 44.891071 252.405149 Z M 44.891071 252.405149 " transform="matrix(0.016011,0,0,0.0149813,0,-3.765726)"/>
</g>
</svg>
