<?xml version="1.0" encoding="UTF-8"?>
<svg xmlns="http://www.w3.org/2000/svg" xmlns:xlink="http://www.w3.org/1999/xlink" width="35px" height="35px" viewBox="0 0 35 23" version="1.1">
<g id="surface1">
<path style=" stroke:none;fill-rule:nonzero;fill:rgb(100%,100%,100%);fill-opacity:1;" d="M 5.25 0 L 29.75 0 C 32.648438 0 35 2.316406 35 5.175781 L 35 17.824219 C 35 20.683594 32.648438 23 29.75 23 L 5.25 23 C 2.351562 23 0 20.683594 0 17.824219 L 0 5.175781 C 0 2.316406 2.351562 0 5.25 0 Z M 5.25 0 "/>
<path style="fill:none;stroke-width:2;stroke-linecap:butt;stroke-linejoin:miter;stroke:rgb(0%,0%,0%);stroke-opacity:1;stroke-miterlimit:4;" d="M 45 853.347234 L 255 853.347234 C 279.308036 853.347234 298.995536 873.048321 298.995536 897.368973 L 298.995536 1007.355387 C 298.995536 1031.676039 279.308036 1051.377126 255 1051.377126 L 45 1051.377126 C 20.691964 1051.377126 1.004464 1031.676039 1.004464 1007.355387 L 1.004464 897.368973 C 1.004464 873.048321 20.691964 853.347234 45 853.347234 Z M 45 853.347234 " transform="matrix(0.116667,0,0,0.115,0,-98.021651)"/>
<path style=" stroke:none;fill-rule:nonzero;fill:rgb(5.098039%,41.176471%,88.235294%);fill-opacity:1;" d="M 5.25 1.148438 C 2.988281 1.148438 1.167969 2.945312 1.167969 5.175781 L 1.167969 17.824219 C 1.167969 20.054688 2.988281 21.851562 5.25 21.851562 L 29.75 21.851562 C 32.011719 21.851562 33.832031 20.054688 33.832031 17.824219 L 33.832031 5.175781 C 33.832031 2.945312 32.011719 1.148438 29.75 1.148438 Z M 13.53125 7.816406 C 14.058594 7.828125 14.535156 8.007812 14.960938 8.355469 C 15.386719 8.703125 15.617188 9.152344 15.640625 9.703125 C 15.644531 10.132812 15.59375 10.46875 15.496094 10.703125 C 15.394531 10.9375 15.230469 11.1875 15 11.449219 C 14.707031 11.804688 14.351562 12.1875 13.941406 12.59375 C 13.53125 12.996094 13.089844 13.441406 12.613281 13.925781 L 15.640625 13.925781 C 15.640625 14.0625 15.617188 14.238281 15.570312 14.441406 C 15.527344 14.648438 15.457031 14.867188 15.363281 15.09375 L 10.964844 15.09375 L 10.964844 14.015625 C 11.464844 13.570312 11.929688 13.125 12.367188 12.679688 C 12.800781 12.234375 13.226562 11.773438 13.636719 11.296875 C 13.863281 11.050781 14.046875 10.808594 14.191406 10.578125 C 14.332031 10.34375 14.402344 10.050781 14.410156 9.703125 C 14.402344 9.46875 14.304688 9.257812 14.117188 9.066406 C 13.925781 8.878906 13.671875 8.777344 13.347656 8.765625 C 13.074219 8.777344 12.816406 8.878906 12.578125 9.066406 C 12.339844 9.257812 12.105469 9.46875 11.878906 9.703125 L 11.144531 8.894531 C 11.417969 8.582031 11.746094 8.324219 12.132812 8.125 C 12.519531 7.925781 12.984375 7.824219 13.53125 7.816406 Z M 19.953125 7.816406 C 20.699219 7.84375 21.296875 8.203125 21.742188 8.894531 C 22.191406 9.585938 22.417969 10.453125 22.429688 11.5 C 22.417969 12.597656 22.191406 13.480469 21.742188 14.152344 C 21.296875 14.824219 20.699219 15.164062 19.953125 15.183594 C 19.207031 15.164062 18.613281 14.824219 18.167969 14.152344 C 17.71875 13.480469 17.488281 12.597656 17.476562 11.5 C 17.488281 10.402344 17.71875 9.523438 18.167969 8.851562 C 18.613281 8.179688 19.207031 7.835938 19.953125 7.816406 Z M 7.746094 7.90625 L 8.847656 7.90625 L 8.847656 15.09375 L 7.566406 15.09375 L 7.566406 9.523438 L 6.582031 10.128906 L 6.152344 9.574219 Z M 24.261719 7.90625 L 28.484375 7.90625 L 28.117188 9.074219 L 25.457031 9.074219 L 25.457031 10.78125 C 25.597656 10.605469 25.78125 10.484375 26 10.421875 C 26.214844 10.359375 26.429688 10.328125 26.648438 10.332031 C 27.179688 10.335938 27.675781 10.53125 28.128906 10.917969 C 28.582031 11.304688 28.820312 11.855469 28.847656 12.578125 C 28.839844 13.316406 28.585938 13.929688 28.082031 14.421875 C 27.582031 14.914062 26.886719 15.164062 26.003906 15.183594 C 25.570312 15.167969 25.179688 15.109375 24.824219 15.003906 C 24.472656 14.898438 24.285156 14.839844 24.261719 14.824219 L 24.082031 13.65625 C 24.3125 13.800781 24.582031 13.898438 24.894531 13.949219 C 25.207031 13.996094 25.515625 14.019531 25.824219 14.015625 C 26.214844 14.015625 26.582031 13.902344 26.925781 13.679688 C 27.269531 13.453125 27.453125 13.117188 27.476562 12.667969 C 27.472656 12.335938 27.363281 12.035156 27.144531 11.757812 C 26.921875 11.484375 26.605469 11.335938 26.191406 11.320312 C 25.917969 11.335938 25.6875 11.417969 25.503906 11.558594 C 25.320312 11.699219 25.183594 11.796875 25.089844 11.859375 L 24.261719 11.410156 Z M 19.953125 8.933594 C 19.59375 8.929688 19.308594 9.128906 19.09375 9.542969 C 18.878906 9.953125 18.765625 10.605469 18.761719 11.5 C 18.765625 12.394531 18.878906 13.046875 19.09375 13.457031 C 19.308594 13.871094 19.59375 14.070312 19.953125 14.066406 C 20.3125 14.070312 20.597656 13.871094 20.8125 13.457031 C 21.027344 13.046875 21.140625 12.394531 21.144531 11.5 C 21.140625 10.605469 21.027344 9.953125 20.8125 9.542969 C 20.597656 9.128906 20.3125 8.929688 19.953125 8.933594 Z M 19.953125 8.933594 "/>
</g>
</svg>
