<?xml version="1.0" encoding="UTF-8"?>
<svg xmlns="http://www.w3.org/2000/svg" xmlns:xlink="http://www.w3.org/1999/xlink" width="35px" height="35px" viewBox="0 0 35 17" version="1.1">
<g id="surface1">
<path style="fill-rule:evenodd;fill:rgb(100%,100%,100%);fill-opacity:1;stroke-width:1;stroke-linecap:round;stroke-linejoin:round;stroke:rgb(0%,0%,0%);stroke-opacity:1;stroke-miterlimit:4;" d="M 45.053576 306.239554 L 189.301344 306.239554 C 192.348219 306.239554 194.82054 308.597091 194.82054 311.530914 L 194.82054 375.708304 C 194.82054 378.624664 192.348219 380.999664 189.301344 380.999664 L 45.053576 380.999664 C 42.006701 380.999664 39.53438 378.624664 39.53438 375.708304 L 39.53438 311.530914 C 39.53438 308.597091 42.006701 306.239554 45.053576 306.239554 Z M 45.053576 306.239554 " transform="matrix(0.224359,0,0,0.223684,-8.756612,-68.387672)"/>
<path style=" stroke:none;fill-rule:evenodd;fill:rgb(21.960784%,68.235294%,25.882353%);fill-opacity:1;" d="M 1.425781 0.585938 L 33.6875 0.585938 C 34.132812 0.585938 34.492188 0.925781 34.492188 1.34375 L 34.492188 15.644531 C 34.492188 16.0625 34.132812 16.402344 33.6875 16.402344 L 1.425781 16.402344 C 0.984375 16.402344 0.621094 16.0625 0.621094 15.644531 L 0.621094 1.34375 C 0.621094 0.925781 0.984375 0.585938 1.425781 0.585938 Z M 1.425781 0.585938 "/>
<path style=" stroke:none;fill-rule:nonzero;fill:rgb(100%,100%,100%);fill-opacity:1;" d="M 6.808594 12.875 L 12.578125 12.875 L 12.578125 11.519531 L 8.394531 11.519531 L 8.394531 8.816406 L 11.671875 8.816406 L 11.671875 7.460938 L 8.394531 7.460938 L 8.394531 5.320312 L 12.464844 5.320312 L 12.464844 3.855469 L 6.808594 3.855469 Z M 6.808594 12.875 "/>
<path style=" stroke:none;fill-rule:nonzero;fill:rgb(100%,100%,100%);fill-opacity:1;" d="M 15.066406 4.417969 L 15.664062 5.753906 C 15.972656 5.484375 16.273438 5.285156 16.566406 5.164062 C 16.863281 5.039062 17.226562 4.980469 17.667969 4.980469 C 17.960938 4.988281 18.21875 5.089844 18.445312 5.277344 C 18.667969 5.46875 18.785156 5.707031 18.796875 5.996094 C 18.785156 6.347656 18.585938 6.6875 18.203125 7.011719 C 17.820312 7.335938 17.339844 7.5625 16.761719 7.6875 L 16.761719 8.929688 C 16.875 8.875 17.003906 8.839844 17.140625 8.828125 C 17.277344 8.816406 17.414062 8.8125 17.554688 8.816406 C 18.261719 8.847656 18.714844 9.019531 18.90625 9.332031 C 19.09375 9.644531 19.179688 9.910156 19.152344 10.136719 C 19.128906 10.65625 18.929688 11.035156 18.558594 11.277344 C 18.1875 11.519531 17.738281 11.636719 17.214844 11.632812 C 16.828125 11.636719 16.425781 11.597656 16.003906 11.523438 C 15.582031 11.445312 15.226562 11.316406 14.9375 11.132812 L 15.128906 12.710938 C 15.171875 12.730469 15.441406 12.792969 15.945312 12.90625 C 16.449219 13.019531 16.949219 13.082031 17.441406 13.097656 C 18.519531 13.0625 19.34375 12.742188 19.910156 12.140625 C 20.476562 11.539062 20.765625 10.882812 20.769531 10.167969 C 20.75 9.679688 20.605469 9.277344 20.324219 8.957031 C 20.046875 8.636719 19.734375 8.390625 19.390625 8.222656 C 19.050781 8.050781 18.777344 7.949219 18.570312 7.914062 C 19.042969 7.847656 19.457031 7.613281 19.816406 7.207031 C 20.171875 6.804688 20.363281 6.289062 20.378906 5.660156 C 20.351562 5.03125 20.085938 4.535156 19.59375 4.171875 C 19.097656 3.808594 18.554688 3.621094 17.957031 3.613281 C 17.476562 3.625 16.953125 3.71875 16.382812 3.890625 C 15.816406 4.0625 15.378906 4.238281 15.066406 4.417969 Z M 15.066406 4.417969 "/>
<path style=" stroke:none;fill-rule:nonzero;fill:rgb(100%,100%,100%);fill-opacity:1;" d="M 26.007812 3.742188 C 25.085938 3.765625 24.351562 4.199219 23.800781 5.039062 C 23.25 5.878906 22.96875 6.988281 22.953125 8.363281 C 22.96875 9.742188 23.25 10.847656 23.800781 11.691406 C 24.351562 12.53125 25.085938 12.964844 26.007812 12.988281 C 26.925781 12.964844 27.660156 12.53125 28.210938 11.691406 C 28.761719 10.847656 29.046875 9.742188 29.058594 8.363281 C 29.046875 7.050781 28.761719 5.960938 28.210938 5.09375 C 27.660156 4.226562 26.925781 3.773438 26.007812 3.742188 Z M 26.007812 5.144531 C 26.449219 5.136719 26.804688 5.390625 27.070312 5.910156 C 27.332031 6.425781 27.46875 7.242188 27.476562 8.363281 C 27.46875 9.484375 27.332031 10.304688 27.070312 10.820312 C 26.804688 11.335938 26.449219 11.59375 26.007812 11.585938 C 25.5625 11.59375 25.210938 11.335938 24.945312 10.820312 C 24.679688 10.304688 24.542969 9.484375 24.535156 8.363281 C 24.542969 7.242188 24.679688 6.425781 24.945312 5.910156 C 25.210938 5.390625 25.5625 5.136719 26.007812 5.144531 Z M 26.007812 5.144531 "/>
</g>
</svg>
