<?xml version="1.0" encoding="UTF-8"?>
<svg xmlns="http://www.w3.org/2000/svg" xmlns:xlink="http://www.w3.org/1999/xlink" width="35px" height="35px" viewBox="0 0 35 52" version="1.1">
<g id="surface1">
<path style=" stroke:none;fill-rule:nonzero;fill:rgb(100%,100%,100%);fill-opacity:1;" d="M 1.75 0 L 33.25 0 C 34.214844 0 35 0.777344 35 1.734375 L 35 50.265625 C 35 51.222656 34.214844 52 33.25 52 L 1.75 52 C 0.785156 52 0 51.222656 0 50.265625 L 0 1.734375 C 0 0.777344 0.785156 0 1.75 0 Z M 1.75 0 "/>
<path style=" stroke:none;fill-rule:nonzero;fill:rgb(5.098039%,41.176471%,88.235294%);fill-opacity:1;" d="M 1.75 0.769531 C 1.210938 0.769531 0.777344 1.199219 0.777344 1.734375 L 0.777344 50.265625 C 0.777344 50.800781 1.210938 51.230469 1.75 51.230469 L 33.25 51.230469 C 33.789062 51.230469 34.222656 50.800781 34.222656 50.265625 L 34.222656 1.734375 C 34.222656 1.199219 33.789062 0.769531 33.25 0.769531 Z M 11.914062 18.417969 L 23.085938 18.417969 C 23.53125 18.417969 24.003906 18.75 24.144531 19.164062 L 24.679688 20.699219 L 25.785156 23.878906 C 25.789062 23.878906 25.789062 23.882812 25.789062 23.886719 L 26.046875 24.625 C 26.679688 24.625 27.1875 25.128906 27.1875 25.753906 L 27.1875 30.269531 C 27.1875 30.894531 26.679688 31.398438 26.046875 31.398438 L 8.953125 31.398438 C 8.320312 31.398438 7.8125 30.894531 7.8125 30.269531 L 7.8125 25.753906 C 7.8125 25.128906 8.320312 24.625 8.953125 24.625 L 9.210938 23.886719 C 9.210938 23.882812 9.210938 23.878906 9.214844 23.878906 L 10.320312 20.699219 L 10.855469 19.164062 C 10.996094 18.75 11.46875 18.417969 11.914062 18.417969 Z M 12.257812 19.546875 C 12.039062 19.546875 11.800781 19.714844 11.730469 19.921875 L 10.09375 24.625 L 24.90625 24.625 L 23.269531 19.921875 C 23.195312 19.714844 22.960938 19.546875 22.742188 19.546875 Z M 24.335938 25.695312 C 23.394531 25.695312 22.628906 26.457031 22.628906 27.390625 C 22.628906 28.324219 23.394531 29.082031 24.335938 29.082031 C 25.28125 29.082031 26.046875 28.324219 26.046875 27.390625 C 26.046875 26.457031 25.28125 25.695312 24.335938 25.695312 Z M 10.664062 25.753906 C 9.71875 25.753906 8.953125 26.511719 8.953125 27.445312 C 8.953125 28.382812 9.71875 29.140625 10.664062 29.140625 C 11.605469 29.140625 12.371094 28.382812 12.371094 27.445312 C 12.371094 26.511719 11.605469 25.753906 10.664062 25.753906 Z M 8.953125 31.960938 L 12.371094 31.960938 L 12.371094 34.21875 C 12.371094 35.152344 11.605469 35.914062 10.664062 35.914062 C 9.71875 35.914062 8.953125 35.152344 8.953125 34.21875 Z M 22.628906 31.960938 L 26.046875 31.960938 L 26.046875 34.21875 C 26.046875 35.152344 25.28125 35.914062 24.335938 35.914062 C 23.394531 35.914062 22.628906 35.152344 22.628906 34.21875 Z M 22.628906 31.960938 "/>
<path style="fill:none;stroke-width:2;stroke-linecap:butt;stroke-linejoin:miter;stroke:rgb(0%,0%,0%);stroke-opacity:1;stroke-miterlimit:4;" d="M 45 -296.623697 L 855 -296.623697 C 879.308036 -296.623697 898.995536 -276.949719 898.995536 -252.610777 L 898.995536 1007.335137 C 898.995536 1031.674079 879.308036 1051.348057 855 1051.348057 L 45 1051.348057 C 20.691964 1051.348057 1.004464 1031.674079 1.004464 1007.335137 L 1.004464 -252.610777 C 1.004464 -276.949719 20.691964 -296.623697 45 -296.623697 Z M 45 -296.623697 " transform="matrix(0.0388889,0,0,0.0385185,0,11.464568)"/>
</g>
</svg>
