<?xml version="1.0" encoding="UTF-8"?>
<svg xmlns="http://www.w3.org/2000/svg" xmlns:xlink="http://www.w3.org/1999/xlink" width="35px" height="35px" viewBox="0 0 35 11" version="1.1">
<g id="surface1">
<path style=" stroke:none;fill-rule:nonzero;fill:rgb(100%,100%,100%);fill-opacity:1;" d="M 1.5 0 L 33.5 0 C 34.328125 0 35 0.632812 35 1.414062 L 35 9.585938 C 35 10.367188 34.328125 11 33.5 11 L 1.5 11 C 0.671875 11 0 10.367188 0 9.585938 L 0 1.414062 C 0 0.632812 0.671875 0 1.5 0 Z M 1.5 0 "/>
<path style="fill:none;stroke-width:2;stroke-linecap:butt;stroke-linejoin:miter;stroke:rgb(0%,0%,0%);stroke-opacity:1;stroke-miterlimit:4;" d="M 45 703.356498 L 1005 703.356498 C 1029.257812 703.356498 1048.945312 723.118572 1048.945312 747.355078 L 1048.945312 1007.369282 C 1048.945312 1031.605788 1029.257812 1051.367862 1005 1051.367862 L 45 1051.367862 C 20.742188 1051.367862 1.054688 1031.605788 1.054688 1007.369282 L 1.054688 747.355078 C 1.054688 723.118572 20.742188 703.356498 45 703.356498 Z M 45 703.356498 " transform="matrix(0.0333333,0,0,0.0314286,0,-22.07424)"/>
<path style=" stroke:none;fill-rule:nonzero;fill:rgb(5.098039%,41.176471%,88.235294%);fill-opacity:1;" d="M 1.5 0.3125 C 0.855469 0.3125 0.332031 0.804688 0.332031 1.414062 L 0.332031 9.585938 C 0.332031 10.195312 0.855469 10.6875 1.5 10.6875 L 33.5 10.6875 C 34.144531 10.6875 34.667969 10.195312 34.667969 9.585938 L 34.667969 1.414062 C 34.667969 0.804688 34.144531 0.3125 33.5 0.3125 Z M 21.699219 1.648438 L 29.558594 1.648438 C 29.957031 1.648438 30.273438 1.949219 30.273438 2.324219 L 30.273438 7.070312 L 20.984375 7.070312 L 20.984375 2.324219 C 20.984375 1.949219 21.304688 1.648438 21.699219 1.648438 Z M 7.582031 2.75 L 7.582031 4.398438 L 11.375 4.398438 L 11.375 6.601562 L 7.582031 6.601562 L 7.582031 8.25 L 2.527344 5.5 Z M 17.820312 3.703125 L 19.839844 3.703125 C 20.234375 3.703125 20.554688 4.003906 20.554688 4.375 L 20.554688 7.472656 L 26.777344 7.472656 C 26.289062 7.691406 25.945312 8.148438 25.917969 8.6875 L 20.339844 8.6875 C 20.300781 7.9375 19.644531 7.339844 18.839844 7.339844 C 18.035156 7.339844 17.382812 7.9375 17.34375 8.6875 L 16.699219 8.6875 C 16.304688 8.6875 15.984375 8.386719 15.984375 8.011719 L 15.984375 5.941406 C 15.984375 5.808594 16.027344 5.675781 16.105469 5.566406 L 17.226562 4 C 17.359375 3.8125 17.582031 3.703125 17.820312 3.703125 Z M 17.855469 4.105469 C 17.738281 4.105469 17.625 4.160156 17.558594 4.253906 L 16.886719 5.199219 C 16.84375 5.253906 16.824219 5.320312 16.824219 5.386719 C 16.824219 5.570312 16.984375 5.722656 17.179688 5.722656 L 19.484375 5.722656 C 19.683594 5.722656 19.839844 5.570312 19.839844 5.386719 L 19.839844 4.441406 C 19.839844 4.257812 19.683594 4.105469 19.484375 4.105469 Z M 28.054688 7.472656 L 30.273438 7.472656 L 30.273438 8.6875 L 28.914062 8.6875 C 28.886719 8.148438 28.542969 7.691406 28.054688 7.472656 Z M 18.839844 7.609375 C 19.511719 7.609375 20.054688 8.121094 20.054688 8.753906 C 20.054688 9.386719 19.511719 9.898438 18.839844 9.898438 C 18.171875 9.898438 17.628906 9.386719 17.628906 8.753906 C 17.628906 8.121094 18.171875 7.609375 18.839844 7.609375 Z M 27.417969 7.609375 C 28.085938 7.609375 28.632812 8.121094 28.632812 8.753906 C 28.632812 9.386719 28.085938 9.898438 27.417969 9.898438 C 26.746094 9.898438 26.203125 9.386719 26.203125 8.753906 C 26.203125 8.121094 26.746094 7.609375 27.417969 7.609375 Z M 18.839844 8.148438 C 18.488281 8.148438 18.199219 8.421875 18.199219 8.753906 C 18.199219 9.089844 18.488281 9.359375 18.839844 9.359375 C 19.195312 9.359375 19.484375 9.089844 19.484375 8.753906 C 19.484375 8.421875 19.195312 8.148438 18.839844 8.148438 Z M 27.417969 8.148438 C 27.0625 8.148438 26.773438 8.421875 26.773438 8.753906 C 26.773438 9.089844 27.0625 9.359375 27.417969 9.359375 C 27.773438 9.359375 28.058594 9.089844 28.058594 8.753906 C 28.058594 8.421875 27.773438 8.148438 27.417969 8.148438 Z M 27.417969 8.148438 "/>
</g>
</svg>
