<?xml version="1.0" encoding="UTF-8"?>
<svg xmlns="http://www.w3.org/2000/svg" xmlns:xlink="http://www.w3.org/1999/xlink" width="35px" height="35px" viewBox="0 0 35 11" version="1.1">
<g id="surface1">
<path style=" stroke:none;fill-rule:nonzero;fill:rgb(100%,100%,100%);fill-opacity:1;" d="M 1.5 0 L 33.5 0 C 34.328125 0 35 0.632812 35 1.414062 L 35 9.585938 C 35 10.367188 34.328125 11 33.5 11 L 1.5 11 C 0.671875 11 0 10.367188 0 9.585938 L 0 1.414062 C 0 0.632812 0.671875 0 1.5 0 Z M 1.5 0 "/>
<path style="fill:none;stroke-width:2;stroke-linecap:butt;stroke-linejoin:miter;stroke:rgb(0%,0%,0%);stroke-opacity:1;stroke-miterlimit:4;" d="M 45 703.356498 L 1005 703.356498 C 1029.257812 703.356498 1048.945312 723.118572 1048.945312 747.355078 L 1048.945312 1007.369282 C 1048.945312 1031.605788 1029.257812 1051.367862 1005 1051.367862 L 45 1051.367862 C 20.742188 1051.367862 1.054688 1031.605788 1.054688 1007.369282 L 1.054688 747.355078 C 1.054688 723.118572 20.742188 703.356498 45 703.356498 Z M 45 703.356498 " transform="matrix(0.0333333,0,0,0.0314286,0,-22.07424)"/>
<path style=" stroke:none;fill-rule:nonzero;fill:rgb(5.098039%,41.176471%,88.235294%);fill-opacity:1;" d="M 33.5 0.3125 C 34.144531 0.3125 34.667969 0.804688 34.667969 1.414062 L 34.667969 9.585938 C 34.667969 10.195312 34.144531 10.6875 33.5 10.6875 L 1.5 10.6875 C 0.855469 10.6875 0.332031 10.195312 0.332031 9.585938 L 0.332031 1.414062 C 0.332031 0.804688 0.855469 0.3125 1.5 0.3125 Z M 13.300781 1.648438 L 5.441406 1.648438 C 5.042969 1.648438 4.726562 1.949219 4.726562 2.324219 L 4.726562 7.070312 L 14.015625 7.070312 L 14.015625 2.324219 C 14.015625 1.949219 13.695312 1.648438 13.300781 1.648438 Z M 27.417969 2.75 L 27.417969 4.398438 L 23.625 4.398438 L 23.625 6.601562 L 27.417969 6.601562 L 27.417969 8.25 L 32.472656 5.5 Z M 17.179688 3.703125 L 15.160156 3.703125 C 14.765625 3.703125 14.445312 4.003906 14.445312 4.375 L 14.445312 7.472656 L 8.222656 7.472656 C 8.710938 7.691406 9.054688 8.148438 9.082031 8.6875 L 14.660156 8.6875 C 14.699219 7.9375 15.355469 7.339844 16.160156 7.339844 C 16.964844 7.339844 17.617188 7.9375 17.65625 8.6875 L 18.300781 8.6875 C 18.695312 8.6875 19.015625 8.386719 19.015625 8.011719 L 19.015625 5.941406 C 19.015625 5.808594 18.972656 5.675781 18.894531 5.566406 L 17.773438 4 C 17.640625 3.8125 17.417969 3.703125 17.179688 3.703125 Z M 17.144531 4.105469 C 17.261719 4.105469 17.375 4.160156 17.441406 4.253906 L 18.113281 5.199219 C 18.15625 5.253906 18.175781 5.320312 18.175781 5.386719 C 18.175781 5.570312 18.015625 5.722656 17.820312 5.722656 L 15.515625 5.722656 C 15.316406 5.722656 15.160156 5.570312 15.160156 5.386719 L 15.160156 4.441406 C 15.160156 4.257812 15.316406 4.105469 15.515625 4.105469 Z M 6.945312 7.472656 L 4.726562 7.472656 L 4.726562 8.6875 L 6.085938 8.6875 C 6.113281 8.148438 6.457031 7.691406 6.945312 7.472656 Z M 16.160156 7.609375 C 15.488281 7.609375 14.945312 8.121094 14.945312 8.753906 C 14.945312 9.386719 15.488281 9.898438 16.160156 9.898438 C 16.828125 9.898438 17.371094 9.386719 17.371094 8.753906 C 17.371094 8.121094 16.828125 7.609375 16.160156 7.609375 Z M 7.582031 7.609375 C 6.914062 7.609375 6.367188 8.121094 6.367188 8.753906 C 6.367188 9.386719 6.914062 9.898438 7.582031 9.898438 C 8.253906 9.898438 8.796875 9.386719 8.796875 8.753906 C 8.796875 8.121094 8.253906 7.609375 7.582031 7.609375 Z M 16.160156 8.148438 C 16.511719 8.148438 16.800781 8.421875 16.800781 8.753906 C 16.800781 9.089844 16.511719 9.359375 16.160156 9.359375 C 15.804688 9.359375 15.515625 9.089844 15.515625 8.753906 C 15.515625 8.421875 15.804688 8.148438 16.160156 8.148438 Z M 7.582031 8.148438 C 7.9375 8.148438 8.226562 8.421875 8.226562 8.753906 C 8.226562 9.089844 7.9375 9.359375 7.582031 9.359375 C 7.226562 9.359375 6.941406 9.089844 6.941406 8.753906 C 6.941406 8.421875 7.226562 8.148438 7.582031 8.148438 Z M 7.582031 8.148438 "/>
</g>
</svg>
