<?xml version="1.0" encoding="UTF-8"?>
<svg xmlns="http://www.w3.org/2000/svg" xmlns:xlink="http://www.w3.org/1999/xlink" width="35px" height="35px" viewBox="0 0 35 11" version="1.1">
<g id="surface1">
<path style=" stroke:none;fill-rule:nonzero;fill:rgb(100%,100%,100%);fill-opacity:1;" d="M 1.5 0 L 33.5 0 C 34.328125 0 35 0.632812 35 1.414062 L 35 9.585938 C 35 10.367188 34.328125 11 33.5 11 L 1.5 11 C 0.671875 11 0 10.367188 0 9.585938 L 0 1.414062 C 0 0.632812 0.671875 0 1.5 0 Z M 1.5 0 "/>
<path style=" stroke:none;fill-rule:nonzero;fill:rgb(100%,80%,0%);fill-opacity:1;" d="M 33.5 0.628906 L 1.5 0.628906 C 1.039062 0.628906 0.667969 0.980469 0.667969 1.414062 L 0.667969 9.585938 C 0.667969 10.019531 1.039062 10.371094 1.5 10.371094 L 33.5 10.371094 C 33.960938 10.371094 34.332031 10.019531 34.332031 9.585938 L 34.332031 1.414062 C 34.332031 0.980469 33.960938 0.628906 33.5 0.628906 Z M 33.5 0.628906 "/>
<path style="fill:none;stroke-width:2;stroke-linecap:butt;stroke-linejoin:miter;stroke:rgb(0%,0%,0%);stroke-opacity:1;stroke-miterlimit:4;" d="M 45 703.356498 L 1005 703.356498 C 1029.257812 703.356498 1048.945312 723.118572 1048.945312 747.355078 L 1048.945312 1007.369282 C 1048.945312 1031.605788 1029.257812 1051.367862 1005 1051.367862 L 45 1051.367862 C 20.742188 1051.367862 1.054688 1031.605788 1.054688 1007.369282 L 1.054688 747.355078 C 1.054688 723.118572 20.742188 703.356498 45 703.356498 Z M 45 703.356498 " transform="matrix(0.0333333,0,0,0.0314286,0,-22.07424)"/>
<path style=" stroke:none;fill-rule:nonzero;fill:rgb(0%,0%,0%);fill-opacity:1;" d="M 1.5 0.3125 C 0.855469 0.3125 0.332031 0.804688 0.332031 1.414062 L 0.332031 9.585938 C 0.332031 10.195312 0.855469 10.6875 1.5 10.6875 L 33.5 10.6875 C 34.144531 10.6875 34.667969 10.195312 34.667969 9.585938 L 34.667969 1.414062 C 34.667969 0.804688 34.144531 0.3125 33.5 0.3125 Z M 1.5 0.628906 L 33.5 0.628906 C 33.960938 0.628906 34.332031 0.980469 34.332031 1.414062 L 34.332031 9.585938 C 34.332031 10.019531 33.960938 10.371094 33.5 10.371094 L 1.5 10.371094 C 1.039062 10.371094 0.667969 10.019531 0.667969 9.585938 L 0.667969 1.414062 C 0.667969 0.980469 1.039062 0.628906 1.5 0.628906 Z M 1.5 0.628906 "/>
<path style=" stroke:none;fill-rule:nonzero;fill:rgb(0%,0%,0%);fill-opacity:1;" d="M 27.609375 4.398438 L 27.609375 2.75 L 32.667969 5.5 L 27.609375 8.25 L 27.609375 6.601562 L 23.917969 6.601562 L 23.917969 4.398438 Z M 27.609375 4.398438 "/>
<path style=" stroke:none;fill-rule:nonzero;fill:rgb(0%,0%,0%);fill-opacity:1;" d="M 4.035156 4.042969 C 3.640625 4.050781 3.316406 4.183594 3.066406 4.449219 C 2.820312 4.710938 2.691406 5.070312 2.683594 5.515625 C 2.691406 5.964844 2.820312 6.320312 3.066406 6.585938 C 3.316406 6.847656 3.640625 6.984375 4.035156 6.988281 C 4.433594 6.984375 4.757812 6.847656 5.007812 6.585938 C 5.253906 6.320312 5.382812 5.964844 5.390625 5.515625 C 5.382812 5.070312 5.253906 4.710938 5.007812 4.449219 C 4.757812 4.183594 4.433594 4.050781 4.035156 4.042969 Z M 4.035156 4.535156 C 4.25 4.539062 4.421875 4.628906 4.558594 4.804688 C 4.691406 4.980469 4.761719 5.21875 4.765625 5.515625 C 4.761719 5.816406 4.691406 6.050781 4.558594 6.226562 C 4.421875 6.402344 4.25 6.492188 4.035156 6.5 C 3.824219 6.492188 3.652344 6.402344 3.515625 6.226562 C 3.382812 6.050781 3.3125 5.816406 3.308594 5.515625 C 3.3125 5.21875 3.382812 4.980469 3.515625 4.804688 C 3.652344 4.628906 3.824219 4.539062 4.035156 4.535156 Z M 4.035156 4.535156 "/>
<path style=" stroke:none;fill-rule:nonzero;fill:rgb(0%,0%,0%);fill-opacity:1;" d="M 8.871094 2.867188 C 8.871094 2.871094 8.820312 2.886719 8.722656 2.914062 C 8.625 2.941406 8.484375 2.960938 8.300781 2.964844 L 7.570312 2.964844 C 7.144531 2.972656 6.824219 3.082031 6.613281 3.296875 C 6.40625 3.507812 6.265625 3.761719 6.203125 4.0625 C 6.136719 4.363281 6.105469 4.652344 6.113281 4.925781 C 6.109375 5.246094 6.144531 5.5625 6.222656 5.875 C 6.300781 6.191406 6.441406 6.453125 6.644531 6.660156 C 6.851562 6.871094 7.140625 6.980469 7.519531 6.988281 C 7.960938 6.972656 8.300781 6.820312 8.527344 6.535156 C 8.757812 6.25 8.871094 5.925781 8.871094 5.566406 C 8.863281 5.097656 8.738281 4.746094 8.496094 4.503906 C 8.253906 4.261719 7.945312 4.144531 7.570312 4.140625 C 7.3125 4.148438 7.113281 4.207031 6.972656 4.3125 C 6.832031 4.421875 6.734375 4.527344 6.6875 4.632812 C 6.691406 4.351562 6.769531 4.105469 6.914062 3.890625 C 7.0625 3.675781 7.246094 3.5625 7.46875 3.554688 L 8.246094 3.554688 C 8.304688 3.550781 8.367188 3.546875 8.4375 3.535156 C 8.511719 3.527344 8.566406 3.515625 8.613281 3.503906 Z M 7.519531 4.632812 C 7.683594 4.628906 7.835938 4.699219 7.976562 4.839844 C 8.113281 4.984375 8.1875 5.226562 8.195312 5.566406 C 8.1875 5.90625 8.113281 6.144531 7.976562 6.289062 C 7.835938 6.433594 7.683594 6.503906 7.519531 6.5 C 7.378906 6.503906 7.230469 6.433594 7.082031 6.289062 C 6.933594 6.144531 6.855469 5.90625 6.84375 5.566406 C 6.855469 5.226562 6.933594 4.984375 7.082031 4.839844 C 7.230469 4.699219 7.378906 4.628906 7.519531 4.632812 Z M 7.519531 4.632812 "/>
<path style=" stroke:none;fill-rule:nonzero;fill:rgb(0%,0%,0%);fill-opacity:1;" d="M 9.394531 4.140625 L 9.394531 4.683594 L 10.070312 4.683594 L 10.070312 6.890625 L 11.371094 6.890625 C 11.734375 6.882812 11.992188 6.789062 12.15625 6.613281 C 12.316406 6.441406 12.394531 6.238281 12.390625 6.007812 C 12.394531 5.777344 12.316406 5.574219 12.15625 5.398438 C 11.992188 5.226562 11.734375 5.132812 11.371094 5.125 L 10.695312 5.125 L 10.695312 4.140625 Z M 10.695312 5.664062 L 11.425781 5.664062 C 11.53125 5.667969 11.617188 5.703125 11.683594 5.773438 C 11.75 5.84375 11.785156 5.921875 11.789062 6.007812 C 11.785156 6.09375 11.75 6.167969 11.683594 6.238281 C 11.617188 6.308594 11.53125 6.347656 11.425781 6.351562 L 10.695312 6.351562 Z M 10.695312 5.664062 "/>
<path style=" stroke:none;fill-rule:nonzero;fill:rgb(0%,0%,0%);fill-opacity:1;" d="M 14.371094 4.535156 C 14.53125 4.535156 14.683594 4.59375 14.824219 4.714844 C 14.964844 4.835938 15.039062 4.972656 15.046875 5.125 C 15.046875 5.148438 15.042969 5.171875 15.035156 5.191406 C 15.027344 5.210938 15.015625 5.222656 14.996094 5.222656 L 13.695312 5.222656 C 13.703125 4.980469 13.773438 4.804688 13.90625 4.699219 C 14.042969 4.59375 14.195312 4.539062 14.371094 4.535156 Z M 15.566406 5.710938 C 15.613281 5.710938 15.652344 5.679688 15.679688 5.621094 C 15.707031 5.5625 15.722656 5.496094 15.722656 5.417969 C 15.714844 5.039062 15.578125 4.71875 15.320312 4.453125 C 15.0625 4.191406 14.746094 4.054688 14.371094 4.042969 C 14.167969 4.046875 13.972656 4.089844 13.78125 4.179688 C 13.589844 4.265625 13.429688 4.386719 13.300781 4.535156 C 13.195312 4.65625 13.117188 4.796875 13.074219 4.957031 C 13.027344 5.117188 13.003906 5.304688 13.003906 5.515625 C 13.007812 5.964844 13.152344 6.320312 13.441406 6.585938 C 13.726562 6.847656 14.070312 6.984375 14.476562 6.988281 C 14.660156 6.988281 14.847656 6.9375 15.039062 6.835938 C 15.234375 6.730469 15.421875 6.570312 15.605469 6.351562 L 15.101562 6.078125 C 15 6.199219 14.902344 6.292969 14.808594 6.355469 C 14.710938 6.417969 14.601562 6.449219 14.476562 6.449219 C 14.328125 6.457031 14.164062 6.40625 13.988281 6.300781 C 13.808594 6.199219 13.710938 6 13.695312 5.710938 Z M 15.566406 5.710938 "/>
<path style=" stroke:none;fill-rule:nonzero;fill:rgb(0%,0%,0%);fill-opacity:1;" d="M 17.59375 4.09375 C 17.378906 4.09375 17.1875 4.117188 17.011719 4.160156 C 16.835938 4.203125 16.683594 4.261719 16.550781 4.339844 L 16.832031 4.855469 C 16.925781 4.789062 17.027344 4.730469 17.144531 4.671875 C 17.265625 4.617188 17.414062 4.585938 17.59375 4.582031 C 17.707031 4.582031 17.828125 4.609375 17.957031 4.667969 C 18.085938 4.730469 18.15625 4.832031 18.164062 4.976562 C 18.164062 5.054688 18.140625 5.121094 18.085938 5.179688 C 18.035156 5.238281 17.957031 5.269531 17.851562 5.269531 L 17.4375 5.269531 L 17.4375 5.710938 L 17.851562 5.710938 C 17.980469 5.71875 18.074219 5.757812 18.132812 5.835938 C 18.191406 5.914062 18.21875 6.003906 18.21875 6.105469 C 18.207031 6.230469 18.148438 6.324219 18.035156 6.394531 C 17.921875 6.460938 17.808594 6.496094 17.695312 6.5 C 17.558594 6.5 17.398438 6.472656 17.210938 6.417969 C 17.023438 6.363281 16.875 6.269531 16.757812 6.132812 L 16.371094 6.535156 C 16.539062 6.679688 16.742188 6.792969 16.988281 6.871094 C 17.238281 6.949219 17.472656 6.988281 17.695312 6.988281 C 18.03125 6.992188 18.3125 6.925781 18.539062 6.792969 C 18.765625 6.660156 18.886719 6.445312 18.894531 6.15625 C 18.886719 5.9375 18.816406 5.777344 18.6875 5.675781 C 18.558594 5.570312 18.421875 5.511719 18.285156 5.488281 C 18.414062 5.453125 18.527344 5.375 18.628906 5.261719 C 18.730469 5.148438 18.785156 5.003906 18.789062 4.828125 C 18.785156 4.59375 18.675781 4.410156 18.464844 4.285156 C 18.253906 4.15625 17.960938 4.09375 17.59375 4.09375 Z M 17.59375 4.09375 "/>
<path style=" stroke:none;fill-rule:nonzero;fill:rgb(0%,0%,0%);fill-opacity:1;" d="M 20.054688 4.140625 C 20.054688 4.628906 20.015625 5.046875 19.9375 5.402344 C 19.859375 5.753906 19.753906 6.070312 19.625 6.351562 L 19.328125 6.351562 L 19.328125 7.480469 L 19.953125 7.480469 L 19.953125 6.890625 L 21.929688 6.890625 L 21.929688 7.480469 L 22.503906 7.480469 L 22.503906 6.351562 L 22.136719 6.351562 L 22.136719 4.140625 Z M 20.679688 4.683594 L 21.511719 4.683594 L 21.511719 6.351562 L 20.300781 6.351562 C 20.425781 6.105469 20.515625 5.835938 20.570312 5.542969 C 20.621094 5.246094 20.65625 4.960938 20.679688 4.683594 Z M 20.679688 4.683594 "/>
</g>
</svg>
