<?xml version="1.0" encoding="UTF-8"?>
<svg xmlns="http://www.w3.org/2000/svg" xmlns:xlink="http://www.w3.org/1999/xlink" width="35px" height="35px" viewBox="0 0 35 46" version="1.1">
<g id="surface1">
<path style=" stroke:none;fill-rule:nonzero;fill:rgb(100%,100%,100%);fill-opacity:1;" d="M 1.050781 0 L 33.949219 0 C 34.53125 0 35 0.464844 35 1.035156 L 35 44.964844 C 35 45.535156 34.53125 46 33.949219 46 L 1.050781 46 C 0.46875 46 0 45.535156 0 44.964844 L 0 1.035156 C 0 0.464844 0.46875 0 1.050781 0 Z M 1.050781 0 "/>
<path style=" stroke:none;fill-rule:nonzero;fill:rgb(100%,80%,0%);fill-opacity:1;" d="M 1.050781 0.460938 L 33.949219 0.460938 C 34.273438 0.460938 34.535156 0.71875 34.535156 1.035156 L 34.535156 44.964844 C 34.535156 45.28125 34.273438 45.539062 33.949219 45.539062 L 1.050781 45.539062 C 0.726562 45.539062 0.464844 45.28125 0.464844 44.964844 L 0.464844 1.035156 C 0.464844 0.71875 0.726562 0.460938 1.050781 0.460938 Z M 1.050781 0.460938 "/>
<path style="fill:none;stroke-width:2;stroke-linecap:butt;stroke-linejoin:miter;stroke:rgb(0%,0%,0%);stroke-opacity:1;stroke-miterlimit:4;" d="M 45.033482 -946.618778 L 1454.966518 -946.618778 C 1479.241071 -946.618778 1498.995536 -926.917691 1498.995536 -902.631007 L 1498.995536 1007.355407 C 1498.995536 1031.642091 1479.241071 1051.343178 1454.966518 1051.343178 L 45.033482 1051.343178 C 20.758929 1051.343178 1.004464 1031.642091 1.004464 1007.355407 L 1.004464 -902.631007 C 1.004464 -926.917691 20.758929 -946.618778 45.033482 -946.618778 Z M 45.033482 -946.618778 " transform="matrix(0.0233333,0,0,0.023,0,21.795669)"/>
<path style=" stroke:none;fill-rule:nonzero;fill:rgb(0%,0%,0%);fill-opacity:1;" d="M 1.050781 0.230469 C 0.597656 0.230469 0.234375 0.589844 0.234375 1.035156 L 0.234375 44.964844 C 0.234375 45.410156 0.597656 45.769531 1.050781 45.769531 L 33.949219 45.769531 C 34.402344 45.769531 34.765625 45.410156 34.765625 44.964844 L 34.765625 1.035156 C 34.765625 0.589844 34.402344 0.230469 33.949219 0.230469 Z M 1.050781 0.460938 L 18.472656 0.460938 L 18.472656 13.226562 C 18.472656 13.863281 18.992188 14.375 19.636719 14.375 L 22.167969 14.375 C 22.8125 14.375 23.332031 13.863281 23.332031 13.226562 L 23.332031 0.460938 L 33.949219 0.460938 C 34.273438 0.460938 34.535156 0.714844 34.535156 1.035156 L 34.535156 44.964844 C 34.535156 45.285156 34.273438 45.539062 33.949219 45.539062 L 23.332031 45.539062 L 23.332031 32.773438 C 23.332031 32.136719 22.8125 31.625 22.167969 31.625 L 19.636719 31.625 C 18.992188 31.625 18.472656 32.136719 18.472656 32.773438 L 18.472656 45.539062 L 14.097656 45.539062 L 14.097656 31.625 C 14.097656 30.988281 14.355469 30.382812 14.808594 29.929688 L 21.617188 23.222656 L 23.335938 24.917969 L 25.351562 17.507812 L 17.832031 19.496094 L 19.554688 21.191406 L 12.746094 27.898438 C 11.742188 28.886719 11.179688 30.226562 11.179688 31.625 L 11.179688 45.539062 L 1.050781 45.539062 C 0.726562 45.539062 0.464844 45.285156 0.464844 44.964844 L 0.464844 1.035156 C 0.464844 0.714844 0.726562 0.460938 1.050781 0.460938 Z M 1.050781 0.460938 "/>
<path style=" stroke:none;fill-rule:nonzero;fill:rgb(100%,0%,0%);fill-opacity:1;" d="M 9.722656 5.894531 C 6.582031 5.894531 4.035156 8.402344 4.035156 11.5 C 4.035156 14.597656 6.582031 17.105469 9.722656 17.105469 C 12.863281 17.105469 15.410156 14.597656 15.410156 11.5 C 15.410156 8.402344 12.863281 5.894531 9.722656 5.894531 Z M 5.722656 10.335938 L 13.722656 10.335938 C 13.832031 10.335938 13.917969 10.425781 13.917969 10.53125 L 13.917969 12.46875 C 13.917969 12.574219 13.832031 12.664062 13.722656 12.664062 L 5.722656 12.664062 C 5.613281 12.664062 5.523438 12.574219 5.523438 12.46875 L 5.523438 10.53125 C 5.523438 10.425781 5.613281 10.335938 5.722656 10.335938 Z M 5.722656 10.335938 "/>
<path style=" stroke:none;fill-rule:nonzero;fill:rgb(100%,100%,100%);fill-opacity:1;" d="M 5.722656 10.335938 L 13.722656 10.335938 C 13.832031 10.335938 13.917969 10.425781 13.917969 10.53125 L 13.917969 12.46875 C 13.917969 12.574219 13.832031 12.664062 13.722656 12.664062 L 5.722656 12.664062 C 5.613281 12.664062 5.523438 12.574219 5.523438 12.46875 L 5.523438 10.53125 C 5.523438 10.425781 5.613281 10.335938 5.722656 10.335938 Z M 5.722656 10.335938 "/>
</g>
</svg>
