<?xml version="1.0" encoding="UTF-8"?>
<svg xmlns="http://www.w3.org/2000/svg" xmlns:xlink="http://www.w3.org/1999/xlink" width="35px" height="35px" viewBox="0 0 35 35" version="1.1">
<g id="surface1">
<path style=" stroke:none;fill-rule:nonzero;fill:rgb(100%,100%,100%);fill-opacity:1;" d="M 2.25 0 L 32.75 0 C 33.992188 0 35 1.007812 35 2.25 L 35 32.75 C 35 33.992188 33.992188 35 32.75 35 L 2.25 35 C 1.007812 35 0 33.992188 0 32.75 L 0 2.25 C 0 1.007812 1.007812 0 2.25 0 Z M 2.25 0 "/>
<path style="fill:none;stroke-width:2;stroke-linecap:butt;stroke-linejoin:miter;stroke:rgb(0%,0%,0%);stroke-opacity:1;stroke-miterlimit:4;" d="M 45 353.377805 L 655 353.377805 C 679.296875 353.377805 698.984375 373.065305 698.984375 397.36218 L 698.984375 1007.36218 C 698.984375 1031.659055 679.296875 1051.346555 655 1051.346555 L 45 1051.346555 C 20.703125 1051.346555 1.015625 1031.659055 1.015625 1007.36218 L 1.015625 397.36218 C 1.015625 373.065305 20.703125 353.377805 45 353.377805 Z M 45 353.377805 " transform="matrix(0.05,0,0,0.05,0,-17.618109)"/>
<path style=" stroke:none;fill-rule:nonzero;fill:rgb(5.098039%,41.176471%,88.235294%);fill-opacity:1;" d="M 1 32.75 C 1 33.441406 1.558594 34 2.25 34 L 32.75 34 C 33.441406 34 34 33.441406 34 32.75 L 34 2.25 C 34 1.558594 33.441406 1 32.75 1 L 2.25 1 C 1.558594 1 1 1.558594 1 2.25 Z M 3.5 17.5 L 11.667969 12.832031 L 11.667969 15.75 L 23.332031 15.75 L 23.332031 12.832031 L 31.5 17.5 L 23.332031 22.167969 L 23.332031 19.25 L 11.667969 19.25 L 11.667969 22.167969 Z M 3.5 17.5 "/>
</g>
</svg>
