<?xml version="1.0" encoding="UTF-8"?>
<svg xmlns="http://www.w3.org/2000/svg" xmlns:xlink="http://www.w3.org/1999/xlink" width="35px" height="35px" viewBox="0 0 35 52" version="1.1">
<g id="surface1">
<path style=" stroke:none;fill-rule:nonzero;fill:rgb(100%,100%,100%);fill-opacity:1;" d="M 2.625 0 L 32.375 0 C 33.824219 0 35 1.164062 35 2.601562 L 35 49.398438 C 35 50.835938 33.824219 52 32.375 52 L 2.625 52 C 1.175781 52 0 50.835938 0 49.398438 L 0 2.601562 C 0 1.164062 1.175781 0 2.625 0 Z M 2.625 0 "/>
<path style="fill:none;stroke-width:2;stroke-linecap:butt;stroke-linejoin:miter;stroke:rgb(0%,0%,0%);stroke-opacity:1;stroke-miterlimit:4;" d="M 45 153.376303 L 555 153.376303 C 579.308036 153.376303 598.995536 173.050281 598.995536 197.389223 L 598.995536 1007.335137 C 598.995536 1031.674079 579.308036 1051.348057 555 1051.348057 L 45 1051.348057 C 20.691964 1051.348057 1.004464 1031.674079 1.004464 1007.335137 L 1.004464 197.389223 C 1.004464 173.050281 20.691964 153.376303 45 153.376303 Z M 45 153.376303 " transform="matrix(0.0583333,0,0,0.0577778,0,-8.803148)"/>
<path style=" stroke:none;fill-rule:nonzero;fill:rgb(0%,0%,0%);fill-opacity:1;" d="M 2.625 1.15625 C 1.816406 1.15625 1.167969 1.800781 1.167969 2.601562 L 1.167969 49.398438 C 1.167969 50.199219 1.816406 50.84375 2.625 50.84375 L 32.375 50.84375 C 33.183594 50.84375 33.832031 50.199219 33.832031 49.398438 L 33.832031 2.601562 C 33.832031 1.800781 33.183594 1.15625 32.375 1.15625 Z M 2.625 1.734375 L 32.375 1.734375 C 32.859375 1.734375 33.25 2.121094 33.25 2.601562 L 33.25 49.398438 C 33.25 49.878906 32.859375 50.265625 32.375 50.265625 L 2.625 50.265625 C 2.140625 50.265625 1.75 49.878906 1.75 49.398438 L 1.75 2.601562 C 1.75 2.121094 2.140625 1.734375 2.625 1.734375 Z M 2.625 1.734375 "/>
<path style=" stroke:none;fill-rule:nonzero;fill:rgb(0%,0%,0%);fill-opacity:1;" d="M 9.898438 6.859375 L 10.464844 6.859375 C 10.691406 6.859375 10.882812 6.933594 11.039062 7.074219 C 11.195312 7.21875 11.277344 7.414062 11.28125 7.667969 C 11.273438 7.890625 11.179688 8.066406 11 8.203125 C 10.820312 8.339844 10.597656 8.410156 10.339844 8.414062 C 9.867188 8.390625 9.519531 8.296875 9.292969 8.132812 C 9.066406 7.972656 8.953125 7.878906 8.957031 7.855469 L 8.390625 8.539062 C 8.402344 8.566406 8.582031 8.683594 8.933594 8.882812 C 9.28125 9.082031 9.730469 9.195312 10.277344 9.222656 C 10.878906 9.203125 11.339844 9.03125 11.667969 8.710938 C 11.992188 8.390625 12.160156 8.0625 12.164062 7.730469 C 12.148438 7.402344 12.058594 7.144531 11.886719 6.964844 C 11.714844 6.78125 11.542969 6.65625 11.371094 6.585938 C 11.199219 6.515625 11.105469 6.480469 11.09375 6.484375 C 11.105469 6.488281 11.179688 6.460938 11.320312 6.402344 C 11.464844 6.34375 11.605469 6.230469 11.746094 6.070312 C 11.886719 5.90625 11.964844 5.671875 11.972656 5.363281 C 11.96875 4.976562 11.820312 4.65625 11.535156 4.398438 C 11.246094 4.136719 10.847656 4.003906 10.339844 3.992188 C 9.828125 4.015625 9.410156 4.109375 9.09375 4.273438 C 8.777344 4.4375 8.613281 4.53125 8.605469 4.550781 L 9.082031 5.28125 C 9.078125 5.261719 9.179688 5.183594 9.378906 5.042969 C 9.582031 4.902344 9.902344 4.820312 10.339844 4.800781 C 10.675781 4.820312 10.898438 4.910156 11.007812 5.074219 C 11.117188 5.238281 11.164062 5.375 11.15625 5.488281 C 11.160156 5.59375 11.105469 5.722656 11 5.867188 C 10.890625 6.015625 10.714844 6.097656 10.464844 6.109375 L 9.898438 6.109375 Z M 9.898438 6.859375 "/>
<path style=" stroke:none;fill-rule:nonzero;fill:rgb(0%,0%,0%);fill-opacity:1;" d="M 15.105469 3.992188 C 14.414062 4.011719 13.902344 4.265625 13.5625 4.757812 C 13.226562 5.253906 13.058594 5.867188 13.058594 6.609375 C 13.058594 7.347656 13.226562 7.964844 13.5625 8.457031 C 13.902344 8.949219 14.414062 9.207031 15.105469 9.222656 C 15.796875 9.207031 16.3125 8.949219 16.648438 8.457031 C 16.988281 7.964844 17.15625 7.347656 17.15625 6.609375 C 17.15625 5.867188 16.988281 5.253906 16.648438 4.757812 C 16.3125 4.265625 15.796875 4.011719 15.105469 3.992188 Z M 15.105469 4.800781 C 15.457031 4.808594 15.746094 4.96875 15.964844 5.285156 C 16.183594 5.601562 16.292969 6.042969 16.300781 6.609375 C 16.292969 7.175781 16.183594 7.617188 15.964844 7.933594 C 15.746094 8.25 15.457031 8.410156 15.105469 8.414062 C 14.753906 8.410156 14.46875 8.25 14.25 7.933594 C 14.03125 7.617188 13.917969 7.175781 13.910156 6.609375 C 13.917969 6.042969 14.03125 5.601562 14.25 5.285156 C 14.46875 4.96875 14.753906 4.808594 15.105469 4.800781 Z M 15.105469 4.800781 "/>
<path style=" stroke:none;fill-rule:nonzero;fill:rgb(0%,0%,0%);fill-opacity:1;" d="M 18.308594 9.101562 L 19.1875 9.101562 L 19.1875 6.859375 L 21.074219 6.859375 L 21.074219 9.101562 L 21.953125 9.101562 L 21.953125 4.117188 L 21.074219 4.117188 L 21.074219 6.109375 L 19.1875 6.109375 L 19.1875 4.117188 L 18.308594 4.117188 Z M 18.308594 9.101562 "/>
<path style=" stroke:none;fill-rule:nonzero;fill:rgb(0%,0%,0%);fill-opacity:1;" d="M 24.652344 7.355469 L 25.28125 5.238281 L 25.910156 7.355469 Z M 24.777344 4.117188 L 23.144531 9.101562 L 24.085938 9.101562 L 24.402344 8.101562 L 26.164062 8.101562 L 26.476562 9.101562 L 27.421875 9.101562 L 25.785156 4.117188 Z M 24.777344 4.117188 "/>
<path style=" stroke:none;fill-rule:nonzero;fill:rgb(5.098039%,41.176471%,88.235294%);fill-opacity:1;" d="M 17.5 15.234375 C 10.894531 15.234375 5.539062 20.539062 5.539062 27.082031 C 5.539062 33.628906 10.894531 38.933594 17.5 38.933594 C 24.105469 38.933594 29.460938 33.628906 29.460938 27.082031 C 29.460938 20.539062 24.105469 15.234375 17.5 15.234375 Z M 17.089844 18.710938 C 17.472656 18.710938 18.960938 19.050781 18.960938 20.253906 C 18.960938 20.742188 18.644531 21.53125 17.949219 21.53125 C 17.457031 21.53125 15.890625 20.765625 15.890625 19.808594 C 15.890625 18.972656 16.640625 18.710938 17.089844 18.710938 Z M 16.792969 21.742188 C 16.933594 21.742188 17.074219 21.777344 17.203125 21.847656 L 18.257812 22.453125 C 18.382812 22.523438 18.460938 22.660156 18.460938 22.804688 L 18.460938 27.113281 L 20.582031 29.214844 L 21.746094 33.828125 C 21.847656 34.242188 21.597656 34.660156 21.179688 34.761719 C 20.761719 34.867188 20.339844 34.613281 20.234375 34.203125 L 19.3125 30.535156 L 15.984375 27.238281 C 15.90625 27.164062 15.863281 27.0625 15.863281 26.953125 L 15.863281 23.550781 L 14.59375 24.277344 L 14.59375 26.878906 C 14.59375 27.214844 14.320312 27.488281 13.980469 27.488281 C 13.640625 27.488281 13.367188 27.214844 13.367188 26.878906 L 13.367188 24.042969 C 13.367188 23.753906 13.523438 23.484375 13.773438 23.339844 L 16.382812 21.847656 C 16.507812 21.777344 16.652344 21.742188 16.792969 21.742188 Z M 18.90625 24.558594 L 21.207031 26.835938 C 21.320312 26.945312 21.386719 27.097656 21.386719 27.265625 C 21.386719 27.601562 21.113281 27.875 20.773438 27.875 C 20.605469 27.875 20.453125 27.804688 20.339844 27.695312 L 18.90625 26.277344 Z M 16.101562 27.929688 L 17.238281 29.054688 L 14.121094 34.398438 L 14.113281 34.394531 C 13.976562 34.628906 13.726562 34.785156 13.433594 34.785156 C 13.007812 34.785156 12.65625 34.441406 12.65625 34.015625 C 12.65625 33.828125 12.726562 33.65625 12.839844 33.519531 Z M 16.101562 27.929688 "/>
<path style="fill:none;stroke-width:0.235773;stroke-linecap:butt;stroke-linejoin:miter;stroke:rgb(0%,0%,0%);stroke-opacity:1;stroke-miterlimit:4;" d="M -65.614076 432.256908 C -65.614076 448.534158 -75.508363 461.728944 -87.720662 461.728944 C -99.932961 461.728944 -109.827249 448.534158 -109.827249 432.256908 C -109.827249 415.988859 -99.932961 402.794073 -87.720662 402.794073 C -75.508363 402.794073 -65.614076 415.988859 -65.614076 432.256908 Z M -65.614076 432.256908 " transform="matrix(0.571273,0,0,0.424528,67.612487,-156.423337)"/>
<path style=" stroke:none;fill-rule:nonzero;fill:rgb(100%,0%,0%);fill-opacity:1;" d="M 17.5 40.734375 C 17.109375 40.734375 16.726562 40.785156 16.367188 40.882812 L 16.863281 43.972656 L 14.40625 42 C 13.871094 42.53125 13.472656 43.199219 13.273438 43.945312 L 16.222656 45.066406 L 13.273438 46.1875 C 13.472656 46.933594 13.871094 47.601562 14.40625 48.132812 L 16.863281 46.160156 L 16.367188 49.253906 C 16.726562 49.347656 17.109375 49.398438 17.5 49.398438 C 17.890625 49.398438 18.273438 49.347656 18.632812 49.253906 L 18.136719 46.160156 L 20.59375 48.132812 C 21.128906 47.601562 21.527344 46.933594 21.726562 46.1875 L 18.777344 45.066406 L 21.726562 43.945312 C 21.527344 43.199219 21.128906 42.53125 20.59375 42 L 18.136719 43.972656 L 18.632812 40.882812 C 18.273438 40.785156 17.890625 40.734375 17.5 40.734375 Z M 17.5 40.734375 "/>
</g>
</svg>
