<?xml version="1.0" encoding="UTF-8"?>
<svg xmlns="http://www.w3.org/2000/svg" xmlns:xlink="http://www.w3.org/1999/xlink" width="35px" height="35px" viewBox="0 0 35 11" version="1.1">
<g id="surface1">
<path style=" stroke:none;fill-rule:nonzero;fill:rgb(100%,100%,100%);fill-opacity:1;" d="M 1.5 0 L 33.5 0 C 34.328125 0 35 0.632812 35 1.414062 L 35 9.585938 C 35 10.367188 34.328125 11 33.5 11 L 1.5 11 C 0.671875 11 0 10.367188 0 9.585938 L 0 1.414062 C 0 0.632812 0.671875 0 1.5 0 Z M 1.5 0 "/>
<path style="fill:none;stroke-width:2;stroke-linecap:butt;stroke-linejoin:miter;stroke:rgb(0%,0%,0%);stroke-opacity:1;stroke-miterlimit:4;" d="M 46.054688 703.356498 L 1003.945312 703.356498 C 1028.90625 703.356498 1048.945312 723.491441 1048.945312 748.349396 L 1048.945312 1006.374964 C 1048.945312 1031.232919 1028.90625 1051.367862 1003.945312 1051.367862 L 46.054688 1051.367862 C 21.09375 1051.367862 1.054688 1031.232919 1.054688 1006.374964 L 1.054688 748.349396 C 1.054688 723.491441 21.09375 703.356498 46.054688 703.356498 Z M 46.054688 703.356498 " transform="matrix(0.0333333,0,0,0.0314286,0,-22.07424)"/>
<path style=" stroke:none;fill-rule:nonzero;fill:rgb(5.098039%,41.176471%,88.235294%);fill-opacity:1;" d="M 33.5 0.628906 C 33.960938 0.628906 34.332031 0.980469 34.332031 1.414062 L 34.332031 4.433594 L 7.582031 4.398438 L 7.582031 2.75 L 2.625 5.5 L 7.582031 8.25 L 7.582031 6.601562 L 34.332031 6.632812 L 34.332031 9.585938 C 34.332031 10.019531 33.960938 10.371094 33.5 10.371094 L 1.5 10.371094 C 1.039062 10.371094 0.667969 10.019531 0.667969 9.585938 L 0.667969 1.414062 C 0.667969 0.980469 1.039062 0.628906 1.5 0.628906 Z M 33.5 0.628906 "/>
</g>
</svg>
