<?xml version="1.0" encoding="UTF-8"?>
<svg xmlns="http://www.w3.org/2000/svg" xmlns:xlink="http://www.w3.org/1999/xlink" width="35px" height="35px" viewBox="0 0 35 35" version="1.1">
<g id="surface1">
<path style=" stroke:none;fill-rule:nonzero;fill:rgb(100%,100%,100%);fill-opacity:1;" d="M 2.25 0 L 32.75 0 C 33.992188 0 35 1.007812 35 2.25 L 35 32.75 C 35 33.992188 33.992188 35 32.75 35 L 2.25 35 C 1.007812 35 0 33.992188 0 32.75 L 0 2.25 C 0 1.007812 1.007812 0 2.25 0 Z M 2.25 0 "/>
<path style="fill:none;stroke-width:2;stroke-linecap:butt;stroke-linejoin:miter;stroke:rgb(0%,0%,0%);stroke-opacity:1;stroke-miterlimit:4;" d="M 45 353.377805 L 655 353.377805 C 679.296875 353.377805 698.984375 373.065305 698.984375 397.36218 L 698.984375 1007.36218 C 698.984375 1031.659055 679.296875 1051.346555 655 1051.346555 L 45 1051.346555 C 20.703125 1051.346555 1.015625 1031.659055 1.015625 1007.36218 L 1.015625 397.36218 C 1.015625 373.065305 20.703125 353.377805 45 353.377805 Z M 45 353.377805 " transform="matrix(0.05,0,0,0.05,0,-17.618109)"/>
<path style=" stroke:none;fill-rule:nonzero;fill:rgb(5.098039%,41.176471%,88.235294%);fill-opacity:1;" d="M 2.25 1 C 1.558594 1 1 1.558594 1 2.25 L 1 32.75 C 1 33.441406 1.558594 34 2.25 34 L 8.167969 34 L 8.167969 11.667969 L 5.25 11.667969 L 9.917969 3.5 L 14.582031 11.667969 L 11.667969 11.667969 L 11.667969 34 L 16.917969 34 L 16.917969 30.332031 L 18.082031 30.332031 L 18.082031 34 L 23.332031 34 L 23.332031 16.332031 C 23.332031 15.558594 23.023438 14.820312 22.476562 14.273438 L 19.015625 10.804688 L 16.953125 12.867188 L 14.476562 3.796875 L 23.550781 6.269531 L 21.488281 8.332031 L 24.953125 11.796875 C 26.15625 13 26.832031 14.632812 26.832031 16.332031 L 26.832031 34 L 32.75 34 C 33.441406 34 34 33.441406 34 32.75 L 34 2.25 C 34 1.558594 33.441406 1 32.75 1 Z M 16.917969 21 L 18.082031 21 L 18.082031 24.5 L 16.917969 24.5 Z M 16.917969 25.667969 L 18.082031 25.667969 L 18.082031 29.167969 L 16.917969 29.167969 Z M 16.917969 25.667969 "/>
</g>
</svg>
