<?xml version="1.0" encoding="UTF-8"?>
<svg xmlns="http://www.w3.org/2000/svg" xmlns:xlink="http://www.w3.org/1999/xlink" width="35px" height="35px" viewBox="0 0 35 35" version="1.1">
<g id="surface1">
<path style=" stroke:none;fill-rule:nonzero;fill:rgb(100%,100%,100%);fill-opacity:1;" d="M 2.25 0 L 32.75 0 C 33.992188 0 35 1.007812 35 2.25 L 35 32.75 C 35 33.992188 33.992188 35 32.75 35 L 2.25 35 C 1.007812 35 0 33.992188 0 32.75 L 0 2.25 C 0 1.007812 1.007812 0 2.25 0 Z M 2.25 0 "/>
<path style="fill:none;stroke-width:2;stroke-linecap:butt;stroke-linejoin:miter;stroke:rgb(0%,0%,0%);stroke-opacity:1;stroke-miterlimit:4;" d="M 45 353.377805 L 655 353.377805 C 679.296875 353.377805 698.984375 373.065305 698.984375 397.36218 L 698.984375 1007.36218 C 698.984375 1031.659055 679.296875 1051.346555 655 1051.346555 L 45 1051.346555 C 20.703125 1051.346555 1.015625 1031.659055 1.015625 1007.36218 L 1.015625 397.36218 C 1.015625 373.065305 20.703125 353.377805 45 353.377805 Z M 45 353.377805 " transform="matrix(0.05,0,0,0.05,0,-17.618109)"/>
<path style=" stroke:none;fill-rule:nonzero;fill:rgb(5.098039%,41.176471%,88.235294%);fill-opacity:1;" d="M 2.25 1 C 1.558594 1 1 1.558594 1 2.25 L 1 32.75 C 1 33.441406 1.558594 34 2.25 34 L 4.667969 34 L 4.667969 30.332031 L 5.832031 30.332031 L 5.832031 34 L 8.167969 34 L 8.167969 11.667969 L 5.25 11.667969 L 9.917969 3.5 L 14.582031 11.667969 L 11.667969 11.667969 L 11.667969 23.6875 C 12.695312 23.089844 13.890625 22.75 15.167969 22.75 L 24.5 22.75 C 27.078125 22.75 29.167969 20.660156 29.167969 18.082031 C 29.167969 15.503906 27.078125 13.417969 24.5 13.417969 L 24.5 16.332031 L 16.332031 11.667969 L 24.5 7 L 24.5 9.917969 C 29.011719 9.917969 32.667969 13.574219 32.667969 18.082031 C 32.667969 22.59375 29.011719 26.25 24.5 26.25 L 15.167969 26.25 C 13.234375 26.25 11.667969 27.816406 11.667969 29.75 L 11.667969 34 L 22.167969 34 L 22.167969 30.332031 L 23.332031 30.332031 L 23.332031 34 L 32.75 34 C 33.441406 34 34 33.441406 34 32.75 L 34 2.25 C 34 1.558594 33.441406 1 32.75 1 Z M 4.667969 16.332031 L 5.832031 16.332031 L 5.832031 19.832031 L 4.667969 19.832031 Z M 4.667969 21 L 5.832031 21 L 5.832031 24.5 L 4.667969 24.5 Z M 4.667969 25.667969 L 5.832031 25.667969 L 5.832031 29.167969 L 4.667969 29.167969 Z M 22.167969 26.832031 L 23.332031 26.832031 L 23.332031 29.167969 L 22.167969 29.167969 Z M 22.167969 26.832031 "/>
</g>
</svg>
