<?xml version="1.0" encoding="UTF-8"?>
<svg xmlns="http://www.w3.org/2000/svg" xmlns:xlink="http://www.w3.org/1999/xlink" width="35px" height="35px" viewBox="0 0 35 17" version="1.1">
<g id="surface1">
<path style=" stroke:none;fill-rule:nonzero;fill:rgb(100%,100%,100%);fill-opacity:1;" d="M 1.125 0 L 33.875 0 C 34.496094 0 35 0.488281 35 1.09375 L 35 15.90625 C 35 16.511719 34.496094 17 33.875 17 L 1.125 17 C 0.503906 17 0 16.511719 0 15.90625 L 0 1.09375 C 0 0.488281 0.503906 0 1.125 0 Z M 1.125 0 "/>
<path style=" stroke:none;fill-rule:nonzero;fill:rgb(5.098039%,41.176471%,88.235294%);fill-opacity:1;" d="M 1.125 0.484375 C 0.777344 0.484375 0.5 0.757812 0.5 1.09375 L 0.5 15.90625 C 0.5 16.242188 0.777344 16.515625 1.125 16.515625 L 7.582031 16.515625 L 7.582031 11.050781 C 7.582031 10.425781 7.0625 9.917969 6.417969 9.917969 L 5.832031 9.917969 L 5.773438 11.335938 L 1.808594 9.0625 L 5.832031 6.800781 L 5.832031 8.21875 L 6.417969 8.21875 C 6.832031 8.21875 7.226562 8.300781 7.582031 8.453125 L 7.582031 5.667969 L 6.125 5.667969 L 8.457031 1.699219 L 10.792969 5.667969 L 9.332031 5.667969 L 9.332031 16.515625 L 11.667969 16.515625 L 11.667969 14.734375 L 12.25 14.734375 L 12.25 16.515625 L 16.625 16.515625 L 16.625 5.667969 L 15.167969 5.667969 L 17.5 1.699219 L 19.832031 5.667969 L 18.375 5.667969 L 18.375 16.515625 L 22.75 16.515625 L 22.75 14.734375 L 23.332031 14.734375 L 23.332031 16.515625 L 25.667969 16.515625 L 25.667969 7.367188 C 25.667969 5.800781 26.972656 4.53125 28.582031 4.53125 L 29.167969 4.53125 L 29.167969 3.117188 L 33.25 5.382812 L 29.167969 7.648438 L 29.167969 6.234375 L 28.582031 6.234375 C 27.9375 6.234375 27.417969 6.742188 27.417969 7.367188 L 27.417969 16.515625 L 33.875 16.515625 C 34.222656 16.515625 34.5 16.242188 34.5 15.90625 L 34.5 1.09375 C 34.5 0.757812 34.222656 0.484375 33.875 0.484375 Z M 11.667969 7.933594 L 12.25 7.933594 L 12.25 9.632812 L 11.667969 9.632812 Z M 22.75 7.933594 L 23.332031 7.933594 L 23.332031 9.632812 L 22.75 9.632812 Z M 11.667969 10.199219 L 12.25 10.199219 L 12.25 11.898438 L 11.667969 11.898438 Z M 22.75 10.199219 L 23.332031 10.199219 L 23.332031 11.898438 L 22.75 11.898438 Z M 11.667969 12.46875 L 12.25 12.46875 L 12.25 14.167969 L 11.667969 14.167969 Z M 22.75 12.46875 L 23.332031 12.46875 L 23.332031 14.167969 L 22.75 14.167969 Z M 22.75 12.46875 "/>
<path style="fill:none;stroke-width:2;stroke-linecap:butt;stroke-linejoin:miter;stroke:rgb(0%,0%,0%);stroke-opacity:1;stroke-miterlimit:4;" d="M 45 353.327254 L 1355 353.327254 C 1379.375 353.327254 1399.0625 373.111261 1399.0625 397.398945 L 1399.0625 1007.325415 C 1399.0625 1031.613099 1379.375 1051.397106 1355 1051.397106 L 45 1051.397106 C 20.625 1051.397106 0.9375 1031.613099 0.9375 1007.325415 L 0.9375 397.398945 C 0.9375 373.111261 20.625 353.327254 45 353.327254 Z M 45 353.327254 " transform="matrix(0.025,0,0,0.0242857,0,-8.557367)"/>
</g>
</svg>
