<?xml version="1.0" encoding="UTF-8"?>
<svg xmlns="http://www.w3.org/2000/svg" xmlns:xlink="http://www.w3.org/1999/xlink" width="35px" height="35px" viewBox="0 0 35 35" version="1.1">
<g id="surface1">
<path style=" stroke:none;fill-rule:nonzero;fill:rgb(100%,100%,100%);fill-opacity:1;" d="M 2.25 0 L 32.75 0 C 33.992188 0 35 1.007812 35 2.25 L 35 32.75 C 35 33.992188 33.992188 35 32.75 35 L 2.25 35 C 1.007812 35 0 33.992188 0 32.75 L 0 2.25 C 0 1.007812 1.007812 0 2.25 0 Z M 2.25 0 "/>
<path style="fill:none;stroke-width:2;stroke-linecap:butt;stroke-linejoin:miter;stroke:rgb(0%,0%,0%);stroke-opacity:1;stroke-miterlimit:4;" d="M 45 353.377805 L 655 353.377805 C 679.296875 353.377805 698.984375 373.065305 698.984375 397.36218 L 698.984375 1007.36218 C 698.984375 1031.659055 679.296875 1051.346555 655 1051.346555 L 45 1051.346555 C 20.703125 1051.346555 1.015625 1031.659055 1.015625 1007.36218 L 1.015625 397.36218 C 1.015625 373.065305 20.703125 353.377805 45 353.377805 Z M 45 353.377805 " transform="matrix(0.05,0,0,0.05,0,-17.618109)"/>
<path style=" stroke:none;fill-rule:nonzero;fill:rgb(5.098039%,41.176471%,88.235294%);fill-opacity:1;" d="M 2.25 1 C 1.558594 1 1 1.558594 1 2.25 L 1 32.75 C 1 33.441406 1.558594 34 2.25 34 L 9.332031 34 L 9.332031 23.304688 C 7.457031 22.597656 6.125 20.789062 6.125 18.667969 C 6.125 16.546875 7.457031 14.734375 9.332031 14.027344 L 9.332031 11.667969 L 6.417969 11.667969 L 11.082031 3.5 L 15.75 11.667969 L 12.832031 11.667969 L 12.832031 14.027344 C 14.707031 14.734375 16.042969 16.546875 16.042969 18.667969 C 16.042969 20.789062 14.707031 22.597656 12.832031 23.304688 L 12.832031 27.433594 L 20.96875 19.296875 C 21.734375 18.53125 22.167969 17.492188 22.167969 16.410156 L 22.167969 11.667969 L 19.25 11.667969 L 23.917969 3.5 L 28.582031 11.667969 L 25.667969 11.667969 L 25.667969 16.410156 C 25.667969 18.421875 24.867188 20.351562 23.445312 21.773438 L 13.859375 31.359375 C 13.203125 32.015625 12.832031 32.90625 12.832031 33.832031 L 12.832031 34 L 32.75 34 C 33.441406 34 34 33.441406 34 32.75 L 34 2.25 C 34 1.558594 33.441406 1 32.75 1 L 18.082031 1 L 18.082031 4.667969 L 16.917969 4.667969 L 16.917969 1 Z M 16.917969 5.832031 L 18.082031 5.832031 L 18.082031 9.332031 L 16.917969 9.332031 Z M 16.917969 10.5 L 18.082031 10.5 L 18.082031 14 L 16.917969 14 Z M 11.082031 14.292969 C 8.667969 14.292969 6.707031 16.25 6.707031 18.667969 C 6.707031 21.082031 8.667969 23.042969 11.082031 23.042969 C 13.5 23.042969 15.457031 21.082031 15.457031 18.667969 C 15.457031 16.25 13.5 14.292969 11.082031 14.292969 Z M 12.851562 16.753906 C 13.230469 16.765625 13.535156 16.953125 13.761719 17.3125 C 13.988281 17.671875 14.105469 18.125 14.113281 18.667969 C 14.105469 19.238281 13.988281 19.695312 13.761719 20.042969 C 13.535156 20.390625 13.230469 20.570312 12.851562 20.578125 C 12.472656 20.570312 12.167969 20.390625 11.941406 20.042969 C 11.714844 19.695312 11.597656 19.238281 11.59375 18.667969 C 11.597656 18.097656 11.714844 17.640625 11.941406 17.289062 C 12.167969 16.941406 12.472656 16.761719 12.851562 16.753906 Z M 9.875 16.800781 L 10.433594 16.800781 L 10.433594 19.226562 L 10.945312 19.226562 L 10.734375 19.785156 L 10.480469 19.785156 L 10.480469 20.53125 L 9.828125 20.53125 L 9.828125 19.785156 L 8.054688 19.785156 L 8.054688 19.226562 Z M 12.820312 17.332031 C 12.652344 17.34375 12.515625 17.449219 12.414062 17.648438 C 12.304688 17.863281 12.25 18.203125 12.246094 18.667969 C 12.25 19.132812 12.304688 19.46875 12.414062 19.683594 C 12.523438 19.898438 12.671875 20.003906 12.851562 20 C 13.035156 20.003906 13.179688 19.898438 13.289062 19.683594 C 13.398438 19.46875 13.457031 19.132812 13.460938 18.667969 C 13.457031 18.203125 13.398438 17.863281 13.289062 17.648438 C 13.179688 17.4375 13.035156 17.328125 12.851562 17.332031 C 12.839844 17.332031 12.828125 17.332031 12.820312 17.332031 Z M 9.828125 17.78125 L 8.753906 19.226562 L 9.828125 19.226562 Z M 9.828125 17.78125 "/>
</g>
</svg>
