<?xml version="1.0" encoding="UTF-8"?>
<svg xmlns="http://www.w3.org/2000/svg" xmlns:xlink="http://www.w3.org/1999/xlink" width="35px" height="35px" viewBox="0 0 35 52" version="1.1">
<g id="surface1">
<path style=" stroke:none;fill-rule:nonzero;fill:rgb(100%,100%,100%);fill-opacity:1;" d="M 2.25 0 L 32.75 0 C 33.992188 0 35 0.996094 35 2.230469 L 35 49.769531 C 35 51.003906 33.992188 52 32.75 52 L 2.25 52 C 1.007812 52 0 51.003906 0 49.769531 L 0 2.230469 C 0 0.996094 1.007812 0 2.25 0 Z M 2.25 0 "/>
<path style=" stroke:none;fill-rule:nonzero;fill:rgb(5.098039%,41.176471%,88.235294%);fill-opacity:1;" d="M 2.25 0.992188 C 1.558594 0.992188 1 1.542969 1 2.230469 L 1 49.769531 C 1 50.457031 1.558594 51.007812 2.25 51.007812 L 32.75 51.007812 C 33.441406 51.007812 34 50.457031 34 49.769531 L 34 2.230469 C 34 1.542969 33.441406 0.992188 32.75 0.992188 Z M 5.53125 8.667969 L 29.46875 8.667969 C 30.714844 8.667969 31.71875 9.660156 31.71875 10.894531 L 31.71875 34.605469 C 31.71875 35.839844 30.714844 36.832031 29.46875 36.832031 L 5.53125 36.832031 C 4.285156 36.832031 3.28125 35.839844 3.28125 34.605469 L 3.28125 10.894531 C 3.28125 9.660156 4.285156 8.667969 5.53125 8.667969 Z M 5.53125 8.667969 "/>
<path style="fill:none;stroke-width:2;stroke-linecap:butt;stroke-linejoin:miter;stroke:rgb(0%,0%,0%);stroke-opacity:1;stroke-miterlimit:4;" d="M 889 -9.612442 L 1499 -9.612442 C 1523.296875 -9.612442 1542.984375 10.027732 1542.984375 34.400478 L 1542.984375 994.323856 C 1542.984375 1018.696602 1523.296875 1038.336776 1499 1038.336776 L 889 1038.336776 C 864.703125 1038.336776 845.015625 1018.696602 845.015625 994.323856 L 845.015625 34.400478 C 845.015625 10.027732 864.703125 -9.612442 889 -9.612442 Z M 889 -9.612442 " transform="matrix(0.05,0,0,0.0495238,-42.2,0.526826)"/>
<path style=" stroke:none;fill-rule:nonzero;fill:rgb(0%,0%,0%);fill-opacity:1;" d="M 7.054688 20.097656 L 6.671875 23.453125 L 7.308594 23.453125 L 7.519531 20.980469 L 8.410156 22.949219 L 9.296875 20.980469 L 9.507812 23.453125 L 10.144531 23.453125 L 9.761719 20.097656 L 9.171875 20.097656 L 8.410156 21.734375 L 7.648438 20.097656 Z M 11.054688 20.097656 L 11.054688 23.453125 L 11.648438 23.453125 L 11.648438 20.097656 Z M 13.191406 20.097656 C 13.191406 20.851562 13.191406 22.109375 13.148438 22.363281 C 13.070312 22.824219 12.503906 22.972656 12.503906 22.972656 L 12.601562 23.535156 C 12.601562 23.535156 13.621094 23.453125 13.742188 22.277344 C 13.785156 21.859375 13.785156 20.601562 13.785156 20.601562 L 14.714844 20.601562 L 14.714844 23.453125 L 15.308594 23.453125 L 15.308594 20.097656 Z M 16.394531 20.097656 L 16.394531 23.453125 L 16.988281 23.453125 L 16.988281 20.097656 Z M 17.898438 20.097656 L 17.898438 23.453125 L 20.226562 23.453125 L 20.226562 24.125 L 20.734375 24.125 L 20.734375 22.949219 L 20.355469 22.949219 L 20.355469 20.097656 L 19.761719 20.097656 L 19.761719 22.949219 L 18.492188 22.949219 L 18.492188 20.097656 Z M 21.605469 20.097656 L 21.605469 23.453125 L 22.835938 23.453125 C 23.679688 23.453125 23.976562 22.78125 23.976562 22.363281 C 23.976562 21.941406 23.765625 21.398438 22.917969 21.398438 L 22.199219 21.398438 L 22.199219 20.097656 Z M 24.230469 20.097656 L 24.230469 23.453125 L 24.824219 23.453125 L 24.824219 20.097656 Z M 27.140625 20.097656 C 26.292969 20.097656 26.039062 20.683594 26.039062 21.019531 C 26.039062 21.480469 26.335938 21.800781 26.757812 21.882812 C 26.589844 21.917969 26.34375 22.152344 26.25 22.363281 C 26.125 22.65625 25.730469 23.394531 25.617188 23.453125 L 26.335938 23.453125 C 26.503906 23.160156 26.621094 22.925781 26.777344 22.621094 C 26.921875 22.34375 27.011719 22.109375 27.394531 22.109375 L 27.777344 22.109375 L 27.777344 23.453125 L 28.367188 23.453125 L 28.367188 20.097656 Z M 27.308594 20.601562 L 27.777344 20.601562 L 27.777344 21.609375 L 27.265625 21.609375 C 26.929688 21.609375 26.632812 21.464844 26.632812 21.105469 C 26.632812 20.746094 26.972656 20.601562 27.308594 20.601562 Z M 22.199219 21.902344 L 22.792969 21.902344 C 23.171875 21.902344 23.382812 22.109375 23.382812 22.445312 C 23.382812 22.78125 23.171875 22.949219 22.792969 22.949219 L 22.199219 22.949219 Z M 22.199219 21.902344 "/>
</g>
</svg>
