<?xml version="1.0" encoding="UTF-8"?>
<svg xmlns="http://www.w3.org/2000/svg" xmlns:xlink="http://www.w3.org/1999/xlink" width="35px" height="35px" viewBox="0 0 35 52" version="1.1">
<g id="surface1">
<path style=" stroke:none;fill-rule:nonzero;fill:rgb(100%,100%,100%);fill-opacity:1;" d="M 2.25 0 L 32.75 0 C 33.992188 0 35 0.996094 35 2.230469 L 35 49.769531 C 35 51.003906 33.992188 52 32.75 52 L 2.25 52 C 1.007812 52 0 51.003906 0 49.769531 L 0 2.230469 C 0 0.996094 1.007812 0 2.25 0 Z M 2.25 0 "/>
<path style=" stroke:none;fill-rule:nonzero;fill:rgb(5.098039%,41.176471%,88.235294%);fill-opacity:1;" d="M 2.25 0.992188 C 1.558594 0.992188 1 1.542969 1 2.230469 L 1 49.769531 C 1 50.457031 1.558594 51.007812 2.25 51.007812 L 32.75 51.007812 C 33.441406 51.007812 34 50.457031 34 49.769531 L 34 2.230469 C 34 1.542969 33.441406 0.992188 32.75 0.992188 Z M 5.53125 8.667969 L 29.46875 8.667969 C 30.714844 8.667969 31.71875 9.660156 31.71875 10.894531 L 31.71875 34.605469 C 31.71875 35.839844 30.714844 36.832031 29.46875 36.832031 L 5.53125 36.832031 C 4.285156 36.832031 3.28125 35.839844 3.28125 34.605469 L 3.28125 10.894531 C 3.28125 9.660156 4.285156 8.667969 5.53125 8.667969 Z M 5.53125 8.667969 "/>
<path style="fill:none;stroke-width:2;stroke-linecap:butt;stroke-linejoin:miter;stroke:rgb(0%,0%,0%);stroke-opacity:1;stroke-miterlimit:4;" d="M 45 3.387574 L 655 3.387574 C 679.296875 3.387574 698.984375 23.027748 698.984375 47.400494 L 698.984375 1007.323872 C 698.984375 1031.696618 679.296875 1051.336792 655 1051.336792 L 45 1051.336792 C 20.703125 1051.336792 1.015625 1031.696618 1.015625 1007.323872 L 1.015625 47.400494 C 1.015625 23.027748 20.703125 3.387574 45 3.387574 Z M 45 3.387574 " transform="matrix(0.05,0,0,0.0495238,0,-0.116984)"/>
<path style=" stroke:none;fill-rule:nonzero;fill:rgb(0%,0%,0%);fill-opacity:1;" d="M 9.96875 18.417969 L 8.328125 18.417969 L 10.1875 27.082031 L 11.9375 27.082031 L 13.359375 21.371094 L 14.78125 27.082031 L 16.53125 27.082031 L 18.390625 18.417969 L 16.75 18.417969 L 15.546875 24.5625 L 14.125 18.417969 L 12.59375 18.417969 L 11.28125 24.46875 L 11.1875 24.46875 Z M 9.96875 18.417969 "/>
<path style=" stroke:none;fill-rule:nonzero;fill:rgb(0%,0%,0%);fill-opacity:1;" d="M 23.5 18.199219 C 22.296875 18.234375 21.402344 18.675781 20.816406 19.53125 C 20.226562 20.386719 19.933594 21.460938 19.9375 22.75 C 19.933594 24.039062 20.226562 25.113281 20.816406 25.96875 C 21.402344 26.824219 22.296875 27.265625 23.5 27.300781 C 24.324219 27.289062 24.992188 27.066406 25.503906 26.636719 C 26.015625 26.207031 26.402344 25.632812 26.671875 24.917969 L 25.203125 24.375 C 25.039062 24.914062 24.816406 25.300781 24.53125 25.539062 C 24.25 25.777344 23.902344 25.894531 23.5 25.890625 C 22.886719 25.882812 22.390625 25.601562 22.007812 25.050781 C 21.628906 24.5 21.433594 23.734375 21.421875 22.75 C 21.433594 21.765625 21.628906 21 22.007812 20.449219 C 22.390625 19.898438 22.886719 19.617188 23.5 19.609375 C 23.902344 19.605469 24.25 19.722656 24.53125 19.960938 C 24.816406 20.199219 25.039062 20.585938 25.203125 21.125 L 26.671875 20.582031 C 26.402344 19.867188 26.015625 19.292969 25.503906 18.863281 C 24.992188 18.433594 24.324219 18.210938 23.5 18.199219 Z M 23.5 18.199219 "/>
</g>
</svg>
