<?xml version="1.0" encoding="UTF-8"?>
<svg xmlns="http://www.w3.org/2000/svg" xmlns:xlink="http://www.w3.org/1999/xlink" width="35px" height="35px" viewBox="0 0 35 52" version="1.1">
<g id="surface1">
<path style=" stroke:none;fill-rule:nonzero;fill:rgb(100%,100%,100%);fill-opacity:1;" d="M 2.25 0 L 32.75 0 C 33.992188 0 35 0.996094 35 2.230469 L 35 49.769531 C 35 51.003906 33.992188 52 32.75 52 L 2.25 52 C 1.007812 52 0 51.003906 0 49.769531 L 0 2.230469 C 0 0.996094 1.007812 0 2.25 0 Z M 2.25 0 "/>
<path style=" stroke:none;fill-rule:nonzero;fill:rgb(5.098039%,41.176471%,88.235294%);fill-opacity:1;" d="M 2.25 0.992188 C 1.558594 0.992188 1 1.542969 1 2.230469 L 1 49.769531 C 1 50.457031 1.558594 51.007812 2.25 51.007812 L 32.75 51.007812 C 33.441406 51.007812 34 50.457031 34 49.769531 L 34 2.230469 C 34 1.542969 33.441406 0.992188 32.75 0.992188 Z M 5.53125 8.667969 L 29.46875 8.667969 C 30.714844 8.667969 31.71875 9.660156 31.71875 10.894531 L 31.71875 34.605469 C 31.71875 35.839844 30.714844 36.832031 29.46875 36.832031 L 5.53125 36.832031 C 4.285156 36.832031 3.28125 35.839844 3.28125 34.605469 L 3.28125 10.894531 C 3.28125 9.660156 4.285156 8.667969 5.53125 8.667969 Z M 5.53125 8.667969 "/>
<path style="fill:none;stroke-width:2;stroke-linecap:butt;stroke-linejoin:miter;stroke:rgb(0%,0%,0%);stroke-opacity:1;stroke-miterlimit:4;" d="M 45 3.387574 L 655 3.387574 C 679.296875 3.387574 698.984375 23.027748 698.984375 47.400494 L 698.984375 1007.323872 C 698.984375 1031.696618 679.296875 1051.336792 655 1051.336792 L 45 1051.336792 C 20.703125 1051.336792 1.015625 1031.696618 1.015625 1007.323872 L 1.015625 47.400494 C 1.015625 23.027748 20.703125 3.387574 45 3.387574 Z M 45 3.387574 " transform="matrix(0.05,0,0,0.0495238,0,-0.116984)"/>
<path style=" stroke:none;fill-rule:nonzero;fill:rgb(0%,64.705882%,0%);fill-opacity:1;" d="M 16.40625 13 L 16.40625 16.25 L 13.125 16.25 L 13.125 18.417969 L 16.40625 18.417969 L 16.40625 21.667969 L 18.59375 21.667969 L 18.59375 18.417969 L 21.875 18.417969 L 21.875 16.25 L 18.59375 16.25 L 18.59375 13 Z M 16.40625 13 "/>
<path style=" stroke:none;fill-rule:nonzero;fill:rgb(0%,0%,0%);fill-opacity:1;" d="M 5.46875 22.75 C 5.46875 22.152344 5.957031 21.667969 6.5625 21.667969 C 7.167969 21.667969 7.65625 22.152344 7.65625 22.75 L 7.65625 28.167969 L 27.34375 28.167969 L 27.34375 24.917969 C 27.34375 24.316406 27.832031 23.832031 28.4375 23.832031 C 29.042969 23.832031 29.53125 24.316406 29.53125 24.917969 L 29.53125 34.667969 L 27.34375 34.667969 L 27.34375 31.417969 L 7.65625 31.417969 L 7.65625 34.667969 L 5.46875 34.667969 Z M 5.46875 22.75 "/>
<path style=" stroke:none;fill-rule:nonzero;fill:rgb(0%,0%,0%);fill-opacity:1;" d="M 9.839844 25.625 C 9.230469 25.65625 8.75 26.152344 8.75 26.761719 L 8.75 27.625 L 15.3125 27.625 L 15.3125 26.761719 C 15.3125 26.132812 14.800781 25.625 14.164062 25.625 L 9.898438 25.625 C 9.878906 25.625 9.859375 25.625 9.839844 25.625 Z M 9.839844 25.625 "/>
</g>
</svg>
