<?xml version="1.0" encoding="UTF-8"?>
<svg xmlns="http://www.w3.org/2000/svg" xmlns:xlink="http://www.w3.org/1999/xlink" width="35px" height="35px" viewBox="0 0 35 52" version="1.1">
<g id="surface1">
<path style=" stroke:none;fill-rule:nonzero;fill:rgb(100%,100%,100%);fill-opacity:1;" d="M 2.25 0 L 32.75 0 C 33.992188 0 35 0.996094 35 2.230469 L 35 49.769531 C 35 51.003906 33.992188 52 32.75 52 L 2.25 52 C 1.007812 52 0 51.003906 0 49.769531 L 0 2.230469 C 0 0.996094 1.007812 0 2.25 0 Z M 2.25 0 "/>
<path style=" stroke:none;fill-rule:nonzero;fill:rgb(5.098039%,41.176471%,88.235294%);fill-opacity:1;" d="M 2.25 0.992188 C 1.558594 0.992188 1 1.542969 1 2.230469 L 1 49.769531 C 1 50.457031 1.558594 51.007812 2.25 51.007812 L 32.75 51.007812 C 33.441406 51.007812 34 50.457031 34 49.769531 L 34 2.230469 C 34 1.542969 33.441406 0.992188 32.75 0.992188 Z M 5.53125 8.667969 L 29.46875 8.667969 C 30.714844 8.667969 31.71875 9.660156 31.71875 10.894531 L 31.71875 34.605469 C 31.71875 35.839844 30.714844 36.832031 29.46875 36.832031 L 5.53125 36.832031 C 4.285156 36.832031 3.28125 35.839844 3.28125 34.605469 L 3.28125 10.894531 C 3.28125 9.660156 4.285156 8.667969 5.53125 8.667969 Z M 5.53125 8.667969 "/>
<path style="fill:none;stroke-width:2;stroke-linecap:butt;stroke-linejoin:miter;stroke:rgb(0%,0%,0%);stroke-opacity:1;stroke-miterlimit:4;" d="M 45 3.387558 L 655 3.387558 C 679.296875 3.387558 698.984375 23.027733 698.984375 47.400479 L 698.984375 1007.323857 C 698.984375 1031.696603 679.296875 1051.336777 655 1051.336777 L 45 1051.336777 C 20.703125 1051.336777 1.015625 1031.696603 1.015625 1007.323857 L 1.015625 47.400479 C 1.015625 23.027733 20.703125 3.387558 45 3.387558 Z M 45 3.387558 " transform="matrix(0.05,0,0,0.0495238,0,-0.116984)"/>
<path style=" stroke:none;fill-rule:nonzero;fill:rgb(5.098039%,41.176471%,88.235294%);fill-opacity:1;" d="M 18.703125 11.917969 C 18.035156 11.917969 17.5 12.449219 17.5 13.109375 L 17.5 33.582031 L 28.4375 33.582031 L 28.4375 13.109375 C 28.4375 12.449219 27.902344 11.917969 27.234375 11.917969 Z M 19.6875 14.082031 L 26.25 14.082031 C 26.554688 14.082031 26.796875 14.324219 26.796875 14.625 L 26.796875 20.042969 C 26.796875 20.339844 26.554688 20.582031 26.25 20.582031 L 19.6875 20.582031 C 19.382812 20.582031 19.140625 20.339844 19.140625 20.042969 L 19.140625 14.625 C 19.140625 14.324219 19.382812 14.082031 19.6875 14.082031 Z M 19.6875 14.082031 "/>
<path style=" stroke:none;fill-rule:nonzero;fill:rgb(100%,100%,100%);fill-opacity:1;" d="M 9.542969 41.097656 C 9.082031 41.097656 8.6875 41.21875 8.355469 41.453125 C 8.023438 41.691406 7.851562 42.046875 7.832031 42.519531 C 7.847656 42.835938 7.929688 43.078125 8.082031 43.257812 C 8.234375 43.4375 8.390625 43.5625 8.542969 43.632812 C 8.695312 43.707031 8.777344 43.742188 8.789062 43.738281 C 8.777344 43.738281 8.683594 43.785156 8.507812 43.878906 C 8.332031 43.972656 8.15625 44.121094 7.980469 44.320312 C 7.804688 44.519531 7.710938 44.777344 7.695312 45.09375 C 7.6875 45.453125 7.824219 45.800781 8.105469 46.125 C 8.390625 46.453125 8.867188 46.628906 9.542969 46.652344 C 10.21875 46.628906 10.695312 46.453125 10.976562 46.125 C 11.261719 45.800781 11.398438 45.453125 11.386719 45.09375 C 11.375 44.777344 11.28125 44.519531 11.105469 44.320312 C 10.929688 44.121094 10.753906 43.972656 10.578125 43.878906 C 10.402344 43.785156 10.308594 43.738281 10.292969 43.738281 C 10.308594 43.742188 10.390625 43.707031 10.542969 43.632812 C 10.695312 43.5625 10.851562 43.4375 11.003906 43.257812 C 11.15625 43.078125 11.238281 42.835938 11.25 42.519531 C 11.234375 42.046875 11.0625 41.691406 10.730469 41.453125 C 10.398438 41.21875 10.003906 41.097656 9.542969 41.097656 Z M 9.542969 41.871094 C 9.753906 41.871094 9.929688 41.917969 10.074219 42.019531 C 10.214844 42.121094 10.289062 42.285156 10.292969 42.519531 C 10.261719 42.734375 10.136719 42.917969 9.917969 43.078125 C 9.699219 43.242188 9.574219 43.324219 9.542969 43.332031 C 9.511719 43.324219 9.386719 43.242188 9.167969 43.078125 C 8.949219 42.917969 8.824219 42.734375 8.789062 42.519531 C 8.796875 42.285156 8.871094 42.121094 9.011719 42.019531 C 9.15625 41.917969 9.332031 41.871094 9.542969 41.871094 Z M 9.542969 44.144531 C 9.554688 44.148438 9.628906 44.195312 9.773438 44.289062 C 9.914062 44.382812 10.058594 44.503906 10.203125 44.65625 C 10.34375 44.808594 10.421875 44.976562 10.429688 45.160156 C 10.421875 45.398438 10.324219 45.570312 10.140625 45.679688 C 9.957031 45.785156 9.757812 45.839844 9.542969 45.839844 C 9.328125 45.839844 9.128906 45.785156 8.945312 45.679688 C 8.761719 45.570312 8.664062 45.398438 8.652344 45.160156 C 8.664062 45 8.742188 44.839844 8.882812 44.6875 C 9.027344 44.535156 9.171875 44.40625 9.3125 44.304688 C 9.457031 44.203125 9.53125 44.148438 9.542969 44.144531 Z M 9.542969 44.144531 "/>
<path style=" stroke:none;fill-rule:nonzero;fill:rgb(100%,100%,100%);fill-opacity:1;" d="M 14.464844 41.097656 C 13.910156 41.113281 13.464844 41.371094 13.132812 41.878906 C 12.796875 42.382812 12.625 43.046875 12.617188 43.875 C 12.625 44.703125 12.796875 45.367188 13.132812 45.871094 C 13.464844 46.378906 13.910156 46.636719 14.464844 46.652344 C 15.019531 46.636719 15.464844 46.378906 15.796875 45.871094 C 16.128906 45.367188 16.300781 44.703125 16.308594 43.875 C 16.300781 43.085938 16.128906 42.429688 15.796875 41.910156 C 15.464844 41.390625 15.019531 41.117188 14.464844 41.097656 Z M 14.464844 41.941406 C 14.730469 41.9375 14.945312 42.089844 15.105469 42.398438 C 15.265625 42.710938 15.347656 43.203125 15.351562 43.875 C 15.347656 44.546875 15.265625 45.039062 15.105469 45.351562 C 14.945312 45.660156 14.730469 45.8125 14.464844 45.808594 C 14.195312 45.8125 13.980469 45.660156 13.820312 45.351562 C 13.660156 45.039062 13.578125 44.546875 13.574219 43.875 C 13.578125 43.203125 13.660156 42.710938 13.820312 42.398438 C 13.980469 42.089844 14.195312 41.9375 14.464844 41.941406 Z M 14.464844 41.941406 "/>
<path style=" stroke:none;fill-rule:nonzero;fill:rgb(100%,100%,100%);fill-opacity:1;" d="M 19.386719 41.097656 C 18.828125 41.113281 18.386719 41.371094 18.050781 41.878906 C 17.71875 42.382812 17.546875 43.046875 17.539062 43.875 C 17.546875 44.703125 17.71875 45.367188 18.050781 45.871094 C 18.386719 46.378906 18.828125 46.636719 19.386719 46.652344 C 19.941406 46.636719 20.382812 46.378906 20.71875 45.871094 C 21.050781 45.367188 21.222656 44.703125 21.230469 43.875 C 21.222656 43.085938 21.050781 42.429688 20.71875 41.910156 C 20.382812 41.390625 19.941406 41.117188 19.386719 41.097656 Z M 19.386719 41.941406 C 19.652344 41.9375 19.867188 42.089844 20.027344 42.398438 C 20.1875 42.710938 20.269531 43.203125 20.273438 43.875 C 20.269531 44.546875 20.1875 45.039062 20.027344 45.351562 C 19.867188 45.660156 19.652344 45.8125 19.386719 45.808594 C 19.117188 45.8125 18.902344 45.660156 18.742188 45.351562 C 18.582031 45.039062 18.5 44.546875 18.496094 43.875 C 18.5 43.203125 18.582031 42.710938 18.742188 42.398438 C 18.902344 42.089844 19.117188 41.9375 19.386719 41.941406 Z M 19.386719 41.941406 "/>
<path style=" stroke:none;fill-rule:nonzero;fill:rgb(100%,100%,100%);fill-opacity:1;" d="M 23.074219 46.582031 L 23.894531 46.582031 L 24.097656 43.941406 L 25.191406 46.109375 L 26.285156 43.941406 L 26.492188 46.582031 L 27.3125 46.582031 L 26.96875 42.792969 L 26.148438 42.792969 L 25.191406 44.6875 L 24.234375 42.792969 L 23.414062 42.792969 Z M 23.074219 46.582031 "/>
<path style=" stroke:none;fill-rule:nonzero;fill:rgb(5.098039%,41.176471%,88.235294%);fill-opacity:1;" d="M 16.40625 22.207031 C 16.40625 21.910156 16.652344 21.667969 16.953125 21.667969 L 16.953125 20.582031 C 16.046875 20.582031 15.3125 21.3125 15.3125 22.207031 L 15.3125 28.707031 C 15.3125 30.800781 13.597656 32.5 11.484375 32.5 C 9.371094 32.5 7.65625 30.800781 7.65625 28.707031 C 7.65625 27.765625 8.011719 26.855469 8.652344 26.15625 L 14.246094 20.066406 C 14.933594 19.320312 15.3125 18.34375 15.3125 17.332031 L 15.3125 15.167969 C 15.3125 14.867188 15.558594 14.625 15.859375 14.625 L 16.953125 14.625 L 16.953125 13.542969 L 15.859375 13.542969 C 14.953125 13.542969 14.21875 14.269531 14.21875 15.167969 L 14.21875 17.332031 C 14.21875 18.074219 13.941406 18.789062 13.4375 19.339844 L 7.84375 25.429688 C 7.019531 26.324219 6.5625 27.496094 6.5625 28.707031 C 6.5625 31.402344 8.765625 33.582031 11.484375 33.582031 C 14.203125 33.582031 16.40625 31.402344 16.40625 28.707031 Z M 16.40625 22.207031 "/>
</g>
</svg>
