<?xml version="1.0" encoding="UTF-8"?>
<svg xmlns="http://www.w3.org/2000/svg" xmlns:xlink="http://www.w3.org/1999/xlink" width="35px" height="35px" viewBox="0 0 35 52" version="1.1">
<g id="surface1">
<path style=" stroke:none;fill-rule:nonzero;fill:rgb(100%,100%,100%);fill-opacity:1;" d="M 2.25 0 L 32.75 0 C 33.992188 0 35 0.996094 35 2.230469 L 35 49.769531 C 35 51.003906 33.992188 52 32.75 52 L 2.25 52 C 1.007812 52 0 51.003906 0 49.769531 L 0 2.230469 C 0 0.996094 1.007812 0 2.25 0 Z M 2.25 0 "/>
<path style=" stroke:none;fill-rule:nonzero;fill:rgb(5.098039%,41.176471%,88.235294%);fill-opacity:1;" d="M 2.25 0.992188 C 1.558594 0.992188 1 1.542969 1 2.230469 L 1 49.769531 C 1 50.457031 1.558594 51.007812 2.25 51.007812 L 32.75 51.007812 C 33.441406 51.007812 34 50.457031 34 49.769531 L 34 2.230469 C 34 1.542969 33.441406 0.992188 32.75 0.992188 Z M 5.53125 8.667969 L 29.46875 8.667969 C 30.714844 8.667969 31.71875 9.660156 31.71875 10.894531 L 31.71875 34.605469 C 31.71875 35.839844 30.714844 36.832031 29.46875 36.832031 L 5.53125 36.832031 C 4.285156 36.832031 3.28125 35.839844 3.28125 34.605469 L 3.28125 10.894531 C 3.28125 9.660156 4.285156 8.667969 5.53125 8.667969 Z M 5.53125 8.667969 "/>
<path style="fill:none;stroke-width:2;stroke-linecap:butt;stroke-linejoin:miter;stroke:rgb(0%,0%,0%);stroke-opacity:1;stroke-miterlimit:4;" d="M 45 3.387574 L 655 3.387574 C 679.296875 3.387574 698.984375 23.027748 698.984375 47.400494 L 698.984375 1007.323872 C 698.984375 1031.696618 679.296875 1051.336792 655 1051.336792 L 45 1051.336792 C 20.703125 1051.336792 1.015625 1031.696618 1.015625 1007.323872 L 1.015625 47.400494 C 1.015625 23.027748 20.703125 3.387574 45 3.387574 Z M 45 3.387574 " transform="matrix(0.05,0,0,0.0495238,0,-0.116984)"/>
<path style=" stroke:none;fill-rule:nonzero;fill:rgb(0%,0%,0%);fill-opacity:1;" d="M 21 10.832031 C 20.453125 10.832031 20.015625 11.269531 20.015625 11.808594 L 20.015625 15.273438 C 20.015625 15.816406 20.453125 16.25 21 16.25 L 22.203125 16.25 L 22.203125 10.832031 Z M 21 10.832031 "/>
<path style=" stroke:none;fill-rule:nonzero;fill:rgb(0%,0%,0%);fill-opacity:1;" d="M 7.714844 29.550781 C 7.53125 29.042969 7.792969 28.484375 8.304688 28.300781 L 11.59375 27.113281 C 12.105469 26.929688 12.667969 27.1875 12.855469 27.695312 L 13.265625 28.816406 L 8.128906 30.667969 Z M 7.714844 29.550781 "/>
<path style=" stroke:none;fill-rule:nonzero;fill:rgb(0%,0%,0%);fill-opacity:1;" d="M 12.882812 34.234375 C 17.597656 34.234375 27.507812 25.9375 27.507812 15.707031 C 27.507812 13.015625 25.304688 10.832031 22.585938 10.832031 L 22.585938 16.25 L 22.886719 16.25 C 23.429688 16.25 23.871094 16.6875 23.871094 17.226562 C 23.871094 17.425781 23.808594 17.621094 23.691406 17.785156 L 15.230469 29.679688 C 15.117188 29.84375 14.953125 29.96875 14.761719 30.035156 C 14.25 30.21875 13.6875 29.957031 13.5 29.453125 L 13.398438 29.171875 L 8.257812 31.027344 C 8.964844 32.953125 10.816406 34.234375 12.882812 34.234375 "/>
</g>
</svg>
