<?xml version="1.0" encoding="UTF-8"?>
<svg xmlns="http://www.w3.org/2000/svg" xmlns:xlink="http://www.w3.org/1999/xlink" width="35px" height="35px" viewBox="0 0 35 52" version="1.1">
<g id="surface1">
<path style=" stroke:none;fill-rule:nonzero;fill:rgb(100%,100%,100%);fill-opacity:1;" d="M 2.25 0 L 32.75 0 C 33.992188 0 35 0.996094 35 2.230469 L 35 49.769531 C 35 51.003906 33.992188 52 32.75 52 L 2.25 52 C 1.007812 52 0 51.003906 0 49.769531 L 0 2.230469 C 0 0.996094 1.007812 0 2.25 0 Z M 2.25 0 "/>
<path style=" stroke:none;fill-rule:nonzero;fill:rgb(5.098039%,41.176471%,88.235294%);fill-opacity:1;" d="M 2.25 0.992188 C 1.558594 0.992188 1 1.542969 1 2.230469 L 1 49.769531 C 1 50.457031 1.558594 51.007812 2.25 51.007812 L 32.75 51.007812 C 33.441406 51.007812 34 50.457031 34 49.769531 L 34 2.230469 C 34 1.542969 33.441406 0.992188 32.75 0.992188 Z M 5.53125 8.667969 L 29.46875 8.667969 C 30.714844 8.667969 31.71875 9.660156 31.71875 10.894531 L 31.71875 34.605469 C 31.71875 35.839844 30.714844 36.832031 29.46875 36.832031 L 5.53125 36.832031 C 4.285156 36.832031 3.28125 35.839844 3.28125 34.605469 L 3.28125 10.894531 C 3.28125 9.660156 4.285156 8.667969 5.53125 8.667969 Z M 5.53125 8.667969 "/>
<path style="fill:none;stroke-width:2;stroke-linecap:butt;stroke-linejoin:miter;stroke:rgb(0%,0%,0%);stroke-opacity:1;stroke-miterlimit:4;" d="M 45 3.387574 L 655 3.387574 C 679.296875 3.387574 698.984375 23.027748 698.984375 47.400494 L 698.984375 1007.323872 C 698.984375 1031.696618 679.296875 1051.336792 655 1051.336792 L 45 1051.336792 C 20.703125 1051.336792 1.015625 1031.696618 1.015625 1007.323872 L 1.015625 47.400494 C 1.015625 23.027748 20.703125 3.387574 45 3.387574 Z M 45 3.387574 " transform="matrix(0.05,0,0,0.0495238,0,-0.116984)"/>
<path style=" stroke:none;fill-rule:nonzero;fill:rgb(0%,0%,0%);fill-opacity:1;" d="M 12.578125 15.167969 C 12.578125 15.464844 12.332031 15.707031 12.03125 15.707031 C 11.730469 15.707031 11.484375 15.464844 11.484375 15.167969 L 11.484375 10.832031 L 10.390625 10.832031 L 10.390625 17.332031 C 10.390625 18.445312 11.066406 19.398438 12.03125 19.816406 L 12.03125 33.582031 C 12.03125 34.183594 12.519531 34.667969 13.125 34.667969 C 13.730469 34.667969 14.21875 34.183594 14.21875 33.582031 L 14.21875 19.816406 C 15.183594 19.398438 15.859375 18.445312 15.859375 17.332031 L 15.859375 10.832031 L 14.765625 10.832031 L 14.765625 15.167969 C 14.765625 15.464844 14.519531 15.707031 14.21875 15.707031 C 13.917969 15.707031 13.671875 15.464844 13.671875 15.167969 L 13.671875 10.832031 L 12.578125 10.832031 Z M 12.578125 15.167969 "/>
<path style=" stroke:none;fill-rule:nonzero;fill:rgb(0%,0%,0%);fill-opacity:1;" d="M 21.875 24.917969 C 20.667969 24.917969 19.6875 23.945312 19.6875 22.75 L 19.6875 13 C 19.6875 11.804688 20.667969 10.832031 21.875 10.832031 C 23.082031 10.832031 24.0625 11.804688 24.0625 13 L 24.0625 33.582031 C 24.0625 34.183594 23.574219 34.667969 22.96875 34.667969 C 22.363281 34.667969 21.875 34.183594 21.875 33.582031 Z M 21.875 24.917969 "/>
</g>
</svg>
