<?xml version="1.0" encoding="UTF-8"?>
<svg xmlns="http://www.w3.org/2000/svg" xmlns:xlink="http://www.w3.org/1999/xlink" width="35px" height="35px" viewBox="0 0 35 17" version="1.1">
<g id="surface1">
<path style=" stroke:none;fill-rule:nonzero;fill:rgb(0%,0%,0%);fill-opacity:1;" d="M 2.625 0 L 32.375 0 C 33.824219 0 35 1.140625 35 2.550781 L 35 14.449219 C 35 15.859375 33.824219 17 32.375 17 L 2.625 17 C 1.175781 17 0 15.859375 0 14.449219 L 0 2.550781 C 0 1.140625 1.175781 0 2.625 0 Z M 2.625 0 "/>
<path style=" stroke:none;fill-rule:nonzero;fill:rgb(100%,100%,100%);fill-opacity:1;" d="M 2.625 0.566406 L 32.375 0.566406 C 33.503906 0.566406 34.417969 1.453125 34.417969 2.550781 L 34.417969 14.449219 C 34.417969 15.546875 33.503906 16.433594 32.375 16.433594 L 2.625 16.433594 C 1.496094 16.433594 0.582031 15.546875 0.582031 14.449219 L 0.582031 2.550781 C 0.582031 1.453125 1.496094 0.566406 2.625 0.566406 Z M 2.625 0.566406 "/>
<path style=" stroke:none;fill-rule:nonzero;fill:rgb(0%,0%,0%);fill-opacity:1;" d="M 27.34375 7.4375 L 27.34375 5.3125 L 33.03125 8.5 L 27.34375 11.6875 L 27.34375 9.5625 L 22.96875 9.5625 L 22.96875 7.4375 Z M 27.34375 7.4375 "/>
<path style=" stroke:none;fill-rule:nonzero;fill:rgb(0%,0%,0%);fill-opacity:1;" d="M 3.15625 7.007812 L 3.492188 7.433594 L 4.261719 6.964844 L 4.261719 11.289062 L 5.269531 11.289062 L 5.269531 5.710938 L 4.40625 5.710938 Z M 3.15625 7.007812 "/>
<path style=" stroke:none;fill-rule:nonzero;fill:rgb(0%,0%,0%);fill-opacity:1;" d="M 8.539062 5.640625 C 7.957031 5.65625 7.492188 5.921875 7.140625 6.441406 C 6.789062 6.964844 6.609375 7.648438 6.601562 8.5 C 6.609375 9.351562 6.789062 10.035156 7.140625 10.558594 C 7.492188 11.078125 7.957031 11.34375 8.539062 11.359375 C 9.125 11.34375 9.589844 11.078125 9.941406 10.558594 C 10.289062 10.035156 10.46875 9.351562 10.476562 8.5 C 10.46875 7.6875 10.289062 7.011719 9.941406 6.476562 C 9.589844 5.941406 9.125 5.660156 8.539062 5.640625 Z M 8.539062 6.507812 C 8.820312 6.503906 9.046875 6.660156 9.214844 6.980469 C 9.382812 7.300781 9.46875 7.808594 9.472656 8.5 C 9.46875 9.191406 9.382812 9.699219 9.214844 10.019531 C 9.046875 10.339844 8.820312 10.496094 8.539062 10.492188 C 8.257812 10.496094 8.035156 10.339844 7.867188 10.019531 C 7.699219 9.699219 7.613281 9.191406 7.605469 8.5 C 7.613281 7.808594 7.699219 7.300781 7.867188 6.980469 C 8.035156 6.660156 8.257812 6.503906 8.539062 6.507812 Z M 8.539062 6.507812 "/>
<path style=" stroke:none;fill-rule:nonzero;fill:rgb(0%,0%,0%);fill-opacity:1;" d="M 13.316406 5.640625 C 12.734375 5.65625 12.265625 5.921875 11.917969 6.441406 C 11.566406 6.964844 11.386719 7.648438 11.378906 8.5 C 11.386719 9.351562 11.566406 10.035156 11.917969 10.558594 C 12.265625 11.078125 12.734375 11.34375 13.316406 11.359375 C 13.898438 11.34375 14.367188 11.078125 14.714844 10.558594 C 15.066406 10.035156 15.246094 9.351562 15.253906 8.5 C 15.246094 7.6875 15.066406 7.011719 14.714844 6.476562 C 14.367188 5.941406 13.898438 5.660156 13.316406 5.640625 Z M 13.316406 6.507812 C 13.597656 6.503906 13.820312 6.660156 13.992188 6.980469 C 14.160156 7.300781 14.246094 7.808594 14.25 8.5 C 14.246094 9.191406 14.160156 9.699219 13.992188 10.019531 C 13.820312 10.339844 13.597656 10.496094 13.316406 10.492188 C 13.035156 10.496094 12.808594 10.339844 12.640625 10.019531 C 12.472656 9.699219 12.386719 9.191406 12.382812 8.5 C 12.386719 7.808594 12.472656 7.300781 12.640625 6.980469 C 12.808594 6.660156 13.035156 6.503906 13.316406 6.507812 Z M 13.316406 6.507812 "/>
<path style=" stroke:none;fill-rule:nonzero;fill:rgb(0%,0%,0%);fill-opacity:1;" d="M 16.753906 11.289062 L 17.617188 11.289062 L 17.832031 8.570312 L 18.980469 10.800781 L 20.128906 8.570312 L 20.34375 11.289062 L 21.203125 11.289062 L 20.847656 7.382812 L 19.984375 7.382812 L 18.980469 9.335938 L 17.976562 7.382812 L 17.113281 7.382812 Z M 16.753906 11.289062 "/>
</g>
</svg>
