<?xml version="1.0" encoding="UTF-8"?>
<svg xmlns="http://www.w3.org/2000/svg" xmlns:xlink="http://www.w3.org/1999/xlink" width="35px" height="35px" viewBox="0 0 35 17" version="1.1">
<g id="surface1">
<path style=" stroke:none;fill-rule:nonzero;fill:rgb(0%,0%,0%);fill-opacity:1;" d="M 2.625 0 L 32.375 0 C 33.824219 0 35 1.140625 35 2.550781 L 35 14.449219 C 35 15.859375 33.824219 17 32.375 17 L 2.625 17 C 1.175781 17 0 15.859375 0 14.449219 L 0 2.550781 C 0 1.140625 1.175781 0 2.625 0 Z M 2.625 0 "/>
<path style=" stroke:none;fill-rule:nonzero;fill:rgb(100%,100%,100%);fill-opacity:1;" d="M 2.625 0.566406 L 32.375 0.566406 C 33.503906 0.566406 34.417969 1.453125 34.417969 2.550781 L 34.417969 14.449219 C 34.417969 15.546875 33.503906 16.433594 32.375 16.433594 L 2.625 16.433594 C 1.496094 16.433594 0.582031 15.546875 0.582031 14.449219 L 0.582031 2.550781 C 0.582031 1.453125 1.496094 0.566406 2.625 0.566406 Z M 2.625 0.566406 "/>
<path style=" stroke:none;fill-rule:nonzero;fill:rgb(0%,0%,0%);fill-opacity:1;" d="M 2.996094 4.78125 L 3.574219 6.042969 C 3.875 5.785156 4.164062 5.597656 4.449219 5.484375 C 4.734375 5.367188 5.085938 5.3125 5.511719 5.3125 C 5.796875 5.320312 6.046875 5.414062 6.261719 5.589844 C 6.480469 5.769531 6.59375 5.996094 6.605469 6.269531 C 6.589844 6.601562 6.398438 6.917969 6.03125 7.226562 C 5.660156 7.53125 5.195312 7.742188 4.636719 7.863281 L 4.636719 9.03125 C 4.746094 8.980469 4.871094 8.949219 5 8.9375 C 5.132812 8.925781 5.269531 8.921875 5.402344 8.925781 C 6.089844 8.953125 6.523438 9.117188 6.707031 9.410156 C 6.894531 9.707031 6.972656 9.957031 6.949219 10.167969 C 6.925781 10.660156 6.734375 11.019531 6.375 11.246094 C 6.015625 11.472656 5.582031 11.585938 5.074219 11.582031 C 4.699219 11.582031 4.308594 11.546875 3.902344 11.476562 C 3.492188 11.40625 3.148438 11.28125 2.871094 11.109375 L 3.058594 12.597656 C 3.097656 12.613281 3.359375 12.675781 3.847656 12.78125 C 4.335938 12.886719 4.816406 12.949219 5.292969 12.960938 C 6.335938 12.925781 7.132812 12.625 7.679688 12.058594 C 8.230469 11.492188 8.507812 10.871094 8.511719 10.199219 C 8.496094 9.742188 8.351562 9.359375 8.082031 9.058594 C 7.8125 8.757812 7.511719 8.527344 7.179688 8.367188 C 6.851562 8.207031 6.585938 8.109375 6.386719 8.074219 C 6.84375 8.011719 7.242188 7.792969 7.589844 7.410156 C 7.9375 7.03125 8.117188 6.542969 8.136719 5.949219 C 8.105469 5.359375 7.851562 4.890625 7.375 4.546875 C 6.894531 4.203125 6.367188 4.03125 5.792969 4.023438 C 5.328125 4.035156 4.820312 4.121094 4.269531 4.28125 C 3.722656 4.445312 3.296875 4.609375 2.996094 4.78125 Z M 2.996094 4.78125 "/>
<path style=" stroke:none;fill-rule:nonzero;fill:rgb(0%,0%,0%);fill-opacity:1;" d="M 12.929688 4.144531 C 12.039062 4.164062 11.328125 4.574219 10.796875 5.367188 C 10.261719 6.15625 9.988281 7.203125 9.976562 8.5 C 9.988281 9.796875 10.261719 10.84375 10.796875 11.632812 C 11.328125 12.425781 12.039062 12.835938 12.929688 12.855469 C 13.816406 12.835938 14.527344 12.425781 15.0625 11.632812 C 15.59375 10.84375 15.867188 9.796875 15.882812 8.5 C 15.867188 7.261719 15.59375 6.234375 15.0625 5.417969 C 14.527344 4.597656 13.816406 4.175781 12.929688 4.144531 Z M 12.929688 5.464844 C 13.355469 5.457031 13.699219 5.699219 13.957031 6.183594 C 14.210938 6.671875 14.34375 7.445312 14.351562 8.5 C 14.34375 9.554688 14.210938 10.328125 13.957031 10.816406 C 13.699219 11.300781 13.355469 11.542969 12.929688 11.535156 C 12.5 11.542969 12.15625 11.300781 11.902344 10.816406 C 11.644531 10.328125 11.511719 9.554688 11.507812 8.5 C 11.511719 7.445312 11.644531 6.671875 11.902344 6.183594 C 12.15625 5.699219 12.5 5.457031 12.929688 5.464844 Z M 12.929688 5.464844 "/>
<path style=" stroke:none;fill-rule:nonzero;fill:rgb(0%,0%,0%);fill-opacity:1;" d="M 20.152344 4.144531 C 19.261719 4.164062 18.550781 4.574219 18.019531 5.367188 C 17.484375 6.15625 17.210938 7.203125 17.199219 8.5 C 17.210938 9.796875 17.484375 10.84375 18.019531 11.632812 C 18.550781 12.425781 19.261719 12.835938 20.152344 12.855469 C 21.039062 12.835938 21.75 12.425781 22.285156 11.632812 C 22.816406 10.84375 23.089844 9.796875 23.105469 8.5 C 23.089844 7.261719 22.816406 6.234375 22.285156 5.417969 C 21.75 4.597656 21.039062 4.175781 20.152344 4.144531 Z M 20.152344 5.464844 C 20.578125 5.457031 20.921875 5.699219 21.179688 6.183594 C 21.433594 6.671875 21.566406 7.445312 21.574219 8.5 C 21.566406 9.554688 21.433594 10.328125 21.179688 10.816406 C 20.921875 11.300781 20.578125 11.542969 20.152344 11.535156 C 19.722656 11.542969 19.378906 11.300781 19.125 10.816406 C 18.867188 10.328125 18.734375 9.554688 18.730469 8.5 C 18.734375 7.445312 18.867188 6.671875 19.125 6.183594 C 19.378906 5.699219 19.722656 5.457031 20.152344 5.464844 Z M 20.152344 5.464844 "/>
<path style=" stroke:none;fill-rule:nonzero;fill:rgb(0%,0%,0%);fill-opacity:1;" d="M 25.386719 12.75 L 26.699219 12.75 L 27.027344 8.605469 L 28.777344 12.007812 L 30.527344 8.605469 L 30.855469 12.75 L 32.167969 12.75 L 31.621094 6.800781 L 30.308594 6.800781 L 28.777344 9.773438 L 27.246094 6.800781 L 25.933594 6.800781 Z M 25.386719 12.75 "/>
</g>
</svg>
