<?xml version="1.0" encoding="UTF-8"?>
<svg xmlns="http://www.w3.org/2000/svg" xmlns:xlink="http://www.w3.org/1999/xlink" width="35px" height="35px" viewBox="0 0 35 17" version="1.1">
<g id="surface1">
<path style=" stroke:none;fill-rule:nonzero;fill:rgb(0%,0%,0%);fill-opacity:1;" d="M 2.625 0 L 32.375 0 C 33.824219 0 35 1.140625 35 2.550781 L 35 14.449219 C 35 15.859375 33.824219 17 32.375 17 L 2.625 17 C 1.175781 17 0 15.859375 0 14.449219 L 0 2.550781 C 0 1.140625 1.175781 0 2.625 0 Z M 2.625 0 "/>
<path style=" stroke:none;fill-rule:nonzero;fill:rgb(100%,100%,100%);fill-opacity:1;" d="M 2.625 0.566406 C 1.492188 0.566406 0.582031 1.453125 0.582031 2.550781 L 0.582031 12.734375 L 7.4375 9.5625 L 27.5625 9.5625 L 34.417969 12.734375 L 34.417969 2.550781 C 34.417969 1.453125 33.507812 0.566406 32.375 0.566406 Z M 9.023438 10.785156 L 9.023438 16.433594 L 25.976562 16.433594 L 25.976562 10.785156 Z M 7.4375 10.914062 L 0.582031 14.085938 L 0.582031 14.449219 C 0.582031 15.546875 1.492188 16.433594 2.625 16.433594 L 7.4375 16.433594 Z M 27.5625 10.914062 L 27.5625 16.433594 L 32.375 16.433594 C 33.507812 16.433594 34.417969 15.546875 34.417969 14.449219 L 34.417969 14.085938 Z M 27.5625 10.914062 "/>
<path style=" stroke:none;fill-rule:nonzero;fill:rgb(0%,0%,0%);fill-opacity:1;" d="M 17.570312 2.816406 C 17.410156 2.816406 17.253906 2.878906 17.144531 2.996094 L 15.101562 5.121094 C 15.011719 5.214844 14.890625 5.277344 14.757812 5.296875 L 11.632812 5.722656 C 11.339844 5.761719 11.125 6.007812 11.128906 6.296875 L 11.148438 7.375 C 11.15625 7.628906 11.367188 7.832031 11.628906 7.835938 C 11.773438 7.148438 12.40625 6.632812 13.160156 6.632812 C 14.023438 6.632812 14.726562 7.3125 14.726562 8.144531 L 20.289062 8.144531 C 20.289062 7.3125 20.988281 6.632812 21.851562 6.632812 C 22.644531 6.632812 23.296875 7.203125 23.402344 7.941406 L 23.699219 7.863281 C 23.882812 7.816406 24.019531 7.671875 24.058594 7.492188 L 24.363281 5.960938 C 24.398438 5.789062 24.351562 5.613281 24.234375 5.484375 L 22.066406 3.015625 C 21.953125 2.890625 21.792969 2.816406 21.621094 2.816406 Z M 17.636719 3.265625 L 21.65625 3.265625 C 21.882812 3.265625 22.074219 3.425781 22.109375 3.644531 L 22.300781 4.8125 C 22.339844 5.054688 22.167969 5.285156 21.917969 5.324219 C 21.894531 5.328125 21.867188 5.332031 21.84375 5.332031 L 16.34375 5.332031 C 16.136719 5.332031 15.972656 5.167969 15.972656 4.972656 C 15.972656 4.878906 16.007812 4.792969 16.074219 4.726562 L 17.363281 3.378906 C 17.433594 3.304688 17.535156 3.265625 17.636719 3.265625 Z M 17.636719 3.265625 "/>
<path style=" stroke:none;fill-rule:nonzero;fill:rgb(0%,0%,0%);fill-opacity:1;" d="M 13.160156 6.886719 C 12.445312 6.886719 11.867188 7.449219 11.867188 8.144531 C 11.867188 8.839844 12.445312 9.402344 13.160156 9.402344 C 13.875 9.402344 14.453125 8.839844 14.453125 8.144531 C 14.453125 7.449219 13.875 6.886719 13.160156 6.886719 Z M 13.160156 7.398438 C 13.585938 7.398438 13.929688 7.730469 13.929688 8.144531 C 13.929688 8.558594 13.585938 8.894531 13.160156 8.894531 C 12.734375 8.894531 12.390625 8.558594 12.390625 8.144531 C 12.390625 7.730469 12.734375 7.398438 13.160156 7.398438 Z M 13.160156 7.398438 "/>
<path style=" stroke:none;fill-rule:nonzero;fill:rgb(0%,0%,0%);fill-opacity:1;" d="M 21.851562 6.886719 C 21.136719 6.886719 20.558594 7.449219 20.558594 8.144531 C 20.558594 8.839844 21.136719 9.402344 21.851562 9.402344 C 22.566406 9.402344 23.148438 8.839844 23.148438 8.144531 C 23.148438 7.449219 22.566406 6.886719 21.851562 6.886719 Z M 21.851562 7.398438 C 22.277344 7.398438 22.625 7.730469 22.625 8.144531 C 22.625 8.558594 22.277344 8.894531 21.851562 8.894531 C 21.425781 8.894531 21.082031 8.558594 21.082031 8.144531 C 21.082031 7.730469 21.425781 7.398438 21.851562 7.398438 Z M 21.851562 7.398438 "/>
</g>
</svg>
