<?xml version="1.0" encoding="UTF-8"?>
<svg xmlns="http://www.w3.org/2000/svg" xmlns:xlink="http://www.w3.org/1999/xlink" width="35px" height="35px" viewBox="0 0 35 17" version="1.1">
<g id="surface1">
<path style=" stroke:none;fill-rule:nonzero;fill:rgb(0%,0%,0%);fill-opacity:1;" d="M 2.625 0 L 32.375 0 C 33.824219 0 35 1.140625 35 2.550781 L 35 14.449219 C 35 15.859375 33.824219 17 32.375 17 L 2.625 17 C 1.175781 17 0 15.859375 0 14.449219 L 0 2.550781 C 0 1.140625 1.175781 0 2.625 0 Z M 2.625 0 "/>
<path style=" stroke:none;fill-rule:nonzero;fill:rgb(100%,100%,100%);fill-opacity:1;" d="M 2.625 0.566406 L 32.375 0.566406 C 33.503906 0.566406 34.417969 1.453125 34.417969 2.550781 L 34.417969 14.449219 C 34.417969 15.546875 33.503906 16.433594 32.375 16.433594 L 2.625 16.433594 C 1.496094 16.433594 0.582031 15.546875 0.582031 14.449219 L 0.582031 2.550781 C 0.582031 1.453125 1.496094 0.566406 2.625 0.566406 Z M 2.625 0.566406 "/>
<path style=" stroke:none;fill-rule:nonzero;fill:rgb(0%,0%,0%);fill-opacity:1;" d="M 9.269531 6.222656 L 9.785156 6.875 L 10.957031 6.164062 L 10.957031 12.75 L 12.488281 12.75 L 12.488281 4.25 L 11.175781 4.25 Z M 9.269531 6.222656 "/>
<path style=" stroke:none;fill-rule:nonzero;fill:rgb(0%,0%,0%);fill-opacity:1;" d="M 19.464844 5.632812 L 19.902344 4.25 L 14.871094 4.25 L 14.871094 8.394531 L 15.855469 8.925781 C 15.964844 8.851562 16.128906 8.734375 16.347656 8.566406 C 16.566406 8.402344 16.839844 8.308594 17.167969 8.289062 C 17.660156 8.308594 18.039062 8.480469 18.300781 8.804688 C 18.5625 9.132812 18.695312 9.488281 18.699219 9.882812 C 18.671875 10.414062 18.453125 10.8125 18.042969 11.078125 C 17.632812 11.34375 17.195312 11.476562 16.730469 11.476562 C 16.359375 11.480469 15.992188 11.453125 15.621094 11.394531 C 15.246094 11.335938 14.925781 11.21875 14.652344 11.050781 L 14.871094 12.429688 C 14.894531 12.449219 15.117188 12.519531 15.539062 12.644531 C 15.960938 12.769531 16.429688 12.839844 16.949219 12.855469 C 18 12.835938 18.824219 12.53125 19.421875 11.953125 C 20.019531 11.375 20.328125 10.648438 20.339844 9.773438 C 20.304688 8.921875 20.015625 8.265625 19.476562 7.808594 C 18.9375 7.351562 18.347656 7.125 17.714844 7.117188 C 17.457031 7.113281 17.199219 7.148438 16.9375 7.226562 C 16.679688 7.300781 16.464844 7.441406 16.292969 7.648438 L 16.292969 5.632812 Z M 19.464844 5.632812 "/>
<path style=" stroke:none;fill-rule:nonzero;fill:rgb(0%,0%,0%);fill-opacity:1;" d="M 22.054688 6.800781 L 22.054688 7.96875 L 23.898438 7.96875 L 23.898438 12.75 L 25.210938 12.75 L 25.210938 7.96875 L 27.039062 7.96875 L 27.039062 6.800781 Z M 22.054688 6.800781 "/>
</g>
</svg>
