<?xml version="1.0" encoding="UTF-8"?>
<svg xmlns="http://www.w3.org/2000/svg" xmlns:xlink="http://www.w3.org/1999/xlink" width="35px" height="35px" viewBox="0 0 35 17" version="1.1">
<g id="surface1">
<path style=" stroke:none;fill-rule:nonzero;fill:rgb(0%,0%,0%);fill-opacity:1;" d="M 2.625 0 L 32.375 0 C 33.824219 0 35 1.140625 35 2.550781 L 35 14.449219 C 35 15.859375 33.824219 17 32.375 17 L 2.625 17 C 1.175781 17 0 15.859375 0 14.449219 L 0 2.550781 C 0 1.140625 1.175781 0 2.625 0 Z M 2.625 0 "/>
<path style=" stroke:none;fill-rule:nonzero;fill:rgb(100%,100%,100%);fill-opacity:1;" d="M 2.625 0.566406 C 1.492188 0.566406 0.582031 1.453125 0.582031 2.550781 L 0.582031 7.480469 L 2.207031 7.480469 L 8.515625 3.34375 L 8.515625 2.550781 C 8.515625 2.332031 8.699219 2.152344 8.925781 2.152344 C 9.152344 2.152344 9.332031 2.332031 9.332031 2.550781 L 9.332031 3.800781 L 14.824219 9.136719 L 17.792969 9.136719 C 17.984375 9.136719 18.140625 9.289062 18.140625 9.476562 C 18.140625 9.664062 17.984375 9.816406 17.792969 9.816406 L 14.535156 9.816406 L 9.332031 4.761719 L 9.332031 7.480469 L 10.265625 7.480469 L 10.265625 11.21875 L 9.070312 11.21875 C 9.070312 10.15625 8.183594 9.292969 7.085938 9.292969 C 5.992188 9.292969 5.105469 10.15625 5.105469 11.21875 L 0.582031 11.21875 L 0.582031 12.921875 L 34.417969 12.921875 L 34.417969 2.550781 C 34.417969 1.453125 33.507812 0.566406 32.375 0.566406 Z M 8.515625 4.027344 L 3.25 7.480469 L 8.515625 7.480469 Z M 0.582031 13.34375 L 0.582031 14.449219 C 0.582031 15.546875 1.492188 16.433594 2.625 16.433594 L 32.375 16.433594 C 33.507812 16.433594 34.417969 15.546875 34.417969 14.449219 L 34.417969 13.34375 Z M 0.582031 13.34375 "/>
<path style=" stroke:none;fill-rule:nonzero;fill:rgb(0%,0%,0%);fill-opacity:1;" d="M 7.085938 9.972656 C 6.25 9.972656 5.570312 10.632812 5.570312 11.445312 C 5.570312 12.261719 6.25 12.921875 7.085938 12.921875 C 7.925781 12.921875 8.605469 12.261719 8.605469 11.445312 C 8.605469 10.632812 7.925781 9.972656 7.085938 9.972656 Z M 7.085938 10.566406 C 7.585938 10.566406 7.992188 10.960938 7.992188 11.445312 C 7.992188 11.933594 7.585938 12.324219 7.085938 12.324219 C 6.589844 12.324219 6.183594 11.933594 6.183594 11.445312 C 6.183594 10.960938 6.589844 10.566406 7.085938 10.566406 Z M 7.085938 10.566406 "/>
<path style=" stroke:none;fill-rule:nonzero;fill:rgb(0%,0%,0%);fill-opacity:1;" d="M 23.695312 2.984375 C 23.59375 2.992188 23.492188 3.015625 23.402344 3.0625 L 19.964844 4.71875 C 19.808594 4.792969 19.636719 4.8125 19.46875 4.777344 L 15.519531 3.917969 C 15.148438 3.835938 14.777344 4.039062 14.648438 4.382812 L 14.167969 5.6875 C 14.0625 5.996094 14.222656 6.332031 14.53125 6.453125 C 15.027344 5.691406 16.023438 5.347656 16.929688 5.679688 C 17.964844 6.058594 18.492188 7.179688 18.105469 8.179688 L 24.78125 10.621094 C 25.171875 9.617188 26.328125 9.113281 27.363281 9.492188 C 28.3125 9.839844 28.835938 10.808594 28.617188 11.738281 L 29.011719 11.777344 C 29.25 11.800781 29.484375 11.6875 29.609375 11.488281 L 30.6875 9.785156 C 30.808594 9.59375 30.835938 9.363281 30.757812 9.152344 L 29.300781 5.242188 C 29.226562 5.039062 29.0625 4.882812 28.855469 4.808594 L 24 3.03125 C 23.902344 2.996094 23.796875 2.980469 23.695312 2.984375 Z M 23.675781 3.570312 C 23.742188 3.566406 23.804688 3.578125 23.867188 3.601562 L 28.6875 5.363281 C 28.960938 5.460938 29.121094 5.738281 29.0625 6.015625 L 28.746094 7.5 C 28.679688 7.8125 28.367188 8.011719 28.046875 7.949219 C 28.015625 7.941406 27.988281 7.933594 27.957031 7.925781 L 21.355469 5.511719 C 21.109375 5.421875 20.984375 5.15625 21.078125 4.917969 C 21.121094 4.808594 21.203125 4.71875 21.3125 4.667969 L 23.488281 3.617188 C 23.550781 3.589844 23.613281 3.574219 23.675781 3.570312 Z M 23.675781 3.570312 "/>
<path style=" stroke:none;fill-rule:nonzero;fill:rgb(0%,0%,0%);fill-opacity:1;" d="M 16.8125 5.984375 C 15.953125 5.671875 14.996094 6.09375 14.671875 6.925781 C 14.351562 7.761719 14.785156 8.691406 15.644531 9.003906 C 16.5 9.316406 17.457031 8.894531 17.78125 8.0625 C 18.105469 7.230469 17.671875 6.296875 16.8125 5.984375 Z M 16.574219 6.597656 C 17.085938 6.78125 17.34375 7.335938 17.152344 7.832031 C 16.960938 8.328125 16.390625 8.578125 15.878906 8.394531 C 15.367188 8.207031 15.109375 7.652344 15.300781 7.15625 C 15.496094 6.660156 16.066406 6.410156 16.574219 6.597656 Z M 16.574219 6.597656 "/>
<path style=" stroke:none;fill-rule:nonzero;fill:rgb(0%,0%,0%);fill-opacity:1;" d="M 27.246094 9.796875 C 26.386719 9.484375 25.429688 9.90625 25.105469 10.738281 C 24.785156 11.574219 25.21875 12.503906 26.074219 12.816406 C 26.933594 13.128906 27.890625 12.707031 28.214844 11.875 C 28.535156 11.042969 28.101562 10.109375 27.246094 9.796875 Z M 27.007812 10.410156 C 27.519531 10.59375 27.777344 11.148438 27.585938 11.644531 C 27.394531 12.140625 26.824219 12.390625 26.3125 12.207031 C 25.800781 12.019531 25.542969 11.464844 25.734375 10.96875 C 25.925781 10.472656 26.496094 10.222656 27.007812 10.410156 Z M 27.007812 10.410156 "/>
</g>
</svg>
