<?xml version="1.0" encoding="UTF-8"?>
<svg xmlns="http://www.w3.org/2000/svg" xmlns:xlink="http://www.w3.org/1999/xlink" width="35px" height="35px" viewBox="0 0 35 17" version="1.1">
<g id="surface1">
<path style=" stroke:none;fill-rule:nonzero;fill:rgb(0%,0%,0%);fill-opacity:1;" d="M 2.625 0 L 32.375 0 C 33.828125 0 35 1.136719 35 2.550781 L 35 14.449219 C 35 15.863281 33.828125 17 32.375 17 L 2.625 17 C 1.171875 17 0 15.863281 0 14.449219 L 0 2.550781 C 0 1.136719 1.171875 0 2.625 0 Z M 2.625 0 "/>
<path style=" stroke:none;fill-rule:nonzero;fill:rgb(100%,100%,100%);fill-opacity:1;" d="M 2.625 0.566406 L 32.375 0.566406 C 33.507812 0.566406 34.417969 1.453125 34.417969 2.550781 L 34.417969 14.449219 C 34.417969 15.546875 33.507812 16.433594 32.375 16.433594 L 2.625 16.433594 C 1.492188 16.433594 0.582031 15.546875 0.582031 14.449219 L 0.582031 2.550781 C 0.582031 1.453125 1.492188 0.566406 2.625 0.566406 Z M 2.625 0.566406 "/>
<path style=" stroke:none;fill-rule:nonzero;fill:rgb(0%,0%,0%);fill-opacity:1;" d="M 16.703125 1.144531 C 16.570312 1.152344 16.441406 1.210938 16.351562 1.320312 L 14.589844 3.410156 C 14.339844 3.316406 14.058594 3.441406 13.960938 3.6875 L 13.167969 5.722656 C 13.070312 5.964844 13.195312 6.238281 13.449219 6.332031 L 21.101562 9.160156 C 21.355469 9.253906 21.636719 9.128906 21.730469 8.882812 L 22.527344 6.847656 C 22.625 6.605469 22.496094 6.332031 22.246094 6.238281 L 22.359375 3.539062 C 22.371094 3.332031 22.242188 3.148438 22.046875 3.074219 L 16.902344 1.175781 C 16.878906 1.164062 16.851562 1.160156 16.828125 1.152344 C 16.804688 1.148438 16.785156 1.148438 16.761719 1.144531 C 16.742188 1.144531 16.722656 1.144531 16.703125 1.144531 Z M 16.785156 1.75 C 16.792969 1.75 16.804688 1.75 16.8125 1.75 C 16.816406 1.753906 16.820312 1.753906 16.828125 1.753906 L 21.707031 3.558594 C 21.746094 3.570312 21.773438 3.609375 21.769531 3.652344 L 21.667969 6.023438 L 15.167969 3.625 L 16.714844 1.785156 C 16.734375 1.761719 16.757812 1.75 16.785156 1.75 Z M 13.382812 6.636719 L 13 7.609375 C 12.84375 8.015625 13.050781 8.464844 13.464844 8.617188 C 13.882812 8.773438 14.347656 8.570312 14.503906 8.164062 L 14.886719 7.191406 Z M 19.441406 8.875 L 19.058594 9.847656 C 18.902344 10.25 19.109375 10.703125 19.527344 10.855469 C 19.941406 11.007812 20.40625 10.808594 20.5625 10.402344 L 20.945312 9.429688 Z M 13.6875 8.996094 L 12 9.464844 C 11.664062 9.554688 11.433594 9.851562 11.433594 10.191406 C 11.433594 10.433594 11.554688 10.664062 11.761719 10.804688 L 14.410156 12.648438 C 14.625 12.796875 14.753906 13.039062 14.753906 13.296875 C 14.753906 13.558594 14.621094 13.804688 14.398438 13.953125 L 12.871094 14.96875 L 16.558594 14.96875 L 17.09375 14.417969 C 17.339844 14.164062 17.480469 13.828125 17.480469 13.476562 C 17.480469 12.976562 17.203125 12.519531 16.757812 12.277344 L 13.140625 10.304688 C 13.023438 10.242188 12.953125 10.121094 12.953125 9.992188 C 12.953125 9.910156 12.980469 9.828125 13.035156 9.761719 Z M 19.558594 11.050781 L 18.441406 11.5625 C 18.253906 11.648438 18.132812 11.832031 18.132812 12.035156 C 18.132812 12.246094 18.261719 12.4375 18.464844 12.519531 L 21.292969 13.667969 C 21.589844 13.789062 21.78125 14.070312 21.78125 14.378906 C 21.78125 14.664062 21.621094 14.921875 21.367188 15.058594 L 24.320312 15.058594 C 24.128906 14.121094 23.441406 13.355469 22.511719 13.046875 L 19.519531 12.046875 C 19.355469 11.988281 19.242188 11.835938 19.242188 11.667969 C 19.242188 11.59375 19.265625 11.519531 19.304688 11.457031 Z M 19.558594 11.050781 "/>
</g>
</svg>
