<?xml version="1.0" encoding="UTF-8"?>
<svg xmlns="http://www.w3.org/2000/svg" xmlns:xlink="http://www.w3.org/1999/xlink" width="35px" height="35px" viewBox="0 0 35 17" version="1.1">
<g id="surface1">
<path style=" stroke:none;fill-rule:nonzero;fill:rgb(0%,0%,0%);fill-opacity:1;" d="M 2.625 0 L 32.375 0 C 33.828125 0 35 1.136719 35 2.550781 L 35 14.449219 C 35 15.863281 33.828125 17 32.375 17 L 2.625 17 C 1.171875 17 0 15.863281 0 14.449219 L 0 2.550781 C 0 1.136719 1.171875 0 2.625 0 Z M 2.625 0 "/>
<path style=" stroke:none;fill-rule:nonzero;fill:rgb(100%,100%,100%);fill-opacity:1;" d="M 2.625 0.566406 L 32.375 0.566406 C 33.507812 0.566406 34.417969 1.453125 34.417969 2.550781 L 34.417969 14.449219 C 34.417969 15.546875 33.507812 16.433594 32.375 16.433594 L 2.625 16.433594 C 1.492188 16.433594 0.582031 15.546875 0.582031 14.449219 L 0.582031 2.550781 C 0.582031 1.453125 1.492188 0.566406 2.625 0.566406 Z M 2.625 0.566406 "/>
<path style=" stroke:none;fill-rule:evenodd;fill:rgb(0%,0%,0%);fill-opacity:1;" d="M 17.089844 4.617188 C 16.957031 4.617188 16.851562 4.71875 16.851562 4.84375 L 16.851562 7.84375 L 14.457031 5.695312 C 14.355469 5.601562 14.195312 5.605469 14.097656 5.707031 L 13.863281 5.953125 C 13.769531 6.054688 13.777344 6.210938 13.878906 6.300781 L 17.054688 9.152344 C 17.105469 9.199219 17.175781 9.222656 17.242188 9.21875 C 17.308594 9.222656 17.375 9.199219 17.429688 9.152344 L 20.605469 6.300781 C 20.707031 6.210938 20.714844 6.054688 20.617188 5.953125 L 20.386719 5.707031 C 20.289062 5.605469 20.128906 5.601562 20.023438 5.695312 L 17.707031 7.773438 L 17.707031 4.84375 C 17.707031 4.71875 17.601562 4.617188 17.46875 4.617188 Z M 22.195312 6.113281 C 21.75 6.113281 21.390625 6.464844 21.390625 6.898438 C 21.390625 7.179688 21.546875 7.4375 21.796875 7.578125 L 21.949219 7.664062 C 22.046875 7.71875 22.109375 7.820312 22.109375 7.929688 C 22.109375 7.976562 22.097656 8.019531 22.078125 8.058594 L 21.355469 9.566406 C 21.011719 9.378906 20.621094 9.277344 20.222656 9.277344 C 18.949219 9.277344 17.914062 10.28125 17.914062 11.519531 C 17.914062 12.753906 18.949219 13.757812 20.222656 13.757812 C 21.496094 13.757812 22.527344 12.753906 22.527344 11.519531 C 22.527344 10.871094 22.242188 10.257812 21.738281 9.832031 L 21.917969 9.457031 L 25.054688 11.773438 C 25.097656 11.808594 25.152344 11.828125 25.210938 11.828125 L 26.472656 11.828125 C 26.628906 12.933594 27.605469 13.757812 28.757812 13.757812 C 30.03125 13.757812 31.0625 12.753906 31.0625 11.519531 C 31.0625 10.28125 30.03125 9.277344 28.757812 9.277344 C 28.398438 9.277344 28.042969 9.359375 27.722656 9.515625 L 26.867188 8.332031 L 27.09375 7.820312 L 27.226562 7.820312 C 27.417969 7.820312 27.574219 7.671875 27.574219 7.484375 C 27.574219 7.300781 27.417969 7.148438 27.226562 7.148438 L 25.640625 7.148438 C 25.449219 7.148438 25.296875 7.300781 25.296875 7.484375 C 25.296875 7.671875 25.449219 7.820312 25.640625 7.820312 L 26.652344 7.820312 L 26.519531 8.128906 L 22.542969 8.128906 C 22.5625 8.0625 22.570312 7.996094 22.570312 7.929688 C 22.570312 7.660156 22.421875 7.40625 22.175781 7.273438 L 22.027344 7.1875 C 21.917969 7.128906 21.851562 7.019531 21.851562 6.898438 C 21.851562 6.710938 22.003906 6.5625 22.195312 6.5625 L 23.335938 6.5625 C 23.464844 6.5625 23.566406 6.460938 23.566406 6.335938 C 23.566406 6.214844 23.464844 6.113281 23.335938 6.113281 Z M 5.480469 6.179688 C 5.285156 6.179688 5.09375 6.265625 4.96875 6.410156 L 2.464844 9.257812 C 2.332031 9.410156 2.277344 9.613281 2.316406 9.808594 L 2.667969 11.574219 C 2.710938 11.78125 2.871094 11.949219 3.078125 12.003906 L 3.421875 12.09375 C 3.542969 11.242188 4.296875 10.585938 5.210938 10.585938 C 6.207031 10.585938 7.015625 11.367188 7.015625 12.332031 L 13.4375 12.332031 C 13.4375 11.367188 14.246094 10.585938 15.242188 10.585938 C 16.113281 10.585938 16.839844 11.179688 17.011719 11.976562 C 17.308594 11.964844 17.554688 11.734375 17.566406 11.441406 L 17.585938 10.195312 C 17.59375 9.863281 17.34375 9.582031 17.003906 9.535156 L 13.402344 9.042969 C 13.25 9.019531 13.105469 8.949219 13 8.839844 L 10.648438 6.386719 C 10.519531 6.253906 10.339844 6.179688 10.152344 6.179688 Z M 5.441406 6.699219 L 10.078125 6.699219 C 10.195312 6.699219 10.308594 6.746094 10.390625 6.828125 L 11.882812 8.382812 C 11.957031 8.460938 11.996094 8.5625 11.996094 8.667969 C 11.996094 8.898438 11.808594 9.082031 11.570312 9.082031 L 5.222656 9.082031 C 5.195312 9.082031 5.164062 9.082031 5.136719 9.074219 C 4.847656 9.03125 4.648438 8.765625 4.695312 8.484375 L 4.914062 7.136719 C 4.957031 6.882812 5.179688 6.699219 5.441406 6.699219 Z M 22.402344 8.632812 L 26.300781 8.632812 L 25.167969 11.226562 L 22.195312 9.027344 Z M 26.734375 8.925781 L 27.332031 9.757812 C 26.832031 10.136719 26.515625 10.707031 26.457031 11.320312 L 25.6875 11.320312 Z M 20.222656 9.613281 C 20.570312 9.613281 20.910156 9.703125 21.210938 9.875 L 20.710938 10.917969 C 20.679688 10.980469 20.628906 11.03125 20.566406 11.066406 L 20.105469 11.324219 C 20.035156 11.363281 19.992188 11.4375 19.992188 11.519531 C 19.992188 11.640625 20.09375 11.742188 20.222656 11.742188 C 20.261719 11.742188 20.300781 11.730469 20.335938 11.710938 L 20.800781 11.453125 C 20.941406 11.371094 21.058594 11.25 21.128906 11.105469 L 21.585938 10.148438 C 21.96875 10.507812 22.183594 11.003906 22.183594 11.519531 C 22.183594 12.570312 21.304688 13.421875 20.222656 13.421875 C 19.140625 13.421875 18.261719 12.570312 18.261719 11.519531 C 18.261719 10.464844 19.140625 9.613281 20.222656 9.613281 Z M 28.757812 9.613281 C 29.839844 9.613281 30.714844 10.464844 30.714844 11.519531 C 30.714844 12.570312 29.839844 13.421875 28.757812 13.421875 C 27.796875 13.421875 26.976562 12.746094 26.820312 11.828125 L 28.8125 11.828125 C 28.988281 11.828125 29.128906 11.6875 29.128906 11.519531 C 29.128906 11.453125 29.109375 11.394531 29.074219 11.339844 L 27.949219 9.78125 C 28.203125 9.671875 28.476562 9.613281 28.757812 9.613281 Z M 27.507812 10.050781 L 28.425781 11.320312 L 26.804688 11.320312 C 26.859375 10.824219 27.109375 10.367188 27.507812 10.050781 Z M 5.210938 10.878906 C 4.386719 10.878906 3.71875 11.527344 3.71875 12.328125 C 3.71875 13.132812 4.386719 13.78125 5.210938 13.78125 C 6.035156 13.78125 6.707031 13.132812 6.707031 12.328125 C 6.707031 11.527344 6.035156 10.878906 5.210938 10.878906 Z M 15.242188 10.878906 C 14.417969 10.878906 13.75 11.527344 13.75 12.328125 C 13.75 13.132812 14.417969 13.78125 15.242188 13.78125 C 16.066406 13.78125 16.738281 13.132812 16.738281 12.328125 C 16.738281 11.527344 16.066406 10.878906 15.242188 10.878906 Z M 5.210938 11.464844 C 5.703125 11.464844 6.101562 11.851562 6.101562 12.328125 C 6.101562 12.808594 5.703125 13.195312 5.210938 13.195312 C 4.71875 13.195312 4.324219 12.808594 4.324219 12.328125 C 4.324219 11.851562 4.71875 11.464844 5.210938 11.464844 Z M 15.242188 11.464844 C 15.734375 11.464844 16.132812 11.851562 16.132812 12.328125 C 16.132812 12.808594 15.734375 13.195312 15.242188 13.195312 C 14.75 13.195312 14.351562 12.808594 14.351562 12.328125 C 14.351562 11.851562 14.75 11.464844 15.242188 11.464844 Z M 2.253906 13.824219 L 2.253906 14.941406 L 33.113281 14.941406 L 33.113281 13.824219 Z M 2.253906 13.824219 "/>
</g>
</svg>
