<?xml version="1.0" encoding="UTF-8"?>
<svg xmlns="http://www.w3.org/2000/svg" xmlns:xlink="http://www.w3.org/1999/xlink" width="35px" height="35px" viewBox="0 0 35 17" version="1.1">
<g id="surface1">
<path style=" stroke:none;fill-rule:nonzero;fill:rgb(0%,0%,0%);fill-opacity:1;" d="M 2.625 0 L 32.375 0 C 33.828125 0 35 1.136719 35 2.550781 L 35 14.449219 C 35 15.863281 33.828125 17 32.375 17 L 2.625 17 C 1.171875 17 0 15.863281 0 14.449219 L 0 2.550781 C 0 1.136719 1.171875 0 2.625 0 Z M 2.625 0 "/>
<path style=" stroke:none;fill-rule:nonzero;fill:rgb(100%,100%,100%);fill-opacity:1;" d="M 2.625 0.566406 L 32.375 0.566406 C 33.507812 0.566406 34.417969 1.453125 34.417969 2.550781 L 34.417969 14.449219 C 34.417969 15.546875 33.507812 16.433594 32.375 16.433594 L 2.625 16.433594 C 1.492188 16.433594 0.582031 15.546875 0.582031 14.449219 L 0.582031 2.550781 C 0.582031 1.453125 1.492188 0.566406 2.625 0.566406 Z M 2.625 0.566406 "/>
<path style=" stroke:none;fill-rule:nonzero;fill:rgb(0%,0%,0%);fill-opacity:1;" d="M 8.480469 6.277344 L 8.746094 5.449219 L 5.71875 5.449219 L 5.71875 7.941406 L 6.3125 8.257812 C 6.441406 8.195312 6.707031 7.875 7.101562 7.875 C 7.691406 7.875 8.023438 8.386719 8.023438 8.835938 C 8.023438 9.472656 7.363281 9.792969 6.835938 9.792969 C 6.40625 9.792969 5.90625 9.746094 5.585938 9.539062 L 5.71875 10.367188 C 5.71875 10.367188 6.378906 10.625 6.96875 10.625 C 8.21875 10.625 9.007812 9.792969 9.007812 8.769531 C 9.007812 7.75 8.152344 7.171875 7.429688 7.171875 C 7.128906 7.171875 6.773438 7.238281 6.574219 7.492188 L 6.574219 6.277344 Z M 8.480469 6.277344 "/>
<path style=" stroke:none;fill-rule:nonzero;fill:rgb(0%,0%,0%);fill-opacity:1;" d="M 12.011719 10.558594 L 12.800781 10.558594 L 12.996094 8.066406 L 14.050781 10.113281 L 15.101562 8.066406 L 15.296875 10.558594 L 16.089844 10.558594 L 15.757812 6.980469 L 14.96875 6.980469 L 14.050781 8.769531 L 13.128906 6.980469 L 12.339844 6.980469 Z M 12.011719 10.558594 "/>
<path style=" stroke:none;fill-rule:nonzero;fill:rgb(0%,0%,0%);fill-opacity:1;" d="M 19.179688 7.492188 C 19.574219 7.492188 20.035156 7.886719 20.035156 8.257812 C 20.035156 8.324219 20.015625 8.386719 19.96875 8.386719 L 18.324219 8.386719 C 18.324219 7.875 18.785156 7.492188 19.179688 7.492188 Z M 20.691406 9.027344 C 20.804688 9.027344 20.890625 8.835938 20.890625 8.644531 C 20.890625 7.683594 20.101562 6.855469 19.179688 6.855469 C 18.679688 6.855469 18.144531 7.109375 17.824219 7.492188 C 17.554688 7.8125 17.449219 8.230469 17.449219 8.808594 C 17.449219 9.9375 18.265625 10.6875 19.246094 10.6875 C 19.703125 10.6875 20.363281 10.496094 20.757812 9.855469 L 20.101562 9.5 C 19.835938 9.820312 19.640625 9.984375 19.308594 9.984375 C 18.980469 9.984375 18.324219 9.792969 18.324219 9.027344 Z M 20.691406 9.027344 "/>
<path style=" stroke:none;fill-rule:nonzero;fill:rgb(0%,0%,0%);fill-opacity:1;" d="M 23.914062 6.855469 C 22.925781 6.855469 22.136719 7.621094 22.136719 8.769531 C 22.136719 9.921875 22.925781 10.6875 23.914062 10.6875 C 24.648438 10.6875 25.238281 10.285156 25.492188 9.601562 L 24.75 9.328125 C 24.609375 9.792969 24.308594 10.046875 23.914062 10.046875 C 23.386719 10.046875 22.992188 9.539062 22.992188 8.769531 C 22.992188 8.003906 23.386719 7.492188 23.914062 7.492188 C 24.308594 7.492188 24.609375 7.75 24.75 8.214844 L 25.492188 7.941406 C 25.238281 7.253906 24.648438 6.855469 23.914062 6.855469 Z M 23.914062 6.855469 "/>
<path style=" stroke:none;fill-rule:nonzero;fill:rgb(0%,0%,0%);fill-opacity:1;" d="M 26.8125 10.558594 L 29.707031 10.558594 L 29.707031 11.328125 L 30.496094 11.328125 L 30.496094 9.855469 L 29.773438 9.855469 L 29.773438 6.980469 L 28.984375 6.980469 L 28.984375 9.855469 L 27.601562 9.855469 L 27.601562 6.980469 L 26.8125 6.980469 Z M 26.8125 10.558594 "/>
</g>
</svg>
