<?xml version="1.0" encoding="UTF-8"?>
<svg xmlns="http://www.w3.org/2000/svg" xmlns:xlink="http://www.w3.org/1999/xlink" width="35px" height="35px" viewBox="0 0 35 17" version="1.1">
<g id="surface1">
<path style=" stroke:none;fill-rule:nonzero;fill:rgb(0%,0%,0%);fill-opacity:1;" d="M 2.625 0 L 32.375 0 C 33.824219 0 35 1.140625 35 2.550781 L 35 14.449219 C 35 15.859375 33.824219 17 32.375 17 L 2.625 17 C 1.175781 17 0 15.859375 0 14.449219 L 0 2.550781 C 0 1.140625 1.175781 0 2.625 0 Z M 2.625 0 "/>
<path style=" stroke:none;fill-rule:nonzero;fill:rgb(100%,100%,100%);fill-opacity:1;" d="M 32.375 0.566406 C 33.507812 0.566406 34.417969 1.453125 34.417969 2.550781 L 34.417969 6.90625 L 11.484375 6.90625 L 11.484375 3.71875 L 2.953125 8.5 L 11.484375 13.28125 L 11.484375 10.09375 L 34.417969 10.09375 L 34.417969 14.449219 C 34.417969 15.546875 33.507812 16.433594 32.375 16.433594 L 2.625 16.433594 C 1.492188 16.433594 0.582031 15.546875 0.582031 14.449219 L 0.582031 2.550781 C 0.582031 1.453125 1.492188 0.566406 2.625 0.566406 Z M 32.375 0.566406 "/>
</g>
</svg>
