<?xml version="1.0" encoding="UTF-8"?>
<svg xmlns="http://www.w3.org/2000/svg" xmlns:xlink="http://www.w3.org/1999/xlink" width="35px" height="35px" viewBox="0 0 35 17" version="1.1">
<g id="surface1">
<path style=" stroke:none;fill-rule:nonzero;fill:rgb(0%,0%,0%);fill-opacity:1;" d="M 2.625 0 L 32.375 0 C 33.824219 0 35 1.140625 35 2.550781 L 35 14.449219 C 35 15.859375 33.824219 17 32.375 17 L 2.625 17 C 1.175781 17 0 15.859375 0 14.449219 L 0 2.550781 C 0 1.140625 1.175781 0 2.625 0 Z M 2.625 0 "/>
<path style=" stroke:none;fill-rule:nonzero;fill:rgb(100%,100%,100%);fill-opacity:1;" d="M 2.625 0.566406 L 32.375 0.566406 C 33.503906 0.566406 34.417969 1.453125 34.417969 2.550781 L 34.417969 14.449219 C 34.417969 15.546875 33.503906 16.433594 32.375 16.433594 L 2.625 16.433594 C 1.496094 16.433594 0.582031 15.546875 0.582031 14.449219 L 0.582031 2.550781 C 0.582031 1.453125 1.496094 0.566406 2.625 0.566406 Z M 2.625 0.566406 "/>
<path style=" stroke:none;fill-rule:nonzero;fill:rgb(0%,0%,0%);fill-opacity:1;" d="M 10.761719 10.382812 C 9.527344 10.382812 8.523438 11.355469 8.523438 12.558594 C 8.523438 13.757812 9.527344 14.730469 10.761719 14.730469 C 11.996094 14.730469 13 13.757812 13 12.558594 C 13 11.355469 11.996094 10.382812 10.761719 10.382812 Z M 10.761719 11.511719 C 11.355469 11.511719 11.835938 11.980469 11.835938 12.558594 C 11.835938 13.132812 11.355469 13.601562 10.761719 13.601562 C 10.167969 13.601562 9.6875 13.132812 9.6875 12.558594 C 9.6875 11.980469 10.167969 11.511719 10.761719 11.511719 Z M 10.761719 11.511719 "/>
<path style=" stroke:none;fill-rule:nonzero;fill:rgb(0%,0%,0%);fill-opacity:1;" d="M 22.820312 8.644531 C 21.089844 8.644531 19.6875 10.007812 19.6875 11.6875 C 19.6875 13.367188 21.089844 14.730469 22.820312 14.730469 C 24.550781 14.730469 25.953125 13.367188 25.953125 11.6875 C 25.953125 10.007812 24.550781 8.644531 22.820312 8.644531 Z M 22.820312 9.949219 C 23.808594 9.949219 24.609375 10.726562 24.609375 11.6875 C 24.609375 12.648438 23.808594 13.425781 22.820312 13.425781 C 21.832031 13.425781 21.03125 12.648438 21.03125 11.6875 C 21.03125 10.726562 21.832031 9.949219 22.820312 9.949219 Z M 22.820312 9.949219 "/>
<path style=" stroke:none;fill-rule:nonzero;fill:rgb(0%,0%,0%);fill-opacity:1;" d="M 19.398438 2.125 C 19.03125 2.125 18.703125 2.339844 18.566406 2.671875 L 17.003906 6.472656 L 14.765625 6.472656 L 14.765625 2.996094 L 13.871094 2.996094 L 13.871094 6.472656 L 10.738281 6.472656 C 10.242188 6.472656 9.84375 6.859375 9.84375 7.339844 L 9.84375 10.105469 C 10.128906 10.003906 10.4375 9.949219 10.761719 9.949219 C 11.929688 9.949219 12.921875 10.675781 13.292969 11.6875 L 19.238281 11.6875 C 19.238281 9.765625 20.84375 8.210938 22.820312 8.210938 C 23.253906 8.210938 23.667969 8.285156 24.054688 8.421875 L 24.609375 7.339844 L 24.160156 6.472656 L 24.160156 2.996094 C 24.160156 2.515625 23.761719 2.125 23.265625 2.125 Z M 19.703125 2.996094 L 22.371094 2.996094 C 22.621094 2.996094 22.820312 3.1875 22.820312 3.429688 L 22.820312 6.035156 C 22.820312 6.277344 22.621094 6.472656 22.371094 6.472656 L 18.628906 6.472656 C 18.378906 6.472656 18.179688 6.277344 18.179688 6.035156 C 18.179688 5.980469 18.191406 5.925781 18.210938 5.875 L 19.285156 3.265625 C 19.355469 3.101562 19.519531 2.996094 19.703125 2.996094 Z M 19.703125 2.996094 "/>
</g>
</svg>
