<?xml version="1.0" encoding="UTF-8"?>
<svg xmlns="http://www.w3.org/2000/svg" xmlns:xlink="http://www.w3.org/1999/xlink" width="35px" height="35px" viewBox="0 0 35 17" version="1.1">
<g id="surface1">
<path style=" stroke:none;fill-rule:nonzero;fill:rgb(0%,0%,0%);fill-opacity:1;" d="M 2.625 0 L 32.375 0 C 33.824219 0 35 1.140625 35 2.550781 L 35 14.449219 C 35 15.859375 33.824219 17 32.375 17 L 2.625 17 C 1.175781 17 0 15.859375 0 14.449219 L 0 2.550781 C 0 1.140625 1.175781 0 2.625 0 Z M 2.625 0 "/>
<path style=" stroke:none;fill-rule:nonzero;fill:rgb(100%,100%,100%);fill-opacity:1;" d="M 2.625 0.566406 L 32.375 0.566406 C 33.503906 0.566406 34.417969 1.453125 34.417969 2.550781 L 34.417969 14.449219 C 34.417969 15.546875 33.503906 16.433594 32.375 16.433594 L 2.625 16.433594 C 1.496094 16.433594 0.582031 15.546875 0.582031 14.449219 L 0.582031 2.550781 C 0.582031 1.453125 1.496094 0.566406 2.625 0.566406 Z M 2.625 0.566406 "/>
<path style=" stroke:none;fill-rule:nonzero;fill:rgb(0%,0%,0%);fill-opacity:1;" d="M 11.816406 3.019531 C 11.699219 3.019531 11.605469 3.109375 11.605469 3.222656 L 11.605469 4.546875 C 11.605469 4.660156 11.699219 4.753906 11.816406 4.753906 L 12.230469 4.753906 L 11.089844 7.523438 C 10.792969 7.449219 10.480469 7.40625 10.160156 7.40625 C 8.1875 7.40625 6.589844 8.957031 6.589844 10.875 C 6.589844 12.789062 8.1875 14.34375 10.160156 14.34375 C 12.132812 14.34375 13.730469 12.789062 13.730469 10.875 C 13.730469 9.558594 12.976562 8.417969 11.867188 7.828125 C 12.214844 6.988281 12.558594 6.144531 12.90625 5.304688 L 14.664062 11.457031 C 14.792969 11.898438 15.207031 12.199219 15.675781 12.199219 L 20.644531 12.199219 C 20.503906 11.785156 20.429688 11.335938 20.429688 10.875 C 20.429688 9.59375 21.007812 8.445312 21.921875 7.660156 C 21.964844 7.621094 21.992188 7.566406 21.992188 7.507812 C 21.992188 7.394531 21.898438 7.304688 21.78125 7.304688 L 18.011719 7.304688 L 17.105469 9.0625 C 17.015625 9.234375 16.835938 9.34375 16.636719 9.34375 L 15.277344 9.34375 C 15.042969 9.34375 14.832031 9.191406 14.769531 8.972656 L 14.1875 6.929688 C 14.109375 6.660156 14.273438 6.378906 14.554688 6.300781 C 14.601562 6.289062 14.648438 6.285156 14.695312 6.285156 L 17.015625 6.285156 C 17.449219 6.285156 17.800781 5.941406 17.800781 5.519531 C 17.800781 5.09375 17.449219 4.753906 17.015625 4.753906 L 12.96875 4.753906 L 13.707031 3.734375 L 14.546875 3.734375 C 14.75 3.734375 14.914062 3.574219 14.914062 3.375 C 14.914062 3.179688 14.75 3.019531 14.546875 3.019531 Z M 10.160156 8.527344 C 10.328125 8.527344 10.496094 8.546875 10.65625 8.578125 L 10.128906 9.855469 C 9.5625 9.871094 9.109375 10.320312 9.109375 10.875 C 9.109375 11.4375 9.582031 11.894531 10.160156 11.894531 C 10.742188 11.894531 11.210938 11.4375 11.210938 10.875 C 11.210938 10.59375 11.097656 10.339844 10.910156 10.15625 C 11.085938 9.730469 11.257812 9.304688 11.433594 8.878906 C 12.121094 9.292969 12.578125 10.03125 12.578125 10.875 C 12.578125 12.171875 11.496094 13.222656 10.160156 13.222656 C 8.828125 13.222656 7.746094 12.171875 7.746094 10.875 C 7.746094 9.578125 8.828125 8.527344 10.160156 8.527344 Z M 10.160156 8.527344 "/>
<path style=" stroke:none;fill-rule:nonzero;fill:rgb(0%,0%,0%);fill-opacity:1;" d="M 24.839844 8.527344 C 26.171875 8.527344 27.253906 9.578125 27.253906 10.875 C 27.253906 12.171875 26.171875 13.222656 24.839844 13.222656 C 23.503906 13.222656 22.421875 12.171875 22.421875 10.875 C 22.421875 10.03125 22.878906 9.292969 23.566406 8.878906 L 24.089844 10.15625 C 23.902344 10.339844 23.789062 10.59375 23.789062 10.875 C 23.789062 11.4375 24.257812 11.894531 24.839844 11.894531 C 25.417969 11.894531 25.890625 11.4375 25.890625 10.875 C 25.890625 10.320312 25.4375 9.871094 24.871094 9.855469 L 24.34375 8.578125 C 24.503906 8.546875 24.671875 8.527344 24.839844 8.527344 Z M 18.539062 6.691406 L 22.664062 6.691406 L 23.132812 7.828125 C 22.023438 8.417969 21.269531 9.558594 21.269531 10.875 C 21.269531 12.789062 22.867188 14.34375 24.839844 14.34375 C 26.8125 14.34375 28.410156 12.789062 28.410156 10.875 C 28.410156 8.957031 26.8125 7.40625 24.839844 7.40625 C 24.519531 7.40625 24.207031 7.449219 23.910156 7.523438 L 23.570312 6.691406 L 25.3125 6.691406 L 25.3125 6.179688 C 25.3125 5.675781 24.886719 5.261719 24.367188 5.261719 L 19.597656 5.261719 C 19.398438 5.261719 19.214844 5.371094 19.128906 5.546875 Z M 18.539062 6.691406 "/>
</g>
</svg>
