<?xml version="1.0" encoding="UTF-8"?>
<svg xmlns="http://www.w3.org/2000/svg" xmlns:xlink="http://www.w3.org/1999/xlink" width="35px" height="35px" viewBox="0 0 35 17" version="1.1">
<g id="surface1">
<path style=" stroke:none;fill-rule:nonzero;fill:rgb(0%,0%,0%);fill-opacity:1;" d="M 2.625 0 L 32.375 0 C 33.824219 0 35 1.140625 35 2.550781 L 35 14.449219 C 35 15.859375 33.824219 17 32.375 17 L 2.625 17 C 1.175781 17 0 15.859375 0 14.449219 L 0 2.550781 C 0 1.140625 1.175781 0 2.625 0 Z M 2.625 0 "/>
<path style=" stroke:none;fill-rule:nonzero;fill:rgb(100%,100%,100%);fill-opacity:1;" d="M 2.625 0.566406 C 1.492188 0.566406 0.582031 1.453125 0.582031 2.550781 L 0.582031 3.1875 L 8.683594 3.1875 C 9.324219 3.1875 9.84375 3.691406 9.84375 4.316406 L 9.84375 10.398438 L 0.582031 10.398438 L 0.582031 10.816406 L 4.164062 10.816406 C 3.367188 11.179688 2.8125 11.945312 2.765625 12.84375 L 0.582031 12.84375 L 0.582031 14.449219 C 0.582031 15.546875 1.492188 16.433594 2.625 16.433594 L 32.375 16.433594 C 33.507812 16.433594 34.417969 15.546875 34.417969 14.449219 L 34.417969 2.550781 C 34.417969 1.453125 33.507812 0.566406 32.375 0.566406 Z M 2.625 0.566406 "/>
<path style=" stroke:none;fill-rule:nonzero;fill:rgb(0%,0%,0%);fill-opacity:1;" d="M 13.125 7.207031 L 28.4375 7.207031 L 28.4375 10.394531 L 13.125 10.394531 Z M 13.125 7.207031 "/>
<path style=" stroke:none;fill-rule:nonzero;fill:rgb(0%,0%,0%);fill-opacity:1;" d="M 15.3125 11.042969 C 14.222656 11.042969 13.339844 11.898438 13.339844 12.957031 C 13.339844 14.015625 14.222656 14.875 15.3125 14.875 C 16.402344 14.875 17.285156 14.015625 17.285156 12.957031 C 17.285156 11.898438 16.402344 11.042969 15.3125 11.042969 Z M 15.3125 11.945312 C 15.890625 11.945312 16.355469 12.398438 16.355469 12.957031 C 16.355469 13.519531 15.890625 13.972656 15.3125 13.972656 C 14.734375 13.972656 14.269531 13.519531 14.269531 12.957031 C 14.269531 12.398438 14.734375 11.945312 15.3125 11.945312 Z M 15.3125 11.945312 "/>
<path style=" stroke:none;fill-rule:nonzero;fill:rgb(0%,0%,0%);fill-opacity:1;" d="M 26.796875 11.042969 C 25.707031 11.042969 24.824219 11.898438 24.824219 12.957031 C 24.824219 14.015625 25.707031 14.875 26.796875 14.875 C 27.886719 14.875 28.769531 14.015625 28.769531 12.957031 C 28.769531 11.898438 27.886719 11.042969 26.796875 11.042969 Z M 26.796875 11.945312 C 27.375 11.945312 27.839844 12.398438 27.839844 12.957031 C 27.839844 13.519531 27.375 13.972656 26.796875 13.972656 C 26.21875 13.972656 25.753906 13.519531 25.753906 12.957031 C 25.753906 12.398438 26.21875 11.945312 26.796875 11.945312 Z M 26.796875 11.945312 "/>
<path style=" stroke:none;fill-rule:nonzero;fill:rgb(0%,0%,0%);fill-opacity:1;" d="M 5.199219 11.042969 C 4.109375 11.042969 3.226562 11.898438 3.226562 12.957031 C 3.226562 14.015625 4.109375 14.875 5.199219 14.875 C 6.289062 14.875 7.175781 14.015625 7.175781 12.957031 C 7.175781 11.898438 6.289062 11.042969 5.199219 11.042969 Z M 5.199219 11.945312 C 5.777344 11.945312 6.246094 12.398438 6.246094 12.957031 C 6.246094 13.519531 5.777344 13.972656 5.199219 13.972656 C 4.625 13.972656 4.15625 13.519531 4.15625 12.957031 C 4.15625 12.398438 4.625 11.945312 5.199219 11.945312 Z M 5.199219 11.945312 "/>
<path style=" stroke:none;fill-rule:nonzero;fill:rgb(0%,0%,0%);fill-opacity:1;" d="M 6.238281 10.816406 C 7.03125 11.179688 7.589844 11.945312 7.632812 12.847656 L 10.390625 12.847656 L 10.390625 11.878906 L 13.144531 11.878906 C 13.390625 11.414062 13.789062 11.039062 14.273438 10.816406 Z M 16.351562 10.816406 C 16.835938 11.039062 17.234375 11.414062 17.480469 11.878906 L 24.628906 11.878906 C 24.875 11.414062 25.273438 11.039062 25.757812 10.816406 Z M 16.351562 10.816406 "/>
</g>
</svg>
