<?xml version="1.0" encoding="UTF-8"?>
<svg xmlns="http://www.w3.org/2000/svg" xmlns:xlink="http://www.w3.org/1999/xlink" width="35px" height="35px" viewBox="0 0 35 17" version="1.1">
<g id="surface1">
<path style=" stroke:none;fill-rule:nonzero;fill:rgb(0%,0%,0%);fill-opacity:1;" d="M 2.625 0 L 32.375 0 C 33.824219 0 35 1.140625 35 2.550781 L 35 14.449219 C 35 15.859375 33.824219 17 32.375 17 L 2.625 17 C 1.175781 17 0 15.859375 0 14.449219 L 0 2.550781 C 0 1.140625 1.175781 0 2.625 0 Z M 2.625 0 "/>
<path style=" stroke:none;fill-rule:nonzero;fill:rgb(100%,100%,100%);fill-opacity:1;" d="M 2.625 0.566406 L 32.375 0.566406 C 33.503906 0.566406 34.417969 1.453125 34.417969 2.550781 L 34.417969 14.449219 C 34.417969 15.546875 33.503906 16.433594 32.375 16.433594 L 2.625 16.433594 C 1.496094 16.433594 0.582031 15.546875 0.582031 14.449219 L 0.582031 2.550781 C 0.582031 1.453125 1.496094 0.566406 2.625 0.566406 Z M 2.625 0.566406 "/>
<path style=" stroke:none;fill-rule:nonzero;fill:rgb(0%,0%,0%);fill-opacity:1;" d="M 9.324219 3.1875 C 8.964844 3.1875 8.632812 3.371094 8.453125 3.675781 L 6.699219 6.632812 C 6.609375 6.78125 6.5625 6.949219 6.5625 7.121094 L 6.5625 10.699219 C 6.5625 11.238281 7.011719 11.675781 7.566406 11.675781 L 8.066406 11.675781 C 8.066406 10.328125 9.195312 9.238281 10.582031 9.238281 C 11.96875 9.238281 13.089844 10.328125 13.089844 11.675781 L 21.125 11.675781 C 21.125 10.328125 22.246094 9.238281 23.632812 9.238281 C 25.019531 9.238281 26.144531 10.328125 26.144531 11.675781 L 27.652344 11.675781 C 28.207031 11.675781 28.65625 11.238281 28.65625 10.699219 L 28.65625 7.121094 C 28.65625 7.015625 28.640625 6.910156 28.605469 6.8125 L 27.589844 3.855469 C 27.453125 3.457031 27.070312 3.1875 26.636719 3.1875 Z M 9.441406 3.871094 L 10.582031 3.871094 C 10.859375 3.871094 11.082031 4.085938 11.082031 4.359375 L 11.082031 6.308594 C 11.082031 6.578125 10.859375 6.796875 10.582031 6.796875 L 8.28125 6.796875 C 8.003906 6.796875 7.777344 6.578125 7.777344 6.308594 C 7.777344 6.222656 7.800781 6.140625 7.847656 6.066406 L 9.003906 4.113281 C 9.09375 3.960938 9.261719 3.871094 9.441406 3.871094 Z M 12.585938 3.871094 L 15.601562 3.871094 C 15.878906 3.871094 16.105469 4.085938 16.105469 4.359375 L 16.105469 6.308594 C 16.105469 6.578125 15.878906 6.796875 15.601562 6.796875 L 12.585938 6.796875 C 12.308594 6.796875 12.085938 6.578125 12.085938 6.308594 L 12.085938 4.359375 C 12.085938 4.085938 12.308594 3.871094 12.585938 3.871094 Z M 17.609375 3.871094 L 20.621094 3.871094 C 20.902344 3.871094 21.125 4.085938 21.125 4.359375 L 21.125 6.308594 C 21.125 6.578125 20.902344 6.796875 20.621094 6.796875 L 17.609375 6.796875 C 17.332031 6.796875 17.109375 6.578125 17.109375 6.308594 L 17.109375 4.359375 C 17.109375 4.085938 17.332031 3.871094 17.609375 3.871094 Z M 22.632812 3.871094 L 25.492188 3.871094 C 25.714844 3.871094 25.910156 4.011719 25.976562 4.21875 L 26.566406 6.171875 C 26.644531 6.429688 26.492188 6.699219 26.222656 6.777344 C 26.179688 6.789062 26.132812 6.796875 26.085938 6.796875 L 22.632812 6.796875 C 22.351562 6.796875 22.128906 6.578125 22.128906 6.308594 L 22.128906 4.359375 C 22.128906 4.085938 22.351562 3.871094 22.632812 3.871094 Z M 22.632812 3.871094 "/>
<path style=" stroke:none;fill-rule:nonzero;fill:rgb(0%,0%,0%);fill-opacity:1;" d="M 10.578125 9.722656 C 9.46875 9.722656 8.570312 10.597656 8.570312 11.675781 C 8.570312 12.753906 9.46875 13.625 10.578125 13.625 C 11.6875 13.625 12.589844 12.753906 12.589844 11.675781 C 12.589844 10.597656 11.6875 9.722656 10.578125 9.722656 Z M 10.578125 10.699219 C 11.132812 10.699219 11.582031 11.136719 11.582031 11.675781 C 11.582031 12.214844 11.132812 12.652344 10.578125 12.652344 C 10.023438 12.652344 9.574219 12.214844 9.574219 11.675781 C 9.574219 11.136719 10.023438 10.699219 10.578125 10.699219 Z M 10.578125 10.699219 "/>
<path style=" stroke:none;fill-rule:nonzero;fill:rgb(0%,0%,0%);fill-opacity:1;" d="M 23.636719 9.722656 C 22.527344 9.722656 21.625 10.597656 21.625 11.675781 C 21.625 12.753906 22.527344 13.625 23.636719 13.625 C 24.746094 13.625 25.644531 12.753906 25.644531 11.675781 C 25.644531 10.597656 24.746094 9.722656 23.636719 9.722656 Z M 23.636719 10.699219 C 24.191406 10.699219 24.640625 11.136719 24.640625 11.675781 C 24.640625 12.214844 24.191406 12.652344 23.636719 12.652344 C 23.082031 12.652344 22.628906 12.214844 22.628906 11.675781 C 22.628906 11.136719 23.082031 10.699219 23.636719 10.699219 Z M 23.636719 10.699219 "/>
</g>
</svg>
