<?xml version="1.0" encoding="UTF-8"?>
<svg xmlns="http://www.w3.org/2000/svg" xmlns:xlink="http://www.w3.org/1999/xlink" width="35px" height="35px" viewBox="0 0 35 17" version="1.1">
<g id="surface1">
<path style=" stroke:none;fill-rule:nonzero;fill:rgb(0%,0%,0%);fill-opacity:1;" d="M 2.25 0 L 32.75 0 C 33.992188 0 35 0.980469 35 2.1875 L 35 14.8125 C 35 16.019531 33.992188 17 32.75 17 L 2.25 17 C 1.007812 17 0 16.019531 0 14.8125 L 0 2.1875 C 0 0.980469 1.007812 0 2.25 0 Z M 2.25 0 "/>
<path style=" stroke:none;fill-rule:nonzero;fill:rgb(100%,100%,100%);fill-opacity:1;" d="M 2.25 0.484375 L 32.75 0.484375 C 33.714844 0.484375 34.5 1.246094 34.5 2.1875 L 34.5 14.8125 C 34.5 15.753906 33.714844 16.515625 32.75 16.515625 L 2.25 16.515625 C 1.285156 16.515625 0.5 15.753906 0.5 14.8125 L 0.5 2.1875 C 0.5 1.246094 1.285156 0.484375 2.25 0.484375 Z M 2.25 0.484375 "/>
<path style=" stroke:none;fill-rule:nonzero;fill:rgb(0%,0%,0%);fill-opacity:1;" d="M 7.109375 12.644531 C 7.109375 13.875 8.136719 14.875 9.40625 14.875 C 10.675781 14.875 11.703125 13.875 11.703125 12.644531 C 11.703125 11.410156 10.675781 10.414062 9.40625 10.414062 C 8.136719 10.414062 7.109375 11.410156 7.109375 12.644531 Z M 8.039062 12.644531 C 8.039062 11.910156 8.652344 11.316406 9.40625 11.316406 C 10.160156 11.316406 10.773438 11.910156 10.773438 12.644531 C 10.773438 13.378906 10.160156 13.972656 9.40625 13.972656 C 8.652344 13.972656 8.039062 13.378906 8.039062 12.644531 Z M 8.039062 12.644531 "/>
<path style=" stroke:none;fill-rule:nonzero;fill:rgb(0%,0%,0%);fill-opacity:1;" d="M 22.53125 12.644531 C 22.53125 13.875 23.558594 14.875 24.828125 14.875 C 26.097656 14.875 27.125 13.875 27.125 12.644531 C 27.125 11.410156 26.097656 10.414062 24.828125 10.414062 C 23.558594 10.414062 22.53125 11.410156 22.53125 12.644531 Z M 23.460938 12.644531 C 23.460938 11.910156 24.074219 11.316406 24.828125 11.316406 C 25.582031 11.316406 26.195312 11.910156 26.195312 12.644531 C 26.195312 13.378906 25.582031 13.972656 24.828125 13.972656 C 24.074219 13.972656 23.460938 13.378906 23.460938 12.644531 Z M 23.460938 12.644531 "/>
<path style=" stroke:none;fill-rule:nonzero;fill:rgb(0%,0%,0%);fill-opacity:1;" d="M 22.066406 12.644531 C 22.066406 11.160156 23.304688 9.960938 24.828125 9.960938 C 26.210938 9.960938 27.378906 10.953125 27.566406 12.285156 L 28.117188 12.144531 C 28.441406 12.058594 28.683594 11.804688 28.75 11.484375 L 29.292969 8.773438 C 29.304688 8.710938 29.3125 8.644531 29.3125 8.578125 C 29.3125 8.339844 29.222656 8.105469 29.0625 7.925781 L 25.207031 3.542969 C 25.011719 3.316406 24.722656 3.1875 24.417969 3.1875 L 17.226562 3.1875 C 16.9375 3.1875 16.664062 3.304688 16.464844 3.507812 L 12.847656 7.277344 C 12.6875 7.445312 12.46875 7.554688 12.234375 7.589844 L 6.699219 8.34375 C 6.179688 8.414062 5.796875 8.851562 5.804688 9.359375 L 5.839844 11.273438 C 5.847656 11.730469 6.226562 12.101562 6.699219 12.109375 C 6.960938 10.859375 8.09375 9.960938 9.40625 9.960938 C 10.929688 9.960938 12.167969 11.160156 12.167969 12.644531 Z M 15.046875 7.648438 C 14.683594 7.648438 14.390625 7.363281 14.390625 7.011719 C 14.390625 6.851562 14.453125 6.695312 14.566406 6.578125 L 16.863281 4.1875 C 16.984375 4.058594 17.160156 3.984375 17.34375 3.984375 L 24.472656 3.984375 C 24.875 3.984375 25.21875 4.269531 25.285156 4.65625 L 25.621094 6.726562 C 25.628906 6.769531 25.632812 6.8125 25.632812 6.851562 C 25.632812 7.292969 25.265625 7.648438 24.8125 7.648438 Z M 15.046875 7.648438 "/>
</g>
</svg>
