<?xml version="1.0" encoding="UTF-8"?>
<svg xmlns="http://www.w3.org/2000/svg" xmlns:xlink="http://www.w3.org/1999/xlink" width="35px" height="35px" viewBox="0 0 35 17" version="1.1">
<g id="surface1">
<path style=" stroke:none;fill-rule:nonzero;fill:rgb(0%,0%,0%);fill-opacity:1;" d="M 2.625 0 L 32.375 0 C 33.828125 0 35 1.136719 35 2.550781 L 35 14.449219 C 35 15.863281 33.828125 17 32.375 17 L 2.625 17 C 1.171875 17 0 15.863281 0 14.449219 L 0 2.550781 C 0 1.136719 1.171875 0 2.625 0 Z M 2.625 0 "/>
<path style=" stroke:none;fill-rule:nonzero;fill:rgb(100%,100%,100%);fill-opacity:1;" d="M 2.625 0.566406 L 32.375 0.566406 C 33.507812 0.566406 34.417969 1.453125 34.417969 2.550781 L 34.417969 14.449219 C 34.417969 15.546875 33.507812 16.433594 32.375 16.433594 L 2.625 16.433594 C 1.492188 16.433594 0.582031 15.546875 0.582031 14.449219 L 0.582031 2.550781 C 0.582031 1.453125 1.492188 0.566406 2.625 0.566406 Z M 2.625 0.566406 "/>
<path style=" stroke:none;fill-rule:evenodd;fill:rgb(0%,0%,0%);fill-opacity:1;" d="M 13.875 3.734375 C 13.601562 3.734375 13.339844 3.84375 13.152344 4.039062 L 9.714844 7.621094 C 9.558594 7.78125 9.355469 7.882812 9.128906 7.914062 L 3.867188 8.632812 C 3.371094 8.703125 3.007812 9.117188 3.015625 9.601562 L 3.046875 11.421875 C 3.0625 11.847656 3.421875 12.1875 3.859375 12.199219 C 4.105469 11.039062 5.167969 10.167969 6.441406 10.167969 C 7.898438 10.167969 9.078125 11.308594 9.078125 12.71875 L 18.457031 12.71875 C 18.457031 11.308594 19.636719 10.167969 21.09375 10.167969 C 22.429688 10.167969 23.53125 11.128906 23.707031 12.371094 L 24.207031 12.238281 C 24.515625 12.160156 24.75 11.917969 24.808594 11.613281 L 25.289062 9.21875 L 26.96875 9.21875 L 26.96875 7.324219 L 27.746094 7.324219 L 27.746094 8.128906 L 29.707031 8.824219 C 29.734375 8.839844 29.761719 8.847656 29.792969 8.859375 L 30.214844 9.007812 L 30.707031 9.007812 C 30.898438 9.011719 31.050781 8.859375 31.050781 8.675781 L 31.050781 8.65625 L 33.347656 8.65625 L 33.347656 7.738281 L 31.050781 7.738281 L 31.050781 6.144531 L 33.347656 6.144531 L 33.347656 5.226562 L 31.039062 5.226562 C 31 5.085938 30.867188 4.980469 30.707031 4.980469 L 30.210938 4.972656 L 27.746094 5.699219 L 27.746094 6.253906 L 25.867188 6.253906 L 25.867188 8.148438 L 25.039062 8.148438 L 21.449219 4.070312 C 21.261719 3.855469 20.988281 3.734375 20.699219 3.734375 Z M 13.984375 4.492188 L 20.757812 4.492188 C 21.140625 4.492188 21.46875 4.761719 21.527344 5.128906 L 21.847656 7.097656 C 21.917969 7.511719 21.625 7.898438 21.199219 7.964844 C 21.160156 7.96875 21.121094 7.972656 21.078125 7.972656 L 11.804688 7.972656 C 11.460938 7.972656 11.179688 7.703125 11.179688 7.367188 C 11.179688 7.214844 11.238281 7.066406 11.347656 6.953125 L 13.527344 4.683594 C 13.648438 4.558594 13.8125 4.492188 13.984375 4.492188 Z M 6.441406 10.597656 C 5.234375 10.597656 4.257812 11.546875 4.257812 12.71875 C 4.257812 13.886719 5.234375 14.835938 6.441406 14.835938 C 7.644531 14.835938 8.621094 13.886719 8.621094 12.71875 C 8.621094 11.546875 7.644531 10.597656 6.441406 10.597656 Z M 21.09375 10.597656 C 19.886719 10.597656 18.910156 11.546875 18.910156 12.71875 C 18.910156 13.886719 19.886719 14.835938 21.09375 14.835938 C 22.296875 14.835938 23.277344 13.886719 23.277344 12.71875 C 23.277344 11.546875 22.296875 10.597656 21.09375 10.597656 Z M 6.441406 11.457031 C 7.15625 11.457031 7.738281 12.019531 7.738281 12.71875 C 7.738281 13.414062 7.15625 13.980469 6.441406 13.980469 C 5.722656 13.980469 5.140625 13.414062 5.140625 12.71875 C 5.140625 12.019531 5.722656 11.457031 6.441406 11.457031 Z M 21.09375 11.457031 C 21.8125 11.457031 22.390625 12.019531 22.390625 12.71875 C 22.390625 13.414062 21.8125 13.980469 21.09375 13.980469 C 20.375 13.980469 19.792969 13.414062 19.792969 12.71875 C 19.792969 12.019531 20.375 11.457031 21.09375 11.457031 Z M 21.09375 11.457031 "/>
</g>
</svg>
