<?xml version="1.0" encoding="UTF-8"?>
<svg xmlns="http://www.w3.org/2000/svg" xmlns:xlink="http://www.w3.org/1999/xlink" width="35px" height="35px" viewBox="0 0 35 17" version="1.1">
<g id="surface1">
<path style=" stroke:none;fill-rule:nonzero;fill:rgb(0%,0%,0%);fill-opacity:1;" d="M 2.625 0 L 32.375 0 C 33.824219 0 35 1.140625 35 2.550781 L 35 14.449219 C 35 15.859375 33.824219 17 32.375 17 L 2.625 17 C 1.175781 17 0 15.859375 0 14.449219 L 0 2.550781 C 0 1.140625 1.175781 0 2.625 0 Z M 2.625 0 "/>
<path style=" stroke:none;fill-rule:nonzero;fill:rgb(100%,100%,100%);fill-opacity:1;" d="M 2.625 0.566406 L 32.375 0.566406 C 33.503906 0.566406 34.417969 1.453125 34.417969 2.550781 L 34.417969 14.449219 C 34.417969 15.546875 33.503906 16.433594 32.375 16.433594 L 2.625 16.433594 C 1.496094 16.433594 0.582031 15.546875 0.582031 14.449219 L 0.582031 2.550781 C 0.582031 1.453125 1.496094 0.566406 2.625 0.566406 Z M 2.625 0.566406 "/>
<path style=" stroke:none;fill-rule:nonzero;fill:rgb(0%,0%,0%);fill-opacity:1;" d="M 8.546875 5.3125 C 8.148438 5.3125 7.773438 5.503906 7.550781 5.824219 L 5.675781 8.53125 C 5.539062 8.722656 5.46875 8.949219 5.46875 9.179688 L 5.46875 11.988281 C 5.46875 12.632812 6.003906 13.152344 6.667969 13.152344 L 7.75 13.152344 C 7.8125 11.859375 8.910156 10.824219 10.257812 10.824219 C 11.609375 10.824219 12.707031 11.859375 12.769531 13.152344 L 22.121094 13.152344 C 22.164062 12.226562 22.742188 11.433594 23.558594 11.058594 L 13.132812 11.058594 L 13.132812 6.472656 C 13.132812 5.832031 12.597656 5.3125 11.9375 5.3125 Z M 8.609375 6.007812 L 11.335938 6.007812 C 11.667969 6.007812 11.9375 6.269531 11.9375 6.59375 L 11.9375 8.222656 C 11.9375 8.542969 11.667969 8.800781 11.335938 8.800781 L 7.476562 8.800781 C 7.144531 8.800781 6.878906 8.542969 6.878906 8.222656 C 6.878906 8.105469 6.914062 7.992188 6.980469 7.894531 L 8.113281 6.265625 C 8.222656 6.105469 8.410156 6.007812 8.609375 6.007812 Z M 8.609375 6.007812 "/>
<path style=" stroke:none;fill-rule:nonzero;fill:rgb(0%,0%,0%);fill-opacity:1;" d="M 15.050781 3.1875 C 14.386719 3.1875 13.851562 3.707031 13.851562 4.351562 L 13.851562 10.625 L 29.421875 10.625 L 29.421875 4.351562 C 29.421875 3.707031 28.886719 3.1875 28.222656 3.1875 Z M 15.050781 3.1875 "/>
<path style=" stroke:none;fill-rule:nonzero;fill:rgb(0%,0%,0%);fill-opacity:1;" d="M 24.632812 11.292969 C 23.507812 11.292969 22.59375 12.175781 22.59375 13.269531 C 22.59375 14.363281 23.507812 15.246094 24.632812 15.246094 C 25.753906 15.246094 26.667969 14.363281 26.667969 13.269531 C 26.667969 12.175781 25.753906 11.292969 24.632812 11.292969 Z M 24.632812 12.222656 C 25.226562 12.222656 25.710938 12.691406 25.710938 13.269531 C 25.710938 13.847656 25.226562 14.316406 24.632812 14.316406 C 24.035156 14.316406 23.554688 13.847656 23.554688 13.269531 C 23.554688 12.691406 24.035156 12.222656 24.632812 12.222656 Z M 24.632812 12.222656 "/>
<path style=" stroke:none;fill-rule:nonzero;fill:rgb(0%,0%,0%);fill-opacity:1;" d="M 27.144531 13.152344 C 27.097656 12.226562 26.519531 11.433594 25.703125 11.058594 L 29.421875 11.058594 L 29.421875 13.152344 Z M 27.144531 13.152344 "/>
<path style=" stroke:none;fill-rule:nonzero;fill:rgb(0%,0%,0%);fill-opacity:1;" d="M 10.257812 11.292969 C 9.136719 11.292969 8.222656 12.175781 8.222656 13.269531 C 8.222656 14.363281 9.136719 15.246094 10.257812 15.246094 C 11.382812 15.246094 12.296875 14.363281 12.296875 13.269531 C 12.296875 12.175781 11.382812 11.292969 10.257812 11.292969 Z M 10.257812 12.222656 C 10.855469 12.222656 11.335938 12.691406 11.335938 13.269531 C 11.335938 13.847656 10.855469 14.316406 10.257812 14.316406 C 9.664062 14.316406 9.179688 13.847656 9.179688 13.269531 C 9.179688 12.691406 9.664062 12.222656 10.257812 12.222656 Z M 10.257812 12.222656 "/>
</g>
</svg>
