<?xml version="1.0" encoding="UTF-8"?>
<svg xmlns="http://www.w3.org/2000/svg" xmlns:xlink="http://www.w3.org/1999/xlink" width="35px" height="35px" viewBox="0 0 35 17" version="1.1">
<g id="surface1">
<path style=" stroke:none;fill-rule:nonzero;fill:rgb(0%,0%,0%);fill-opacity:1;" d="M 2.625 0 L 32.375 0 C 33.824219 0 35 1.140625 35 2.550781 L 35 14.449219 C 35 15.859375 33.824219 17 32.375 17 L 2.625 17 C 1.175781 17 0 15.859375 0 14.449219 L 0 2.550781 C 0 1.140625 1.175781 0 2.625 0 Z M 2.625 0 "/>
<path style=" stroke:none;fill-rule:nonzero;fill:rgb(100%,100%,100%);fill-opacity:1;" d="M 2.625 0.566406 L 32.375 0.566406 C 33.503906 0.566406 34.417969 1.453125 34.417969 2.550781 L 34.417969 14.449219 C 34.417969 15.546875 33.503906 16.433594 32.375 16.433594 L 2.625 16.433594 C 1.496094 16.433594 0.582031 15.546875 0.582031 14.449219 L 0.582031 2.550781 C 0.582031 1.453125 1.496094 0.566406 2.625 0.566406 Z M 2.625 0.566406 "/>
<path style=" stroke:none;fill-rule:nonzero;fill:rgb(0%,0%,0%);fill-opacity:1;" d="M 13.75 1.519531 L 11.195312 3.996094 L 9.84375 6.964844 L 10.964844 8.054688 L 13.167969 5.914062 L 16.378906 9.03125 L 11.777344 13.503906 L 12.898438 14.589844 L 17.5 10.121094 L 22.101562 14.589844 L 23.222656 13.503906 L 18.621094 9.03125 L 21.832031 5.914062 L 24.035156 8.054688 L 25.15625 6.964844 L 23.800781 3.996094 L 21.25 1.519531 L 19.277344 3.433594 L 20.710938 4.824219 L 17.5 7.941406 L 14.289062 4.824219 L 15.722656 3.433594 Z M 13.75 1.519531 "/>
</g>
</svg>
