<?xml version="1.0" encoding="UTF-8"?>
<svg xmlns="http://www.w3.org/2000/svg" xmlns:xlink="http://www.w3.org/1999/xlink" width="35px" height="35px" viewBox="0 0 35 17" version="1.1">
<g id="surface1">
<path style=" stroke:none;fill-rule:nonzero;fill:rgb(0%,0%,0%);fill-opacity:1;" d="M 2.625 0 L 32.375 0 C 33.824219 0 35 1.140625 35 2.550781 L 35 14.449219 C 35 15.859375 33.824219 17 32.375 17 L 2.625 17 C 1.175781 17 0 15.859375 0 14.449219 L 0 2.550781 C 0 1.140625 1.175781 0 2.625 0 Z M 2.625 0 "/>
<path style=" stroke:none;fill-rule:nonzero;fill:rgb(100%,100%,100%);fill-opacity:1;" d="M 2.625 0.566406 L 32.375 0.566406 C 33.503906 0.566406 34.417969 1.453125 34.417969 2.550781 L 34.417969 14.449219 C 34.417969 15.546875 33.503906 16.433594 32.375 16.433594 L 2.625 16.433594 C 1.496094 16.433594 0.582031 15.546875 0.582031 14.449219 L 0.582031 2.550781 C 0.582031 1.453125 1.496094 0.566406 2.625 0.566406 Z M 2.625 0.566406 "/>
<path style=" stroke:none;fill-rule:nonzero;fill:rgb(100%,0%,0%);fill-opacity:1;" d="M 17.5 2.125 C 16.910156 2.125 16.34375 2.203125 15.800781 2.34375 L 16.542969 6.890625 L 12.863281 3.992188 C 12.058594 4.769531 11.460938 5.753906 11.160156 6.851562 L 15.585938 8.5 L 11.160156 10.148438 C 11.460938 11.246094 12.058594 12.230469 12.863281 13.007812 L 16.542969 10.109375 L 15.800781 14.660156 C 16.339844 14.800781 16.910156 14.875 17.5 14.875 C 18.089844 14.875 18.65625 14.796875 19.199219 14.65625 L 18.457031 10.109375 L 22.136719 13.007812 C 22.941406 12.230469 23.539062 11.246094 23.839844 10.148438 L 19.414062 8.5 L 23.839844 6.851562 C 23.539062 5.753906 22.941406 4.769531 22.136719 3.992188 L 18.457031 6.890625 L 19.199219 2.34375 C 18.65625 2.203125 18.089844 2.125 17.5 2.125 Z M 17.5 2.125 "/>
</g>
</svg>
