<?xml version="1.0" encoding="UTF-8"?>
<svg xmlns="http://www.w3.org/2000/svg" xmlns:xlink="http://www.w3.org/1999/xlink" width="35px" height="35px" viewBox="0 0 35 17" version="1.1">
<g id="surface1">
<path style=" stroke:none;fill-rule:nonzero;fill:rgb(0%,0%,0%);fill-opacity:1;" d="M 2.625 0 L 32.375 0 C 33.824219 0 35 1.140625 35 2.550781 L 35 14.449219 C 35 15.859375 33.824219 17 32.375 17 L 2.625 17 C 1.175781 17 0 15.859375 0 14.449219 L 0 2.550781 C 0 1.140625 1.175781 0 2.625 0 Z M 2.625 0 "/>
<path style=" stroke:none;fill-rule:nonzero;fill:rgb(100%,100%,100%);fill-opacity:1;" d="M 2.625 0.566406 C 1.492188 0.566406 0.582031 1.453125 0.582031 2.550781 L 0.582031 14.34375 L 13.125 14.34375 L 13.125 12.75 L 34.417969 12.75 L 34.417969 2.550781 C 34.417969 1.453125 33.507812 0.566406 32.375 0.566406 Z M 2.625 0.566406 "/>
<path style=" stroke:none;fill-rule:nonzero;fill:rgb(0%,0%,0%);fill-opacity:1;" d="M 28.136719 9.171875 C 29.09375 9.171875 29.871094 9.925781 29.871094 10.855469 C 29.871094 11.785156 29.09375 12.539062 28.136719 12.539062 C 27.179688 12.539062 26.402344 11.785156 26.402344 10.855469 C 26.402344 9.925781 27.179688 9.171875 28.136719 9.171875 Z M 28.136719 9.851562 C 27.566406 9.851562 27.105469 10.300781 27.105469 10.855469 C 27.105469 11.40625 27.566406 11.855469 28.136719 11.855469 C 28.707031 11.855469 29.167969 11.40625 29.167969 10.855469 C 29.167969 10.300781 28.707031 9.851562 28.136719 9.851562 Z M 28.136719 9.851562 "/>
<path style=" stroke:none;fill-rule:nonzero;fill:rgb(0%,0%,0%);fill-opacity:1;" d="M 16.5 9.171875 C 17.457031 9.171875 18.234375 9.925781 18.234375 10.855469 C 18.234375 11.785156 17.457031 12.539062 16.5 12.539062 C 15.542969 12.539062 14.765625 11.785156 14.765625 10.855469 C 14.765625 9.925781 15.542969 9.171875 16.5 9.171875 Z M 16.5 9.851562 C 15.929688 9.851562 15.46875 10.300781 15.46875 10.855469 C 15.46875 11.40625 15.929688 11.855469 16.5 11.855469 C 17.070312 11.855469 17.53125 11.40625 17.53125 10.855469 C 17.53125 10.300781 17.070312 9.851562 16.5 9.851562 Z M 16.5 9.851562 "/>
<path style=" stroke:none;fill-rule:nonzero;fill:rgb(0%,0%,0%);fill-opacity:1;" d="M 22.402344 3.71875 C 22.1875 3.71875 21.980469 3.808594 21.832031 3.960938 L 19.101562 6.804688 C 18.976562 6.933594 18.8125 7.015625 18.636719 7.039062 L 14.457031 7.609375 C 14.0625 7.664062 13.773438 7.996094 13.78125 8.378906 L 13.808594 9.824219 C 13.820312 10.164062 14.101562 10.433594 14.449219 10.441406 C 14.644531 9.523438 15.488281 8.828125 16.5 8.828125 C 17.65625 8.828125 18.59375 9.734375 18.59375 10.851562 L 26.042969 10.851562 C 26.042969 9.734375 26.980469 8.828125 28.136719 8.828125 C 29.195312 8.828125 30.070312 9.589844 30.210938 10.578125 L 30.609375 10.472656 C 30.855469 10.410156 31.039062 10.21875 31.085938 9.976562 L 31.496094 7.929688 C 31.542969 7.699219 31.476562 7.464844 31.324219 7.289062 L 28.417969 3.984375 C 28.269531 3.816406 28.050781 3.71875 27.824219 3.71875 Z M 22.492188 4.320312 L 27.871094 4.320312 C 28.175781 4.320312 28.433594 4.535156 28.480469 4.828125 L 28.738281 6.390625 C 28.789062 6.71875 28.558594 7.027344 28.21875 7.078125 C 28.1875 7.082031 28.15625 7.085938 28.125 7.085938 L 20.757812 7.085938 C 20.484375 7.085938 20.265625 6.871094 20.265625 6.605469 C 20.265625 6.484375 20.3125 6.367188 20.398438 6.277344 L 22.128906 4.472656 C 22.222656 4.375 22.355469 4.320312 22.492188 4.320312 Z M 22.492188 4.320312 "/>
</g>
</svg>
