<?xml version="1.0" encoding="UTF-8"?>
<svg xmlns="http://www.w3.org/2000/svg" xmlns:xlink="http://www.w3.org/1999/xlink" width="35px" height="35px" viewBox="0 0 35 17" version="1.1">
<g id="surface1">
<path style=" stroke:none;fill-rule:nonzero;fill:rgb(0%,0%,0%);fill-opacity:1;" d="M 2.625 0 L 32.375 0 C 33.824219 0 35 1.140625 35 2.550781 L 35 14.449219 C 35 15.859375 33.824219 17 32.375 17 L 2.625 17 C 1.175781 17 0 15.859375 0 14.449219 L 0 2.550781 C 0 1.140625 1.175781 0 2.625 0 Z M 2.625 0 "/>
<path style=" stroke:none;fill-rule:nonzero;fill:rgb(100%,100%,100%);fill-opacity:1;" d="M 2.625 0.566406 C 1.492188 0.566406 0.582031 1.453125 0.582031 2.550781 L 0.582031 14.34375 L 21.875 14.34375 L 21.875 12.75 L 34.417969 12.75 L 34.417969 2.550781 C 34.417969 1.453125 33.507812 0.566406 32.375 0.566406 Z M 2.625 0.566406 "/>
<path style=" stroke:none;fill-rule:nonzero;fill:rgb(0%,0%,0%);fill-opacity:1;" d="M 7.96875 10.765625 C 7.011719 10.765625 6.234375 11.519531 6.234375 12.449219 C 6.234375 13.378906 7.011719 14.132812 7.96875 14.132812 C 8.925781 14.132812 9.703125 13.378906 9.703125 12.449219 C 9.703125 11.519531 8.925781 10.765625 7.96875 10.765625 Z M 7.96875 11.445312 C 8.539062 11.445312 9 11.894531 9 12.449219 C 9 13 8.539062 13.449219 7.96875 13.449219 C 7.398438 13.449219 6.9375 13 6.9375 12.449219 C 6.9375 11.894531 7.398438 11.445312 7.96875 11.445312 Z M 7.96875 11.445312 "/>
<path style=" stroke:none;fill-rule:nonzero;fill:rgb(0%,0%,0%);fill-opacity:1;" d="M 19.605469 10.765625 C 18.648438 10.765625 17.871094 11.519531 17.871094 12.449219 C 17.871094 13.378906 18.648438 14.132812 19.605469 14.132812 C 20.5625 14.132812 21.335938 13.378906 21.335938 12.449219 C 21.335938 11.519531 20.5625 10.765625 19.605469 10.765625 Z M 19.605469 11.445312 C 20.175781 11.445312 20.636719 11.894531 20.636719 12.449219 C 20.636719 13 20.175781 13.449219 19.605469 13.449219 C 19.035156 13.449219 18.574219 13 18.574219 12.449219 C 18.574219 11.894531 19.035156 11.445312 19.605469 11.445312 Z M 19.605469 11.445312 "/>
<path style=" stroke:none;fill-rule:nonzero;fill:rgb(0%,0%,0%);fill-opacity:1;" d="M 8.28125 5.3125 C 8.050781 5.3125 7.835938 5.410156 7.683594 5.578125 L 4.78125 8.882812 C 4.625 9.058594 4.5625 9.292969 4.609375 9.523438 L 5.019531 11.570312 C 5.066406 11.8125 5.25 12.003906 5.496094 12.066406 L 5.894531 12.171875 C 6.03125 11.183594 6.90625 10.421875 7.96875 10.421875 C 9.125 10.421875 10.0625 11.328125 10.0625 12.445312 L 17.511719 12.445312 C 17.511719 11.328125 18.449219 10.421875 19.605469 10.421875 C 20.617188 10.421875 21.460938 11.117188 21.65625 12.035156 C 22.003906 12.027344 22.285156 11.757812 22.296875 11.417969 L 22.324219 9.972656 C 22.332031 9.589844 22.042969 9.257812 21.648438 9.203125 L 17.46875 8.632812 C 17.292969 8.609375 17.125 8.527344 17.003906 8.398438 L 14.273438 5.554688 C 14.125 5.402344 13.917969 5.3125 13.699219 5.3125 Z M 8.234375 5.914062 L 13.613281 5.914062 C 13.75 5.914062 13.882812 5.96875 13.976562 6.066406 L 15.707031 7.871094 C 15.792969 7.960938 15.839844 8.078125 15.839844 8.199219 C 15.839844 8.464844 15.617188 8.679688 15.34375 8.679688 L 7.980469 8.679688 C 7.949219 8.679688 7.914062 8.675781 7.882812 8.671875 C 7.542969 8.621094 7.316406 8.3125 7.367188 7.984375 L 7.625 6.421875 C 7.671875 6.128906 7.929688 5.914062 8.234375 5.914062 Z M 8.234375 5.914062 "/>
</g>
</svg>
