<?xml version="1.0" encoding="UTF-8"?>
<svg xmlns="http://www.w3.org/2000/svg" xmlns:xlink="http://www.w3.org/1999/xlink" width="35px" height="35px" viewBox="0 0 35 17" version="1.1">
<g id="surface1">
<path style=" stroke:none;fill-rule:nonzero;fill:rgb(0%,0%,0%);fill-opacity:1;" d="M 2.625 0 L 32.375 0 C 33.824219 0 35 1.140625 35 2.550781 L 35 14.449219 C 35 15.859375 33.824219 17 32.375 17 L 2.625 17 C 1.175781 17 0 15.859375 0 14.449219 L 0 2.550781 C 0 1.140625 1.175781 0 2.625 0 Z M 2.625 0 "/>
<path style=" stroke:none;fill-rule:nonzero;fill:rgb(100%,100%,100%);fill-opacity:1;" d="M 2.625 0.566406 C 1.492188 0.566406 0.582031 1.453125 0.582031 2.550781 L 0.582031 14.34375 L 17.5 14.34375 L 17.5 12.75 L 34.417969 12.75 L 34.417969 2.550781 C 34.417969 1.453125 33.507812 0.566406 32.375 0.566406 Z M 2.625 0.566406 "/>
<path style=" stroke:none;fill-rule:nonzero;fill:rgb(0%,0%,0%);fill-opacity:1;" d="M 18.585938 2.902344 C 18.550781 2.902344 18.519531 2.90625 18.488281 2.910156 L 15.339844 3.5625 L 12.195312 4.210938 C 11.945312 4.261719 11.71875 4.503906 11.6875 4.746094 L 11.574219 5.65625 L 11.332031 7.542969 C 11.332031 7.542969 11.332031 7.546875 11.332031 7.546875 L 11.277344 7.984375 C 10.921875 8.058594 10.695312 8.394531 10.773438 8.742188 L 11.320312 11.234375 C 11.394531 11.582031 11.742188 11.800781 12.097656 11.726562 L 21.722656 9.738281 C 22.078125 9.664062 22.304688 9.328125 22.230469 8.980469 L 21.683594 6.488281 C 21.609375 6.144531 21.261719 5.921875 20.90625 5.996094 L 20.671875 5.617188 C 20.671875 5.617188 20.667969 5.613281 20.667969 5.613281 L 19.660156 3.984375 L 19.175781 3.203125 C 19.058594 3.015625 18.8125 2.894531 18.585938 2.902344 Z M 18.476562 3.570312 C 18.589844 3.566406 18.714844 3.628906 18.773438 3.71875 L 20.261719 6.128906 L 16.089844 6.992188 L 11.921875 7.851562 L 12.273438 5.0625 C 12.289062 4.941406 12.402344 4.820312 12.523438 4.792969 L 18.429688 3.574219 C 18.445312 3.570312 18.460938 3.570312 18.476562 3.570312 Z M 18.476562 3.570312 "/>
<path style=" stroke:none;fill-rule:nonzero;fill:rgb(0%,0%,0%);fill-opacity:1;" d="M 12.164062 12.039062 L 12.4375 13.285156 C 12.550781 13.800781 13.074219 14.132812 13.605469 14.023438 C 14.136719 13.910156 14.476562 13.402344 14.363281 12.886719 L 14.089844 11.640625 Z M 12.164062 12.039062 "/>
<path style=" stroke:none;fill-rule:nonzero;fill:rgb(0%,0%,0%);fill-opacity:1;" d="M 19.867188 10.449219 L 20.140625 11.695312 C 20.253906 12.210938 20.777344 12.542969 21.308594 12.429688 C 21.839844 12.320312 22.179688 11.8125 22.066406 11.296875 L 21.792969 10.050781 Z M 19.867188 10.449219 "/>
</g>
</svg>
