<?xml version="1.0" encoding="UTF-8"?>
<svg xmlns="http://www.w3.org/2000/svg" xmlns:xlink="http://www.w3.org/1999/xlink" width="35px" height="35px" viewBox="0 0 35 17" version="1.1">
<g id="surface1">
<path style=" stroke:none;fill-rule:nonzero;fill:rgb(0%,0%,0%);fill-opacity:1;" d="M 2.625 0 L 32.375 0 C 33.824219 0 35 1.140625 35 2.550781 L 35 14.449219 C 35 15.859375 33.824219 17 32.375 17 L 2.625 17 C 1.175781 17 0 15.859375 0 14.449219 L 0 2.550781 C 0 1.140625 1.175781 0 2.625 0 Z M 2.625 0 "/>
<path style=" stroke:none;fill-rule:nonzero;fill:rgb(100%,100%,100%);fill-opacity:1;" d="M 2.625 0.566406 C 1.492188 0.566406 0.582031 1.453125 0.582031 2.550781 L 0.582031 14.34375 L 17.5 14.34375 L 17.5 12.75 L 34.417969 12.75 L 34.417969 2.550781 C 34.417969 1.453125 33.507812 0.566406 32.375 0.566406 Z M 2.625 0.566406 "/>
<path style=" stroke:none;fill-rule:nonzero;fill:rgb(0%,0%,0%);fill-opacity:1;" d="M 11.457031 10.78125 C 10.511719 10.910156 9.851562 11.765625 9.988281 12.683594 C 10.121094 13.605469 11 14.246094 11.945312 14.113281 C 12.894531 13.984375 13.554688 13.128906 13.417969 12.210938 C 13.28125 11.289062 12.40625 10.648438 11.457031 10.78125 Z M 11.558594 11.457031 C 12.121094 11.378906 12.644531 11.757812 12.722656 12.304688 C 12.804688 12.855469 12.410156 13.363281 11.847656 13.441406 C 11.285156 13.519531 10.761719 13.136719 10.679688 12.589844 C 10.601562 12.039062 10.992188 11.535156 11.558594 11.457031 Z M 11.558594 11.457031 "/>
<path style=" stroke:none;fill-rule:nonzero;fill:rgb(0%,0%,0%);fill-opacity:1;" d="M 22.976562 9.1875 C 22.03125 9.320312 21.371094 10.171875 21.507812 11.09375 C 21.640625 12.011719 22.519531 12.652344 23.46875 12.523438 C 24.414062 12.390625 25.074219 11.539062 24.9375 10.617188 C 24.804688 9.695312 23.925781 9.058594 22.976562 9.1875 Z M 23.078125 9.863281 C 23.640625 9.785156 24.164062 10.164062 24.242188 10.714844 C 24.324219 11.261719 23.933594 11.769531 23.367188 11.847656 C 22.804688 11.925781 22.28125 11.542969 22.203125 10.996094 C 22.121094 10.449219 22.511719 9.941406 23.078125 9.863281 Z M 23.078125 9.863281 "/>
<path style=" stroke:none;fill-rule:nonzero;fill:rgb(0%,0%,0%);fill-opacity:1;" d="M 16.421875 4.589844 C 16.394531 4.59375 16.371094 4.59375 16.34375 4.597656 L 10.976562 5.339844 C 10.75 5.371094 10.546875 5.496094 10.425781 5.6875 L 8.03125 9.355469 C 7.902344 9.550781 7.875 9.792969 7.953125 10.011719 L 8.652344 11.984375 C 8.734375 12.214844 8.949219 12.378906 9.199219 12.410156 L 9.609375 12.457031 C 9.601562 11.460938 10.359375 10.585938 11.40625 10.441406 C 12.554688 10.285156 13.613281 11.054688 13.777344 12.160156 L 21.148438 11.140625 C 20.988281 10.035156 21.785156 9.007812 22.929688 8.851562 C 23.929688 8.710938 24.867188 9.28125 25.195312 10.167969 C 25.535156 10.109375 25.777344 9.804688 25.738281 9.46875 L 25.554688 8.03125 C 25.507812 7.652344 25.171875 7.363281 24.777344 7.363281 L 20.554688 7.371094 C 20.375 7.371094 20.199219 7.3125 20.0625 7.203125 L 16.945312 4.761719 C 16.796875 4.644531 16.609375 4.585938 16.421875 4.589844 Z M 16.394531 5.199219 C 16.511719 5.195312 16.628906 5.234375 16.722656 5.308594 L 18.699219 6.855469 C 18.796875 6.933594 18.863281 7.042969 18.878906 7.164062 C 18.917969 7.425781 18.730469 7.667969 18.457031 7.707031 L 11.167969 8.714844 C 11.136719 8.71875 11.101562 8.722656 11.070312 8.722656 C 10.730469 8.714844 10.457031 8.441406 10.460938 8.109375 L 10.488281 6.527344 C 10.492188 6.230469 10.714844 5.984375 11.019531 5.941406 L 16.34375 5.207031 C 16.359375 5.203125 16.375 5.203125 16.394531 5.199219 Z M 16.394531 5.199219 "/>
</g>
</svg>
