<?xml version="1.0" encoding="utf-8"?>
<!-- Svg Vector Icons : http://www.onlinewebfonts.com/icon -->
<!DOCTYPE svg PUBLIC "-//W3C//DTD SVG 1.1//EN" "http://www.w3.org/Graphics/SVG/1.1/DTD/svg11.dtd">
<svg version="1.1" xmlns="http://www.w3.org/2000/svg" xmlns:xlink="http://www.w3.org/1999/xlink" x="0px" y="0px" viewBox="0 0 1000 1000" enable-background="new 0 0 1000 1000" xml:space="preserve">
<metadata> Svg Vector Icons : http://www.onlinewebfonts.com/icon </metadata>
<g><g transform="translate(0.000000,511.000000) scale(0.100000,-0.100000)"><path d="M2241.9,4950.2c-230-115-138,269.1-1131.8-4708.8c-492.3-2456.7-894.8-4511-894.8-4566.2c0-184,156.4-391.1,338.2-439.4c121.9-34.5,8771.2-34.5,8893.1,0c181.7,50.6,335.9,255.4,338.1,446.3c0,50.6-402.5,2102.5-894.8,4561.6c-998.3,4994-901.7,4591.5-1136.3,4708.8l-117.3,57.5H5000H2363.8L2241.9,4950.2z M5506.1,3054.7v-989.1H5000h-506.1v989.1v989.1H5000h506.1V3054.7z M5506.1,110.3v-989.1H5000h-506.1v989.1v989.2H5000h506.1V110.3z M5506.1-2834.1v-989.1H5000h-506.1v989.1v989.1H5000h506.1V-2834.1z"/></g></g>
</svg>